<?xml version="1.0" encoding="UTF-8"?>
<svg version="1.1" viewBox="0 0 1000 1000" width="1000" height="1000" xmlns="http://www.w3.org/2000/svg">
<path transform="translate(430,281)" d="m0 0h161l12 4 10 8 6 10 3 11-1 13-4 10-6 7-8 5-9 3-17 2h-97l1 28v17l71-1 21 1 12 2 7 4 6 8 3 6 1 5v12l-3 9-6 7-7 4-6 2-7 1-92 1v36l1 6 102 1 11 2 12 5 5 4 6 10 3 7v18l-4 11-5 7-10 6-12 3-16 1h-137l-18-2-11-4-11-6-6-8-4-11-2-11-1-29v-109l1-77 3-13 6-10 8-7 12-6z" fill="#033F95"/>
<path transform="translate(225,281)" d="m0 0h40l19 3 17 5 16 6 13 7 12 9 11 11 7 11 5 12 2 12v8l-2 10-5 10-5 6-12 7-7 2h-18l-11-4-10-9-11-14-10-11-10-6-10-3h-22l-13 4-11 8-8 12-5 14-3 14-1 9v28l2 13 4 15 5 11 8 11 10 7 13 4h23l10-3 11-7 7-8 11-16 9-8 11-4 5-1h12l12 4 9 6 7 8 4 8 2 10v10l-4 13-7 14-11 13-16 12-14 8-15 6-18 5-21 3h-29l-23-3-19-5-15-6-14-7-13-10-10-9-7-7-10-14-8-14-9-27-4-22v-42l3-22 6-21 6-15 9-15 9-11 11-12 11-9 15-9 13-6 16-5 15-3z" fill="#013E94"/>
<path transform="translate(675,282)" d="m0 0h21l11 4 10 9 5 9 6 15 10 36 14 51 16 58v4h2l2-12 11-42 19-69 9-33 7-14 7-8 7-5 10-3h18l12 3 13 7 8 9 5 10 1 4v11l-2 11-12 37-15 43-15 44-15 43-14 40-6 12-9 10-5 4-8 4-13 3h-34l-15-3-8-5-7-6-7-11-8-19-12-36-27-80-15-43-13-40-2-9v-8l2-9 6-10 8-7 14-7z" fill="#013D94"/>
<path transform="translate(368,581)" d="m0 0 5 2 17 12 19 9 18 6 22 5 18 3 10 1h48l26-3 24-5 20-6 16-8 12-7 11-8h5l1 5-5 8-8 10-14 14-14 10-18 10-20 8-20 6-19 3h-35l-26-4-20-6-17-7-14-8-12-9-10-9-5-4-7-8-9-12v-7z" fill="#064196"/>
<path transform="translate(603,692)" d="m0 0h12l9 3 6 5 4 8v6l-10-2-8-7-2-1h-10l-8 5h-2l-2 7v14l4 10 4 3 3 1h11l8-4 3-7h-14l-3-3v-6l2-2h26v17l-3 7-5 5-6 3-4 1h-18l-10-4-7-8-4-10-1-5v-9l2-9 5-8 7-6 6-3z" fill="#093285"/>
<path transform="translate(501,692)" d="m0 0h16l18 1v10l-1 1h-32l-1 13h15l17 1 1 2v6l-2 2-30 1v14l34 1 1 1v7l-1 2h-48l-1-5v-53l3-3z" fill="#10499A"/>
<path transform="translate(759,692)" d="m0 0h15l9 4 8 8 4 8v20l-3 9-7 9-8 4-3 1h-17l-7-3-6-5-4-6-3-9v-17l4-11 5-6 7-4zm13 11-13 1-6 4-4 8v13l2 9 4 5 4 2h13l6-4 4-5 1-3v-20l-4-6-3-3z" fill="#0B3385"/>
<path transform="translate(323,692)" d="m0 0h13l8 3 8 7 5 8 2 7v12l-3 10-6 9-5 4-9 3h-16l-8-3-8-9-4-10-1-12 2-11 5-8 8-7zm1 12-7 3-5 6-1 3v14l4 10 5 4 2 1h13l8-7 4-6v-14l-3-8-5-5-2-1z" fill="#093385"/>
<path transform="translate(226,692)" d="m0 0h12l8 3 7 7 3 5v6h-8l-8-6-4-2h-11l-4 2-3 9v16l3 8 3 3 3 1h7l6-3 4-5 4-4h6l3 3-1 5-4 7-6 5-8 3h-13l-8-3-6-5-5-8-2-7v-16l4-11 7-8 8-4z" fill="#0A3285"/>
<path transform="translate(406,693)" d="m0 0 8 1 1 1v49h31v10h-43v-60z" fill="#033E94"/>
<path transform="translate(683,693)" d="m0 0h9l1 1v56l-2 5-2 1h-7l-1-1v-61z" fill="#32559A"/>
<path transform="translate(491,734)" d="m0 0 2 2 1 3 2 1 2-6h2v9l36 1 1 1v7l-1 1h-44l-2-1-1-7 1-10z" fill="#143A89"/>
<path transform="translate(367,585)" d="m0 0h6l3 5 5 4h4l4 13 3 4v2l8 4 5 5 2 1v2l5 2 12 8 1 3-6-2-12-7-14-11-10-9-7-8-9-12z" fill="#0B3486"/>
<path transform="translate(691,698)" d="m0 0h1v56h-1v-6l-4-1-2-7v-39z" fill="#003D94"/>
<path transform="translate(610,722)" d="m0 0h26v17l-2 6h-1l-3-16-1-4h-3l1 5h-5l3 3h-14l-3-3v-6z" fill="#1F54A1"/>
<path transform="translate(806,337)" d="m0 0h1l-1 8-7 25-9 33-3 9-3 1 4-17 14-51 2-7z" fill="#18408E"/>
<path transform="translate(758,698)" d="m0 0 9 1 4 2 1 3-13 1-5 3-4 8v18l-2-1-3-16 2-10 4-2 1-5h3z" fill="#184F9E"/>
<path transform="translate(711,542)" d="m0 0h2l6 9 11 14 13 7 6 2-3 2-10-2-8-5-7-6-7-11-3-6z" fill="#143C8B"/>
<path transform="translate(122,514)" d="m0 0h2l8 11 8 9 8 7 13 10 16 8 15 6 10 3 1 3-12-3-15-6-14-7-13-10-10-9-7-7-10-14z" fill="#2256A2"/>
<path transform="translate(143,536)" d="m0 0 4 1 3 2v2l4 2 5 4 7 4 9 5 17 6 9 4 7 2v3h-5l-1-3-10-2-15-6-16-8-14-11z" fill="#00297F"/>
<path transform="translate(685,468)" d="m0 0 3 1 7 18 4 9 5 19-1 5-2-2-15-45z" fill="#163E8D"/>
<path transform="translate(587,403)" d="m0 0 5 2 6 8 3 6 1 5v12l-2 6h-2l-2-21-4-10-5-5z" fill="#153D8C"/>
<path transform="translate(501,719)" d="m0 0h32l1 1v6l-1 1h-20v-3l10-1 2-1-24-1z" fill="#093184"/>
<path transform="translate(817,553)" d="m0 0 2 1-1 5-10 10-10 5-3 1h-9l4-3 16-8 5-3 1-2h2l2-5z" fill="#0D3688"/>
<path transform="translate(515,676)" d="m0 0 5 1 1 5-4 4-7 4h-2l-2-5 3-6z" fill="#1C4491"/>
<path transform="translate(248,732)" d="m0 0h6l3 3-1 3-7-1-2 5-4 1-1 3h-8v-2l6-3 4-5z" fill="#1C529F"/>
<path transform="translate(488,699)" d="m0 0h1l1 53 46 1v1h-48l-1-5z" fill="#7898C6"/>
<path transform="translate(215,282)" d="m0 0h8l-1 3-20 4-10 1 1-3 16-4z" fill="#19418E"/>
<path transform="translate(739,708)" d="m0 0 2 3 2 4v9l-2 5-2 3h-2v-17z" fill="#0A4598"/>
<path transform="translate(496,701)" d="m0 0 5 1-1 18h-5v-15z" fill="#00297F"/>
<path transform="translate(288,373)" d="m0 0 3 1v2l4 2v2h2l7 8 5 6v2l-4-2-8-7-9-11z" fill="#18408E"/>
<path transform="translate(119,506)" d="m0 0h3l9 14 9 10v3h2v2l-4-2-9-10-5-7v-2l-3-1z" fill="#00297F"/>
<path transform="translate(124,341)" d="m0 0 1 4-8 16-5 5-1-2 5-12 6-10z" fill="#143C8C"/>
<path transform="translate(825,290)" d="m0 0 2 1-7 12-4 9-5 2 3-9 6-9z" fill="#173F8D"/>
<path transform="translate(635,588)" d="m0 0h3l-1 5-11 13-3 1 1-4h2l1-6 6-7h2z" fill="#0C3587"/>
<path transform="translate(618,598)" d="m0 0v3l-8 5-15 6h-2l1-4 11-4z" fill="#00297F"/>
<path transform="translate(217,710)" d="m0 0h2l-1 6v16l1 6-4-4-1-3v-13z" fill="#2E60A7"/>
<path transform="translate(806,337)" d="m0 0h1l-1 8-4 14-4 2 4-16 2-7z" fill="#19428F"/>
<path transform="translate(782,420)" d="m0 0h2l-1 8-3 12-3 3-1-3 5-19z" fill="#1A428F"/>
<path transform="translate(112,489)" d="m0 0 3 4 5 11 1 8-4-5-3-6z" fill="#1C4693"/>
<path transform="translate(405,717)" d="m0 0h2l1 5h2v11l-3 1v-8l-2-2z" fill="#00297F"/>
<path transform="translate(228,699)" d="m0 0h3v2l6 1 1 3h-14v-3z" fill="#054196"/>
<path transform="translate(579,610)" d="m0 0h6l-4 4-5 1h-8l3-3z" fill="#10398A"/>
<path transform="translate(327,700)" d="m0 0 11 2 1 3h-17z" fill="#3968AC"/>
<path transform="translate(800,359)" d="m0 0 1 4-3 10-3 1 1-7 3-7z" fill="#133B8B"/>
<path transform="translate(606,289)" d="m0 0 5 2 6 9h-3l-8-9z" fill="#204691"/>
<path transform="translate(607,618)" d="m0 0h4l-2 4-7 5h-2l2-4z" fill="#1B4390"/>
<path transform="translate(357,713)" d="m0 0 2 4v12l-1 5h-1l-1-13z" fill="#6C8FC1"/>
<path transform="translate(418,283)" d="m0 0 3 1-1 2-12 3-1-2z" fill="#284F97"/>
<path transform="translate(630,708)" d="m0 0h4v6l-8-1z" fill="#2A5DA5"/>
<path transform="translate(750,695)" d="m0 0 2 1-5 4-1 4-4 1v2l-2-1 6-8z" fill="#4670AF"/>
<path transform="translate(407,700)" d="m0 0 2 2 2 7-1 4-3-6-1-6z" fill="#00297F"/>
<path transform="translate(422,282)" d="m0 0h8l1 2-2 1h-9z" fill="#123B8A"/>
</svg>
