<?xml version="1.0" encoding="UTF-8"?>
<svg version="1.1" viewBox="0 0 2048 2048" width="708" height="708" xmlns="http://www.w3.org/2000/svg">
<path transform="translate(0)" d="m0 0h2048v2048h-2048z" fill="#FCFCFC"/>
<path transform="translate(225,856)" d="m0 0h80l6 21 16 62 11 44 13 50 7 28 2-3 8-32 10-38 14-56 16-62 3-13 1-1h80l10 1v305l-1 1h-54l-1-1-1-232-5 19-21 86-14 58-12 49-5 21h-58l-3-9-11-45-19-79-11-44-11-46-3-12-1 235h-55l-1-1v-304l1-1z" fill="#006634"/>
<path transform="translate(916,856)" d="m0 0h46l1 1v301l-2 5h-50l-1-1-1-29-11 12-8 7-14 8-12 5-16 3h-13l-15-3-16-7-11-8-10-9-8-9-10-17-7-19-3-15-2-17v-24l3-27 4-14 6-15 8-13 11-13 12-9 16-8 13-4 6-1h23l16 4 14 7 11 9 7 6v2h2l1-107z" fill="#006634"/>
<path transform="translate(1204,651)" d="m0 0 13 1 14 4 12 7 13 12 1 2 3 1v-22h42v183l-2 16-5 16-6 11-7 8-11 7-12 5-11 3-16 2h-27l-20-3-14-4-12-7-7-6-7-11-4-9-2-12v-8h10l42 5 4 10 8 6 8 2h15l15-3 9-6 4-8 2-11v-34l-14 14-14 8-13 4-11 1-16-2-13-5-11-7-11-11-10-16-5-13-4-19v-36l4-20 6-16 9-14 8-8 11-8 11-5 11-3z" fill="#3A3B3A"/>
<path transform="translate(1736,935)" d="m0 0h35l22 3 16 5 11 6 11 9 7 11 4 13 2 14 1 13v102l2 19 4 17 5 12v3h-56l-6-21v-2l-16 12-15 9-16 5-14 2h-13l-16-2-14-5-13-9-8-7-7-11-5-13-2-9v-18l3-14 8-16 4-5 8-7 13-8 17-6 19-5 37-8 21-6 2-1v-16l-3-9-5-5-9-4-12-2h-15l-12 3-6 4-7 8-6 12-29-5-21-4-1-3 6-16 9-16 10-11 13-8 12-5 18-4z" fill="#006634"/>
<path transform="translate(617,936)" d="m0 0h27l16 3 16 6 15 9 14 13 8 11 8 15 6 18 3 15 2 19v23l-1 1h-141l2 15 4 13 7 11 7 7 12 6 3 1h20l11-4 8-8 6-12 2-6 9 1 34 6 13 2 1 2-7 17-9 14-13 13-10 7-16 8-21 5-8 1h-22l-19-3-15-5-16-9-11-9-11-14-8-14-5-12-5-20-2-19v-21l3-23 4-15 6-15 11-18 7-8 11-9 10-7 15-7 12-3z" fill="#006634"/>
<path transform="translate(1550,935)" d="m0 0 15 1 16 4 12 5 11 8 7 7 8 14 4 15 2 13v153l-1 8h-49l-7-1-1-140-3-18-6-12-8-6-11-4h-12l-12 3-10 6-4 4h-2l-2 5-5 10-3 13-2 15-1 124-1 1h-55l-1-1v-220l1-1h52l1 30h2l2-4 7-8 11-9 17-9 13-4z" fill="#006634"/>
<path transform="translate(786,652)" d="m0 0h29l16 4 12 5 14 9 9 8 11 15 7 15 4 14 2 14v15l-3 21-6 16-6 11-10 13-11 10-16 9-14 5-10 2h-27l-17-4-15-6-11-7-10-9-8-10-8-16-4-12-3-18v-24l4-19 7-17 7-11 9-10 9-8 14-8 15-5z" fill="#3A3B3A"/>
<path transform="translate(1464,652)" d="m0 0h28l18 4 17 8 13 10 7 7 7 10 8 16 4 13 2 14v22l-3 17-6 16-7 12-9 11-7 7-15 10-12 5-16 4h-26l-18-4-15-6-12-7-12-11-9-14-7-16-4-19-1-11v-12l2-16 5-16 8-16 8-11 12-11 13-8 14-5z" fill="#3A3B3A"/>
<path transform="translate(1188,936)" d="m0 0h27l14 2 17 5 13 7 9 7 10 10 8 13 7 15 3 9v3l-25 5-31 5-1-1-2-10-4-8-5-6-10-6-7-2h-20l-11 4-9 6-6 7-7 18-2 16v28l3 19 5 15 7 10 8 6 12 5 5 1h12l9-2 8-4 7-7 6-10 5-18 12 1 43 8 1 3-6 20-7 14-10 14-9 9-16 10-14 6-12 3-15 2h-19l-21-3-15-5-15-9-9-7-8-8-9-12-6-10-6-16-4-19-1-7v-41l4-22 6-17 8-14 11-14 10-9 13-8 14-6 16-4z" fill="#006534"/>
<path transform="translate(597,583)" d="m0 0h13l18 2 15 4 10 4 16 10 13 13 9 14 8 19 1 7-44 11-4-1-5-13-7-11-10-8-10-5-9-2h-17l-13 3-10 5-10 9-7 10-5 11-4 17-2 21v13l1 17 4 20 5 13 6 10 9 9 14 7 11 3h16l13-4 10-6 8-8 8-14 5-15 1-4 9 2 37 12 1 4-9 24-9 15-13 15-13 9-14 7-18 5-18 2-22-1-18-4-16-7-14-9-10-9-7-7-7-10-9-16-6-18-4-19-1-8v-37l4-24 6-20 8-16 9-13 10-11 13-10 19-10 18-5z" fill="#3A3B3A"/>
<path transform="translate(282,677)" d="m0 0h151l1 5-14 55-18 71-12 46-14 55-11 43-5 18-2-2-12-46-16-59-9-35-9-33-22-84-8-30z" fill="#00AC4E"/>
<path transform="translate(1032,652)" d="m0 0h25l14 3 16 7 11 8 10 11 8 14 7 21 2 12 1 11v20h-115l3 16 7 14 3 3v2l4 2 9 5 5 1h12l9-3 7-5 8-16 17 2 29 5-3 9-6 11-10 13-13 10-13 6-17 4h-29l-17-4-12-5-11-8-6-5-10-14-6-13-4-13-3-22v-15l2-18 4-15 5-12 6-11 12-13 7-6 11-6 10-4z" fill="#3A3B3A"/>
<path transform="translate(1348,940)" d="m0 0h13l22 1 1 2v220h-56l-1-1v-221z" fill="#006634"/>
<path transform="translate(1007,941)" d="m0 0h56l1 25v92l-1 105h-56z" fill="#006534"/>
<path transform="translate(906,587)" d="m0 0 45 1 1 139v58l-1 49h-45z" fill="#3A3B3A"/>
<path transform="translate(433,685)" d="m0 0 2 4 2 3v21l-6 33-4 10-9 14-6 17-1 24-4 22-2 10 2 19h3l-1 8-14 54-14 55-11 44-8 30-3 9-2-1-14-56-13-50-23-90-2-7 1-5 1-7v-45l-9-32-6-15-6-18-3-13v-14l2-5v-8l2 1 14 51 11 44 5 18 11 41 11 42 13 48 7 27 3-9 10-38 15-59 18-70 18-71 9-34z" fill="#F1FEFE"/>
<path transform="translate(852,981)" d="m0 0h15l13 5 10 8 6 7 5 11 4 14 1 7v35l-3 16-5 12-5 8-7 8-10 6-10 3h-15l-12-4-10-7-7-10-6-12-3-13-2-22 1-22 4-18 6-12 11-12 11-6z" fill="#FCFDFD"/>
<path transform="translate(1369,655)" d="m0 0h4v179h-46v-178z" fill="#393B3A"/>
<path transform="translate(795,690)" d="m0 0h11l11 3 10 7 7 8 5 10 4 18v15l-3 18-4 10-7 9-7 6-8 4-9 2h-10l-9-2-9-5-9-9-7-13-3-16v-22l4-16 6-11 9-9 9-5z" fill="#FDFDFD"/>
<path transform="translate(1473,690)" d="m0 0h11l13 4 8 6 8 9 5 11 3 13v22l-3 15-7 14-6 7-10 6-10 3h-12l-10-3-10-6-8-9-6-13-3-16v-15l2-14 5-12 7-10 7-6 11-5z" fill="#FDFDFD"/>
<path transform="translate(1211,688)" d="m0 0h16l9 4 8 6 6 7 4 8 3 15 1 8v9l-2 17-4 12-6 9-9 8-12 5h-15l-9-4-8-6-6-9-4-10-3-18v-15l2-15 5-13 7-9 9-6z" fill="#FDFDFD"/>
<path transform="translate(285,696)" d="m0 0 2 1 14 51 11 44 5 18 11 41 11 42 13 48 6 24v5l-9-1-5-1-8-12-3-1-2 2-4-13-22-86 1-5 1-7v-45l-9-32-6-15-6-18-3-13v-14l2-5z" fill="#F1FEFE"/>
<path transform="translate(1785,1056)" d="m0 0h3v33l-3 11-7 11-8 6-8 5-10 3h-17l-9-4-8-7-5-10-1-3v-10l4-10 9-8 12-5z" fill="#FCFDFD"/>
<path transform="translate(626,981)" d="m0 0h14l10 3 10 7 8 9 5 12 2 8v12h-84l-1-4 3-17 6-12 9-10 8-5z" fill="#FCFDFD"/>
<path transform="translate(1328,856)" d="m0 0h26l30 1v53l-1 1h-56v-54z" fill="#006534"/>
<path transform="translate(1011,856)" d="m0 0h52v55h-56l-1-32v-18l1-4z" fill="#006634"/>
<path transform="translate(1633,1211)" d="m0 0h9l4 7 5 16 7 14 2 1 4-16 5-17 3-5h12l3 5 6 29 3 21-1 10-3 1h-9l-3-9-1-20-1-7-3-2v7l-2 5-2 8-4 15-2 2h-7l-5-2-3-7-8-19-2-6-2-1v10l-4 25h-13l1-14 3-23 2-10 1-13 1-4z" fill="#040707"/>
<path transform="translate(1195,1341)" d="m0 0 5 1 3 6 5 15 8 16 3-6 4-16 5-13 2-3h11l2 1 7 30 3 23v11l-5 1h-7l-3-7-2-27-1-4h-2l-3 18-4 10-3 9h-8l-5-2-7-17-5-13v-3l-2 1-1 13-3 21h-13v-9l4-31 1-3 2-20z" fill="#040606"/>
<path transform="translate(370,952)" d="m0 0 3 2h9l3 4-1 9-14 56-8 30-3 9-2-1-14-56-12-46 2-5 4 2 8 12h9 4l2-1 3-12 2 1 3-3z" fill="#FCFDFD"/>
<path transform="translate(1653,1338)" d="m0 0 2 1 1 20 4-4 5-2 10 1 8 4 5 5 4 6 1 3v10l-3 10-6 8-5 4-5 2h-8l-8-4-2 4h-16l-1-5v-27l1-34z" fill="#040606"/>
<path transform="translate(206,1354)" d="m0 0h11l1 1h6l2-1h12l8 3 6 7 3 9v12l-4 11-4 6-10 4h-7l-13-3 1 6v8l-1 6h-13v-31l1-37z" fill="#040606"/>
<path transform="translate(733,1354)" d="m0 0h11l1 1 8-1h11l8 3 7 8 2 5v18l-4 9-6 7-7 2h-7l-13-3v20h-13v-62z" fill="#040606"/>
<path transform="translate(681,1210)" d="m0 0h4l1 2-1 25-1 34-1 5h-11l-5-3-7 3h-10l-9-4-5-8-1-4v-19l3-10 8-7 2-1h13l10 5v-17z" fill="#040606"/>
<path transform="translate(1818,1210)" d="m0 0h4v26l-1 28-1 12h-11l-2-2-9 2h-12l-8-4-5-8-1-3v-21l4-10 5-5 4-2h13l9 4 1-16z" fill="#040606"/>
<path transform="translate(1038,688)" d="m0 0h16l8 3 10 9 5 8 3 9 1 12-1 1h-67l-1-1v-8l3-12 5-8 5-6 10-6z" fill="#FDFDFD"/>
<path transform="translate(1058,1341)" d="m0 0h11l4 2 10 18 8 11 4 6 2 1 1-37h13l1 41v19l-1 4h-12l-4-5-7-11-10-13-5-8-1 1v17l1 4v15l-1 1h-10l-4-1z" fill="#050707"/>
<path transform="translate(714,1225)" d="m0 0h15l7 3v-3h14v50l-1 1h-12l-1-5-11 5-7-1-11-4-7-8-1-2v-18l4-9 5-6z" fill="#050707"/>
<path transform="translate(929,1355)" d="m0 0h13l8 3 1-3h13v50l-1 1h-12l-2-4-7 3h-11l-10-4-5-5-3-5v-17l4-10 5-5 4-3z" fill="#050808"/>
<path transform="translate(284,1355)" d="m0 0h13l4 1v2h3l2-3h13v51h-13l-1-4-9 3-6 1-13-4-5-4-4-7v-17l4-10 9-8z" fill="#060707"/>
<path transform="translate(1032,1225)" d="m0 0h15l6 3 2-3h13v50l-1 1h-12l-1-4-5 2-3 1h-10l-11-4-7-8-1-4v-15l4-10 7-7z" fill="#040606"/>
<path transform="translate(810,1355)" d="m0 0h13l8 3 1-3h13v51h-13l-2-4-9 4-8-1-11-4-7-8-1-4v-13l4-11 5-6z" fill="#050707"/>
<path transform="translate(1811,1355)" d="m0 0h13l5 2h3l1-2h13v51h-13v-5l-12 5-11-2-8-4-6-7-1-4v-14l3-9 6-7z" fill="#050707"/>
<path transform="translate(403,1355)" d="m0 0h12l5 2h3l1-2h13v51h-12l-1-5-8 4-6 1-11-3-7-4-4-5-2-7v-9l2-9 5-8 5-4z" fill="#050606"/>
<path transform="translate(1556,1223)" d="m0 0 11 1 6 4 5 6 3 8 1 4v10l-4 11-8 7-7 2h-9l-10-4-7-6-5-9v-15l3-8 8-7 8-3z" fill="#040606"/>
<path transform="translate(665,1353)" d="m0 0 10 1 8 5 5 6 3 10v11l-4 11-5 5-6 3-4 1h-9l-11-4-7-7-3-5-1-4v-14l4-9 6-5 10-4z" fill="#050707"/>
<path transform="translate(400,1223)" d="m0 0h9l9 4 6 7 3 8 1 4v9l-3 10-6 7-6 3-11 1-8-2-7-4-7-8-2-5v-16l5-10 10-6z" fill="#040706"/>
<path transform="translate(1890,1223)" d="m0 0h9l8 4 8 9 3 12-1 9-3 9-5 6-11 4h-7l-10-3-8-7-5-7-1-12 2-9 5-8 9-5z" fill="#040707"/>
<path transform="translate(518,1353)" d="m0 0 9 1 6 3 7 8 3 9 1 9-4 13-5 6-10 4h-9l-11-4-8-8-3-5-1-14 3-9 3-5 8-5z" fill="#040706"/>
<path transform="translate(787,1226)" d="m0 0h11l10 7 9-6 6-1 8 3 5 6 3 11 1 13v17h-11l-3-29-3-5-3-2-5 1-4 4-2 6-1 23h-10l-1-23-2-7-4-4-7 1-4 4-1 5-1 26h-11l-1-1v-46l1-1 12-1v4z" fill="#040706"/>
<path transform="translate(1045,583)" d="m0 0h51l-6 8-15 16-7 8-9 10-7 8-2 1h-27l-1-2 9-19 12-28z" fill="#373B39"/>
<path transform="translate(1327,588)" d="m0 0h46v43l-24 1h-19l-3-1z" fill="#393B3A"/>
<path transform="translate(1006,1339)" d="m0 0h36v13l-20 1-1 9 19 1 2 2v10h-21v16h23l1 3-1 11-2 1h-34l-2-2z" fill="#050606"/>
<path transform="translate(1284,1209)" d="m0 0h36v13h-21v10h10l9 1 2 3v7l-1 2h-20v16h23v13l-3 2h-29l-6-2z" fill="#060708"/>
<path transform="translate(130,1209)" d="m0 0h36v13h-21v9l19 2 1 1v10l-1 1h-19v16h23v11l-1 3-2 1h-33l-2-1-1-61z" fill="#060707"/>
<path transform="translate(1127,1339)" d="m0 0h37v12l-1 1h-20l-1 10 19 1 2 1v11h-20v15l23 1v10l-1 4-2 1h-32l-3-1z" fill="#040606"/>
<path transform="translate(1479,1353)" d="m0 0 9 2 9 6 6 8 2 7-1 7-5 2-5-1-10 2h-11l-6-2 1 6 4 4 2 1h8l11-5 5 1 3 3-1 4-4 5-5 3-14 1-9-2-6-4-6-7-2-5v-14l3-9 6-7 8-4z" fill="#040807"/>
<path transform="translate(1312,1354)" d="m0 0h11l10 5 7 8 3 9-1 7-5 2-5-1-10 2h-11l-6-3 1 7 4 4 2 1h8l11-5 5 1 4 5-6 7-4 3-15 1-9-2-6-4-5-6-3-6v-14l3-9 6-7 8-4z" fill="#040707"/>
<path transform="translate(1934,1354)" d="m0 0h11l10 5 7 8 2 5v11l-7 1-10 2h-15l-5-1 2 6 3 3 2 1h7l10-4 6-1 4 4-1 4-8 8h-21l-8-4-7-8-2-5v-14l4-11 8-7z" fill="#050707"/>
<path transform="translate(1732,1223)" d="m0 0 8 1 10 5 6 7 3 6v10l-3 2h-8l-10 2h-8l-8-2 1 7 6 4 10-1 9-4 5 1 3 5-7 8-4 2h-19l-8-4-7-8-2-4-1-12 2-9 4-6 8-7z" fill="#040707"/>
<path transform="translate(878,1223)" d="m0 0 8 1 10 5 7 8 3 7v7l-1 2-8 1-11 2h-9l-7-2-2-1 2 8 5 4h7l10-4 6-1 5 6-9 9-2 1h-20l-9-5-6-8-2-6v-11l3-10 6-7 10-5z" fill="#040807"/>
<path transform="translate(164,1353)" d="m0 0 10 2 10 6 6 9 1 2v10l-2 2-16 2h-13l-5-2-1 3 2 5 4 3h8l10-4 5-1 5 4-1 4-7 7-2 1h-21l-8-5-6-7-2-4v-17l5-10 7-6z" fill="#040606"/>
<path transform="translate(1382,1341)" d="m0 0h12l3 4 10 27 4 10h2l4-13 9-27 14-1 1 2-9 27-5 14-7 21-1 1h-12l-3-3-6-16-6-17-11-26z" fill="#040706"/>
<path transform="translate(37,1341)" d="m0 0h23l8 2 5 3 3 5 1 7-3 11-7 6-12 3h-5v26l-13 2z" fill="#040606"/>
<path transform="translate(1741,1353)" d="m0 0 9 2 1 1v23l-3 15-3 5-6 5-5 2h-11l-8-4-6-7-3-10v-30l13 1 1 25 3 9h9l3-3 1-3v-17l-1-10 1-3z" fill="#050707"/>
<path transform="translate(550,1223)" d="m0 0h7l5 2 1 3-1 22-4 17-8 7-6 2h-9l-10-5-5-6-3-9v-31h9l4 1 1 23 2 9 1 2h12l2-9-1-15-1-9z" fill="#050707"/>
<path transform="translate(1475,1226)" d="m0 0h11l3 2 2-2h17l7 8 2 7v21l-1 14h-12l-1-4-1-28-2-5h-7l-4 2-3 10-1 24-1 1h-9l-1-1v-45z" fill="#040908"/>
<path transform="translate(182,1226)" d="m0 0h11l1 3h3v-2l2-1h16l7 8 1 2 1 13v11l-1 16h-12l-1-1-1-31-2-4-2-1h-6l-3 2-3 10-1 24-1 1h-10v-46z" fill="#050908"/>
<path transform="translate(468,1212)" d="m0 0h35v10l-4 2h-16l1 10h16l1 1v12h-18v26l-3 3h-12z" fill="#060708"/>
<path transform="translate(1336,1226)" d="m0 0h11l3 2 3-2h16l5 5 3 5 1 4v35l-1 1h-12l-2-32-2-5h-7l-4 2-3 12-1 22-1 1h-9l-1-1v-18z" fill="#040807"/>
<path transform="translate(320,1226)" d="m0 0h12l1 3 5-3h16l7 8 1 3v39h-12l-1-1-1-30-2-6h-8l-4 4-2 8-2 25h-9l-1-1z" fill="#060708"/>
<path transform="translate(946,1225)" d="m0 0 7 1 6 7 2 4v39h-13l-1-31-3-6-10 1-3 10-2 26h-10v-49l1-1h10l4 2 2-2z" fill="#030505"/>
<path transform="translate(578,1226)" d="m0 0h11l4 2 2-2h16l5 5 4 8v36l-1 1h-12l-1-26-2-8-2-3h-7l-4 5-2 11-1 21h-10z" fill="#050606"/>
<path transform="translate(445,929)" d="m0 0h1v56l-1 26-4 4-5 15-5 3-4-6-4 1-1 6-3 6-2-1 16-65 10-41z" fill="#F1FEFE"/>
<path transform="translate(250,1223)" d="m0 0h11l9 5 3 4-2 5-4 3-5-1-6-3v6l11 6 7 8 1 7-5 9-5 4h-12l-11-4-3-3v-5l4-4 6 2 6 3h4v-8l-5-2-9-7-5-7v-10l5-6z" fill="#050807"/>
<path transform="translate(1404,1223)" d="m0 0h12l9 6 2 2-1 5-5 4-5-1-6-3v6l13 7 6 9v6l-5 8-5 4h-13l-9-4-4-4v-4l6-4 9 5h6l-1-8-4-2-9-7-6-8v-8l4-6z" fill="#040707"/>
<path transform="translate(1989,1353)" d="m0 0h9l10 5 3 3v5l-5 4-6-1-6-3v6l13 7 6 8v8l-4 6-6 5h-13l-9-4-4-4 2-5 4-3 9 5h5l1-5-5-5-8-6-6-7-1-2v-7l3-6z" fill="#050707"/>
<path transform="translate(1530,1353)" d="m0 0h8l12 6 2 4-6 7-6-1-7-3 1 6 12 6 6 7 1 2v8l-4 6-5 5h-13l-10-4-4-4 1-4 5-4 9 5h7l-2-7-12-9-6-7-1-2v-7l4-6 5-3z" fill="#040707"/>
<path transform="translate(282,677)" d="m0 0h151l1 5-3 12-3-1-2-5v-3h-11l-44-2-8-1-42-1-16 2h-8-4l-1 5v14l3 12 3 9 6 24v6l-4-5-17-63z" fill="#008B42"/>
<path transform="translate(459,1341)" d="m0 0h14v15h7l1 1v12l-4 1-2-1v32l-1 5h-14l-1-37h-6v-12l1-1h5z" fill="#050908"/>
<path transform="translate(1573,1341)" d="m0 0h13l1 3v12h7l1 1v7l-1 5-5 1-1 36h-15v-37h-6l-1-12 1-1h6z" fill="#050707"/>
<path transform="translate(984,1210)" d="m0 0 12 1 1 14 7 1v13l-5 1-1 36h-15v-37l-6-1-1-11 1-1h6v-15z" fill="#050506"/>
<path transform="translate(271,927)" d="m0 0 2 1 12 49 9 38-6 7-1 7-3-3-6-18-4-13-1-2-1 16h-1z" fill="#F1FEFE"/>
<path transform="translate(861,1356)" d="m0 0h12l1 3 9-3h10l6 4 1 5-8 6-12-1-5 9v15l1 12h-14l-1-3z" fill="#050908"/>
<path transform="translate(1862,1356)" d="m0 0h11l2 2h5l3-2h10l6 3 2 3-1 4-7 5-12-1-5 9v16l1 11h-14l-1-2z" fill="#050707"/>
<path transform="translate(89,1356)" d="m0 0h10l3 2 6-1 2-1h10l6 4 2 2-1 4-8 5-11-1-4 6-1 3v19l1 8h-15l-1-49z" fill="#060707"/>
<path transform="translate(1146,1211)" d="m0 0h8l1 37v17l-1 9-3 2h-12v-64z" fill="#050707"/>
<path transform="translate(335,1356)" d="m0 0h11l2 2 6-1 2-1h10l6 4 2 4-7 6-6 1-1-1h-6l-5 8v21l1 7h-15l-1-49z" fill="#060707"/>
<path transform="translate(1175,1211)" d="m0 0h11v63l-3 2h-12v-64z" fill="#020304"/>
<path transform="translate(557,1356)" d="m0 0h11l2 1v2l9-3h9l7 4 1 5-8 6-12-2-4 8-1 13 1 12 1 4h-15z" fill="#040606"/>
<path transform="translate(1767,1339)" d="m0 0h12l1 6 1 25 1 4v29l-7 3h-8l-1-59z" fill="#060908"/>
<path transform="translate(1084,1209)" d="m0 0h13l1 30 1 3v31l-8 3h-6l-1-2z" fill="#050707"/>
<path transform="translate(373,997)" d="m0 0 3 1-4 17-10 38-3 9-2-1-9-36 1-4 4-1 3-4 4-7 5-5h2l2-4z" fill="#F1FEFE"/>
<path transform="translate(373,904)" d="m0 0h2l-2 17-8 31-5 18-2-2-12-46-1-3v-7h2l5 10 3 3 2 1 4 1 2-2 2-7 2-3h2l1-5z" fill="#006C36"/>
<path transform="translate(1836,1229)" d="m0 0h14v8l1 7 1 25v6l-5 1-10-2-1-1z" fill="#060909"/>
<path transform="translate(610,1359)" d="m0 0h13l1 13 1 4v30h-6l-9-2z" fill="#040505"/>
<path transform="translate(1443,1229)" d="m0 0h13l1 14 1 1v32l-14-2-1-1z" fill="#050506"/>
<path transform="translate(289,1228)" d="m0 0 13 1 1 14 1 3v30l-7-1-8-1z" fill="#050607"/>
<path transform="translate(1608,1359)" d="m0 0h13l1 14 1 4v29h-6l-1-1-8-1z" fill="#050606"/>
<path transform="translate(291,1365)" d="m0 0 8 1 5 4 2 4v11l-3 5-3 3-9 1-5-3-4-6-1-9 4-8z" fill="#FDFDFD"/>
<path transform="translate(409,1365)" d="m0 0 9 1 6 7 1 4v7l-4 7-5 3-9-1-6-7-1-3v-9l4-6z" fill="#FDFDFD"/>
<path transform="translate(938,1365)" d="m0 0 8 2 4 5 1 2v11l-3 5-3 3-9 1-6-4-4-8 1-9 4-6z" fill="#FDFDFD"/>
<path transform="translate(1039,1235)" d="m0 0h7l5 3 3 3 1 3v12l-5 6-5 2-7-1-7-8-1-8 3-8 3-3z" fill="#FCFCFC"/>
<path transform="translate(722,1235)" d="m0 0 9 1 5 6 1 3v10l-3 5-4 3-7 1-6-3-4-6-1-9 4-8z" fill="#FDFDFD"/>
<path transform="translate(1819,1365)" d="m0 0 8 1 5 5 1 3v12l-4 6-5 2h-6l-5-3-4-7v-10l3-5 3-3z" fill="#FDFDFD"/>
<path transform="translate(818,1365)" d="m0 0 8 1 6 7 1 9-3 7-4 4-8 1-5-3-4-5-1-2v-10l4-6 2-2z" fill="#FDFDFD"/>
<path transform="translate(1792,1236)" d="m0 0h9l8 5 1 7-3 9-6 5-2 1h-7l-5-4-2-4v-11l4-6z" fill="#FDFDFD"/>
<path transform="translate(656,1236)" d="m0 0h8l8 5 1 2-1 10-4 6-5 4h-8l-5-5-2-4v-9l4-7z" fill="#FDFDFD"/>
<path transform="translate(662,1366)" d="m0 0h7l7 4 3 6v8l-4 6-5 3h-7l-5-4-3-5-1-9 3-6z" fill="#FDFDFD"/>
<path transform="translate(1554,1236)" d="m0 0h7l6 4 3 6v7l-3 6-7 4-7-1-5-5-3-7v-6l4-6z" fill="#FDFDFD"/>
<path transform="translate(399,1236)" d="m0 0h7l5 3 4 5 1 8-3 6-5 4-7 1-6-4-4-8v-7l4-6z" fill="#FDFDFD"/>
<path transform="translate(517,1366)" d="m0 0 9 2 5 6 1 8-5 8-5 3h-6l-7-6-2-5v-9l4-5z" fill="#FDFDFD"/>
<path transform="translate(1890,1236)" d="m0 0 8 1 5 4 2 4v9l-4 6-5 3h-6l-7-6-2-5v-9l4-5z" fill="#FCFDFD"/>
<path transform="translate(226,1367)" d="m0 0h8l5 5 3 6-3 9-4 5h-9l-7-2-2-2v-11l3-5z" fill="#FDFDFD"/>
<path transform="translate(590,1069)" d="m0 0h140l1 2-10 2-10 1h-11l-15-1h-86l-8-1z" fill="#F4FEFE"/>
<path transform="translate(754,1367)" d="m0 0h7l5 6 2 4-1 8-6 7-14-1-3-3-1-8 3-8 5-4z" fill="#FDFDFD"/>
<path transform="translate(1665,1366)" d="m0 0 7 1 5 5 1 3v8l-3 6-5 4h-6l-7-6-2-5 1-7 3-6z" fill="#FAFBFB"/>
<path transform="translate(431,677)" d="m0 0 3 1-1 9-2 7-3-1-2-5v-3h-11l-44-2-8-1-37-1v-2l99-1z" fill="#006734"/>
<path transform="translate(1099,1089)" d="m0 0 2 1 5 16 4 9 7 12 9 11 1 4h-2v-2l-4-1-3-4h-5l-3-6-5-5v-9l-3-1-4-7v-13z" fill="#F2FEFE"/>
<path transform="translate(1625,1017)" d="m0 0 2 1 1 28-1 11 2 1v22l-1 55-3 2z" fill="#F2FEFE"/>
<path transform="translate(532,1080)" d="m0 0 2 2 6 23 8 17 7 10-1 2-7-6-8-4-4-10-2-7v-10l1-3-2-5z" fill="#F1FEFE"/>
<path transform="translate(1456,940)" d="m0 0h27l1 1 1 9 7-4 2 3 1 6 2 2-8 8-4 6-3 1v-31h-26z" fill="#F1FEFE"/>
<path transform="translate(1737,981)" d="m0 0 2 1-4 2-1 10-9 10-8-1-4 2 6-12 8-8z" fill="#F1FEFE"/>
<path transform="translate(1527,981)" d="m0 0h12l11 4 8 6v3l-8-5-8-2-6-2-10 3-15 3-7 3h-3l8-7 12-5z" fill="#F1FEFE"/>
<path transform="translate(1486,1038)" d="m0 0h2l1 26-1 12v53l-1 20h-1z" fill="#F1FFFF"/>
<path transform="translate(904,935)" d="m0 0h1l1 30-3-1-4-5-4-3 1-2 4 2-2-5-5-5-1-5 1-1h10z" fill="#F1FEFE"/>
<path transform="translate(1672,1042)" d="m0 0h6l3 3-5 9-4 4h-2l-2 4-4-1-2-1 1-5 3-5 2-5z" fill="#F2FEFE"/>
<path transform="translate(292,1207)" d="m0 0 7 1 3 3v8l-1 2-9 1-4-2v-10z" fill="#070C0A"/>
<path transform="translate(1232,1261)" d="m0 0h8l3 3 1 6-5 5-6 1-4-4v-8z" fill="#060A09"/>
<path transform="translate(1609,1338)" d="m0 0h9l3 3v9l-4 2-9-1-1-1v-9z" fill="#070B0A"/>
<path transform="translate(1448,1207)" d="m0 0 5 1 3 3v8l-1 2-9 1-3-1-1-10 3-3z" fill="#070B0A"/>
<path transform="translate(1842,1207)" d="m0 0 6 2 2 4-1 7-4 2h-6l-3-2v-10l2-2z" fill="#070B0A"/>
<path transform="translate(1191,983)" d="m0 0h6v2l-7 1-10 4-9 6-3 4 1 6 4 8v2l-6-1-6-3-1 5-2-1 6-15 9-10 14-7z" fill="#F1FEFE"/>
<path transform="translate(612,1338)" d="m0 0h8l3 3v9l-5 2-8-1-1-3v-7z" fill="#060A09"/>
<path transform="translate(626,981)" d="m0 0 4 1-4 3-5 5-6 5-12 2-2 1 2-4 8-7 8-4z" fill="#F1FEFE"/>
<path transform="translate(288,701)" d="m0 0 2 2 2 7 2 1 2 5 2 7 6 24v6l-4-5-12-44z" fill="#007F3D"/>
<path transform="translate(164,1366)" d="m0 0h8l6 5 1 3h-22l-1-2 4-4z" fill="#FDFDFD"/>
<path transform="translate(852,981)" d="m0 0 4 1-9 4-6 4-8 7-8 4-3 4-2-1 8-10 8-7 8-4z" fill="#F1FEFE"/>
<path transform="translate(1315,1366)" d="m0 0h8l7 6v2h-22l1-4z" fill="#FDFDFD"/>
<path transform="translate(1937,1366)" d="m0 0h8l7 6v2h-22l-1-2 4-4z" fill="#FDFDFD"/>
<path transform="translate(1477,1366)" d="m0 0h8l7 6v2h-22l1-4z" fill="#FDFDFD"/>
<path transform="translate(1731,1236)" d="m0 0h9l6 5v2l-20 1-2-2 5-5z" fill="#FDFDFD"/>
<path transform="translate(881,1235)" d="m0 0 6 1 6 6v2l-22-1 2-4z" fill="#FDFDFD"/>
<path transform="translate(1792,1139)" d="m0 0h2l2 7v4l-5 5-5 1-1-3 1-9z" fill="#F1FEFE"/>
<path transform="translate(50,1354)" d="m0 0h7l4 4 1 5-4 2h-7l-2-6z" fill="#F3F5F4"/>
<path transform="translate(909,1132)" d="m0 0h1l1 30 47 1v1h-48l-1-1v-24l-5 2-4 2 6-8z" fill="#F1FEFE"/>
<path transform="translate(1627,1088)" d="m0 0h1v47l-3 2v-48z" fill="#F1FFFF"/>
<path transform="translate(1231,1086)" d="m0 0 1 2h2l2 7 2-3 2 1-3 6-7 3h-2v-12l1-3z" fill="#F1FEFE"/>
<path transform="translate(417,737)" d="m0 0h1v7l-5 20h-2v-7l3-14 2-2z" fill="#00793B"/>
<path transform="translate(515,1335)" d="m0 0h5l1 2-3 8-6 1 1-5z" fill="#091410"/>
<path transform="translate(652,986)" d="m0 0 7 4 7 7 1 5-8-6-5-4-1-4-2-1z" fill="#F3FEFE"/>
<path transform="translate(1730,1205)" d="m0 0h5l1 3-3 7h-6v-3z" fill="#0B1210"/>
<path transform="translate(1e3 880)" d="m0 0h1l1 7v24l-2 1-1-3z" fill="#F2FEFE"/>
<path transform="translate(1760,1160)" d="m0 0 1 2h-2v5l-4 1-3-2h-7l2-2z" fill="#F1FEFE"/>
<path transform="translate(541,982)" d="m0 0 4 3-1 7-5-1-1-5 1-2h2z" fill="#F1FEFE"/>
<path transform="translate(757,1095)" d="m0 0 2 1 4 11v3l-4-2-3-6z" fill="#F2FEFE"/>
<path transform="translate(1173,1095)" d="m0 0h3v6l-4 1-3-3v-3z" fill="#F1FFFF"/>
<path transform="translate(754,1025)" d="m0 0 1 4-2 15h-1l-1-12z" fill="#F1FEFE"/>
<path transform="translate(598,1100)" d="m0 0 5 5 9 10h-3l-8-8-3-5z" fill="#F3FEFE"/>
<path transform="translate(817,1089)" d="m0 0h2l6 11v2h-2l-6-12z" fill="#F1FEFE"/>
<path transform="translate(330,853)" d="m0 0h1l2 7v7h-2l-1-4z" fill="#00783B"/>
</svg>
