<?xml version="1.0" encoding="UTF-8"?>
<svg version="1.1" viewBox="0 0 1000 1000" width="1000" height="1000" xmlns="http://www.w3.org/2000/svg">
<path transform="translate(105,418)" d="m0 0h44l21 81 4 16v3h2l2-10 20-79 2-11h45v150h-27l-1-6v-107l-12 49-3 15-12 49h-29l-3-8-15-62-4-20-6-24v114h-28z" fill="#00662D"/>
<path transform="translate(442,418)" d="m0 0h28v150h-20l-5-1-2-13-8 9-12 6-9 2h-7l-13-4-8-6-5-4-7-10-5-14-2-13v-10l2-18 5-13 6-8 5-5 9-6 9-3h17l11 4 8 7 2 2zm-28 61-8 4-7 9-3 11v17l2 12 7 11 8 4h13l7-4 6-8 3-9v-27l-5-12-7-6-5-2z" fill="#00662D"/>
<path transform="translate(846,456)" d="m0 0h20l12 2 10 4 7 6 4 8 2 9 1 61 3 15 2 6-1 1h-27l-2-5-2-6-7 6-7 4-11 3h-15l-10-3-9-7-5-6-3-9v-14l3-9 4-5 8-7 13-5 33-8h3l-1-11-4-4-7-2h-13l-5 3-4 6-1 3h-7l-19-4 1-6 6-12 9-8 10-4zm22 60-23 6-6 4-3 5v8l4 7 5 3h13l8-4 5-6 2-5v-18z" fill="#00672D"/>
<path transform="translate(297,457)" d="m0 0h21l13 4 11 8 6 7 6 12 3 12 1 9v13l-69 1 2 10 4 9 10 5h10l6-3 4-5 3-6 11 1 16 3 1 3-7 14-7 7-13 7-14 3h-11l-14-3-10-5-8-7-6-10-4-11-3-11v-19l3-15 8-16 7-7 11-7zm7 22-8 4-4 5-3 6-1 10h42v-7l-4-10-8-7-4-1z" fill="#00672D"/>
<path transform="translate(755,456)" d="m0 0 12 1 11 4 9 7 5 10 2 10v78l-1 2h-27l-1-1-1-70-2-9-4-6-5-2h-10l-8 4-5 8-2 7-1 7-1 62h-28v-109h25l1 1v14h2l2-4 5-5 8-5 8-3z" fill="#00672D"/>
<path transform="translate(582,318)" d="m0 0h13l8 3 6 4 5 5 1-10h21v92l-2 10-5 10-7 6-11 4-6 1h-20l-13-3-8-5-6-8-2-7v-6h13l13 2 1 5 4 2 4 1h9l7-2 4-4 1-3v-18l-7 6-9 4-10 1-10-2-9-6-7-8-4-8-2-8v-26l4-13 7-10 9-6zm7 18-6 4-4 5-3 9v15l2 8 4 7 8 5h9l6-3 7-8 2-6 1-12-2-12-4-6-6-5-2-1z" fill="#363837"/>
<path transform="translate(575,457)" d="m0 0h23l13 4 9 6 6 7 6 12 1 6-25 5h-3l-4-10-5-4-2-1-14-1-9 5-4 7-1 6v25l4 13 5 5 6 3h12l6-3 5-6 2-9 1-1 11 1 16 3-1 9-7 14-9 9-12 6-14 3h-10l-15-3-12-7-8-9-7-14-3-8-1-6v-21l3-14 6-12 10-11 9-5 8-3z" fill="#00672D"/>
<path transform="translate(284,285)" d="m0 0h22l13 4 10 7 7 8 5 11 1 6-20 5-4-1-5-10-6-5-8-3h-10l-9 3-6 5-5 9-3 16v15l3 15 4 8 7 6 8 3h11l9-4 6-7 5-13 12 3 11 4-1 7-4 9-6 9-9 8-8 4-16 3-16-1-14-5-9-7-7-7-7-12-4-15v-29l4-17 6-11 9-10 13-8z" fill="#363837"/>
<path transform="translate(138,330)" d="m0 0h73l1 1-1 8-6 21-2 11-4 13-15 58-3 15-5 17-2-2-6-22-3-14-3-12-2-7-13-50-3-8-7-26z" fill="#00AD44"/>
<path transform="translate(714,318)" d="m0 0h16l10 3 9 5 7 6 8 15 2 10v13l-3 12-5 10-7 8-12 7-7 2h-19l-13-4-11-8-6-9-3-7-2-11v-12l2-10 7-14 4-5 10-7zm2 19-8 5-4 5-3 10v14l4 11 8 7 5 2h8l10-5 6-10 1-5v-15l-3-9-5-6-8-4z" fill="#363837"/>
<path transform="translate(383,318)" d="m0 0h16l10 3 10 6 7 7 7 14 2 10v10l-3 14-6 11-5 5-6 5-10 5-4 1h-20l-12-4-10-7-6-8-5-12-1-6v-17l4-13 7-11 7-6 10-5zm2 19-6 3-6 7-3 9v16l2 7 6 8 5 3 4 1h8l8-4 6-7 2-5 1-6v-11l-3-10-5-7-8-4z" fill="#363837"/>
<path transform="translate(503,318)" d="m0 0h14l10 3 10 6 6 8 4 9 2 6 1 7v14h-56l3 10 3 5v2l9 3 8-1 5-3 4-7 13 1 10 2-2 7-7 10-11 7-7 2h-21l-11-4-8-6-7-10-3-9-1-5v-22l4-13 5-8 5-6 10-6zm2 18-6 4-4 6-1 10 1 1h32l1-1-1-9-4-6-6-5z" fill="#363837"/>
<path transform="translate(492,459)" d="m0 0h27l1 6v81l-1 22h-28v-108z" fill="#00682E"/>
<path transform="translate(648,459)" d="m0 0h28v109h-28z" fill="#00652D"/>
<path transform="translate(442,287)" d="m0 0h22l1 20v94l-1 6h-22z" fill="#363837"/>
<path transform="translate(648,320)" d="m0 0h22v87h-22z" fill="#363837"/>
<path transform="translate(579,655)" d="m0 0h7l4 9 4 7 5-15 1-1h7l4 14 1 8v10h-7l-2-13-1-1-4 13-5 1-4-4-4-10-2 12-1 2h-6l-1-5 3-23z" fill="#080909"/>
<path transform="translate(796,591)" d="m0 0h6l3 5 4 11v2h2l1-8 3-9 1-1h7l3 10 2 11v11l-1 1h-5l-2-4-1-11-3 8-2 6h-6l-3-4-4-10-2 12-1 2h-7l2-19 2-12z" fill="#070808"/>
<path transform="translate(648,418)" d="m0 0h28v27h-28z" fill="#00652D"/>
<path transform="translate(492,418)" d="m0 0h27v27h-28v-26z" fill="#00662D"/>
<path transform="translate(516,655)" d="m0 0h8l10 16 1-2 1-14h6l1 1v31h-7l-11-16-1 16h-7l-1-1z" fill="#090A0A"/>
<path transform="translate(804,653)" d="m0 0h4l2 8 4-1 7 2 6 7v7l-2 5-5 5-7 1-4-2v2h-8l-1-1v-31zm8 14-3 2-1 7 4 4 6-1 1-2v-8l-3-2z" fill="#0A0C0B"/>
<path transform="translate(384,598)" d="m0 0h6l5 3 7-3 5 3 2 2 1 4v16h-6l-2-15-4-1-2 3-1 12h-6l-1-13-1-2-5 1-2 15h-6v-24h8z" fill="#080909"/>
<path transform="translate(100,661)" d="m0 0h18l5 4 2 5v7l-4 8-5 2h-9v6l-1 2h-7v-21zm10 6-4 4v7l3 2h6l3-5-1-5-3-3z" fill="#080909"/>
<path transform="translate(358,661)" d="m0 0h17l6 5 1 3v9l-5 8-9 1-4-1v9h-7v-33zm10 6-5 5v6l6 2 4-1 2-3v-5l-3-4z" fill="#070808"/>
<path transform="translate(883,591)" d="m0 0h7v24l-1 8h-19l-4-4-1-2v-13l4-6 1-1h9l2 1zm-10 13-1 2v9l3 2 5-1 3-3 1-6-3-3z" fill="#090A0A"/>
<path transform="translate(328,591)" d="m0 0h7v21l-1 11h-18l-4-2-2-3v-14l3-5 2-2h9l2 1zm-10 13-2 4v5l4 4 5-1 3-3 1-7-3-2z" fill="#080909"/>
<path transform="translate(509,285)" d="m0 0h26l-6 8-16 17h-14l1-5z" fill="#373938"/>
<path transform="translate(550,654)" d="m0 0h19v6l-10 1-1 4h9l1 1v6h-10l1 6 11 1-1 7-1 1h-17l-1-3z" fill="#090A0A"/>
<path transform="translate(63,590)" d="m0 0h18v7h-10v4l10 1v6h-10v7h11v8h-19z" fill="#070808"/>
<path transform="translate(491,654)" d="m0 0h18v6l-2 1h-8v4h9l1 1v6h-10v7h11v7l-1 1h-17l-1-1z" fill="#050606"/>
<path transform="translate(627,590)" d="m0 0h18v7h-10v4l9 1 1 5-1 1h-9v7h10l1 1v6l-1 1h-18z" fill="#080A09"/>
<path transform="translate(648,287)" d="m0 0h22v21l-9 1h-12l-1-1z" fill="#363837"/>
<path transform="translate(844,597)" d="m0 0h6l6 4 3 4v7l-1 1-13 1-4-1 2 3h7l6-1 1 5-3 3h-13l-6-5-1-2v-10l4-6zm-1 7-1 3h11l-2-3z" fill="#090A0A"/>
<path transform="translate(395,661)" d="m0 0h7 4 6l1 1v25h-7l-2-1-5 1-8-3-3-3-1-9 3-7zm2 6-2 2v9l4 3 6-2 2-3-1-7-2-2z" fill="#0B0C0C"/>
<path transform="translate(427,597)" d="m0 0h6l6 4 4 6-1 5-9 2h-8l1 2h7l6-1 2 4-4 4h-13l-5-4-2-4v-7l3-7zm2 6-4 4h11l-3-4z" fill="#0B0C0C"/>
<path transform="translate(884,661)" d="m0 0h17l1 1v24l-1 1h-6v-2l-7 2-7-2-5-6v-8l3-6zm1 6-2 3v6l4 5 6-1 2-2v-9l-2-2z" fill="#0A0B0B"/>
<path transform="translate(138,661)" d="m0 0h8 3 7v26h-7v-2l-8 2-7-3-3-3v-12l3-5zm2 6-3 4 1 7 4 3 6-2 1-1v-9l-2-2z" fill="#090A0A"/>
<path transform="translate(503,598)" d="m0 0h19v25h-17l-6-3-3-5v-8l3-6zm3 5-3 4v6l4 4h5l3-3v-8l-3-3z" fill="#090B0A"/>
<path transform="translate(196,661)" d="m0 0h17l1 1v24l-1 1h-6v-2l-5 2-9-2-4-4-1-9 3-7zm2 6-3 3v6l3 4 6 1 4-5-1-6-2-3z" fill="#0A0B0B"/>
<path transform="translate(674,655)" d="m0 0h8l7 18 4-10 3-8h8l-3 11-7 20-1 1h-6l-3-4-8-21z" fill="#080909"/>
<path transform="translate(639,661)" d="m0 0h8l6 4 3 5v5l-1 1-7 1h-9l1 3 13-1 1 4-4 4h-11l-5-3-3-4v-11l3-5zm2 6-2 4h10l-2-4z" fill="#080909"/>
<path transform="translate(943,661)" d="m0 0h8l6 4 2 3v8l-6 1h-11v3h7l2-1h6v4l-4 4h-11l-7-6-1-2v-8l3-6 3-3zm2 6-3 2v2h11l-2-4z" fill="#080909"/>
<path transform="translate(453,661)" d="m0 0h7 4 6l1 1v24l-1 1h-6v-2l-2 1h-9l-5-3-2-2v-12l3-5zm2 6-3 4 1 7 4 3 6-2 1-1v-9l-2-2z" fill="#0A0B0B"/>
<path transform="translate(722,660)" d="m0 0 6 2 5 4 2 4v5l-1 1-7 1h-9l1 3h6l7-1 1 4-4 4h-11l-5-3-3-4v-11l4-6zm-2 7-2 4h11l-3-4z" fill="#080909"/>
<path transform="translate(80,660)" d="m0 0 9 3 5 7v5l-5 2h-12l-1 3h7l8-1 1 4-5 4h-11l-7-6v-12l4-6zm-1 7-3 2v2h11l-2-4z" fill="#080909"/>
<path transform="translate(347,598)" d="m0 0h19v25h-6l-2-1-2 1-9-1-6-5v-11l4-6zm4 5-3 3v7l3 4h6l3-3v-7l-3-4z" fill="#050706"/>
<path transform="translate(253,660)" d="m0 0 7 2 5 6 1 9-4 8-5 2-9-1-6-5-2-10 3-7 6-3zm-2 7-3 2v8l3 3 7-1 2-4-1-5-4-3z" fill="#0C0E0D"/>
<path transform="translate(193,597)" d="m0 0h8l5 3 3 6v9l-3 5-4 3h-9l-6-4-3-5v-8l3-6zm0 7-2 2v6l4 5 7-2 1-2v-6l-3-3z" fill="#090A0A"/>
<path transform="translate(324,660)" d="m0 0 7 1 5 5 2 5-1 9-5 6-9 1-6-3-4-5v-11l4-5zm-2 7-3 4 2 8 7 1 4-4-1-6-3-3z" fill="#090B0A"/>
<path transform="translate(720,598)" d="m0 0h16l5 6v19h-7l-2-17h-4l-3 17h-6v-23z" fill="#0C0D0D"/>
<path transform="translate(757,597)" d="m0 0h8l6 5 2 6-1 9-4 5-2 1h-9l-5-3-4-5v-10l2-4zm-1 7-2 3 1 6 2 3 5 1 5-5-1-6-2-2z" fill="#070808"/>
<path transform="translate(921,597)" d="m0 0h7l6 4 3 7-1 8-3 5-4 2h-8l-5-3-4-4-1-8 3-7 4-3zm-1 7-2 3 1 7 4 3 5-1 2-3v-7l-2-2z" fill="#0A0B0B"/>
<path transform="translate(850,660)" d="m0 0 5 1v16l-3 7-5 3h-6l-6-4-2-4v-18l7 1 1 16h6v-17z" fill="#0B0C0C"/>
<path transform="translate(268,597)" d="m0 0 7 1v13l-3 9-4 3h-8l-6-4-2-5v-16h7l2 16 6 1-1-16z" fill="#070808"/>
<path transform="translate(89,598)" d="m0 0h5 3 8l4 4 1 6v9l-1 6h-7l-1-18-5 2-2 16h-6v-24z" fill="#090A0A"/>
<path transform="translate(18,655)" d="m0 0h15l4 3 1 6-2 5-3 3-8 1v12l-7 2zm6 6v5l5 1 1-4-2-2z" fill="#040505"/>
<path transform="translate(449,598)" d="m0 0h16l4 4v21h-6l-2-16v-2l-5 1-2 17h-6v-24z" fill="#080909"/>
<path transform="translate(653,598)" d="m0 0h16l4 5v20h-7l-1-18-6 1-1 16-1 1h-5v-24z" fill="#080909"/>
<path transform="translate(157,598)" d="m0 0h16l4 5v20h-7l-1-18-5 2-1 3-1 12-1 1h-5v-24z" fill="#090A0A"/>
<path transform="translate(282,598)" d="m0 0h16l5 6v19h-7l-1-13-1-4-4-1-2 15-1 3h-5z" fill="#070908"/>
<path transform="translate(228,592)" d="m0 0h18v5l-2 1h-8v4h8l1 1v6h-9v13l-1 1h-7z" fill="#080909"/>
<path transform="translate(747,660)" d="m0 0 6 1 5 3-2 5-7-1v2l6 2 4 5-1 6-4 4h-7l-6-3 1-5 5 1 4 1-1-4-4-2-5-5 1-7z" fill="#0A0B0B"/>
<path transform="translate(121,597)" d="m0 0h8l4 3-1 5-3 1h-3l7 5 1 2v6l-4 4h-9l-5-3 1-4 3-1 6 2-1-3-8-7v-7z" fill="#0B0C0C"/>
<path transform="translate(971,660)" d="m0 0 7 1 4 3v4l-6 1-2-1 3 3 6 5v6l-5 5h-7l-6-4 2-4 5 1 3 1-3-5-5-4-1-2v-6l3-3z" fill="#070908"/>
<path transform="translate(684,597)" d="m0 0h8l5 4-2 4-2 1-3-1-1 2 6 2 3 4-1 7-3 3h-9l-5-3 1-4 3-1 6 2-1-3-6-4-3-4v-5z" fill="#0B0C0C"/>
<path transform="translate(768,655)" d="m0 0h7v7h4v6l-3 1v17l-1 1h-7v-18h-3l-1-7h4z" fill="#060707"/>
<path transform="translate(224,655)" d="m0 0h7v7h4v7h-3v18h-7l-1-1v-17h-3v-7h3z" fill="#050606"/>
<path transform="translate(480,591)" d="m0 0h6l1 1v6h3v7l-1 1-1 17h-8v-18h-3l-1-6 4-1z" fill="#050606"/>
<path transform="translate(43,662)" d="m0 0h17l3 4-3 3-7 1-1 1-1 16h-8z" fill="#080909"/>
<path transform="translate(163,662)" d="m0 0h17l3 4-3 3-7 1-1 2-1 15h-7l-1-1z" fill="#080A09"/>
<path transform="translate(420,662)" d="m0 0h17l3 3-1 3-3 2h-6l-2 3v14h-7l-1-1z" fill="#0E0F0F"/>
<path transform="translate(909,662)" d="m0 0h17l2 2-1 4-2 2-7-1-1 4v14h-8z" fill="#050606"/>
<path transform="translate(272,662)" d="m0 0h16l3 2-1 4-4 2h-5l-1 3v14h-8z" fill="#060707"/>
<path transform="translate(556,591)" d="m0 0h7l1 1v30l-1 1h-7z" fill="#040505"/>
<path transform="translate(862,654)" d="m0 0h7l1 5v27l-7 1-1-3z" fill="#0A0B0B"/>
<path transform="translate(529,590)" d="m0 0h7l1 15v17l-2 1h-6z" fill="#0D0E0E"/>
<path transform="translate(572,591)" d="m0 0h7v32h-7z" fill="#010202"/>
<path transform="translate(182,441)" d="m0 0h1v8l-6 23-2 2-4-13-3-11 1-5 3 4 1 2 4 1 2-5z" fill="#006B2F"/>
<path transform="translate(896,600)" d="m0 0h8l1 22-1 1h-6l-2-1z" fill="#0B0C0C"/>
<path transform="translate(785,663)" d="m0 0h6l1 1 1 7v15l-4 1-4-1z" fill="#090B0A"/>
<path transform="translate(704,600)" d="m0 0h7l1 4v19h-6l-2-1z" fill="#0C0D0D"/>
<path transform="translate(141,599)" d="m0 0 7 1 1 8v15h-6l-2-1z" fill="#070808"/>
<path transform="translate(298,663)" d="m0 0h6l1 1v23l-7-1z" fill="#050606"/>
<path transform="translate(159,331)" d="m0 0h53l-1 8-3-1v-4h-27l-22-1z" fill="#00662D"/>
<path transform="translate(142,589)" d="m0 0 5 1 1 1v5l-6 1-2-1v-5z" fill="#161717"/>
<path transform="translate(141,343)" d="m0 0 3 4 4 14v5h-2l-5-18z" fill="#007532"/>
<path transform="translate(898,589)" d="m0 0 5 1 1 3-2 4h-5l-1-1v-5z" fill="#141515"/>
<path transform="translate(785,653)" d="m0 0h5l2 2-1 5h-6l-1-5z" fill="#101111"/>
<path transform="translate(706,589)" d="m0 0 4 1 1 1v5l-1 1h-5l-1-1v-5z" fill="#0C0D0D"/>
<path transform="translate(602,615)" d="m0 0 4 1 2 4-3 3-5-1v-5z" fill="#080909"/>
<path transform="translate(298,653)" d="m0 0h5l1 1v6h-6l-1-1v-5z" fill="#0E0F0F"/>
<path transform="translate(844,588)" d="m0 0 4 1-2 5-3-1z" fill="#232424"/>
<path transform="translate(251,652)" d="m0 0h3l-1 5h-3z" fill="#090A0A"/>
</svg>
