<?xml version="1.0" encoding="UTF-8"?>
<svg version="1.1" viewBox="0 0 1000 1000" width="1000" height="1000" xmlns="http://www.w3.org/2000/svg">
<path transform="translate(244,165)" d="m0 0h19l50 7 45 6 110 15 17 4 11 6 5 4 9 14 3 10v17l-2 18-2 11-11 119-7 66h336l11 3 16 8 12 11 5 5 8 11 5 10 5 17 1 5 1 26 13 7 10 8 7 7 9 14 5 12 3 9 2 14v19l-2 10-7 24-4 7-5 5-7 8-10 9-16 9h-2l-1 4v11l3 12v20l-5 17-7 12-11 12-7 6-16 7-3 2-22 3h-460v-100h-188v-139l3-10 9-11 5-4-1-4-25-12-28-13-27-13-12-5-11-7-7-9-4-8-2-6-3-32-12-180v-28l4-11 7-10 5-6 9-6 12-5 52-15 85-23z" fill="#FCFCFB"/>
<path transform="translate(247,207)" d="m0 0h17l18 3 2 1 28 3 24 4 26 3 52 7 5 1 22 2 34 5v4l-4 1 3 2-2 24-3 22-2 4-4 2-5 5-13 5-3 33v16l11-6h5l-4 4-13 7-2 17-2 21-1 6 16-8 2 2-5 4-14 8-1 11-1 2-3 32 14-9 3 1-12 9h-4l-1 13-2 21-4 11-12 10-9 5-1-2-2 5-20 15-3 1-1-5h-2v6l-5 6-14 10-4 3h-3l-2-5 2-32-9 4-16 9h-3l-1 32-1 8h-3v6l-6-1-35-17-5-3-1-1v-7h-2l-1 4-6-1-34-17-2-2v-5h-3v3l-9-3-17-8-11-6-2-5-3 2-10-4-22-11-2-5h-2v2l-10-3-22-11-1-3-3-34-1-2 6-1-5-5-2-29v-9h5l-6-6-2-28v-11h5l-6-6-2-23v-19l5 1v-4l-5-1-2-8-1-12v-25l21-9 9-3 9-2 8-3 29-8 27-7 15-4 23-6z" fill="#001650"/>
<path transform="translate(100,252)" d="m0 0h8l13 2 4 2 22 3 14 4 16 1v-2l13-4 2 1-1 1 2 2-12 3 32 7 15-2v2l3 1-3 1 38 8 4 2v2l3 1-1 6-1 51-23-3-13-2-13-3v49l37 11 7 2 3 5 6 2v1h-5v49l4 2-6-1 1 2v48 4l1 37h-4l-1 4-6-1-34-17-2-2v-5h-3v3l-9-3-17-8-11-6-2-5-3 2-10-4-22-11-2-5h-2v2l-10-3-22-11-1-3-3-34-1-2 6-1-5-5-2-29v-9h5l-6-6-2-28v-11h5l-6-6-2-23v-19l5 1v-4l-5-1-2-8v-35l10 1v-2h-6z" fill="#004371"/>
<path transform="translate(445,252)" d="m0 0h3l-2 22-1 19-2 10-10 5-2 4-6 1-2 4-4 1-3 42v8l20-12 2 2-5 4-7 3 6-2 5-2v9l-3 36-13 9-10 5 1-20 1-28h-2l-1 28-2 22-1 1-3 38-2 11-7 5h-2l-1 3-6 4-4 6-2 1-2 30-1 7-3 1v6l-5 6-14 10-4 3h-3l-2-5 2-32-9 4-16 9h-3l-1 32-1 8h-3v6l-6-1-35-17-5-3-1-1v-7h2l-1-2-1-35v-4-50h4l-2-1v-49h9l25 9 16 6v44l2-37 1-7 16-8 11-6 3 1v11l-2 37-3 1-1 3 2 1v-3l3 1-2 37v10l22-15 3-3 1-6 2-41-22 13h-1v-48l5-4 11-6-9 4h-6l5-4 20-11 2-4 3-51-11 5-9 3-4 2h-3l2-30 1-26 28-9 1 1-1 27-1 9v17l3-1-2 18-2 36 8-5 15-8 3-48-1-3-18 8h-4v-15l1-9 1-24 2-6 5-1v-2l15-6h5v12l-2 21v16l1-1 2-24 1-25 5-4 11-3z" fill="#00114D"/>
<path transform="translate(100,252)" d="m0 0h8l13 2 4 2 22 3 14 4 16 1v-2l13-4 2 1-1 1 2 2-12 3 32 7 15-2v2l3 1-3 1 38 8 4 2v2l3 1-1 6-1 51-23-3-13-2-13-3-1 46h-1v-21h-2l-1-13v-16l-17-4-20-5-6-1v47l-17-5-18-6-2-2-1-6-2-40v45l-10-2-16-6-4-1-4-3-2-23v-19l5 1v-4l-5-1-2-8v-35l10 1v-2h-6z" fill="#004371"/>
<path transform="translate(632,596)" d="m0 0h44l3 5 22 65 4 10 1-80h56l11 2 10 5 5 4 6 12 2 7v26l-5 14-7 8-9 5-10 3h-93l-3-8-2-10-27 2-4 15-2 2h-13l-18-1 4-15 23-68z" fill="#00114D"/>
<path transform="translate(270,406)" d="m0 0h9l25 9 16 6v44l2-37 1-7 16-8 11-6 3 1v11l-2 37-3 1-1 3 2 1v-3l3 1-1 17h-1l-1-12-19 10-7 4-2 8v39l21-12h3v-2l7-2 22-14h2l-1 34-2 8-8 7-11 8-3 2h-3l-2-5 2-32-9 4-16 9h-3l-1 32-1 8h-3v6l-6-1-35-17-5-3-1-1v-7h2l-1-2-1-35v-4-50h4l-2-1z" fill="#001550"/>
<path transform="translate(285,595)" d="m0 0 47 1v86h-29l-1-65-14 59-2 6-2 1h-11l-15-1-11-47-3-12v-6h-2v66h-27v-87h48l6 25 4 18 2-5 5-23 3-14z" fill="#00114D"/>
<path transform="translate(834,595)" d="m0 0h26l13 4 8 5 7 7 5 11 2 8v19l-4 13-6 9-7 6-8 4-12 3h-21l-15-4-8-5-7-7-5-10-2-8v-22l2-9 7-11 8-7 13-5z" fill="#00114D"/>
<path transform="translate(270,210)" d="m0 0h12l2 1 28 3 24 4 26 3 52 7 9 3v2l-36 12-22 8-22 7-3 2-12 3-18 6h-2v2l-11 1 1-3-21-3-17-3 1-2 63-21 15-4 9-3 21-1-8-2h-12l-10 4-13 4h-15l-33-5-2-1h-16l27 4 26 4v2l-19 5h-27v-2l-15-1-3-2 15-4h-7l-12 3-1 1h-9l-1 3-25 6-9 1-29-5h-6l-9 4-14 3-4-2 19-6-21-4-2-1v-2h9l22 4 9-1 40-11 16-5 16-4 27-8h4v-3l-7-2z" fill="#00114D"/>
<path transform="translate(513,596)" d="m0 0h32v30l8-1h14v-12l1-17h33v87h-33v-31h-23v30h-32z" fill="#00114D"/>
<path transform="translate(364,596)" d="m0 0h45l15 44 13 37v5h-33l-3-9-2-7h-27l-5 17h-32l2-10 14-42 12-34z" fill="#00114D"/>
<path transform="translate(464,240)" d="m0 0 4 2-5 4-10 4h-3l-2 32-2 18 14-7h2l-1 5-5 3-11 4-3 33v16l11-6h5l-4 4-13 7-2 17-2 21-1 6 16-8 2 2-5 4-14 8-1 11-1 2-3 32 14-9 3 1-12 9h-4l-1 13-2 21-4 11-12 10-9 5-1-2-2 5-20 15-3 1-1-1 2-30 1-12 3-1 2-4 5-5 7-6 5-3 2-11 3-38 1-1 2-22 1-20 1-8h2v28l-1 19 14-8 7-5 3-36v-8l-8 4-4-1 12-6v-2l-15 9-6 3v-9l3-40 7-7 6-2 2-4 9-4 2-10 2-29 1-10 1-2-6-1 4-4 16-6z" fill="#00124D"/>
<path transform="translate(543,506)" d="m0 0h19l10 4 7 6 6 9 4 12v16l-3 10-5 9-7 7-8 4-4 1h-20l-10-4-10-9-6-12-1-6v-15l3-12 6-9 5-5 8-4z" fill="#E07638"/>
<path transform="translate(800,506)" d="m0 0h19l8 3 7 4v2h2l6 8 4 13v19l-4 11-6 8-7 6-10 4h-19l-11-4-9-8-5-9-2-7v-23l4-10 6-8 9-6z" fill="#E07638"/>
<path transform="translate(649,695)" d="m0 0h17l10 4 6 4 6 9v4l-4 2h-5l-5-7-7-5-3-1h-12l-8 4-3 4v8l4 5 11 4 21 6 9 6 4 6 2 9 9-1 5 9 6 5 6 2h12l10-3 4-5v-11l-2-4-9-3-19-5-12-6-5-6-2-5v-13l5-8 14-8h19l9 4 8 7 4 5 1 3-2 3-9 1-5-8-7-4-4-1h-9l-7 3-4 2-1 4v7l5 5 7 3 25 7 7 4 5 7 2 11-2 10-9 10-9 4h-24l-9-4-7-5-6-10-2-1-1 8-5 6-10 5-3 1h-23l-14-7-7-10-1-7 3-2h5l6 9 5 4 7 3h15l9-5 3-5v-7l-2-4-10-5-24-7-8-5-5-6-1-3v-14l6-8 6-5z" fill="#00124E"/>
<path transform="translate(471,595)" d="m0 0h30l8 2v22h-24l-8 4-5 6-1 3v13l4 8 4 4 5 2h25v22l-1 1-13 2h-18l-11-3-9-4-8-6-7-8-4-9-2-8v-17l5-13 7-9 11-7z" fill="#00114D"/>
<path transform="translate(462,296)" d="m0 0 5 1v20l-3 26-2 3-1 1 2 2-3 27-3 16-1 28-5 42-2 20-4 5-12 9-5 2-2-5 2-15 3-23 7-3 8-6-6 2-8 6h-2v-11l2-21 1-2 1-11 8-5 10-6v-2l-14 7h-2l1-14 2-24 2-7 16-9-6 1-10 5v-17l3-33 8-4 8-3z" fill="#FDD152"/>
<path transform="translate(247,207)" d="m0 0h17l14 2-4 2 5 1-2 1v3l-31 9-16 4-27 8-33 9-12-1-15-3-9-1v2l18 3 7 2v1l-15 4-3 1 2 1 15-4 7-3 12 1 23 4 5 2v1l-15 3-13 3v2h-16l-14-4-22-3-4-2-15-2v2h-7l-3-1v23h-1v-25l21-9 9-3 9-2 8-3 29-8 27-7 15-4 23-6z" fill="#61A25A"/>
<path transform="translate(422,230)" d="m0 0h12l41 6v4l-4 1 3 2-2 24-3 22-2 4-5 2v-2l-17 8 3-30 1-17 1-4 15-6 2-2-3-1-15 6-14 5-5 1v2l-8 2-16 6-10 2-11 4-6-2-21-4-14-2-1-2 72-24 8-2z" fill="#AFC193"/>
<path transform="translate(272,287)" d="m0 0 51 11 1 15-1 25-2 17-4 1-10-2-36-10-1-2 1-49z" fill="#DF7033"/>
<path transform="translate(349,231)" d="m0 0h12l9 3v1l-22 1-19 6-13 4-27 8-6 3-22 7 34 6 3 1v2l-8 2-14 5-6 3-10-1-32-7v-3-2l-12 3-12-2-26-6v-1l12-3 3-4 10-2v-2l23-5 8-2 1-2 9-1 9-3 4-1h9l-2 2-12 3v1l15 2v2l27-1 14-4h5v-2l-14-1-39-6-2-2h18l7 2 28 4h15l21-7z" fill="#004170"/>
<path transform="translate(270,348)" d="m0 0 16 3 11 3 7 3 14 3h4v13l-1 13-1 30-8-1-36-12-6-3z" fill="#DE7033"/>
<path transform="translate(414,705)" d="m0 0h25l8 4 5 4 5 9 2 8v20l-4 10-6 7-7 4-8 2h-19l-1-1z" fill="#FBFBF9"/>
<path transform="translate(270,406)" d="m0 0h9l25 9 16 6v26l-2 21-1 4-4-1-23-9-11-3-9-4z" fill="#DF7033"/>
<path transform="translate(713,506)" d="m0 0h25l8 2 1 2v11l-7-1-4-1h-19l-7 3-5 3-5 7-2 8v8l3 10 6 8 6 4 4 1h16l1-1 1-19h-15l-1-1v-7l1-2 9-1h18l1 1v37l-2 4-8 2h-24l-10-3-8-6-7-8-4-9-1-6v-16l3-9 5-8 7-7 8-4z" fill="#E07537"/>
<path transform="translate(590,695)" d="m0 0 13 1 9 29 16 49 1 7h-11l-4-10-4-12v-2l-31 1-8 23-1 1-7-1 1-9 17-52 8-24z" fill="#00124E"/>
<path transform="translate(220,279)" d="m0 0 10 1 19 5 18 3v28l-1 25-16-2-29-8-1-1z" fill="#00114D"/>
<path transform="translate(442,248)" d="m0 0 3 1v3l-4 3-5 2-9 2-4 3-1 25-2 24-3 4v-19l3-33-20 6v2l-5 2-1 5h-1l-1-8-6 1v2l-22 9-4 2-13 1-15 7-7 2h-9l-38-8-3-1v-3l15-4 10-5h8v-2l26-9 10-2 31 5 9 2 2 1 13-5 10-2 15-6h6v-2z" fill="#004371"/>
<path transform="translate(403,696)" d="m0 0h37l11 4 9 7 5 8 5 12v19l-3 12-4 8-9 10-10 5h-41zm11 9v67l1 1h19l10-3 8-6 5-8 2-6v-20l-3-10-5-8-7-5-5-2z" fill="#00124D"/>
<path transform="translate(802,695)" d="m0 0h19l9 4 8 7 4 6v4l-5 2-6-1-6-8-5-3h-15l-7 3-3 4v9l2 4 9 3 23 6 9 5 5 6 2 5v13l-4 8-7 6-10 4h-21l-10-4-6-4-4-5-4-7v-4l3-1h7l5 8 6 5 6 2h14l9-4 3-4v-11l-5-4-11-4-16-5-10-5-5-6-2-3v-15l5-8 7-5z" fill="#00124E"/>
<path transform="translate(269,459)" d="m0 0 9 2 15 6 8 4 16 5v28l-1 22-17-7-6-2-16-8-8-3z" fill="#DF7033"/>
<path transform="translate(220,388)" d="m0 0 16 3 8 4 21 8 1 4v34l-1 11-9-2-32-12-4-5z" fill="#00114D"/>
<path transform="translate(222,335)" d="m0 0 16 4 8 3 17 5 3 2v49l-10-2-34-10-1-1v-49z" fill="#E8A479"/>
<path transform="translate(174,322)" d="m0 0 11 1 30 8 2 1 1 16v13h2v22l-5 1-12-3-12-4-3-2v-2l-6-1-7-4-1-17z" fill="#00114D"/>
<path transform="translate(174,268)" d="m0 0 10 1 5 2 11 2 13 1 3 1 1 20v34l-12-2-26-7-5-4z" fill="#00114D"/>
<path transform="translate(802,517)" d="m0 0h14l7 3 6 7 4 9v18l-3 7-9 9-6 2h-16l-9-7-4-9-1-4v-14l4-10 6-7z" fill="#FDFDFC"/>
<path transform="translate(474,696)" d="m0 0h55v9h-44v27h35v9h-35l1 14v17h36l8 1v9h-56z" fill="#00114D"/>
<path transform="translate(545,517)" d="m0 0h14l6 3 4 3 5 11 1 3v16l-6 12-6 5-4 2h-15l-8-5-4-5-3-7v-22l5-9 5-5z" fill="#FDFDFC"/>
<path transform="translate(269,510)" d="m0 0 9 3 16 8 21 10v45l-6-1-35-17-5-3-1-1v-7h2l-1-2z" fill="#DF7134"/>
<path transform="translate(134,309)" d="m0 0h1l2 41 2 7 24 8v2l9 3 3 2 1 3 2 37-1 7-15-5-23-9-2-4-2-35-1-8-9-2-12-4-7-1v-6l21 8 6 1v-44z" fill="#00124E"/>
<path transform="translate(222,441)" d="m0 0 9 1 33 13 2 4 1 29-1 15-8-1-5-3-7-3-18-8-5-2-1-1z" fill="#00114D"/>
<path transform="translate(131,258)" d="m0 0 16 1 24 7 1 52-11-2-24-8-4-2-1-7z" fill="#00114D"/>
<path transform="translate(638,507)" d="m0 0h43l1 6-1 5h-30v19h17l10 1 1 1v9l-1 1-13 1h-14v22h30l1 1v9l-1 1h-43z" fill="#E07538"/>
<path transform="translate(223,489)" d="m0 0h3v2l9 2 4 2v2l10 2 1 2 11 4 6 6 1 15v17h-3v8l-6-1-34-17-2-2z" fill="#00114D"/>
<path transform="translate(178,375)" d="m0 0 16 4 21 6 2 1 2 10 1 38-6-1-34-12-2-2-1-43z" fill="#DF7033"/>
<path transform="translate(488,506)" d="m0 0h21l7 2v12l-8-1h-16l-8 3-5 4-5 9-1 4v11l3 8 6 8 6 4 4 1h14l11-1v11l-2 2-4 1h-22l-11-4-6-4-8-9-4-10-1-3v-19l4-11 7-9 9-6z" fill="#E07639"/>
<path transform="translate(358,285)" d="m0 0h2v15l-1 1-2 41-29 14h-2v-35l1-20 3-5 19-7z" fill="#F9C152"/>
<path transform="translate(179,423)" d="m0 0 8 1 20 8 12 6 1 21v15l-1 8-5-1-25-11-8-4-2-19z" fill="#00114D"/>
<path transform="translate(464,240)" d="m0 0 4 2-5 4-10 4h-3l-2 32-2 18 14-7h2l-1 5-5 3-11 4-3 33v16l11-6h5l-4 4-13 7-2 17-2 21-3-3 2-24v-8l-8 4-4-1 12-6v-2l-15 9-6 3v-9l3-40 7-7 6-2 2-4 9-4 2-10 2-29 1-10 1-2-6-1 4-4 16-6z" fill="#00124E"/>
<path transform="translate(136,311)" d="m0 0 28 7 7 2 1 5 1 18 1 1v25l-17-5-18-6-2-2-1-6z" fill="#DE7033"/>
<path transform="translate(355,348)" d="m0 0h1v32l-1 17-1 4-16 8-11 6h-2l-1 3-1-3 1-17 1-37 5-3 12-4z" fill="#FCD052"/>
<path transform="translate(181,471)" d="m0 0 13 5 24 10 1 1 1 16v26l-9-3-17-8-11-6-2-5z" fill="#00114D"/>
<path transform="translate(100,252)" d="m0 0h8l13 2 4 2v2l4 1 2 24v23l-13-3-10-4-10-2-2-8v-35l10 1v-2h-6z" fill="#DF7033"/>
<path transform="translate(138,407)" d="m0 0 9 2 28 11 2 2v42l-6-2-21-9-8-4-3-36z" fill="#00114D"/>
<path transform="translate(389,275)" d="m0 0 2 1-1 27-2 25-8 5-12 4-6 3h-3l2-30 1-26z" fill="#FCD052"/>
<path transform="translate(103,300)" d="m0 0 1 3 13 2 14 4 1 1 2 23v22l-10-2-16-6-4-1-4-3-2-23v-19l5 1z" fill="#DF7134"/>
<path transform="translate(350,407)" d="m0 0 3 1v11l-2 37-15 10-11 6h-3v-44l1-7 16-8z" fill="#FDD252"/>
<path transform="translate(142,454)" d="m0 0h5l16 8 11 5 4 1 1 20v21l-9-3-24-12-4-7z" fill="#00114D"/>
<path transform="translate(101,349)" d="m0 0h5v2h7l21 7 2 8 2 38-3-1-1-2-11-4-14-6-5-1-1-2-2-28z" fill="#DF7335"/>
<path transform="translate(593,507)" d="m0 0h12l1 26v38h28l2 1v11h-43l-1-1v-74z" fill="#E17737"/>
<path transform="translate(347,464)" d="m0 0h2l1 4v28l-1 12-1 3h-3v2l-11 6-14 7v-40l3-9 16-9z" fill="#FCD153"/>
<path transform="translate(353,437)" d="m0 0h1v17l22-13h2v22l-1 19-2 7-7 6-18 12h-1l1-31 1-17-2-1v3l-3-1 4-4 1-15z" fill="#00114D"/>
<path transform="translate(415,263)" d="m0 0h5v12l-4 40-8 5-13 6h-4v-15l1-9 1-24 2-6 5-1v-2z" fill="#FCD152"/>
<path transform="translate(104,394)" d="m0 0 2 1-1 3h12l13 5 7 4 2 2 2 39h-2v-2l-8-1-5-3-12-6-6-1-2-3-2-29z" fill="#DB7437"/>
<path transform="translate(105,438)" d="m0 0 8 1 8 4 16 7 4 4 1 8 1 25 1 2h-2v2l-10-3-22-11-1-3-3-34z" fill="#DF7335"/>
<path transform="translate(381,391)" d="m0 0h2l-1 27-1 19-5 5-20 12h-1v-48l5-4z" fill="#FCD052"/>
<path transform="translate(410,318)" d="m0 0h3l2 4-3 47-9 5-14 8-2 1 2-37 1-12 3-8z" fill="#00114D"/>
<path transform="translate(345,517)" d="m0 0h3v19l-2 24-17 11-8 5h-3v-14l1-26 1-6 16-8 6-4z" fill="#F9C252"/>
<path transform="translate(445,252)" d="m0 0h3l-2 22-1 19-2 10-10 5-10 3-4 1 2-25 1-25 5-4 11-3z" fill="#FCD052"/>
<path transform="translate(843,615)" d="m0 0h8l6 4 4 6v27l-3 7-5 4-9 1-6-4-4-7-1-4v-19l4-9 5-5z" fill="#F9FAF7"/>
<path transform="translate(374,495)" d="m0 0h2l-1 34-2 8-8 7-11 8-3 2h-3l-2-5 1-13v-25l10-5z" fill="#00114D"/>
<path transform="translate(408,376)" d="m0 0 3 1-1 23-2 22-10 7-12 7h-3v-8l2-22 1-14 2-5z" fill="#FCD052"/>
<path transform="translate(468,241)" d="m0 0 6 2-2 24-3 22-2 4-5 2v-2l-17 8 3-30 1-17 1-4 15-6z" fill="#FDD152"/>
<path transform="translate(739,616)" d="m0 0h13l6 3 4 6 1 4v19l-2 7-5 5-3 1h-15v-44z" fill="#FAFBF8"/>
<path transform="translate(436,361)" d="m0 0h1v9l-3 36-13 9-10 5 1-20 1-26 8-5 7-4z" fill="#FCCF52"/>
<path transform="translate(286,410)" d="m0 0 9 2 23 8 2 1v26l-1 6-9-2v-2l-8-1-7-2v-3l-3-1-1-2-2-23-3-5z" fill="#EB8548"/>
<path transform="translate(401,476)" d="m0 0 1 2-1 37-1 3-20 15-3 1-1-1 2-30 1-12 3-1 2-4 16-9z" fill="#00114D"/>
<path transform="translate(756,507)" d="m0 0h12v76h-12z" fill="#DF7438"/>
<path transform="translate(300,273)" d="m0 0h7l12 3 19 3 11 2-3 5-7 3-10 4-4 1h-9l-38-8-3-1v-3l15-4z" fill="#62A25A"/>
<path transform="translate(358,285)" d="m0 0h2v15l-1 1-2 41-29 14h-2v-24l1-10 2-1v24l3 1h9v-2h6l1-8 1-4v-24h-6l-3-6 1-4-9 2-2 10h-2v-12l5-3 16-6z" fill="#FDD152"/>
<path transform="translate(763,695)" d="m0 0h10v86l-3 1h-7z" fill="#00114D"/>
<path transform="translate(132,242)" d="m0 0 25 5 2 2-15 4-3 1 2 1 15-4 7-3 12 1 23 4 5 2v1l-15 3-13 3v2h-16l-14-4-19-3 3-1v-2l-5-1 1-4 2-3h2z" fill="#60A259"/>
<path transform="translate(416,306)" d="m0 0h1l1 6 10-4h4l-1 4-6 1-2 4-4 1-3 42v8l20-12 2 2-5 4-8 4-4 4-8 4v-2h-2v5l-2-1v-2l-10 5h-3v2l-12 6-8 6-1 2-9 3-4 2h-6l5-4 20-11 2-4 3-52 4-1h2l-2 18-2 36 8-5 15-8 3-48-2-4 3-2z" fill="#004270"/>
<path transform="translate(253,264)" d="m0 0 12 1 30 5 3 1v2l-8 2-14 5-6 3-10-1-32-7-1-2 15-4z" fill="#B0C294"/>
<path transform="translate(334,262)" d="m0 0h7l34 6 7 1-3 2-10 3-4 1v2l-7 2h-9l-37-6-3-2 10-4z" fill="#AFC193"/>
<path transform="translate(236,247)" d="m0 0h16l30 4v3l-17 6-6 2h-22l-21-4-2-4 19-5z" fill="#00114D"/>
<path transform="translate(593,709)" d="m0 0 4 2 11 34v4h-26v-7z" fill="#F6F8F3"/>
<path transform="translate(320,360)" d="m0 0h2v13l-2 26-1-2-3 1-6-2-5-8-3-5-2-5v-16l4-1 13 3 1 1v9h2z" fill="#E78A4E"/>
<path transform="translate(206,257)" d="m0 0h10l34 6-1 2-14 3-14 4-8 1-32-7-3-2 18-4z" fill="#60A259"/>
<path transform="translate(429,231)" d="m0 0h12l34 5v4l-9 1-9 3-17 6-7 1-1-4-24-4-4-2h13l14 1v-8h-2z" fill="#64A35C"/>
<path transform="translate(228,339)" d="m0 0h10l8 3 17 5 2 1v26l-4-1-1-3-2-1v-2h-9l-7-4v-14l-2-4-11-3z" fill="#FDD252"/>
<path transform="translate(298,471)" d="m0 0 9 2 10 3v28l-1 7-2-1 1-8-7-1-12-6-6-2 1-7 5-5 4-2v-7z" fill="#EB8548"/>
<path transform="translate(368,251)" d="m0 0h17l28 4-1 2-14-1-13-1 3 3 11 5-3 2-11 4-6-2-21-4-14-2-1-2z" fill="#60A259"/>
<path transform="translate(272,287)" d="m0 0 51 11 1 15-1 25-2 17-4 1-10-2-36-10-1-2 1-49zm2 4-1 49 1 3 25 6 20 6 1-1 1-34v-20l-17-3-27-6z" fill="#C0B98C"/>
<path transform="translate(335,359)" d="m0 0 8 2 1 1v13l-1 7v13l-1 2h-2l-2 4-2 1h-6l-4-10 1-5 4-4 3-6h2l-1-5-5-4-2-2 1-2 5-3z" fill="#FAC353"/>
<path transform="translate(328,485)" d="m0 0h6l7 7v14l-1 3-5 3h-6l-3-3v-2l-4 1-1 7h-1v-29h1l2 7 3-3z" fill="#F8BD50"/>
<path transform="translate(380,437)" d="m0 0h1v35l-1 14 5-1-3 5-2 1-2 30-1 7-2 1v-31l1-3-18 11-8 5h-2l1-4 11-8 12-8 3-3 1-6 2-43z" fill="#004371"/>
<path transform="translate(149,233)" d="m0 0 4 2h-2l-2 7h-15l-2 1-1 3-4 4v3l4 1v2l-6 1-4-2-15-2v2h-7l-3-1v23h-1v-25l21-9 9-3 9-2 8-3z" fill="#B3C091"/>
<path transform="translate(407,422)" d="m0 0 3 1-2 40-1 5 5-1-1 3-4 3-1 5-2 30-3 3v-34l-9 6-4 2-3-1 7-5 4-4 5-3 2-11 3-38z" fill="#004270"/>
<path transform="translate(296,523)" d="m0 0 5 1 14 7v21l-2 2-9-7v-2h-2l-4-5-1-10-2-6z" fill="#EB8548"/>
<path transform="translate(225,213)" d="m0 0 3 1-2 2-9 2-1 4h3v3h-9l-5-2-7 1-10 3h-3l1 2 5 2v3h-9l-16-3-1-2 24-7 24-6z" fill="#B0C294"/>
<path transform="translate(132,242)" d="m0 0 25 5 2 2-15 4-3 1 2 1 11-2-2 1v5h-13l-11-2 3-1v-2l-5-1 1-4 2-3h2z" fill="#61A259"/>
<path transform="translate(654,616)" d="m0 0 3 1 7 20v6h-18l1-8 6-18z" fill="#F9F9F6"/>
<path transform="translate(386,615)" d="m0 0 3 3 7 19v6h-18l1-8 6-19z" fill="#F9FAF6"/>
<path transform="translate(388,270)" d="m0 0h4l1 2v30l-2 24 2 1-5 3v-18l2-28v-8l-24 8-3-1 5-4 16-6h2v-2z" fill="#001550"/>
<path transform="translate(364,281)" d="m0 0m-2 1 2 1-1 1-1 26-2 27-1 3 11-5 4 1h-2l-1 3-8 4-2 3h-5l-1-4h2v-24l1-17 1-1v-13l1-2-2-1z" fill="#001651"/>
<path transform="translate(287,291)" d="m0 0 13 2 23 5 1 15-1 25-2 17-4 1-2-2h4l2-54h-8l-32-7v-1z" fill="#E9B262"/>
<path transform="translate(268,506)" d="m0 0 9 2 16 8 6 2 15 6v4l-5 1-38-18-4-2z" fill="#001852"/>
<path transform="translate(270,348)" d="m0 0 16 3 11 3 7 3 11 2v3l-18-4-22-6-2-1v37l1 11 15 6-3 1-15-5-1-1z" fill="#C3C183"/>
<path transform="translate(407,374)" d="m0 0h2l-1 3-20 11-1 4-2 29-2 10-2 1v-14l2-27-6 3-2-1 11-8 7-4h3v-2l9-4z" fill="#001F57"/>
<path transform="translate(268,456)" d="m0 0 11 2 16 5 18 7 4 4v2l-10-2-13-5-8-4-10-4-7-2z" fill="#001751"/>
<path transform="translate(661,486)" d="m0 0h11l-1 5-13 13h-5l-2-4 8-12z" fill="#EC8B4F"/>
<path transform="translate(419,259)" d="m0 0h6l-2 3-1 25-2 24-3 4v-19l3-33-10 3-8 3h-3v-2l10-4 9-3z" fill="#001651"/>
<path transform="translate(174,351)" d="m0 0h1v17l5 2 8 3 3 3 21 7-4 1-18-5-9-2-3-1v35h-1l-2-36-1-3-11-5 3-1 7 2z" fill="#004371"/>
<path transform="translate(345,517)" d="m0 0h3v19l-1 9-2 1-1-9-4-1-2-4-1-7 5-7z" fill="#FCCE52"/>
<path transform="translate(134,241)" d="m0 0h9l25 5-4 4-13 4-9 2-4-2 19-6-21-4-2-1z" fill="#004371"/>
<path transform="translate(384,254)" d="m0 0 14 1 9 1 2 3 3 2-6 2h-10l-11-6z" fill="#B0C294"/>
<path transform="translate(650,550)" d="m0 0h1v22h27v6l-8 1-9-1v-2h-5l-1-2-5-1z" fill="#E9A677"/>
<path transform="translate(411,372)" d="m0 0h2v28l-2 21h-3v-12l1-9 1-20z" fill="#001C55"/>
<path transform="translate(107,390)" d="m0 0 9 3 14 6 5 2v3l-9-1-9-4-12-1v-3l4-1z" fill="#001B54"/>
<path transform="translate(511,570)" d="m0 0h6v11l-3-3h-9l-9-4-3-2z" fill="#EBA973"/>
<path transform="translate(112,435)" d="m0 0 6 2 12 6 9 3 1 4h-6l-15-7-10-4z" fill="#001A54"/>
<path transform="translate(361,253)" d="m0 0h5l-1 2-5 1v2h3v3l2 1-1 2-20-3-1-2z" fill="#B0C294"/>
<path transform="translate(103,297)" d="m0 0 11 3 11 4 5 2 1 3-10-2-14-3-3-1z" fill="#001C55"/>
<path transform="translate(316,504)" d="m0 0h1l1 28-1 30h-2v-31l-4-2 4-3z" fill="#004371"/>
<path transform="translate(729,540)" d="m0 0h18l1 1v37h-1l-2-23v-13l-16-1z" fill="#F1B367"/>
<path transform="translate(464,240)" d="m0 0 4 2-5 4-10 4h-3v4h-2v-2l-6-1 4-4 16-6z" fill="#001650"/>
<path transform="translate(134,309)" d="m0 0h1l2 41v5h-3l-1-22v-23z" fill="#002158"/>
<path transform="translate(287,291)" d="m0 0 13 2 15 3 1 2 4 2h-7l-32-7v-1z" fill="#F4B453"/>
<path transform="translate(444,445)" d="m0 0 3 1-12 9-5 2-5 4-10 5-1-2 8-6 6-4 2-3v3z" fill="#004371"/>
<path transform="translate(407,374)" d="m0 0h2l-1 3-20 11-3 1v5h-2v-3l-6 3-2-1 11-8 7-4h3v-2l9-4z" fill="#001650"/>
<path transform="translate(442,248)" d="m0 0 3 1v3l-4 3-5 2-9 2h-7l4-4h6v-2z" fill="#004371"/>
<path transform="translate(361,310)" d="m0 0h1l1 11 4-2 4 1 1 3-4 4-5 2-2 5h-1v-14z" fill="#F6B74F"/>
<path transform="translate(330,244)" d="m0 0h17l14 2 3 3h-14l-20-3z" fill="#004371"/>
<path transform="translate(447,254)" d="m0 0h2v17l-2 22-3 2 2-31z" fill="#001953"/>
<path transform="translate(277,343)" d="m0 0 14 3 24 7-4 2-33-9z" fill="#BDC287"/>
<path transform="translate(318,530)" d="m0 0h1v32l-1 8h-4l1-8h2v-30z" fill="#00114D"/>
<path transform="translate(373,251)" d="m0 0h12l28 4-1 2-14-1-18-2-7-2z" fill="#004371"/>
<path transform="translate(404,241)" d="m0 0h13l23 3v2h-15l-17-3z" fill="#004371"/>
<path transform="translate(439,361)" d="m0 0 1 4-3 32-3-3 2-24z" fill="#001C55"/>
<path transform="translate(342,260)" d="m0 0 22 3 4 2-1 2-16-2-10-2-1-2z" fill="#001A53"/>
<path transform="translate(236,210)" d="m0 0 12 2 5 3-1 2-14-1-5-3v-2z" fill="#B0C294"/>
<path transform="translate(271,377)" d="m0 0h1l2 22 15 6-3 1-15-5-1-1v-14z" fill="#BFBD8A"/>
<path transform="translate(826,564)" d="m0 0 2 1-8 8-7 3h-7l-2-1v-2l-3-1 14-1 7-3z" fill="#EDAD6E"/>
<path transform="translate(292,273)" d="m0 0h5l1 2-8 4-6 2-9 1 1-3z" fill="#001E56"/>
<path transform="translate(243,265)" d="m0 0h7l-3 3-12 4h-7l1-3z" fill="#001B54"/>
<path transform="translate(314,364)" d="m0 0 4 1v11l-5-1-2-2v-7z" fill="#EEAF6D"/>
<path transform="translate(452,301)" d="m0 0h3l-1 5-4 4-6 2v-7z" fill="#F9C153"/>
<path transform="translate(270,210)" d="m0 0h12l2 1 15 2v1l-16 1-6 1v-3l-7-2z" fill="#004371"/>
<path transform="translate(654,495)" d="m0 0 5 1v2l3-1-1 5-3 2h-5l-2-4z" fill="#E4813D"/>
<path transform="translate(269,459)" d="m0 0 9 2 15 6-1 2-11-3-5-2-7-1z" fill="#D4B281"/>
<path transform="translate(370,335)" d="m0 0 4 1h-2l-1 3-8 4-2 3h-5l-1-4 7-3z" fill="#00416F"/>
<path transform="translate(713,506)" d="m0 0h25l8 2 1 2v11h-1v-9h-4v-3h-7v-2h-22z" fill="#EAA777"/>
<path transform="translate(173,344)" d="m0 0h1v25l-8-2v-2l5-2 1-18z" fill="#6CA662"/>
<path transform="translate(419,259)" d="m0 0h6l-3 5-2 4v-5l-10 3-8 3h-3v-2l10-4 9-3z" fill="#001C55"/>
<path transform="translate(321,448)" d="m0 0h1l1 25-5 1-1 2-2-4h2l1-10 2 3z" fill="#004371"/>
<path transform="translate(135,366)" d="m0 0h1l2 38-3-1z" fill="#B0C294"/>
<path transform="translate(100,252)" d="m0 0h8l13 2 4 3-25-1v-1h6v-2h-6z" fill="#004371"/>
<path transform="translate(432,484)" d="m0 0h6l1 3-2 6h-5l-1-7z" fill="#FAC353"/>
<path transform="translate(306,224)" d="m0 0h5l3 4-20 1 2-2z" fill="#004371"/>
<path transform="translate(308,271)" d="m0 0 19 4 2 2-3 1-17-3-2-2z" fill="#002C61"/>
<path transform="translate(134,309)" d="m0 0h1l1 23h-2l-1-5v-17z" fill="#00124D"/>
<path transform="translate(311,256)" d="m0 0h8l13 2v2h-10l-11-2z" fill="#004371"/>
<path transform="translate(349,458)" d="m0 0 3 1-1 17h-1l-1-12-5 2 2-5h3z" fill="#004371"/>
<path transform="translate(151,253)" d="m0 0 3 1h-2v5h-9v-4z" fill="#B0C294"/>
<path transform="translate(542,581)" d="m0 0 14 1 6 1v1h-20l-3-2z" fill="#E9A579"/>
<path transform="translate(514,508)" d="m0 0h2v12l-8-1 1-3h5z" fill="#EAA572"/>
<path transform="translate(444,445)" d="m0 0 3 1-12 9h-3l2-4z" fill="#001952"/>
<path transform="translate(218,400)" d="m0 0h1l1 34-5-1 3-1z" fill="#88B071"/>
<path transform="translate(345,511)" d="m0 0 3 1v5l-8 2-1-4 3-2h3z" fill="#004371"/>
<path transform="translate(227,375)" d="m0 0 5 1 1 5-4 2-3-2v-5z" fill="#EC8649"/>
<path transform="translate(352,291)" d="m0 0h7l1 1v8h-2l-1-6-9 1 3-1z" fill="#E79A6C"/>
<path transform="translate(315,360)" d="m0 0 4 1 1 3v10h-2l-1-9-4-1v-2h2z" fill="#DF7033"/>
<path transform="translate(134,241)" d="m0 0h9l7 1 1 2h-15l-2-1z" fill="#001C55"/>
<path transform="translate(247,207)" d="m0 0h12v1l-7 1v2h-7l-2-1v-2z" fill="#B0C294"/>
<path transform="translate(151,338)" d="m0 0 5 1-1 6h-5v-6z" fill="#EC8649"/>
<path transform="translate(313,297)" d="m0 0 10 1v13h-2l-1-11-7-2z" fill="#B1C292"/>
<path transform="translate(272,287)" d="m0 0 15 4v1h-10l-4-1-1 2z" fill="#B5C28E"/>
<path transform="translate(289,406)" d="m0 0 7 1 5 2 8 2 4 3-7-1-17-6z" fill="#C5C07F"/>
<path transform="translate(414,255)" d="m0 0 8 1-2 2-6 2h-5l-1-3z" fill="#60A259"/>
<path transform="translate(374,280)" d="m0 0 2 1-3 5-5 1v-3-2z" fill="#F8BF50"/>
<path transform="translate(424,255)" d="m0 0h8v2l-5 2h-7z" fill="#003869"/>
<path transform="translate(318,557)" d="m0 0h1l-1 13h-4l1-8 2-1z" fill="#001D55"/>
<path transform="translate(320,355)" d="m0 0h2l1 4-3 1-1 4-1-3-3-1 1-3z" fill="#004371"/>
<path transform="translate(342,260)" d="m0 0 9 1 2 4-12-2-1-2z" fill="#004371"/>
<path transform="translate(136,311)" d="m0 0 13 4-1 2-12-2z" fill="#E79D6D"/>
<path transform="translate(464,240)" d="m0 0 4 2-5 4-6-2 3-2z" fill="#004371"/>
<path transform="translate(303,520)" d="m0 0 11 4 1 2-4 1-8-5z" fill="#004371"/>
<path transform="translate(409,408)" d="m0 0h1l1 13h-3v-12z" fill="#004371"/>
<path transform="translate(110,394)" d="m0 0 5 2v2h-10v-3z" fill="#004371"/>
<path transform="translate(108,305)" d="m0 0h9l5 2 1 2-8-1-7-2z" fill="#E89C6D"/>
<path transform="translate(300,358)" d="m0 0h11l4 1v3l-15-3z" fill="#F6BF55"/>
<path transform="translate(269,510)" d="m0 0 9 3 2 1-1 2-6-1v-2l-4 1z" fill="#BAC28A"/>
<path transform="translate(828,562)" d="m0 0 2 3-3 5h-2v2l-4-1 6-6z" fill="#EB874A"/>
<path transform="translate(742,508)" d="m0 0h4l1 2v11h-1v-9h-4z" fill="#F0B166"/>
<path transform="translate(385,389)" d="m0 0h2l-1 10-3 2v-7h2z" fill="#004371"/>
</svg>
