<?xml version="1.0" encoding="UTF-8"?>
<svg version="1.1" viewBox="0 0 1280 1280" width="320" height="320" xmlns="http://www.w3.org/2000/svg">
<path transform="translate(0)" d="m0 0h1280v1280h-1280z" fill="#08174D"/>
<path transform="translate(318,211)" d="m0 0h11l24 3 20 3 23 3 11 2 15 2 40 5 139 19 18 4 12 6 10 8 8 11 5 10 3 13v11l-2 11-5 57-12 130-9 79-1 4 10-1h416l17 4 13 6 10 6 10 9 7 6 11 14 8 14 6 18 3 15v31l14 7 12 9 10 9 10 13 9 17 6 19 2 11 1 11v16l-2 16-5 19-5 12-10 16-11 12-8 7-14 9-12 6-2 5v10l4 13 1 7v22l-4 16-5 12-7 11-11 13-12 9-12 7-17 6-16 3h-596l-1-1v-126l-241-1v-171l2-11 4-10 7-11 8-7h2v-4l-9-3-22-11-28-13-35-17-22-10-13-8-7-6-9-13-5-14-3-32-7-106-4-61-6-87v-16l4-14 7-12 7-9 9-8 9-5 13-5 64-18 47-13 63-17 19-5z" fill="#FCFCFA"/>
<path transform="translate(319,265)" d="m0 0h12l29 4 4 2 19 1 25 4 16 3 29 3 26 4 8 1 47 6 10 3-2 3-60 20-11 4-31 10 45 8 7 2v1h-10l-42-7-9-1-36 12 35 6 7 2v1h-10l-32-6-2-1-9 1-21 8-11 3-1 2 55 11h9l16-5 4-3 4-1 12-4h9l12-6 17-6 5-2 3-3h6l-2 1 2 4v26l-2 33-1 9 19-9 9-4 4 1-3 3 2 1v14l-3 46-1 3-6 4-2 2h-2l-20 11-3 2 3-40 1-25 3-3v-3l-2-1-1 2h-3v23l-3 46-5 4-16 9-15 8 10-3 9-5 7-3 7-5h2l1-2h2l10-6h3v-2l6-2 9-5h2v2l-26 14-3 2-4 58-1 3 11-6 19-11 1-1 3-31 2-23v-9l3-1v18l-2 31v11l19-11 8-6 3-31 2-19v-7l-13 7-3-1 5-3 7-4 4-2v-2l-10 6-13 8-6 3 1-16 2-25 1-21 2-5 6-4 4-4 6-2 1-4 13-6 3-24 4-40 2-1v15l-4 43v4l11-5 8-4h2l-1 5-8 5-13 5-2 10-4 45v10l18-10h5l-4 4-16 8-4 3-4 48-1 9 20-11 3 1-5 5-18 10-2 6-4 46-2 8 15-10 5-3 3 1-11 8-10 6-2 12-3 31-4 12-9 8-14 10-4 2-2-5h-1l-1 8-10 8-18 13h-2l-1-7-2 1-1 9-5 5-14 10-10 8-3 1-3-9 1-25v-15l-15 8-18 10h-2l-1 34-1 16h-4l-1 8-6-2-29-14-21-10-2-2v-9h-4l-1 6-6-2-44-22-3-3-1-6h-3l-1 4-6-2-23-11-17-9-3-7-2-1-1 4-5-1-38-19-2-6h-2l-1 3-6-2-33-16-1-1-3-38v-8l-3-1 3-1h5l-1-4-4-1-1-2-3-43v-6l7 1-2-5-5-2-1-2-2-25-1-25h6v-5l-6-2-1-1-3-39v-14l6 1v-6l-6-2-2-10-2-25v-21l7-3 18-8 12-4 10-1 4-3 29-8 10-2 11-4 22-6 10-2 9-3 23-5 21-6z" fill="#1D4670"/>
<path transform="translate(346,269)" d="m0 0h14l4 2 19 1 25 4 16 3 29 3 26 4 8 1 47 6 10 3-2 3-60 20-11 4-31 10 45 8 7 2v1h-10l-42-7-9-1-36 12 35 6 7 2v1h-10l-32-6-2-1-9 1-21 8-11 3-1 2 55 11h9l16-5 4-3 4-1 12-4h9l12-6 17-6 5-2 3-3h6l-2 1 2 4v26l-2 33-1 9 19-9 9-4 4 1-3 3 2 1v14l-3 46-1 3-6 4-2 2h-2l-20 11-3 2 3-40 1-25 3-3v-3l-2-1-1 2h-3v23l-3 46-5 4-16 9-15 8 10-3 9-5 7-3 7-5h2l1-2h2l10-6h3v-2l6-2 9-5h2v2l-26 14-3 2-4 58-1 3 11-6 19-11 1-1 3-31 2-23v-9l3-1v18l-2 31v11l19-11 8-6 3-31 2-19v-7l-13 7-3-1 5-3 7-4 4-2v-2l-10 6-13 8-6 3 1-16 2-25 1-21 2-5 6-4 4-4 6-2 1-4 13-6 3-24 4-40 2-1v15l-4 43v4l11-5 8-4h2l-1 5-8 5-13 5-2 10-4 45v10l18-10h5l-4 4-16 8-4 3-4 48-1 9 20-11 3 1-5 5-18 10-2 6-4 46-2 8 15-10 5-3 3 1-11 8-10 6-2 12-3 31-4 12-9 8-14 10-4 2-2-5h-1l-1 8-10 8-18 13h-2v-17l2-37 5-4 2-3-3 2h-3l2-49v-26l4-50-26 14-8 4-1 2h-2l-1 7h-1l-1-6-32 17h-5l2-5 22-12 14-7 2-31 2-39 6-2 1-3 9-5h2l1-2 5-4 14-6h2l2-33 2-36-13 4-20 7h-3v11l-3 52-2 11-2 1v-21l3-51-23 10-16 5-1 5-2 55-1 15 5 1-2 2h-5l-4 2-2-1v7l-2-2-1-3-52-14-8-2v64l-5-1-1-2v-61l-7-3-27-7-1-2 12 1v2h11l14 2 1 1h8l17 4 23 7 19 5 1-3 1-16 1-39 1-16-10-1-44-9-12-4v45l-1 25-6-2-13-1-35-9-10-3-1-1-2-55-2 17v37l-11-2-41-11v-2h-2l-1-5-1-59 15 2 3 2 17 2v1l6 1h10l15-3 10-3 18-6 4-1-44-8h-12l-16 5-14 3h-8l4-2 21-6 12-1v-2l-8-1-41-7-10 3-21 6-8 1 2-2 16-5 7-2h4v-2l-24-5-8-1-1-3 11 1 24 5h9l34-9 18-5 23-7 13-3 21-6 10-3 21-6v-2h2v-2l-11-1z" fill="#08184E"/>
<path transform="translate(495,352)" d="m0 0h5v19l-3 45-1 5-18 8-3 4-12 6v3l-7 1v17l-2 42-1 11-4 3-16 8-17 9-2 4 9-3 23-12 8-4 2 1 1-3 25-13 7-4h2v10l-3 40v26l-2 42-1 7 6-3 2 1-3 1-1 3-4 3-2 37-1 10-3 1-1 9-5 5-14 10-10 8-3 1-3-9 1-25v-15l-15 8-18 10h-2l-1 34-1 16h-4l-1 8-6-2-29-14-21-10-2-2v-56l-2-3 2-3v-60l-1-3 9 1-7-4v-24l1-38 2-1-5-2-1-4-2-2 4-1 2 1v-64l8 1 41 11 11 3 2 4 1-5 5-1 3-1h3l-3-2v-15l2-55 2-6 18-6 19-8h3l-3 51v20l2-11 3-52 1-11z" fill="#0C2052"/>
<path transform="translate(319,265)" d="m0 0h12l21 3v2l5 1v4l-19 6-12 3-19 6-15 3-21 7-20 5-21 6-15 4h-9l-24-5-11-2 1 2 34 6-2 1v2l-21 6-4 2 23-6 10-4 37 6 14 3v2l-20 4-13 4 9-1 23-6 2-1h12l44 8 1 2-21 6-8 3-13 3-6 1h-10l-7-1v-1l-16-2-4-2-12-2-2-1 1 7 1 57h2v2l11 2 41 11-1-37 1-5 1-19h1l1 7 2 55 25 7 26 6h8l5 3v-25l1-45 16 4 50 10v16l-1 39-1 16-1 6-1-3-7-1-33-9-15-4-4-1h-15l1-2-17-1-3-1v-2l-3 1-8-1 30 8 5 3v63l-7-1-26-8-22-6-2-1-1-3-1-14-1-1-1 6-2-2-1-53-42-11-12-3 1 23v27l-1 10h-2l-1-2-2 1-41-14-2-3-1-25-1-8-1-24h-2l1 7 1 18v32l-11-2-18-7-6-2v-2l-3 1-5-3-3-39v-14l6 1v-6l-6-2-2-10-2-25v-21l7-3 18-8 12-4 10-1 4-3 29-8 10-2 11-4 22-6 10-2 9-3 23-5 21-6z" fill="#20486F"/>
<path transform="translate(809,763)" d="m0 0h56l2 2 12 36 18 52 4 10 2 8 1-108h68l14 2 13 5 9 7 6 10 4 12 1 9v24l-5 16-4 7-4 5-10 7-11 4-9 2h-116l-6-21v-2l-35 1-4 14-2 8-3 1-38-1 3-11 12-36 21-62z" fill="#08184D"/>
<path transform="translate(542,295)" d="m0 0h11l55 8-1 4-5-1v2l-2 1 6 2-1 16-5 40-2 7-6 3v-2l-16 8-6 2 1-15 3-33v-14l-4 40-3 24-5 3-9 3v5l-9 3-1 3-7 4-1 4-2 34-2 21v6l8-5 20-12 2 1-4 4-6 3-7 4 5-2 11-5-1 17-3 32-1 9-9 7-19 11h-1v-12l3-49-2 2-1 16-3 37-1 9-9 6-20 12h-3l4-61 8-5 20-11h2v-2l-11 6-1 1h-5v2l-16 8-11 7-14 7-8 3-3-1 14-8 15-8 7-5 3-46v-21l3-3 5-1-1 5-2 4-2 36-2 26 5-4 18-10h2l5-4h2l4-63-3-1 3-3-5 1-24 11h-2l1-25 2-43-2-1v-3h-6l-1 3-5 2-22 8-7 4h-9l-15 5-8 4-13 4h-9l-45-9-10-3 1-3 16-5 19-7h6l11 3 23 4h9l-42-7 1-2 36-12 9 1 42 7h6l-24-5-26-4 2-2 34-11 16-6 28-9 24-8z" fill="#0C2053"/>
<path transform="translate(365,762)" d="m0 0 60 1v110h-37l-1-80 1-4h-2l-4 18-9 38-7 28-4 1-31-1-12-50-5-23-2-5v-5h-2v84h-35v-111h61l5 19 3 15 5 22 1 2 3-11 2-12 6-24 2-10z" fill="#08184D"/>
<path transform="translate(489,499)" d="m0 0h2v10l-3 40v26l-2 42-1 7 6-3 2 1-3 1-1 3-4 3-2 37-1 10-3 1-1 9-5 5-14 10-10 8-3 1-3-9 2-45-4-1v2l-25 14-5 3h-2v-17l1-35 1-10 2-2-2-2 2-3-1-1v-26l1-29 1-10 22-12 17-9 3 1 1-3 25-13z" fill="#08184D"/>
<path transform="translate(448,296)" d="m0 0h13l5 2 7 1 1 2-14-1h-11l-24 8-13 3-7 3-23 7-10 3h-3v2l-17 5-18 6h-7v2h8l38 7 8 1 1 2-9 3-26 9h-3l2 6 3-1-1 47-1 25-6-2-13-1-35-9-10-3-1-1-2-55-2 17v37l-11-2-41-11v-2h-2l-1-5-1-59 15 2 3 2 17 2v1l6 1h10l15-3 10-3 18-6 4-1-44-8h-12l-16 5-14 3h-8l4-2 21-6 12-1v-2l-4-1 16-3 19-5 9-2-2-1v-2h11l3-2 5-1 12-3h9l-4 2-12 3-7 1v2l19 2 5 1v2h31l26-7h2v-2l-9-1-31-5-16-2-13-2-2-2h8l3 1h12l1 1 10 2 17 2 24 4 11-1 23-7 5-2z" fill="#1C4470"/>
<path transform="translate(1068,762)" d="m0 0h32l15 4 11 6 10 10 6 12 3 13v23l-4 15-4 8-9 10-11 7-14 4-6 1h-25l-14-3-12-5-10-9-6-9-4-10-2-10v-21l2-13 8-14 6-7 7-5 13-5z" fill="#08184D"/>
<path transform="translate(657,763)" d="m0 0h41v38l28-1 1-37h42v111h-42v-40h-29v39h-41z" fill="#09194E"/>
<path transform="translate(466,763)" d="m0 0h57l16 47 17 48 4 12v3h-43l-5-18-1-4h-35l-5 17-1 6h-41l2-10 4-12 14-41 16-47z" fill="#09184D"/>
<path transform="translate(809,763)" d="m0 0h56l2 2 12 36 18 52 4 10 3 10h-44l-6-21v-2l-35 1-4 14-2 8-3 1-38-1 3-11 12-36 21-62z" fill="#08184D"/>
<path transform="translate(574,322)" d="m0 0h1v15l-4 43v4l11-5 8-4h2l-1 5-8 5-13 5-2 10-4 45v10l18-10h5l-4 4-16 8-4 3-4 48-1 9 20-11 3 1-5 5-18 10-2 6-4 46-2 8 15-10 5-3 3 1-11 8-10 6-2 12-3 31-4 12-9 8-14 10-4 2-2-5h-1l-1 8-10 8-18 13h-2v-17l2-37 5-4 5-6 6-4h2l2-4 11-7 2-16 3-47 1-1 3-31 2-23v-9l3-1v18l-2 31v11l19-11 8-6 3-31 2-19v-7l-13 7-3-1 5-3 7-4 4-2v-2l-10 6-13 8-6 3 1-16 2-25 1-21 2-5 6-4 4-4 6-2 1-4 13-6 3-24 4-40z" fill="#08184E"/>
<path transform="translate(501,353)" d="m0 0h2v23l-2 33-1 9 19-9 9-4 4 1-3 3 2 1v14l-3 46-1 3-6 4-2 2h-2l-20 11-3 2 3-40 1-25 3-3v-3l-2-1-1 2h-3v23l-3 46-5 4-16 9-15 8 10-3 9-5 7-3 7-5h2l1-2h2l10-6h3v-2l6-2 9-5h2v2l-26 14-3 2-4 58-1 3 11-6 17-10h2v18l-3 39-2 6-12 8-4 4-11 7h-3l2-49v-26l4-50-26 14-8 4-1 2h-2l-1 7h-1l-1-6-32 17h-5l2-5 22-12 14-7 2-31 2-39 6-2 1-3 9-5h2l1-2 5-4 14-6h2l2-33 2-25z" fill="#08174D"/>
<path transform="translate(0)" d="m0 0h1280v6h-1280z" fill="#02020E"/>
<path transform="translate(1027,648)" d="m0 0h19l10 3 10 6 8 9 5 10 3 11v23l-3 10-6 10-7 8-10 6-10 3h-20l-13-4-10-7-9-13-4-13v-26l4-12 7-10 8-7 10-5z" fill="#CA7547"/>
<path transform="translate(697,648)" d="m0 0h19l13 4 9 7 7 8 5 11 3 11v17l-3 13-6 11-10 10-9 5-8 2h-22l-11-4-9-6-7-8-6-13-2-10v-16l3-14 6-11 6-7 10-6z" fill="#C97445"/>
<path transform="translate(832,890)" d="m0 0h20l11 4 9 6 8 11 1 5-7 3h-5l-6-9-7-6-5-2-6-1h-8l-9 3-6 5-3 5 1 10 4 5 8 4 23 6 13 4 9 6 6 9 3 11h4l7-1 5 10 9 8 8 3h15l10-2 7-5 3-6v-11l-5-6-8-4-24-6-16-7-8-8-3-8v-16l7-10 9-6 9-4h22l11 4 6 4 8 8 4 7-2 4-6 2h-5l-4-8-7-6-7-3-13-1-9 3-7 6-2 4v8l4 6 6 4 13 4 24 6 10 6 6 8 3 12-2 13-6 9-7 6-9 4-5 1h-25l-13-5-8-6-7-10-2-4-2-1-2 9-6 8-10 6-9 3h-26l-12-5-9-6-7-11-2-4v-5l5-2h6l5 10 8 7 10 4h18l12-6 4-6 1-3v-7l-3-6-10-6-32-9-10-5-8-9-2-7v-13l5-9 9-8 9-4z" fill="#0A1B4F"/>
<path transform="translate(134,505)" d="m0 0 3 1h-2l1 3 2-1h9l20 8 11 7 3 44 1 8 8 4-2 1v2l6 2 31 14 3 1 1 24 1 2v24l-1 2-5-1-38-19-2-6h-2l-1 3-6-2-33-16-1-1-3-38v-8l-3-1 3-1h5l-1-4-4-1-1-2-3-43z" fill="#08184D"/>
<path transform="translate(604,762)" d="m0 0h36l11 2 1 1v27l-3 1-8-2h-18l-9 3-9 8-3 7v16l3 8 7 8 10 4h15l10-2h5v29l-19 3h-22l-10-2-13-5-11-7-8-8-6-10-4-14-1-7v-15l3-9 4-10 8-10 10-7 10-5z" fill="#09184D"/>
<path transform="translate(591,378)" d="m0 0 1 2h6l-1 20-2 22-2 16-1 3-4 3v2l3-1 1 3-6 47-3 9 1 5v16l-6 48-4 43-3 5-11 8-10 8h-2l-2-6 2-24 2-20 2-4 14-9 6-4-5 2-11 7-4 3h-2l5-54 2-6 8-5 14-8 1-2-6 2-16 9-1-2 4-42 1-14 5-4 16-8 3-2-6 1-16 9h-1v-11l4-45 2-10 12-5 9-5z" fill="#F4D45E"/>
<path transform="translate(319,265)" d="m0 0h12l21 3v2l5 1v4l-19 6-12 3-19 6-15 3-21 7-20 5-21 6-15 4h-9l-24-5-11-2 1 2 34 6-2 1v2l-21 6-4 2 23-6 10-4 37 6 14 3v2l-20 4-13 4 9-1 23-6 2-1h12l44 8 1 2-21 6-8 3-13 3h-7l-32-7-13-3-6-1-12-1-31-7-41-7-9-2 3-3 16-7 12-4 10-1 4-3 29-8 10-2 11-4 22-6 10-2 9-3 23-5 21-6z" fill="#77A15F"/>
<path transform="translate(348,368)" d="m0 0 16 4 50 10v16l-1 39-1 16-1 6-1-3-7-1-33-9-15-4-10-3 2-1v-25z" fill="#C0642F"/>
<path transform="translate(542,295)" d="m0 0h11l55 8-1 4-5-1v2l-7 1-11 5-14 5-13 4-16 6-26 8-29 11-16 3-3 1v2l-10 4h-8l-55-9 1-2 36-12 9 1 42 7h6l-24-5-26-4 2-2 34-11 16-6 28-9 24-8z" fill="#B4C194"/>
<path transform="translate(346,446)" d="m0 0 8 1 41 11 11 3 2 4 1-5 3 1-1 44-1 27-3 1-35-12-25-8-1-1z" fill="#CA7136"/>
<path transform="translate(530,903)" d="m0 0h32l9 4 8 7 6 12 3 13v15l-3 13-5 8-5 6-8 5-12 3h-24l-1-1z" fill="#FBFCFA"/>
<path transform="translate(346,519)" d="m0 0 9 1 19 7 27 9 8 3v24l-1 28-1 14-13-4-36-14-12-5-1-1v-24z" fill="#C97439"/>
<path transform="translate(281,356)" d="m0 0 10 1 32 8 20 3-1 45-1 23-13-1-35-9-10-3-1-1-1-31z" fill="#08174D"/>
<path transform="translate(755,890)" d="m0 0 17 1 4 16 16 50 7 21 7 22h-15l-10-30-1-1h-39l-11 32-10-1 2-10 15-46 15-47 2-6z" fill="#091A4E"/>
<path transform="translate(516,891)" d="m0 0h45l13 4 7 4 6 5 7 10 5 12 2 5v24l-3 13-4 10-7 9-7 7-8 4-8 2h-48zm14 12v85l1 1h24l12-3 9-6 7-9 4-11 1-6v-15l-4-16-6-10-7-6-9-4z" fill="#0A1B4F"/>
<path transform="translate(344,588)" d="m0 0 7 1 55 21 1 5-2 58-10-3-40-18-11-5z" fill="#CA7337"/>
<path transform="translate(916,648)" d="m0 0h26l12 3 1 1v15l-9-3-9-2h-16l-10 3-9 6-7 10-2 5-1 6v8l3 13 5 8 9 8 7 3 14 1 10-1 1-3v-24h-19l-1-1v-8l1-3 21-1h13l1 1v45l-2 6-14 3h-24l-13-3-10-6-9-9-7-14-2-13v-12l2-11 7-13 8-8 10-6z" fill="#C97547"/>
<path transform="translate(284,429)" d="m0 0 52 14 5 3v63l-7-1-26-8-22-6-2-1-1-3v-58z" fill="#D7A37B"/>
<path transform="translate(701,661)" d="m0 0h11l9 3 10 9 5 9 2 14-1 11-4 11-6 8-6 5-8 3h-13l-9-3-8-7-5-9-3-12v-11l3-11 5-9 7-7z" fill="#FDFDFC"/>
<path transform="translate(1031,661)" d="m0 0h10l11 4 7 6 6 12 1 4v21l-3 9-4 6-7 7-11 4h-10l-10-3-10-9-4-8-2-9v-15l3-10 5-8 9-8z" fill="#FEFEFD"/>
<path transform="translate(222,342)" d="m0 0 15 2 3 2 17 2v1l20 3 1 32v37l-11-2-41-11v-2h-2l-1-5z" fill="#08174D"/>
<path transform="translate(281,497)" d="m0 0 7 1h3l5 3h5l3 2 4 2 17 6 13 5 1 1 1 7v37l-1 17-7-1-34-13-11-4-5-6-1-32z" fill="#08174D"/>
<path transform="translate(1031,889)" d="m0 0h16l14 5 9 7 8 12v3l-8 3-5-1-6-9-9-6-6-1h-11l-9 3-5 4-3 6 1 9 4 5 8 4 31 8 12 6 6 7 4 9v12l-5 12-7 7-12 6-9 1h-18l-9-2-10-5-7-6-7-12-1-5 5-2h7l4 8 7 7 8 4 4 1h17l11-4 6-7v-14l-5-5-8-4-20-5-18-7-8-7-5-9v-15l5-10 7-6 13-6z" fill="#0B1C4F"/>
<path transform="translate(223,412)" d="m0 0 9 1 26 7 19 5 1 1 1 53 1-17h1l1 13v15l-5 1-7-1-23-7-6-3v-2l-9-3-8-5-1-35z" fill="#08174D"/>
<path transform="translate(344,653)" d="m0 0 5 1 35 16 18 8 2 2v46l-1 5-1 6-6-2-29-14-21-10-2-2z" fill="#CA7237"/>
<path transform="translate(607,891)" d="m0 0h70v11l-1 1h-55v34h44v12h-44l1 39 57 1v12h-72z" fill="#0D1F50"/>
<path transform="translate(284,564)" d="m0 0 10 2 39 15 6 3 1 5 1 8v21l1 3-2 8 1 14-1 1-7-1-12-5-5-1v-2l-6-2-21-9-4-3-1-13z" fill="#08174D"/>
<path transform="translate(172,396)" d="m0 0h1l1 25 1 10 1 26 18 7 16 6 13 6 2 5 2 38v17l-9-3-39-15-2-2-1-5-3-50-1-2-22-6-9-3h-10v-2h5l-1-7h2v2l8 2 20 7 7 2-1-32-1-19v-6z" fill="#08184E"/>
<path transform="translate(655,326)" d="m0 0 2 3 2 31 1 10 2 12 2 15 1 25-3 14-3 18-2 5v8l-2 8-4 32-2 13-3 18v9l-2 11-1 4-2 10v9l5 5 1 5-9 1h-10l2-21 8-72 8-88 6-65 2-4z" fill="#040923"/>
<path transform="translate(167,330)" d="m0 0h11l31 7 6 2 4 1 1 67-10-2-31-10-9-4-2-58z" fill="#08174D"/>
<path transform="translate(285,626)" d="m0 0h5v2l10 2 6 3v2l11 3 2 1v2l9 2v2l6 2 7 7 2 31v10l-3 1-1-3v6l1 3-1 4-6-2-44-22-3-3-1-6z" fill="#08174D"/>
<path transform="translate(818,649)" d="m0 0h53l1 5-1 9h-39l1 25 35 1v13l-22 1h-13l-1 29h36l4 1v12l-1 1h-54v-96z" fill="#C97648"/>
<path transform="translate(228,480)" d="m0 0h3v2l14 3 21 6 11 3 1 1 2 17 1 44-34-12-16-6-3-3-1-53z" fill="#CA7136"/>
<path transform="translate(459,365)" d="m0 0 2 1-4 71-5 4-32 15h-3v-15l2-55 2-6 18-6 19-8z" fill="#ECC35C"/>
<path transform="translate(229,541)" d="m0 0 9 2 21 8 8 4 12 5 1 1 1 31v27l-6-2-23-10-19-8-2-2-1-10z" fill="#08174D"/>
<path transform="translate(174,398)" d="m0 0 7 3 22 5 16 4 1 31 2-4 1 35h-2l-1-2-2 1-41-14-2-3-1-25z" fill="#CA7136"/>
<path transform="translate(455,445)" d="m0 0h1v15l-2 42-1 11-4 3-16 8-17 9-2 2v-16l2-55 2-3 16-7z" fill="#F1D260"/>
<path transform="translate(231,602)" d="m0 0 9 3 28 12 12 5 1 1 1 16v34l-1 4-6-2-23-11-17-9-4-9z" fill="#08174D"/>
<path transform="translate(574,322)" d="m0 0h1v15l-4 43v4l11-5 8-4h2l-1 5-8 5-13 5-2 10-4 45v10l18-10h5l-4 4-16 8-4 3-3 37-2 10h-1v-19l2-19v-7l-13 7-3-1 5-3 7-4 4-2v-2l-10 6-13 8-6 3 1-16 2-25 1-21 2-5 6-4 4-4 6-2 1-4 13-6 3-24 4-40z" fill="#08184D"/>
<path transform="translate(628,648)" d="m0 0h20l12 3v14h-4l-10-3h-13l-13 4-8 7-6 10-2 8v12l3 10 6 9 7 6 5 3 8 2h11l14-3h3v13l-2 2-8 2h-23l-13-4-9-5-8-8-6-10-4-13v-19l3-12 6-10 5-6 13-8z" fill="#C97445"/>
<path transform="translate(522,479)" d="m0 0h2v2l-26 14-3 2-4 58-1 3 11-6 17-10h2v18l-3 39-2 6-12 8-4 4-11 7h-3l2-49v-26l4-50-26 14-8 4-1 2h-2l-1 7h-1l-1-6-32 17h-5l2-5 22-12 15-7 13-4 9-5 7-3 7-5h2l1-2h2l10-6h3v-2l6-2z" fill="#08184D"/>
<path transform="translate(177,521)" d="m0 0 11 3 14 6 21 8 3 2 1 32v23l-9-3-11-5-25-11-1-1-2-24z" fill="#08174D"/>
<path transform="translate(495,352)" d="m0 0h5v19l-3 45-1 5-34 15h-2l1-27 3-46z" fill="#F4D45E"/>
<path transform="translate(497,345)" d="m0 0h6l-2 1 2 4v3h-2v10h-1v-11l-13 4-20 7h-3v11l-3 52-2 11-2 1v-21l3-51-23 10-16 5-1 5-2 55-1 15 5 1-2 2h-5l-4 2-2-1v7l-2-2-1-3-52-14-8-2v64l-5-1-1-2v-61l-7-3-27-7-1-2 12 1v2h11l14 2 1 1h8l17 4 23 7 19 5 1-3 1-16 1-39 1-16-10-1-44-9-10-3-2-2-2 3-2-9 8-2 4 2-4 1-1 2 55 11h9l16-5 4-3 4-1 12-4h9l12-6 17-6 5-2z" fill="#0B1E4E"/>
<path transform="translate(126,322)" d="m0 0h2v2h7l1 2 22 3 7 3 3 52v8l-18-5-16-5-8-3-2-10-2-25v-21z" fill="#CA7338"/>
<path transform="translate(451,519)" d="m0 0h1v19l-2 34-1 11-10 7-15 9-9 5h-3v-26l1-29 1-10 22-12z" fill="#F4D45F"/>
<path transform="translate(132,382)" d="m0 0h1l1 5 15 4 18 5 1 1 3 32 1 25-11-2-18-7-6-2v-2l-3 1-5-3-3-39v-14l6 1z" fill="#CA7338"/>
<path transform="translate(446,594)" d="m0 0h2v25l-2 34-2 2h-3v2l-25 14-5 3h-2v-17l1-35 1-10 8-5 25-12z" fill="#F3D462"/>
<path transform="translate(535,336)" d="m0 0 3 1-2 38-3 27-3 3-28 13h-2l1-25 2-37 1-7 8-4 16-6z" fill="#F3D45E"/>
<path transform="translate(130,447)" d="m0 0h6v1h-5l1 1h9l30 10 2 3 3 50v5l-3-2v-3l-7-1-8-2-16-7-2-2-6-1-1-2-2-25z" fill="#CA7338"/>
<path transform="translate(489,499)" d="m0 0h2v10l-4 51-4 4-24 14-4 3h-2v-16l2-46 4-4 23-12z" fill="#F3D35E"/>
<path transform="translate(134,505)" d="m0 0 3 1h-2l1 3 2-1h9l20 8 10 7 2 41 1 9h-2l-1-2h-3v-2l-3 1-16-7-11-5-6-2-1-2-3-43z" fill="#CA7338"/>
<path transform="translate(212,317)" d="m0 0 37 6 14 3v2l-20 4-13 4 9-1 23-6 2-1h12l44 8 1 2-21 6-8 3-13 3h-7l-32-7-13-3-6-1-12-1-21-5 3-2h3l-1-5 2-3z" fill="#78A25E"/>
<path transform="translate(443,660)" d="m0 0 2 1v15l-1 27h-1v12l-6 5-23 14-5 3h-2v-24l1-28 1-6 26-14z" fill="#ECC25C"/>
<path transform="translate(135,561)" d="m0 0 11 2 13 5 17 8 4 5 1 12v30l2 1-2 4-6-2-33-16-1-1-3-38v-8l-3-1z" fill="#CA7338"/>
<path transform="translate(760,649)" d="m0 0h13l1 1 1 81 36 1 3 1v13h-54l-1-1v-95z" fill="#C8784A"/>
<path transform="translate(572,321)" d="m0 0h1l-1 21-4 39-2 7-13 6-14 6h-3l5-65 4-3 20-8z" fill="#F3D35E"/>
<path transform="translate(479,632)" d="m0 0h3l-2 44-1 1-1 9-5 5-14 10-10 8-3 1-3-9 2-47 21-13 11-7z" fill="#08184D"/>
<path transform="translate(525,479)" d="m0 0h1v15l-3 37-1 9-9 6-20 12h-3l4-61 8-5 22-12z" fill="#F2D35E"/>
<path transform="translate(598,309)" d="m0 0 7 1 1 1-1 16-5 40-2 7-6 3v-2l-16 8-6 2 1-15 4-45 1-5 19-8z" fill="#F4D45E"/>
<path transform="translate(1080,788)" d="m0 0h9l7 4 5 8 1 5v27l-3 9-4 5-7 3h-7l-7-4-5-8-2-7v-22l3-10 4-6z" fill="#FAFBF8"/>
<path transform="translate(559,461)" d="m0 0h1l-1 17-3 32-1 9-9 7-19 11h-1v-12l3-46 4-4 24-13z" fill="#F2D35E"/>
<path transform="translate(374,391)" d="m0 0h12l3 3 5 2 5 5 3 6v3l2 1-3 9h-2l-1 5-3 3-3 6-10 4-7 3-8-2-2-5-4-6v-3h-2l-1-5-2-1-1-5 6-18z" fill="#CA7136"/>
<path transform="translate(512,609)" d="m0 0h3l-1 43-2 10-10 8-18 13h-2v-17l2-37 5-4 4-4 10-6 7-4h2z" fill="#08184D"/>
<path transform="translate(946,789)" d="m0 0h15l6 2 5 4 3 7 1 5v21l-2 9-6 7-7 2h-15l-1-1v-55z" fill="#F7F9F4"/>
<path transform="translate(244,930)" d="m0 0h214v45l-2-2-2-12-3-12-3-8-3-1v-2h-24l-46-1h-73l-35-1-21-4z" fill="#040821"/>
<path transform="translate(750,681)" d="m0 0 2 3 1 5v17l-3 13-6 11-10 10-9 5-8 2h-22l-11-4-9-6 2-1 1-3-5-5-4-8-1-6 4-1 2 2 2-7 2 4 4 9 6 7 8 4 4 1h13l9-4 7-6 6-12 2 4h3l2-8v-23z" fill="#C97345"/>
<path transform="translate(550,583)" d="m0 0 2 1-2 12-3 31-4 12-9 8-14 10-4 2-1-7 2-29 1-16 6-7h3v-2l17-10 5-3z" fill="#08184D"/>
<path transform="translate(976,890)" d="m0 0h14v110l-14 1z" fill="#0C1F52"/>
<path transform="translate(366,525)" d="m0 0 11 3 24 8 8 3v24l-1 17-11-3v-2l-10-2-10-3v-3l-3-1-2-7v-16l-2-13-2-1z" fill="#D4864F"/>
<path transform="translate(387,349)" d="m0 0h6l11 3 29 5 18 2-1 2-4 2-4 3-6 1-3 3-10 4-8 2h-9l-45-9-10-3 1-3 16-5z" fill="#78A25E"/>
<path transform="translate(969,649)" d="m0 0h13l1 1v96h-15v-96z" fill="#CA7749"/>
<path transform="translate(459,365)" d="m0 0 2 1-1 7-11 1v2l-10 3-9 3-6 1v2l-1 1h1v5l-2 2-1 11-1 37 4 2 2 2 6-1 2 1v-2h3v-2l5-1v2h2l1-7 3-10 1-8v-13l-2-10h-8l-3-8v-3l11-5 3-2 9-2v29l-2 34-5 4-32 15h-3v-15l2-55 2-6 18-6 19-8z" fill="#F2D35F"/>
<path transform="translate(1186,882)" d="m0 0 1 4v2h-3l-1 4-4 8-7 10h-2l-2 5-2 3h-2v2l-6 3-8 14-4 2-2 10 1 7 1 4-1 18-2 9-2 2-3 10-3 9-4 8-6 8-1 3-3 1-3 4-2-1-1 3-5 2 2-5 11-13 9-16 5-17 1-5v-22l-3-14-2-6v-10l3-6 19-10 13-10 9-9 7-10z" fill="#060D27"/>
<path transform="translate(542,295)" d="m0 0h11l55 8-1 4-5-1v2l-7 1-11 5-14 5-10 1-6 1 1-5-10-1-16-3-13-3v-2l26-9z" fill="#7AA361"/>
<path transform="translate(326,338)" d="m0 0 19 3 36 6 1 2-9 3-29 10h-8l-49-11 3-2 19-5z" fill="#B6C296"/>
<path transform="translate(431,335)" d="m0 0 9 1 42 7 5 1-2 3-5 2-10 2-3 1v2l-10 4h-8l-55-9 1-2z" fill="#B4C195"/>
<path transform="translate(232,484)" d="m0 0 13 1 21 6 3 1v2l3 1-1 2h2v2l3 1 1 10v20h1v21l-3 1-15-6-4-2v-2l-3-1-1-4 6-4 9-1 1-2h3v-3h2l1-8 1-3-1-5-1-1-1 2-5-1-4-4v-4l-4-1v-2l-4 1v-2l-3 1-3-1-1 4h-9l-2-1v-2l-5 1-2-1v-15z" fill="#C0642E"/>
<path transform="translate(306,316)" d="m0 0h11l33 5 11 1-1 3-14 5-19 6h-14l-37-7-6-2 2-2 17-4z" fill="#08184D"/>
<path transform="translate(318,339)" d="m0 0 3 1-7 3-11 4-13 3v1l15 3 31 7 8 1 2 5 3-1-1 47-1 25-5-2-1-1v-22l1-44-24-4-27-7-10-2v11h-1l-1 12-2-1v-26h-4v-2l15-3 10-3 8-3z" fill="#1B436F"/>
<path transform="translate(409,460)" d="m0 0 3 1-1 44-1 6h-2v-3l-3 1-4-1-4-2-3-6-6-7-2-9h-2v-21l8-1 14 3 2 3z" fill="#D4854E"/>
<path transform="translate(382,602)" d="m0 0 6 1 18 7 1 5-2 58-7-2 4-1v-13h-2l-1-3 4-1v-10h-5l-4-3-14-7-7-1-2-3 1-5 4-6 9-5-1-9h-2z" fill="#D4854E"/>
<path transform="translate(409,615)" d="m0 0h1v42l-1 17 25-14 5-3h2v-2l4-1 1 5-2 2-15 8-18 10h-2l-1 34-1 16-5 1 1-4v-46l-16-8-36-16-9-5 1-3 7 1 27 12 28 12v-26l2-23z" fill="#0B1D4F"/>
<path transform="translate(474,321)" d="m0 0h12l44 6-3 2-29-3h-4l1 3 9 4 4 2 5 2-3 2-24 9-4-1 6-4-24-5-26-4 2-2z" fill="#78A25E"/>
<path transform="translate(292,434)" d="m0 0h10l34 9 5 3v31l-1 2-4-1-2-2v-3l-4-2v-2h-10l-10-5v-10l1-8-4-6-9-2-5-1z" fill="#F1D45F"/>
<path transform="translate(550,394)" d="m0 0 3 1v3l-9 3-1 3-7 4-1 4-2 34-2 21v6l8-5 20-12 2 1-4 4-6 3-7 4v2l-13 7-2 2v-3l-2 2v8h-1l-1-6-5 1-7 4-1 1h-5v2l-16 8-11 7-14 7-8 3-3-1 14-8 15-8 7-5 3-46v-21l3-3 5-1-1 5-2 4-2 36-2 26 5-4 18-10h2l5-4h2l4-63-3-1 3-3-1-2h2l1-2 1 1 2-3z" fill="#1C4570"/>
<path transform="translate(760,907)" d="m0 0 3 3 15 46v2h-33l1-8 12-37z" fill="#F6F7F2"/>
<path transform="translate(430,458)" d="m0 0 1 3 3-1 6 3 1 1v13l-3 8 1 6 1 9-2 8h-2v2l-3 3-5 2h-5l-2-2-1-6h-2l-1-3v-8l4-4 2-4 2-3 1-2 3-1-1-6-2-1v-2l-8-2 1-3 7-6z" fill="#EDC45D"/>
<path transform="translate(305,434)" d="m0 0 12 1v2h11l14 2 1 1h8l17 4 23 7 15 4 2 3-1 2h-9l-29-8-23-6v64l-5-1-1-2v-61l-7-3-27-7z" fill="#0C1F51"/>
<path transform="translate(349,448)" d="m0 0 33 9 19 5 5-1 3 6v12h-1l-1-11-1-2-22-5-2 1-2 5-5 5-10 2-4 3h-3v3h-2l-1 5-3 2-3-2-1-35z" fill="#C0642E"/>
<path transform="translate(421,621)" d="m0 0h6l4 5 6 4v14l-2 7-7 4-5 1-5-5-1-2-5-1-1 7h-1v-33h1l1 11 3-2 1-3h2l1-6z" fill="#ECC25C"/>
<path transform="translate(121,660)" d="m0 0 5 1 30 14 29 14 20 9 16 8 19 9v4l-6 4-8 10-3 3-1-4v-15l-4-4v-2l-4-1-12-6-11-6-16-8-16-10-10-5-7-4-5-1v-2h-4v-2l-5-1-3-1v-2h-4z" fill="#050B24"/>
<path transform="translate(228,569)" d="m0 0h1l3 28 15 7 15 6 15 7 4 1 1-38h1l1 34v56h-1l-2-31-1-16-49-21 1 45h-2l-1-22-1-2v-24l-5-1-33-15-2-1v-2l3-1 23 10 13 6v-14z" fill="#41696C"/>
<path transform="translate(132,382)" d="m0 0h1l1 5 15 4 18 5 1 1 1 8v11l-2-3-1-2-4 1-4-2-3-3-2-3-2 1-1-2-2 1-9-1-4 3-5 1-1 8-2-1-1-14v-14l6 1z" fill="#BF6A35"/>
<path transform="translate(348,368)" d="m0 0 16 4 50 10v16l-1 39-1 16-1 6-1-3-7-1-33-9-15-4-10-3 2-1v-25zm2 4-1 63 2 4 41 11 16 4h1l1-6 1-30v-34l-41-8-17-4z" fill="#B5B587"/>
<path transform="translate(475,429)" d="m0 0h2l-2 4-12 6v3l-7 1-1 3-25 11-12 5-1 2-2 55-1 13-5-1 2-68 4-5h5v-3l27-13 8-4 3-1 2-3v2z" fill="#0B1E4E"/>
<path transform="translate(176,403)" d="m0 0 11 1 5 1v2l9 1 11 2 4 3 1 8-4 2h-4l-1 2-7-1-4-3h-6l-3-3-3 1-3 5-5-2-1-2v-6h-2v-10z" fill="#C0642E"/>
<path transform="translate(372,666)" d="m0 0 6 1 20 9 5 3v28l-2 2-5-4-4-4-3-2v-2h-3v-3l-3-1-2-5v-9l-4-8h2v-2l-5-1z" fill="#D4854F"/>
<path transform="translate(126,322)" d="m0 0h2v2h7l1 2 22 3 5 2v12l-1-3h-2v2l-6 1v-2l-6-1-1 1h-7l-2-1v2l-6 2-8-1-2-10v-10z" fill="#BF632E"/>
<path transform="translate(916,648)" d="m0 0h26l12 3 1 1v15l-9-3-9-2-7-2-11-1h-3l-1 2h-3l-2 1-3-2-2 1-1-6 3-3 4-1 1-2z" fill="#CA753B"/>
<path transform="translate(170,308)" d="m0 0 2 2 34 6-2 1v2l-21 6-4 2 12-3h6l-3 2 1 2-1 3-3 1h-8l-15-3v-3h-6l-3-5 6-7 2-2 1-3z" fill="#7CA461"/>
<path transform="translate(191,299)" d="m0 0 5 1-3 1-1 3h-2l1 6h-9l-12-1-2 2v3h-3l-1 3-4 4 2 4 6 1v2h-7l-24-4-9-2 3-3 16-7 12-4 10-1 4-3z" fill="#B4C194"/>
<path transform="translate(522,479)" d="m0 0h2v2l-26 14-3 2-3 43-2 3h-2l1-22 2-22-26 14-8 4-1 2h-2l-1 7h-1l-1-6-32 17h-5l2-5 22-12 15-7 13-4 9-5 7-3 7-5h2l1-2h2l10-6h3v-2l6-2z" fill="#0B1D4C"/>
<path transform="translate(486,560)" d="m0 0h1l1 6-1 33-1 18-1 7 6-3 2 1-3 1-1 3-4 3-2 37-1 10-2-1v-17l1-22 1-4-5 3-16 10-14 9-2-1 2-4 15-10 14-9 5-5 1-4 2-37v-18l1-2-2-1z" fill="#1F4870"/>
<path transform="translate(547,326)" d="m0 0 3 1-3 3-11 2-3 3-4 1h-3l-12 5-4 1 2 4-7 3-1 7h-1v-6l-2-1v-3h-6l-1 3-5 2-22 8-7 4h-9l-5 1v-3l4-1-17-2 4-2 20 1 8-3h2v-2l7-3 15-3 26-10 29-9z" fill="#1C4570"/>
<path transform="translate(837,789)" d="m0 0h3l10 30v4h-23l1-7z" fill="#F6F7F2"/>
<path transform="translate(733,657)" d="m0 0 4 1 8 9 5 11v7l-2-2-5 1v23l-3 9h-3l-2-1 2-14-1-13-2-7-5-9 1-2 6 3 4 5 2 1-4-9v-2h-2l-4-8z" fill="#C26C37"/>
<path transform="translate(494,788)" d="m0 0h2l6 16 5 15v4h-23l1-7 7-21z" fill="#F5F7F1"/>
<path transform="translate(523,541)" d="m0 0 2 2-1 4-3 51-1 2 7-2v2l-5 3-3 4-2 35-1 10-2 2-1-2 1-39 1-4h-3v2l-9 5-8 5-2-1 7-5h2l2-4 11-7 2-16 3-45z" fill="#204970"/>
<path transform="translate(287,274)" d="m0 0h5l-3 2-11 3v2l-3 2 5 2v3h-10l-5-3-6-1-13 4-1 1-8 1v3 1l7 2 1 3h-9l-17-3-7-1 4-3 25-7 14-3 9-3z" fill="#B9C499"/>
<path transform="translate(346,591)" d="m0 0 9 2 12 5 1 4-1 6-2 2-2-1-1 2-7 5-6 2-2-1-1 2z" fill="#BF642E"/>
<path transform="translate(343,648)" d="m0 0 7 1 27 12 21 9 8 3 1 7h-2v39h-1l-1-39-16-8-36-16-9-5z" fill="#0D2355"/>
<path transform="translate(348,658)" d="m0 0 9 2 10 6v7l-1 2-12 6v2l-6 3-2 3v-30z" fill="#C0642E"/>
<path transform="translate(210,338)" d="m0 0h15l9 3 29 6 9 2 1 2h-10l-7-1v-1l-16-2-4-2-12-2-2-1 1 7v49l-2 2-2-7v-53l-9-1z" fill="#1E4770"/>
<path transform="translate(346,446)" d="m0 0 8 1 41 11 8 2v3l-14-3-25-7-14-4-1 4v57l9 4 11 3 7 3 10 3 17 6 7 2-1 2-10-3-36-12-16-5-1-1z" fill="#AFBA8A"/>
<path transform="translate(499,420)" d="m0 0 3 1-1 4-2 4-2 36-2 27-2 4-6 2-8 6-8 3-10 5-6 1 3-3 26-14 7-5 3-46v-21l3-3z" fill="#1D4671"/>
<path transform="translate(154,365)" d="m0 0 10 4 1 6v12l-3 1-16-2-11-4v-2l8-1 3-3 4-5h2v-5z" fill="#BF6732"/>
<path transform="translate(211,440)" d="m0 0 1 2 3 1 2 3 2 7 1 13-1 1h-7l-10-5-2-7 2-4h2l1-5h2l1-5z" fill="#C0642E"/>
<path transform="translate(341,449)" d="m0 0 5 1v60l-5-1-1-2v-49z" fill="#091534"/>
<path transform="translate(134,505)" d="m0 0 3 1h-2l1 3 2-1h9l10 4 1 4 2 4-4 4-9-1-9 1-1 5h-2z" fill="#C16933"/>
<path transform="translate(398,714)" d="m0 0 4 3 1 14-1 6-6-2-21-10v-2l15-5h5l1-3z" fill="#C06934"/>
<path transform="translate(343,584)" d="m0 0 8 1 10 2 41 16v2l4 1v3l-8-1-29-11-21-8-4-2z" fill="#0C1F50"/>
<path transform="translate(130,447)" d="m0 0h6v1h-5l5 1 4 4 26 11 2 3-4 1-9-1-10-4-6-1-5 2-1 7h-1l-2-16z" fill="#C06731"/>
<path transform="translate(177,523)" d="m0 0h1l3 44 1 8 8 4-4 3-3-1-3-3 1 2v13h-1l-1-12-3-4-26-12-7-2 1-6 19 9 15 5v2h2l-2-9-1-24z" fill="#1D4670"/>
<path transform="translate(174,398)" d="m0 0 7 3 22 5 16 4 1 31 2-4 1 35h-2l-1-2-2 1-6-2v-2l7-1-2-26-1-24-1-3-3-2-16-3-4-1v-2l-3 1-8-2h-7z" fill="#C47041"/>
<path transform="translate(459,365)" d="m0 0 2 1-1 7-11 1v2l-10 3-9 3-6 1v2l-1 1h1v5l-2 2-1 11-1 25-1 6h-1v-25l1-24 2-6 18-6 19-8z" fill="#E7D065"/>
<path transform="translate(542,295)" d="m0 0h11v1h-5l1 3 3 2v3 5l-2 1h-17l-17-2 2-2 24-8z" fill="#B5C296"/>
<path transform="translate(443,660)" d="m0 0 2 1v15l-1 20-2 3-1-11-5-2-2-2-1-9-1-3 4-8z" fill="#EED061"/>
<path transform="translate(848,622)" d="m0 0h11l1 4-18 18h-7l-1-3 10-16z" fill="#D18C59"/>
<path transform="translate(160,434)" d="m0 0 5 1 3 1 1 9h2l1 9-11-2-10-4 2-5-1-4h2l1-3z" fill="#BE6A35"/>
<path transform="translate(491,325)" d="m0 0 15 1 22 2 5-1 8 1-4 2-22 7-7-1-4-2-11-5 1-2z" fill="#B1C092"/>
<path transform="translate(346,519)" d="m0 0 9 1 2 2-6 1-2 3v31l1 17 3 7 6 3v2l7-1 1 3 2 2-6-1-13-5-5-3v-24z" fill="#BB7B4A"/>
<path transform="translate(351,522)" d="m0 0 6 2 4 8-4 16-9 2v-27z" fill="#C0642E"/>
<path transform="translate(269,493)" d="m0 0 8 1 1 1 2 17 1 44-31-11 1-5v-5l2 3 1 3 2 1v2l7 2 12 5h2v-19h-1v-22l-1-10-2-1v-2h-2v-2z" fill="#C96E3F"/>
<path transform="translate(1067,1054)" d="m0 0h5v2l-9 3-11 1h-92l-14-1v-1l101-1z" fill="#040924"/>
<path transform="translate(358,373)" d="m0 0h11l45 9v16l-1 10-1 28-1 10h-1v-28l1-34-11-1-30-6-12-3z" fill="#E3BB69"/>
<path transform="translate(417,468)" d="m0 0 1 3h5l3 2v2l3 1 1 6-4 1-2 7-4 5-3 1 1 11-2-2v-36z" fill="#F6D65D"/>
<path transform="translate(174,600)" d="m0 0 1 2h2v10l2 4 1 7 3 1-2 4-6-2-13-7-1-2h4l3-4 2-7 2-5z" fill="#C06934"/>
<path transform="translate(461,364)" d="m0 0 2 1v27l-2 34-2 11-2 1v-21l3-49z" fill="#091536"/>
<path transform="translate(344,622)" d="m0 0 1 4 5-1h3 2v8l-2 5v2l2 3 2-2v4l-4 2v3l-5-1-4-2z" fill="#BE7645"/>
<path transform="translate(475,429)" d="m0 0h2l-2 4-12 6v3l-7 1-1 3-12 5h-7l-4 1v2l-5 1-3-2 30-14 4-2 2-3v2z" fill="#0C2154"/>
<path transform="translate(409,615)" d="m0 0h1v42l-1 20h-3l-1-4v-26l2-23z" fill="#0A1C51"/>
<path transform="translate(661,691)" d="m0 0 3 1 2 5-1 1 2 14 6 15 3 3v2l3 1-1 2-4 1-7-9-5-11-1-3z" fill="#C16B37"/>
<path transform="translate(176,577)" d="m0 0 4 4 1 12v30l-2-3-2-7-1-5 1-6-2-1 1-6-1-3-3-2-1-7 1-4h4z" fill="#C66F40"/>
<path transform="translate(497,345)" d="m0 0h6l-2 1 2 4v3h-2v10h-1v-11l-13 4-20 7h-3v11h-1l-1-9h-3l4-5 12-5 14-5 5-2z" fill="#0C2054"/>
<path transform="translate(170,549)" d="m0 0h6l2 21-4 1v-2l-3 1-6-3v-2l-2-1 3-7h2v-6z" fill="#BE652F"/>
<path transform="translate(299,316)" d="m0 0m-5 1h5v2l-17 5-10 2 3 2-11 1-16 5-14 3h-8l4-2 21-6 12-1v-2l-4-1 16-3z" fill="#1D4671"/>
<path transform="translate(166,494)" d="m0 0 1 2h5l2 11v6l-13-4-3-4 1-6 2-3z" fill="#C0642E"/>
<path transform="translate(595,308)" d="m0 0 4 1-6 5-15 6h-2v5l-4-3-16 7h-2l-1-2-3-2 15-6 13-4 16-6z" fill="#0C1F4C"/>
<path transform="translate(474,349)" d="m0 0 4 1 2 3-20 10h-9l-5 1v-3l4-1-17-2 4-2 20 1 8-3h2v-2z" fill="#1D4671"/>
<path transform="translate(677,674)" d="m0 0 1 2-1 3-1 13v22l-3 2-3-6v-22l3-7z" fill="#C26933"/>
<path transform="translate(171,308)" d="m0 0 11 1 24 5 9 1-5 4-15 5-16 4-4-1 14-5 11-3h4v-2l-24-5-8-1z" fill="#1D4671"/>
<path transform="translate(132,380)" d="m0 0 20 7 12 3v2h2l2 4-9-1-20-6-6-2z" fill="#0E2456"/>
<path transform="translate(538,342)" d="m0 0 2 2v18l-3 35-3 7h-1v-10z" fill="#0E2144"/>
<path transform="translate(162,457)" d="m0 0 9 2 2 3 3 50v5l-3-2v-8l-2-11-2-34-7-3z" fill="#C67142"/>
<path transform="translate(163,331)" d="m0 0 2 1 3 52v8l-18-5 3-1 12 1-2-28-1-7z" fill="#C47041"/>
<path transform="translate(348,368)" d="m0 0 16 4 4 2-15-1-3-1v61l-2 4z" fill="#C5B78D"/>
<path transform="translate(649,396)" d="m0 0h2v31l-2 5v8l-3 7h-1v-12l1-1v-23l2-1v-11z" fill="#03030F"/>
<path transform="translate(409,674)" d="m0 0 3 1h-2v2l3 1-4 1-1 34-1 16-5 1 2-11 1-39h2z" fill="#0B1F52"/>
<path transform="translate(138,499)" d="m0 0 4 2 16 7 9 4v2l6 2 1 2-10-2-17-7h-9l-3 1v-4h6l-2-5z" fill="#102859"/>
<path transform="translate(832,732)" d="m0 0h36l-2 2 2 6-9 1-3-1-2 1v-2l-7 1-1-3h-6l-1-2 19-1-26-1z" fill="#CF9461"/>
<path transform="translate(464,324)" d="m0 0h5l-3 2-8 3 7 2-3 3 5 2v1h-11l-18-3 2-2z" fill="#B1BF91"/>
<path transform="translate(991,702)" d="m0 0 1 2h2l2 5v4h2v6h2l3 7v7l3 1-2 1-5-4-5-8-3-8z" fill="#C16F3B"/>
<path transform="translate(346,446)" d="m0 0 8 1 41 11 8 2v3l-14-3-25-7-14-4-1 4-1 5h-1z" fill="#BBBC89"/>
<path transform="translate(436,333)" d="m0 0 28 4 24 5 4 2h-10l-42-7-6-2z" fill="#132F5F"/>
<path transform="translate(574,322)" d="m0 0h1v15l-4 43-2 4v-21l4-40z" fill="#0B1B38"/>
<path transform="translate(228,480)" d="m0 0h3v2l9 2-3 1h-5l-1 2v13l1 5-1 18-1 2-1 10h-1l-1-53z" fill="#B87B48"/>
<path transform="translate(448,296)" d="m0 0h13l5 2 7 1 1 2-14-1h-11l-24 8-9 1 3-3 24-7z" fill="#1D4671"/>
<path transform="translate(658,730)" d="m0 0h3v13l-2-4-5 1-10-1v-2l-4-1-7-1v-1l18-2z" fill="#D3905E"/>
<path transform="translate(1e3 682)" d="m0 0 1 4 1 17 2 7v7l-3 1v-3h-2l-3-10 1-11v-7z" fill="#C26B37"/>
<path transform="translate(407,591)" d="m0 0h1l1 8 3 2v3l2 1-2 3 3 2-3 2-1 10-2-2-2 15h-1v-25l-3-1h3l-1-3-3-2h4z" fill="#122C5B"/>
<path transform="translate(366,504)" d="m0 0 2 1 2 6h3v2l10-1v3h-4l-2 3-2-1 1 3-6-1-7-3-8-2v-1l9 1 1-9z" fill="#CA7141"/>
<path transform="translate(144,557)" d="m0 0 19 9 3 1v2l6 2 7 4v1h-6l-16-8-14-5z" fill="#112B5C"/>
<path transform="translate(279,512)" d="m0 0h1l1 44-31-11 1-5v-5l2 3 1 3 2 1v2l7 2 12 5 4 2z" fill="#C66F40"/>
<path transform="translate(412,437)" d="m0 0h1l1 5 2 1 1 3v10l5 1-2 2h-5l-4 2-2-1v7l-2-2-1-3-3-1 1-3 3-2h3l1-3z" fill="#0C2052"/>
<path transform="translate(888,683)" d="m0 0h4v17l1 13-5-2-2-10 1-9v-3z" fill="#C46D37"/>
<path transform="translate(1063,675)" d="m0 0 6 4 2 5 1 16-1 9h-3l-2-26h-2z" fill="#C16730"/>
<path transform="translate(462,392)" d="m0 0h1l1 17 1 2 3 1v-2l5-2 3 6h-2v3l-8 2-5 4v-14z" fill="#E3BC5B"/>
<path transform="translate(380,452)" d="m0 0h16l10 3 2 3-1 2h-9l-17-5z" fill="#09173D"/>
<path transform="translate(433,523)" d="m0 0 6 1-1 3-19 10h-5l2-5z" fill="#081232"/>
<path transform="translate(349,498)" d="m0 0 4 2 4 1 4 6v2l2 1-2 3 3-1v2l-12-1-3-10z" fill="#C0642E"/>
<path transform="translate(286,623)" d="m0 0 8 2 20 9 2 1v2l7 1 4 2v2l3 1-2 1-9-3v-2l-11-3-2-1v-2l-9-3-7-2v-2l-4-1z" fill="#39636A"/>
<path transform="translate(453,518)" d="m0 0 2 1v25l-2 20-2-2v-24z" fill="#081436"/>
<path transform="translate(493,498)" d="m0 0h1v12l-2 30-2 3h-2l1-22 2-17h2z" fill="#0A1B4A"/>
<path transform="translate(501,353)" d="m0 0h2v23l-1 17-1 5h-1l-1-6v-21z" fill="#091536"/>
<path transform="translate(172,396)" d="m0 0h1l1 25 1 9-1 19h-2l-1-27-1-19v-6z" fill="#071649"/>
<path transform="translate(461,364)" d="m0 0 2 1v27l-1 17h-1l-1-11h-1v-13l1-17z" fill="#081232"/>
<path transform="translate(424,312)" d="m0 0h12l28 4 2 2-8 1-16-2-7-1-2-1-11-1z" fill="#1D4671"/>
<path transform="translate(1202,840)" d="m0 0 2 2-1 7-3 12-5 10h-2l-1 2 1-7 5-15 2-9h2z" fill="#0C1530"/>
<path transform="translate(498,388)" d="m0 0 2 4 1 6v11l-1 9 4-1-1 3h-4l-1 2-4-1h2z" fill="#0C2053"/>
<path transform="translate(590,375)" d="m0 0h2l-1 5-8 5-10 4h-3l1-5 11-5z" fill="#081433"/>
<path transform="translate(1079,708)" d="m0 0 1 3-1 9-6 10-3 1-2-1-1 2-1-3h2l2-5 3-4 3-9v-2z" fill="#C26E3B"/>
<path transform="translate(570,569)" d="m0 0 3 1-11 8-8 5h-4l-1 3-17 10-2-1 6-4h2l1-3 9-6 2-2v2l15-10z" fill="#38616A"/>
<path transform="translate(347,413)" d="m0 0h1l1 22 2 1v3l8 1 26 7-3 2-27-7-10-3 2-1z" fill="#A8B27F"/>
<path transform="translate(138,390)" d="m0 0h8l21 6 1 1 1 13-1-3h-2l-2-6-1-2-17-5-8-3z" fill="#C96E3C"/>
<path transform="translate(478,321)" d="m0 0 16 1 36 5-3 2-36-4-13-3z" fill="#193D6A"/>
<path transform="translate(229,525)" d="m0 0h2l1 11 10 1 8 4 3 3-9-1-13-5-2-2z" fill="#C86F41"/>
<path transform="translate(527,476)" d="m0 0h2v18l-1 18-4 4 1-22 1-16z" fill="#081744"/>
<path transform="translate(393,347)" d="m0 0 6 2 37 6 1 2h-10l-32-6-3-3z" fill="#122F5F"/>
<path transform="translate(402,466)" d="m0 0h4l1 9-1 6-5-1-3-4 1-7h2z" fill="#D9A27B"/>
<path transform="translate(516,308)" d="m0 0 17 1 20 3 10 1v2h-11l-23-3-13-3z" fill="#1C4570"/>
<path transform="translate(581,385)" d="m0 0 2 1-3 6-3 4-5 1-2 2-2-2 1-7z" fill="#E9BD5B"/>
<path transform="translate(304,269)" d="m0 0 3 1 4 1 9 2 4 3-2 1-16-1-5-2-4-3z" fill="#B9C499"/>
<path transform="translate(943,692)" d="m0 0h13l1 1v45h-1l-2-32v-12l-11-1z" fill="#D8B368"/>
<path transform="translate(560,464)" d="m0 0h1v21l-2 18-2 4v-19z" fill="#070D1F"/>
<path transform="translate(174,398)" d="m0 0 7 3 22 5 9 3v1l-11-1-9-2v-2l-3 1-8-2h-7z" fill="#B27D47"/>
<path transform="translate(555,619)" d="m0 0h5l2 2-1 5-4 5-4 1-1-3 1-2h-2l1-4 1-3z" fill="#EDC45D"/>
<path transform="translate(305,434)" d="m0 0 12 1v2h11l14 2v1l-5 1v1h-8l-23-6z" fill="#0B1F53"/>
<path transform="translate(436,450)" d="m0 0h5v2l-22 10-4 2 1-6h4v-3l7-1h5v-2z" fill="#081432"/>
<path transform="translate(839,633)" d="m0 0h2v2h2l1 2 4-1-2 5-4 3h-7l-1-3z" fill="#CA7F4E"/>
<path transform="translate(409,615)" d="m0 0h1v42l-1 6h-1v-32l-1-7z" fill="#0B1B3D"/>
<path transform="translate(221,437)" d="m0 0h1l1 35h-2l-1-2-2 1-6-2v-2l7-1 1-5v-14z" fill="#819162"/>
<path transform="translate(374,350)" d="m0 0 5 1v2l-20 7h-7l1-2 20-7z" fill="#0D1B39"/>
<path transform="translate(1064,659)" d="m0 0 5 1 7 9 1 2v6h-3l-3-5v-3h-2l-2-6-2-1 1-2z" fill="#C2723E"/>
<path transform="translate(449,515)" d="m0 0h4l-2 5-12 6v-2l-4-1 3-3z" fill="#0A1A45"/>
<path transform="translate(578,506)" d="m0 0 3 1-5 5-17 9-1-4z" fill="#0C1D40"/>
<path transform="translate(497,345)" d="m0 0h6l-2 1 2 4v3h-2v10h-1v-11l-11 1 2-4 3-1z" fill="#0B1D52"/>
<path transform="translate(174,423)" d="m0 0h2l2 29 2 3 5 2v2l-9-3-1-4z" fill="#C07848"/>
<path transform="translate(191,324)" d="m0 0h6l-3 2 1 2-1 3-3 1h-8v-2l-3-1 3-3z" fill="#ADBE8E"/>
<path transform="translate(592,715)" d="m0 0 8 6 3 8h-2l5 7-4-2-6-7-4-7z" fill="#C3713E"/>
<path transform="translate(559,456)" d="m0 0 2 1-4 4-6 3-7 4v2l-9 5h-3l2-4 15-9z" fill="#183C69"/>
<path transform="translate(172,462)" d="m0 0h1l3 50v5l-3-2-1-33z" fill="#A2B783"/>
<path transform="translate(497,343)" d="m0 0m-3 1h3v2h-2l-1 3-5 2-11 4-2-1 2-2v-3z" fill="#1B426E"/>
<path transform="translate(318,339)" d="m0 0 3 1-7 3-11 4-11 1v-2l14-5z" fill="#102859"/>
<path transform="translate(565,319)" d="m0 0h5l-2 2 2 2-14 6h-2l-1-2-3-2z" fill="#143262"/>
<path transform="translate(190,579)" d="m0 0 12 5 8 4-1 3-6-2-15-7v-2z" fill="#27506E"/>
<path transform="translate(344,653)" d="m0 0 5 1 10 5v1l-8-1-5-2-1 37h-1z" fill="#ADB280"/>
<path transform="translate(430,456)" d="m0 0h2v2h-2l-1 2-4 5h-3l-2 4h-4l1-8 9-3z" fill="#E2CE6C"/>
<path transform="translate(346,656)" d="m0 0 4 2-4 1 1 51-3-1v-15l1-37z" fill="#C1764A"/>
<path transform="translate(344,588)" d="m0 0 7 1 24 9 1 2-14-3-9-4-8-1z" fill="#C5A77A"/>
<path transform="translate(128,322)" d="m0 0 9 1 19 3 2 2h-13l-17-1v-1l7-1-7-1z" fill="#1C4470"/>
<path transform="translate(330,298)" d="m0 0h8l3 1h12l1 1 15 3v1h-12l-25-4z" fill="#1D4671"/>
<path transform="translate(346,269)" d="m0 0h14l4 2 19 1v1l-20 1-4 2-4-1v-2h2v-2l-11-1z" fill="#365B74"/>
<path transform="translate(385,660)" d="m0 0h7l8 4v5l-11-3-3-1z" fill="#C0642E"/>
<path transform="translate(453,553)" d="m0 0h1v29h-2l-1-5-1 5h-1v-10l1-13 2 3z" fill="#122D5D"/>
<path transform="translate(415,404)" d="m0 0h1v37h-1l-1-8h-1v-13l1-15z" fill="#08174D"/>
<path transform="translate(121,660)" d="m0 0 5 1 28 13v2l-9-3-3-2-5-1v-2h-4v-2l-5-1-3-1v-2h-4z" fill="#07112E"/>
<path transform="translate(475,429)" d="m0 0h2l-2 4-12 6v3l-7 1-1-3 9-5 4-3z" fill="#183B68"/>
<path transform="translate(348,453)" d="m0 0h1l1 50 2 9-4-2z" fill="#C96E40"/>
<path transform="translate(169,415)" d="m0 0h1l1 14v16h-2l-1-6v-23z" fill="#BC804F"/>
<path transform="translate(358,406)" d="m0 0 3 1-1 3v9l3 4v2l5 1-3 2-6-3-1-5-2-1-1-5 2-7z" fill="#C96E40"/>
<path transform="translate(248,330)" d="m0 0h7v2l-21 5h-8l4-2z" fill="#173A68"/>
<path transform="translate(403,673)" d="m0 0h3l1 7h-2v39h-1l-1-39-4-3 4-2z" fill="#1D4671"/>
<path transform="translate(385,459)" d="m0 0 8 1 9 2 4-1 3 6v12h-1l-1-11-1-2-21-5z" fill="#C26731"/>
<path transform="translate(1059,722)" d="m0 0v3l-8 7-8 4-9 1-4-1v-2l-4-1h15l11-4z" fill="#D1A274"/>
<path transform="translate(399,654)" d="m0 0h5l1 3v16l-7-2 4-1v-13h-2z" fill="#C38253"/>
<path transform="translate(176,523)" d="m0 0h1l2 41 1 9h-2l-1-5-1-22z" fill="#8EAD72"/>
<path transform="translate(397,287)" d="m0 0 3 2 3 3h-15l-4 1h-8l4-2 9-3z" fill="#1D4671"/>
<path transform="translate(291,480)" d="m0 0 6 2 1 5-3 3-5-2-1-5z" fill="#D5864F"/>
<path transform="translate(582,445)" d="m0 0h5l-4 4-14 7-4-2z" fill="#0D2045"/>
<path transform="translate(166,371)" d="m0 0h1l1 21-18-5 3-1 12 1z" fill="#9E8E54"/>
<path transform="translate(537,382)" d="m0 0h1l-1 15-3 7h-1v-10l1-9 3 1z" fill="#0F285A"/>
<path transform="translate(522,479)" d="m0 0h2v2l-26 14v-3l6-4h3v-2l6-2z" fill="#0C2053"/>
<path transform="translate(272,323)" d="m0 0m-5 1h5v2l3 2-11 1-5 2-8-1v-1l12-1v-2l-4-1z" fill="#1C4570"/>
<path transform="translate(196,320)" d="m0 0h6v2l-23 6-4-1 14-5z" fill="#133060"/>
<path transform="translate(1097,1042)" d="m0 0h3l-1 3-7 3-1 2-8 2-3 2-4-1 4-3 14-6z" fill="#060F2C"/>
<path transform="translate(332,306)" d="m0 0h9l-4 2-12 3-10 2v-3l5-1z" fill="#1B426E"/>
<path transform="translate(561,457)" d="m0 0 2 3-1 14h-1l-1-10-1-2-13 7-3-1 5-3 7-4z" fill="#0E2455"/>
<path transform="translate(380,452)" d="m0 0h14v2l3 1-4 1v2l-12-3z" fill="#07112F"/>
<path transform="translate(378,516)" d="m0 0h2v2l4 1v2l3-1v2h5v2l2 1h-6l-7-3-5-1-1-4z" fill="#C26833"/>
<path transform="translate(194,433)" d="m0 0h5l1 4-2 4h-6v-6z" fill="#D5864F"/>
<path transform="translate(400,380)" d="m0 0 10 1 4 1v16h-3v-14l-11-3z" fill="#BBB281"/>
<path transform="translate(892,661)" d="m0 0 3 1-2 4-4 5-6 2 1-5 1-2 5-3z" fill="#C16A36"/>
<path transform="translate(444,654)" d="m0 0 2 2-1 5-5 2-3 1v-2l-3-1 3-3 4-1v-2z" fill="#173461"/>
<path transform="translate(279,512)" d="m0 0h1l1 44-6-2 4-1z" fill="#78A25E"/>
<path transform="translate(460,397)" d="m0 0h1v19l-3 3v-16z" fill="#060C25"/>
<path transform="translate(171,308)" d="m0 0 11 1 11 2v2h-9l-12-2z" fill="#112C5D"/>
<path transform="translate(348,368)" d="m0 0 16 4 4 2-15-1-4-1v9h-1z" fill="#A7B482"/>
<path transform="translate(474,349)" d="m0 0 4 1 2 3-5 3h-9l4-1v-2l-3-1z" fill="#507A66"/>
<path transform="translate(826,659)" d="m0 0h2l2 4v7l-4 4-2-10z" fill="#CB7236"/>
<path transform="translate(556,502)" d="m0 0 3 1-1 19-3 1v-13z" fill="#10264C"/>
<path transform="translate(245,486)" d="m0 0 8 1 16 5-4 2-6-1-10-5z" fill="#C96E40"/>
<path transform="translate(409,460)" d="m0 0 3 1-1 33h-1l-1-18z" fill="#BEB387"/>
<path transform="translate(526,505)" d="m0 0h1v20l-1 7-2-2v-14l1-1z" fill="#081642"/>
<path transform="translate(138,390)" d="m0 0h8l13 4 1 2h-7l-15-5z" fill="#D48E5C"/>
<path transform="translate(547,326)" d="m0 0 3 1-3 3-11 2-3 3-4 1 2-5z" fill="#1B426E"/>
<path transform="translate(509,608)" d="m0 0 4 1-3 3-7 4-8 5-2-1 7-5h2l2-4z" fill="#4F7866"/>
<path transform="translate(525,494)" d="m0 0 3 3v15l-4 4z" fill="#112C5D"/>
<path transform="translate(447,587)" d="m0 0h3l-1 22h-1l-1-15-6 1 2-4 4-1z" fill="#1D4671"/>
<path transform="translate(570,569)" d="m0 0 3 1-11 8-7 4h-2v-2z" fill="#0D1F3C"/>
<path transform="translate(489,521)" d="m0 0h1v5h2v14l-2 3h-2z" fill="#112B5C"/>
<path transform="translate(193,460)" d="m0 0 6 1 12 4 1 3-5-1-16-5z" fill="#B47B47"/>
<path transform="translate(470,339)" d="m0 0 9 1 13 3v1h-10l-12-2z" fill="#1D4671"/>
<path transform="translate(530,327)" d="m0 0 11 1-4 2-9 3-4-1-2-2 6-2z" fill="#749E5E"/>
<path transform="translate(346,519)" d="m0 0 9 1 2 2-6 1-4 7h-1z" fill="#BD8B5C"/>
<path transform="translate(454,337)" d="m0 0h10l6 2 2 2h-9l-9-2z" fill="#0E2658"/>
<path transform="translate(411,453)" d="m0 0 2 4 2 1-4 3-2-1v7l-2-2-1-3-3-1 1-3 3-2h3z" fill="#14325F"/>
<path transform="translate(135,561)" d="m0 0 11 2-4 4-1 5-3-1v-8l-3-1z" fill="#C3844D"/>
<path transform="translate(347,483)" d="m0 0h1l1 29h-3v-14z" fill="#C5B78E"/>
<path transform="translate(698,743)" d="m0 0 5 1 1 1 13 1v1h-22l-4-2z" fill="#D39865"/>
<path transform="translate(934,648)" d="m0 0h8l12 3 1 5-5-1v-3l-9-1v-2h-7z" fill="#CA9367"/>
<path transform="translate(818,650)" d="m0 0 5 1v2l3 1-5 6-3-1z" fill="#C0642E"/>
<path transform="translate(407,591)" d="m0 0h1l1 8 3 2v3l2 1-2 1-2-1v2h-2l-2 2-1-3-3-2h4z" fill="#2D556F"/>
<path transform="translate(480,361)" d="m0 0 3 1-7 5-8 1v-3l7-3z" fill="#EDC45D"/>
<path transform="translate(378,651)" d="m0 0 1 3h-2l1 6 6 3-3 1-10-5 2-1 2-5z" fill="#BE8B5B"/>
<path transform="translate(286,623)" d="m0 0 8 2 8 4v2l-12-3v-2l-4-1z" fill="#477068"/>
<path transform="translate(174,398)" d="m0 0 7 3 11 3-3 2-8-2h-7z" fill="#BE8F5F"/>
<path transform="translate(1e3 682)" d="m0 0 1 4v8l-2 4-2-4v-7z" fill="#C0642E"/>
<path transform="translate(629,581)" d="m0 0h3l2 6-1 4h-5z" fill="#050817"/>
<path transform="translate(590,375)" d="m0 0h2l-1 5-4 3-4-2-1-2z" fill="#0B1C42"/>
<path transform="translate(452,373)" d="m0 0h8v12h-1l-1-10-10 3-4-1 5-1v-2z" fill="#DC9C51"/>
<path transform="translate(399,328)" d="m0 0h8l7 2 11 1v1h-12l-15-2z" fill="#1D4671"/>
<path transform="translate(672,664)" d="m0 0 1 4-2 4-3 3-2 3-1-2 2-7h2l2-4z" fill="#C16630"/>
<path transform="translate(537,369)" d="m0 0h1v13l-1 4h-2v-11z" fill="#060F2D"/>
<path transform="translate(659,651)" d="m0 0h1v14h-4l-5-2 1-2h6z" fill="#D29769"/>
<path transform="translate(313,636)" d="m0 0 10 2 4 2v2l3 1-2 1-9-3v-2l-6-2z" fill="#507966"/>
<path transform="translate(523,521)" d="m0 0h1l1 9 1 2v6l-3 1-1-2z" fill="#1A3F6C"/>
<path transform="translate(550,394)" d="m0 0 3 1v3l-13 3-2-1z" fill="#143261"/>
<path transform="translate(319,265)" d="m0 0h12v1l-11 1 3 2-1 1h-6l-5-2v-1z" fill="#B0BF91"/>
<path transform="translate(425,668)" d="m0 0h2v2l-13 7h-4v-2l10-4z" fill="#0A193D"/>
<path transform="translate(414,604)" d="m0 0h9v2l-6 3h-6z" fill="#050C2A"/>
<path transform="translate(559,456)" d="m0 0 2 1-4 4-6 3-3 2-3-1 9-6z" fill="#1D4671"/>
<path transform="translate(387,525)" d="m0 0 7 1 9 3 7 2-1 2-10-3-12-4z" fill="#ABBB8B"/>
<path transform="translate(1061,719)" d="m0 0 1 4-4 7h-2v2l-7 1 5-4 5-5z" fill="#D68952"/>
<path transform="translate(409,674)" d="m0 0 3 1h-2v2l3 1-4 1v6l-4 2v-7h2z" fill="#122D5D"/>
<path transform="translate(409,615)" d="m0 0h1v19l-2-3-1-7z" fill="#040821"/>
<path transform="translate(410,605)" d="m0 0 3 1-1 2 3 2-4 2-3-1-2 2v-3l-3-1h4l1-3 2 1z" fill="#10295A"/>
<path transform="translate(210,588)" d="m0 0 7 2 2 3-1 2-9-3z" fill="#1F4870"/>
<path transform="translate(565,513)" d="m0 0 3 1-1 3-9 4v-4z" fill="#0A1838"/>
<path transform="translate(459,385)" d="m0 0h1l2 8v16h-1l-1-11h-1z" fill="#0F264E"/>
<path transform="translate(573,317)" d="m0 0 3 1v7l-4-3-6-1 4-1v-2z" fill="#0D2253"/>
<path transform="translate(397,524)" d="m0 0 5 1 2 2 4 2-5 1-7-3z" fill="#C16531"/>
<path transform="translate(458,512)" d="m0 0 2 1-4 4v2h-2l-1 7h-1v-9l1-2-2-1z" fill="#0C2255"/>
<path transform="translate(383,448)" d="m0 0 9 1 10 3-3 2-15-4z" fill="#BBBD8D"/>
<path transform="translate(346,446)" d="m0 0 8 1 1 3-5-1-1 4-1 5h-1z" fill="#C3BB8F"/>
<path transform="translate(645,423)" d="m0 0h1l1 11-1 1-1 11-2 2z" fill="#0E2144"/>
<path transform="translate(418,383)" d="m0 0h1v27h-1l-1-17-1-3z" fill="#0E2347"/>
<path transform="translate(595,308)" d="m0 0 4 1-4 4-11 1 4-3z" fill="#132F60"/>
<path transform="translate(554,526)" d="m0 0h1v12l-2 2-2-12h3z" fill="#07112C"/>
<path transform="translate(557,488)" d="m0 0 3 4-1 11-2 4z" fill="#0B1931"/>
<path transform="translate(402,466)" d="m0 0h4l1 7-1 2h-2l-2-4z" fill="#EDC45D"/>
<path transform="translate(435,448)" d="m0 0 2 1-2 3h-3v2l-5 1-3-2z" fill="#0A1D4F"/>
<path transform="translate(143,325)" d="m0 0 13 1 2 2h-13l-3-2z" fill="#173A68"/>
<path transform="translate(454,702)" d="m0 0 2 1-7 6-3 1v-7l1 2z" fill="#0F1B32"/>
<path transform="translate(504,525)" d="m0 0 3 2v2l2 1-4 4-3-1z" fill="#EDC45D"/>
<path transform="translate(495,493)" d="m0 0h2l-2 4-2 7h-2v-6l-2-1 3-3h2z" fill="#08184B"/>
<path transform="translate(463,436)" d="m0 0m-2 1h2v5l-7 1-1-3z" fill="#1D4671"/>
<path transform="translate(339,692)" d="m0 0 1 4 3-1v3h2v2h-6l-1-1v-6z" fill="#17355F"/>
<path transform="translate(899,668)" d="m0 0h3l-1 4-3 4h-2v-2l-2-1z" fill="#C4703D"/>
<path transform="translate(141,504)" d="m0 0 6 3v1l-9 1-3 1v-4h6z" fill="#254E6F"/>
<path transform="translate(402,461)" d="m0 0h5l2 6v12h-1l-1-11-1-2-3-1z" fill="#C16A36"/>
<path transform="translate(391,458)" d="m0 0 7 1 5 1v3l-14-3z" fill="#CEB876"/>
<path transform="translate(647,434)" d="m0 0h1l1 6-3 7h-1v-11z" fill="#020008"/>
<path transform="translate(171,327)" d="m0 0h11l-1 2 2 2-11-1-2-2z" fill="#78A25E"/>
<path transform="translate(1110,1032)" d="m0 0 2 1-4 6-5 3-2-1 5-5z" fill="#0C1834"/>
<path transform="translate(403,673)" d="m0 0h3l1 7-3 1-5-4 4-2z" fill="#204970"/>
<path transform="translate(391,405)" d="m0 0 5 1 2 11-3 4v-12h-2v-3z" fill="#C96E40"/>
<path transform="translate(414,355)" d="m0 0 13 1 3 4h-6l-1-2-9-2z" fill="#A7BA89"/>
<path transform="translate(538,342)" d="m0 0 2 2v11l-3 1z" fill="#050E34"/>
<path transform="translate(422,667)" d="m0 0m-2 1 2 1-2 3-6 3-3-1 3-3z" fill="#0B1F53"/>
<path transform="translate(490,532)" d="m0 0h1v16l-3 2v-7h2z" fill="#050F36"/>
<path transform="translate(493,498)" d="m0 0h1v12l-4 4 1-10h2z" fill="#143262"/>
<path transform="translate(405,351)" d="m0 0 13 1v3l-11-2z" fill="#0E2656"/>
<path transform="translate(318,339)" d="m0 0 3 1-7 3-5 2-4-1 5-3z" fill="#081433"/>
<path transform="translate(388,667)" d="m0 0 5 1 10 4-4 2-11-6z" fill="#1D4671"/>
<path transform="translate(248,330)" d="m0 0h7v2l-7 2h-5l1-2z" fill="#10295B"/>
<path transform="translate(344,588)" d="m0 0 7 1 4 2v1h-10z" fill="#B0BD8F"/>
<path transform="translate(126,322)" d="m0 0h2v2h7l1 2h-8l-6-2z" fill="#B0B686"/>
<path transform="translate(663,941)" d="m0 0h1v7h-5l2-6z" fill="#040821"/>
<path transform="translate(219,592)" d="m0 0 6 2 1 3-7-1-2-3z" fill="#2E576D"/>
<path transform="translate(279,541)" d="m0 0h1l1 15-6-2 4-1z" fill="#9BB47D"/>
<path transform="translate(170,519)" d="m0 0 4 2 1 5v5h-2l-1-6-2-3z" fill="#C0642E"/>
<path transform="translate(354,448)" d="m0 0 11 2 1 3-10-2z" fill="#C0B68A"/>
<path transform="translate(582,445)" d="m0 0h5l-4 4-5 1v-3z" fill="#0C1C3C"/>
<path transform="translate(160,395)" d="m0 0 7 1 1 4h-3v-2h-7l-1-2z" fill="#BF814B"/>
</svg>
