<?xml version="1.0" encoding="UTF-8"?>
<svg version="1.1" viewBox="0 0 1280 1280" width="320" height="320" xmlns="http://www.w3.org/2000/svg">
<path transform="translate(0)" d="m0 0h1280v1280h-1280z" fill="#FEFEFE"/>
<path transform="translate(297,224)" d="m0 0h694l1 1v463l-1 1h-691l-4-2v-462z" fill="#B92222"/>
<path transform="translate(933,292)" d="m0 0 5 1-2 4-11 9-7 7h-2v2l-8 7-10 9-7 7-8 7-13 12-8 7-15 14-8 7-3 1v2l-8 7-16 15-10 9-13 12-10 9-8 7-10 9 4 5 8 7 16 15 8 7 13 12 8 7 12 11 16 15 8 7 24 22 11 10 8 7 15 14 8 7 14 13 4 3v2h-210l-9-7v-2l-4-2-15-14-8-7-30-27-8-7-11-10-8-7-5 1-11 10-8 7h-2v2l-8 7-14 13-8 7-14 12-12 11-2 1h-171l-2-2 5-5 15-14 11-10 8-7 14-13 8-7 24-22 8-7 16-15 10-9 8-7 13-12 10-9 11-10 1-4-12-11-8-7-16-15-10-9-13-12-14-13-8-7-15-14-12-11-13-12-8-7-10-9-15-14-8-7v-2h174l12 11 8 6v2l4 2 14 13 11 9 15 14 11 9 5 4 4-2 14-12 13-12 11-9 13-12 11-9 7-7 11-9 11-10z" fill="#FEFEFE"/>
<path transform="translate(736,317)" d="m0 0h140l-6 7-13 12-10 9-15 14-10 9-8 7-15 14-8 7-15 14-10 9-11 10-8 7-8 8-11 9-2 2 1 4 13 12 8 7 31 29 8 7 11 10 8 7 13 12 8 7 15 14 13 12 11 9 9 9v2h-138l-10-9-11-10-8-7-12-11-10-9-8-7-11-10-8-7-7-7 2-4 11-10 11-9 7-7 8-7 10-9 8-7 11-9-1-4-10-8-12-11-10-9-8-7-10-9-8-7-9-8 2-4 11-10 8-7 13-12 11-9 13-12 8-7 15-13z" fill="#B92222"/>
<path transform="translate(709,750)" d="m0 0h47l23 46v2h3l2-6 12-25 9-17h46l-1 4-13 22-9 15-10 17-11 18-3 5 2 5 8 14 28 46 7 12h2l11-32 21-57 19-53 5-15 3-1h29l3 4 23 64 17 46 18 50v4h-42l-3-8-5-15v-2l-51 1-8 23-1 1h-82l-5-8-12-23-10-18h-2l-8 17-6 10-6 12-6 10h-46l2-6 12-20 28-46 6-10h2l-2-9-8-13-19-32-8-13-11-18z" fill="#025A8E"/>
<path transform="translate(335,749)" d="m0 0h22l16 4 11 6 10 9 9 14 4 10 2 11 1 18v31l-2 20-3 11-4 8-8 10-12 9-12 6-11 3h-23l-17-4-10-6-10-9-8-11-4-8-3-13-1-9v-48l2-18 4-11 6-10 10-10 13-8 12-4z" fill="#025A8E"/>
<path transform="translate(1057,749)" d="m0 0h23l13 3 15 8 11 11 8 13 3 9 2 18v52l-3 16-3 8-8 11-8 8-13 8-12 4-13 2-16-1-12-3-12-6-10-9-8-10-5-10-3-11-1-13v-46l2-19 4-11 7-10 8-8 11-7 8-4z" fill="#025A8E"/>
<path transform="translate(439,750)" d="m0 0h27l6 8 12 19 13 21 10 15 11 18 2 1v-82h41v168h-36l-10-15-13-21-13-20-15-24-3-2 1 18v64h-42v-167z" fill="#02598D"/>
<path transform="translate(589,750)" d="m0 0h113l-1 37-72 1v26l62 1v37h-63l1 29h72l1 2-1 35h-113l-1-1v-44l1-122z" fill="#025A8E"/>
<path transform="translate(199,749)" d="m0 0h21l13 3 14 7 9 7 9 13 5 11 3 10v5l-41 1-7-14-5-4-3-1h-13l-8 4-4 6-3 12-1 15v23l2 17 3 9 5 6 5 2 11 1 9-3 6-7 4-6h40l1 3-6 18-9 13-8 7-14 8-16 4h-23l-12-3-12-6-10-9-7-8-7-14-3-15-1-14v-27l2-27 3-12 7-11 6-7 14-10 12-5z" fill="#025A8E"/>
<path transform="translate(835,966)" d="m0 0h12l9 2 8 5 7 8 4 11v39l-4 11-7 8-12 6-4 1h-13l-10-3-9-7-6-9-2-7-1-8v-23l2-13 4-7 4-5 11-7z" fill="#B92222"/>
<path transform="translate(510,966)" d="m0 0h13l10 3 10 9 5 8 2 7v36l-3 10-4 6-8 7-9 4-4 1h-12l-8-2-8-5-7-8-4-10-1-6v-29l2-11 5-8 9-8 7-3z" fill="#B92222"/>
<path transform="translate(724,966)" d="m0 0h13l10 3 6 4 7 8 4 11v4h-21l-6-7-2-1h-10l-4 4-2 8v21l2 9 5 5h9l5-5 1-6h-10l-2-3 1-17h34l1 1v21l-3 12-5 8-8 7-8 3-5 1h-13l-10-3-10-9-3-3-4-13v-36l3-10 9-10 8-5z" fill="#B92222"/>
<path transform="translate(628,967)" d="m0 0h60l1 4-1 16-37 1v11l3 1 29 1v20l-32 1v13l37 1 1 2v9l-1 9-47 1-13-1-1-5v-83z" fill="#B92222"/>
<path transform="translate(339,786)" d="m0 0h13l8 4 6 9 2 9 1 15v20l-1 16-3 12-6 8-9 4h-7l-7-2-8-7-3-7-2-13v-41l3-15 4-6 6-5z" fill="#FEFEFE"/>
<path transform="translate(1062,786)" d="m0 0h12l9 4 6 9 2 11v46l-3 14-6 9-5 3-10 1-8-2-6-4-5-10-2-14v-43l2-10 4-7 7-6z" fill="#FEFEFE"/>
<path transform="translate(439,966)" d="m0 0h10l12 3 8 6 6 9 3 8v5h-22l-5-8-2-1h-8l-4 2-2 6-1 7v18l2 10 3 4 6 1 8-3 4-5h21v7l-6 10-9 8-7 3-5 1h-13l-10-3-10-9-4-5-3-10v-37l3-10 6-8 11-7z" fill="#B92222"/>
<path transform="translate(561,967)" d="m0 0h21l1 2v61l1 5 36 1v20l-51 1-9-1v-88z" fill="#B92222"/>
<path transform="translate(775,967)" d="m0 0h22l1 1v69l-1 19h-22z" fill="#B92222"/>
<path transform="translate(906,697)" d="m0 0 11 1 16 7 3 1h8l7-5 5 2 10 9 2 3-1 5-10 7-10 4-5 1h-7l-9-3-11-5-10-1-11 5-8-7-7-7 1-4 12-9 7-3z" fill="#025A8E"/>
<path transform="translate(515,986)" d="m0 0 7 2 4 4 2 10v16l-2 12-5 6-7 1-6-4-3-6-1-8v-12l1-12 4-6 2-2z" fill="#FEFEFE"/>
<path transform="translate(837,987)" d="m0 0h9l5 5 2 6v26l-3 8-5 4h-7l-6-5-2-6v-25l2-9z" fill="#FEFEFE"/>
<path transform="translate(924,816)" d="m0 0 3 1 11 36v5l-25 1-2-1 1-7z" fill="#FEFEFE"/>
<path transform="translate(656,936)" d="m0 0h21l-2 5-9 14-3 4h-12l-1-4 5-18z" fill="#B92222"/>
</svg>
