<?xml version="1.0" encoding="UTF-8"?>
<svg version="1.1" viewBox="0 0 1000 1000" width="1000" height="1000" xmlns="http://www.w3.org/2000/svg">
<path transform="translate(232,175)" d="m0 0h543v363h-542l-2-1v-361z" fill="#D81C1C"/>
<path transform="translate(651,228)" d="m0 0h80l2 2-5 5-45 42-8 7-10 9-9 8-5 5-10 9-15 14-8 7-13 12-8 7v3l14 14 8 7 12 11 11 10 8 7 7 7 8 7 10 9 13 12 11 10 8 7 15 14 8 7 3 2v2h-166l-5-4-5-5-16-15-8-7-12-11-11-9-8-8-5-4h-5l-7 7-7 6h-2v2l-8 7-13 12-11 9-12 11h-136v-3l9-9 8-7 14-13 8-7 13-12 10-9 13-12 8-7 14-13 8-7 14-13 5-4 1-4-8-7-13-12-24-22-13-12-10-9-15-14-10-9-12-11-8-7-13-12v-2h137l8 8 7 5 5 5 12 11 11 9 7 7 11 9 6-3 13-12 11-9 13-12 13-11 11-10 7-6z" fill="#FEFEFE"/>
<path transform="translate(575,247)" d="m0 0h109l-2 4-14 14-8 7-16 15-8 7-10 9-15 14-10 9-12 11-8 7-11 10h-2l2 6 12 11 8 7 17 16 12 11 8 7 10 9 13 12 8 7 13 12 8 7 5 5v2h-109l-7-7-8-7-12-11-20-18-8-7-10-9-1-2 7-8 9-8 8-7 14-13 11-9 4-2-2-5-10-8-7-7-8-7-10-9-11-9-5-6 7-8 10-9 8-7 14-12 13-12 11-9z" fill="#D81C1C"/>
<path transform="translate(554,586)" d="m0 0h37l10 19 8 16v2l2-1 5-12 12-24h37l-2 6-19 32-12 20-3 6 8 15 14 23 12 20 2 1 3-11 20-55 18-50 3-7h25l3 4 17 48 17 46 10 28v5h-33l-6-17v-2l-39 1-7 18h-65l-6-9-13-25-4-4-3 9-14 26-2 3h-37l3-7 16-27 14-23 5-7-1-7-13-22-12-20-10-16zm168 51-4 10-6 17v7h21l-1-10-7-23z" fill="#005990"/>
<path transform="translate(338,586)" d="m0 0h27l10 15 16 26 10 15 4 7 1-63h32v131h-28l-8-11-13-21-11-17-8-13-2-1 1 8v55h-33v-130z" fill="#005990"/>
<path transform="translate(460,586)" d="m0 0h88v29l-57 1 1 19 35 1 13 1v29h-49v22h57v29h-89v-130z" fill="#005990"/>
<path transform="translate(259,585)" d="m0 0h22l13 4 9 6 7 7 6 10 3 9 1 6v47l-3 16-6 10-5 5-11 8-10 4-3 1h-23l-13-4-11-8-9-11-3-6-3-16v-41l2-14 4-10 6-8 8-7 12-6zm4 29-7 6-2 3-2 10v37l3 12 7 7 4 1h9l7-4 4-6 2-8 1-13v-16l-1-13-3-8-3-5-6-3z" fill="#005990"/>
<path transform="translate(824,585)" d="m0 0h21l11 3 12 7 8 9 6 11 2 10v54l-3 12-7 11-9 8-12 6-14 3-16-1-10-3-10-6-7-7-6-9-4-11-1-8v-44l2-14 5-10 9-10 13-8zm4 29-8 7-3 9v40l2 9 5 8 7 3h9l6-3 5-8 2-10v-37l-2-9-4-6-6-3z" fill="#005990"/>
<path transform="translate(154,585)" d="m0 0h20l10 3 11 6 7 6 6 9 5 13v7l-32 1-6-11-4-3h-13l-5 3-3 6-2 10v32l2 11 3 6 4 3 4 1h8l6-3 6-8h33l-1 7-4 10-7 10-7 6-12 6-8 2h-22l-10-3-9-5-12-12-5-10-2-9-1-9v-33l1-14 3-11 7-11 8-7 9-5 7-3z" fill="#005990"/>
<path transform="translate(562,755)" d="m0 0h16l8 3 5 5 4 5 2 6v4h-17l-5-5h-9l-3 5v23l2 5 2 2h7l3-3 2-5h-8l-1-1v-14l1-1h26l1 1v17l-3 10-4 6-6 5-9 3h-12l-8-3-9-8-3-9v-33l3-7 7-7z" fill="#D81C1C"/>
<path transform="translate(491,755)" d="m0 0h46l1 1v15l-16 1h-13v9l25 1v15l-1 1h-24v11h28l1 1v15l-24 1h-17l-7-2v-68z" fill="#D81C1C"/>
<path transform="translate(650,755)" d="m0 0h15l7 3 8 7 4 10v31l-4 9-5 6-11 5h-13l-9-4-6-5-4-7-2-11v-18l3-13 7-8 6-4zm3 16-4 4-1 5v22l3 5 3 3h6l5-4 2-5v-22l-3-6-2-2z" fill="#D81C1C"/>
<path transform="translate(394,755)" d="m0 0h17l7 3 7 6 4 8 1 3v30l-4 10-9 8-8 3h-12l-8-3-6-5-4-6-2-5v-33l3-8 8-8zm6 15-5 5-1 2v26l3 5 3 2h7l4-4 2-9v-16l-2-7-3-3z" fill="#D81C1C"/>
<path transform="translate(340,755)" d="m0 0h14l8 3 6 5 5 10v6h-17l-4-6h-9l-2 3-1 5v19l2 7 1 1h7l5-3 2-2h16v7l-5 8-8 6-6 2h-13l-9-4-9-9-2-7v-32l4-9 5-5 6-4z" fill="#D81C1C"/>
<path transform="translate(438,755)" d="m0 0h17l1 54h28v16l-25 1h-17l-4-1z" fill="#D81C1C"/>
<path transform="translate(702,545)" d="m0 0h15l14 6h6l5-3 5 1 8 7 1 1v5l-9 7-9 3h-9l-16-6h-7l-8 3-11-10 1-5 11-8z" fill="#005990"/>
<path transform="translate(606,755)" d="m0 0h17v70h-18v-69z" fill="#D81C1C"/>
<path transform="translate(512,731)" d="m0 0h17l-3 7-7 11h-11l1-9z" fill="#D81C1C"/>
</svg>
