<?xml version="1.0" encoding="UTF-8"?>
<svg version="1.1" viewBox="0 0 1600 1600" width="400" height="400" xmlns="http://www.w3.org/2000/svg">
<path transform="translate(0)" d="m0 0h1600v1600h-1600z" fill="#E5E4E4"/>
<path transform="translate(983,269)" d="m0 0h48l23 1 9 3 10 9 4 6 1 5-1 96-2 113-27 2h-15l-1-65-1-13-5-1-1 12-3 3-4 2-2 6-5 1-1-1 1-16 2-9 2-4v-2l-4 1v8l-15-1-2-1v-12l4-5 4-1v-3l-15-1-1-1v-6l6-6 1-3-4 1h-2v5l-8 5-2 5h-17l-4-1v97l6-2 2 1 1 6-1 1h-31l1-8h6v-63l1-1h6v-13l-15-15v-3l-13 1-3-8h-5l-3 8-5 1v12l1 9-8 4-2 4h-6l-1-1-2-13-5-3v40l8 3-1 7h-6v6l6 1v32h-73l-13-2-1-1-1 26h115v2l-11 6-14 10-2 1h-88v25h51v12l2 5 2 3-1 1-12 1h-29l-13-1v26h39l-2 4-8 6-18 8-8 4h-3v24h47l7 1 2 5 8 4 23 7 22 3 23 1 1 1v5h-11l-20-2-17-4-85-1v25h122l149 1v19l-2 16-4 49 16 2 12 5 11 7 11 9 9 10 6 9 8 15 7 20 3 15 1 16-8 20-8 18-7 17-5 12-9 22-1 6 32 48 16 25 15 22 13 19 12 18-1 5-11 11-9 11-7 8-10 8-6 1-9-1-7-3-7-4-6-9-10-18-8-13-10-15-6-12-11-17-5-5-3-1-1-11h-10l-8-4 1-17-3-5-10-5-6 1-5 3-3-3v-2h-2v-6l8-16v-9l-5-12h-2l-2 9-4 10-7 20-7 19-9 22-5 14-4 7-14 28-11 18-8 11-10 16-16 21-12 14-8 8-7 8-11 10-16 12-23 12-17 7-26 6-10 1-14-2-19-6-19-10-7-5-9-5-11-8-14-11-10-9-7-6-6-7-6-5-8-10-10-12-13-19-7-10-10-17-12-23-14-30-7-19-5-12-9-29-12-45-9-43-5-24-9-59-5-41-4-39-1-19 1-2h-2l-3-40-2-42-3-94-3-75-2-98-1-33v-66l5-10 7-7z" fill="#FBBA35"/>
<path transform="translate(983,269)" d="m0 0h48l23 1 9 3 10 9 4 6 1 5-1 96-2 113-27 2h-15l-1-65-1-13-5-1-1 12-3 3-4 2-2 6-5 1-1-1 1-16 2-9 2-4v-2l-4 1v8l-15-1-2-1v-12l4-5 4-1v-3l-15-1-1-1v-6l6-6 1-3-4 1h-2v5l-8 5-2 5h-17l-4-1v97l6-2 2 1 1 6-1 1h-31l1-8h6v-63l1-1h6v-13l-15-15v-3l-13 1-3-8h-5l-3 8-5 1v12l1 9-8 4-2 4h-6l-1-1-2-13-5-3v40l8 3-1 7h-6v6l6 1v32h-73l-13-2-1-1-1 26h115v2l-11 6-14 10-2 1h-88v25h51v12l2 5 2 3-1 1-12 1h-29l-13-1v26h39l-2 4-8 6-18 8-8 4h-3v24h47l7 1 2 5 8 4 23 7 22 3 23 1 1 1v5h-11l-20-2-17-4-85-1v25h122l149 1v19l-1 8h-528l-5-2-3-40-2-42-3-94-3-75-2-98-1-33v-66l5-10 7-7z" fill="#504A6A"/>
<path transform="translate(993,384)" d="m0 0 3 1-3 1-1 4-5 5v6l15 1 1 4-6 3-2 3-1 12 16 1 1-7 4-1 1 3-2 3-3 17v8l5-1 2-6 6-2 1-11 1-3h5l1 1 1 13v65l43-1 1 1v20l-1 2h-98l-1-4-4-1-1 3v9l3 11 3 5h2l2-3h94v-5h1v31l-1-2h-56l-5-1v2l12 2 1 1-1 10-1 11 7 11 11 23 4 14 1 5v10l-5 3-1 3h-18l1-5 1-2-12 4h-2l-2 11 2 20 11 3-1-3v-7h49l1-2 2 3-1 19-2 5h-151l-122-1v-25h85l17 4 31 3-1-5-23-1-22-3-16-5-12-4-5-4v-4h-43l-11-1v-24l10-4 15-7 10-6 4-5h-39v-26h42l12-1-3-4-1-4v-9l1-3h-51v-25l88-1 11-7 10-7 6-2v-2h-115v-26h3l12 2 73 1v-32l-6-1v-6h6v-7l-8-2v-41h3l4 3 2 13h6l3-5 6-2-1-9v-12l6-2 3-8h5l3 6v3l13-1 2 5 6 4 2 4 5 3 1 2v10l-1 3-6 1v61l-1 2h-6l-1 8 31-1v-6l-8 1-1-2v-55l1-40h21l2-5 7-4 1-5z" fill="#FCFCFC"/>
<path transform="translate(983,269)" d="m0 0h48l23 1 9 3 10 9 4 6 1 5-1 96-2 113-27 2h-15l-1-65-1-13-5-1-1 12-3 3-4 2-2 6-5 1-1-1 1-16 2-9 2-4v-2l-4 1v8l-15-1-2-1v-12l4-5 4-1v-3l-15-1-1-1v-6l6-6 1-3-4 1h-2v5l-8 5-2 5h-17l-4-1v97l6-2 2 1 1 6-1 1h-31l1-8h6v-63l1-1h6v-13l-15-15v-3l-13 1-3-8h-5l-3 8-5 1v12l1 9-8 4-2 4h-6l-1-1-2-13-5-3v40l8 3-1 7h-6v6l6 1v32h-73l-13-2-2-1-1-5v-224l-1-2z" fill="#917C76"/>
<path transform="translate(792,842)" d="m0 0h22l19 3 20 7 10 5 11 7 3 2v2l5 2 14 14 9 13 8 16 4 9 3 12 2 14v22l-3 19-3 10-9 19-14 19-7 6-4 5-5 2v2l-10 7-12 6-12 5-19 5-7 1h-25l-19-4-18-6-18-10-15-13-10-11-10-15-7-14-4-12-3-16-1-10v-13l2-17 4-14 4-12 6-9 7-11 9-10 13-13 17-11 11-5 16-5z" fill="#FCFCFC"/>
<path transform="translate(1063,781)" d="m0 0h1v13l16 2 12 5 11 7 11 9 9 10 6 9 8 15 7 20 3 15 1 16-8 20-8 18-7 17-5 12-9 22-1 6 32 48 16 25 15 22 13 19 12 18-1 5-11 11-9 11-7 8-10 8-6 1-9-1-7-3-7-4-6-9-10-18-8-13-10-15-6-12-11-17-5-5-3-1-1-11h-10l-8-4 1-17-3-5-10-5-6 1-5 3-3-3v-2h-2v-6l8-16v-9l-5-12-5-4-2-5-4-1v-2l-5-1-1-15h-8l-4 4-4-2-6-6v-2l-10-5h-7l-8 6-7 7-5-3-8-11-2-1-9-1-1-1v-10l2-1 19-3 15-3 12-3 6-2h3l-2-5v-3l-3 1-18 2-2 1-18 2-10 2h-8l-1-9h-2v-4l21-9 17-8 9-4 12-6 1-9h-2l1-3h3l1-12 4-12 6-10 2-6 3-5 4-4 4-6 10-8 11-8 6-2 9-1 4-2 4 1 3 9 1 9 1 6-1 12h2l5 10 4 3 5 1 1-4 1-2-2-1 3-1 1-6 2-1 2-7 2-4-2-1 3-6-4-1-3 3-5 2 1-5h-4l-2 3-2-7-3-3-1-3-4 1-3-9 3-5 3-1v-6z" fill="#F3C63E"/>
<path transform="translate(804,752)" d="m0 0 6 1 6 9 1 5-6 8-6 6-1 5 3 6 9 9 2 3v6l-4 6-6 5-3 9h13l6 1 1-7 4-23 6-25 3-13 2-5 2-2 5 1v6l-1 1-2 15-1 1-3 26-4 29 8 1 5 2 2-9 7-16 6-15 8-18 5-13h7l1 1v7l-7 19-3 8-8 22-7 20 5 1 7 3 2-5 8-12 7-11h2l2-5 9-12 11-16 2-3h5l1 1v6l-7 10-4 8h-2l-2 6-7 11-1 3h-2l-2 5-6 10-3 4-3 6 2 4 5 3 1-5 2-5h25v-21l4-5 5-3 19-1 1-1 1-9 2-2 5 1 1 1v10l-2 5-2 3-5 1-17 1-3 7-1 18-2 4-3 1-15 1-4 2-2 6 6 8 4-2 15-9 11-7 5-3 13-8 14-9 4-3 2 2 1 6-2 3-9 5-4 3h-2v2l-6 4-11 8-6 4h-2v2l-11 7-6 4h-2l2 5 3 4 1 3 5-1 12-4 10-5 12-4 24-10h3v9l-16 8-23 11-13 6-8 2v4h2l1 9 16-2 8-2 12-1 8-2 15-1 2 4v4l-9 3-21 5-16 3-11 1 1 10 9 1 5 5 7 9 3 1 10-10 5-3h7l7 4 11 11 4-2 2-2h6l2 1-1 6-8 6h-10l-10-10-2-1v-2l-7 1-10 9-3 3h-8l-8-7-5-4v-2h-5v12l-1 6 8 1 17 5 1 1 7 1 9 3 18 4 10 4 1 4-1 2-9-1-15-2-20-4-1-1-16-3v-2h-8l-3-1-4 16 6 2 10 5 15 7 29 14 5 3-1 5h-2v2l-6-1-5-3-11-4-41-17-3-2h-3l-2 6-2 3v3l14 11 5 3v2l4 1 5 5 17 13 10 8 2 2-1 4-7-1-16-11-6-4-5-3v-2l-4-1-2-1v-2h-3v-2h-3v-2h-3v-2h-3v-2l-4-1-4-2v-2h-3v-2l-4 4-1 3h3l1 9-1 15h21l6 7 2 4v17l5 3 6 2 1 5h-14l-6-4-1-3-1-20-25-1v-2h-3l-2-4-1-19-4 2-3 3-3 2v5h2l5 9 4 7 3 3 4 8 8 12 3 5 8 12v2l-4 2h-5l-10-16-6-8v-2h-2l-4-7-9-12-5-7v-2h-2v-3h-4v2h-3v2l-6 1 6 16 8 20 8 21 3 8-1 5-7 1-7-16-3-7-10-22-3-8-4-7v-5l-11 4h-4l6 31 2 7 4 13 5 22v4h-9l-4-18-3-7-6-20-7-24v-4l-12 1 1 10-5 4h-2v2l-6 5v4l8 7 5 6v11l-6 8-6 7 2 6 2 3-1 5-5 1-3-3v-2h-2l-3-6v-7l6-8 5-5v-7l-14-14v-6l3-6h2l2-4 3-7v-3l-15-2-1 10-3 9-5 21-8 32-1 3h-7l-1-5 3-13 4-23 2-6 3-18 2-9v-4l-11-2-8 20-7 17-6 17-6 15-1 4-5-1-3-2 1-8 18-54 3-11 1-4-7-4-3 1-4 8-5 7-1 3h-2l-2 5-14 22-10 16-4 6-4-2-2-3 1-4 7-12 6-12 6-9 3-6 7-13 6-11h2l-2-6-6-5-1 4-4 7h-22l2 11v9l-5 7-7 4-17 1v12h-8v-14l3-5 6-3 12-1 5-1v-25l5-5 13-1 6-3 1-1-1-7-4-4-3-5-2-1-2 5-20 15h-2v2l-4 1v2l-12 9h-2v2l-6 4-6 5h-2v2l-5-1-2-2 1-4 14-11 10-9 11-9 12-11 6-5h2l-1-7-2-6-4-1v2l-32 16-21 10-12 7-5-1v-7l8-5 28-16 25-14 6-4-1-5-1-2h-7l-9 3-23 6-7 2-28 7h-6l-1-1v-5l10-5 27-9 8-2 7-3 7-2 17-5h2l-1-7-4-1v2l-7 1-13-13-4-1-2 5-6 9-2 1h-16l-9-7-3-2h-4l-1 2h-2l-1 3h-5l-1-7 7-7 2-1h8l12 9 6 1 6-7h2l2-5 5-5 9 1 10 8h8l1-1 2-18h-17l-31-3-17-3-9-1-3-2 1-5h27l44 2 7 1 3-14-7-1-7-2-23-7-9-3-30-9v-4l2-4h8l27 7 13 3 16 4 16 5 1-9-9-5-8-5-12-6-12-7-7-3v-2l-9-3-11-6v-6l1-2 7 1 19 10 19 9 28 14 4-1 4-5v-4-2h-6l-1-1 1-22h-23l-6-8-1-3v-17l-10-1-3-2 1-5 2-1h9l7 4 3 7 1 14 2 1 23 1 4 4 1 3v15l3 1 1 4 4-1v-2l11-9h2v-3h-2l-2-5h-2l-4-7-12-16-13-19-8-11 2-4 5 1 8 9 8 10 11 13 11 14 6 8 9-1v-2l4-2-3-9-7-14-5-12-4-8-11-24 1-5 5-1 4 5 11 20 3 7 12 23 7 12 11-2-3-16-2-6-3-12-3-14-6-26v-4h7l4 10 13 43 2 7 3 10v5h9l-1-4v-8l4-3h2v-2l6-4 1-1v-5l-7-6-3-3-1-3v-14l11-11 1-5-4-4 1-5zm-12 90-20 4-17 6-11 6-13 9-19 19-10 15-5 8-6 18-3 15-1 10v13l3 21 3 11 5 13 9 15 11 14 8 8 13 10 16 9 18 6 19 4h25l15-3 17-5 14-7 11-7 3-2v-2l5-2 5-6 7-6 13-18 10-21 4-19 1-8v-22l-3-20-4-12-10-19-10-14-13-13-5-2v-2l-7-5-9-5-13-6-15-5-19-3z" fill="#181013"/>
<path transform="translate(930,303)" d="m0 0 9 1 3 2v5h31l6 2 2 7 5 2 4 5 5 3v5l5 2 3 3v9l-4 4-4 1 1 7v4h-2v3l7-2 2-5 3-1h7l5 3 2 5h2l1-5v-8l1-2 5-1 4 2 1 9v11l5 1v-12l3-3 12 1 3 2 1 4 6 1 1 4-1 13-7 1 1 5 6 1v26h-7l2 7h2l1-2h2v23l-1 9-5 1-1-1-2-13-8-3v-5l-1-1h-5v63h6l1 8h-15l-1-65-1-13-5-1-1 12-3 3-4 2-2 6-5 1-1-1 1-16 2-9 2-4v-2l-4 1v8l-15-1-2-1v-12l4-5 4-1v-3l-15-1-1-1v-6l6-6 1-3-4 1h-2v5l-8 5-2 5h-17l-4-1v97l6-2 2 1 1 6-1 1h-31l1-8h6v-63l1-1h6v-13l-15-15v-3l-13 1-3-8h-5l-3 8-5 1v12l1 9-8 4-2 4h-6l-1-1-2-13-5-3v40l8 3-1 7h-6v6l6 1v32h-24v-17h-6l-1-5 1-2h6v-24l9-1-2-30-6 1-2-3-1-6-3-1-2 14-4 2h-9l-3-2-1-5-5-1-1-4v-3l-7-1-1-1-1-13-7-2v-5l7-3v-22l8-5 7-7 3-5 8-6 4-2 24-1 2 2 1 5 11 1 4 3-1 5 6-1h8l-2-5-4-1-2-7v-14l8-8h2l1-3 7-2h7l-2-6 1-7z" fill="#366E6D"/>
<path transform="translate(532,384)" d="m0 0h257v5l-2 4-1 72-68 1h-183v2h-3z" fill="#E3313D"/>
<path transform="translate(535,557)" d="m0 0h252l-2 9v71l-1 1-170 1h-78l-1-26z" fill="#E4313D"/>
<path transform="translate(1026,988)" d="m0 0 3 1 5 12v9l-8 16-1 6h2l4 4 4-3 6-1 10 5 4 6-1 17 7 3h10l1 1v11l4 1 8 9 12 20 5 10 7 10 13 22 9 16 7 5 6 2 5 2h9l7-4 8-7 9-11 12-13 4-5-1-5-11-16-5-7 1-2 7 9 12 18-1 5-8 8-9 11-12 14-9 11-8 11-4 4-5-2-8-10-15-25-6-12-21-35-8-15-3-4-4 1-4 9-3 6-3 4-12 33-6 12-5 13-8 15-6 16-1 1h-5l-11-8-10-8-10-10-10-8-10-9-8-7 1-5 13-27-5 4-1 3h-2l-2 5-4 5-4 4-13 21-11 14-14 17-9 11-15 15-2-1 8-8 7-8 12-13 15-20 10-15 7-11 8-11 12-21 6-14 6-11 5-11 6-16 9-23 5-15 5-14 4-9 1-7z" fill="#ECD2A1"/>
<path transform="translate(847,306)" d="m0 0h11l14 1h10l12 2 2 4 3 1 4-1 7 1 4-1 2-4 3-2h5l1 8 1 4-12 2-11 9-1 2v16l1 5 5 1 1 5-14 1v-5l-3-2-11-1-3-7-24 1-5 3-8 6-3 5-8 8-5 2v22l-7 3v5l7 2 1 13 7 1 2 8 4 1 2 5 2 1h9l3-1 1-9 2-5 4 1 2 9 6-1 1 3 2 27-1 1h-9l1 24-2 1-5-1v7h6l1 3-1 14h-49l-13-2-2-1-1-5 1-185 4 5 4 1 11-7 12-1 9-2z" fill="#948684"/>
<path transform="translate(963,305)" d="m0 0 4 1 4-1 15 1 12 2 7 3 7 1 6 2 9 1 14 2 14 5 5 2 4 4 5 13 4 6 3 1v-11h1v52l-2 113-10 1h-17l-1-1v-6l-6 1-1-1v-63l1-1h5l2 3v4l7 2 2 4 1 10h4l1-9 1-23h-2l-1 3-3-1-2-7 1-1h6l1-25h-6l-1-1v-5l7-1v-17h-6l-2-5-2-1-14-1v12l-1 2h-5l-1-3v-9l-1-9-8-1v10l-2 6-3-1-2-5-4-2h-10l-1 5-2 2h-6v-3l2-1-2-6 1-5 6-2 1-2v-9l-7-5v-5l-5-2-5-6-4-2-2-7-13-1h-21l-3-1v-3l9-1 11-1z" fill="#948684"/>
<path transform="translate(993,384)" d="m0 0 3 1-3 1-1 4-5 5v6l15 1 1 4-6 3-2 3-1 12 16 1 1-7 4-1 1 3-2 3-3 17v8l5-1 2-6 6-2 1-11 1-3h5l1 1 1 13v65h-69v-7l-8 1-1-2v-55l1-40h21l2-5 7-4 1-5z" fill="#A89E9E"/>
<path transform="translate(1069,724)" d="m0 0h1l-1 13h-528l-5-2v-9h533z" fill="#948684"/>
<path transform="translate(800,399)" d="m0 0 4 2 2 3 2 16 1 4h2v2l6-2 2-11-2-4 1-7h7l1 13 7 1 2 8 4 1 2 5 2 1h9l3-1 1-9 2-5 4 1 2 9 6-1 1 3 2 27-1 1h-9l1 24-2 1-5-1v7h6l1 3-1 14h-49l-13-2-2-1-1-5v-22l1-55z" fill="#A89F9F"/>
<path transform="translate(911,393)" d="m0 0h5l3 6v3l13-1 2 5 6 4 2 4 5 3 1 2v10l-1 3-6 1v61l-1 2h-6l-1 8h-46v-32l-6-1v-6h6v-7l-8-2v-41h3l4 3 2 13h6l3-5 6-2-1-9v-12l6-2z" fill="#A89F9E"/>
<path transform="translate(928,525)" d="m0 0 5 1 23 1v3l-9 3-10 3v4l8 4 9 3 6 3-4 1-13-5h-10l-8 16-5 9h34l3 3 12 2 4 5 5 8v3l-77 1-5 6 2 18h95l7 8 7 9 4 4v2h-64l1 4 4 2 7 6v3h-7l-5-1-1-8-9-10h-8l-1 3h-81l-3 22-4 1-2-1 1-15 2-10 7-8h3l3 7 11 2v-15l5-6 5-4 3-4h2v5l-4 5 15-2v-8l-2-9 8-9h2l2-4 6-8h2l2-5 8-13 11-22-1-9z" fill="#424192"/>
<path transform="translate(1024,1026)" d="m0 0h1v6h2l4 4 4-3 6-1 10 5 4 6-1 17 7 3h10l1 1v11l4 1 3 4h-3l-1 9-12 25-7 14-4 5-6 10-2 3h-2l-1 6-4 6-4 2-3-2 2-6 6-8 1-6h-9l-2-1v-2l-2-1 2-3 7 1 6 2 2-5h2l2-8 4-9 1-4-10-2-11-4-6-2-7 1-7 10-2 5-6 6h-9l-5 1-5-2v-6l4-8 8-20 4-9 10-24 8-16z" fill="#FAD379"/>
<path transform="translate(798,710)" d="m0 0h114l154 1 3 1v10l-2 2-46 1h-179l-43-1-1-1z" fill="#3B3A7F"/>
<path transform="translate(1015,569)" d="m0 0 60 1v22l-14 1h-26l2 9 7 12v3h30v23h-18l2 6 2 19 5-1h7v21h-49l1 10-8-1-4-4-2-20 3-9 11-4h3l-2 7h18l1-4 4-2v-10l-4-16-5-12-10-19-4-6 1-11 1-10-12-3z" fill="#5A536E"/>
<path transform="translate(792,856)" d="m0 0h8l3 2-3 2v18l1 7h26l4-1v10l-1-2h-31l1 73h13l-1-24-7-7h26l-4 4-3 2v57l4 2v2l-20-1 1-2 3-1 1-28h-12l-18-1v30l6 1v1h-23l2-2h4l-1-60-6-2v-2h27l-2 3-5 1-1 2-1 25h11v-73h-32v-6h32l-1-27z" fill="#322B37"/>
<path transform="translate(715,307)" d="m0 0h1v14l-2 14-4 11-8 11-9 8-12 6-12 2h-22l-9-2-10-4-8-6-9-10-6-12-4-16-1-7v-8l3 4 4 10 7 11 11 9 12 6 18 3h14l14-3 12-6 7-6 9-14z" fill="#FCFCFC"/>
<path transform="translate(1058,852)" d="m0 0 21 1 16 4 4 2-1 9-7 15-6 13-7 16-8 16-4-3-3-5v-2l-3-1-4-8-6-8-1-7 8-39z" fill="#E6E5E5"/>
<path transform="translate(662,645)" d="m0 0h3l4 12 3 14 32 1-1 4-14 9-9 7 3 9 5 13 1 6-5-1-13-10-5-4-6 1-14 11-8 4 1-6 6-17 1-7-24-16 1-3h20l11-1 6-21z" fill="#FBFBFB"/>
<path transform="translate(657,473)" d="m0 0 3 1 8 25v2h31l-2 4-12 8-9 7 2 10 5 16v3l-4-1-16-12-3-2-5 1-16 12-6 2 1-6 6-18v-5l-15-11-7-5v-2l30-1 3-10 4-10z" fill="#FCFBFB"/>
<path transform="translate(1075,399)" d="m0 0h1v41l-1 62-10 1h-17l-1-1v-6l-6 1-1-1v-63l1-1h5l2 3v4l7 2 2 4 1 10h4l2-18 1-3 2 1 1 6 2 2 3-4 1-19z" fill="#A89F9F"/>
<path transform="translate(1021,1099)" d="m0 0 5 1 26 8-1 6-6 15h-2l-2 5-6-1-7-1v3 2l4 1v2l5 1-1 5-6 8-4 11-3 3-7-1-16-8-3-4-1-6 3-6h1l2 6 16 9 5 1 1-10-6-4-16-8-11-6-1-5 2-4 3-1h8l5-5 5-10 5-6z" fill="#ECD2A1"/>
<path transform="translate(821,1077)" d="m0 0 2 4 5 1-1 7v6l-2-4v-4l-12 1 1 10-5 4h-2v2l-6 5v4l8 7 5 6v11l-6 8-6 7 2 6 2 3-1 5-5 1-3-3v-2h-2l-3-6v-7l6-8 5-5v-7l-14-14v-6l3-6h2l2-4 3-7v-3l-15-2-1 10-3 9-5 21-8 32-1 3h-7l-1-5 3-13 4-23 2-6 3-18 3-13 3 4 6-1v-6l4-2 14 1 7 3 7-1 2-2 4-1z" fill="#210F0C"/>
<path transform="translate(928,525)" d="m0 0 5 1 23 1v3l-9 3-10 3v4l8 4 9 3 6 3-4 1-13-5h-10l-8 16-5 9h34l3 3 12 2 4 5 5 8v3l-77 1-5 6 1 11-1 7h-4l-2-14-1-4 8-9h2l2-4 6-8h2l2-5 8-13 11-22-1-9z" fill="#3D3C90"/>
<path transform="translate(799,527)" d="m0 0h115v2l-11 6-14 10-2 1h-85l-3-1z" fill="#3C3C92"/>
<path transform="translate(973,521)" d="m0 0 5 1v4l97 1v18l-90 1-3 1-2 3-4-2-4-10-1-5v-9z" fill="#3C3C91"/>
<path transform="translate(532,384)" d="m0 0h257v5l-4 2-249 1v74l-1 2h-3z" fill="#F8F8F8"/>
<path transform="translate(580,1116)" d="m0 0 9 1 7 9 1 10-7 6-15 8-2 4h2v6l10-4 15-10 4-2 9 15 3 4 1 7-5 5-10 7-9 4-1 6-4-4-12-22-3-7-3-5-5-7v-4h2v-2h-3l-7-9 1-5 4-3h7l10 4 1 3h7l3-3-1-5-4-1-2 4-4 1-3-5 1-5z" fill="#251E24"/>
<path transform="translate(535,557)" d="m0 0h252l-2 4-1 1-13 1h-231v76h-4l-1-26z" fill="#F4F3F1"/>
<path transform="translate(1076,591)" d="m0 0 6 2 1 1v13l-1 10-2 2h-3l1 6v14l-2 36-2 6h-1l-1-16h-12l-4-25h18l-1-3 1-20-5 1h-22l-3-1-6-12-3-5-1-5 1-2z" fill="#FCFCFC"/>
<path transform="translate(986,924)" d="m0 0 4 1 4 4 4 7 3 13 2 6-1 3 5-1-1 3-5 3-4 2-8-8v-2l-10-5h-7l-8 6-7 7-5-3-8-11-2-1-9-1-1-1v-10l2-1 19-3 15-3 12-3z" fill="#FBBA37"/>
<path transform="translate(1018,823)" d="m0 0 5 2-1 7-2 8 1 5-1 2v7l2 4-1 5-5 5-10 8-4 5-7 14-4 5-3 3-2 11-2-1v-29l1-9h-2l1-3h3l2-11 4-12h2l2-5 6-10 8-7z" fill="#FAD378"/>
<path transform="translate(790,387)" d="m0 0 2 1-1 82-135 1h-122v-3l1-2 198-1h53v-73z" fill="#150B0C"/>
<path transform="translate(803,459)" d="m0 0 3 3 3 7 3 12 3 1h9l9 1 4 4h5l3-2h12v2h6l1 3-1 14h-49l-13-2-2-1-1-5v-22l2-13z" fill="#B2A49D"/>
<path transform="translate(1066,971)" d="m0 0 4 2 2 3 4 2v3h2l7 8 3 3 3 1-1-16h5l2 6-4 22-3 6-2 11-3 6-2 11-1 1h-12l-2-4v-4h-2v-2h-2v2h-10l-2-3v-12l5-10h10l9 2h12l-14-16-6-8h-3l-2 11-1 3h-2v-7l5-20z" fill="#F1D292"/>
<path transform="translate(960,467)" d="m0 0 3 1 1 14 3 1h7l7-3 10 2h8l5 3 10 2 4 1 2-5 5-1 3 2 3 10v6l-4 2h-2l-2 1-4-2-27 2v1h-28v-7l-8 1-1-7 2-22z" fill="#B2A49D"/>
<path transform="translate(982,885)" d="m0 0h2l1 9v19h4l3 6h-2v5l-2-4-1-4-3 1-18 2-2 1-18 2-10 2h-8l-1-9h-2v-4l21-9 17-8 9-4z" fill="#FABA36"/>
<path transform="translate(756,936)" d="m0 0h11l5 2v60l-4 1h-14l-3-2v-58z" fill="#FDFDFD"/>
<path transform="translate(681,1239)" d="m0 0 9 6 6 5 6 4 2 2v10l-4 8-9 8-4 2h-6l-7-6-5-5-1 6-2 3-2 6-4-1-11-8v-2l8-3 7-9 11-14 4-6z" fill="#1B1419"/>
<path transform="translate(645,1179)" d="m0 0h2l8 11-1 3-22 15-10 8-3 7-4-2-7-8-8-10v-9l5-8 8-5 3-1h11l7 5 2 6h3l2-4 3-3z" fill="#20191F"/>
<path transform="translate(532,1012)" d="m0 0h13l7 6 1 3v8l7-2 4-2 2-3h2l3 10v4l-13 4-12 4h-5v2l-12 4-5 1-3-8-2-7-2-6v-6l2-5 10-6z" fill="#221B20"/>
<path transform="translate(785,560)" d="m0 0h3l1 15-1 67-126 1h-125l-2-3 5-1 74-1 170-1v-73z" fill="#170C0B"/>
<path transform="translate(854,1267)" d="m0 0h5l3 9v4l4-1 3-4 3-1h8l6 4 3 4 1 7h2v12l-5 8-4 2-10 1-2 5-4-1-6-13-10-22-2-5-4-2 1-3z" fill="#1E171D"/>
<path transform="translate(887,459)" d="m0 0h3v2h2l2 6 4 5v2l6 2 2 3 7 2 5 4 10 2 3 4v4h2v9h-46v-32l-6-1v-6h6z" fill="#B3A59F"/>
<path transform="translate(549,955)" d="m0 0 2 1 9 42-4 2-11 1 1-3 6-3v-12l-1-5-18 4 2 4 11 3-2 2-16 4h-8v-2l8-3 1-6-19 3 3 12 5 5 10 5v2h-17l-4-14-6-30h3l1 7 33-8 10-2v-8z" fill="#1E171C"/>
<path transform="translate(821,664)" d="m0 0h25l7 1 2 5 8 4 7 2v2h2v3l-2 1-30 1h-41v-18z" fill="#3E3E91"/>
<path transform="translate(851,933)" d="m0 0 8 1 10 2 5-1-1 10 1 9h-2l-5-10-6-5-4-1h-7l-5 5v7l5 5 14 9 6 4 6 6 2 6-1 7-4 6-6 5-5 2h-13l-9-4-2 2h-3v-21l3 2 3 10 8 7 13 1 1-3h2l2-4v-7l-4-5-14-9-6-4-5-5-3-4-1-3v-7l3-6h2v-2h2v-2z" fill="#1C151A"/>
<path transform="translate(1036,1034)" d="m0 0h6l8 5 3 5-1 11-2 3 1 4 12 5h3l2-3 3 1-2 9-2 5-5-1-38-13h-3v-6l8-19z" fill="#FBFBFB"/>
<path transform="translate(1015,569)" d="m0 0 60 1v22l-14 1h-26l-1 2-1-3-2-2 1-1v-8l-2-4-2 1-1-4-12-3z" fill="#3E3E92"/>
<path transform="translate(799,571)" d="m0 0h51v12l1 7-6 1h-46l-1-4z" fill="#3C3C90"/>
<path transform="translate(675,952)" d="m0 0h1v12l-2 2 2 4v4l-4 1v2l-7 1-13-13-4-1-2 5-6 9-2 1h-16l-9-7-3-2h-4l-1 2h-2l-1 3h-5l-1-7 7-7 2-1h8l12 9 6 1 6-7h2l2-5 5-5 9 1 10 8h8l1-1z" fill="#261615"/>
<path transform="translate(804,752)" d="m0 0 6 1 6 9 1 5-6 8-6 6-1 5 3 6 9 9 2 3v6l-4 6-6 5-2 5v5l-6 1-7-2-1-3v-8l4-3h2v-2l6-4 1-1v-5l-7-6-3-3-1-3v-14l11-11 1-5-4-4 1-5z" fill="#241311"/>
<path transform="translate(708,1044)" d="m0 0h2l3 9 2 1 1-3 1 4h-2l2 5v-2l3 1-5 8h-22l2 11v9l-5 7-7 4-17 1v12h-8v-14l3-5 6-3 12-1 5-1v-25l5-5 13-1 6-3 1-1z" fill="#170E10"/>
<path transform="translate(643,1208)" d="m0 0 9 1 6 5 3 6v9l-5 8-6 5-3 1h-11l-8-7-2-3v-8l4-8 8-7z" fill="#1C151B"/>
<path transform="translate(1044,664)" d="m0 0h28l-1 20h-48l-1-8 1-10 2-1z" fill="#3B3B91"/>
<path transform="translate(904,1038)" d="m0 0 1 3-1 3h3l1 9-1 15h21l6 7 2 4v17l5 3 6 2 1 5h-14l-6-4-1-3-1-20-25-1v-2h-3l-2-4-1-22 4-5h2l2-5z" fill="#241311"/>
<path transform="translate(928,525)" d="m0 0 5 1 23 1v3l-9 3-10 3v4l8 4 9 3 6 3-4 1-13-5h-10l-8 16-5 9h34l2 3h-8v-2l-22 1-9 7-4 5 2 1h-2v4l5 1v1l-17 1-5 6 1 11-1 7h-4l-2-14-1-4 8-9h2l2-4 6-8h2l2-5 8-13 11-22-1-9z" fill="#1F181D"/>
<path transform="translate(820,1292)" d="m0 0h7l5 3 4 6 4 18 3 3-5 5h-7l-4-2-6 5h-7l-4-5 1-8 7-7v-1h-7l-3-2v-6l4-5z" fill="#1E171D"/>
<path transform="translate(677,979)" d="m0 0h1l1 13-1 2 3 1-1 2h-7l-9 3-23 6-7 2-28 7h-6l-1-1v-5l10-5 27-9 8-2 7-3 7-2 17-5h2z" fill="#271614"/>
<path transform="translate(749,1076)" d="m0 0 7 2 2 3 7-2 2 2-3 1h-3l-8 20-7 17-6 17-6 15-1 4-5-1-3-2 1-8 18-54 3-11z" fill="#1B1215"/>
<path transform="translate(1087,1095)" d="m0 0h3l6 10 5 10 7 10 13 22 9 16 7 5 6 2 5 2h9l7-4 8-7 9-11 12-13 4-5-1-5-11-16-5-7 1-2 7 9 12 18-1 5-8 8-9 11-12 14-9 11-8 11-4 4-5-2-8-10-15-25-6-12-21-35z" fill="#EED299"/>
<path transform="translate(944,949)" d="m0 0 4 5 6 7 3 1 10-10 5-3h7l7 4 11 11 4-2 2-2h6l2 1-1 6-8 6h-10l-10-10-2-1v-2l-7 1-10 9-3 3h-8l-8-7-5-4v-2h-5v12h-1v-13l4-4 4 3 2-4z" fill="#261615"/>
<path transform="translate(877,767)" d="m0 0h7l1 1v7l-7 19-3 8-8 22-7 19-9-3-2-1 1-7 6-15 4-8 4-11 8-18z" fill="#271614"/>
<path transform="translate(680 1e3)" d="m0 0 4 2v2h2l3 5v2h-4v2l-32 16-21 10-12 7-5-1v-7l8-5 28-16 25-14z" fill="#271614"/>
<path transform="translate(842,1075)" d="m0 0 10 3-4 2-7 3h-4l6 31 2 7 4 13 5 22v4h-9l-4-18-3-7-6-20-5-17v-9h2l1-4 4 1 3-9z" fill="#1D1316"/>
<path transform="translate(992,1123)" d="m0 0 9 1 16 9 20 8-1 5-6 8-4 11-3 3-7-1-16-8-3-4-1-6 3-6h1l2 6 16 9 5 1 1-10-6-4-16-8-11-6-1-5z" fill="#FBFBFB"/>
<path transform="translate(765,934)" d="m0 0h27l-2 3-5 1-1 2-1 25h11l-3 3h-8v30l6 1v1h-23l2-2h4l-1-60-6-2z" fill="#211A1D"/>
<path transform="translate(726,1067)" d="m0 0 6 2 1-2 3 1v2l3 1-5 9-5 7-1 3h-2l-2 5-14 22-10 16-4 6-4-2-2-3 1-4 7-12 6-12 6-9 3-6 7-13z" fill="#181012"/>
<path transform="translate(769,1291)" d="m0 0h9l7 3 2 2 1 5v8l-4 14 4 2-2 4h-9l-3-4-11 1-5-3-1-2v-6l4-5 7-3 7-1 3-5v-4h-6l-1 7-1 1h-6l-3-3v-5l5-5z" fill="#1F181E"/>
<path transform="translate(915,784)" d="m0 0h5l1 1v6l-7 10-4 8h-2l-2 6-7 11-1 3h-2l-2 5-6 10-3 4-4 7-6-1-2-2-4-2v-2h3l2-5 8-12 7-11h2l2-5 9-12 11-16z" fill="#231110"/>
<path transform="translate(558,1047)" d="m0 0 3 1 3 8-1 4-13 5-9 3h-4l2 9 25-10h4l1 12-16 4-13 6h-4l-3-14-3-5v-8l3-3 23-9z" fill="#1E171C"/>
<path transform="translate(805,934)" d="m0 0h26l-4 4-3 2v57l4 2v2l-20-1 1-2 3-1 1-28h-12l-2-3v-8h1v7h13l-1-24-4-4z" fill="#181115"/>
<path transform="translate(607,888)" d="m0 0h8l27 7 13 3 16 4 11 3v4l-4 1-6-1 3 3v2l-2 1-9-1-20-6-9-3-30-9v-4z" fill="#1E1417"/>
<path transform="translate(600,929)" d="m0 0h27l44 2 7 1 1-2-2 8v5h-18l-31-3-17-3-9-1-3-2z" fill="#241310"/>
<path transform="translate(712,1267)" d="m0 0h7l11 6 4 6-1 5-10 16-1 4 1 4-7-1-8-8-5-1-6-4v-7l5-5h11l5 1 5-2 1-7-1-1h-7l-1 5h-5l-2-2 1-6z" fill="#1A1318"/>
<path transform="translate(982,875)" d="m0 0h3v9l-16 8-23 11-13 6-9 2-3-5v-5l-2-1 12-4 15-7 12-4 12-5z" fill="#261513"/>
<path transform="translate(732,934)" d="m0 0h30l-2 2-8 3v58l4 3h-23l1-2 6-1 1-59-6-1z" fill="#160F13"/>
<path transform="translate(861,1075)" d="m0 0 2 1 8 20 13 34 3 8-1 5-7 1-7-16-3-7-10-22-3-8-4-7v-5l4-3 4 1z" fill="#2A1917"/>
<path transform="translate(842,756)" d="m0 0 5 1v6l-1 1-2 15-1 1-3 26-4 29-5-2v-2l-5-1-2 1 1-7 4-23 6-25 3-13 2-5z" fill="#2A1917"/>
<path transform="translate(970,837)" d="m0 0 3 2 1 6-2 3-9 5-4 3h-2v2l-6 4-11 8-6 4h-2v2l-11 7-8 5-2-3v-4l-3 1 1-6 15-9 11-7 5-3 13-8 14-9z" fill="#251413"/>
<path transform="translate(883,1055)" d="m0 0 7 1-5 4v5h2l5 9 4 7 3 3 4 8 8 12 3 5 8 12v2l-4 2h-5l-10-16-6-8v-2h-2l-4-7-9-12-5-7v-2h-2v-3h-3l1-3 8 1 1-10z" fill="#221210"/>
<path transform="translate(932,973)" d="m0 0h1v5l8 1 17 5 1 1 7 1 9 3 18 4 10 4 1 4-1 2-9-1-15-2-20-4-1-1-16-3v-2h-8l-3-1-1 2 1-6 2-5-1-1z" fill="#291817"/>
<path transform="translate(692,1023)" d="m0 0 2 1v6l3 3 2 4-5 5-17 13h-2v2l-4 1v2l-12 9h-2v2l-6 4-6 5h-2v2l-5-1-2-2 1-4 14-11 10-9 11-9 12-11 6-5h2z" fill="#180F12"/>
<path transform="translate(935,1228)" d="m0 0 9 1 9 4-2 4-8 8 1 5 2 1h9l1-2 1-11 2 1 2 8v6l-7 8-4 2h-9l-8-7-5-9v-11l5-7z" fill="#20191F"/>
<path transform="translate(914,1026)" d="m0 0 7 6 12 9 2 1v2l4 1 5 5 17 13 10 8 2 2-1 4-7-1-16-11-6-4-5-3v-2l-4-1-2-1v-2h-3v-2h-3v-2h-3v-2h-3v-2l-4-1-4-2v-2h-3l-1-3 2-4 3-2z" fill="#241312"/>
<path transform="translate(984,916)" d="m0 0h3l2 4v4l-9 3-21 5-16 3-9 1-3 1-3-9-1-2v-6l1 4 16-2 8-2 12-1 8-2z" fill="#251411"/>
<path transform="translate(609,1154)" d="m0 0 4 5 3 4 1 7-5 5-10 7-9 4-1 6-4-4-8-16 3-1v-2l15-8 6-3h5z" fill="#221B21"/>
<path transform="translate(962,1198)" d="m0 0h2l5 21 5 13 3-3 1-2v-12l5 2 4 4-2 4-2 3h-2l-2 5-3 1-1 3h-2l-1 4-4 4h-3l-5-16-5-14v-2l-5 5-1 4 2 2-1 4-3-2v-2l-5-1 2-4 6-8 5-5z" fill="#1F181D"/>
<path transform="translate(1069,724)" d="m0 0h1l-1 13h-428v-1l427-2z" fill="#B2A49D"/>
<path transform="translate(976,1180)" d="m0 0h9l10 6 5 4 4 1 1-3h2l1 5-3 5-3 4h-2l-3 9-6 7-7-4-3-3v-8l2-4h3l3 5 4-2-3-5-6-3v-2l-4-1-1-2-7-1v2l-4 1 1-5z" fill="#1E171C"/>
<path transform="translate(566,1022)" d="m0 0h2l3 10v4l-13 4-12 4h-5v2l-12 4-5 1-3-8 1-5 10-3h6v-2l11-2-1-8h3l2 5h6l5-3z" fill="#1E161C"/>
<path transform="translate(907,1235)" d="m0 0 5 1 4 5 5 5 4 6 7 8 4 5v2l6 2v4l-11 8-3-3-3-6-13-18-7-9-7-3 3-3z" fill="#1B1418"/>
<path transform="translate(906,1248)" d="m0 0 4 2 14 19 4 7v8l-3 3h-4v-8l-1-4-1 7-5 4-7-1-7-7-4-6v-7l4-1 3 1 2 6-2 3 6-1 5-4-1-4-6-4-11-1 1-2 3-1 3-6z" fill="#F6F6F5"/>
<path transform="translate(797,1104)" d="m0 0 4 1v8l8 7 5 6v11l-6 8-6 7 2 6 2 3-1 5-5 1-3-3v-2h-2l-3-6v-7l6-8 6-6 1-7-12-14 1-7z" fill="#160D0F"/>
<path transform="translate(896,1260)" d="m0 0h11l8 6-1 4-7 5h-5l2-6-1-4h-6v7l7 9 5 4 7-1 2-2 1-7 2-1 1 10-6 8-6 3h-7l-8-6-6-10-1-9 5-8z" fill="#231C23"/>
<path transform="translate(645,1179)" d="m0 0h2l8 11-1 3-22 15-10 8-3 7-4-2-6-7v-4l7-4 14-11 4-2v-2h5l2-4 3-3z" fill="#191217"/>
<path transform="translate(772,1102)" d="m0 0 5 2 1 2v8l-5 21-6 24-1 3h-7l-1-5 3-13 4-23 2-6 1-8z" fill="#1D1417"/>
<path transform="translate(1058,849)" d="m0 0 17 1 21 5 5 2 1 1-1 8-13 29-7 14-11 24-3 2-3-2-4-10-8-13-4-5-1-2v-11l7-31 2-10zm0 3-8 36-1 11 10 15 2 4h2l2 4 3 5 2 1 8-16 7-16 7-15 7-16v-6l-11-4-9-2z" fill="#F0D296"/>
<path transform="translate(561,1088)" d="m0 0h12l6 4 3 7v7l-4 5h-6l-1-7 5-4 1-5h-6l-10 6-5 4-1 7 6 6v2l-5-1-6-4-4-5-1-7 3-7 7-6z" fill="#1E171D"/>
<path transform="translate(798,618)" d="m0 0h40l-2 4-8 6-18 8-5 3h-6z" fill="#3D3D91"/>
<path transform="translate(1026,988)" d="m0 0 3 1 5 12v9l-8 16h-2l-3 9-6 10-11 25-6 16-2 1 1-5 10-25 9-20 3-4 11-23 1-10-6 10-3 6-6 11-2 7-5 10-8 21-5 14-4 3 1-5 10-25 8-21 6-17 6-16 2-9z" fill="#EED29A"/>
<path transform="translate(1036,1034)" d="m0 0h6l8 5 3 5-1 11-3 6-20-7h-5l1-5 5-10z" fill="#F7F7F7"/>
<path transform="translate(737,1282)" d="m0 0 5 1 5 3 12 1 3 2-1 4-3 4-5-1-4-4-4 6-4 10-1 1v6l1 3-8-1-9-3 5-6z" fill="#1B1418"/>
<path transform="translate(1066,971)" d="m0 0 4 2 2 3 4 2v3h2l7 8 3 3 3 1-1-16h5l2 6-4 22-4 2-17-17-4-5h-3l-2 11-1 3h-2v-7l5-20z" fill="#FAF9F9"/>
<path transform="translate(1044,617)" d="m0 0h30v20l-1 1h-18l-4-6v-4h-3z" fill="#404090"/>
<path transform="translate(953,1213)" d="m0 0h2l8 21 2 11-2 2-2 3-3-11-1 10-2 3h-9l-4-4 1-4 9-9v-2l-12-5-2-3 9-1 3 3-2-8z" fill="#F4F3F3"/>
<path transform="translate(966,1199)" d="m0 0 3 3 1 2h6l2-5h3l1 12 8 6 5-5 5-10 4-1v4l-3 6-6 8-1 3-6 3-5 4 2-5v-4l-7-5 1 4v8l-4 6-3-3-4-11-3-13z" fill="#E7E6E6"/>
<path transform="translate(1068,737)" d="m0 0 2 1-2 35-1 17 19 5 16 9 11 9 10 10 7 10 8 15 6 15 4 18 1 8v14l-2 2v-11l-3-18-5-17-7-16-7-12-11-13-12-10-14-8-12-4-10-1-2-1v-13z" fill="#EED29A"/>
<path transform="translate(1029 1e3)" d="m0 0h2v10l-21 42-10 25-5 11-5 10-4 11-3 4 1-8 3-5 6-17 5-13 4-10 9-23 3-4 2-8 5-9 7-13z" fill="#E6E5E5"/>
<path transform="translate(1058,1008)" d="m0 0h7l11 3 11 1 1 3-2 8-4 2-5-3-12-2-3-2-6 1v3l7 3-1 7h-8l-2-3v-12l4-8z" fill="#FBFAFA"/>
<path transform="translate(878,608)" d="m0 0h2v5l-5 6-3 3-1 13-1 2 4 1v1h-27l-3 22-4 1-2-1 1-15 2-10 7-8h3l3 7 11 2v-15l5-6 5-4z" fill="#504961"/>
<path transform="translate(540,639)" d="m0 0h12v2l79-1h59l92 1v1l-120 1h-125l-2-3z" fill="#120B0C"/>
<path transform="translate(621,853)" d="m0 0 7 1 12 6-2 1v4l2 1v2l4 1 7 4 8 1 5 5 2 1v2h8l2 4 2 1v3l3-1 2-2 5 4-1 3 4 1-1 6-4-4-7-4-8-5-12-6-12-7-7-3v-2l-9-3-11-6v-6z" fill="#2A1918"/>
<path transform="translate(605,960)" d="m0 0h8l12 9 6 1 5-1 2 2v5l-2 3h-14l-9-7-3-2h-4l-1 2h-2l-1 3h-5l-1-7 7-7z" fill="#251413"/>
<path transform="translate(784,1087)" d="m0 0h9l7 2-1 6-5 8h-2l-2 6v6l2 3h-11l-4-2 4-18 2-5z" fill="#EFB43B"/>
<path transform="translate(1146,905)" d="m0 0 1 4-15 35-12 31-4 10-1 5 2-1 5-9 1 3-4 11-1 8 6 12 10 15 5 7 6 11 1 4-4-4-10-16-7-10-16-24 2-8 9-23 11-26 10-22z" fill="#EDD29D"/>
<path transform="translate(602,1144)" d="m0 0h2l5 8v6l-6 2-17 8-3 1v2l-3 1-6-9v-2l10-4 10-7z" fill="#191216"/>
<path transform="translate(919,569)" d="m0 0 1 2h34l2 3h-8v-2l-22 1-9 7-4 5 2 1h-2v4l5 1v1l-17 1-5 6 1 11-1 7h-4l-2-14-1-4 8-9h2l2-4 6-8 1 2 6-4 2-3h2z" fill="#403E7B"/>
<path transform="translate(922,1069)" d="m0 0 8 1 6 9v17l5 3 6 2 1 5h-14l-6-4-1-3-1-16-3-9z" fill="#1D1519"/>
<path transform="translate(614,638)" d="m0 0h169v1l-93 1-59 1h-79v-2z" fill="#342733"/>
<path transform="translate(1029,576)" d="m0 0 3 3 1 2v8 2l3 9 8 14 4 12 3 7v6l-5-1-6-16-10-20-5-7 1-11 2-6z" fill="#231C22"/>
<path transform="translate(892,851)" d="m0 0h24l2 4 5-1 2-1-1 5-1 2-3 1-15 1-4 2-3 5-5-2-4-4 1-7z" fill="#261514"/>
<path transform="translate(915,784)" d="m0 0h5l1 1v6l-7 10-4 8h-2l-2 6-2 4-4 2-2 3-4-1-1-4 4-9 12-17z" fill="#170E10"/>
<path transform="translate(726,1067)" d="m0 0 6 2 1-2 3 1v2l3 1-5 9-5 7-1 3h-2l-2 5-7 11-1-3 5-8v-2l-4 1-5 1 1-4 7-13z" fill="#251312"/>
<path transform="translate(636,894)" d="m0 0 19 4 16 4 11 3v4l-4 1-6-1 3 3v2l-2 1-9-1-10-4-1-3 2-1-7-3-5-1 1-3h-6z" fill="#251311"/>
<path transform="translate(686,792)" d="m0 0 5 1 8 9 8 10 11 13 1 4-5-2-3-2-1 2 1 5-5-5-12-17-10-14z" fill="#231211"/>
<path transform="translate(1049,628)" d="m0 0h2l3 7 1 2 19 1v2h-18l2 6 2 19h-19l2-1 1-4 4-2v-10l-1-10h3z" fill="#534D69"/>
<path transform="translate(1044,857)" d="m0 0h2 1l3 1 4 3-2 6h-2l-1 7-3 3-1 8h-2v3l-5 2-2-2v-6l1-1-2-8v-4h-2v-5h7l1-4 3-1z" fill="#FCBB35"/>
<path transform="translate(999,1143)" d="m0 0h1l2 6 16 9 5 1 1-10-1-2 4 2 4 3-5 13-3 3-7-1-16-8-3-4-1-6z" fill="#F9F9F9"/>
<path transform="translate(1129,1163)" d="m0 0 9 5 10 4h9l7-4 4-4 2 1-10 11-8 11-6 1-5-4-7-11-5-8z" fill="#FBD478"/>
<path transform="translate(1023,1100)" d="m0 0 11 2 18 6-1 6-2 4-7-1-11-5-7-3-8-1 1-5z" fill="#F9F9F9"/>
<path transform="translate(793,1009)" d="m0 0h16l-1 3-2 1-2 39-1 11-2-1-5-43-2-8z" fill="#4B445B"/>
<path transform="translate(665,1014)" d="m0 0 1 4v2l-8 4-18 10-7 6-6 3h-2l-2 6-3 2-5-1v-7l8-5 28-16z" fill="#191012"/>
<path transform="translate(1015,569)" d="m0 0 56 1v1l-18 1-4 2h-3l-1 2-4-1 1 5-3 11h8v1l-5 1h-7l-1 2-1-3-2-2 1-1v-8l-2-4-2 1-1-4-12-3z" fill="#46447F"/>
<path transform="translate(812,1088)" d="m0 0 2 4v6l-5 4h-2v2l-6 4-1-3-4 1-2 3 1 7 5 5v2l3 1 3 4-1 7h-1l-2-7-13-13v-6l3-6h2l2-4 3-7 9-1 1-2z" fill="#261513"/>
<path transform="translate(799,710)" d="m0 0h113l-1 2h-51l-2 1h-14l-3 1-10 1-3 1v-2l-4 2-5-1-8-1-1 2-7-1-4-2z" fill="#3B3B92"/>
<path transform="translate(656,815)" d="m0 0h9l7 4 3 7 1 17h-5l-5-2v-17l-10-1-3-2 1-5z" fill="#1C1316"/>
<path transform="translate(779,1010)" d="m0 0 4 1v4h-2l7 25 6 17 1 6-3-3-8-16-7-16-3-7-5-2-1-4 4-3z" fill="#2A222A"/>
<path transform="translate(785,937)" d="m0 0h8l1 1v27h-11v-25z" fill="#FBFBFB"/>
<path transform="translate(979,676)" d="m0 0h10l11 5 1 3h-11v7l-3 8h-5l-5-5z" fill="#524B67"/>
<path transform="translate(795,894)" d="m0 0h1l1 4 2-2 1 70 8 1v1h-17l3-3z" fill="#120B0D"/>
<path transform="translate(877,767)" d="m0 0h7l1 1v7l-7 19-6 4h-4v-9l4-9z" fill="#170F11"/>
<path transform="translate(819,1010)" d="m0 0 9 1 8 4-1 5h-6l-8 16-7 16-5 9-1-3 3-8 5-15 6-19-3-3z" fill="#292229"/>
<path transform="translate(775,1306)" d="m0 0 2 1-1 10-2 5v3l-11 1-5-3-1-2v-6l4-5 7-3z" fill="#261E25"/>
<path transform="translate(911,393)" d="m0 0h5l3 6v3h6l-3 3v4l2 1-4 6-8-2v-2l-5-2v-3h-3v12l-2-4v-12l6-2z" fill="#948685"/>
<path transform="translate(708,1044)" d="m0 0h2l3 9 2 1 1-3 1 4h-2l2 5v-2l3 1-5 8h-22l1-3 2-2v-2l-7-2v-1l13-1 6-3 1-1z" fill="#241211"/>
<path transform="translate(897,1264)" d="m0 0 6 1 2 6-2 3 6-1 5-4v-4l3 1v6l2 3v7l-5 4-7-1-7-7-4-6v-7z" fill="#E5E4E4"/>
<path transform="translate(949,809)" d="m0 0 5 1 1 1v10l-2 5-2 3-5 1-17 1-2 2 1-4 2-1v-5l-4-1 19-1 1-1 1-9z" fill="#22100D"/>
<path transform="translate(869,1281)" d="m0 0h5l6 9 4 10v7l-1 1-7-1-10-19v-5z" fill="#FAF9F9"/>
<path transform="translate(842,756)" d="m0 0 5 1v6l-1 1-2 15-1 1-2 10-2 2-4-1h-3l2-11 2-6 3-15z" fill="#201619"/>
<path transform="translate(1041,467)" d="m0 0 2 3 1 4 7 12 4 4 3 1 1 6-1 2-8 3h-3v-6l-6 1z" fill="#B2A59E"/>
<path transform="translate(718,465)" d="m0 0h68l-1 2-24 1h-97v-2z" fill="#291A1D"/>
<path transform="translate(935,1228)" d="m0 0 9 1 9 4-2 4-8 8 1 5 2 2-4-1-3-2v-2l-5-3-2-10-3 2 2-5z" fill="#2E2731"/>
<path transform="translate(951,1016)" d="m0 0 9 4 25 12 7 4-1 5h-2v2l-6-1-5-3-11-4v-3l1-4-3-1-1-2-6-3-4-1v-2l-3-1z" fill="#2E1D1D"/>
<path transform="translate(624,1187)" d="m0 0 7 1 2 2-1 4-8 7-11 8h-3l-2-10 5-5z" fill="#E2E0E0"/>
<path transform="translate(702,1282)" d="m0 0h11l7 1-7 12-1 7-4-3-5-1-6-4v-7z" fill="#292128"/>
<path transform="translate(970,837)" d="m0 0 3 2 1 6-2 3-9 5-6 4-10 4-6-1 2-5 10-6 14-9z" fill="#1A1113"/>
<path transform="translate(688,1252)" d="m0 0 5 1 2 2v6l-4 5-6 8-3 3-4-1-3-4 1-5 9-12z" fill="#E4E3E3"/>
<path transform="translate(972,1188)" d="m0 0h7l2 3 3 1 1 2 6 3 3 5-1 2-4 1-4-6-2 1-2 3v-4h-3l-2 5-6 1-3-5v-10h5z" fill="#27202A"/>
<path transform="translate(927,1235)" d="m0 0h1l1 12 6 10 8 6 5 2 1 2h-2v2l-5 1-6-3-10-13-5-6-4-6 2-5 4-1h3z" fill="#F2F1F1"/>
<path transform="translate(648,1215)" d="m0 0h6l1 1v6l-2 3h-2l-2 4-11 9-6-1v-7l12-12z" fill="#E3E1E1"/>
<path transform="translate(944,683)" d="m0 0h20l2 7h-8l-3-1 1 5v8l-5 1-7-4 1-10-1-1z" fill="#58526D"/>
<path transform="translate(667,1089)" d="m0 0h11l-1 2 1 5h7l-2 2-17 1v12h-8v-14l3-5z" fill="#130B0D"/>
<path transform="translate(884,1267)" d="m0 0h4l2 12 6 10 12 8-8 4-8 2-1 2 1-16h-2l-3-8-5-5-2-1-9-1v-1l7-1v-3z" fill="#F4F3F3"/>
<path transform="translate(542,1022)" d="m0 0h5l2 3v6l-7 2h-4v2l-8 2h-5l-1-1v-8l9-4z" fill="#E3E1E1"/>
<path transform="translate(790,387)" d="m0 0 2 1v12h-2v18l-1 8v24l1 11-2 4h-2v-73z" fill="#1C0C09"/>
<path transform="translate(896,610)" d="m0 0h1l1 8-5 3-8-2v2l-5 2-4 5h-2l1 6-1 2 13 1h41v2h-54l-4-2v-9l1-7 4-3 17-2 4 1z" fill="#3C3B7D"/>
<path transform="translate(692,1023)" d="m0 0 2 1v6l3 3 2 4-5 5-17 13h-2v2h-2l2-4 5-5v-6-3l7-6 3-3h2z" fill="#251413"/>
<path transform="translate(884,682)" d="m0 0h8l16 2 23 1 1 1v5h-11l-20-2-17-4z" fill="#2C252D"/>
<path transform="translate(894,1052)" d="m0 0 2 1 1 19 1 4h3l-1 7 1 3h-2l-1-4-3-1-5-9-3-4v-3h-2l-1-5 4-3h2l2-4z" fill="#EDC044"/>
<path transform="translate(603,1159)" d="m0 0h5l1 5-4 2v2l-17 8-5-1-1-4 4-4z" fill="#E4E2E2"/>
<path transform="translate(702,844)" d="m0 0h2l2 5v15l3 1 1 5-4-1 2 5-4 4-2-1v-2h-6l-1-1 1-22h1v11l5-2 1-2v-12z" fill="#261614"/>
<path transform="translate(955,1231)" d="m0 0h3l1 8h-1l-1 10-2 3h-9l-4-4 1-4 9-9z" fill="#E3E2E2"/>
<path transform="translate(1049,889)" d="m0 0h1v10l10 15 1 3 5 5 3 5 4-4-1 6-4 6-4-2-4-10-8-13-4-5-1-2v-11z" fill="#EFD299"/>
<path transform="translate(629,933)" d="m0 0 15 2 15 1 2 2-4 1v2l10 1v1l-21-1-18-2-4-2 3-2v-2z" fill="#21181B"/>
<path transform="translate(717,1224)" d="m0 0 4 2 16 11 9 5 16 9 9 4 19 5 12 1 12-2h5l-4 2-8 2h-15l-23-6-15-6-11-7-15-10-10-8z" fill="#EFD297"/>
<path transform="translate(962,1136)" d="m0 0h2l-2 5-13 20-10 13-14 17-9 11-15 15-2-1 8-8 7-8 12-13 15-20 10-15 7-11z" fill="#EFD298"/>
<path transform="translate(892,839)" d="m0 0h2v2h2v2h2l-1 5 5 2v1h-10l-1 5-2 5-5-2-3-3 2-5 3-6 5-5z" fill="#E8BD46"/>
<path transform="translate(1068,737)" d="m0 0 2 1-2 35-1 17 19 5 6 4-4 1-12-4-10-1-2-1v-13z" fill="#F0D296"/>
<path transform="translate(978,990)" d="m0 0 15 3 10 4 1 4-1 2-9-1-5-1v-2l-13-3v-3l-3-1v-1z" fill="#191011"/>
<path transform="translate(1032,1045)" d="m0 0 13 1 2 3v9h-7l-12-5v-5h2v-2z" fill="#F9D37C"/>
<path transform="translate(984,1198)" d="m0 0 3 2 2 6 2-1h6l1 4-7 9-7-4-3-3v-8l2-4z" fill="#1C151A"/>
<path transform="translate(808,1142)" d="m0 0v3l-6 7 2 6 2 3-1 5-5 1-3-3v-2h-2l-3-6v-7l3-3v2l6 1z" fill="#251515"/>
<path transform="translate(922,1010)" d="m0 0 4 1 4 2h3v2l9 4 5 3 1-3 1 4h2v3h7l6 5v2l-9-3-29-12-2-2v-3h-2z" fill="#2C1B19"/>
<path transform="translate(562,1124)" d="m0 0h7l8 3 1 4-10 2v6l-3 1v-2h-4l-4-6 1-5z" fill="#1B141A"/>
<path transform="translate(718,1272)" d="m0 0h5l2 2-1 5-4 4-3 1-4-1h-14l1-7h2v-2l5-1v3l8 1 1-4z" fill="#E0DEDE"/>
<path transform="translate(1039,1071)" d="m0 0 10 3 10 4 1 4 2 1-3 1-2-1h-9l-10-3-5-6 2-2z" fill="#F3C73E"/>
<path transform="translate(552,964)" d="m0 0h1l6 30 1 4-4 2-11 1 1-3 6-3v-12l-1-5-14 3-4-1 17-5h2z" fill="#48404C"/>
<path transform="translate(804,752)" d="m0 0 6 1 6 9 1 5-3 5h-7l-1-4v-6l-4-4 1-5z" fill="#1C1417"/>
<path transform="translate(877,527)" d="m0 0h13l2 2-4 3-5-2-3 1h-42l-6-2v2l-18-2v-1z" fill="#3B3A7D"/>
<path transform="translate(1054,714)" d="m0 0 9 2 1 3h-2l-1 2h-3l-18-1-9 1-9-3 4-2 1-1h15l5 2v-2z" fill="#3C3C93"/>
<path transform="translate(870,677)" d="m0 0 9 2 7 2-2 1v2h-84l3-2h37l32-1v-3z" fill="#3B3A7E"/>
<path transform="translate(928,525)" d="m0 0 5 1 23 1v3l-9 3-10 3-1 2-2-2v-4h-4z" fill="#3E3D8D"/>
<path transform="translate(749,1076)" d="m0 0 7 2 2 3 7-2 2 2-3 1h-3l-7 18-2-3-1-10-5-1 1-7z" fill="#281716"/>
<path transform="translate(982,875)" d="m0 0h3v9l-9 5-7-1-3-2 1-5 14-5z" fill="#201619"/>
<path transform="translate(907,581)" d="m0 0 1 2-2 3h-2l-2 6-6 7 1 11-1 7h-4l-2-14-1-4 8-9h2l2-4z" fill="#1E171C"/>
<path transform="translate(1029,1117)" d="m0 0 5 1 2 4 9-1-1 8-3 4-5-1-6-5-1-3z" fill="#F7F7F7"/>
<path transform="translate(878,608)" d="m0 0h2v5l-5 6-3 3-1 13-1 2 4 1v1h-10l1-2 1-17 9-8z" fill="#433C55"/>
<path transform="translate(835,977)" d="m0 0 3 2 3 10 8 7 11 1 2 3h-13l-9-4-2 2h-3z" fill="#261F28"/>
<path transform="translate(813,941)" d="m0 0h1l1 7h1l1 10-2 7-1 3 1 20h1v7l5-1-1 4-7-1v-28h-12l-2-3v-8h1v7h13z" fill="#6C6477"/>
<path transform="translate(536,582)" d="m0 0 3 1 1 41v15h-4z" fill="#FEFEFE"/>
<path transform="translate(506,986)" d="m0 0 4 2 4 13 7 5 7 3v2h-17l-4-14z" fill="#1D161D"/>
<path transform="translate(1066,1024)" d="m0 0 4 1 3 5 5-1 4-1 1 4-2 7h-10l-3-3-2-7z" fill="#F8F8F8"/>
<path transform="translate(887,540)" d="m0 0 5 1-1 3-4 2h-73v-1l17-1 52-1z" fill="#5E587C"/>
<path transform="translate(972,523)" d="m0 0h5l1 11 3 10v5h-4l-3-5-3-11v-9z" fill="#1E171D"/>
<path transform="translate(693,842)" d="m0 0h8l3 5v12l-4 4h-3l-1-11-1-1v-7h-2z" fill="#130C0E"/>
<path transform="translate(842,1075)" d="m0 0 10 3-4 2-7 3h-4l3 15v4h-2l-3-9-7-3 2-5 4 1 3-9z" fill="#2B1A18"/>
<path transform="translate(643,956)" d="m0 0h1v7h6l-2 1-2 5-6 9-4 1 1-8-4-3 4-5h2l2-5z" fill="#281718"/>
<path transform="translate(1e3 960)" d="m0 0h6l2 1-1 6-6 5h-11l-2-4 5-2h3l2-4z" fill="#130B0D"/>
<path transform="translate(1e3 1055)" d="m0 0 1 2-8 20-4 9-8 15-4 9-3 6-1-3 3-7 4-10 8-16 6-13z" fill="#F3C73E"/>
<path transform="translate(905,1107)" d="m0 0 4 1v2l4 2 6 4 3 5v2l-4 2h-5l-7-11z" fill="#160E10"/>
<path transform="translate(851,933)" d="m0 0 8 1 10 2 5-1-1 10 1 9h-2l-5-10-6-5-10-2 2-2z" fill="#37303B"/>
<path transform="translate(973,521)" d="m0 0 5 1v4l18 1v1h-12l-2 5 1 5 2 4 2 1 15 1v1l-17 1-4 1-4-13-1-10-3-1z" fill="#4B4774"/>
<path transform="translate(530,981)" d="m0 0 3 1 2 4 11 3-2 2-16 4h-8v-2l8-3 1-6h-5l2-2z" fill="#3F3740"/>
<path transform="translate(621,853)" d="m0 0 7 1 12 6-2 1v2l-7 2-4-1-6-2-1-1v-6z" fill="#1F161A"/>
<path transform="translate(784,561)" d="m0 0 1 3v73l-2 1v-74l-12-1v-1z" fill="#5E556C"/>
<path transform="translate(1049,628)" d="m0 0h2l3 7 1 2 19 1v2h-18l1 6-3 1-1-5h-2l-1 12h-1l-2-11v-5h3z" fill="#5A546F"/>
<path transform="translate(1e3 1201)" d="m0 0 3 1-2 6-8 11-1 3-6 3-5 4 2-5v-4-3l3-1 3 1 6-8 3-7z" fill="#F4F3F3"/>
<path transform="translate(799,522)" d="m0 0 1 4 118-1v3l-119-1z" fill="#E4E3E3"/>
<path transform="translate(1013,1024)" d="m0 0 2 3v6l-4 7-10 25-5 14-4 3 1-5 10-25 8-21z" fill="#F1D292"/>
<path transform="translate(939,637)" d="m0 0 4 1h9v1h-5l1 5 4 2 7 6v3h-7l-5-1-1-8-7-8z" fill="#5B536D"/>
<path transform="translate(1038,1032)" d="m0 0 6 1 9 6 2 4-1 17 6 3v2h7l-1 3-5-1-11-5-1-4 2-3 1-11-3-5-7-4h-6l-5 3 2-4z" fill="#F2D28F"/>
<path transform="translate(817,1293)" d="m0 0 5 2-4 3h-2l2 8 4 3-3 1-1-1h-7l-3-2v-6l4-5z" fill="#2B242C"/>
<path transform="translate(800,399)" d="m0 0 4 2 2 3 2 16 1 4 2 1-4 1-3-3-2-9-2-6z" fill="#B2A49D"/>
<path transform="translate(600,929)" d="m0 0h27v1h-13l1 4 3 2h-16l-3-2z" fill="#241B1E"/>
<path transform="translate(687,793)" d="m0 0 4 4v2h2l7 8 2 3-1 5-4-1-12-16z" fill="#150D10"/>
<path transform="translate(782,969)" d="m0 0h1v29l6 1v1h-15l4-4 1-2v-20l2-4z" fill="#4C4664"/>
<path transform="translate(1184,1136)" d="m0 0h3l-2 4-4 2v2h-2v2l-7 4-4-1-7-4 1-3 4 2 11-2v-2z" fill="#FDBB35"/>
<path transform="translate(1031,495)" d="m0 0h1v8l-2 1h-38l-4-2 22-1 9-1 5 2v-2l4 1 2-4z" fill="#A9A09F"/>
<path transform="translate(1024,1024)" d="m0 0 1 2-15 30-10 25-3 6-1-3 12-29 8-18 3-4 4-8z" fill="#ECD2A2"/>
<path transform="translate(1090,977)" d="m0 0h5l2 6-4 22h-1l-1-9-2-3h2z" fill="#F0D295"/>
<path transform="translate(786,417)" d="m0 0h1l1 7 1 2v24l1 11-2 4h-2z" fill="#342733"/>
<path transform="translate(782,940)" d="m0 0h1v25h11l-1 2h-10l-3-3-1-6v-15l3-1z" fill="#554E6B"/>
<path transform="translate(931,1255)" d="m0 0 4 2 8 6 5 2 1 2h-2v2l-5 1-6-3-5-7z" fill="#FAFAFA"/>
<path transform="translate(1074,992)" d="m0 0 3 1 7 8 6 5 2-1-2 6-1 7h-1l-1-5-11-1-11-3h-9l1-2h10l9 2h12l-14-16z" fill="#F0D395"/>
<path transform="translate(748,1287)" d="m0 0h11l3 2-1 4-3 4-5-1-4-4-2 1v-5z" fill="#271F27"/>
<path transform="translate(750,940)" d="m0 0h1v57h-4l1-12v-1-10h1l1-9h-2v-12l1-1z" fill="#534C6A"/>
<path transform="translate(991,554)" d="m0 0 5 1 8 16h2l1 4-4-1-14-16v-3z" fill="#332B36"/>
<path transform="translate(579,1098)" d="m0 0 3 1v7l-4 5h-6l-1-7 5-4z" fill="#1B1419"/>
<path transform="translate(822,940)" d="m0 0h1v56h-1l-1-30-2-7v-10l2-3z" fill="#4D4766"/>
<path transform="translate(950,810)" d="m0 0h2l1 2v11l-4 5h-4l-1-5 3-6z" fill="#120B0C"/>
<path transform="translate(540,563)" d="m0 0 3 1-1 14v56l1 3 3 2h-6z" fill="#887574"/>
<path transform="translate(884,1267)" d="m0 0h4l1 15-7-6-2-1-9-1v-1l7-1v-3z" fill="#FAFAFA"/>
<path transform="translate(779,1106)" d="m0 0h2l1 2 4 2 2-2 3 8 1 2h-11l-4-2z" fill="#E5BA43"/>
<path transform="translate(1052,1017)" d="m0 0 4 2v3l7 3-1 7h-8l-2-3z" fill="#F7F6F6"/>
<path transform="translate(1146,905)" d="m0 0 1 4-15 35-8 20-3 1 2-7 6-13 14-32z" fill="#F0D296"/>
<path transform="translate(1063,976)" d="m0 0 1 4-3 12-1 7 2-1 1-10 2-4 4 1 2 4-6-3v9l3 3-1 4-8-1-1-7 4-15z" fill="#F1D292"/>
<path transform="translate(956,1065)" d="m0 0 6 2 7 3 4 3-1 4-7-1-8-6-2-4z" fill="#201618"/>
<path transform="translate(851,588)" d="m0 0 3 3-1 1-12 1h-29l-13-1 2-2h50z" fill="#5F5B86"/>
<path transform="translate(970,950)" d="m0 0h6l10 7-2 4-9-3-4-2v-2l-3-1z" fill="#140C0E"/>
<path transform="translate(830,885)" d="m0 0h1v9l-1-2-18-1-7-2v-1l7-1 17-1z" fill="#1E171D"/>
<path transform="translate(877,767)" d="m0 0h7l1 1v7l-7 19-2-1 3-10 2-3 1-7-7 1z" fill="#2E1D1D"/>
<path transform="translate(978,1215)" d="m0 0 5 2 4 4-2 4-2 3h-2l-2 5-2 1-2-2 3-5z" fill="#2B242C"/>
<path transform="translate(667,1089)" d="m0 0h11l-1 2 1 5h7l-2 2h-15v-2h2l-1-5h-5z" fill="#2B1A18"/>
<path transform="translate(819,1296)" d="m0 0h4l2 3v8l-5 1-4-4v-6z" fill="#E1DFE0"/>
<path transform="translate(934,1234)" d="m0 0 7 1 2 1-1 7-3 2-5-1-1-9z" fill="#E0DEDE"/>
<path transform="translate(603,961)" d="m0 0 2 1-3 4 3 1 6 1 1 2h-6l-1 2h-2l-1 3h-5l-1-7z" fill="#2C1D1F"/>
<path transform="translate(1150,1057)" d="m0 0 5 5 6 9 9 14 10 15-1 2-8-11-21-32z" fill="#EFD298"/>
<path transform="translate(972,1188)" d="m0 0h7l4 4-1 5h-6l-5-3z" fill="#E1DFDF"/>
<path transform="translate(839,501)" d="m0 0 9 1 12 1v1h-46l-3-2z" fill="#A89F9E"/>
<path transform="translate(793,1009)" d="m0 0h16v2l-9 2v11l-1 2h-2l-2-13z" fill="#251D23"/>
<path transform="translate(632,969)" d="m0 0 5 1 1 1v5l-2 3h-11v-2l4-1-1-2 2-1z" fill="#150C0E"/>
<path transform="translate(1058,849)" d="m0 0 4 1-3 1-8 37-3 2 5-25 3-14z" fill="#F0D296"/>
<path transform="translate(1068,737)" d="m0 0 2 1-2 35-2 5h-1l1-19z" fill="#EFD299"/>
<path transform="translate(775,799)" d="m0 0 2 4 3 12 3 7 1 8h-2l-2-6-3-3-2-16-1-3z" fill="#342325"/>
<path transform="translate(880,414)" d="m0 0 6 4-1 11-4 1-1-1-1-14z" fill="#AD9F9A"/>
<path transform="translate(962,1136)" d="m0 0h2l-2 5-13 20-4 2 2-5 9-14z" fill="#EFD297"/>
<path transform="translate(698,1275)" d="m0 0 2 1v8l-2 3-1 7h-1v-7l-5-2 1-5z" fill="#D9D7D7"/>
<path transform="translate(950,1211)" d="m0 0 6 1-1 3v-2l-5 5-1 4 2 2-1 4-3-2v-2l-5-1 2-4z" fill="#2E2731"/>
<path transform="translate(870,677)" d="m0 0 9 2 7 2-2 1v2h-42v-1l33-1-3-3z" fill="#524C6B"/>
<path transform="translate(880,1293)" d="m0 0 3 4 1 3v7l-1 1-7-1 1-7h2z" fill="#E5E4E4"/>
<path transform="translate(1017,1114)" d="m0 0 6 1 1 2v8h-5l-3-5v-5z" fill="#F6F6F6"/>
<path transform="translate(1023,1147)" d="m0 0 4 2 4 3-4 11-6-2-2-2h4l1-10z" fill="#E6E5E5"/>
<path transform="translate(645,901)" d="m0 0 4 2 7 3-2 4-10-2-9-3v-1h7l3 1-1-3z" fill="#23191C"/>
<path transform="translate(842,1075)" d="m0 0 10 3-4 2-7 3h-4l-1 4v-9z" fill="#261615"/>
<path transform="translate(689,1282)" d="m0 0 3 1v2l4 2-1 5-2 1-6-4-1-3-3-1z" fill="#FCFBFB"/>
<path transform="translate(1032,1045)" d="m0 0 13 1 2 3v9h-7v-1h6l-2-8-12-1-1 5 3 1-2 1-4-2v-5h2v-2z" fill="#ECD2A0"/>
<path transform="translate(954,694)" d="m0 0h2v8l-5 1-7-4v-3h9z" fill="#3C343E"/>
<path transform="translate(934,540)" d="m0 0 6 1 5 3 9 3 6 3-4 1-13-5-10-1z" fill="#5E576E"/>
<path transform="translate(775,1308)" d="m0 0h1v9l-2 3-6-1v-5z" fill="#E5E2E2"/>
<path transform="translate(824,1310)" d="m0 0h3l1 9-2 2h-6v-7z" fill="#E7E6E6"/>
<path transform="translate(907,1053)" d="m0 0h1l2 10h2l1 2 11 1v2h-17z" fill="#D6AD4D"/>
<path transform="translate(717,1224)" d="m0 0 4 2 16 11 9 5 1 3-6-2-10-7-12-9z" fill="#EED299"/>
<path transform="translate(585,1122)" d="m0 0 5 1 1 5-4 4-5-1v-5z" fill="#DEDCDC"/>
<path transform="translate(635,998)" d="m0 0h5v2h-3l-1 2h-5v2l-8 3-8-2 1-2h7l5-1v-2z" fill="#120B0D"/>
<path transform="translate(951,848)" d="m0 0h2l-1 3-12 7-5 3-4 2-1-2 4-3 2-4 4-1h3z" fill="#E5BA43"/>
<path transform="translate(774,823)" d="m0 0h3l2 4-1 5-5 2-2-4v-6z" fill="#231210"/>
<path transform="translate(663,1264)" d="m0 0v3l-6 8-5 1-2-2 3-5z" fill="#F7F7F7"/>
<path transform="translate(559,1137)" d="m0 0 5 2v2h3v2h-2l3 7 3 4-1 3-7-8-3-3 1-4v-2z" fill="#F6F5F5"/>
<path transform="translate(1194,1136)" d="m0 0 2 1-11 12-8 10-3 3-2-1 9-11 12-13z" fill="#F1D293"/>
<path transform="translate(711,1286)" d="m0 0h5l-1 6-3 5-4-2v-6z" fill="#E9E7E7"/>
<path transform="translate(568,1132)" d="m0 0h8l3 3-8 5h-2l-2-4z" fill="#EAE9E8"/>
<path transform="translate(803,1037)" d="m0 0h1v15l-1 11-2-1-1-16 1-3h2z" fill="#645B6C"/>
<path transform="translate(1041,432)" d="m0 0h5l2 3-6 12h-1z" fill="#C1B7B3"/>
<path transform="translate(864,1270)" d="m0 0 5 1 1 4-4 5h-4l-1-8z" fill="#F8F7F7"/>
<path transform="translate(1116,1109)" d="m0 0 7 1 4 5 5 5 1 2-5-2-9-6v-2l-3-1z" fill="#FDBB35"/>
<path transform="translate(669,1273)" d="m0 0 4 2 3 4-1 3h-6l-2-1-1 6h-1l1-7z" fill="#F2F1F0"/>
<path transform="translate(946,1162)" d="m0 0v3l-8 10-13 16-2-1 10-12 10-14z" fill="#EDD29E"/>
<path transform="translate(672,975)" d="m0 0 5 1v7l-7 2-2-5 4-1z" fill="#DDBC7B"/>
<path transform="translate(682,887)" d="m0 0 6 3-1 4 4 1-1 6-4-4-7-4 1-4z" fill="#2F1E1D"/>
<path transform="translate(1024,657)" d="m0 0h3v2l-4 1v3l-3 1-3 3h-3l1-7z" fill="#20191F"/>
<path transform="translate(1055,1009)" d="m0 0v3l-2 7v10l1 2 8 1-1 2h-6l-5-4v-11l2-7z" fill="#F4D38B"/>
<path transform="translate(932,499)" d="m0 0h1v5h-41v-1l31-1 8-1z" fill="#A89F9F"/>
<path transform="translate(791,1089)" d="m0 0 9 1-3 9-3 1 1-4h-2l-1-4-3 1v-3z" fill="#F3C53D"/>
<path transform="translate(816,1087)" d="m0 0h9l-1 4-4 2h-6l-1-5z" fill="#DDB856"/>
<path transform="translate(814,996)" d="m0 0 6 1h4l4 2v2l-20-1 1-2z" fill="#312A35"/>
<path transform="translate(813,968)" d="m0 0h1l1 20h1v7l5-1-1 4-7-1z" fill="#4D4766"/>
<path transform="translate(1026,425)" d="m0 0h5v12l-4-1-1-1z" fill="#B1A39D"/>
<path transform="translate(1035,361)" d="m0 0 3 1 2 7-1 6h-5v-4z" fill="#AC9E98"/>
<path transform="translate(633,996)" d="m0 0 3 1-2 3h-6v2l-5 2-8-1 3-2z" fill="#352424"/>
<path transform="translate(944,684)" d="m0 0h4v2h6l2 1v-2l-2-1h8l2 1v2l-2 1-12 1-6-3z" fill="#160F13"/>
<path transform="translate(928,525)" d="m0 0 5 1 1 2-1 3 5 1v2l7-2-3 3-5 1-1 2-2-2v-4h-4z" fill="#4B4562"/>
<path transform="translate(871,1068)" d="m0 0h4v3h2l9 13-1 3-4-5v-2l-4-2-3-4-1-4z" fill="#E6BC4B"/>
<path transform="translate(605,960)" d="m0 0h7l-2 6-7 2-2-3z" fill="#140C0E"/>
<path transform="translate(907,1037)" d="m0 0h2v2h3l1 3-2 1-2 9h-1l-1-8h-3l1-5z" fill="#D4AF55"/>
<path transform="translate(784,561)" d="m0 0 1 3-1 28h-1v-28l-12-1v-1z" fill="#8B7A7C"/>
<path transform="translate(706,1273)" d="m0 0 2 3-1 5-5 2h-3l1-7h2v-2z" fill="#FCFCFC"/>
<path transform="translate(1122,964)" d="m0 0 1 3-6 17-4 2 1-5 6-15z" fill="#EED29A"/>
<path transform="translate(644,955)" d="m0 0h6l1 3 3 2-5 3h-5z" fill="#120B0C"/>
<path transform="translate(1074,992)" d="m0 0 3 1 7 8 6 5 2-1-2 6-1 7h-1v-8l-4-1h4l-14-16z" fill="#F5D38A"/>
<path transform="translate(1013,417)" d="m0 0h2l1 3-2 3-1 5-4 1v-2l-12-1v-1h13l1-7z" fill="#B2A8A5"/>
<path transform="translate(769,1324)" d="m0 0h5l5 6-4 1-4-2-9-2-1-2h6z" fill="#F9F9F9"/>
<path transform="translate(643,1070)" d="m0 0 2 1-4 5 5 2-1 2h-2v2l-5-1-2-2 1-4z" fill="#2C1E24"/>
<path transform="translate(765,934)" d="m0 0h27l-2 3-5 1-2 2v-4h-13l-3 1-2-1z" fill="#6C6375"/>
<path transform="translate(1028,574)" d="m0 0 4 1 3 8 1 8 6 1v1h-7l-1 2-1-3-2-2 1-1v-8l-2-4-2 1z" fill="#514B6A"/>
<path transform="translate(897,1264)" d="m0 0 6 1 1 4-2 2-5 2-1-1v-7z" fill="#F6F5F4"/>
<path transform="translate(720,1056)" d="m0 0 3 1 5 5v5l-3-3v-2l-5 2-3-1z" fill="#DDB347"/>
<path transform="translate(1018,1009)" d="m0 0 1 3-6 16-2 6h-1l1-11 4-10z" fill="#F3C73E"/>
<path transform="translate(1059,850)" d="m0 0h16l4 3h-15l-6-1z" fill="#EFD297"/>
<path transform="translate(944,683)" d="m0 0h20l2 6h-5l1-2h2v-2h-8v2l-8-1v-2z" fill="#534D6B"/>
<path transform="translate(1065,664)" d="m0 0h7v3h-27l-1-2z" fill="#4C497E"/>
<path transform="translate(986,1195)" d="m0 0 5 2 3 5-1 2-4 1-3-5z" fill="#E7E6E6"/>
<path transform="translate(805,934)" d="m0 0h26l-4 4-4 2-1-4-2 1-3-1h-11z" fill="#6C6273"/>
<path transform="translate(745,831)" d="m0 0 7 2 2 1v4l-5 4-4-9z" fill="#261515"/>
<path transform="translate(1058,1017)" d="m0 0 6 1v5h-8l-2-3z" fill="#F2CA59"/>
<path transform="translate(1033 1e3)" d="m0 0h1v9l-8 16-2-4 6-11 2-2z" fill="#F3D38D"/>
<path transform="translate(908,685)" d="m0 0h23l1 1v5h-11v-1h8v-2l-2-1-19-1z" fill="#5F5770"/>
<path transform="translate(827,1324)" d="m0 0 4 2 5 2-1 2-11 1-1-2z" fill="#F6F5F5"/>
<path transform="translate(718,1272)" d="m0 0h5l2 2-1 5-2 1v-3l-6 1v-5z" fill="#F5F4F4"/>
<path transform="translate(1051,642)" d="m0 0h2l1 5 3-1v5h-2l-1 2-2-1-2 2z" fill="#120B0D"/>
<path transform="translate(878,608)" d="m0 0h2v5l-5 6-6-1 5-5z" fill="#4E475A"/>
<path transform="translate(978,605)" d="m0 0h6l4 3v3h-6l-4-3z" fill="#474055"/>
<path transform="translate(1070,1022)" d="m0 0h9l1 3-4 4-3-1z" fill="#F3C741"/>
<path transform="translate(1058,976)" d="m0 0 4 2-7 2-5 1-2 6-2 2v-7l2-2h4v-2z" fill="#FDBB35"/>
<path transform="translate(979,676)" d="m0 0h10l1 4 3-1v2h-4v-2l-7 2-3-2z" fill="#231C23"/>
<path transform="translate(934,960)" d="m0 0h5v2l4 2 5 5-1 2-5-5-7-1z" fill="#F2C33D"/>
<path transform="translate(732,934)" d="m0 0h30l-2 2-7 1v-2l-6 1h-14z" fill="#766B78"/>
<path transform="translate(931,919)" d="m0 0 13 3v1l-16 1 1-4z" fill="#D2AC4D"/>
<path transform="translate(752,1100)" d="m0 0 1 2-6 15h-1v-5-3l1-5z" fill="#312123"/>
<path transform="translate(766,886)" d="m0 0h26v3h-14v-1l-12-1z" fill="#504A6A"/>
<path transform="translate(1099,866)" d="m0 0 1 2-8 18-2-1 3-9 5-9z" fill="#F1D293"/>
<path transform="translate(903,586)" d="m0 0 1 2-3 5-5 6-4-2z" fill="#160F13"/>
<path transform="translate(835,571)" d="m0 0h15l-1 5h-5l-4-3-5-1z" fill="#44427D"/>
<path transform="translate(869,1281)" d="m0 0h5l2 4-6 1-2 4-2-2v-5z" fill="#D0CDCE"/>
<path transform="translate(1044,664)" d="m0 0m-19 1h19l-2 2h-16l-2 7h-1v-8z" fill="#3B3A7E"/>
<path transform="translate(858,416)" d="m0 0h3v10l-3 3-1-2v-8z" fill="#BAAEA9"/>
<path transform="translate(726,1144)" d="m0 0h1l1 5 4 1 2-1-1 6-5-1-3-2z" fill="#312226"/>
<path transform="translate(530,1071)" d="m0 0 4 4 2 9v7l-2-4-4-11z" fill="#F7F6F6"/>
<path transform="translate(815,1044)" d="m0 0 1 4-7 13-1-3 3-8 2-5z" fill="#4C4552"/>
<path transform="translate(949,809)" d="m0 0 5 1 1 1v10l-2 4-1-15-3 3-2 4v-6z" fill="#483A44"/>
<path transform="translate(915,784)" d="m0 0h5l1 1v6l-7 10-2 3 1-5 4-7 2-7z" fill="#37272B"/>
<path transform="translate(949,648)" d="m0 0 1 2 6 3v-2l3 1v3h-7l-5-1z" fill="#3D3544"/>
<path transform="translate(996,377)" d="m0 0h6l1 3-1 2-7 1-1-3z" fill="#BBB1AE"/>
<path transform="translate(993,1199)" d="m0 0 9 2-2 1-1 5-2-1h-8l1-2 3-2z" fill="#7A707D"/>
<path transform="translate(1171,1162)" d="m0 0h2l-2 4-7 8-3 4h-2l2-4z" fill="#ECD29F"/>
<path transform="translate(506,986)" d="m0 0 4 2 3 12h-2l-1-6h-2l1 7-2-4z" fill="#655D73"/>
<path transform="translate(1092,977)" d="m0 0h2l1 2v8l-1 5-2-1-1-13z" fill="#ECEBEB"/>
<path transform="translate(934,935)" d="m0 0 4 1-1 8h-3l-2 2v-10z" fill="#D4AE4A"/>
<path transform="translate(1063,736)" d="m0 0 5 1-1 22h-1l-1-18z" fill="#F3C73E"/>
<path transform="translate(907,581)" d="m0 0 1 2-2 3-5 3-2 1 2-4zm-10 9 2 1-3 2zm-2 3m-1 1m-1 1m-1 1m-1 1 3 2-2 3-1-2-2 2 1-4z" fill="#332C34"/>
<path transform="translate(887,540)" d="m0 0 5 1-1 3-4 2h-12v-1l8-1z" fill="#5D5883"/>
<path transform="translate(879,1126)" d="m0 0 3 1v6l-1 2-4-2-1-6z" fill="#120B0C"/>
<path transform="translate(659,1094)" d="m0 0 1 4v10l6-1v4h-8v-14z" fill="#302020"/>
<path transform="translate(1063,980)" d="m0 0 2 4-2 12-1 3h-2v-7z" fill="#E6E5E5"/>
<path transform="translate(883,774)" d="m0 0 1 4-6 16-2-1 3-10 2-3z" fill="#3C2B2D"/>
<path transform="translate(906,585)" d="m0 0 1 4 11 2v1h-16l2-6z" fill="#504A6A"/>
<path transform="translate(953,1213)" d="m0 0 2 1-1 8-5 1-1-4z" fill="#E5E4E4"/>
<path transform="translate(951,1016)" d="m0 0 9 4 7 3-1 2-7-2-5-2v-2l-3-1z" fill="#322226"/>
<path transform="translate(934,394)" d="m0 0h5l1 4-3 3-4-2z" fill="#BEB0A4"/>
<path transform="translate(697,1295)" d="m0 0 6 2 7 2 1 5-1 2-4-4v-2l-6-2z" fill="#F6F5F5"/>
<path transform="translate(708,1263)" d="m0 0 7 1 5 2v1l-8 1h-3l-2-4z" fill="#FAFAFA"/>
<path transform="translate(1016,1127)" d="m0 0h7l1 3-1 2-7-1-4-1 1-2z" fill="#FAD379"/>
<path transform="translate(1032,1047)" d="m0 0 5 1 1 2-2 4-5-1v-5z" fill="#F3C73E"/>
<path transform="translate(1064,1021)" d="m0 0 2 2 1 9-1-2h-2v2h-2l1-7-5-1v-1h6z" fill="#F5D384"/>
<path transform="translate(857,480)" d="m0 0h5v7h-5l-1-5z" fill="#434B60"/>
<path transform="translate(1074,573)" d="m0 0h1v19h-12v-1l10-1z" fill="#686081"/>
<path transform="translate(881,450)" d="m0 0 5 1 2 5h-9z" fill="#B4A7A1"/>
<path transform="translate(906,1257)" d="m0 0h5l2 5v3l-6-4-7-1v-1h6z" fill="#D7D4D4"/>
<path transform="translate(850,997)" d="m0 0h10l2 3h-13l-2-2z" fill="#4C4553"/>
<path transform="translate(1e3 960)" d="m0 0h6l2 1-1 6-6 5h-2l1-3 5-5v-2h-6z" fill="#352528"/>
<path transform="translate(939,637)" d="m0 0 4 1h9v1h-5v5l-5-2z" fill="#534C67"/>
<path transform="translate(900,530)" d="m0 0h10l-5 4-5 2-1-4-2-1z" fill="#44427D"/>
<path transform="translate(969,409)" d="m0 0 1 2 6-1 2 5-3 1-2-2-4-1z" fill="#948684"/>
<path transform="translate(687,1268)" d="m0 0 1 3-6 6-4-1-2-4 8 1v-2h2z" fill="#E3E0E0"/>
<path transform="translate(1032,1045)" d="m0 0 5 1-1 2h-4l-1 5 3 1-2 1-4-2v-5h2v-2z" fill="#F3D38B"/>
<path transform="translate(952,1026)" d="m0 0h6l6 5v2l-9-3-3-2z" fill="#2C1C1D"/>
<path transform="translate(799,633)" d="m0 0 5 1v2h5l-4 3h-6z" fill="#44427C"/>
<path transform="translate(1057,417)" d="m0 0 5 1-1 6-3 1-2-7z" fill="#A79B98"/>
<path transform="translate(1066,404)" d="m0 0h1l1 14-1 2h-2v-15z" fill="#B1A49E"/>
<path transform="translate(993,384)" d="m0 0 3 1-3 1-1 4-4 2-1-5z" fill="#AFA4A2"/>
<path transform="translate(772,1311)" d="m0 0h3v8l-5-1 1-5z" fill="#EFEEEE"/>
<path transform="translate(802,1088)" d="m0 0h7l-1 4-7 1z" fill="#120B0D"/>
<path transform="translate(991,958)" d="m0 0 11 2-2 4h-4z" fill="#EABF56"/>
<path transform="translate(624,1226)" d="m0 0h1l2 7 2 3-1 3-4-6-3-1v-4h3z" fill="#FBFBFB"/>
<path transform="translate(852,1151)" d="m0 0h1l1 9h-9l1-2 5-3z" fill="#3A2929"/>
<path transform="translate(1041,1050)" d="m0 0 5 1-1 5-5-1z" fill="#F3C73E"/>
<path transform="translate(873,409)" d="m0 0h5v7l-4-1-1-1z" fill="#C6B8A9"/>
<path transform="translate(979,396)" d="m0 0 2 1-1 5-1 1h-16v-1l14-1z" fill="#938583"/>
<path transform="translate(618,1173)" d="m0 0h3v2h2l2 4h-7l-1-5z" fill="#FEFEFE"/>
<path transform="translate(692,1128)" d="m0 0h1l2 7 2 1-1 3-4-2-2-3 1-4z" fill="#2B1B1C"/>
<path transform="translate(684,1072)" d="m0 0h1v12l-1 3-3 1v-3z" fill="#B79856"/>
<path transform="translate(966,987)" d="m0 0 6 2v2h-9v-2l-3 1-1-2z" fill="#150B0B"/>
<path transform="translate(1058,849)" d="m0 0 4 1-3 1-3 12-2 1 2-13z" fill="#F2D28F"/>
<path transform="translate(914,576)" d="m0 0v3l-7 6v-3l-4 3 2-4 3-3v2z" fill="#4D4764"/>
<path transform="translate(762,1287)" d="m0 0 12 2v2l-9 1-3-3z" fill="#FDFDFD"/>
<path transform="translate(950,1211)" d="m0 0 6 1-1 3v-2l-6 5h-3l2-4z" fill="#4F4754"/>
<path transform="translate(935,1092)" d="m0 0h3l3 5 3 1v2l-6-1-3-3z" fill="#EEC453"/>
<path transform="translate(1027,1044)" d="m0 0 5 1-2 1v2h-2v5l-4 1 1-5z" fill="#E6E5E5"/>
<path transform="translate(996,998)" d="m0 0h3v3l3 1-4 1-9-2 1-2z" fill="#1E0C09"/>
<path transform="translate(707,860)" d="m0 0 4 4 5 1-2 1v2l-4 1-2-4-2-1z" fill="#CAA64E"/>
<path transform="translate(783,824)" d="m0 0 6 1-1 4 5 1v1h-9z" fill="#E1B044"/>
<path transform="translate(1015,569)" d="m0 0 16 1v1h-7v2l-9-2z" fill="#756C84"/>
<path transform="translate(1194,1136)" d="m0 0 2 1-11 12-2-1 9-10z" fill="#F2D290"/>
<path transform="translate(918,1116)" d="m0 0 4 5v2l-4 2h-5l4-3z" fill="#44343A"/>
<path transform="translate(707,1051)" d="m0 0 2 2-2 2-5 2h-8l3-2 6-2z" fill="#C7A04F"/>
<path transform="translate(521,1007)" d="m0 0 5 1 2 1v2h-17l3-2 7-1z" fill="#696070"/>
<path transform="translate(754,828)" d="m0 0h2l5 9-4-1-3-3z" fill="#231313"/>
<path transform="translate(732,804)" d="m0 0 5 3 2 9h-2l-5-10z" fill="#281716"/>
<path transform="translate(934,1264)" d="m0 0 2 1v2l6 2v4l-5-2-3-4z" fill="#5E5670"/>
<path transform="translate(942,1224)" d="m0 0 4 1v4h-5l-3-4z" fill="#FBFBFB"/>
<path transform="translate(983,1192)" d="m0 0 3 3-1 4-2 1-2 3-2-6 3-1z" fill="#6F6679"/>
<path transform="translate(951,848)" d="m0 0h2l-1 3-11 6v-3z" fill="#D5AE4C"/>
<path transform="translate(979,690)" d="m0 0 3 4 2-1 1 5-7-2v-5z" fill="#1E171C"/>
<path transform="translate(1062,423)" d="m0 0h2v23h-1l-1-19-1-2z" fill="#504A6A"/>
<path transform="translate(610,1203)" d="m0 0 5 1 3-1-2 4-3 2h-3z" fill="#EEECEC"/>
<path transform="translate(979,997)" d="m0 0 8 1 2 1v2l-10-1z" fill="#3A2B2E"/>
<path transform="translate(1064,995)" d="m0 0 4 3-1 4-8-1v-1h5z" fill="#FBD478"/>
<path transform="translate(813,941)" d="m0 0h1l1 7h1v8l-3 1z" fill="#4B4563"/>
<path transform="translate(932,911)" d="m0 0 5 2 1 3-4 3-2-2z" fill="#F3C63D"/>
<path transform="translate(1043,496)" d="m0 0h4l1 7h-7l4-6z" fill="#504A6A"/>
<path transform="translate(1019,361)" d="m0 0h3l1 7h-4z" fill="#AC9F99"/>
<path transform="translate(633,1183)" d="m0 0 6 3v5h-3l-3-6z" fill="#F4F3F3"/>
<path transform="translate(803,1106)" d="m0 0 2 1-2 3 2 7-2-1v-2l-3-1 1-5z" fill="#EDC148"/>
<path transform="translate(523,1029)" d="m0 0h1l1 7 1 2-5 1-2-5 3-1z" fill="#6C6377"/>
<path transform="translate(1055,1009)" d="m0 0v3l-2 7-1 4-2-2 2-9z" fill="#F3D38D"/>
<path transform="translate(999,996)" d="m0 0 4 1 1 4-1 2-4-2-1-4z" fill="#2F262E"/>
<path transform="translate(702,879)" d="m0 0v3l-5 6-3-3z" fill="#CCA850"/>
<path transform="translate(770,832)" d="m0 0v3l-9 2-2-3 2-1h7z" fill="#D8B560"/>
<path transform="translate(831,623)" d="m0 0 3 1-10 6-4 1v-2z" fill="#544F7A"/>
<path transform="translate(896,610)" d="m0 0h1l1 8-7 1-10-1v-1l11-1 4 1z" fill="#655E75"/>
<path transform="translate(911,393)" d="m0 0h5v5l-5 1z" fill="#AFA19B"/>
<path transform="translate(851,385)" d="m0 0 3 1v8h-3z" fill="#CBBDAD"/>
</svg>
