<?xml version="1.0" encoding="UTF-8"?>
<svg version="1.1" viewBox="0 0 1000 1000" width="1000" height="1000" xmlns="http://www.w3.org/2000/svg">
<path transform="translate(333,169)" d="m0 0h328l6 4 5 5 2 4v46l-1 178-3 47-5 52-5 33-4 19-5 25-6 24-15 44-11 30-7 14-12 21-10 13-7 10-11 12-9 10-14 12-18 10-18 6-7 1h-9l-13-3-17-7-18-13-11-9-15-14-8-10-11-14-10-16-15-31-11-29-11-36-13-66-7-54-5-75-4-112-2-100v-22l6-8z" fill="#564E6B"/>
<path transform="translate(336,460)" d="m0 0h333l-4 45-5 33-4 19-5 25-6 24-15 44-11 30-7 14-12 21-10 13-7 10-11 12-9 10-14 12-18 10-18 6-7 1h-9l-13-3-17-7-18-13-11-9-15-14-8-10-11-14-10-16-15-31-11-29-11-36-13-66-7-54-1-14z" fill="#FAB90C"/>
<path transform="translate(623,236)" d="m0 0h4l-2 4-8 8-1 3h7l4 1-1 3-4 1v9l10 1 1-5h2l-1 5-1 3-1 11h4l1-5h3l1-9h4l1 19v30l26-1v-12h1v104l-2 34-1 4h-95l-76-1v-14l1-1h55l12 3 15 1v-4h-18l-12-2-15-5-5-5-33-1v-14l15-7 8-5 1-3h-23l-1-1v-14l34-1 1-2h-2l-1-2v-9h-31l-1-1v-14l48-1 9-1 10-7 6-3-72-1-1-1 1-14h54v-18l-4-2 1-3 3-1 1-4h-5l-1-6v-12l1-9 4 4 1 6 4 1 2-4 2-1 1-13 3-1 3-5 4 1v4h9l1 3 8 7v9l-3 1-1 39-4 1-1 5 20-1-2-4-4-1v-42l1-17 13-1 7-8 3-2z" fill="#FBFBFB"/>
<path transform="translate(333,169)" d="m0 0h328l6 4 5 5 2 4v46l-1 74-1 12-5 1h-21l-1-5v-44h-4l-1 9-3 1-1 4h-4v-11l3-8-2 1-1 4h-10l-1-3 1-7 4-2 1-2h-8l-3-1 1-4 9-9 1-2-4 1-2 4-8 7-2 3h-13v17l-1 42 6 1v4l-6 1h-14v-5l5-1v-39l4-1-1-9-8-7v-3l-7 1-2-1-1-4-3-1-2 5-4 1v13l-5 5-5-1-2-8-1-1-1 8v18l3-1 2 1-1 5-3 1v2l4 2v19h-51l-4-1v8h-1v-152l-165 1-5 4 2-4z" fill="#997F7B"/>
<path transform="translate(488,527)" d="m0 0h30l13 5 7 3 11 7 10 9 6 8v3h2l5 11 3 7 1 5v30l-1 1-1 7-3 5-3 8-10 13-11 10-8 5-13 6-11 2-1 1h-23l-21-7-11-7-10-9-9-11-8-16-3-15v-18l1-1 2-13 9-17 9-11 12-10 12-6 7-3z" fill="#F9F8F7"/>
<path transform="translate(503,470)" d="m0 0 4 2 3 5-1 6-6 6 1 6 6 5 1 6-2 4-4 4-2 5h7l5 1 2-12 6-27 3-8h3l-1 10-6 39 9 2 1-5 15-36 1-3h5l-1 8-14 37v2l4 2h3l13-19 10-14 4-6h3l1 4-11 18-12 19-1 5 4 2 2-5 1-1h15l-1-2v-11l4-4 3-1 11-1 3-7h2l1 7-2 5-2 1-11 1-3 3-1 12-3 3-10 1-3 3 1 4 4 2 14-8 14-9 11-7h2l1 5-17 12-19 13h-2l4 8 9-3 28-11 4-1-1 7-29 13-7 3 2 7 16-2 20-2 1 5-21 5-14 3 1 6 7 1 6 8 4-2 5-5h7l5 3 5 5 8-2 1 3-5 5-5 1-8-7-5-1-9 7h-6l-7-7-3-1-1 12 8 1 30 8 6 2-1 4-9-1-24-5-12-3-1 10 35 17 4 2-1 5-9-3-31-13h-3l-2 7 26 20 9 8-1 2-5-1-25-17-10-6-1 3 2 3-1 13h13l4 4 1 2v11l7 4-1 3-8-1-3-3-2-13-14-1-3-3-1-2-1-11-6 5 2 4 20 32-1 4-3 1-7-11-14-19-4-6-7 4 15 39-1 4-4-1-15-33-2-5-9 1 10 44v4l-5-1-8-27-5-16-7-1 1 6-8 7-1 4 4 2 4 4 1 7-4 6-3 4 1 5v4h-3l-4-4-1-6 4-6 3-3-1-5-7-7-1-5 6-8 1-4-10-1-2 11-7 27-3 9-4-1 4-24 5-25-6-1-2-1-1 6-11 27-5 13-2 1-3-2 3-11 11-34v-3l-5-2-10 16-11 17-6 8-4-2 6-12 10-17 7-13-1-4-3-2-3 6h-14l1 6v8l-6 5-11 2-2 7-4-1v-8l3-4 13-2v-15l4-4 11-1 1-5-4-5v-2l-12 9-18 14-7 5-4-1 2-4 10-9 8-7 11-9 4-5-2-3v-3l-44 22h-2v-6l27-15 14-8-1-5-21 5-28 7-2-4 12-5 36-12v-3h-7l-8-8-9 9h-10l-8-6-4 3-4-1 2-4 5-4 5 1 7 5 5-1 6-8 6-1 9 6 4-1 1-9 1-2-28-2-20-3v-4h18l31 2 2-9-9-2-37-11-2-1 2-5 10 2 36 9h3l1-5-31-16-11-6v-6l10 4 35 17h3l4-6-5-1-1-5v-9h-12l-5-4-1-5v-9l-7-1v-4h8l4 4 1 12h13l5 2 1 2 1 10 1 3 9-6v-4l-13-19-11-15 1-4 4 2 12 14 10 13 5 6 6-2 1-3-13-28-5-12 1-4 4 1 15 29 6 11v2l8-2-9-36-2-13h5l13 44v3l5-1v-7l8-6-1-4-6-6v-8l8-10-2-4zm-15 57-10 3-16 8-13 11-8 10-9 17-2 13-1 1v18l3 15 5 10 6 10 11 12 9 7 9 5 10 3 9 3h23l1-1 11-2 16-8 11-8 7-7 9-13 4-10 1-1 1-7 1-1v-30l-3-9-5-12-1-2h-2l-1-4-8-10-11-9-10-6-10-3-7-3z" fill="#080202"/>
<path transform="translate(580,191)" d="m0 0 8 1 1 2 22 2 2 4 8 7 5 5 1 6-4 4v6l-1 2 4-1 2-4 7 1 2 4 3 1v-9l1-1h5v13h4v-9l9 1 1 4h5l1 6-1 5h-4v4l5 1v12l-1 3h-4v5h4v17l-1 2h-3l-2-9-4-1-1-4-4-1v40l5 1v4h-9l-1-5v-44h-4l-1 9-3 1-1 4h-4v-11l3-8-2 1-1 4h-10l-1-3 1-7 4-2 1-2h-8l-3-1 1-4 9-9 1-2-4 1-2 4-8 7-2 3h-13v17l-1 42 6 1v4l-6 1h-14v-5l5-1v-39l4-1-1-9-8-7v-3l-7 1-2-1-1-4-3-1-2 5-4 1v13l-5 5-5-1-2-8-1-1-1 8v18l3-1 2 1-1 5-3 1v2l4 2v19h-16v-10l-4-1 1-4h4v-15h5l-1-9v-10h-5l-1-4-2-1-1 9h-9l-1-4-4-1v-5h-5l-1-5v-3l-5-2 1-4 4-1v-13l9-8 5-5 4-3h16l2 3 8 1 1 5h8v-4h-4l-1-14 9-7h6v-8z" fill="#03716F"/>
<path transform="translate(332,241)" d="m0 0h161l-1 3-1 47-158 1-1-1z" fill="#FE2D37"/>
<path transform="translate(335,348)" d="m0 0h156l-1 51-155 1-1-24v-26z" fill="#FE2A38"/>
<path transform="translate(334,376)" d="m0 0h1l1 25 77 1 3 2 4 15 1 1 19 1-3 3-11 8-1 2 6 16-4-1-11-8-4 1-9 7h-2l-2 4 189 1h78l2 1 1-2v7l-2 1h-330l-2-2-3-47v-17h1z" fill="#554E6B"/>
<path transform="translate(623,236)" d="m0 0h4l-2 4-8 8-1 3h7l4 1-1 3-4 1v9l10 1 1-5h2l-1 5-1 3-1 11h4l1-5h3l1-9h4l1 19v30h-43l-2-4-4-1v-42l1-17 13-1 7-8 3-2z" fill="#AD9E9C"/>
<path transform="translate(500,243)" d="m0 0 1 3h9l1 4 5 2v7l5 1 1 5 3 1 1 3 9 1 1-9 3 1v4h5l1 10v9h-5v15l-4 1v3l3 1v10h-35l-4-1v8h-1v-75z" fill="#AD9F9D"/>
<path transform="translate(335,451)" d="m0 0 1 3h330l2 1 1-2v7l-2 1h-330l-2-2z" fill="#AC9C9A"/>
<path transform="translate(581,329)" d="m0 0h16l1 3-9 3h-3l1 3 13 5v2l-5-1-8-3-4 1-8 15h21l4 2 7 2 5 9-1 1-47 1-3 3v11h61l8 11 2 1v2l-39 1 5 5 1 3h-7l-2-6-3-3v-2h-6l-1 2h-51l-1 13h-4v-9l2-7 4-4 3 1 3 3 5 1v-10l5-5 4-2-2 5 8-1v-11l8-8 4-5 1-3h2l2-5 4-9 3-6h2z" fill="#363A7D"/>
<path transform="translate(570,246)" d="m0 0 4 1v4h9l1 3 8 7v9l-3 1-1 39-4 1-1 4h-28l-1-1v-18l-4-2 1-3 3-1 1-4h-5l-1-6v-12l1-9 4 4 1 6 4 1 2-4 2-1 1-13 3-1z" fill="#AD9E9C"/>
<path transform="translate(499,444)" d="m0 0h171v9h-2v2h-80l-85-1-4-2z" fill="#333D7D"/>
<path transform="translate(634,356)" d="m0 0h38v15h-25l4 10 3 4 18 1v9l-1 5h-10l2 15h7v13l-1 1h-29v6l-5-1-2-1-2-14 2-5 5-3h4l-1 4h11v-2l3-2v-14h-2l-3-11h-2l-4-8v-3h-2l-1-5 1-11-7-1z" fill="#3E3F7A"/>
<path transform="translate(495,535)" d="m0 0h7v2l-2 1-1 16 21-1v5l-20-1v46h8v-16l-4-2v-1l15-1-1 3-4 1 1 38h-8l1-2 1-18h-20l1 20h-9l2-1v-38h-10l-3 1-1 37 2 1h-9l1-39-5-1v-1h37l-1 2-4 1-1 17h7v-47l-20 1v-4h20z" fill="#322729"/>
<path transform="translate(672,241)" d="m0 0h1v61l-1 12-5 1h-12v-4l-5-1v-40l5 1v4l5 1 1 9h3l1-19h-4v-5h4l1-9h1l1 11h2l1 2z" fill="#AFA09A"/>
<path transform="translate(455,457)" d="m0 0h13l12 1h188l-1 3h-330v-3h84z" fill="#997E7A"/>
<path transform="translate(375,193)" d="m0 0 2 3 5 10 5 5 5 4 11 4h20l10-4 6-5 5-8 2-6h1v8l-3 12-6 8-6 5-11 4h-19l-9-3-7-5-6-9-3-6-2-10z" fill="#FDFCFC"/>
<path transform="translate(611,386)" d="m0 0h11l8 11 2 1v2l-39 1 5 5 1 3h-7l-2-6-3-3v-2h-6l-1 2h-2v-2h-24l2-2-2-1 1-6h5l1-2 27 1z" fill="#433F93"/>
<path transform="translate(410,296)" d="m0 0h2l6 17 19 1-5 4-9 7 1 8 3 10-5-2-10-7-5 2-9 7h-2l4-18-14-10v-1h19l3-10z" fill="#FDFCFC"/>
<path transform="translate(414,403)" d="m0 0 2 1 4 15 1 1 19 1-3 3-11 8-1 2 6 16-4-1-11-8-4 1-11 8h-2l3-10 1-8-14-10v-1l19-1z" fill="#FDFCFB"/>
<path transform="translate(609,326)" d="m0 0 3 2 60 1 1 1v11l-58 1-5 1-3-7v-9z" fill="#443F95"/>
<path transform="translate(500,330)" d="m0 0h70v2l-10 6-4 3h-56l-1-1v-9z" fill="#413C94"/>
<path transform="translate(492,242)" d="m0 0h2l1 14v33l-1 5-85 1-76-1 2-3h156v-47z" fill="#070101"/>
<path transform="translate(335,348)" d="m0 0h156l-1 4h-153v48h-2l-1-24v-26z" fill="#FCF6E4"/>
<path transform="translate(332,241)" d="m0 0h161l-1 3-156 1-1 47-3-1z" fill="#FCFCFC"/>
<path transform="translate(491,350)" d="m0 0h1l1 20v31l-1 1-79 1-78-1 2-3h153v-48z" fill="#070101"/>
<path transform="translate(458,584)" d="m0 0h37l-1 2-4 1-1 17h5v1h-5l1 20h-9l2-1v-38h-10l-3 1-1 37 2 1h-9l1-39-5-1z" fill="#140D0F"/>
<path transform="translate(557,378)" d="m0 0h1v8h2v-8h1v8h50v1l-27 2-23-1-5 2-1 3-1 2 3 1 4 1 17 1v2h-49l-1 13h-4v-9l2-7 4-4 3 1 3 3 5 1v-10l5-5 4-2-2 5 8-1z" fill="#3A4575"/>
<path transform="translate(634,356)" d="m0 0h38v15h-25l-1-1-2-10-1 5h-1v-6l-7-1z" fill="#484980"/>
<path transform="translate(527,584)" d="m0 0h12l7 1v10l-7-7-8-1-3 3-1 5 4 2 14 9 4 6-1 7h-2l-2 4-3 2h-9l-10-1-1-13h2l4 9 3 2h9l3-3v-5l-9-7-9-6-3-5 1-7z" fill="#140D0F"/>
<path transform="translate(499,357)" d="m0 0h32l1 11h2v2h-35z" fill="#423D95"/>
<path transform="translate(672,357)" d="m0 0h1v38h-1v-9h-18l-5-6-2-5v-4h25z" fill="#FCFCFC"/>
<path transform="translate(596,358)" d="m0 0 10 2 6 9-1 2-47 1-5 5 1-4 3-3 15-1-2-5h3l-1-4 2-1z" fill="#565095"/>
<path transform="translate(500,330)" d="m0 0h70v2l-10 6-4 3h-7l3-2h2v-2l5-1v-2l-2-2-27 1h-26l-1 2-1 5 7-1 11-1 3-1v2h19l6 1v1h-48l-1-1v-9z" fill="#35397E"/>
<path transform="translate(500,417)" d="m0 0h32l4 5 3 2-3 2h-36z" fill="#413C94"/>
<path transform="translate(499,416)" d="m0 0h34l4 4 18 6 27 2v4h-15l-12-3-55-1-1-1zm1 1v9h36l3-3-5-3-2-3z" fill="#3D3F7E"/>
<path transform="translate(480,585)" d="m0 0h12l-2 2-1 17h5v1h-5l1 20h-9l2-1v-38z" fill="#070101"/>
<path transform="translate(517,583)" d="m0 0h2l-1 3-4 1 1 38h-8l1-2v-35l-4-4z" fill="#0F0809"/>
<path transform="translate(652,384)" d="m0 0 2 1 18 1v9l-1 5h-10v5h-1v-5h-2l-5-13z" fill="#4A4B7B"/>
<path transform="translate(634,356)" d="m0 0h38l-3 1v3l2 1-1 8h-15l-2-4 1-5 1-1h10l1-1-24-1v2l-7-1z" fill="#413C94"/>
<path transform="translate(581,329)" d="m0 0h16l1 3-9 3h-3l1 3 13 5v2l-5-1-8-3-4 1-7 13-4 5h-2l-2 4-3 2 4-8h2l2-5 4-9 3-6h2z" fill="#282125"/>
<path transform="translate(643,359)" d="m0 0 2 1 3 15 3 6 5 12 2 4v3h2l1 5v8l-4-1v-7h-2v-8h-2l-3-11h-2l-4-8v-3h-2l-1-5z" fill="#171012"/>
<path transform="translate(609,326)" d="m0 0 2 1 1 8v2l4-1 1 2 54 1v-5h1v7l-57 1-5 1-3-7v-9z" fill="#30457F"/>
<path transform="translate(672,395)" d="m0 0h1v11l-1 17-2 1v-9h-7l-2-10v-5h10z" fill="#FAF9F9"/>
<path transform="translate(611,328)" d="m0 0 61 1v4l-11-1h-47l-1 5-2-2z" fill="#716C8D"/>
<path transform="translate(499,357)" d="m0 0h32v6l-2 2v-5l-3 1-1-1-17 1-2 1v-2l-5 2v6h29l2-1 2 1v2h-35z" fill="#2F407C"/>
<path transform="translate(331,348)" d="m0 0 3 1v51h-1l-2-15z" fill="#261F26"/>
<path transform="translate(661,417)" d="m0 0h6l2 4-1 5-2 1h-10l-6-1 3-1 1-6z" fill="#423D95"/>
<path transform="translate(510,387)" d="m0 0h10l-2 4-13 6-5-1v-8z" fill="#413C94"/>
<path transform="translate(496,631)" d="m0 0h9l-1 2-2 32-2-1-2-26z" fill="#312724"/>
<path transform="translate(638,411)" d="m0 0h4v2h-2v2h-2l-1 5-1 3 3 7v4l-6-1-2-14 2-5z" fill="#352C30"/>
<path transform="translate(612,423)" d="m0 0h8l6 3v2h-7l-1 9h-5l-2-5z" fill="#241C1F"/>
<path transform="translate(485,632)" d="m0 0h4v7l3 8v6h2l3 9-1 3-6-11-5-13-2-3-3-1 2-4z" fill="#241B1D"/>
<path transform="translate(550,426)" d="m0 0 32 2v4h-15l-16-4z" fill="#594B51"/>
<path transform="translate(512,632)" d="m0 0 9 1 1 4-4 1-3 7-7 14-1-4 3-9 3-8z" fill="#231B1C"/>
<path transform="translate(330,248)" d="m0 0h1l1 45-2-1-1-4-1-19v-19h2z" fill="#080203"/>
<path transform="translate(640,413)" d="m0 0 1 2h11l1-2-1 4h-12l-1 5 1 6h28v1h-28v6l-3-1h2l-4-11 2-5 1-3h2z" fill="#7F7380"/>
<path transform="translate(530,393)" d="m0 0 3 1 3 3v2l-6 1-2 13h-4v-9l2-7z" fill="#3B3237"/>
<path transform="translate(590,427)" d="m0 0h13v4h-6v6l-1 2-5-1z" fill="#211A1F"/>
<path transform="translate(657,388)" d="m0 0h11v2h2v5l-6 3-3-1 1-2-3 1v-6z" fill="#423D95"/>
<path transform="translate(558,330)" d="m0 0h12v2l-10 6-4 3h-7l3-2h2v-2l5-1v-2z" fill="#3F4481"/>
<path transform="translate(593,398)" d="m0 0h9l1 2-10 1 5 5 1 3h-7l-2-6-3-4z" fill="#4F4C7D"/>
<path transform="translate(512,386)" d="m0 0h11l-1 4-8 5-11 5h-4v-4h6l14-7 1-2h-8z" fill="#444B81"/>
<path transform="translate(609,326)" d="m0 0 2 1 1 8v5h2l-1 3-4-1-2-6v-9z" fill="#201818"/>
<path transform="translate(627,395)" d="m0 0h2l3 3v2h-29l1-2 23-1z" fill="#3B3E7E"/>
<path transform="translate(582,329)" d="m0 0h15l1 3-11 3-5-5z" fill="#605B7D"/>
<path transform="translate(521,611)" d="m0 0h2l4 9 3 2 8 1-1 2-15-1z" fill="#191215"/>
<path transform="translate(531,584)" d="m0 0h8l7 1v10l-7-7-9-1z" fill="#20191D"/>
<path transform="translate(564,366)" d="m0 0 2 4-5 3-1 4v9h-2v-8h-2l1-5z" fill="#140D0E"/>
<path transform="translate(623,236)" d="m0 0h4l-2 4-8 8-5 2 2-4 7-6z" fill="#A79187"/>
<path transform="translate(634,356)" d="m0 0h38v1h-30v2l-7-1z" fill="#A19793"/>
<path transform="translate(566,429)" d="m0 0h16v3h-15z" fill="#2E2423"/>
<path transform="translate(612,330)" d="m0 0h27v1l-25 1-1 5-2-2z" fill="#373A7C"/>
<path transform="translate(669,357)" d="m0 0h3v13h-16v-1h14v-8z" fill="#333D81"/>
<path transform="translate(531,367)" d="m0 0 3 1v2h-35v-2h31z" fill="#363E7D"/>
<path transform="translate(519,357)" d="m0 0h12v6l-2 2v-5l-3 1-1-1-7-1z" fill="#333C7C"/>
<path transform="translate(633,425)" d="m0 0h4l2 5v4h-4z" fill="#0D0607"/>
<path transform="translate(671,386)" d="m0 0h1v9l-1 5h-7l5-5z" fill="#545384"/>
<path transform="translate(592,403)" d="m0 0 5 2 2 4h-7z" fill="#3A313C"/>
<path transform="translate(660,395)" d="m0 0h2l1 2 2 2-4 1v5h-1v-5h-2v-4z" fill="#45457C"/>
<path transform="translate(512,386)" d="m0 0h11l-1 4-7 4 1-3 4-4h-8z" fill="#79718D"/>
<path transform="translate(668,416)" d="m0 0h2v12l-2 1-2-2 2-6-1-4z" fill="#2D346F"/>
<path transform="translate(665,258)" d="m0 0h1v7l-5 1v-5h4z" fill="#A08986"/>
<path transform="translate(550,426)" d="m0 0 14 1-4 1v2l-9-2z" fill="#4F4447"/>
<path transform="translate(619,347)" d="m0 0h4l3 9-7-6z" fill="#1C1519"/>
</svg>
