<?xml version="1.0" encoding="UTF-8"?>
<svg version="1.1" viewBox="0 0 1000 1000" width="1000" height="1000" xmlns="http://www.w3.org/2000/svg">
<path transform="translate(497,122)" d="m0 0h18l23 2 13 4 10 5 10 8 9 10 6 12 3 11v17l-3 12-7 13-9 10-9 7-17 9-16 5-52 13h-8l-2-10v-21l1-2 26-7 36-9 12-5 6-5 4-7 1-2v-15l-4-10-8-7-10-4-13-2h-17l-18 2-9 4-6 5-6 13v89l5 16 6 11 8 9 12 6 12 3 10 1h30l24-1 28-4h12l14 3 8 4 19 9 18 10 16 8 22 13 11 8 10 9 6 7 8 17 1 4v15l-4 17-8 17-14 24-8 12-11 11-11 7-16 6-3 1h-15l-16-5-11-6-13-13-6-10-5-14-1-5v-16l3-15 13-45 6-20 5-1 7 3v2l6 2 13 7-1 8-5 12-11 36-2 14v12l7 10 9 6 6 2h10l10-3 7-6 9-14 10-17 5-12 1-5v-10l-3-6-9-8-14-9-15-9-29-17-20-9-13-4h-13l-12 3-11 6-8 8-10 15-12 22-9 15-17 35-7 10-11 12-9 5-25 15-19 11-18 10-16 8-14 5-4 1h-13l-13-4-8-4-8-6-8-7-11-16-13-24-8-16-5-17v-13l3-11 5-12 6-9 6-7 10-7 11-5 8-2h18l12 3 14 7 13 11 13 13 7 8 12 13 9 9 4 6 5 4-2 5-19 10-5 3-4-2-11-12-15-16-12-13-9-8-9-5-4-1h-10l-12 6-5 5-5 11v11l3 10 12 23 9 13 9 8 5 2h7l16-6 23-12 12-7 19-10 17-10 11-10 6-10 5-16v-13l-4-13-8-16-12-22-10-16-12-16-10-15-6-15-3-26v-81l3-14 6-11 9-10 8-7 14-7 17-4zm9 223-1 3 12 22 5-5 8-14-1-5-8-1z" fill="#0099DA"/>
<path transform="translate(163,574)" d="m0 0h26l13 2 10 5 8 7 6 10 2 7v13l-4 11-7 8-13 8-29 8-15 4h-8l-2-4 1-8 5-4 38-10 9-5 4-6 1-12-4-11-8-4h-35l-9 3-5 5-2 3v60l3 12 5 10 10 9 8 3 4 1 46 1 2 2v7l-3 4-12 1h-37l-13-3-11-6-10-10-7-14-2-7-2-17v-50l3-11 6-9 8-7 10-4z" fill="#0099DA"/>
<path transform="translate(708,602)" d="m0 0h56l10 9 5 8 2 7 1 9v78l-1 1h-58l-9-3-8-6-5-9-3-10 1-10 3-8 6-7 14-7 29-8 10-3 1-1v-16l-3-6-4-1-44-1-3-1zm47 59-28 7-8 4-3 6 1 11 3 6 5 4 2 1h31l5-2 1-1v-35l-1-1z" fill="#00AFAC"/>
<path transform="translate(836,601)" d="m0 0h31l11 4 9 9 4 10 1 5v58l-4 10-9 10-12 6-11 2h-17l-11-3-10-6-6-7-4-8-2-11v-45l2-13 3-7 9-9 9-4zm-2 16-7 2-2 3-1 7v51l2 10 4 6 9 4h17l10-3 5-3 3-6 1-7v-54l-2-7-6-3z" fill="#00B0AC"/>
<path transform="translate(367,601)" d="m0 0h36l9 3 8 7 6 11 2 11v45l-2 11-3 7-6 8-7 5-11 4h-28l-11-4-8-5-7-9-3-9-1-5v-50l3-12 4-7 8-7zm9 16-11 1-4 2-2 6v56l2 8 5 7 7 3h23l8-4 5-6 1-6v-40l-1-20-4-6-4-1z" fill="#00B0AC"/>
<path transform="translate(501,601)" d="m0 0h13l2 6 1 80 3 8 5 3h16l12-6 7-8 2-7v-73l7-3h12v103l-1 10-1 1h-6l-6-5-3-4-5 1-10 5-5 1h-22l-13-5-7-7-4-10-1-7v-81z" fill="#00B0AC"/>
<path transform="translate(632,601)" d="m0 0h51l1 4-2 13-56 1-1 29v25l2 12 4 6 8 5 3 1 36 1 5 5 2 5v3l-9 2h-17v18l-6 2-6-1-1-4v-11l-9-3-14-7-10-10-5-10-2-8v-55l2-8 8-6 5-5 6-3z" fill="#00B0AC"/>
<path transform="translate(250,600)" d="m0 0h7l3 5 14 42 5 17 4 17 2 6h2l3-14 5-19 16-49 4-3h15l-2 9-8 25-9 29-8 24-8 23-3 2h-14l-3-5-35-105v-2z" fill="#00B0AC"/>
<path transform="translate(454,556)" d="m0 0h15l2 1v156l-7 2h-11l-1-1v-156z" fill="#00B0AC"/>
<path transform="translate(641,223)" d="m0 0 4 1 6 7 10 17 7 17 4 18v14l-2 17-2 10-3 1-21-10-4-3-1-7-1-21-2-13-8-16-7-9 1-4 8-7z" fill="#0099DA"/>
<path transform="translate(490,481)" d="m0 0 5 2 14 8 16 6 8 2h14l6-1 3 2 5 19 2 10-2 2-5 1h-30l-17-5-12-5-11-6-19-14-2-6 20-12z" fill="#0099DA"/>
<path transform="translate(414,239)" d="m0 0h4l1 4v28l-17 10-11 8-7 6-8 13-5 10-9-1-20-5-1-5 11-21 8-11 16-16 11-7 18-10z" fill="#0099DA"/>
<path transform="translate(348,373)" d="m0 0h3v2l5-2h5v2l6 1-1 6-1 2-8 3h-3v2h2l1 4-5 1-4-2 3 5-2 2-10 4 1 7h-2v2l2 1-2 6-2 4v11l3 10 2 5 1 12-1 7-5 1-2-3-5-1v-7l1-7-1-4-3 8-5-4-4-11-2-14v-11l4-10 3-7h-2l1-4 10-8 5-5 7-6z" fill="#009FD5"/>
<path transform="translate(158,585)" d="m0 0h25l10 2-4 1 5 3v1l-33 1-9 3-5 5-2 3v60l3 12 5 10 10 9 8 3 4 2h-9l-8-5-8-8-2-5-2-1-1 2-6-7-5-12-3-13v-35l3-10 5-9 8-7 3-3z" fill="#00A0D2"/>
<path transform="translate(650,250)" d="m0 0 6 2 5 4 4 6h2l5 21v14l-2 17-2 10-3 1-21-10-1-2h2l1-5 5-5 2-3-4-20-2-6 1-3h2l1 7 6-3h2l1-4 4-1-4-9-5 1-4 5-5-2-1-3v-9z" fill="#00A0D4"/>
<path transform="translate(209,609)" d="m0 0 3 1v8l3 12 3 1v5l-10 7-10 4-38 10h-8l-2-4 1-8 5-4 38-10 9-5 4-6z" fill="#0099DA"/>
<path transform="translate(163,574)" d="m0 0h26l13 2 10 5 8 7 6 10 2 7v13l-4 11-5 6-2-4-3-3-3-10v-8l-1-4-1-6-4-8-4-2 1-3 4-1-1-5-11-3h-30l-17 4-9 7-3-2 8-7 10-4z" fill="#00A0D4"/>
<path transform="translate(116,650)" d="m0 0 4 2 1 3v9l-4 4-13 7-8 5-8 12-7 3-8-1 1-7 6-11 9-10 10-8 12-6z" fill="#0099DA"/>
<path transform="translate(460,167)" d="m0 0 5 1-4 10-1 74h-1l-1-46-5 2-2-1-3 23-3 7-4-1-4-8v-11l1-11 3-5 4 1v2h2v-9l1-5-2-6v-6l6 1 1 7h1l4-16z" fill="#00A0D4"/>
<path transform="translate(719,576)" d="m0 0h43l2 3-1 10-1 2-3 1h-40l-1-2v-13z" fill="#00B0AC"/>
<path transform="translate(470,226)" d="m0 0 4 1v2l7 1 9 1-1 3 2 6-6 4-3 1-1 2 6 1-2 4-8 4h-2l1 4h-8l-2-10v-21l1-2z" fill="#00A0D3"/>
<path transform="translate(642,745)" d="m0 0 3 1v27l8-1 3-4 1-4v-18l4-1 3 4v22l-3 6-1 1-13 1-5-2-3-4-2-25z" fill="#0099DA"/>
<path transform="translate(808,745)" d="m0 0h12l5 4 2 6v13l-3 7-5 4-7 1-6-3-5-6v-16l3-7zm2 5-3 4-1 3v11l5 5h7l4-5v-11l-3-6-2-1z" fill="#009AD9"/>
<path transform="translate(872,744)" d="m0 0 8 2-1 6-11-1-1 1v7l13 5 2 2v8l-4 3-10 2-7-1-2-1v-3l17-2 1-3-5-1-10-5-3-4v-7l3-5z" fill="#009AD8"/>
<path transform="translate(762,745)" d="m0 0h7l1 1v5l-11 1-3 1v5l14 6 2 2-1 9-4 3-16 1-3-3v-3h16l3-3-14-8-5-4-1-4 3-5 7-3z" fill="#00A0D3"/>
<path transform="translate(593,745)" d="m0 0h12l1 1v5l-13 1-1 2v12l3 5 4 2 9 1-1 4-1 1h-8l-7-3-5-5-2-5v-13l3-5z" fill="#009AD9"/>
<path transform="translate(707,745)" d="m0 0h9l2 1v5h-13l-2 5 1 21-5 1-4-2v-16l2-12 3-2z" fill="#00A0D2"/>
<path transform="translate(626,456)" d="m0 0 5 1 2-1 6 10h-2v6l1 4 4 2 1 3h2l-1 6-5-1-6-4-5-7-3-10v-7z" fill="#00A0D5"/>
<path transform="translate(658,745)" d="m0 0 4 1 2 3v22l-2 5-1-2-7 2h-6l-2-1v-2l7-1 3-4 1-4v-18z" fill="#00A1D2"/>
<path transform="translate(871,761)" d="m0 0 9 3 2 2v8l-4 3-10 2-7-1-2-1v-3l17-2 1-3-5-1-7-3 3-1v-2z" fill="#00A0D3"/>
<path transform="translate(593,745)" d="m0 0h12l1 1v5l-13 1-1 2-1 10-1-2h-2v2h-2l-1-2v-8l1-2h2v-5z" fill="#00A0D4"/>
<path transform="translate(718,401)" d="m0 0 8 1 1 1 1 7h1l-1 11-2 7h-2l2-10v-4l-1 1h-5l-2-9z" fill="#00A0D5"/>
<path transform="translate(633,433)" d="m0 0 1 2-2 19-2-1-1 2-7-1-1 3h-2l-1-4-2-1v-6l1-1h5l3 3 6 1v-12l-1-3z" fill="#00A0D4"/>
<path transform="translate(580,171)" d="m0 0 3 1 1 9v5l1 3 4-1-1 8-1-2-8 2v-12z" fill="#00A0D5"/>
<path transform="translate(501,347)" d="m0 0 5 1 6 11 5 10v2l-5-2-4-4-3-7v-3l-4-2z" fill="#00A1D2"/>
<path transform="translate(566,158)" d="m0 0 3 3 4 13v7l-3-3v-3l-7-1 1-8-1-3 1-4z" fill="#00A0D5"/>
<path transform="translate(213,585)" d="m0 0 3 3v2l8 4v3l-4 1-3-2v4l-5-2-3-4 2-7h2z" fill="#0099DA"/>
<path transform="translate(539,330)" d="m0 0h5l-1 5h-2v3h-2l-2 4-5 1-1-6z" fill="#00A0D5"/>
<path transform="translate(642,745)" d="m0 0 3 1v27h-1l-1-15-5-2-1-8z" fill="#00A0D4"/>
<path transform="translate(740,400)" d="m0 0h1v15l-4 17-2 2-2-1v-7l3-5 2-10h2z" fill="#00A0D2"/>
<path transform="translate(707,745)" d="m0 0h9l2 1v5h-12l-2-5z" fill="#00A0D0"/>
<path transform="translate(101,657)" d="m0 0 1 3-2 2h-3l-2 4-9 7-4 1 6-7 11-9z" fill="#00A1D1"/>
<path transform="translate(402,261)" d="m0 0 5 3 1 6-1 2h-5l-2-7z" fill="#00A0D5"/>
<path transform="translate(720,443)" d="m0 0 4 1-6 9-4 4-3-1 2-5 5-2z" fill="#00A0D5"/>
<path transform="translate(700,746)" d="m0 0h4l2 5-1 2h-8v-5z" fill="#0099DA"/>
<path transform="translate(453,437)" d="m0 0 4 2 1 3-5 5-2-1v-6z" fill="#00A1D1"/>
<path transform="translate(330,399)" d="m0 0 3 1-2 6v7l-1 2-3-1 1-8z" fill="#0099DB"/>
<path transform="translate(648,373)" d="m0 0 4 1-1 8-2 4h-1z" fill="#00A0D2"/>
<path transform="translate(114,666)" d="m0 0h5l-4 3-9 4v-3z" fill="#00A1D1"/>
<path transform="translate(663,750)" d="m0 0h1v19h-3l1-7z" fill="#00B0AC"/>
<path transform="translate(120,655)" d="m0 0h1v9l-4-2-1-6 3 1z" fill="#00A5C6"/>
</svg>
