<?xml version="1.0" encoding="UTF-8"?>
<svg version="1.1" viewBox="0 0 800 800" width="200" height="200" xmlns="http://www.w3.org/2000/svg">
<path transform="translate(0)" d="m0 0h800v800h-800z" fill="#FCFDFD"/>
<path transform="translate(400,185)" d="m0 0 5 3 16 16 4 5-1 4-60 60-1 4 3 4 5-2 38-38 8-7 8-8 5 1 5 5v2h2l6 7 7 7-1 5-52 52-1 6 2 2 6-1 8-9 8-7 37-37 7-8 5 1 17 17 5 7-8 9-4-1-10-10-4-1-5 5-4 5-5 5-3 1v2h-2v2h-2v2l-7 6-7 8h-2v2l-8 7-4 5-8 7-6 5-5-1-7-8-10-10-6-5-1-4 11-12 4-2 2-4 6-5 5-6 5-5h2l2-4 6-5 12-12 1-5-5 2-50 50-5 4-4-2-23-23-1-5 62-62-1-4-8 7-51 51h-2l-2 4h-2l-1 3-5 5-9 8-5-2-5-6 1-5z" fill="#11386A"/>
<path transform="translate(357,433)" d="m0 0 12 7 15 10 22 15 4 1 33-22 17-11h2v73l-1 29h-26v-53l-16 11-10 6-16-10-9-6-1 52h-26z" fill="#11386A"/>
<path transform="translate(133,433)" d="m0 0h72v25l-1 1-44 1-1 11h36l1 1v26l-36 1-1 11 46 1v23l-1 1h-71z" fill="#11386A"/>
<path transform="translate(233,432)" d="m0 0h7l5 5 10 14 7 10 7-10 12-18h32l-2 5-11 16-12 17-9 13 2 5 12 17 14 20 5 8v1h-31l-8-10-11-16-4 5-11 16-5 5h-30l2-6 9-12 12-18 9-12-1-6-11-15-13-19-9-13v-1z" fill="#11386A"/>
<path transform="translate(659,432)" d="m0 0 5 2v24l-1 1-40 1-4 2v7l1 1 24 2 9 3 10 9 5 9 1 3v16l-4 9-7 8-5 4-5 2h-53l-1-1v-24h41l6-1 1-7-3-3-22-1-10-4-9-8-5-8-2-7v-12l5-12 6-7 8-5 7-2z" fill="#11386A"/>
<path transform="translate(581,432)" d="m0 0 2 1v64l-2 13-3 7-6 8-9 7-7 3h-25l-7-3-10-8-6-9-3-9-1-7v-66h27l1 69 3 5 7 3 7-1 5-5 2-8 1-63z" fill="#11386A"/>
<path transform="translate(399,193)" d="m0 0 5 1 14 14-1 5-5 5h-2l-2 4-51 51 1 6 7 7 4 1 8-6 46-46 2-3 5 2 5 6 8 7 1 4-52 52-3 6 7 8 3 2v2l5-3 10-9 51-51 4 1 14 14 2 6-5-1-13-13-4 2-9 10-51 51-3 1-8-7-8-8v-2l-3-1-1-4 7-8 7-7 6-5 5-6 21-21 7-6 2-5-1-3h-2l-4-5-5 2-52 52-3 1-5-3-14-14-1-6 38-38h2l2-4h2l2-4h2l2-4h2l2-4 7-7-1-5-5-6-4 1-16 16h-2l-2 4-44 44h-2l-2 4-8 8-5-1 3-5 9-10z" fill="#DAFDFD"/>
<path transform="translate(334,280)" d="m0 0 5 2 60 60 5-1 13-13 9-10h2l2-4 8-7 7-8 7-6 6-7 7-6 5 1 6 8-2 4-13 13-2 3h-2l-2 4h-2l-1 3-8 7-15 15-5 6-8 7-10 11-5 3-8-7-67-67 1-4z" fill="#11386A"/>
<path transform="translate(346,444)" d="m0 0h3v75l-1 16h-25l-1-3v-73l9-6z" fill="#11386A"/>
<path transform="translate(494,444)" d="m0 0h2v91h-26l-1-76 8-5z" fill="#11386A"/>
<path transform="translate(402,206)" d="m0 0 2 1-1 5-61 61 1 5 24 24 4-2 10-9 44-44h4v5l-10 10h-2l-2 4-6 5-6 7h-2l-2 4h-2l-2 4h-2l-1 3-8 7-7 7-3 4 2 5 12 11 9 9v2l7-1 10-10h2l2-4 8-8h2v-2l5-5 3-1 2-4 4-4h2v-2h2v-2h2v-2l5-5 3-1 2-4 4-4h2l1-3 5 2 5 6 4 7-3 4-7-10-7 1-2 4-6 5-7 8h-2l-2 4-7 7-7 6-5 5-9 10h-2l-2 4-8 8-5-1-29-29v-2l-4-2-27-27-4-1-8 8-1-2h-2l-1-3 10-9 5-6 8-7 55-55z" fill="#DBFDFD"/>
<path transform="translate(425,232)" d="m0 0 5 2 5 6 8 7 1 4-52 52-3 6 7 8 3 2v2l5-3 10-9 51-51 4 1 14 14 2 6-5-1-13-13-4 2-9 10-51 51-3 1-8-7-8-8v-2l-3-1-1-4 7-8 7-7 6-5 5-6 21-21 7-6 2-5-1-3h-2l-4-5-5 2-24 24h-6l2-4 28-28z" fill="#DAFDFD"/>
<path transform="translate(467,285)" d="m0 0 2 2-1 5-65 65-5-1-65-65 1-5 5 2 7 8 50 50 4 3 5-2 58-58z" fill="#F0FEFE"/>
<path transform="translate(465,272)" d="m0 0 5 2 5 6 4 7-3 4-7-10-7 1-2 4-6 5-7 8h-2l-2 4-7 7-7 6-5 5-9 10h-2l-2 4-8 8-5-1-29-29v-2l5 1v2l2 1-1 2 4 1 5 4 4 1 9 9v2l7-1 10-10h2l2-4 8-8h2v-2l5-5 3-1 2-4 4-4h2v-2h2v-2h2v-2l5-5 3-1 2-4 4-4h2z" fill="#DBFDFD"/>
<path transform="translate(425,232)" d="m0 0 5 2 5 6 8 7 1 4-45 45-3-1h-3l1-3 6-5 5-6 21-21 7-6 2-5-1-3h-2l-4-5-5 2-24 24h-6l2-4 28-28z" fill="#DBFDFD"/>
<path transform="translate(390,231)" d="m0 0 2 1-1 4h-2l1 4-33 33 1 6 7 7 4 1 8-6 15-15h5v3l-26 26-3 1-5-3-14-14-1-6 38-38h2z" fill="#DAFDFD"/>
<path transform="translate(411,225)" d="m0 0 2 2-10 10-3 7 5-1v3l-35 35-4 1-4-5 2-5z" fill="#DAFDFD"/>
<path transform="translate(320,308)" d="m0 0h5l1 13v29h41l4 3v2l-2 1h-48l-1-2z" fill="#11386A"/>
<path transform="translate(321,194)" d="m0 0h41l6 1-2 4-3 1h-36l-1 40-2 2h-4v-47z" fill="#11386A"/>
<path transform="translate(437,194)" d="m0 0h43l1 1v48l-5-2v-41h-41l-3-2v-3z" fill="#11386A"/>
<path transform="translate(478,309)" d="m0 0h3v47h-47l-2-1 2-5h42v-38z" fill="#11386A"/>
<path transform="translate(436,199)" d="m0 0h38l2 1v40l-5-5-2-5v-20l-1-2-27-2-6-5z" fill="#F4FEFE"/>
<path transform="translate(524,387)" d="m0 0h8l5 3 3 5v8l-5 6-9 2-5-2-5-6v-9l4-5z" fill="#11386A"/>
<path transform="translate(314,387)" d="m0 0h8l5 3 3 7-2 9-5 4-8 1-6-3-3-4-1-6 3-7 3-3z" fill="#11386A"/>
<path transform="translate(425,247)" d="m0 0h4v5l-10 10h-2l-2 4-6 5-6 7h-2l-2 4h-2l-2 4h-2l-1 3-8 7-12 12-4-4 4-5 8-7z" fill="#DAFDFD"/>
<path transform="translate(420,281)" d="m0 0 4 1 8-1 1 3-19 19-7 6-5 5-5-1-2-2 1-6z" fill="#DAFDFD"/>
<path transform="translate(467,285)" d="m0 0 2 2-1 5-57 57-6-1 6-7 52-52z" fill="#E0FDFD"/>
<path transform="translate(469,432)" d="m0 0h23l4 1v6l-3 3-21 12-3-1z" fill="#FED34F"/>
<path transform="translate(450,249)" d="m0 0h2v4l-2 1 5 1h6l-6 7-21 21h-2v-2l-9 2-2-1 2-4 26-26z" fill="#F0FEFE"/>
<path transform="translate(332,316)" d="m0 0 6 3v2l4 2 7 8 10 10v2h-27z" fill="#E02B54"/>
<path transform="translate(467,318)" d="m0 0h2v26l-27-1 2-4 16-16z" fill="#FED34F"/>
<path transform="translate(442,206)" d="m0 0 26 1 2 3v24l-5-3-22-22z" fill="#FED34F"/>
<path transform="translate(359,205)" d="m0 0v3l-2 3h-2l-2 4-5 5h-2l-2 4h-2l-1 3-8 6v-27z" fill="#D92B55"/>
<path transform="translate(323,432)" d="m0 0 26 1-1 7-13 8-10 6h-3v-21z" fill="#DE3054"/>
<path transform="translate(465,258)" d="m0 0 4 1 14 14 2 6-5-1-13-13-4 2-9 10-23 23-3-1h2v-2h-2l2-4z" fill="#F8FDFD"/>
<path transform="translate(472,320)" d="m0 0h4v30l-19 1h-16l4-6 2-1 15-1 7 1 1-21z" fill="#FBFDFD"/>
<path transform="translate(402,206)" d="m0 0 2 1-1 5-54 54h-3l1-3h2l1-4 6-5 9-9 1-4 34-34z" fill="#EDFEFE"/>
<path transform="translate(436,251)" d="m0 0 4 1-1 4-40 40-3-1h-3l1-3 6-5 5-6 21-21 7-6z" fill="#EDFEFE"/>
<path transform="translate(345,310)" d="m0 0 7 6 23 23-2 2-8-3-8-1-4-1-6-7 2-2-1-6-3-6z" fill="#F2FEFE"/>
<path transform="translate(422,214)" d="m0 0 2 2 1 6 3 1-1 3-8 7-8 8-4 3-7 1v-3l3-6 9-9 1-4z" fill="#F0FEFE"/>
<path transform="translate(446,387)" d="m0 0h8l3 3-1 3-9-1-3 3v7l1 3 6 1 3-2-1-3-3-2v-3l7-1 2 4v8l-4 3-8 1-6-4-3-6v-6l4-6z" fill="#133A6B"/>
<path transform="translate(334,286)" d="m0 0 5 2 7 8 24 24v5h-3l-34-34z" fill="#DAFDFD"/>
<path transform="translate(402,387)" d="m0 0 11 1 1 3-12 1 1 4h10l-1 4-7 1-4-2v6l13 1-1 4h-15l-1-1-1-7v-8l2-6z" fill="#11386A"/>
<path transform="translate(465,272)" d="m0 0 5 2 5 6 4 7-3 4-7-10-7 1-2 4-6 5-7 8h-3l-1-3 3-1 9-11 3-5 4-4h2z" fill="#DBFDFD"/>
<path transform="translate(271,387)" d="m0 0h7l3 3v3l-9-1-4 3v7l3 3h11l-1 4-5 2-7-1-4-2-3-5v-8l4-6z" fill="#11386A"/>
<path transform="translate(438,316)" d="m0 0h4l-2 4-29 29-6-1 6-7 19-19 4 1v-3l3-1z" fill="#EBFEFE"/>
<path transform="translate(325,310)" d="m0 0 2 3 2 13v11l-2 12 21-5 5 2 6 1v3l-27 1-6-1-1-12z" fill="#ECFEFE"/>
<path transform="translate(436,199)" d="m0 0h38l2 1v6l-6-3-7-1-6 3-4 1h-12l-6-5z" fill="#EDFEFE"/>
<path transform="translate(525,391)" d="m0 0 7 1 3 4v7l-3 3-5 1-5-3-2-5 1-4z" fill="#F8FDFD"/>
<path transform="translate(315,391)" d="m0 0 7 1 3 4v6l-3 3-2 1h-6l-3-3-1-6 3-5z" fill="#F9FDFD"/>
<path transform="translate(327,310)" d="m0 0 2 3v7l3 11v12h20l-4 2-17 4h-4v-9l1-3v-11l-2-15z" fill="#FBFDFD"/>
<path transform="translate(463,303)" d="m0 0v3l-4 6-5 5-8 11-10 8-3 1-2 4-5 2-2 1 2-4h2l2-4 20-20 6-5z" fill="#ECFEFE"/>
<path transform="translate(462,431)" d="m0 0 7 1v13l-3 2h-3v44h-1l-1-38v-21z" fill="#F1FEFE"/>
<path transform="translate(355,388)" d="m0 0h5l1 17h9l1 4-1 1h-14l-1-1z" fill="#11386A"/>
<path transform="translate(408,213)" d="m0 0 4 2v3h-2l-2 4-17 17h-2v-3h2l1-7 4-2 2-4h2l2-4z" fill="#EDFEFE"/>
<path transform="translate(447,391)" d="m0 0h6l4 4-5 1h-2l1 3 4 3-2 4-4 1-4-2-2-3v-7z" fill="#F5FDFD"/>
<path transform="translate(465,258)" d="m0 0 4 1 14 14 2 6-5-1-13-13-2-1-1-2-2-1z" fill="#DAFDFD"/>
<path transform="translate(348,438)" d="m0 0h2l3 5-1 4h-2v26h-1v-29l-11 6-9 5h-2l1-4 19-11z" fill="#EEFEFE"/>
<path transform="translate(344,235)" d="m0 0h3l-1 5-20 20-3-1v-2l4-4h3l1-3 2-1v-3h2l2-7z" fill="#F0FEFE"/>
<path transform="translate(444,279)" d="m0 0 4 4-17 17-3-1h2v-2h-2l2-4z" fill="#EBFEFE"/>
<path transform="translate(355,292)" d="m0 0 4 2 11 11v2l4 2 4 5 8 7v2l-4-2-7-4-2-4-5-3-5-5-2-5-6-6z" fill="#F1FEFE"/>
<path transform="translate(462,201)" d="m0 0 10 2 4 3v4l-4 3-2 3-2-8-18-1 1-2h5l4-2h2z" fill="#FCFDFD"/>
<path transform="translate(411,247)" d="m0 0h2v2h-2l1 5-13 13h-6l2-4z" fill="#EBFEFE"/>
<path transform="translate(402,206)" d="m0 0 2 1-1 5-16 16-4-2 9-9 2-4z" fill="#DAFDFD"/>
<path transform="translate(485,388)" d="m0 0h5v22h-5z" fill="#11386A"/>
<path transform="translate(392,344)" d="m0 0 4 2 4 3 8-2 2 1-2 4-5 5-5-1-6-6 1-4z" fill="#F9FDFD"/>
<path transform="translate(467,285)" d="m0 0 2 2-1 5-14 14h-2v-2h2v-6l9-9z" fill="#EDFEFE"/>
<path transform="translate(472,320)" d="m0 0h4v18l-4 1-2-1v-15z" fill="#F4FFFF"/>
<path transform="translate(447,344)" d="m0 0h12l2 3v3l-4 1h-16l4-6z" fill="#EDFEFE"/>
<path transform="translate(427,296)" d="m0 0 3 1-1 5-10 10-3-1h2v-2l-8 6 2-4z" fill="#E0FDFD"/>
<path transform="translate(325,310)" d="m0 0 2 3 2 13v11l-2 12 2 1h-3l-1-12z" fill="#DAFDFD"/>
<path transform="translate(366,270)" d="m0 0 6 2 1 6-5 4-4-2-2-5z" fill="#EAFEFE"/>
<path transform="translate(461,280)" d="m0 0 2 2-7 8-6 5-3 4h-3l-1-3 3-1 9-11 4-3 2 1z" fill="#EEFEFE"/>
<path transform="translate(416,309)" d="m0 0h2l-1 5-10 10-4-1-1-3 8-6z" fill="#DAFDFD"/>
<path transform="translate(422,236)" d="m0 0 2 1-2 3 1 3-10 10-2-1v-3h2l-1-4 8-7z" fill="#E1FDFD"/>
<path transform="translate(377,342)" d="m0 0 7 6 9 9-3 2-9-7-1-5-4-2z" fill="#EEFEFE"/>
<path transform="translate(327,199)" d="m0 0 2 1-1 1v13l1 12-1 12-2 1v-39z" fill="#DAFDFD"/>
<path transform="translate(401,399)" d="m0 0 9 1 3-1 1 7h-9l-4-1z" fill="#EDFEFE"/>
<path transform="translate(454,283)" d="m0 0 2 1-10 12-2 1 1 4-2 2-5-1v-3l4-4h2v-2h2v-2h2v-2l5-5z" fill="#E1FDFD"/>
<path transform="translate(347,440)" d="m0 0 1 3-6 3-4 4-9 5h-2l1-4z" fill="#EFFDFD"/>
<path transform="translate(331,276)" d="m0 0h2v6l-7 7-1-2h-2l-1-3z" fill="#DFFDFD"/>
<path transform="translate(364,243)" d="m0 0 3 1-6 7-5 4-6 5-1 3-5 2 2-4z" fill="#E1FDFD"/>
<path transform="translate(327,206)" d="m0 0 2 3 2 17-1 8h2v2l-4 2v-17l-1-7z" fill="#F4FFFF"/>
<path transform="translate(399,302)" d="m0 0h4l1 7-7 2h-2l1-6z" fill="#F0FEFE"/>
<path transform="translate(327,310)" d="m0 0 2 3v7l3 11-1 6h-2l-3-26z" fill="#F4FFFF"/>
<path transform="translate(402,391)" d="m0 0h11l1 2-5 3-7 1-1-5z" fill="#E2FDFD"/>
<path transform="translate(453,299)" d="m0 0m-1 1m-1 1m-1 1m-1 1m-1 1m-1 1m-1 1m-1 1m-1 1m-1 1m-1 1m-1 1 3 4-2 2-4-1-1 4h-3v3l-3-1 6-7z" fill="#DAFDFD"/>
<path transform="translate(406,380)" d="m0 0 4 2 1 6h-8l1-7z" fill="#8BAFC2"/>
<path transform="translate(474,280)" d="m0 0 4 2 4 4h-2l-1 4-2 1 1-5zm1 11 2 1-5 4 2-4zm-5 5 2 1-6 6-2-1z" fill="#EEFDFD"/>
<path transform="translate(488,444)" d="m0 0h6l-5 4-10 6-2-1 1-2h3l2-4z" fill="#ECFDFD"/>
<path transform="translate(413,339)" d="m0 0h1l1 6-5 4-5-1 6-7z" fill="#DCFDFD"/>
<path transform="translate(451,400)" d="m0 0 4 2-2 4-4 1-4-2 1-3 1 1 1-2z" fill="#EDFEFE"/>
<path transform="translate(423,304)" d="m0 0 1 3-5 5-3-1h2v-2l-8 6 2-4 6-6 2 1z" fill="#E9FEFE"/>
<path transform="translate(467,285)" d="m0 0 2 2-1 5-4 3v-3l-3-1 5-5z" fill="#DBFDFD"/>
<path transform="translate(354,199)" d="m0 0h9l1 3-4 1-2-1-17-1v-1z" fill="#E6FDFD"/>
<path transform="translate(436,251)" d="m0 0 4 1-1 4-3 2h-6l4-6z" fill="#F4FDFD"/>
<path transform="translate(422,344)" d="m0 0h2l-2 4-5 5-6 5-2-1 8-8z" fill="#E3FDFD"/>
<path transform="translate(402,321)" d="m0 0 1 2h3l-2 4-4 2-1-6z" fill="#EFFEFE"/>
<path transform="translate(450,273)" d="m0 0 2 1-2 3-1 5-4-1 1-4z" fill="#F2FDFD"/>
<path transform="translate(497,438)" d="m0 0 2 4-2 4-1-2h-6l3-3h2v-2z" fill="#F4FEFE"/>
<path transform="translate(331,276)" d="m0 0h2v6l-5 1-3-1z" fill="#F3FEFE"/>
<path transform="translate(330,252)" d="m0 0h2l-2 4-5 4-2-1v-2l4-4z" fill="#F1FDFD"/>
<path transform="translate(407,347)" d="m0 0 3 1-2 4-2 1-5-2 3-3z" fill="#ECFEFE"/>
<path transform="translate(354,253)" d="m0 0 2 1-6 6-1 3-5 2 2-4z" fill="#E5FDFD"/>
<path transform="translate(463,303)" d="m0 0v3l-4 6-6 3v-2l6-5z" fill="#EBFDFD"/>
<path transform="translate(463,201)" d="m0 0h12l1 5-6-3-7-1z" fill="#F4FFFF"/>
</svg>
