<?xml version="1.0" encoding="UTF-8"?>
<svg version="1.1" viewBox="0 0 1000 1000" width="1000" height="1000" xmlns="http://www.w3.org/2000/svg">
<path transform="translate(496,224)" d="m0 0h6l7 6 8 7 7 7 1 4 4 1 3 5 6 6-1 4-7 8-22 22-1 3-6 4-29 29-1 3-5 3-4 6-5 3-16 16v8l2 3h7l37-37 3-1 3-5 6-4 3-5 6-4 3-5 5-3 4-6 5-3 7-7 2-4 4-2 4 1 8 7 7 8 10 9 9 9v9h-2l-2 5-57 57-3 1-3 5-4 3h-2l-2 5-5 4-3 2-1 7 4 5h5l7-6 1-2h2v-2l6-5 1-2h2v-2h2v-2l6-5 1-2h2v-2h2v-2l5-5h2v-2h2v-2l6-5 1-2h2v-2h2v-2l5-5h2v-2h2v-2l6-4 1-3h2v-2h2v-2l5-5h2v-2h2v-2h2v-2l8-6 1-3 5-5h6l15 15 3 1 1 3 5 3 7 7 3 5v9h-2v2l-4 3-1 3-4 2-5-1-9-7-4-5-4-3h-6l-9 8-5 5-6 7-6 5-5 6-53 53-5 4-4 5-6 3-4-1-41-41v-4l6-5 1-2h2v-2l8-7 69-69 1-6-7 2-4 5-5 4-4 5-5 4-7 8-57 57-3 2-5-1-4-5-6-5-7-8-11-11-8-7-5-5-2-4 62-62 7-8 8-7 9-9 5-3 4-6 4-5 1-5-5 2-6 7h-2v2h-2v2l-5 5-4 2v2h-2l-2 4-8 7-6 7-5 5-7 6-4 5-5 4-1 2h-2v2l-6 5-1 2h-2l-2 4-5 5h-2v2h-2l-2 4-12 12-4 2v2l-5 5-12 11-5 2v2l-5-1-7-6-4-5v-8l4-1 2-5zm2 12-5 5-4 3v2h-2l-5 6-2 1v2h-2v2h-2l-5 6-2 1v2h-2v2h-2l-1 2-4 2v3l-4 1v3l-5 2v3h-2v2h-2l-5 6-4 2v3l-4 1-3 5-2 1v2h-2l-7 8-2 1v2h-2l-5 6-5 5-8 7-7 8-5 5-8 7-2 5-4 2-1 4h7v-2h2l7-8 2-1v-2h2l5-6 4-2 3-5 6-5v-2h2l5-6 2-1v-2h2l7-8 2-1v-2h2l5-6 2-1v-2h2l7-8 2-1v-2h2l7-8 9-9 4-2 3-5 22-22h8l7 8h2l2 8-9 11-68 68-10 9-8 8-2 3v6l5 5h2v2h2v2h2l2 4 3 3h2v2h2v2l3 1 2 4 4 2h4v-2l4-2 5-5v-2l4-2 5-5v-2h2v-2l4-2 3-3v-2h2v-2l4-2 5-5v-2h2v-2l4-2 5-5v-2h2v-2l4-2 3-3v-2h2v-2l4-2 5-5v-2h2v-2l4-2 3-3v-2h2v-2h2v-2h10l4 4h2v2l5 5v4l-9 11-8 7-8 8v3l-4 1-5 5v3l-4 1-5 5v3l-4 1-7 7v3l-4 1-4 5-8 7-13 13v3h-2v6l5 5h2v2h2v2h2l2 4 6 4 1 3 5 3 4 4 5-1 3-1 2-4 3-1v-2l4-2 2-4 3-1v-2h2v-2l4-2v-2l4-2 5-5v-2l4-2 3-3v-2h2v-2l4-2 3-3v-2h2v-2l4-2v-2l3-1v-2h2v-2l4-2v-2l4-2 1-3 4-2v-2l4-2 1-3h2v-2h2v-2l4-2 3-3v-2h2v-2h2l1-3 5-3 8 2v2h2v2h2l1 4 5 5h3v2l3 2h3l-1-6-1-2h-2l-2-5-6-5-1-3-4-1-1-4-5-3-1-1h-6l-3 5-16 16-8 7-7 8-62 62-6-1-15-15-2-3v-6l10-10 6-4 3-3 3-5 28-28 6-4 29-29v-6l-3-3-3-5-3-3h-2v-2h-2l-2-4-3-3h-2l-2-4-5 1-5 3-4 6-8 7-2 1v2h-2v2l-4 2-3 3-3 5-6 4-3 5-5 3-4 6-5 3-4 6-5 3-4 6-17 17-8 1-5-5-12-11v-6l3-3v-2h2v-2l4-2 5-5v-2h2v-2l4-2 3-3v-2h2v-2l4-2 5-5v-2h2v-2l4-2 3-3v-2h2v-2l4-2 5-5v-2l4-2 5-5v-2l4-2 5-5v-2l4-2 20-20v-8h-2l-2-5-6-5-1-2h-2v-2l-5-4h-2l-2-4z" fill="#124174"/>
<path transform="translate(431,613)" d="m0 0 5 1 4 3v2l4 1 5 2v2l6 2 5 4 5 3v2l4 1 5 3 2 1v2l6 2 3 3 5 3 8 6 7 4 4 2v2h2v2l8-5 8-6 6-2v-2l6-3 8-6 5-3 6-4h2v-2l8-4 6-5 8-4 7-7h6l1 1v153l-3 8-5 1h-29l-5-3-1-1v-83l-13 9h-2v2l-8 5-11 7-4 3h-6l-5-4v-2l-6-2-10-7-5-4-5-3-6-2 1 55v24l-2 5-10 1h-26l-4-1z" fill="#03376D"/>
<path transform="translate(131,611)" d="m0 0h29l1 1h14 4l12 1 1 1v37l-1 2-3 1h-68l1 18 57 1v40l-3 2-54 1-1 10-1 1v5l70 1 3 3v37l-1 2-3 1h-107l-3-1v-162l52-1z" fill="#03376D"/>
<path transform="translate(202,611)" d="m0 0h5l1 1 43 1 7 9 5 9v2h2l5 8 8 10 2 5 3-1 4-7 2-4h2l2-5 4-5 3-5 2-3h2l2-6 3-5 5-4h6l1 1h16 4l6-1 1 1 14 1-2 5-10 13-3 6h-2l-2 5-3 5h-2l-1 4-6 8-7 9-2 5h-2l-2 5h-2l-1 4-7 9-1 6h2v2l3 1 5 8 3 3 3 5 6 8 5 9v2h2l4 5 3 5 6 8 5 9v2h2l4 7-1 5h-40l-7-2-8-9-3-5-6-9-2-4-2-1-2-5-3-3-3-5h-4l-2 2-2 5-11 15-7 10-1 3h-2v2h-2l-2 4-7 2h-40l-3-1 1-5 7-7 4-8 5-6 1-3 3-3 3-5 4-4 3-5 4-7h2l2-5 8-11 4-6 3-5-1-5-7-10-6-8-3-5-6-8v-3h-2l-8-12-8-10-2-4v-3h-2l-5-7v-2h-2l-2-5z" fill="#02366D"/>
<path transform="translate(853,611)" d="m0 0h27l1 1 32 1v37l-3 3-11 1-55 1-3 4v8l7 5 31 1 1 1 8 1 11 6 8 6 4 4 3 5 4 7 2 6v6h2v18h-2v8l-6 11-6 8-8 7h-2v2l-6 2-4 3-11 2h-69l-4-1v-41l1-1h26l1 1h7l1-1h13l1 1h5l1-1 16-1 2-1v-14l-4-1-29-1-9-2-12-5-6-4-7-6-5-7v-3h-2l-3-10-2-3v-23l2-4 2-7 3-5 6-8 6-6 5-3 6-4h4v-2l19-1z" fill="#03376D"/>
<path transform="translate(665,611)" d="m0 0h10l2 1h17l6-1 4 2 1 104 3 9 7 6h17l6-6h2l2-6 1-1 1-106h42l1 1v104l-1 1-3 16-7 13-5 7h-2v2h-2v2l-5 5-6 3-6 4-9 3-9 2h-13l-16-3-12-6-1-2-6-3v-2h-2v-2l-4-2-5-6v-3h-2l-5-9-2-6-1-8-1-1v-110z" fill="#01356C"/>
<path transform="translate(394,371)" d="m0 0 5 1 5 3 60 60 1 4 5 2 28 28 4-2 76-76 4-1 1-4 7-5 3-5 3-3h11v2h2v2l5 2 4 6-1 4-1 2h-2v2l-8 7-4 5h-2v2h-2v2h-2v2h-2v2l-3 3h-2v2h-2l-1 4-5 3-1 2h-2l-1 4h-3v2h-2l-2 5-2 2h-3v2l-4 3-1 3-4 1v2h-2v2h-2l-1 4-4 1v2h-2v2h-2l-2 5-5 2-1 4-4 3h-2l-1 4-7 6-6 7-3 1-1 2h-2l-1 4-6 4-5-1-5-3-92-92v-3l-5-2v-3l-4-1-5-6v-2h-2l-2-3 1-4 3-5zm0 13 1 5 3 4h2v2l8 7 1 2h2v2l6 5 1 2h2v2h2v2l6 5 1 2h2v2l6 5 1 2h2v2h2v2l6 5 1 2h2v2l6 5 1 2h2v2h2v2l6 5 1 2h2v2h2v2l5 5h2v2h2v2l6 5 1 2h2v2l8 7 4-2 13-13 2-1v-2h2v-2h2l7-8 5-5 6-5v-2h2l5-6 2-1v-2h2l5-6 2-1v-2h2l7-8 31-31 2-1v-2h2l2-3v-6l-5 2-4 4-4 2-3 5-28 28v2l-4 2-2 4-3 1v2l-4 2-2 4-4 2-7 7v2l-4 2-5 5v2l-4 2-10 10-6 4-4 3h-5l-3-1-2-4-41-41-2-4-5-3-11-11-2-4-5-3-25-25z" fill="#184677"/>
<path transform="translate(413,630)" d="m0 0 5 1v141l-2 3-4 1h-31l-5-3v-120l5-5 8-4 12-7 5-3z" fill="#0B3E72"/>
<path transform="translate(644,630)" d="m0 0 5 1v144l-4 1h-33l-3-1-1-2v-121l4-4 8-4 5-3 8-5z" fill="#00356C"/>
<path transform="translate(550,237)" d="m0 0h74l3 4v69l-3 4-4-1-3-4v-62l-64-1-4-2-1-4z" fill="#114072"/>
<path transform="translate(376,415)" d="m0 0 5 1 1 2v30l-1 2v15l1 1 1 16h41 3 22v2h2l1 5-2 2h-76l-1-1v-72z" fill="#00356C"/>
<path transform="translate(622,418)" d="m0 0 4 1 1 2v69l-1 1h-74l-1-1v-6l5-2h17l1 1h7l1-1h15l1 1h8l1-1h10v-42l1-20z" fill="#01366C"/>
<path transform="translate(374,237)" d="m0 0h72l1 1v5l-5 3-57 1-2 1-1 25-1 1v11l1 1v20l-2 5h-6l-1-1v-72z" fill="#00356C"/>
<path transform="translate(392,426)" d="m0 0 4 1 1 3 5 3 4 6 3 1v4l5 1 4 4v4h4v4l5 1v4h4v4h2l1 3-2 2h-38l-1-5h-2v-39z" fill="#C71C6C"/>
<path transform="translate(431,613)" d="m0 0 5 1 4 3v2l4 1 5 2v2l6 2 5 4 5 3v2l4 1 5 3 2 1v2l6 2 3 3 5 3 8 6 7 4 4 2v2h2v2l8-5 8-6 6-2v-2l6-3 8-6 5-3 6-4h2v-2l8-4 6-5 8-4 7-7h6l1 1v153l-3 8h-4v-2l3-1 1-157-7 6-5 3-6 4-2 2h-4v2h-2v2l-5 2-8 4-1 3-5 3-8 6h-4v2h-2v2l-6 1-2 3-5 2-1 3-4 2h-7l-5-5-8-3-4-4-5-3-4-2v-2l-4-2-4-1v-2h-2v-2l-5-1-1-3-3-1v-2l-5-1-3-1-2-4-7-3-5-2v-2l-6-2-4-3 1 100v30l-2 1z" fill="#B5C0CD"/>
<path transform="translate(409,253)" d="m0 0h22l2 4-4 6-17 17-1 4h-4v4l-4 1-1 4h-10l-1-1v-34l1-1 8-1 1-1h8z" fill="#C41868"/>
<path transform="translate(602,431)" d="m0 0 5 1 2 4v7l-1 1-1 18h2v4h-2l-1 5h-41l-1-4 14-14h4l1-5 3-1 1-3h4v-4l5-3 4-2v-2h2z" fill="#C3387C"/>
<path transform="translate(569,255)" d="m0 0h4v2h35l1 1v39l-5-1-11-11-4-1v-4l-4-1-1-4h-4v-4h-4l-1-5h-4l-2-5z" fill="#C41C6B"/>
<path transform="translate(376,613)" d="m0 0h42v8l-3 5-5 3-3 2h-7v4l-6 1-1 3-5 1-2 4h-8l-1-13-1-1z" fill="#C61768"/>
<path transform="translate(609,613)" d="m0 0h40v8l-3 5-8 4-5 1v2l-8 3-3 3-5 3-2 2h-6z" fill="#C81668"/>
<path transform="translate(364,539)" d="m0 0h6l7 2 5 3 5 5v19l-8 8-3 1h-14l-7-4v-2h-2l-2-3-1-8-1-5 3-7 6-6zm1 9-4 2-3 6v5l2 5h2v2h13l3-3v-12l-1-3-4-2z" fill="#0C3E72"/>
<path transform="translate(699,539)" d="m0 0 5 1 8 3 4 5 2 4v13l-5 8h-2v2l-5 2h-10l-7-2-3-2v-2h-2v-2h-2l-2-5v-11l4-6 5-5 9-2zm-1 8-5 2-4 4v10l3 5h14l3-3 1-8-2-7-8-3z" fill="#114173"/>
<path transform="translate(572,539)" d="m0 0h9l8 5v4l-6 1h-11l-4 4v11l1 4h13v-4l-7-2-2-4 3-3h15l1 4v7l-3 9-5 2h-13l-7-3-4-4-2-6v-9l4-9h2v-2z" fill="#02366C"/>
<path transform="translate(495,540)" d="m0 0h23l2 2v6l-1 1-18 1 2 4 14 1 3 4-3 3-14 1-1 5h17l1 1v6h-2v2h-20l-5-2v-32z" fill="#0E3E71"/>
<path transform="translate(665,611)" d="m0 0h10l2 1h17l6-1 4 2 1 104 3 9 3 2v2l-5-1v-4h-2v-7l-3-1v-102l-37-1v103l-1 6h-1v-110z" fill="#97A6B8"/>
<path transform="translate(744,613)" d="m0 0h42l1 1v104l-1 1-3 16-7 13-1-4h2l1-5 3-5v-7l3-1v-112h-39v109h-2v4l-5 5h-2v2l-5 1h-13l-1-2 15-1 6-6h2l2-6 1-1z" fill="#94A4B7"/>
<path transform="translate(297,539)" d="m0 0 5 1 9 2 1 6-1 1h-15l-4 2-2 3v9l4 4 18 1 2 3-5 5-2 1h-11l-7-2-5-3-2-4-2-7v-5l3-8 6-6z" fill="#154476"/>
<path transform="translate(622,418)" d="m0 0 4 1 1 2v42h-3v-42h-3v19l-2 3v41l-1 1-65 1 1 3 70 1v-15h3v15l-1 1h-74l-1-1v-6l5-2h17l1 1h7l1-1h15l1 1h8l1-1h10v-42l1-20z" fill="#94A4B7"/>
<path transform="translate(536,319)" d="m0 0h6l3 3v7l-76 76h-4v2h-2l-2 4h-3l4-5h2v-2l8-7 69-69 1-6-7 2-4 5-5 4-4 5-5 4-7 8-57 57-3 2-5-1-4-5 2-1v2h2l3 3 6-4 60-60 3-5 6-4 3-5 4-1 1-4z" fill="#8F9FB3"/>
<path transform="translate(596,373)" d="m0 0h11v2h2v2l5 2 4 6-1 4-1 2-2-1 1-7h-2v-2h-2l-3-3v-2h-2v-2l-7 1-79 79h-4l-1 5-13 13h-6l-8-8-2-1v-4l-4-1-17-17v-2l5 2 28 28 4-2 76-76 4-1 1-4 7-5 3-5z" fill="#91A1B5"/>
<path transform="translate(853,611)" d="m0 0h27l1 1 32 1v37l-3 3h-10l1-3 5 1 4-1v-35h-71l-1 1-8 1-4 1v3l-5 3-5 5h-3l-1 4-4 4-1 4h-2v4h-2v6l-1 1-1 23h2l2 5v6h2v2l3 1v4h2v4h3l8 8 4 1v2l5 1 6 2v2l-10-3-9-5-8-7-5-7v-3h-2l-3-10-2-3v-23l2-4 2-7 3-5 6-8 6-6 5-3 6-4h4v-2l19-1z" fill="#8596AC"/>
<path transform="translate(561,330)" d="m0 0 1 3-5 5h-2v2h-2v2h-2v2h-2l-2 4-3 4-5 3-57 57v7l1 3 4 2 10 10 5-1 68-68 2 1-7 8-63 63-6-1-16-16-2-3v-6l11-11 6-4 6-8 28-28 6-4z" fill="#7588A1"/>
<path transform="translate(376,415)" d="m0 0 5 1 1 2v30l-1 2v15l1 1 1 16h41 3 22v2h2l1 5-2 2h-76l-1-1v-72zm1 1-3 5v67l2 2h72l2-4-1-1h-67l-1-4-1-1-1-64z" fill="#607692"/>
<path transform="translate(374,237)" d="m0 0h72l1 1v5l-5 3-57 1-2 1-1 25-1 1v11l1 1v20l-2 5h-6l-1-1v-72zm2 2-2 2v67l2 2h3l1-61 2-1v-2h2v-2h59l3-3-2-2z" fill="#8496AC"/>
<path transform="translate(644,630)" d="m0 0 5 1v144l-2-1 1-142h-4v2l-8 4-3 3-4 2h-4v2l-7 3-1 2-4 2h-3l1 123h-2l-1-2v-121l4-4 8-4 5-3 8-5z" fill="#90A0B4"/>
<path transform="translate(413,630)" d="m0 0 3 1-3 3-5 3-6 4h-4v2l-8 3-4 1v3l-7 3v119l1 3-4-2v-120l5-5 8-4 12-7 5-3z" fill="#72869F"/>
<path transform="translate(430,541)" d="m0 0 6 1v26h16l2 2v5l-5 2h-11l-9-1-2-3v-29z" fill="#6C819B"/>
<path transform="translate(120,713)" d="m0 0h57l-2 2-54 1-1 10-1 1v5l70 1 3 3v37l-1 2-2-1 1-38h-70l-3-3v-18z" fill="#8697AD"/>
<path transform="translate(572,539)" d="m0 0h9l8 5v4l-6 1h-11l-4 4v11l1 4h13v-4l-7-2-2-4 3-3h15l1 4v7l-3 9-2-1 1-7 1-1v-9h-10l-3 4h5l4 3v5l-3 3h-9v-2l-5-1v-2h-2l-1-9 1-7 5-5h13 3l-1-2h-16l-5 1v2h-2l-1 5v16l6 6 18 1-2 2h-13l-7-3-4-4-2-6v-9l4-9h2v-2z" fill="#8394AA"/>
<path transform="translate(550,237)" d="m0 0h74l3 4v69l-3 3v-74l-74 1 1 4h-2l-1-4z" fill="#9EACBD"/>
<path transform="translate(496,224)" d="m0 0h6l7 6 8 7 7 7 1 4-4-2-20-20-4 2-54 54h-3v2l-5 5h-2v2h-2v2l-3-1z" fill="#99A8BA"/>
<path transform="translate(511,255)" d="m0 0h2l3 6-2 5-8 9-68 68-10 9-7 7-2 3v6l6 5v2h2v2h2l4 6-4-2-1-3h-2v-2h-2v-2l-5-1-4-4v-7l20-20h2l2-4 3-3h2v-2h2l2-4 5-5h2v-2h2l2-4 3-3h2v-2h2v-2h2l2-4 3-3h2v-2h2l2-4 3-3h2l2-4 5-5h2v-2h2v-2h2l2-4 13-13v-7z" fill="#5D7491"/>
<path transform="translate(634,539)" d="m0 0 5 2 1 1v33h-2v2h-5v-2h-2v-33z" fill="#5A718E"/>
<path transform="translate(400,405)" d="m0 0 7 6 89 89h8l5-4-1 4-6 4-5-1-5-3-92-92z" fill="#7D90A7"/>
<path transform="translate(593,331)" d="m0 0h2l-1 5h-2v2l-5 5h-2v2h-2v2l-5 5h-2v2h-2v2l-5 5h-2v2h-2v2h-2v2l-5 5h-2v2h-2v2l-6 4-1 3h-2v2h-2v2l-4 2-1 3h-2v2h-2v2l-5 5h-2v2h-2v2h-2l-2 4-3 3-5 3-9 9-3-1 7-6 1-2h2v-2l6-5 1-2h2v-2h2v-2l6-5 1-2h2v-2h2v-2l5-5h2v-2h2v-2l6-5 1-2h2v-2h2v-2l5-5h2v-2h2v-2l6-4 1-3h2v-2h2v-2l5-5h2v-2h2v-2h2v-2l8-6z" fill="#8496AC"/>
<path transform="translate(577,372)" d="m0 0 1 2h-2l-1 5h-3l-1 4-3 1-1 3h-4l-2 4-3 5h-4v2h-2l-1 5-2 2h-4v2h-2v4h-3v3h-4l-1 5-4 4-3 1-1 3h-4l-2 4-6 8-5 3-3 1v2l-4 2h-8v-2h-2v-2l-4-2-1-3h-2v-2h-2v-2l-4-2-3-3v-2h-2v-2h-2l1-2 2 1v2h2v2h2l3 4 5 3 1 4 4 1 5 5 8-1 2-5h3v-2l5-4 4-5h2v-2l8-7 5-6 6-5 1-2h2v-2l6-5 1-2h2v-2l6-5 1-2h2v-2l8-7 5-6z" fill="#8899AE"/>
<path transform="translate(494,273)" d="m0 0v3l-2 3h-3v2h-2v2h-2v2h-2v2l-6 4-1 3h-2l-2 4-5 5h-2v2h-2v2l-5 2v3h-2v2h-2l-2 4-3 3h-2v2h-2v2h-2v2l-5 5h-2v2h-2v2l-6 4-18 18-1 3h-2v2h-2v3h2l-1 2-4-3 2-4 60-60 7-8 8-7 9-9 5-3z" fill="#8396AD"/>
<path transform="translate(131,611)" d="m0 0h29l1 1h14 4l12 1 1 1v37l-1 2-2-1 1-38-109 1-3 2v-4l52-1z" fill="#98A7B9"/>
<path transform="translate(853,611)" d="m0 0h27l1 1 32 1v37l-3 3h-10l1-3 5 1 4-1v-35l-58-1z" fill="#8192A9"/>
<path transform="translate(570,365)" d="m0 0 2 1-7 8-63 63-6-1-14-14 4 1 11 11 5-1z" fill="#7A8DA4"/>
<path transform="translate(549,294)" d="m0 0 5 5 6 5 16 16v9h-2l-2 5-57 57h-2l2-4 57-57 1-2h2l-1-7-10-10-3-1-7-8-5-5z" fill="#899AAF"/>
<path transform="translate(536,310)" d="m0 0h7l4 3v2h2l-1 2-2-1v-2h-2v-2h-8v2h-2v2h-2l-1 5h-4v2h-2v2h-2v2l-5 5h-2v2h-2v2l-10 8-47 47-2-1 5-6 8-7 1-2h2v-2l6-5 1-2h2v-2l8-7 1-2h2v-2l8-7 1-2h2v-2l6-5 1-2h2v-2l8-7 1-2h2v-2l6-5 1-2h2v-2h2v-2z" fill="#AEB9C8"/>
<path transform="translate(524,258)" d="m0 0 3 2v5h-2l-1 5-20 20h-3l-1 4-5 5-4 2-3 5-5 1-1 5-4 4h-4v2h-2l-1 5-2 2h-4v2h-2l-2 4h-3l4-5h2v-2l6-5 1-2h2v-2l8-7 5-5 5-6 8-7 24-24z" fill="#8C9CB1"/>
<path transform="translate(644,630)" d="m0 0 5 1v144l-2-1 1-142h-4v2l-8 4-3 3-4 2h-4v2l-7 3-6 3-2-1 6-4 5-3 11-6 6-4z" fill="#576F8C"/>
<path transform="translate(495,540)" d="m0 0h23l2 2v6l-1 1-18 1 2 4 14 1 3 4-3 3-14 1-1 5h17l1 1v6h-2v2h-5l4-2v-6l-8 1-3 1-7-2v-7l2-1 14-1-1-3-14-1-1-1v-6l1-1h17v-5l-22 1-2 1z" fill="#8899AE"/>
<path transform="translate(805,733)" d="m0 0h26l1 1h7l1-1h13l1 1h5l1-1h16v3l-70 1v35l2 3h-4v-41z" fill="#8496AC"/>
<path transform="translate(471,688)" d="m0 0 5 1 1 2h-5l1 55v24l-2 5h-9v-2l8 1v-85z" fill="#8F9FB3"/>
<path transform="translate(430,543)" d="m0 0h5l1 26 2 2 15 1-1 3h-22l-1-31z" fill="#00356C"/>
<path transform="translate(314,611)" d="m0 0h6l1 1h16 4l6-1 1 1 14 1-1 3-2-1h-46l-5 6-1 4h-2v2h-2l-1 5-4 4-3 5-1 4-6 5-1 4h-2l-1 5h-6l-1-5h-2l-1-6 4 3 2 5 3-1 4-7 2-4h2l2-5 4-5 3-5 2-3h2l2-6 3-5z" fill="#A8B5C5"/>
<path transform="translate(536,319)" d="m0 0h2v2l3-1 1 2-7 2-4 5-5 4-4 5-5 4-7 8-57 57-3 2-5-1-4-5 2-1v2h2l3 3 6-4 60-60 3-5 6-4 3-5 4-1 1-4z" fill="#637994"/>
<path transform="translate(117,653)" d="m0 0h52v1h-49l1 18 57 1v40h-1l-1-38-58-1-1-1z" fill="#7589A1"/>
<path transform="translate(251,685)" d="m0 0 5 4v9l-3 3-1 3h-2l-2 4-1 4-3 2-2 5h-2v2h-2v2h-2l-1 5-6 8-4 6-2 5h-4l-1 5h-2v4l-3 1-2 6-3 3-1 3-4 2-1 4h-2l1-5 7-7 4-8 5-6 1-3 3-3 3-5 4-4 3-5 4-7h2l2-5 8-11 4-6 3-5-1-5-2-2z" fill="#8697AD"/>
<path transform="translate(622,418)" d="m0 0 4 1 1 2v42h-3v-42h-3v19l-3 2v-22z" fill="#9AA9BB"/>
<path transform="translate(591,613)" d="m0 0h4v155l-2 7h-4v-2l3-1 1-157-7 5 2-4z" fill="#556D8B"/>
<path transform="translate(383,482)" d="m0 0h41 3 22v2h2l-1 3-1-1-67-1z" fill="#A3B1C1"/>
<path transform="translate(465,439)" d="m0 0 5 2 28 28 4-2 12-12 2 1-2 4-12 12h-6l-8-8-2-1v-4l-4-1-17-17z" fill="#8193A9"/>
<path transform="translate(744,614)" d="m0 0h1v109h-2v4l-5 5h-2v2l-5 1h-13l-1-2 15-1 6-6h2l2-6 1-1z" fill="#5D7491"/>
<path transform="translate(896,680)" d="m0 0 4 2 6 4 5 5 3 5 4 7 2 6v6h2v18h-2v8l-6 11-1-4h2v-4h2v-6l1-1v-25l-1-1v-6h-2v-4h-2l-2-5-12-12-3-1z" fill="#91A1B5"/>
<path transform="translate(609,613)" d="m0 0h40v8h-1v-7h-38v24l6-2 3-2 6-2 5-1 3 2-8 3-3 3-5 3-2 2h-6z" fill="#C3C9D6"/>
<path transform="translate(364,546)" d="m0 0h9l5 2 2 5 1 1v10l-4 6-4 2h-8l-8-5v-14h2l1-5h4zm1 2-4 2-3 6v5l2 5h2v2h13l3-3v-12l-1-3-4-2z" fill="#7488A0"/>
<path transform="translate(364,539)" d="m0 0h6l7 2 5 3 5 5v19l-3 3v-5h2v-12h-2l-2-7-5-3h-16l-6 4-2 4-1 14h2l1 5h-2l-2-3-1-8-1-5 3-7 6-6z" fill="#7487A0"/>
<path transform="translate(379,416)" d="m0 0h2l1 2v30l-1 2v15l1 1 1 17-4-3z" fill="#7689A2"/>
<path transform="translate(664,614)" d="m0 0h1v114h2v9l3 1v4h2l1 5h-2l-5-9-2-6-1-15z" fill="#556D8B"/>
<path transform="translate(699,539)" d="m0 0 5 1 8 3 4 5 2 4v13l-3 3v-4h2v-10h-2l-3-8-4-2h-16l-6 4-1 4h-2l1 17h-2l-2-5v-11l4-6 5-5 9-2z" fill="#6E839C"/>
<path transform="translate(549,375)" d="m0 0 2 1-4 7h-2v2h-2v2l-4 2-1 3h-2v2h-2v2l-5 5h-2v2h-2v2h-2l-2 4-3 3-5 3-9 9-3-1 7-6 1-2h2v-2l6-5 1-2h2v-2h2v-2l6-5 1-2h2v-2h2v-2l5-5h2v-2h2v-2l6-5z" fill="#A3B0C1"/>
<path transform="translate(693,546)" d="m0 0h11l6 3v4h2v11l-3 6-4 1h-9v-2h-5v-2h-3v-16zm5 1-5 2-4 4v10l3 5h14l3-3 1-8-2-7-8-3z" fill="#6A7F99"/>
<path transform="translate(297,539)" d="m0 0 5 1 9 2 1 6-1 1h-9l-6-1v-2h6l1 1h7l-2-3h-16l-4 2-3 5-1 1-1 14h2l2 5 1 2-4-1-2-4-2-7v-5l3-8 6-6z" fill="#798CA4"/>
<path transform="translate(380,248)" d="m0 0h2v25l-1 1v11l1 1v20l-2 2-1-2v-57z" fill="#7387A0"/>
<path transform="translate(431,613)" d="m0 0 5 1 4 3v2l4 1 5 2v2l6 2 5 4 5 3v2l4 1 5 3 2 1v2l6 2 3 3 3 2-7-1-2-2-4-1v-2h-2v-2l-5-1-1-3-3-1v-2l-5-1-3-1-2-4-7-3-5-2v-2l-6-2-5-3z" fill="#A7B4C4"/>
<path transform="translate(449,432)" d="m0 0 7 6 36 36 2 1v4l4 1 3 2h-5l-47-47z" fill="#7C8EA6"/>
<path transform="translate(617,244)" d="m0 0 4 3v17l-2 2-1 38h-1v-57l-46-1v-1z" fill="#B3BECC"/>
<path transform="translate(534,459)" d="m0 0 1 3-4 5-3 1-2 5-10 10-5 2-3 3-1 4h-2v2h-9v-3h-2l-3-5 4 2 4 4 4-2 13-13h2v-2h2v-2h2l2-4 5-5h2l2-4z" fill="#96A5B8"/>
<path transform="translate(458,284)" d="m0 0 2 1-6 8-6 5h-2l-1 4-22 22h-3l2-4 5-5h2v-2h2l2-4 3-3h2v-2h2l2-4 5-5h2v-2h2l2-4z" fill="#8E9EB2"/>
<path transform="translate(702,613)" d="m0 0h2l1 104 3 9 3 2v2l-5-1v-4h-2l-2-10z" fill="#D1D8E1"/>
<path transform="translate(394,371)" d="m0 0 5 1 5 3 39 39-3 1v-2h-2v-2h-2v-2l-4-2-1-3h-2v-2h-2v-2h-2l-5-5v-2h-2l-7-8-6-5v-2l-5-2-6-2v2l-6 2z" fill="#D1D8E1"/>
<path transform="translate(634,543)" d="m0 0h5v14l-1 1-1 9 2 1v4l-2 3h-3z" fill="#00356C"/>
<path transform="translate(494,273)" d="m0 0v3l-2 3h-3v2h-2v2h-2v2h-2v2l-6 4-1 3h-2l-2 4-5 5h-2v2h-2v2l-5 2v3l-5 1 6-7 5-5 7-8 8-7 9-9 5-3z" fill="#9BA9BB"/>
<path transform="translate(601,348)" d="m0 0 6 2 2 1v2h2v2h2l3 5 3 3 3 1v2l6 2-2-7 4 2v8h-4l-5-3-15-15h-9l-1 3h-2v2h-2l-2 4h-3l4-5h2v-2h2l1-4z" fill="#899AAF"/>
<path transform="translate(784,662)" d="m0 0h1l1 15v42l-3 16-7 13-1-4h2l1-5 3-5v-7l3-1z" fill="#566E8C"/>
<path transform="translate(495,235)" d="m0 0h10v4h3l3 5-4-2-5-5h-6l-2 4-3 3h-2v2h-2l-2 4-3 3h-2v2h-2v2h-2l-2 4-3 3h-2v2h-2v2h-2l-1 3h-2l2-4 15-15 5-6 8-7 1-2h2z" fill="#7B8EA5"/>
<path transform="translate(549,688)" d="m0 0h6l1 1 1 83 2 3-4-1-1-84-4 1-10 7-2-1 4-4 5-3z" fill="#576F8C"/>
<path transform="translate(491,331)" d="m0 0 1 4-6 4-17 17-1 2h-2v2h-2v2h-2v2h-2l-1 3h-2v2h-2l-2 5h-11l-3-3-1-8 2-1 2 9 1 1h7l37-37 3-1z" fill="#BBC5D1"/>
<path transform="translate(394,381)" d="m0 0 4 1 6 4 4 5 8 7 14 14-3 1-27-27-6-2 2 5 2 4-5-1v-10z" fill="#8798AD"/>
<path transform="translate(603,390)" d="m0 0 1 3-11 11-5 4-1 4-5 2-3 3-1 4h-2v2l-5 2-2 5-6 1 6-7 29-29h2v-2h2z" fill="#94A3B6"/>
<path transform="translate(598,326)" d="m0 0h6l15 15 3 1 1 3 5 3 7 7 1 4-4-2-26-26h-11z" fill="#8899AE"/>
<path transform="translate(624,475)" d="m0 0h3v15l-1 1h-71v-1h69z" fill="#72869F"/>
<path transform="translate(853,611)" d="m0 0h27l1 1 29 1v1h-58z" fill="#8F9FB3"/>
<path transform="translate(415,675)" d="m0 0 2 1v97l-1 2-4-1 2-2z" fill="#59708E"/>
<path transform="translate(280,728)" d="m0 0 4 2 3 3 3 5 2 2 2 5 2 1 2 5-1 3-4-7-2-1-2-5-3-3-3-5h-4l-2 2-2 5-8 11h-1v-5l3-2 2-5h2v-2h2v-4h2v-2h2z" fill="#7B8EA5"/>
<path transform="translate(437,293)" d="m0 0 2 1-1 3-4 1-2 5-3 1v2h-2l-2 4-5 5h-2v2h-2l-2 4-3 3h-2l-2 4-7 7-2-1 7-7 1-3 8-7 18-18 1-2h2v-2h2z" fill="#8698AD"/>
<path transform="translate(596,373)" d="m0 0h11v2h2v2l5 2 4 6-1 4-1 2-2-1 1-7h-2v-2h-2l-3-3v-2h-2v-2l-7 1-16 16-3-1h2l1-4 7-5 3-5z" fill="#8092A9"/>
<path transform="translate(511,255)" d="m0 0h2l3 6-2 5-8 9-27 27v-3l12-13h2v-2h2v-2h2l2-4 13-13v-7z" fill="#617893"/>
<path transform="translate(564,544)" d="m0 0 2 1-1 2h-2l-1 5v16l6 6 18 1-2 2h-13l-7-3-4-4-2-6v-9l4-9h2z" fill="#7387A0"/>
<path transform="translate(473,423)" d="m0 0 3 1v2h2v2h2l3 4 5 3 1 4 4 1 5 5 8-1 2-5 7-3 3-2-2 4-6 4-3 1v2l-4 2h-8v-2h-2v-2l-4-2-1-3h-2v-2h-2v-2l-4-2-3-3v-2h-2v-2h-2z" fill="#70859E"/>
<path transform="translate(841,656)" d="m0 0v3 8l7 5 31 1 1 1 8 1 8 4-4 1-5-3-14-1-1-1-28-1v-2h-2v-2l-3-1v-11z" fill="#637995"/>
<path transform="translate(608,258)" d="m0 0h1v39l-5-1-2-3 2-4 2-1v-13l1-4z" fill="#93A3B6"/>
<path transform="translate(184,733)" d="m0 0h5l3 3v37l-1 2-2-1 1-38h-5z" fill="#94A3B6"/>
<path transform="translate(841,733)" d="m0 0h12l1 1h5l1-1h16v3h-36z" fill="#7D90A7"/>
<path transform="translate(486,371)" d="m0 0v3l-33 33-3 2-5-1-4-5 2-1v2h2l3 3 6-4z" fill="#637995"/>
<path transform="translate(488,301)" d="m0 0 2 1-2 4-5 1-1 5-4 4h-4v2h-2l-1 5-2 2h-4v2h-2l-2 4h-3l4-5h2v-2l6-5 1-2h2v-2l8-7 5-5z" fill="#7387A0"/>
<path transform="translate(483,649)" d="m0 0h6l3 3 5 3 9 6 3 1v2h2v2l3-2h6l-4 3h-7l-5-5-8-3-4-4-5-3z" fill="#91A1B5"/>
<path transform="translate(131,611)" d="m0 0 4 1 20 1v1l-74 1-3 2v-4l52-1z" fill="#5F7692"/>
<path transform="translate(291,548)" d="m0 0h5l-6 6v9l4 4 18 1v1h-8v3h-8l-6-4v-2l-2-1v-14l3-1z" fill="#687D98"/>
<path transform="translate(644,630)" d="m0 0 4 1-3 1-1 2-8 4-3 3-4 2h-4v2l-7 3-6 3-2-1 6-4 5-3 11-6 6-4z" fill="#9CAABC"/>
<path transform="translate(413,630)" d="m0 0 3 1-3 3-5 3-6 4h-4v2l-8 3-4 1v2l-7 2 2-3 8-4 12-7 5-3z" fill="#99A8BA"/>
<path transform="translate(833,613)" d="m0 0h19v1l-13 1-1 1-8 1-4 1v3l-5 3-5 5h-3v2l-4 2 2-4 7-7 5-3 6-4h4z" fill="#99A8BA"/>
<path transform="translate(514,455)" d="m0 0 2 1-2 4-12 12-5-1-8-8-2-1 1-3 10 10 4-2z" fill="#9DABBD"/>
<path transform="translate(497,394)" d="m0 0 2 1-17 17v7 3l-4-5v-6l11-11 6-4z" fill="#8798AD"/>
<path transform="translate(202,611)" d="m0 0h5l1 1 43 1 3 4-1 2-4-4-46-1 1 4h-2l-2-5z" fill="#8596AC"/>
<path transform="translate(450,487)" d="m0 0h2l-2 4h-74v-1l72-1z" fill="#5B728F"/>
<path transform="translate(295,638)" d="m0 0 2 1-2 2-1 4-6 5-1 4h-2l-1 5h-6l-1-5h-2l-1-6 4 3 2 5 3-1 4-7 2-4h2l2-5z" fill="#8798AE"/>
<path transform="translate(407,335)" d="m0 0 2 1-7 7-3 5-10 10-5 2v2l-4 2 2-4 5-5h2v-2h2l2-4 3-3 3-1 3-5z" fill="#AEBAC9"/>
<path transform="translate(501,224)" d="m0 0 8 6 8 7 7 7 1 4-4-2-20-20z" fill="#91A1B4"/>
<path transform="translate(601,359)" d="m0 0 4 1 3 3 6 3 2 5 6 4 1 1h5l2-4 4-1-3 6-4 2-5-1-9-7-4-5-4-3-5-1z" fill="#8798AD"/>
<path transform="translate(325,721)" d="m0 0 4 3 5 9v2h2l4 5 3 5 2 5-2-1v-2h-4l-2-5-6-8-3-5v-2h-2z" fill="#91A1B5"/>
<path transform="translate(460,455)" d="m0 0h2v2l4 2 3 3v2h2v2h2v2l4 2 1 3h2v2h2v2l4 2 3 3v2h-2v-2h-2v-2h-2v-2l-4-2-19-19z" fill="#D1D8E1"/>
<path transform="translate(254,619)" d="m0 0 4 3 5 9v2h2l5 8 4 5v2l-4-2-6-8-3-5-2-2v-4h-2v-2h-2z" fill="#8697AD"/>
<path transform="translate(572,539)" d="m0 0h9l8 5v4l-4 1 2-4-1-1h-16l-4 1 1-3z" fill="#6E829C"/>
<path transform="translate(435,354)" d="m0 0 1 2h-2v2h-2l-2 5 1 5 17 17-4-1-5-5-12-11v-6l4-5h2v-2z" fill="#697E99"/>
<path transform="translate(430,335)" d="m0 0v3l-20 20-1 3h-2v2h-2v3h2l-1 2-4-3 2-4z" fill="#B7C2CF"/>
<path transform="translate(576,555)" d="m0 0h15l1 4v7l-3 9-2-1 1-7 1-1v-9h-10l-3 4h4l-1 2-4-1-2-4z" fill="#8294AA"/>
<path transform="translate(472,361)" d="m0 0 2 1-7 8-14 14h-4l1-3 5-3z" fill="#8092A8"/>
<path transform="translate(471,688)" d="m0 0 5 1 1 2h-6v54h-1v-56z" fill="#5A718E"/>
<path transform="translate(569,355)" d="m0 0 2 1-2 5h-2v2h-2v2h-2v2l-5 5h-2v2h-2v2l-4 2 1-5h2v-2l5-5h2v-2h2v-2l6-4z" fill="#8597AC"/>
<path transform="translate(533,289)" d="m0 0 1 4-27 27-3-1 6-5 1-3 5-3 4-6 5-3 7-7z" fill="#91A0B4"/>
<path transform="translate(689,542)" d="m0 0h2v3l-5 3-1 4h-2l1 17h-2l-2-5v-11l4-6z" fill="#96A5B8"/>
<path transform="translate(693,546)" d="m0 0h11l6 3v4h-2v-3l-10-2-5 2-3 3v10l1 4h-3v-16z" fill="#73879F"/>
<path transform="translate(221,743)" d="m0 0 1 3-3 1-1 5h-2v4l-3 1-2 6-3 3-1 3-4 2-1 4h-2l1-5 7-7 4-8 5-6 1-3z" fill="#A2B0C0"/>
<path transform="translate(338,611)" d="m0 0 5 1 4-1 1 1 14 1-1 3-2-1-45-1v-1l23-1z" fill="#7488A1"/>
<path transform="translate(377,548)" d="m0 0 2 4 2 2v10l-4 6-4 2h-8v-1l7-1 3-1 2-4v-15l-2-1z" fill="#73869F"/>
<path transform="translate(507,530)" d="m0 0 6 1-1 5-3 2-7-1 1-4z" fill="#6782A0"/>
<path transform="translate(590,392)" d="m0 0 1 3-21 21-1-3z" fill="#8092A8"/>
<path transform="translate(571,546)" d="m0 0h13v3h-12l-4 4v11l1 3h-3l-1-9 1-7z" fill="#8596AC"/>
<path transform="translate(634,539)" d="m0 0 5 2v1l-6 1v16l-1 16h-1v-33z" fill="#D1D8E1"/>
<path transform="translate(449,421)" d="m0 0 7 6 8 8 1 4-4-2-12-12z" fill="#97A5B8"/>
<path transform="translate(379,286)" d="m0 0h3v20l-2 2-1-2z" fill="#71859E"/>
<path transform="translate(738,726)" d="m0 0h3l-3 6h-2v2l-5 1h-13l-1-2 15-1z" fill="#AFBBCA"/>
<path transform="translate(495,235)" d="m0 0h10v4h3l3 5-4-2-5-5h-6l-2 4-3 3h-2v2l-4 1 6-7 2-3h2z" fill="#8596AC"/>
<path transform="translate(345,750)" d="m0 0 4 3 5 9v2h2l4 7v2h-3l-2-4v-4l-4-2-1-5h-2v-2h-2z" fill="#8A9AAF"/>
<path transform="translate(805,735)" d="m0 0h10v1l-9 1v35l2 3h-4v-39z" fill="#5B728F"/>
<path transform="translate(377,542)" d="m0 0 4 1 6 6v19l-3 3v-5h2v-12h-2l-2-7-5-3z" fill="#7F91A8"/>
<path transform="translate(577,372)" d="m0 0 1 2h-2l-1 5h-3l-1 4-3 1-1 3h-4l-2 4-3 2 2-5h2v-2l8-7 5-6z" fill="#6F839D"/>
<path transform="translate(561,330)" d="m0 0 1 3-5 5h-2v2h-2v2h-2v2h-2l-2 4-3 3-3-1z" fill="#D2D9E2"/>
<path transform="translate(458,284)" d="m0 0 2 1-6 8-6 5h-2v2l-6 4 2-4 5-5h2v-2h2l2-4z" fill="#AFBBC9"/>
<path transform="translate(496,246)" d="m0 0h8l7 7-1 2-3-2v-2l-11-2-3 4h-2v2h-2l2-4z" fill="#D7DDE5"/>
<path transform="translate(211,627)" d="m0 0 3 2v4h2v2h2l3 5v2h2v2h2l2 5 3 3 1 4h-2l-8-12-8-10-2-4z" fill="#677C97"/>
<path transform="translate(534,415)" d="m0 0v3l-3 5-3 1-1 3h-4l-2 4-7 7-3-1 5-4 4-5h2v-2l8-7z" fill="#A1AFC0"/>
<path transform="translate(433,383)" d="m0 0 3 1v2h2v2l4 1 1 4 8 2v-2l5-2v3h-2v2h-10v-2l-4-2-3-3v-2h-2v-2h-2z" fill="#768AA2"/>
<path transform="translate(584,373)" d="m0 0 4 1-7 6-5 5-7 8v-3l3-5 4-4h3l1-4z" fill="#778AA2"/>
<path transform="translate(540,647)" d="m0 0v3l-4 4h-2v2l-6 1-2 3-5 2-1 2-3-1 4-4 10-6h2v-2l6-3z" fill="#B5C0CE"/>
<path transform="translate(397,335)" d="m0 0v3l-6 6h-2l-2 4-7 7h-2l2-4 2-3h2v-2l11-9z" fill="#91A1B5"/>
<path transform="translate(398,393)" d="m0 0h2v2l4 2 5 5v2h2v2l4 2 3 3v2h-2v-2h-2v-2l-4-2-5-5v-2h-2v-2l-4-2z" fill="#D1D8E1"/>
<path transform="translate(394,381)" d="m0 0 4 1 6 4 2 3-4-1-4-3-4-1 2 5 2 4-5-1v-10z" fill="#8092A9"/>
<path transform="translate(482,295)" d="m0 0m-1 1m-1 1m-1 1m-1 1m-1 1 1 3-17 17v-3l3-4h2v-2h2l2-4 3-3h2v-2h2z" fill="#637995"/>
<path transform="translate(569,255)" d="m0 0h4v2h35v1h-38l-1 3z" fill="#B8C2CF"/>
<path transform="translate(640,624)" d="m0 0 4 1-2 3-5 3h-5v-4z" fill="#C4C5D3"/>
<path transform="translate(417,363)" d="m0 0h1l2 6 5 4v2h2v2h2l4 6-4-2-1-3h-2v-2h-2v-2l-5-1-4-5z" fill="#8596AC"/>
<path transform="translate(362,359)" d="m0 0h2l-2 4 1 4 6 8 7 4-4 1-8-7-4-5v-8z" fill="#7A8DA5"/>
<path transform="translate(597,338)" d="m0 0 1 3-14 14-3 1 2-4z" fill="#7D8FA7"/>
<path transform="translate(431,613)" d="m0 0 5 1 4 3v2l4 1 4 3-1 2-5-2v-2l-6-2-5-3z" fill="#93A2B6"/>
<path transform="translate(379,466)" d="m0 0h3l1 17-4-3z" fill="#798CA4"/>
<path transform="translate(431,414)" d="m0 0 7 6 10 10-3 1-14-14z" fill="#7B8EA5"/>
<path transform="translate(511,255)" d="m0 0h2l3 6-2 5-8 9-5 2 6-7 5-5v-7z" fill="#798CA4"/>
<path transform="translate(696,611)" d="m0 0 5 1v2h-36v-1l29-1z" fill="#677C97"/>
<path transform="translate(534,459)" d="m0 0 1 3-4 5-3 1-2 5-9 9v-3l8-8 2-5 4-2 2-4z" fill="#758CA7"/>
<path transform="translate(502,568)" d="m0 0h17l1 1v6h-2v2h-5l4-2v-6l-8 1-2 1v-2h-5z" fill="#B3BECC"/>
<path transform="translate(437,568)" d="m0 0h15l2 4-15-1z" fill="#D1D8E1"/>
<path transform="translate(375,355)" d="m0 0h3l-2 5-4 3-1 3h7l-1 3-9-2v-3h2l1-5h4z" fill="#98A7B9"/>
<path transform="translate(310,685)" d="m0 0 2 1-4 5-1 6h2v2l3 1 2 6-4-2-3-5-1-1v-9z" fill="#7B8EA5"/>
<path transform="translate(491,410)" d="m0 0 2 1-1 7 4 5 4 2-4 1-6-4-2-4v-3h2z" fill="#91A1B5"/>
<path transform="translate(589,613)" d="m0 0 2 1-4 4-1 3-5 3-6 4-2 2-3-1 8-7 5-3z" fill="#90A0B4"/>
<path transform="translate(853,611)" d="m0 0h11v1l12 1v1h-24z" fill="#5D7490"/>
<path transform="translate(561,432)" d="m0 0 1 3-14 14-3-1 4-2v-2h2l2-4 3-3h2v-2h2z" fill="#D1D8E1"/>
<path transform="translate(623,347)" d="m0 0 5 1 7 7 1 4-4-2-9-9z" fill="#8293AA"/>
<path transform="translate(536,319)" d="m0 0h2v2l3-1 1 2-7 2-4 5-6 4v-3l2-2h3l1-4z" fill="#8798AE"/>
<path transform="translate(782,726)" d="m0 0h2l-1 9-7 13-1-4h2l1-5 3-5v-7z" fill="#7A8DA5"/>
<path transform="translate(520,708)" d="m0 0 4 1-9 6h-6l-5-5h4v2h6z" fill="#8B9CB1"/>
<path transform="translate(231,656)" d="m0 0 3 2 3 5 4 4v4h2v2h2l-1 4-4-5-3-5-6-8z" fill="#71859F"/>
<path transform="translate(501,561)" d="m0 0h13v1l-11 1-1 6h5l-1 2-7-2v-7z" fill="#607693"/>
<path transform="translate(549,375)" d="m0 0 2 1-4 7h-2v2h-2v2l-5 3h-3l3-4h2v-2h2v-2l6-5z" fill="#B1BCCB"/>
<path transform="translate(536,297)" d="m0 0h9v4l4 1 3 2 1 5h-2l-5-6-4-4-8 1z" fill="#7488A1"/>
<path transform="translate(170,733)" d="m0 0h14l1 3h-15z" fill="#556D8B"/>
<path transform="translate(872,673)" d="m0 0h7l1 1 8 1 8 4-4 1-5-3-14-1z" fill="#A1AFC0"/>
<path transform="translate(553,310)" d="m0 0h4l4 4 3 5 1 1v9l-3 4 1-11-3-3-3-5z" fill="#7589A1"/>
<path transform="translate(298,754)" d="m0 0 7 6v4h2v2l4 2 1 5-8-8-3-5-3-4z" fill="#798CA4"/>
<path transform="translate(664,728)" d="m0 0h3v9l3 1v4h2l1 5h-2l-5-9-2-6z" fill="#8294AA"/>
<path transform="translate(818,701)" d="m0 0 5 4 4 1v2l5 1 6 2v2l-10-3-9-5z" fill="#7C8EA6"/>
<path transform="translate(611,343)" d="m0 0 5 3 7 8 2 1 1 5h-2l-2-5-4-2-3-3v-3l-4-1z" fill="#7F91A8"/>
<path transform="translate(467,298)" d="m0 0v3l-2 4h-2v2l-5 2v3l-5 1 6-7 5-5z" fill="#9DABBD"/>
<path transform="translate(525,248)" d="m0 0 4 1 3 5 6 6-1 4-2 2-1-7-9-9z" fill="#8596AC"/>
<path transform="translate(806,688)" d="m0 0 4 1v4h2v4h3l3 4-1 2-6-5-5-7z" fill="#93A2B6"/>
<path transform="translate(281,555)" d="m0 0h2v11h2l2 5 1 2-4-1-2-4-2-7v-5z" fill="#7A8DA4"/>
<path transform="translate(566,416)" d="m0 0 3 1-13 13-2 1 2-5h3v-4z" fill="#94A3B7"/>
<path transform="translate(488,301)" d="m0 0 2 1-2 4-5 1v4l-5 3h-3l7-8z" fill="#A1AEBF"/>
<path transform="translate(556,482)" d="m0 0h8l-1 3-10 1 2 5-4-1v-6z" fill="#8F9FB3"/>
<path transform="translate(547,642)" d="m0 0h6l-5 4-8 6-3-1 3-2 1-3 5-3z" fill="#7D8FA6"/>
<path transform="translate(707,566)" d="m0 0 1 3h-4v2h-8v-2h-5l1-2h14z" fill="#CDD5DE"/>
<path transform="translate(603,390)" d="m0 0 1 3-11 11-3-1 8-8h2v-2h2z" fill="#D1D8E1"/>
<path transform="translate(524,332)" d="m0 0 1 3-8 7-7 8v-3l4-4 3-5 6-4z" fill="#697E98"/>
<path transform="translate(417,303)" d="m0 0 1 4-5 3-3 5-7 7v-3l7-7 3-5z" fill="#657B96"/>
<path transform="translate(483,649)" d="m0 0h6l3 3 3 1 2 4 2 2-4-1-3-3-5-3z" fill="#778AA2"/>
<path transform="translate(639,556)" d="m0 0h1v15l-3-4v-9z" fill="#8F9FB3"/>
<path transform="translate(525,468)" d="m0 0 1 3-11 11-3-1 4-4h2v-2h2v-2h2l2-4z" fill="#D1D8E1"/>
<path transform="translate(755,764)" d="m0 0 4 1-5 4-8 4h-4l1-3 6-2h4v-2h2z" fill="#7B8EA6"/>
<path transform="translate(593,758)" d="m0 0h2v10l-2 7h-4v-2l3-1z" fill="#6A7F99"/>
<path transform="translate(572,539)" d="m0 0h9l4 3h-15z" fill="#D1D8E1"/>
<path transform="translate(603,381)" d="m0 0 4 1v7l-2 5-2-1 1-9h-2z" fill="#788BA3"/>
<path transform="translate(530,303)" d="m0 0 2 1-7 8-5 4v-3z" fill="#7F91A8"/>
<path transform="translate(910,754)" d="m0 0 1 3-9 9-3 1 2-4z" fill="#7D8FA6"/>
<path transform="translate(231,731)" d="m0 0v3l-3 3-3 5-2 5-2-1 2-7z" fill="#8092A9"/>
<path transform="translate(251,685)" d="m0 0 5 4v9l-3 3-2 3 1-5 2-4-1-5-2-2z" fill="#72869F"/>
<path transform="translate(265,635)" d="m0 0 2 1 3 5 4 5v2l-4-2-6-8z" fill="#8F9FB3"/>
<path transform="translate(359,616)" d="m0 0v3l-10 14-1-4 4-4 3-5z" fill="#7589A1"/>
<path transform="translate(508,496)" d="m0 0 1 3-3 3-4 2-5-1-3-2 10-1z" fill="#8092A9"/>
<path transform="translate(457,400)" d="m0 0v3l-7 6-5-1-4-5 2-1v2h2l3 3 6-4z" fill="#5F7692"/>
<path transform="translate(394,371)" d="m0 0 5 1 3 3-1 2-2-2-5-1v2l-6 2z" fill="#9AA8BB"/>
<path transform="translate(387,366)" d="m0 0 4 1-8 7-5 4v-3l3-3h2l2-4z" fill="#8B9CB0"/>
<path transform="translate(601,359)" d="m0 0 4 1 3 3 6 3v3l-4-2-5-4-5-1z" fill="#7D8FA6"/>
<path transform="translate(426,351)" d="m0 0v3l-8 9-2 5h-1v-6z" fill="#58708D"/>
<path transform="translate(691,766)" d="m0 0 5 1 10 3 1 3-6-1-10-5z" fill="#7E90A7"/>
<path transform="translate(316,708)" d="m0 0 4 3 3 5 2 5-2-1v-2h-4l-2-5z" fill="#A3B1C1"/>
<path transform="translate(485,697)" d="m0 0 5 1 9 7 3 1v2l-5-2-12-8z" fill="#7A8DA5"/>
<path transform="translate(326,662)" d="m0 0 2 1-4 5-2 5h-2l-2 5h-1v-5l4-4 1-3h2v-2h2z" fill="#8293AA"/>
<path transform="translate(294,568)" d="m0 0h18v1h-8v2h-7z" fill="#D1D8E1"/>
<path transform="translate(517,434)" d="m0 0v3l-8 6h-2v2l-5 2 1-3h3l2-5 7-3z" fill="#73869F"/>
<path transform="translate(549,688)" d="m0 0h5l-5 4-9 6-2-1 4-4 5-3z" fill="#778BA3"/>
<path transform="translate(564,544)" d="m0 0 2 1-1 2h-2l-1 5-2 4-1 8h-1v-9l4-9h2z" fill="#96A5B8"/>
<path transform="translate(575,421)" d="m0 0 1 2-5 2-2 5-6 1 6-7 2-2z" fill="#8F9FB3"/>
<path transform="translate(593,331)" d="m0 0h2l-1 5h-2v2l-5 5h-3v-3l8-6z" fill="#8F9FB3"/>
<path transform="translate(475,292)" d="m0 0 1 2h-2l-2 4-5 5-2-1 6-9z" fill="#6B83A0"/>
<path transform="translate(692,548)" d="m0 0v3l-2 2v10l1 4h-3v-16z" fill="#657A96"/>
<path transform="translate(364,539)" d="m0 0h6l7 2v1h-16z" fill="#D1D8E1"/>
<path transform="translate(470,410)" d="m0 0 1 3h-2l2 7 2 3-4-2-3-3v-5z" fill="#71859E"/>
<path transform="translate(418,324)" d="m0 0h2l-1 4-5 5h-3l2-4 3-3h2z" fill="#9DABBC"/>
<path transform="translate(450,281)" d="m0 0 1 3h-2v2h-2l-2 4-3 3-3-1z" fill="#7588A1"/>
<path transform="translate(516,329)" d="m0 0 1 2-1 3h-2v2l-6 4 1-5h2v-2z" fill="#93A2B6"/>
<path transform="translate(513,246)" d="m0 0 5 2 5 5 1 5h-2l-2-5-4-2-3-3z" fill="#93A2B6"/>
<path transform="translate(524,403)" d="m0 0 1 2h-2l-2 4-3 3-2-1 2-5h2v-2z" fill="#788DA7"/>
<path transform="translate(496,257)" d="m0 0h6l-4 2-7 8-2-1 3-5z" fill="#778AA2"/>
<path transform="translate(362,568)" d="m0 0h13l-3 3h-7v-2z" fill="#D1D8E1"/>
<path transform="translate(577,372)" d="m0 0 1 2h-2l-1 5h-3v3l-4-1 5-5z" fill="#8E9EB2"/>
<path transform="translate(325,721)" d="m0 0 4 3 4 7-1 2-4-4v-2h-2z" fill="#99A8BA"/>
<path transform="translate(250,701)" d="m0 0 1 3-3 4-1 4-5 2 2-4 4-5z" fill="#99A8BA"/>
<path transform="translate(437,328)" d="m0 0 3 1-2 3h-2v2h-2v2l-3 1 1-4z" fill="#7588A1"/>
<path transform="translate(501,246)" d="m0 0 4 1 6 6-1 2-3-2v-2l-7-2z" fill="#D1D8E1"/>
<path transform="translate(704,719)" d="m0 0 3 4 2 4 2 1v2l-5-1v-4h-2z" fill="#8496AC"/>
<path transform="translate(841,656)" d="m0 0v3 8l4 4-3 1v-2l-3-1v-11z" fill="#71859E"/>
<path transform="translate(591,559)" d="m0 0h1v7l-3 9-2-1 1-7 2-2z" fill="#A1AEBF"/>
<path transform="translate(358,542)" d="m0 0h19v1l-16 1-4 1z" fill="#687D98"/>
<path transform="translate(699,539)" d="m0 0 5 1 4 2h-16v-1z" fill="#D1D8E1"/>
<path transform="translate(297,539)" d="m0 0 5 1 6 1v1h-16l4-2z" fill="#C7CFDA"/>
<path transform="translate(598,326)" d="m0 0h6l2 3-8 1h-3z" fill="#D2D9E2"/>
</svg>
