<?xml version="1.0" encoding="UTF-8"?>
<svg version="1.1" viewBox="0 0 2048 722" width="1000" height="353" xmlns="http://www.w3.org/2000/svg">
<path transform="translate(375,53)" d="m0 0h26l1 1 17 1 1 1 9 1 1 1 11 2 20 6 18 8 24 12 14 10 13 10 13 11 18 18 10 14 8 11 9 15 10 21 3 10 5 11 1 7 1 1 1 7 1 1 1 10 1 1 1 9 1 1 1 13 1 1v35h-2v14l-1 1-1 11-1 1-1 9-1 1-1 7-1 1-1 8-3 7-3 9-5 11-4 8-2 6-6 10-6 6-4 2h-18l-8-6-4-6v-16l7-14 6-16 4-10 4-12 3-19 1-1v-55l-1-1-1-11-5-16-2-8-5-13-9-17-6-11-8-11-5-6-7-8-14-14-5-3-7-6-9-6-14-8-8-4-21-8-22-6-9-1-2-1h-53l-1 1-11 1-7 2-13 4-16 6-22 11-10 7-8 6-8 7-7 7-5 3-8 8-4 6-3 3-3 5-3 3-3 5-4 6-9 17-4 10-3 11-3 7-4 23-1 31v14l4 23 8 26 4 9 9 19 5 7 3 5 4 6 4 5 7 8 19 19 6 4 8 5 9 6 5 3 13 7 9 3 6 3 12 3 8 3 19 3 1 1h52l5-1 11-1 10-2 1-1 9-2 7-4 6-2 10-7 5-10v-15l-5-12-7-10-8-9v-2l-5-2-7-6-8-5-6-4-9-5-1-1v-26l1-1 1-18h6l21 8 11 6 16 12 6 5 8 7 4 6 6 7 6 8 6 10 4 8 3 11 1 1 1 9 1 1v22l-1 1-1 7-3 7-3 9-5 5-3 5-9 9-9 5-8 5-8 4-16 6-16 4-11 1-1 1-16 2h-56l-26-4-20-6-17-6-5-3-6-2-6-4-12-6-8-6-5-3-6-4-5-4-8-7-29-29-4-6-7-9-6-10-6-8-9-19-5-11-6-17-5-17-4-25v-49l2-4v-8l2-7 1-10 5-18 3-10 5-12 15-30 6-8 6-9 7-9 6-7 7-8 7-6 16-14 14-10 16-10 23-11 19-8 12-3 10-3 9-1 1-1 11-1 1-1 21-1z" fill="#FD791D"/>
<path transform="translate(1008,384)" d="m0 0h29l16 3 12 5 10 7 6 7 8 13 5 11 2 8v9l2 2v31l-5 1h-102l2 6 1 7 4 10 4 6 6 4 6 2h18l10-4 9-7 4-4h40l-2 10-8 16-9 10-7 7-11 6-6 2-7 1-1 1h-40l-16-5-9-5-9-7-7-8-7-11-4-11-3-14-1-1v-45l1-1 1-9 7-18 5-9 4-5 5-6 11-7 8-4 9-2zm5 35-11 6-5 8-4 8-1 7-1 2h61l1-1-1-10-7-13-10-6-2-1z" fill="#1C1963"/>
<path transform="translate(1241,384)" d="m0 0h30l15 3 17 9 14 14 3 5 4 10 3 7 1 7 1 1v12h2v28l-1 1h-104l-1 6 4 14 5 8 5 4 8 3h17l9-4 8-5 8-6h38v8l-9 17-6 8-10 10-5 3-12 5-7 2h-41l-1-1-7-1-10-4-9-5-16-16-3-5-5-11-2-4-1-9-1-1-1-11-1-1v-31l1-1 1-13 1-1 2-9 4-10 6-11 3-4h2v-2l10-8 13-7zm3 35-6 4-9 9-4 12v6h61v-6l-6-14-9-9-5-2z" fill="#1C1963"/>
<path transform="translate(651,127)" d="m0 0h131v32l-2 2h-99v41h74l1 1v22l-7 8-4 2h-65v51h102v35h-141v-181l4-9z" fill="#FD781B"/>
<path transform="translate(1810,384)" d="m0 0h33l5 2 7 1 11 4 12 8 6 7 8 14 2 5v12l-1 1h-35l-6-4-6-10-6-4-7-1-1-1h-15l-9 3-5 3v11l5 4 7 4 9 2 5 2 10 1 1 1 7 1 1 1 7 1 7 3 9 3 13 7 10 10 5 11 1 3v20l-2 8-4 10-2 3h-2l-2 5-5 5-10 6-13 5-1 1-11 1-1 1h-43l-1-1-9-1-10-4-10-6-3-3-5-3-5-8-6-12-2-7v-12h43l3 10 3 3 2 4 10 4h31l6-3h2l2-8-1-6-7-5-15-5-33-8-13-5-9-5-4-4-3-1-4-6-3-3-4-9-2-7v-12l5-16 5-9 11-11 15-7z" fill="#1B1963"/>
<path transform="translate(760,384)" d="m0 0h31l16 3 12 5 10 7 5 6 9 16 3 9 1 73 1 1v45l-2 3h-25l-9-3-6-8-1-2-1-25-1-1-1-76-5-8-8-5-4-2h-18l-12 6-4 8-2 38-1 13-1 65h-40l-1-2v-113l4-15 4-9 6-9 8-8 8-5 9-4z" fill="#1E1B64"/>
<path transform="translate(1714,386)" d="m0 0h26l1 1v113l-1 1-1 11-3 8-3 7-6 9-10 8-14 6-6 2-7 1-1 1h-36l-1-1-9-2-10-4-11-6-12-12-5-11-3-11-1-6v-112l1-2h40l1 5v80l1 1v5 3l1 25 8 10 6 2h24l9-5 5-9 1-74 1-1 1-34 8-8z" fill="#1D1B64"/>
<path transform="translate(848,168)" d="m0 0h33l1 1 9 1 10 4 6 4 8 6 5 6 6 13 2 5v8l-1 1h-33l-7-7-4-6-10-5h-18l-1 1-9 1-2 6 1 7 5 5 6 3 6 2 7 1 1 1 7 1 1 1 7 1 1 1 7 1 7 3 9 3 11 6 7 7 6 11 1 9v10l1 2h-2v8l-4 10-14 14-10 5-12 4-9 1-1 1h-36l-1-1-9-1-12-5-8-5-11-11-5-11-1-3-1-11-1-5h40l5 12 4 4 8 4 6 1h16l11-3 3-2 2-4-1-7-3-3-14-7-25-6-16-4-13-7-8-6-7-11-2-5v-25l5-12 7-8 7-6 13-6 12-2z" fill="#FD791E"/>
<path transform="translate(1155,168)" d="m0 0h33l1 1 9 1 12 5 8 5 10 10 5 9 4 8 2 6v10h2v47h-2v10l-3 7-2 6-5 8-7 8-7 6-16 8-7 2h-37l-1-1-9-1-5-3-6-2-8-6-9-9-8-16-3-9-1-7-1-1v-47l1-1 1-7 1-1 1-7 7-13 6-8 8-7 10-6 8-3zm12 32-9 4-6 4-3 3-4 8-1 7-1 1v39l3 7 2 6 4 4 1 3 11 5 9 1 2-1 9-1 8-6 6-9 2-6 2-10v-30l-1-1-1-7-6-10-2-4-14-7z" fill="#FD791D"/>
<path transform="translate(1364,168)" d="m0 0h39l1 1 9 1 12 5 8 5 7 8 4 8 2 6v71l-1 1-1 9-5 12-6 8-9 9-12 7-11 3-1 1-9 1-1 1h-34l-1-1-7-1-5-3-6-2-6-6-4-2-3-5-5-9-1-7-1-1v-20l1-1 1-7 7-13 7-7 9-5 11-3 7-3 12-1 1-1 13-1 1-1 7-1 7-3 5-5v-7l-1-4-6-2-4-2h-23l-9 4-3 5-6 1h-29l-4-3 2-9 5-9 6-8 6-5 4-3 12-4zm43 77-15 5-19 5-9 3-8 8-2 6v8l5 9 7 5h16l12-5 8-6 3-4 4-12v-22z" fill="#FD7A1F"/>
<path transform="translate(1411,384)" d="m0 0h28l15 3 12 5 10 7 8 9 6 9 3 7 2 6v7l-3 1h-41l-14-14-7-2h-14l-10 4-4 4-6 10-2 8-1 15-2 10 2 11 1 7 3 10 4 5 2 4 6 4 6 2h19l8-4 8-6 5-4 2-1h38v7l-5 10-2 6-6 8-12 12-11 6-12 3-1 1h-43l-1-1-7-1-10-4-3-3-5-3-5-5-4-2-3-5-4-5-8-17-4-15-1-8v-33l1-1 1-11 5-16 7-13 7-9 8-6 14-7 14-4z" fill="#1C1963"/>
<path transform="translate(238,487)" d="m0 0 5 1 16 10 24 12 8 5 4 4 6 8 7 10 10 10 15 9 8 4 13 5 8 2h37l18-5 19-9 6-4 9-7 9-9 3-5 8-8 7-3h13l8 4 6 8 1 2v12l-4 10-3 3-4 7-8 10h-2v2l-10 7-5 4-10 6-12 7-13 5-7 3-16 4-13 2h-35l-16-2-16-5-16-7-13-7-12-9-11-9-9-9-7-9-8-11-6-10-4-10-5-11-3-11z" fill="#FD791D"/>
<path transform="translate(997,168)" d="m0 0h35l1 1 9 1 13 7 8 6 7 8 6 10 2 9 1 1v6h-42l-4-6-7-6-6-2h-14l-12 6-6 11-2 6-1 9-1 1v21l1 1 1 9 5 12 2 5 5 2 6 3h22l6-4 3-3 5-3 3-3h36v6l-4 10-8 12-3 3-1 3-12 8-11 5-6 2h-37v-2h-10l-5-3-6-2-9-7-7-7-8-13-4-10-2-6-1-13-1-1v-33l1-1 1-9 6-16 6-11 12-12 13-7 6-2 7-1z" fill="#FD791E"/>
<path transform="translate(876,339)" d="m0 0h18l5 4 4 3 4 8 1 30 4 2h19l1 1v15l-4 6-7 7h-14l1 95 3 5 2 1 18 1 1 1v32h-47l-10-4-7-8-4-10v-188z" fill="#1D1A64"/>
<path transform="translate(1519,339)" d="m0 0h25l8 5 5 6 1 2 1 30 1 3 5 1h17l1 1v17l-4 6-7 5-6 2-7 1v60l1 1 1 35 6 2 15 1 1 1v32h-47l-9-4-5-4-4-8-1-6v-185z" fill="#1E1B64"/>
<path transform="translate(372,286)" d="m0 0h17l10 5 7 10 2 9 2 5v148l-1 1-13 1-1 1h-26l-1-1-14-1-1-18-1-1v-125l1-1 1-11 4-10 7-8z" fill="#1F1C65"/>
<path transform="translate(658,339)" d="m0 0h25l1 1v212h-43v-200l6-8 6-4z" fill="#171460"/>
<path transform="translate(1117,339)" d="m0 0h28l8 6 6 9v198h-43v-212z" fill="#221F67"/>
<path transform="translate(1260,127)" d="m0 0h26l8 5 4 7v182h-38l-1-1v-191z" fill="#FD7B20"/>
<path transform="translate(335,327)" d="m0 0h9v47l-19 9-13 10-3 4h-2l-1 4-1 2h-2l-2 5-12 20-2 5-7-2-16-12v-2h-2v-2l-4-2-6-7v-9l6-10 4-6 3-3 3-5 17-17 6-4 10-7 13-8 9-4z" fill="#FD791C"/>
<path transform="translate(373,219)" d="m0 0h16l8 4 8 8 2 4 1 13-1 10-6 8-5 4-8 4h-15l-10-6-7-10-2-6v-13l6-11 7-6z" fill="#1D1A64"/>
<path transform="translate(354,528)" d="m0 0h54l2 7v20l-7 3-10 2h-24l-15-4z" fill="#29266C"/>
<path transform="translate(354,622)" d="m0 0h53l1 4-2 16-7 8-6 4-6 2h-10l-10-4-11-11-2-6z" fill="#221F67"/>
<path transform="translate(955,605)" d="m0 0h5v6l8-5 3-1h9l7 7 2 1 1-4 5-4h11l8 7 2 3v35h-6l-2-8-1-25-5-5-7 1-5 5-1 30-2 2h-6l-1-32-5-5-5-1-4 2-3 6-2 9-1 21h-6v-44z" fill="#04030E"/>
<path transform="translate(1430,585)" d="m0 0 4 1 2 3v57l-1 3-7 1-2-5-5 5h-16l-7-6-3-6v-18l5-9 6-5 3-1h10l8 5v-21zm-18 26-5 3-4 4-2 6v8l4 9 4 3h12l6-6v-20l-4-5-4-2z" fill="#040311"/>
<path transform="translate(1297,605)" d="m0 0h5v6l11-6h9l7 3 6 8v20l-4 8-6 6h-16l-6-4-1 24h-5l-3-6 1-1 1-57zm14 6-5 3-3 6-1 4v12l7 8h12l6-7 2-4v-11l-3-7-5-4z" fill="#050310"/>
<path transform="translate(799,585)" d="m0 0 5 1 1 2v23l10-6h8l6 3 3 5 2 7-1 30h-5l-1-1-2-9-1-22-4-6-7 1-5 3-2 4-1 28-2 2-5-1-1-1v-61z" fill="#05040E"/>
<path transform="translate(668,587)" d="m0 0h5l1 1 12 1v8h-6l-1-1h-15l-6 4-6 7-2 4v18l4 6 8 7 2 1h13l9-3v8l-6 2h-20l-8-4-5-5-3-4-3-8v-18l4-9 4-6 5-4 6-3 7-1z" fill="#04030E"/>
<path transform="translate(1041,605)" d="m0 0h10l8 5 4 5v14l-1 1h-28l1 7 4 5 2 1h11l6-3 3 1-1 6-3 3h-19l-8-6-4-7v-16l4-9 6-5zm1 6-7 6-2 4v3h24l-1-5-4-6-4-2z" fill="#040310"/>
<path transform="translate(1237,605)" d="m0 0h12l6 3 6 10 1 11-1 1-30 1 5 10 3 2h12l6-3 3 5-5 4-2 1h-18l-6-4-3-4-3-8v-10l4-10 5-6zm2 6-6 5-2 4v4h21l3-2-2-6-6-5z" fill="#04030F"/>
<path transform="translate(711,605)" d="m0 0h12l6 3 7 8 1 2v18l-6 10-6 4h-16l-7-3-5-6-3-7v-12l4-8 4-6zm0 6-5 3-5 10 2 13 6 7h13l6-5 2-4-1-17-6-6-3-1z" fill="#04030F"/>
<path transform="translate(1461,605)" d="m0 0h9l8 4 4 6 1 4v10l-1 1h-28l2 9 6 4h10l8-3 1 4-3 5-2 1h-18l-8-6-4-7v-17l6-10 6-4zm1 6-8 7v5l1 1h21l1-4-3-6-7-3z" fill="#04030F"/>
<path transform="translate(859,605)" d="m0 0h9l8 4 4 7 1 4v9l-1 1h-28l2 9 6 4h10l6-3 3 1-1 5-6 4h-16l-6-4-4-5-2-5v-16l5-9 6-5zm1 6-8 7v5l1 1h21l1-3-3-7-4-3z" fill="#040310"/>
<path transform="translate(1076,605)" d="m0 0 4 2 1 4 8-6h11l8 7 2 2v36h-6l-2-2-1-32-5-4-7 1-5 4-2 5-1 28h-6l-2-2v-40z" fill="#04030E"/>
<path transform="translate(1360,605)" d="m0 0h12l6 3 6 7 2 3v18l-5 9-5 4-2 1h-16l-7-3-4-5-4-10 1-10 4-10 9-6zm1 6-5 3-4 4-1 16 2 5 5 5h14l6-6 2-6-1-1v-6l1-3-4-8-7-3z" fill="#04030F"/>
<path transform="translate(1166,605)" d="m0 0h11l8 4 5 6 2 6v14l-5 9-5 5-3 1h-18l-6-4-5-9-1-2v-14l5-10 9-5zm0 6-5 3-4 5-2 5v9l6 9 3 2h13l5-3 2-5 2-7-1-6-3-7-4-4-3-1z" fill="#04030F"/>
<path transform="translate(751,605)" d="m0 0 4 2 1 3 2 1 1-3 5-3h10l6 3 4 6v36h-6l-1-16-1-1-1-17-5-4-7 1-5 5-1 2-1 30h-6l-2-4 1-14v-18l-1-7z" fill="#050411"/>
<path transform="translate(1129,593)" d="m0 0h3l1 11 9 1 1 1v5l-9 2-1 12v18l9 1 2 2-1 4h-13l-4-6-2-8v-25h-6l1-4 4-2 2-8z" fill="#070511"/>
<path transform="translate(906,605)" d="m0 0h12l3 2v7l-6-2h-6l-8 5-3 6v12l3 6 4 2h10l6-1 1 5-5 3h-16l-6-4-5-9-1-2v-13l3-7 7-7z" fill="#04030F"/>
<path transform="translate(1496,605)" d="m0 0 4 2 1 4 8-6h7l2 1-2 7-11 2-3 7-1 28h-6l-2-2v-40z" fill="#03020C"/>
<path transform="translate(932,605)" d="m0 0h5l1 1 1 15 1 1v20h6v8h-8l-4-2-2-4z" fill="#04020F"/>
<path transform="translate(1246,585)" d="m0 0h5l1 2-6 7-1 3h-8l6-9z" fill="#040310"/>
<path transform="translate(932,587)" d="m0 0 7 1 1 5-2 2h-6l-2-2 1-5z" fill="#050416"/>
<path transform="translate(1517,641)" d="m0 0 6 1 1 5-2 3-5-1-2-2 1-5z" fill="#0D0C1B"/>
</svg>
