<?xml version="1.0" encoding="UTF-8"?>
<svg version="1.1" viewBox="0 0 2048 722" width="1414" height="499" xmlns="http://www.w3.org/2000/svg">
<path transform="translate(0)" d="m0 0h2048v722h-2048z" fill="#FDFDFD"/>
<path transform="translate(260,1)" d="m0 0h28l29 3 28 6 30 10 29 14 20 12 19 14 10 9 8 7 20 20 11 14 10 14 9 15 10 19 10 25 7 23 6 29 2 18v39l-3 25-5 24-7 24-9 22-11 23-9 10-4 3-8 2h-8l-11-4-8-9-2-6v-12l13-28 8-21 5-16 5-26 1-9v-40l-4-26-7-25-8-20-8-16-8-14-14-19-14-15-10-10-11-9-17-12-24-13-23-9-21-6-21-4-9-1h-41l-21 3-21 5-20 7-25 12-16 10-16 12-20 18-11 12-13 17-11 18-11 23-7 21-5 23-2 16v38l3 22 6 25 7 20 14 29 9 14 12 16 11 12 11 11 14 11 15 10 20 11 21 9 22 7 23 5 17 2h36l32-4 17-4 19-8 9-7h2l2-4 4-6 2-6v-13l-4-12-8-14-13-15-11-9-16-10-13-8-1-1 1-53 11 3 19 7 18 10 12 9 14 12 8 8 9 11 10 14 9 17 5 15 2 12v23l-4 16-5 12-9 12-10 10-13 9-16 8-18 7-25 6-28 4-14 1h-40l-21-2-25-5-24-7-24-10-23-12-18-12-13-10-13-11-23-23-11-14-12-17-12-20-12-25-8-22-6-22-4-22-2-18v-40l3-26 6-28 9-27 8-18 11-21 8-12 10-14 11-13 12-13 15-14 14-11 14-10 20-12 27-13 25-9 23-6 24-4z" fill="#F07225"/>
<path transform="translate(1007,388)" d="m0 0h32l16 3 12 5 11 6 11 10 9 14 5 11 4 13 3 20v31h-125l4 18 4 10 4 6 9 6 10 3h13l13-4 10-7 9-7 5-2h41l-2 9-5 12-6 11-9 10-7 7-12 7-14 5-17 3h-21l-18-3-12-4-12-6-9-7-8-8-9-14-6-15-4-19-1-9v-33l3-19 5-16 7-14 7-9 7-7 11-7 8-4 17-5z" fill="#1F1D5E"/>
<path transform="translate(1279,388)" d="m0 0h33l18 4 17 8 13 11 9 13 7 16 4 16 2 15v30h-125l4 19 6 12 7 7 10 4 4 1h13l13-4 10-7 7-6 9-3h39l-3 12-8 16-6 9-6 7-14 10-12 5-15 4-7 1h-23l-20-4-14-5-14-9-11-11-8-13-6-15-4-18-1-9v-35l3-19 6-18 7-13 11-12 9-7 12-6 13-4z" fill="#1F1D5E"/>
<path transform="translate(1182,135)" d="m0 0h29l16 3 15 6 11 8 8 8 8 14 5 13 3 15 1 7v36l-3 18-5 15-7 13-9 10-11 8-13 6-12 3-8 1h-27l-18-4-12-5-11-8-7-7-7-11-5-11-4-15-2-14v-35l3-18 5-15 7-13 9-10 10-8 13-6z" fill="#F07225"/>
<path transform="translate(591,87)" d="m0 0h150v39h-119v50l6-1h77l6 1v22l-3 8-6 5-8 3h-72v59h119v42h-165v-211l4-10 5-4z" fill="#F07225"/>
<path transform="translate(1944,388)" d="m0 0h32l20 4 16 7 11 8 9 11 6 13 3 11 1 9h-38l-10-4-4-5-5-8-6-4-6-2-7-1h-12l-12 2-7 4-2 3v9l3 5 10 6 21 6 26 6 18 6 16 8 8 6 6 8 5 11 2 9v15l-4 16-5 10-9 11-14 9-16 6-15 3-8 1h-34l-17-3-12-4-13-7-12-11-6-10-5-13-2-17 1-2h49l2 6 3 8 6 7 8 4 10 2h22l9-2 7-4 3-7v-6l-4-6-14-7-17-5-29-6-16-6-11-6-9-7-8-10-4-9-2-10v-15l4-16 7-12 9-9 13-8 14-5z" fill="#1F1E5E"/>
<path transform="translate(1426,135)" d="m0 0h34l17 3 14 5 11 7 8 9 4 8 2 8v82l-3 15-5 12-8 11-9 8-12 7-14 5-16 3-10 1h-19l-16-3-12-5-13-10-7-11-4-10-2-12v-9l3-16 6-12 11-11 16-8 18-5 34-5 11-4 6-6v-9l-4-6-9-4-8-1h-15l-11 3-5 4-3 5h-43l-1-4 4-13 6-10 5-6 13-9 15-5z" fill="#F07225"/>
<path transform="translate(717,388)" d="m0 0h35l18 4 12 5 11 7 7 7 7 11 5 11 3 12 1 7 1 131-1 1h-26l-12-3-7-6-3-6-1-6-1-109-4-11-4-5-10-5-4-1h-20l-11 4-5 4-5 10-1 6-1 128h-49v-131l4-18 5-12 7-11 8-8 11-7 12-5 11-3z" fill="#201E5E"/>
<path transform="translate(1856,390)" d="m0 0h5v131l-3 18-4 12-7 12-7 7-10 6-15 6-16 4-6 1h-27l-18-4-15-6-14-9-8-8-8-16-3-12-2-22v-119h49l1 129 2 11 5 8 6 5 10 3h18l10-3 8-7 3-6 2-13 1-113 4-8 7-5 3-1z" fill="#201E5E"/>
<path transform="translate(823,135)" d="m0 0h27l17 3 15 6 13 9 8 10 5 10 3 12v8h-32l-10-3-5-6-4-7-7-4-7-2h-20l-10 3-5 6v7l4 6 14 7 30 7 26 8 15 8 8 7 6 10 3 11v18l-3 12-5 10-9 10-8 6-16 7-20 4-22 1-23-2-17-5-11-6-12-11-6-10-4-11-2-17h46l4 12 3 5 8 5 12 3h20l9-2 6-4 3-6v-6l-3-5-16-8-19-5-23-5-16-6-11-7-6-5-7-11-3-8-1-4v-18l3-12 6-11 10-10 12-7 15-5z" fill="#F07225"/>
<path transform="translate(1478,388)" d="m0 0h31l18 4 16 7 10 8 9 10 6 10 6 17 1 6-1 1h-52l-7-10-7-6-8-3h-19l-10 4-5 4-7 11-4 13-2 21v10l2 16 4 13 7 11 9 6 10 3h14l11-4 9-6 5-5 6-4 6-1h39l-2 10-7 16-7 10-9 10-13 9-12 5-18 4h-27l-17-3-14-5-11-6-12-11-7-9-8-16-5-16-3-20v-31l3-20 6-18 9-16 13-13 14-8 14-5z" fill="#1F1E5E"/>
<path transform="translate(104,507)" d="m0 0 8 4 14 9 23 12 19 10 8 10 7 11 11 12 12 9 16 9 15 6 16 4 8 1h22l14-2 18-5 21-10 14-10 9-8 11-14 10-9 7-3h10l12 5 7 8 2 6v10l-4 11-7 12-12 13-11 10-16 11-23 12-19 7-20 5-13 2-12 1h-20l-24-3-19-5-20-8-16-9-16-12-10-9-15-15-10-13-11-18-8-17-5-15-3-14z" fill="#F07225"/>
<path transform="translate(0)" d="m0 0h288v1l-28 1-27 3-25 5-26 8-24 10-20 10-19 12-16 12-13 11-13 12-13 14-13 17-13 20-14 27-11 30-6 24-4 26-1 11-1 40h-1z" fill="#FDFDFD"/>
<path transform="translate(1e3 135)" d="m0 0h27l16 3 16 7 9 7 8 8 8 14 5 16v2h-49l-7-10-8-5-7-2h-15l-10 4-7 7-5 10-3 11-1 7v26l3 15 7 14 7 6 11 4h15l9-3 8-6 7-6 6-3h39l-2 9-5 12-7 11-8 9-13 9-12 5-14 3h-28l-16-3-13-5-11-7-8-7-7-10-7-14-4-13-3-20v-30l3-18 6-18 9-14 9-9 11-7 12-5 12-3z" fill="#F07225"/>
<path transform="translate(1601,335)" d="m0 0h23l11 2 8 6 5 8 1 3v36h29v18l-4 8-8 7-6 2-11 1 1 109 3 6 4 2 21 1v38l-11 1h-22l-22-2-11-4-7-7-4-10-1-6v-218z" fill="#221F5D"/>
<path transform="translate(852,335)" d="m0 0h11l10 2 9 7 4 8 1 4 1 34h28v17l-4 9-8 7-6 2h-11l1 111 3 5 4 2 21 1v38l-13 1h-22l-20-2-11-4-5-4-5-9-2-8v-220z" fill="#1F1E5E"/>
<path transform="translate(267,273)" d="m0 0h11l10 3 6 4 6 8 4 11 1 6v177l-20 1h-26l-17-2-1-2-1-19v-148l2-14 5-12 7-8 8-4z" fill="#1F1E5E"/>
<path transform="translate(605,335)" d="m0 0h21l1 1v247l-1 1h-50v-230l3-8 6-7 7-3z" fill="#1F1D5E"/>
<path transform="translate(1133,335)" d="m0 0h25l9 2 6 4 6 7 2 6v230h-48l-1-1v-247z" fill="#25205C"/>
<path transform="translate(1319,86)" d="m0 0 10 1 8 4 5 6 3 8v210h-44l-1-4v-224z" fill="#F07225"/>
<path transform="translate(222,321)" d="m0 0h6l1 1v53l-19 9-12 9-8 7-8 10-10 15-11 20-7-3-13-10-14-12-5-6-1-2 1-9 6-11 9-12 11-12 9-9 17-13 19-12 26-12z" fill="#F07225"/>
<path transform="translate(1190,174)" d="m0 0h15l12 5 7 8 4 8 3 12 1 10v17l-2 15-4 12-6 9-7 6-8 3-11 1-9-2-10-6-6-8-5-13-2-12v-25l3-16 6-12 4-5 8-5z" fill="#FDFDFD"/>
<path transform="translate(266,195)" d="m0 0h14l10 4 7 6 5 8 2 6v17l-4 9-8 8-8 4-7 2h-9l-10-3-7-5-7-10-3-11v-8l2-8 4-8 8-7z" fill="#211E5D"/>
<path transform="translate(1471,226)" d="m0 0h2v25l-4 13-7 9-9 6-10 3h-18l-8-4-4-5-3-9v-7l4-9 8-7 10-4 25-6z" fill="#FDFDFD"/>
<path transform="translate(1496,624)" d="m0 0h8v74l-1 1h-7l-1-7-7 6-8 2-10-1-8-6-4-8-1-4v-13l3-9 4-6 5-4 5-2h12l8 5 1 1z" fill="#4A4544"/>
<path transform="translate(1361,647)" d="m0 0h12l8 4 5 7 2 7v14l-4 11-5 6-6 3-11 1-8-3-4-4v29h-8l-1-4 1-70h8v6l9-6z" fill="#4E4643"/>
<path transform="translate(241,557)" d="m0 0h64v32l-20 4h-25l-18-4-1-1z" fill="#201E5D"/>
<path transform="translate(1286,428)" d="m0 0h17l10 4 8 7 7 14 2 9v4h-72l1-8 4-12 6-8 7-6z" fill="#FDFDFD"/>
<path transform="translate(1014,428)" d="m0 0h17l10 4 8 7 7 14 2 8v5h-72l2-12 7-14 9-8z" fill="#FDFDFD"/>
<path transform="translate(1188,647)" d="m0 0h15l8 4 6 7 3 9v11l-3 10-7 8-7 3-5 1h-7l-10-3-5-4-5-9-1-4v-13l3-9 5-6z" fill="#4E4643"/>
<path transform="translate(657,647)" d="m0 0h15l8 4 6 7 2 5 1 13-2 9-6 9-6 4-8 2h-7l-10-3-5-4-5-9-1-3v-15l4-9 5-6z" fill="#4D4543"/>
<path transform="translate(1416,647)" d="m0 0h14l9 4 6 8 2 5v18l-4 8-4 5-8 4-12 1-10-3-6-5-5-10v-16l4-10 7-6z" fill="#4B4544"/>
<path transform="translate(242,666)" d="m0 0 22 1h21l19-1v14l-4 11-7 8-8 5-9 2-10-1-10-4-9-8-4-8-2-11v-7z" fill="#221F5D"/>
<path transform="translate(960,647)" d="m0 0h11l6 4 5 5 2-4 5-4 2-1h12l6 4 4 6 1 3v38l-1 1h-7l-1-35-2-6-3-3h-9l-6 5-2 6-1 33h-8l-1-36-3-6-3-2h-9l-5 5-2 5-1 33-1 1h-6l-1-1v-50h8l1 6 7-6z" fill="#494444"/>
<path transform="translate(1274,647)" d="m0 0h13l6 3 6 7 2 5 1 12-1 1h-35l2 9 3 5 7 3h8l12-4v7l-8 4-5 1h-9l-10-4-6-7-3-10v-10l3-10 5-7 6-4z" fill="#4F4643"/>
<path transform="translate(1534,647)" d="m0 0h12l8 4 6 9 1 5v10h-36l3 10 4 5 6 2h7l11-4h2v6l-3 3-5 2-13 1-10-3-5-5-4-7-1-4v-15l4-9 5-6z" fill="#504643"/>
<path transform="translate(1043,647)" d="m0 0h12l8 4 5 6 2 7v11l-35 1 2 9 4 5 6 2h8l10-4h2v6l-3 3-5 2-6 1h-8l-8-3-7-6-4-10v-14l3-9 6-7z" fill="#504643"/>
<path transform="translate(830,647)" d="m0 0h13l7 4 4 5 3 7v12l-35 1 2 9 5 5 5 2h8l10-4h2v7l-8 4-13 1-10-3-7-8-3-9v-13l4-10 4-5 6-4z" fill="#4F4643"/>
<path transform="translate(759,624)" d="m0 0h8v31h2l2-4 7-4h12l7 4 4 9v39h-8l-1-35-3-7-3-2h-10l-5 4-3 7-1 32-1 1h-6l-1-1z" fill="#484444"/>
<path transform="translate(611,626)" d="m0 0 15 2 3 1v9l-10-3h-13l-10 4-7 8-3 8v18l5 10 7 6 5 2h15l11-3v8l-9 3-6 1h-9l-9-2-10-6-7-10-3-9v-17l4-12 7-9 10-6 6-2z" fill="#4D4544"/>
<path transform="translate(1417,654)" d="m0 0h12l6 4 4 8v14l-3 7-6 5-4 1h-7l-8-4-4-6-1-4v-11l3-8 5-5z" fill="#FDFDFD"/>
<path transform="translate(1189,654)" d="m0 0h12l6 4 3 5 2 8-1 10-4 8-8 4h-7l-7-3-5-6-2-6v-9l4-10 5-4z" fill="#FDFDFD"/>
<path transform="translate(658,654)" d="m0 0h12l5 3 4 6 1 3v15l-3 6-6 5-3 1h-8l-8-4-5-10v-11l4-9 5-4z" fill="#FDFDFD"/>
<path transform="translate(1101,647)" d="m0 0h12l6 4 4 5 2 10v30l-1 3h-7l-1-1-1-36-3-6-2-1h-11l-5 5-2 4-1 6v28l-1 1h-7l-1-1v-49l1-1h7l1 6 8-6z" fill="#5B4941"/>
<path transform="translate(1476,654)" d="m0 0h10l5 3 4 5 1 5v11l-3 9-6 5-3 1h-7l-6-3-5-7-1-13 3-9 4-5z" fill="#FDFDFD"/>
<path transform="translate(720,647)" d="m0 0h12l7 4 4 7 1 5v35l-1 1h-7l-1-31-2-9-4-4h-10l-6 5-2 5-1 33-1 1h-7v-51h8l1 6 7-6z" fill="#524743"/>
<path transform="translate(1360,654)" d="m0 0h11l6 5 3 9v8l-3 10-7 6-2 1h-7l-6-3-4-5-1-2v-18l4-7 3-3z" fill="#FDFDFD"/>
<path transform="translate(1149,633)" d="m0 0h2v15h12v7h-12l1 34 1 2 7 1h3l1 5-2 2-8 1-8-3-3-5-1-9v-28h-8v-7h8v-12z" fill="#584841"/>
<path transform="translate(885,647)" d="m0 0h14l5 2v8l-6-2h-12l-6 4-4 7-1 10 2 8 5 6 6 2h7l9-3v7l-5 3-11 1-9-2-7-5-5-9-1-4v-11l3-10 6-7z" fill="#4C4544"/>
<path transform="translate(1591,647)" d="m0 0h8l1 1v7l-11 1-3 1-2 5-2 8-1 29h-7l-1-1v-50h8l1 8 4-6z" fill="#544742"/>
<path transform="translate(916,648)" d="m0 0h8l1 40 1 2 7 1v8h-9l-6-4-2-4z" fill="#444345"/>
<path transform="translate(1275,654)" d="m0 0h11l5 5 2 4v5h-27l1-6 6-7z" fill="#FDFDFD"/>
<path transform="translate(1535,654)" d="m0 0h10l6 5 2 9h-28l3-8 5-5z" fill="#FDFDFD"/>
<path transform="translate(831,654)" d="m0 0h10l5 3 3 8v3h-27l1-6 6-7z" fill="#FDFDFD"/>
<path transform="translate(1044,654)" d="m0 0h10l6 5 2 9h-28l3-8z" fill="#FDFDFD"/>
<path transform="translate(1283,622)" d="m0 0h8l-2 4-9 12h-7l5-9z" fill="#4F4643"/>
<path transform="translate(1602,688)" d="m0 0 5 2 1 1v6l-4 3-5-2-2-5z" fill="#4E4643"/>
<path transform="translate(917,625)" d="m0 0h6l2 2-1 7-6 1-3-2v-6z" fill="#4B4544"/>
</svg>
