<?xml version="1.0" encoding="UTF-8"?>
<svg version="1.1" viewBox="0 0 1000 1000" width="1000" height="1000" xmlns="http://www.w3.org/2000/svg">
<path transform="translate(497,87)" d="m0 0h16l10 2 25 1 32 5 26 6 29 9 28 11 11 5 17 8 2 2 7 3 25 15v2l4 1v2l5 2 10 7 7 5v2l4 1v2h3v2l5 2 7 7 10 8 6 6v2l4 2 20 20 7 9 13 17 16 22 11 18 6 12 4 7 8 16 4 9 11 29 5 15 5 18 5 23 4 24 2 21 1 43-1 21-1 14-2 18-3 13-3 17-4 16-4 15-3 7-4 13-4 9-6 15-12 25-8 14-12 19-7 10-10 14-14 17-13 15-23 23-11 9-14 12-16 11-5 4-22 14-4 2h-3v2l-29 15-13 6-8 3-20 7-11 4-17 5-17 4-27 5-31 3h-61l-31-3-18-4-16-3-29-8-28-10-12-5-29-14-12-7-14-8v-2l-5-2-11-7-20-15-10-9-8-6-5-5-10-9-16-16-9-11-11-13-12-17-7-10-13-20-4-8-10-19-6-13-4-8-6-17-8-22-9-36-2-13-3-15-3-45v-21l3-40 4-23 2-12 5-22 6-20 8-23 6-15 7-15 12-23 8-13 9-14 10-14 14-19 9-9 9-11 16-16 11-9 9-9 13-10 18-13 13-9 17-10 11-6 14-7 16-7 19-8 10-4 22-6 13-4 18-4 32-5 42-2z" fill="#8EC733"/>
<path transform="translate(490,280)" d="m0 0h40l4 1 19 2 20 5 23 8 21 10 16 10 14 10 11 10 8 7 8 8 8 10 8 11 10 16v2h46l5 1v6h2l1 28v34l-1 4-10 1 3 10 15 42 8 22 2 3h11l5 1v6l3 3 1 3v61l-35 1h-64l-23-1v-8h-4v-61h-16v7h4v62l-57 1-7 11-9 10-8 7-8 6h-2v2l-8 3-10 5-8 3-13 3h-40l-18-4-25-10 1 2v9h-67l-1 2-14-1-4-3-3-8-1-11 1-26-104-1-5-2 1-5h-3l-1-8h2l-1-59h18v-77l-11-1-2-1-1-6h-4v-64l1-2 80-1 13-20 10-13 12-13 9-9 11-9 17-12 14-8 16-8 21-8 24-6z" fill="#FBFCFB"/>
<path transform="translate(89,501)" d="m0 0 5 4 7 10 10 11 7 8 9 11 30 30 11 9 4 4 7 4 15 11 14 9 20 12-2 4-12 13-3 3 27-3 16-2 10 1h2l4-2-6 11-8 11-15 22-3 3-1 3 48-14 8-3h3l-2 6-8 16-10 21-5 8-1 4 12-5 19-10 19-8 5-2-2 9-2 10-9 27-4 11 5-2 5-4 15-9 9-6 4-4 7-4h2v-2l4-2v10l-3 26-4 24 8-7 15-15 10-8 4-5 8-7h1l1 61 5-5 4-6 7-9 3-4h2l2-4 10-13 4-6h2l2 12 3 16 2 7 1 9 1 2 2 12 2 1 1-4 9-17 9-16 3-6 5-11 2 1 5 17 4 9 8 22 2 9h2l3-12 14-39 3-6 2 1 8 16 8 15 6 10 5 10 2 1 2-17 5-24 2-14 1-4 4 2 12 17 22 28 1-3 1-47 1-8 9 6 1 2-1 2 6 1 16 15 12 12 3 1-2-5-3-24-3-22v-9l11 7 11 8 15 10 7 4v2l6 2-2-9-5-14-6-20-3-11v-3l6 2 16 8 25 11 8 4-3-8-3-5-16-32-4-9 1-2 9 4 25 7 15 4 5 2 5 1-6-9v-2l-3-1-13-19-4-6v-2h-2v-3l13-5h9l21 3 11 1-7-8-5-5-1-4 24-13 16-11 17-13 10-9 8-7 16-16 9-11 8-10 16-23 8-12 3-1-1 29-1 14-2 18-3 13-3 17-4 16-4 15-3 7-4 13-4 9-6 15-12 25-8 14-12 19-7 10-10 14-14 17-13 15-23 23-11 9-14 12-16 11-5 4-22 14-4 2h-3v2l-29 15-13 6-8 3-20 7-11 4-17 5-17 4-27 5-31 3h-61l-31-3-18-4-16-3-29-8-28-10-12-5-29-14-12-7-14-8v-2l-5-2-11-7-20-15-10-9-8-6-5-5-10-9-16-16-9-11-11-13-12-17-7-10-13-20-4-8-10-19-6-13-4-8-6-17-8-22-9-36-2-13-3-15-2-27z" fill="#009B46"/>
<path transform="translate(649,546)" d="m0 0h16v61h4v8h87l8 2 8 7 6 7 12 12v2h-11l-21-3h-9l-10 4h-3v3h2l7 11 11 16 4 4 4 6v2l-9-1-7-3-27-7-13-4-3-1 16 33 6 12 3 5v4l-5-1-14-7-16-7-20-10 7 24 5 17 4 10 1 6-2 1-5-3v-2l-5-2-16-10-10-8-12-8 1 16 3 19 2 19 1 5-4-1-20-20-9-7-4-1-1-4-6-4-1-1-1 7-1 47-2 4-14-17-12-16-10-14-2-1-2 18-6 29-2 12-3-1-5-10-6-10-12-22-4-9-2 3-11 30-8 23h-2l-13-37-4-9-3-11-5 10-10 19-9 16-4 8-3-1-2-12-1-2-2-14-3-12-2-12v-6h-2l-2 5-8 10-6 8-5 5-6 8-8 11h-2l-1-5-1-55-10 9-5 6-10 8-18 18h-2l1-12 3-22 2-16v-9l-3 1v2l-11 6-5 5-16 10-9 6-2 2h-4l3-11 9-27 4-18-10 5-13 5-23 12-5 2h-3l1-6 8-14 11-24 6-11-24 8-32 9h-3l1-4 7-9 8-12 13-19 3-5-5 3v-2h-10l-40 5-4-1 11-11 6-7h2l2-4 5-5 7-6 1 2 4 1 91 1 13 1v30l2 10 3 6 2 1 14 1 1-1h67l-1-11 9 3 16 6 18 4h40l13-3 13-5 9-5h4v-2l11-8 11-10 9-12 3-5h57v-62h-4z" fill="#FBED01"/>
<path transform="translate(485,138)" d="m0 0h64l34 3 39 6 27 6 28 8 19 7 12 6 7 2 4 2v2l15 5v2l4 1 3 2v2l4 1 4 2v2h3v2h3v2l4 1 2 1v2h2v2l4 1 8 7 7 6 9 11 10 16 7 22v20l-4 12-5 9h-2l-2 5-6 6h-3v3l-14 8-8 5-14 5-9 1 5-9 7-9 4-5v-3l5-2v-2l-9 1-20 4-11 5-14 3 1-11 11-22 5-8 3-9-1-4-19 10-23 11-4 4h-3v-10l9-31 3-15-12 6-13 10-16 12-3 2h-5l2-24 3-15 1-16-4 1-21 21-5 6-12 9h-2l-1-5v-55l-5 5-8 11-10 14-12 14-3 4h-2l-2-8-7-43-2-7-9 16-13 23-7 14-3-3-12-35-4-10-1-7h-3l-3 11-10 26-3 6-3 11-2 1v-4h-2l-13-25-12-21h-2l-2 7-3 17-5 24-2 7-3-1-6-9-9-12-4-7-11-13-6-3v55l-5-1-15-13-15-16-5-5-5 1v15l3 16 1 1 3 23h-3v-2l-6-2-15-10-14-10-8-5h-5l2 10 5 11 7 23v10l-20-9-3-3-8-2-5-4-6-2h-9l11 23 6 11 4 9v6l-15-3-19-6-15-4h-5l7 10 3 7 5 6-2 1-3-2v-2l-5-2-8-7-5-7-6-13-3-13v-24l4-14 4-8h2l1-6 6-9h2l2-4 9-10 10-9 5-4h3l2-4 7-2v-2l5-4h4l1-3 6-1v-2l14-7h3v-2l9-4 20-8 27-9 30-7 21-4 28-4z" fill="#C3DF94"/>
<path transform="translate(436,347)" d="m0 0h30l19 4 16 7 14 8 1 1 1-16h67v84h-66l-9-16-9-10-12-6-4-1h-18l-6 3h-2l-2 4-1 3v12l3 6 11 7 31 16 16 8 25 13 17 11 10 9 7 7 6 8v6l-10 27h-18v52l-1 13h30l-1 4-11 13-11 9-11 7-20 8-19 3h-20l-19-3-16-5-17-8-9-6v18h-67v-95h67l7 15 7 10 7 6 11 5 4 1h17l10-5 4-8v-10l-5-8-7-6-25-13-24-11-25-13-15-10-12-11-8-10-8-14-5-13-2-9v-29l4-16 5-12 7-11 14-14 13-8 13-6 15-4z" fill="#0055A2"/>
<path transform="translate(499,182)" d="m0 0h3l7 20 12 34 10-19 11-19 8-14 2-1 3 16 7 41v2l5-5 12-14 10-14 7-10 4-5h2l1 60 11-8 6-5 7-8 17-17 4 1-1 16-3 15-2 21-1 3 6-2 14-10 17-13 9-5h3l-1 10-4 15-6 21-1 10 5-3 8-5 35-17h3l-1 7-4 10-6 10-8 16-1 10 15-4 9-4 24-5h5v4l-5 2 1 3-7 7-11 17-8 13-1 2 56-7 3 1-6 7-14 14-7 8-10 10h-2v-3l-51-1-9-15-10-14-12-14-9-9-11-9-10-8-17-11-21-11-25-9-18-5-11-2-13-1-4-1h-40l-21 3-24 6-21 8-16 8-11 6-20 14-15 13-12 12-9 11-9 13-9 14-1 1h-79l-9-10-11-11-7-8-5-5v-2l18 1 1 1 36 5 4 1-11-18-7-8-5-6-3-8-6-9 9 1 26 7 13 4 7 2-2-9-4-8-10-19-6-13v-1h10l8 3 5 4 7 2 8 5 12 5 1 1v-9l-8-25-5-11v-8l5-1 8 5 11 8 15 10 9 5v2h3l-3-16-1-7-2-7-2-10v-15l2-2 5 1 14 14 7 8 13 11 5 2v-55l4 1 6 5 11 14 4 7 11 15 3 3 2-11 6-29 2-11 2-5 3 1 10 18 14 26v2h2l1 3 4-13 6-14 7-19z" fill="#FDED00"/>
<path transform="translate(598,399)" d="m0 0h143l1 29v18l-1 1h-15l36 98 1 5 15 1v48h-104v-45h16l-7-23-51-1-2 10-5 14h15l1 1v43l-1 1h-79v-48l16-1 2-9 10-28 17-47 7-19h-15z" fill="#0055A1"/>
<path transform="translate(490,280)" d="m0 0h40l4 1 19 2 20 5 23 8 21 10 16 10 14 10 11 10 8 7 8 8 8 10 8 11 10 16v2h-103v-41h-4v-7h-85v10l-13-6-10-3-15-3-2-1h-32l-24 5-22 11-5 5h-2v2l-9 7-4 5-4 4-3 7h-2v5h-39l7-12 11-16 13-15 13-13 11-9 17-12 14-8 16-8 21-8 24-6z" fill="#8EC733"/>
<path transform="translate(250,399)" d="m0 0h106l-4 20-1 27-5 1v103l6 1 1 3v45h-103v-48h18v-104h-18z" fill="#0055A2"/>
<path transform="translate(649,546)" d="m0 0h16v61h4v8h23l-2 4-8 11-7 9-11 12-7 7-11 9-17 12-16 9-14 7-19 7-21 6-24 4h-46l-25-4-21-6-14-5-25-12-13-8-11-8-6-4v-2h67l-1-11 9 3 16 6 18 4h40l13-3 13-5 9-5h4v-2l11-8 11-10 9-12 3-5h57v-62h-4z" fill="#009B46"/>
<path transform="translate(693,169)" d="m0 0 6 1 9 4 7 2 4 2v2l15 5v2l4 1 3 2v2l4 1 4 2v2h3v2h3v2l4 1 2 1v2h2v2l4 1 8 7 7 6 9 11 10 16 7 22v20l-4 12-5 9h-2l-2 5-6 6h-3v3l-14 8-8 5-14 5-9 1 5-9 7-9 4-5v-3l5-2v-2l-23-4-5-3-4-1-2 1 1-10 1-9 1-12-1-9-2-3-1-30-5-18-5-16-5-13-1-5-5-2-12-9z" fill="#E3EFCE"/>
<path transform="translate(320,174)" d="m0 0 3 1-8 23-3 6-5 23-1 3v32l1 3v7l-5 5h-7l-5-3h-9l-3 1h-10v2l4 1 11 23 6 11 4 9v6l-15-3-19-6-15-4h-5l7 10 3 7 5 6-2 1-3-2v-2l-5-2-8-7-5-7-6-13-3-13v-24l4-14 4-8h2l1-6 6-9h2l2-4 9-10 10-9 5-4h3l2-4 7-2v-2l5-4h4l1-3 6-1v-2l14-7h3v-2z" fill="#E3EFCE"/>
<path transform="translate(223,399)" d="m0 0h18v57h4l1 6 13 1 1 1v77l-1 1h-15l-3-1 1 3v56h-24l-27-1 1-3 7-4 16-13 11-8 10-8h2v-3l-12-1-46-8 2-4 14-7 22-12 12-6h2v-2l-9-2-36-13-12-4 1-3 13-4 42-15-19-10-24-13-8-4-1-3 21-5 23-5h8l7-1v-2l-5-2-13-10-16-12-13-9v-2z" fill="#FEEE00"/>
<path transform="translate(753,399)" d="m0 0h32l24 1v3l-11 7-18 14-16 12-3 1v2l18 1 17 4 25 5-1 3-16 8-35 18 2 2 22 7 20 7 11 4v3l-47 16-9 4 17 8 23 13 14 7v2l-31 5-3-6-2-2v-5l-6-1h-9l-4-6-16-46-8-21-1-5 1-1h10z" fill="#FEEE00"/>
<path transform="translate(473,416)" d="m0 0h13l12 5 6 5 6 10 6 13v2h72v5h5v7h5v4l-3 7-3 8-6 19-3-1-3-5-8-9-5-4v-2l-6-2-10-7-6-3v-2l-7-2-16-9-10-4-10-6-32-16-5-5 3-6z" fill="#8FC734"/>
<path transform="translate(498,179)" d="m0 0h6l3 2h7l3 2v2l9-3 8-1 6 2 7-1 4-1-1 5-8 14-13 23-7 14-3-3-12-35-4-10-1-7h-3l-3 11-10 26-3 6-3 11-2 1v-4h-2l-13-25-8-14-3-6 4 1 8 7 14-2 7-7 5-3z" fill="#B2D468"/>
<path transform="translate(358,475)" d="m0 0 3 1 3 8 7 13 3 2 3 5 6 7 6 4 5 4 11 7 4 3 22 11v2h-73z" fill="#8EC734"/>
<path transform="translate(242,390)" d="m0 0h118v1l-54 2h-63l1 5 1 2 1 32 1 15 3 8 11 7 1 1v69l-1 13-3 2-6 2 16 1v1h-18v46h-1l-1-44h-2v14l-2 33-2 7h3l1 2 9 2 58 1 40 2 1 34 5 10v2l7 1 1 1 7 1-1 2-14-1-4-3-3-8-1-11 1-26-104-1-5-2 1-5h-3l-1-8h2l-1-59h18v-77l-11-1-2-1-1-6h-4v-64z" fill="#E3EFCE"/>
<path transform="translate(249,397)" d="m0 0m-3 1 4 1v48h18v103h-17l2-3 7-2 1-13v-69l-11-7-3-5-1-4-1-15v-33z" fill="#FCFCFB"/>
<path transform="translate(435,544)" d="m0 0 6 2 12 5 9 4 5 3 6 2 9 5 6 5v6l-4 4-4 1h-16l-8-4-5-3-6-8-8-16z" fill="#8FC735"/>
<path transform="translate(659,451)" d="m0 0h1l6 21 9 30v2l-7 1h-27l1-6 14-41z" fill="#FAFBF8"/>
<path transform="translate(552,185)" d="m0 0 3 1 4 7 3 2 4 9 3 2 10-1 10-4 8-7 3 1-6 8-10 14-7 9-9 11-4 5h-2l-2-8-7-43z" fill="#B2D468"/>
<path transform="translate(473,416)" d="m0 0h13l12 5 6 5 6 10 6 13v2h72v1l-72 1-16-9-21-10-12-7-2-3 3-6z" fill="#90C837"/>
<path transform="translate(436,338)" d="m0 0h32l13 3 9 2 13 6 4 2 1-9h85v7l-1-3h-74l-2 5h-2l-1 6-1 1-15-1-8-4-5-4-16-4-13-2h-29l1-3z" fill="#EBF8E7"/>
<path transform="translate(431,541)" d="m0 0 8 2 9 4-1 2-10-4-2-1 11 22 7 9 10 4 1 1h19l-4 4-3 1h-13l-10-3-7-6-8-15-7-9-7-3-46-2-17-3-3-2z" fill="#E7F6DF"/>
<path transform="translate(637,669)" d="m0 0h3l-2 4-19 12-15 8-21 8-24 7-24 4h-46l-25-4-21-6-14-5-25-12-13-8-7-5 1-2 8 4 7 6 21 10 27 10 21 6 20 3 9 1h16l28-2 25-5 26-9 21-10h3v-2l8-5 10-6z" fill="#008330"/>
<path transform="translate(741,463)" d="m0 0 2 1 3 10 15 42 8 22 2 3h11l5 1v6l3 3 1 3v31h-1l-1-26-4-9-16-3-4-6-9-30-8-15-5-15-2-7z" fill="#E2EFCC"/>
<path transform="translate(469,428)" d="m0 0 19 9 16 8 12 7 10 4 14 8 5 2 1 2 10 5 5 4 6 3v2l3 1v2l4 2 9 10-1 2h-2v-2l-4-2-5-6-2-1v-2l-4-2-13-8-11-7-9-4-10-7-8-3-7-5-11-3-14-8-9-5-4-4z" fill="#E9F7E4"/>
<path transform="translate(596,349)" d="m0 0h1v41h149l5 1v6l-7-1-44-1-5-2-16-1-83-1z" fill="#DAEDC3"/>
<path transform="translate(602,194)" d="m0 0h1l3 34 2 8 7-1 9-4 10-9 8-6 2 1-22 22-5 6-12 9h-2l-1-5z" fill="#B0D365"/>
<path transform="translate(245,609)" d="m0 0 10 2 58 1 40 2 1 34 5 10v2l7 1 1 1 7 1-1 2-14-1-4-3-3-8-1-11 1-26-104-1-5-2z" fill="#E3EFCE"/>
<path transform="translate(445,196)" d="m0 0h1l-1 10-6 29-2 7-3-1-6-9-9-12v-2l9 1 5-3 8-11z" fill="#B2D468"/>
<path transform="translate(331,615)" d="m0 0 21 1v26l-4-2-10-13-7-10z" fill="#009B46"/>
<path transform="translate(751,403)" d="m0 0 2 1 1 21v34l-1 4h-9l4-2v-15l1-7v-9l-1-8v-13l2-5z" fill="#EEFBEE"/>
<path transform="translate(549,183)" d="m0 0 1 3-8 14-13 23-7 14-3-3-12-35-1-3h2l9 18 1 3 8 4 8-14 8-13z" fill="#8EC733"/>
<path transform="translate(324,701)" d="m0 0 1 3-4 16-9 27-3 7h-1l1-9 7-24 2-8v-5l-25 11-12 5-3-1 25-13 15-6z" fill="#008330"/>
<path transform="translate(741,611)" d="m0 0h22l8 2 20 1v1l-35 1h-64l-8-1v-1l10-1 1-1z" fill="#E2EFCB"/>
<path transform="translate(704,670)" d="m0 0 10 4 25 7 15 4 9 3v1h-7l-12-3-8-3-19-5-6-1 5 12 5 8 8 18-1 4-3-3-11-23-10-21z" fill="#008330"/>
<path transform="translate(242,390)" d="m0 0h118v1l-54 2h-63l-2 4z" fill="#E4F0CF"/>
<path transform="translate(293,671)" d="m0 0h3l-2 6-8 16-10 21-5 7-1-4 6-10 5-14 9-17-35 10-10 3-4-2 44-13z" fill="#008431"/>
<path transform="translate(243,392)" d="m0 0h82l-3 2-26 3h-45l-7 3-2-3z" fill="#EEFBEE"/>
<path transform="translate(649,546)" d="m0 0h16v52h-1l-1-36-10 4v-13h-4z" fill="#90C736"/>
<path transform="translate(272,281)" d="m0 0 3 3 12 25 4 7 2 5v6l-15-3-12-4v-1l11-1 5-3-1-10-8-20z" fill="#C2DE91"/>
<path transform="translate(675,701)" d="m0 0 6 2 16 8 25 11 4 4-10-2-15-8-15-7-4-1-1 3 5 18 2 7v6h-2l-8-27-3-11z" fill="#008431"/>
<path transform="translate(361,479)" d="m0 0h6l6 8 4 9v4h4l5 5v6h-4l-7-8-1-4-4-2-9-17z" fill="#EBF9E7"/>
<path transform="translate(796,243)" d="m0 0h2l3 5 7 22v20l-3 4v-2h-3v-26l-3-10-3-9z" fill="#E7F6E0"/>
<path transform="translate(641,725)" d="m0 0 11 7 11 8 15 10 7 4v2l-5-2-10-6-7-4-11-8-5-3-2-1 1 17v12h-1l-4-27z" fill="#008431"/>
<path transform="translate(122,538)" d="m0 0 5 3 22 22 4 5 10 8v2l5 2 6 7v2l-4-2-11-10-8-7-28-28z" fill="#B0D366"/>
<path transform="translate(562,757)" d="m0 0 4 2 12 17 4 5v2l-3-1-6-7-3-6-7-5v7l-5 25-4 15h-1v-7l6-29 2-14z" fill="#008532"/>
<path transform="translate(521,763)" d="m0 0 2 1 6 13-1 2-5-5-4 2-11 31-5 11-1-4 16-45z" fill="#008330"/>
<path transform="translate(556,203)" d="m0 0 2 3 4 20 3 6 3-1 7-8 3-3 3 1-11 14-6 7h-2l-2-8-5-30z" fill="#8EC733"/>
<path transform="translate(496,188)" d="m0 0 1 2-11 29-3 6-3 11-2 1v-4h-2l-6-12h3l7 4 11-27 4-9z" fill="#90C736"/>
<path transform="translate(678,615)" d="m0 0h14l-2 4-8 11-7 9-11 12-3 3h-3l1-5 5-3 5-2 2-6 6-8h3l2-5 2-3 1-5h-7z" fill="#008431"/>
<path transform="translate(422,341)" d="m0 0 3 1-1 2-19 9-14 5-3-1 5-5 13-6 6-3z" fill="#EBF8E6"/>
<path transform="translate(397,743)" d="m0 0h1v44h-1l-1-31-1-4-8 5h-2l-1 3h-2l-2 4-6 4-1 2-6 2 6-7 12-10 4-5z" fill="#008431"/>
<path transform="translate(790,585)" d="m0 0 6 2 14 10v1l-6 1h-13z" fill="#FEEE00"/>
<path transform="translate(746,491)" d="m0 0 2 2 8 16 8 25 4 11 1 2-4-1-6-16-9-25-4-11z" fill="#EEFBEE"/>
<path transform="translate(268,638)" d="m0 0 2 1-7 11-16 23-7 10-3-1 8-13 10-13 10-15z" fill="#008431"/>
<path transform="translate(358,725)" d="m0 0h1v10l-3 26-3 19-2 5h-1v-9l5-34v-15z" fill="#008330"/>
<path transform="translate(440,563)" d="m0 0h3l5 10 4 5 10 2h21l-4 4-3 1h-13l-10-3-7-6z" fill="#EAF7E4"/>
<path transform="translate(339,615)" d="m0 0h14l1 33 5 10v2l7 1 1 1 7 1-1 2-14-1-4-3-3-8-1-11 1-26h-13z" fill="#C2DF8F"/>
<path transform="translate(478,762)" d="m0 0 2 1 5 17 4 9 8 22 1 8-3-4-6-16-7-20-4-9-1-6z" fill="#008330"/>
<path transform="translate(603,746)" d="m0 0 9 6 1 2-5-1-2-1-2 38-1 11h-1v-47z" fill="#008330"/>
<path transform="translate(254,639)" d="m0 0 9 1v2l-35 4h-17l3-2z" fill="#008532"/>
<path transform="translate(349,731)" d="m0 0h4v3l-5 2-18 13-14 7-2-1 9-6 16-10 7-6z" fill="#008330"/>
<path transform="translate(553,472)" d="m0 0 14 8v2l3 1v2l4 2 9 10-1 2h-2v-2l-4-2-5-6-2-1v-2l-4-2-6-4-5-5z" fill="#E6F5DC"/>
<path transform="translate(615,756)" d="m0 0 5 3 13 12 14 14h-3l-11-9-5-5v-2l-5-2-8-8z" fill="#008330"/>
<path transform="translate(736,646)" d="m0 0h4l3 7 11 16 9 13-1 2-4-5v-2l-3-1-13-19-4-6v-2h-2z" fill="#008431"/>
<path transform="translate(473,773)" d="m0 0h2l-1 6-2 1-1 4h-2l-1 6-12 21-3 1 2-6 15-27z" fill="#008330"/>
<path transform="translate(749,641)" d="m0 0h9l27 4v1h-16l-9-1h-14l-5 1v-2z" fill="#008431"/>
<path transform="translate(331,615)" d="m0 0h8l2 2-3 1 1 6h2v3h2l7 11 2 1v3l-4-2-10-13-7-10z" fill="#008532"/>
<path transform="translate(730,638)" d="m0 0 15 1 9 1v1l-13 4-5 1-1 2-5-8z" fill="#91C837"/>
<path transform="translate(776,548)" d="m0 0 9 1 3 5 1 5-4-2-4-5-2-1v46h-1v-48z" fill="#EEFBEE"/>
<path transform="translate(436,757)" d="m0 0h2l2 12 3 16 2 7 1 9 1 2v7l-2-1-5-27-4-19z" fill="#008733"/>
<path transform="translate(721,677)" d="m0 0 7 1 26 7 9 3v1h-7l-12-3-8-3-15-4z" fill="#008431"/>
<path transform="translate(514,447)" d="m0 0 2 4h72v1l-72 1-5-3 3-1z" fill="#C4E095"/>
<path transform="translate(230,249)" d="m0 0 1 2-2 5-3 12-2 12h-2v-12l4-14z" fill="#F5F9EF"/>
<path transform="translate(471,220)" d="m0 0 6 3 5 5-3 9-1-4h-2l-6-12z" fill="#8EC733"/>
<path transform="translate(438,551)" d="m0 0 3 4 7 14 5 6 10 4 1 2-10-1-5-4-5-9-6-13z" fill="#C0DD8B"/>
<path transform="translate(224,623)" d="m0 0 4 1-2 4-12 13-3 3h-2l1-4 7-7h2l2-5z" fill="#008431"/>
<path transform="translate(700,391)" d="m0 0h51v6h-3l-2-5-20 1h-19l-7-1z" fill="#E3EFCE"/>
<path transform="translate(223,286)" d="m0 0 2 1 4 17 1 9-3-3-4-13z" fill="#F9FBF8"/>
<path transform="translate(753,425)" d="m0 0h1v34l-1 4h-9l4-2v-2l4-1z" fill="#D6E9B5"/>
<path transform="translate(469,417)" d="m0 0 4 1 2 4-3 3-2 4-5-5 3-6z" fill="#B3D56C"/>
<path transform="translate(753,326)" d="m0 0h1v6l-6 8-3 2-3-1 10-14z" fill="#C2DF91"/>
<path transform="translate(235,313)" d="m0 0 4 1 7 10 1 5-7-6-5-6z" fill="#C2DE90"/>
<path transform="translate(376,366)" d="m0 0h2l-2 7-11 9-1-2 4-6h2l1-3h2l2-4z" fill="#E3F3D6"/>
<path transform="translate(441,216)" d="m0 0h1l-1 11-4 15h-2l1-10z" fill="#90C736"/>
<path transform="translate(741,461)" d="m0 0 3 2h-3l1 11 3 10-1 4-6-16-1-7z" fill="#EEFBEE"/>
<path transform="translate(262,484)" d="m0 0h1l1 13-1 29h-1l-1-41z" fill="#EEFBEE"/>
<path transform="translate(615,756)" d="m0 0 5 3 10 9-4 1-5-5-6-5z" fill="#008C38"/>
<path transform="translate(582,783)" d="m0 0 5 5 9 11-1 2-5-5-6-8v-2h-2z" fill="#008532"/>
<path transform="translate(594,474)" d="m0 0h1l1 6-3 10h-2l-1-5 3-10z" fill="#EAF8E5"/>
<path transform="translate(356,250)" d="m0 0h1l3 23h-3l-1-11z" fill="#B2D468"/>
<path transform="translate(196,603)" d="m0 0 5 2 9 6v2l-6-2-8-6z" fill="#ADD261"/>
<path transform="translate(557,792)" d="m0 0 1 4-4 15h-1v-7l3-11z" fill="#008330"/>
<path transform="translate(561,771)" d="m0 0h1l-1 9-3 12-2 1 4-21z" fill="#008734"/>
<path transform="translate(721,677)" d="m0 0 7 1 11 3 1 2-8-1-11-3z" fill="#008632"/>
<path transform="translate(789,588)" d="m0 0h2v24h-1l-1-15-1-7z" fill="#DEEDC4"/>
<path transform="translate(514,447)" d="m0 0 2 4h21v1l-21 1-5-3 3-1z" fill="#BDDB83"/>
<path transform="translate(255,683)" d="m0 0h3v2l-13 4-4-2z" fill="#008531"/>
<path transform="translate(355,658)" d="m0 0 4 3 15 2-1 2-14-1-4-3z" fill="#B7D877"/>
<path transform="translate(806,280)" d="m0 0h1v12l-2 2v-2h-2v-7h2z" fill="#FBFCFB"/>
<path transform="translate(752,454)" d="m0 0h1v9h-9l4-2v-2l4-1z" fill="#E4F0CF"/>
<path transform="translate(788,585)" d="m0 0h2l-1 10 1 5-3-3-1-2v-6z" fill="#EEFBEE"/>
<path transform="translate(443,793)" d="m0 0h2l2 10v7l-2-1z" fill="#008330"/>
<path transform="translate(652,657)" d="m0 0h3l-2 4-4 4-3-1z" fill="#008330"/>
<path transform="translate(230,249)" d="m0 0 1 2-2 5-1 6-3-2 2-7z" fill="#EBF9E8"/>
<path transform="translate(496,188)" d="m0 0 1 2-4 11h-2l1-6 3-6z" fill="#8EC733"/>
<path transform="translate(420,778)" d="m0 0 1 4-5 5h-2l2-5 4-2z" fill="#008431"/>
</svg>
