<?xml version="1.0" encoding="UTF-8"?>
<svg version="1.1" viewBox="0 0 2048 1435" width="1117" height="783" xmlns="http://www.w3.org/2000/svg">
<path transform="translate(979,68)" d="m0 0h94l21 3 12 2 10 3 15 3 21 6 13 3 18 7 12 5 16 7 38 19 16 10 11 7 13 10 14 10 16 14 11 9 33 33 4 6 5 6 9 12 7 9 9 14 10 15 18 32 7 15 8 18 5 13 5 14 5 17 6 23 2 7 1 10 1 1 2 13 2 17 1 4 1 29 1 1v27l-1 2-1 35-3 22-3 12-1 8-1 1-2 13-4 16-5 16-8 25-6 13-7 16-8 18-5 8-9 15-6 9-4 4-5-1-7-7-4-6-4-5-8-16 1-5h15l4 2h11l1-5-12-1-9-8-9-6-14-5-8-1-5-6-3-10-10-15-12-17-5-6-6-8-8-10-6-10-4-8-4-10-7-16-8-15-9-15 1-7 2-5-1-7-9-19-5-8-10-18-7-16-6-13-3-9-2-7-1-1-7 1-4 2-13 1-3 1h-7l1-3 12-5 16-6 16-9 5-6 2-6-4-6-11-15-8-10-5-6-3-5-8-11-7-8-1-3-13 4-6 3h-8l5-5 12-8 9-7 2-2 1-6-3-5-7-9-13-13-6-4-8-6-11-6-17-9-16-7-20-6-21-5-26-5h-3l3 9 5 19 1 8 1 1 1 12 1 1 1 20 1 1 1 21 1 1 1 36v60l-1 47-1 1-1 36-1 1-1 14-3 7-4-1v-46l1-1v-97l-1-18-1-41-1-1-1-23-1-1-1-14-1-1-1-10-1-2-2-13-3-11h-2l-6 15-6 6-3 5-5 1 1-6 5-8 4-12 2-8v-12l-3-7-2-6-5-4-8-5-2-2v-8l-1-4v-13l2-5 1-9 1-2v-13l-5-12-7-7h-6l-5 4-4 8-2 6-1 14-4-1-7-6-10-6-17-9-14-14-14-1h-4l-12 1-9 3-10 4-5 3-4-2-5-10-1-3 1 6 1 15-10 10-1 3v9l9 16 4 5 7 8 6 6 7 16 4 5 7 8 9 7 14 10 12 11 6 6 1 28 1 13 1 2 1 14 1 1 1 12 1 1 3 16 5 20 11 32 6 15 8 18 6 13 6 12 8 14 10 18 8 14 4 8v4l-4-2-7-9-7-10-18-28-5-9-10-19-10-21-5-13-6-17-9-27-4-21-3-10-1-9-1-2-1-13-1-5-2-27-1-5-1-7-7 2-14 10-9 7-5 4-7 6-11 6-11 7-9 7-10 8-2 3h-2l-2 5-5 6-6 9-3 9 10 10 6 4 16 12v2h-6l-12-5-16-10-5-1-7 14-4 10-2 7-1 9-8 10-6 8-1 2v9l8 7 11 8 2 3 2 22-1 23-1 18-2 12-3 9-3 14-2 25-3 5-8 8-3 5-10 15-7 8-10 10-7 8-18 18-8 6 2 5 3 5-22 11-12 5-9 7-11 11-5 3-2 2-12 4h-2l3 6h9l12-4h7l-1 5-7 8-6 5-10 7-5 3h-3l-5-3-6-9-6-10-8-14-10-23-7-14-7-19-5-15-7-25-4-17-3-19-1-2-1-10-1-2-1-9-1-2-1-19-1-8v-48l1-2 1-21 1-1 1-12 1-2 1-9 3-12 4-21 9-29 11-32 11-25 6-12 11-20 8-13 8-12 10-14 8-10 7-8 6-8 7-7 3-5 35-35 6-4 22-18 14-10 17-11 15-9 19-10 9-5 5-3 16-6 7-3 8-1 3 2h5l13-8 14-4 8-1 1-1h28l1 1 10 1 7 3 10 4 16 9 5 3 1-2-5-2-9-8-13-9-10-6v-4l6-3z" fill="#B4150F"/>
<path transform="translate(888,283)" d="m0 0 3 1-2 5-11 11-16 12-8 7-7 6-3 7-4 5h-2l-2 5-5 6-6 9-3 9 10 10 6 4 16 12v2h-6l-12-5-16-10-5-1-7 14-4 10-2 7-1 9-8 10-6 8-1 2v9l8 7 11 8 2 3 2 22-1 23-1 18-2 12-3 9-3 14-2 25-3 5-8 8-3 5-10 15-7 8-10 10-7 8-18 18-8 6 2 5 3 5-22 11-12 5-9 7-11 11-5 3-2 2-12 4h-2l3 6h9l12-4h7l-1 5-7 8-6 5-10 7-5 3h-3l-5-3-6-9-6-10-8-14-10-23-7-14-7-19-5-15-7-25-4-17-3-19-1-2-1-10-1-2-1-9-1-2-1-19-1-8v-48l1-2 1-21 1-1 1-12 1-2 1-9 3-12 4-21 9-29 11-32 11-25 5-10 7-3 6-7 6-1 13 4 21 3 12 3 6 9 14 10 14 7 10 2 11-4 13-5 44-11 23-4 24-11 25-12 10-6z" fill="#630D09"/>
<path transform="translate(1390,277)" d="m0 0 5 1 12 13 10 15 6 10 8 16 8 18 3 1 7 20 7 22 6 26 1 1 1 10 1 1 2 13 2 17 1 4 1 29 1 1v27l-1 2-1 35-3 22-3 12-1 8-1 1-2 13-4 16-5 16-8 25-6 13-7 16-8 18-5 8-9 15-6 9-4 4-5-1-7-7-4-6-4-5-8-16 1-5h15l4 2h11l1-5-12-1-9-8-9-6-14-5-8-1-5-6-3-10-10-15-12-17-5-6-6-8-8-10-6-10-4-8-4-10-7-16-8-15-9-15 1-7 2-5-1-7-9-19-5-8-10-18-7-16-6-13-3-9-2-7-1-1-7 1-4 2-13 1-3 1h-7l1-3 12-5 16-6 16-9 5-6 2-6-4-6-11-15-8-10-5-6-3-5-8-11-7-8-1-4h-2l-1-7 8-10v-7l-6-9-8-7v-2h-2l-1-6 2-1 13 6 9 4 11 6 19 5 12 3 8 6 13 4 9 1h18l7-2 27-1 10-1 7-4 7-11 6-14 5-5 7-4 9 3 5 2 4-1-1-9z" fill="#630C08"/>
<path transform="translate(1379,1076)" d="m0 0h33l3 1 13 1 10 3 6 4 4 7-2 6-8 8v6l5 10 4 6h4l5-10 1-8-3-7-2-2v-12l4-6 5-4 2-1 15-1 2-1h12l6 1 15 1 5 2 5 1 2 4v5l8-2 7-3 22-5 20-4h15l5 5 1 88 3 8 4 6 5 5 7-2 1-2 1-9 1-2v-44l-4-6-6-4-3-5 2-11 4-6 7-5 6-2 18-7 12-3 15-4h14l6 6 1 10h3l8-7 8-6 11-3h18l15 3 9 6 11 11 4 10 2 6 1 9 1 2 1 44 1 11 2 7h2l1-12 7-15 5-6 1-3 11-6 10-5 5-2 11-2 18-1 6-1v-6l-5-16-1-3-8 2-2 5-11 11-10 6-8 3h-11l-6-4-3-6v-13l4-8h2l2-5 7-6 23-12 17-4h35l15 4 13 7 8 7 6 12 2 7 1 47 1 1 1 10 6 5 5 2 1 5v9l-12 12-13 8-14 7-9 1-10-1-13-7-3-3h-7l-4 4-15 6h-28l-9-4-9-5-4-5-1-2-4 1-7 6-8 5-12 3-7 1h-38l-11-3-5-4-1-3v-14l5-8 3-9 1-14 1-1v-7l-1-2-1-15-4-10-3-3-4-2-5 1-2 6v47l6 16v8l-7 7-16 8-9 2h-37l-1-1-10-1-8-6-2-5-9 3-8 5-6 3-11 2h-35l-15-2-10-5-3-3-2-4v-7l4-10 10-10 1-19 1-2v-16l-3-9-2-8-12-8-1-1v-12l-7 2-2 4-6 8-6 11-10 19-20 40-10 16-4 4-1 3-14 8-7 3-10-5-9-9-7-12-8-16-10-19-6-11-10-19-5-9-4-5-2-3-9-3-5-4-2-4v-11l8-8 12-5zm482 84-2 6v6l4 10h7v-18l-2-4z" fill="#66100C"/>
<path transform="translate(633,1026)" d="m0 0h19l6 6 1 10 1 1 1 129 4 6 3 3 5 2 4-1 2-2 2-8 1-11 1-2v-28l-4-9-8-4-2-3v-12l3-6 8-7 16-7 5-2 16-3 11-2h18l5 3 4 11 5-2 8-8 7-3 4-1h9l5 1h6l8 5 7 7 4 8 2 10-1 10 11-16 9-9 13-8 10-5 13-3h31l17 5 11 7 8 6 7 7 5 9 5 12v15l-3 7-9 9-6 3-61 1 6 9 6 5 5 3h14l11-4 7-3 12-2 3-1 6 7 3 6v5l-3 7-7 9-10 6-17 9-10 4-18 3-20-1-15-4-13-7-13-12-9-14-4-10-2-7v-28l3-9 1-4-5 4-3 5-6 4-12 7-3 1h-17l-12-6-4-1 1 33 2 6 12 6 6 6 1 8-1 5-7 7-6 4-10 4-12 2h-42l-14-2-13-6-3-5-1-1h-6l-10 6-10 4-8 2-16 2h-15l-6-4-4-8h-5l-4 4-17 8-7 1h-11l-12-3-15-8-13-13-7-10-5-9-3-9-1-13-1-6 1-2 1-14 3-7 2-7 10-16 9-10 8-7 16-8 7-2h26l1 1 15 2-2-6-5-3-8-4-3-4v-9l4-7 10-8 16-5 12-3 7-1 1-1 10-1zm249 81-3 5-1 2v8l2 3h15l2-4-1-7-7-7zm-307 5-4 5-3 7-3 11v21l4 14 7 8h10l4-7 1-39 1-3-5-12-5-4z" fill="#66100C"/>
<path transform="translate(132,1024)" d="m0 0h38l9 2 7 9 12 22 11 20 2 5 7 12 4 6 2 1 2-5 8-14 8-16 9-19 8-12 8-7 13-4h35l12 3 8 5 4 6v12l-12 12-3 25v67l1 12 1 1 1 9 4 7 5 1 1-11 5-12 5-8 5-4h2v-2l15-9 14-4 22-1 5-1v-13l-4-10-1-1h-5l-8 8-2 4-5 3-4 4-12 6-1 1h-12l-5-3-5-6-1-11 4-9 3-5 7-7 14-8 8-4 9-3 10-2h36l10 2 7 2 8 6 7 4 7 9 4 10 1 3 1 56 5 5 7 6 2 5v5l-3 3-5 9-3 3-9 5-8 6-16 4-9 1-13-5-9-8-4 1-10 6-10 4-11 2-19-1-10-4-8-6-6-8-3-2-1 5-4 4-16 9-12 2h-39l-13-2-9-3-5-4-2-4v-10l5-9 6-7 1-2v-38l-6 10-16 34-6 15-4 5-5 3-6 4h-9l-6-9-12-24-7-16-5-12-3-5v-3h-2l1 41 10 7 4 4v6l-5 7-10 6-8 4-9 2h-26l-13-3-12-9v-9l10-9 8-8 2-28 1-4v-71l-3-12-8-5-8-8 1-8 4-8 6-7 7-4 13-1zm272 138-2 3-1 10 3 6 6 1 2-2 1-15-1-3z" fill="#B51914"/>
<path transform="translate(1139,542)" d="m0 0 7 1 2 3 2 21 3 13 5 13 10 20 11 16 8 12 8 11 5 9 14 16 4 5 5 8 1 10 1 1 1 25 6 11 11 11 6 4 7 7 9 7 11 8 5-2 20-18 8-10h2l5 6 20 12 7 5 10 4 15 2 2 1h8l5-1 1 4-7 11h-2l-2 5-4 4-3 5-5 6-7 8-14 14-4 6-10 10-6 4-4 4-5 3-6 5-14 11-10 7 23 1h634l15 1-1 18h-742l-4-8-6-28-6-21-5-21-16-64-6-26-4-15-4-17-2-6-1-8-3-9-6-27-3-9-5-22-4-15-1-8-1-1-1-10-1-1v-28l1-1 1-8 4-4z" fill="#691511"/>
<path transform="translate(1390,277)" d="m0 0 5 1 12 13 10 15 6 10 8 16 8 18 3 1 7 20 7 22 6 26 1 1 1 10 1 1 2 13 2 17 1 4v13l-2-3-2-9-4-12-5-18-4-9-4-13-4-9-4-1-1 13-1 11-2 4-4 1-15 2-4 2-9 17-8 12-9 10-6 2-12 2-22 1-8 1h-13l-17-5-18-6h-12l-7 4h-7l-14-8h-4l-1 4 8 20 10 18 4 12-2 5h-2l-9-19-5-8-10-18-7-16-6-13-3-9-2-7-1-1-7 1-4 2-13 1-3 1h-7l1-3 12-5 16-6 16-9 5-6 2-6-4-6-11-15-8-10-5-6-3-5-8-11-7-8-1-4h-2l-1-7 8-10v-7l-6-9-8-7v-2h-2l-1-6 2-1 13 6 9 4 11 6 19 5 12 3 8 6 13 4 9 1h18l7-2 27-1 10-1 7-4 7-11 6-14 5-5 7-4 9 3 5 2 4-1-1-9z" fill="#840F09"/>
<path transform="translate(888,283)" d="m0 0 3 1-2 5-11 11-16 12-8 7-7 6-3 7-4 5h-2l-2 5-5 6-6 9-3 9 10 10 6 4 16 12v2h-6l-12-5-16-10-5-1-7 14-4 10-2 7-1 9-8 10-6 8-1 2v9l8 7 11 8 2 3v12h-1l-1-9-6-2-15-10-3-5 1-15 4-8 9-11 3-5 3-22v-9l-5 4-12 23-6 7-9 7h-2l-2 4-14 14-7 8-9 12-8 12-4 5-8 6-7 2-25 2h-16l-5 1h-8l-14-4-7-4-12 1-6 3-8 5-7-1-8-4-7 1-4 1-2-1v57h-1l-1-8v-48l1-2 1-21 1-1 1-12 1-2 1-9 3-12 4-21 9-29 11-32 11-25 5-10 7-3 6-7 6-1 13 4 21 3 12 3 6 9 14 10 14 7 10 2 11-4 13-5 44-11 23-4 24-11 25-12 10-6z" fill="#840F09"/>
<path transform="translate(866,691)" d="m0 0h3v7l-1 1-1 8-1 1-2 12-2 10-1 1-1 7-1 1-2 10-2 5-2 12-4 14-3 7-4 14-3 9-9 22-4 8-4 10-8 15-7 12-8 12-8 10-4 3h-691l-1-1v-17l1-1 659-1 13-1h4l-9-5-11-8-10-8-6-5-8-7-4-4-5-3-33-33-4-6-9-11-9-12-6-10v-3h11l5 3 17 1 4 2h22l11-6 17-17 7-10 8-14 1-3h5l6 8 3 5 6 5 9 6 8 4h7l11-6 10-11 5-5 12-9 8-8 10-15z" fill="#6B1915"/>
<path transform="translate(1096,1023)" d="m0 0h17l13 1 2 1 12 1 1 1 30 1 10 6 5 6 6 10 3 6 2 7v13l-9 10-4 4-8 3-1 1h-9l-5-4-5-3-8-8-12-8-8-3h-17v3l2 5 7 6 7 4 15 4 8 3 12 3 8 5 11 7 9 9 7 10 2 6v30l-5 12-5 9-13 13-14 9-9 5-18 6-14 2h-33l-15-2-17-5-12-5-10-9-6-15-3-11v-19l4-9 6-6h13l7 3 4 6 5 6 9 13 8 6 8 3 5 1h16l5-2 1-7-3-3-12-5-24-8-13-7-11-8-13-13-6-10-4-8-2-12 2-17 6-14 8-12 7-7 10-7 18-10z" fill="#B51813"/>
<path transform="translate(400,1076)" d="m0 0h36l10 2 7 2 8 6 7 4 7 9 4 10 1 3 1 56 5 5 7 6 2 5v5l-3 3-5 9-3 3-9 5-8 6-16 4-9 1-13-5-9-8-4 1-10 6-10 4-11 2-19-1-10-4-8-6-6-8-3-2-1 5-4 4-16 9-12 2h-39l-13-2-9-3-5-4-2-4v-10l5-9 6-7 2-3 1-5v-27l-1-10 8-2 24-3 13-4 12-6 7-3 5 1 2 8v28h2l1 12 1 1 1 9 4 7 5 1 1-11 5-12 5-8 5-4h2v-2l15-9 14-4 22-1 5-1v-13l-4-10-1-1h-5l-8 8-2 4-5 3-4 4-12 6-1 1h-12l-5-3-5-6-1-11 4-9 3-5 7-7 14-8 8-4 9-3zm4 86-2 3-1 10 3 6 6 1 2-2 1-15-1-3z" fill="#66100D"/>
<path transform="translate(728,1076)" d="m0 0h18l5 3 4 11 5-2 8-8 7-3 4-1h9l5 1h6l8 5 7 7 4 8 2 10-1 10 11-16 9-9 13-8 10-5 13-3h31l17 5 11 7 8 6 7 7 5 9 5 12v15l-3 7-9 9-6 3-61 1 6 9 6 5 5 3h14l11-4 7-3 12-2 3-1 6 7 3 6v5l-3 7-7 9-10 6-17 9-10 4-18 3-20-1-15-4-13-7-13-12-9-14-4-10-2-7v-28l3-9 1-4-5 4-3 5-6 4-12 7-3 1h-17l-12-6-4-1v32h-1l-1-14v-22l-2-4-19 1-8 1-26 1-6 3-5 9-1 13h-1l-1-27-4-9-8-4-2-3v-12l3-6 8-7 16-7 5-2 16-3zm154 31-3 5-1 2v8l2 3h15l2-4-1-7-7-7z" fill="#B51813"/>
<path transform="translate(1379,1076)" d="m0 0h33l3 1 13 1 10 3 6 4 4 7-2 6-8 8v6l5 10 4 6h4l5-10 1-8-3-7-2-2v-12l4-6 5-4 2-1 15-1 2-1h12l6 1 15 1 5 2 5 1 2 4v5l8-2 7-3 22-5 20-4h15l5 5 1 88 3 8 4 7h-4l-4-3-2-9-1-42-4-2-5-3h-6l-6 5-5 2-13-1-12-3-8-1-3 2-3 11v6h-1l-3-13-3-9-12-8-1-1v-12l-7 2-2 4-6 8-6 11-10 19-20 40-10 16-4 4-1 3-14 8-7 3-10-5-9-9-7-12-8-16-10-19-6-11-10-19-5-9-4-5-2-3-9-3-5-4-2-4v-11l8-8 12-5z" fill="#B61B16"/>
<path transform="translate(1265,1076)" d="m0 0h31l4 1 9 2 9 4 13 8 3 5 4 5 3 16 1 1v22l-1 1v20l4 10 4 4 6 4 2 2v7l-7 11-8 7-11 7-15 6-5 1h-10l-8-3-8-6-2-2h-7l-6 4-16 6-3 1h-14l-15-3-9-5-10-10-3-10-1-1v-23l4-6 7-11 12-8 9-5 13-4 28-1-1-13-4-14-6 3-17 17-16 8h-12l-8-8-2-4v-7l4-11 14-14 13-7 15-5zm2 84-4 5v12l4 5 4-1 3-3v-14l-4-4z" fill="#66100C"/>
<path transform="translate(1584,1124)" d="m0 0h6l9 6 1 2 1 43 3 7 5 2 8 4 7-3 3-6 2-24 1-11 2-10 1-7 3-2 19 1h19l5-1h11l7 4 1 48 5 11 2 6v8l-7 7-16 8-9 2h-37l-1-1-10-1-8-6-2-5-9 3-8 5-6 3-11 2h-35l-15-2-10-5-3-3-2-4v-7l4-10 10-10 1-19 1-2 1-19 4-10 4-2 25 5h7l8-4z" fill="#66110D"/>
<path transform="translate(633,1026)" d="m0 0h19l6 6 1 10 1 1 1 131-3-2-1-38-8-5h-6l-6 3-6 1h-31l-6 9-3 28h-1v-38l1-3-5-12-6-4h-5l-5 8-4 14-1 21h-1l-1-11v-10h-22l-32 1-5 4-6 9-2 5-1 13-1 3-1-2-1-13-1-6 1-2 1-14 3-7 2-7 10-16 9-10 8-7 16-8 7-2h26l1 1 15 2-2-6-5-3-8-4-3-4v-9l4-7 10-8 16-5 12-3 7-1 1-1 10-1z" fill="#B61B15"/>
<path transform="translate(790,876)" d="m0 0 9 1 4 2-1 5-3 5-8 10-4 3h-691l-1-1v-16h648l7 3 16 2h7l5-3h2l2-4z" fill="#180401"/>
<path transform="translate(1186,1124)" d="m0 0 7 2 3 2 1 9h2v26l-5 12-5 9-13 13-14 9-9 5-18 6-14 2h-33l-15-2-17-5-12-5-10-9-6-15-3-11v-19l4-9 6-6h13l7 3 4 6 5 6 9 13 8 6 8 3 5 1h16l5-2 1-7-2-5-5-3-24-9-13-7-2-4 7-3 20-4 22-1h25l14 1h18l5-6z" fill="#66100C"/>
<path transform="translate(943,1125)" d="m0 0h5l7 9 1 5-2 7-7 7-6 3-61 1 6 9 6 5 5 3h14l11-4 7-3 12-2 3-1 6 7 3 6v5l-3 7-7 9-10 6-17 9-10 4-18 3-20-1-15-4-13-7-13-12-9-14-4-10v-11l5-17 7-8 8-3 27-2h69l9-3z" fill="#68130F"/>
<path transform="translate(126,1131)" d="m0 0h10l22 2 5 2 24 1 10 2 32-1 13-1 6 2v5l-10 19-5 12-5 10-6 15-4 5-5 3-6 4h-9l-6-9-12-24-7-16-5-12-3-5v-3h-2l1 41 10 7 4 4v6l-5 7-10 6-8 4-9 2h-26l-13-3-12-9v-9l10-9 8-8 2-28 2-6 2-14z" fill="#86120C"/>
<path transform="translate(1676,1076)" d="m0 0h14l6 6 1 10h3l8-7 8-6 11-3h18l15 3 9 6 11 11 4 10 2 6 1 9 1 2v44h-1l-1-33-1-1-1-7-5-1h-8l-3 2h-11l-3-1h-18l-10 4-3 1-1 15-2 10-2-2-1-15-4-10-3-3-4-2-5 1-2 6-1 46h-1v-48l-4-1-3-2h-11l-5 1h-19l-19-1-2 1-2 15-1 2-2 19-1 16-3 6-2 1 1-11 1-2v-44l-4-6-6-4-3-5 2-11 4-6 7-5 6-2 18-7 12-3z" fill="#B61C16"/>
<path transform="translate(1582,882)" d="m0 0h335l36 1-1 13-283-2-57-1-49-3h-19l-26 2-6 1-27 1-77 1h-112l-10-2-1-3 2-2 10-3v-2z" fill="#360804"/>
<path transform="translate(1475,1130)" d="m0 0h9l3 3v6l-24 48-10 16-4 4-1 3-14 8-7 3-10-5-9-9-7-12-8-16-10-19-6-11-2-3 1-4 2-3 4-4 3-1 20-1h23l3-2h8l5 2h23z" fill="#85100B"/>
<path transform="translate(400,1076)" d="m0 0h36l10 2 7 2 8 6 7 4 7 9 4 10 1 3v47h-1l-1-23-1-4-2-1h-10l-12 5h-6l-16-5h-8l-9 4-10 4-26 3-12 3-11 6-3 1-6 6-2-1 5-6 5-2v-2l15-9 14-4 22-1 5-1v-13l-4-10-1-1h-5l-8 8-2 4-5 3-4 4-12 6-1 1h-12l-5-3-5-6-1-11 4-9 3-5 7-7 14-8 8-4 9-3z" fill="#B61E18"/>
<path transform="translate(875,1076)" d="m0 0h31l17 5 11 7 8 6 7 7 5 9 5 12v15l-3 7h-1l-1-10-6-7v-2l-6 2-7 4-5 1h-69l-27 2-8 3-6 7-6 22-2-1v-28l3-9 1-4h-2l3-9 2 2 11-16 9-9 13-8 10-5zm7 31-3 5-1 2v8l2 3h15l2-4-1-7-7-7z" fill="#B61B16"/>
<path transform="translate(1265,1076)" d="m0 0h31l4 1 9 2 9 4 13 8 3 5 4 5 3 16 1 1v22l-2 1-3-8-7-4h-8l-14 3-13-3h-7l-13 5-4 2-20 4-26 2 4-3 15-5 28-1-1-13-4-14-6 3-17 17-16 8h-12l-8-8-2-4v-7l4-11 14-14 13-7 15-5z" fill="#B61B16"/>
<path transform="translate(1859,1076)" d="m0 0h35l15 4 13 7 8 7 6 12 2 7v45h-1l-1-31-10-1-12 6-33 1-11 2-1 1-16 1-13 3h-13l2-2 5-2 11-2 18-1 6-1v-6l-5-16-1-3-8 2-2 5-11 11-10 6-8 3h-11l-6-4-3-6v-13l4-8h2l2-5 7-6 23-12z" fill="#B61C16"/>
<path transform="translate(1186,1124)" d="m0 0 7 2 3 2 1 9h2v26l-2 2-3-9-3-2h-6l-9 6-5 2h-8l-15-2h-12l-4 1h-10l-2 1 1 11-2 5-6 4-8 2h-16l-13-5-10-8-5-5v-2h-2l-9-11-7-6v-2l-11-1-4 3 2-4 5-5h13l7 3 4 6 5 6 9 13 8 6 8 3 5 1h16l5-2 1-7-2-5-5-3-24-9-13-7-2-4 7-3 20-4 22-1h25l14 1h18l5-6z" fill="#85100B"/>
<path transform="translate(943,1125)" d="m0 0h5l7 9 1 5-2 7-7 7-6 3-61 1 4 6-1 2-4-2v-2h-10l-2 1-2 4-4 1-3-2-12-2-17-1-4 2-3 9-2 4-4 1-2-6v-11l5-17 7-8 8-3 27-2h69l9-3z" fill="#840E08"/>
<path transform="translate(795,888)" d="m0 0 3 2-7 9-4 3h-691l-1-2h2l1-3h79l160-1 98-2h36l13 1 24 1h105l121 1 23 1h23l6-7z" fill="#6D0C07"/>
<path transform="translate(150,1159)" d="m0 0 9 1 2 7 2 14 4 4 8 6 3 3v6l-5 7-10 6-8 4-9 2h-26l-13-3-12-9v-9l10-9 8-8 3-12 3-3h2l2-4 7-1 7 1z" fill="#691511"/>
<path transform="translate(1288,1128)" d="m0 0h7l13 3 14-3h8l8 5 2 6v13l-5 1h-9l-4 6-5 5-3 1h-9l-17-3h-7l-5 16-4 4-2-1 3-3v-14l-3-3-4 1-3 3-5-7h-8l-8 2-10-3-2-1h-9l-11 7-6 6-2 7-1 13-2 2v-23l4-6 7-11 12-8 6-2 23-2 23-5 11-5z" fill="#87120D"/>
<path transform="translate(1559,1026)" d="m0 0h21l9 3 8 6 5 8 1 5-5 6-3 5-5 3-8 5-10 5-13 4-18 2-9-2-12-8-2-6v-9l4-10 6-5 10-6 12-3z" fill="#B71F19"/>
<path transform="translate(1926,1125)" d="m0 0 10 2 1 7v17l-13 2v2h-2v2l-5 3h-35l-6 2-2 3v13l-4 3-1-17-1-4h-7v5l-2 1-1-6-1-4-4-1-20-1h-12l-8 3-5 5-4 5-5 5h-2l1-6 6-11 3-3 1-3 11-6 6-3 21-2 7-2 16-1 7-2 5-1 33-1 8-4z" fill="#85100A"/>
<path transform="translate(95,885)" d="m0 0 2 3h66l26 1 61 1h224l37-1 38 2 16 3 25 1v1l-58 1h-24l-31-1-7-1h-44l-93 2-166 1h-69l-1 2h-2z" fill="#360804"/>
<path transform="translate(1461,1157)" d="m0 0 4 1 5 3 1 2v8l-9 17-8 14-5 5-1 3-14 8-7 3-10-5-9-9-7-12-8-16-1-4h2v-7l6-2 13 4 13 2h15l4-2v-3l-3-2 1-3 12-3z" fill="#68130F"/>
<path transform="translate(741,933)" d="m0 0h22l9 6 6 7 3 7v27l-3 7-2 5-7 7-6 3h-23l-6-3-6-4-6-10-1-10-1-2v-13l3-13 7-9 8-4zm4 18-7 8-1 2v15l6 10 6 2 5-1 6-2 3-4 1-4v-19l-4-5-4-2z" fill="#140E0E"/>
<path transform="translate(1445,933)" d="m0 0h22l6 3 8 8 4 10 2 6-1 1-1 21-3 7-9 10-4 1v2h-24l-9-5-4-4-4-7-4-12v-13l4-12 7-11zm4 18-5 6-1 2v19l4 6 6 4h7l7-5 3-8v-11l-4-10-6-3z" fill="#150F0E"/>
<path transform="translate(1016,935)" d="m0 0h48l1 2v10l-2 4-29 1-1 4 6 2 24 2v17h-29v7h9l1 1 19 1v15l-1 1h-45l-1-1z" fill="#0F0B0A"/>
<path transform="translate(423,1130)" d="m0 0h8l16 5h6l12-5h10l3 2 1 4v11l-4 1-10 4-8 4-4 1h-10l-12-3h-9l-3 3-3 8-1 12h-1l-1-12-1-3-9 1-4-5v-2l-15 4h-6l-2-1h-8l-13 3-5 2-2 4-3 3-5 1-2 1 2-8 4-7h2l2-4 7-4 14-7 9-2 26-3 12-5z" fill="#85100A"/>
<path transform="translate(1177,933)" d="m0 0h24l9 7 2 3v13l-1 1-7-1-8-4-1 1-10 1-5 3-2 4v19l5 5 12 1 2-15 2-5h11l4 5v19l-7 8-6 4h-22l-9-5-7-7-4-8-2-7v-18l4-9 6-8 6-5z" fill="#16100F"/>
<path transform="translate(1886,882)" d="m0 0h31l36 1-1 13-14-1-16-2h-43l-57-1-23-1-61-1-18-1-103-3-23-2v-1z" fill="#030101"/>
<path transform="translate(1052,281)" d="m0 0 2 1 1 12 1 1 1 20 1 1 1 21 1 1 1 36v60l-1 47-1 1-1 36-1 1-1 14-3 7-4-1v-46l1-1v-97l-1-18-1-41-1-1v-20l2-7 3-8z" fill="#884643"/>
<path transform="translate(1584,1124)" d="m0 0h6l9 6 1 2 1 40-2-4-1-13-4-2-4-3-4 1-3 11-3 4h-24l-13-4-3 1-5 9h-2l-2 3v-16l1-2 1-19 4-10 4-2 25 5h7l8-4z" fill="#850F0A"/>
<path transform="translate(1582,882)" d="m0 0h148v1l-123 1 10 1 103 3 27 1 52 1 23 1 57 1h45l14 2v1h-117l-152-1-4-1-33-2-26-2-50-3h-28l-47 2h-51l-30-3-22-1v-1z" fill="#1F0502"/>
<path transform="translate(1031,544)" d="m0 0 4 2 10 9 6 3 3 5 2 6 4 4 2 11 13-3h12v9l-5 4-18 4v6l1 1 1 19 1 1 1 20 1 1v15l-2 2h-11l-2-6-1-17-1-2-1-13-1-5-1-17-14 2h-8l-4-5 1-5 5-3 12-3 6-1-1-17-3-7-6-8-6-10z" fill="#782A26"/>
<path transform="translate(592,933)" d="m0 0h22l7 3 3 5 1 1 1 7 1 1v6l-6 1-9-5h-8l-6 4-3 3v19l4 6 1 1h12l7-3 7-2 2 6-2 6-5 7-7 3h-20l-9-5-6-9-3-6v-29l5-10 9-9z" fill="#140F0F"/>
<path transform="translate(541,1134)" d="m0 0h19l3 1 1 10v11h2l3 14-3-1-3-7-5-1-4 4h-2l-2 4h-17l-5-4-1-3-6-1-10 1-5 1-2 5-3 7-5 2-1-1-1-15 2-9 4-8 7-8 2-1z" fill="#850F09"/>
<path transform="translate(1636,1125)" d="m0 0 19 1h19l5-1h11l7 4v34l-2-3-2-8-6-1-8 3-15 1h-9l-12-1-4 2-5 12-3 12-4 7-3 2-4-1 5-4 2-5 2-24 1-11 2-10 1-7z" fill="#850E08"/>
<path transform="translate(643,1128)" d="m0 0h6l8 5 1 1 1 38 9 9 5 2-4 2-5-1v-2l-4-1v-2h-2l-2-5-1-14-3-2h-9l-25 5h-18l-8 8-2-1 3-28 7-10h31l8-2z" fill="#840F09"/>
<path transform="translate(1681,896)" d="m0 0h214l56 1 1 3h-742l1-2h190l20-1h183z" fill="#CF6A67"/>
<path transform="translate(1771,1124)" d="m0 0h8l6 2 1 7 1 1v33h2v8l-2-1-2-15-2-12-1-3-6-1-8 8-3 1h-14l-17 5-7 10-4 13-5 6-3 1 1-8 1-1 1-14 1-1 1-15 1-2 1-13 4-4 10-4h18l3 1h11z" fill="#86100A"/>
<path transform="translate(238,1154)" d="m0 0h1v6l-6 14-5 10-6 15-4 5-5 3-6 4h-9l-6-9-12-24-4-10v-2l7 1 6 3h5l5-1 7 1 12-5 7-6 9-3z" fill="#691512"/>
<path transform="translate(937,355)" d="m0 0 2 1v2l7 2 2 5 2 2 6 22 9 26 6 15 8 18 6 13 6 12 8 14 10 18 8 14 4 8v4l-4-2-7-9-7-10-18-28-5-9-10-19-10-21-5-13-6-17-9-27-3-14z" fill="#7D3430"/>
<path transform="translate(880,935)" d="m0 0h17v35l1 1v13h20l2 2v15l-1 1h-39l-2-2v-59z" fill="#201B1B"/>
<path transform="translate(790,876)" d="m0 0 9 1 4 2-1 5-3 5-7 1-7 3-5 6h-23l-23-1-121-1v-1l41-1 5-2 5-5 9-2 9-1h61l7 3 16 2h7l5-3h2l2-4z" fill="#350703"/>
<path transform="translate(795,888)" d="m0 0 3 2-7 9-4 3h-691l-1-2h428l2-1 51-1 98-1h60l23 1h23l6-7z" fill="#CE9896"/>
<path transform="translate(731,1130)" d="m0 0h19l3 4-1 9-2-2-2 2h-10l-6 9h-11l-9-1-5 4-3 3-10 5-4 9-3 6-5 4-4-1 3-9 1-11 2-3 1-13 6-10 6-3 26-1z" fill="#85110B"/>
<path transform="translate(315,1117)" d="m0 0 5 1 2 8v13l-8-1-1-1h-7l-1 3-9 6-16 7-19 3-4 3h-4l-2-24 8-2 24-3 13-4 12-6z" fill="#840E08"/>
<path transform="translate(1318,933)" d="m0 0h9v69h-16v-67z" fill="#080505"/>
<path transform="translate(1599,895)" d="m0 0h352v3l-56-1h-214l-77 1h-183l-20 1h-98v-1l26-1 83-1z" fill="#800D07"/>
<path transform="translate(1058,411)" d="m0 0h1v58l-1 49-1 1-1 14-3 7-4-1v-46l1-1v-13l1-25 1-2v-35l4-3h2z" fill="#720F0B"/>
<path transform="translate(1031,236)" d="m0 0h6l5 5 1 7v7l3 6 3 12h3l1 27-3 8-2 7-3-4-1-14-1-1-1-10-1-2-2-13-4-13-5-11-1-5z" fill="#881712"/>
<path transform="translate(937,355)" d="m0 0 2 1v2l7 2 2 5 2 2 6 22 8 23v5l-5-5-10-9-9-27-3-14z" fill="#881813"/>
<path transform="translate(982,464)" d="m0 0 5 2 9 16 20 35 5 10v4l-4-2-7-9-7-10-18-28-4-11v-6z" fill="#912822"/>
<path transform="translate(790,876)" d="m0 0 9 1 4 2-1 5-3 5-7 1-7 3-5 6h-23l-23-1-8-1v-1h37v-4h-2v-2h12l5-3h2l2-4z" fill="#390B07"/>
<path transform="translate(621,513)" d="m0 0h7l8 7 4 5-2 5-4 2-18 1-4-3v-9l5-5z" fill="#840E08"/>
<path transform="translate(795,888)" d="m0 0 3 2-7 9-4 3h-25l-49-1v-1l-39-1v-2h60l23 1h23l6-7z" fill="#660C08"/>
<path transform="translate(1231,418)" d="m0 0v3l-1 4v2l4 2 1 6-1 3h-6l-2 8-2-9-2-2-7 1-4 2-13 1-3 1h-7l1-3 12-5 16-6z" fill="#752420"/>
<path transform="translate(801,403)" d="m0 0h2v5l-1 1-1 9-8 10-6 8-1 2v9l8 7 11 8 2 3v12h-1l-1-9-6-2-15-10-3-5 1-15 4-8 9-11 3-5z" fill="#982D27"/>
<path transform="translate(1057,623)" d="m0 0 4 4 5 21v14l-10 1-2-6v-28z" fill="#441713"/>
<path transform="translate(1387,729)" d="m0 0 8 1 5 5 1 9-5 8-4 1-7-8-5-6 1-5z" fill="#400F0B"/>
<path transform="translate(720,891)" d="m0 0h41l2 1v4l-7 1h-34l-36-1 3-2 10-2z" fill="#1B0502"/>
<path transform="translate(1052,281)" d="m0 0 2 1 1 12 1 1 1 20 1 1v20h-1v-7l-5 1-3-1v7l-2-1v-20l2-7 3-8z" fill="#BC2F29"/>
<path transform="translate(1058,411)" d="m0 0h1v40l-2 10-3 3-1-2-1-10v-35l4-3h2z" fill="#1E0502"/>
<path transform="translate(1050,492)" d="m0 0h1v12l5 1 1-12h1v25l-1 1-1 14-3 7-4-1v-46z" fill="#C95955"/>
<path transform="translate(1166,611)" d="m0 0 4 5 11 16 10 15 4 5 5 9 7 8-2 2-10-9-10-15-12-16-5-8-3-10z" fill="#942721"/>
<path transform="translate(636,729)" d="m0 0 11 4 5 3 4 12 1 4-4 3-6-4-6-9-5-8z" fill="#4F211D"/>
<path transform="translate(1e3 490)" d="m0 0 3 4 9 16 7 12 2 5v4l-4-2-7-9-7-10-6-9h3l-1-8z" fill="#C3524D"/>
<path transform="translate(552,885)" d="m0 0h90l-4 2-4 1-35 1-33-1-14-2z" fill="#020101"/>
<path transform="translate(828,375)" d="m0 0 4 1 6 4 16 12v2h-6l-12-5-16-10-2-2 9-1z" fill="#C64F4A"/>
<path transform="translate(1016,935)" d="m0 0h2v65h43l1 2h-45l-1-1z" fill="#9C8482"/>
<path transform="translate(1307,622)" d="m0 0 5 3 9 11 4 6 6 7 5 9 1 4-3 1-7-10-8-11-4-5-6-8-4-6z" fill="#992F2A"/>
<path transform="translate(913,255)" d="m0 0 4 1 7 6-2 6-1 2-5 1h-7l-3-4 1-8 5-2z" fill="#891812"/>
<path transform="translate(1046,916)" d="m0 0h10l3 1-1 6-5 3-7 3h-8l-1-2 4-7z" fill="#2B1E1D"/>
<path transform="translate(947,1148)" d="m0 0 3 2-3 3-6 3-59 1-3 1 1-3 26-1 29-3z" fill="#BF3934"/>
<path transform="translate(1195,321)" d="m0 0 2 1-1 5-5 6v7l2 1-13 4-6 3h-8l5-5 12-8 9-7 2-2z" fill="#C64E4A"/>
<path transform="translate(677,726)" d="m0 0h7l-1 5-7 8-4 4-2-1 3-4-5-2-5-3-7-1v-1l9-1z" fill="#A24945"/>
<path transform="translate(1359,805)" d="m0 0h2l-1 5-20 20-4 6-10 10-2-1 4-4v-4l17-17 7-8z" fill="#724B48"/>
<path transform="translate(1265,1133)" d="m0 0h5l-5 4-14 3-26 2 4-3 15-5z" fill="#C54C48"/>
<path transform="translate(801,403)" d="m0 0h2v5l-1 1-1 9-8 10-6 8-2 10-2-2 1-5h-2l1-6 10-14 4-4z" fill="#9F3B36"/>
<path transform="translate(1064,1155)" d="m0 0 4 4 7 9 10 6 9 2 16 1v1h-20l-1 1-9-1-8-5-7-10z" fill="#C7514D"/>
<path transform="translate(1233,739)" d="m0 0 7 6 5 4 8 7 13 11 10 7-3 2-7-4-13-11-12-11-8-8z" fill="#A24641"/>
<path transform="translate(795,888)" d="m0 0 3 2-7 9-4 3h-22v-1l14-2 7-8z" fill="#925653"/>
<path transform="translate(1213,427)" d="m0 0 3 1-6 7-1 1 4 1-2 1-13 1-3 1h-7l1-3 12-5z" fill="#CC6460"/>
<path transform="translate(986,480)" d="m0 0 8 4 5 5 1 4 1 8-2 1v-2h-3l-7-12-3-4z" fill="#71302D"/>
<path transform="translate(1058,411)" d="m0 0h1v20h-7v-14l4-3h2z" fill="#360804"/>
<path transform="translate(1859,1133)" d="m0 0 4 2-10 2-13 3h-13l2-2 5-2 11-2z" fill="#CC615D"/>
<path transform="translate(1323,755)" d="m0 0 4 2 9 5 7 5 6 2-2 2-6-1-16-10-2-2z" fill="#A6514D"/>
<path transform="translate(1626,1129)" d="m0 0h1l1 50-3 6-2 1 1-11 1-2z" fill="#E5B2B0"/>
<path transform="translate(1043,245)" d="m0 0 2 1 6 24v3h-2l-3-7-2-7-2-4v-7z" fill="#C54D48"/>
<path transform="translate(1048,596)" d="m0 0 5 1 5 5 1 3v8l-4 1-1-12-7-1z" fill="#360804"/>
<path transform="translate(1057,485)" d="m0 0h1v8l-2 12-5-1v-12l4-1z" fill="#880E08"/>
<path transform="translate(1057,646)" d="m0 0h2l1 4-1 3 5 5v4l-8 1v-16z" fill="#220805"/>
<path transform="translate(939,367)" d="m0 0 2 4v2h2l6 20-1 4-2-2-7-23z" fill="#9F6A68"/>
<path transform="translate(624,494)" d="m0 0 5 1 1 4-5 4-5-1-1-4z" fill="#840E08"/>
<path transform="translate(1031,544)" d="m0 0 4 2 10 9-3 3-4-1-6-9z" fill="#CE6864"/>
<path transform="translate(1544,1151)" d="m0 0 7 1 8 3v3l-9-1-6-3z" fill="#620B07"/>
<path transform="translate(1378,700)" d="m0 0 7 2 8 5 3 2 6 1v1h-12l-9-8z" fill="#D27370"/>
<path transform="translate(753,1136)" d="m0 0 4 2h-3v32h-1l-1-14v-19z" fill="#FEFEFE"/>
<path transform="translate(1602,1169)" d="m0 0 2 4 5 9v3l-5-2-3-5-1-6h2z" fill="#A44641"/>
<path transform="translate(801,403)" d="m0 0h2v5l-1 1-1 9-5 6-1-3 3-9z" fill="#CF6A66"/>
<path transform="translate(1362,690)" d="m0 0 6 1 8 4 2 5-11-5-9-3z" fill="#B4615D"/>
<path transform="translate(954,385)" d="m0 0 2 4 6 18-1 2-4-6-4-12z" fill="#CB5F5B"/>
<path transform="translate(810,383)" d="m0 0h2l-2 5-5 13-3 1 2-10 5-8z" fill="#C7524E"/>
<path transform="translate(744,750)" d="m0 0 1 4-1 2-5 3-8 9-2-3z" fill="#C27F7C"/>
<path transform="translate(761,722)" d="m0 0h5l4 6-4 1h-7z" fill="#A65A56"/>
<path transform="translate(996,488)" d="m0 0 4 2v7l1 4-2 1v-2h-3l-2-4v-4h2z" fill="#6A1E19"/>
<path transform="translate(1870,1164)" d="m0 0 2 1v4h2v9l-4 3z" fill="#B2615D"/>
<path transform="translate(162,1138)" d="m0 0 3 2v2h-2v39h-1z" fill="#FEFEFE"/>
<path transform="translate(1371,715)" d="m0 0h15l2 2-11 1-7 2z" fill="#A0413C"/>
<path transform="translate(772,733)" d="m0 0 7 6 10 6-4 2-10-8-3-4z" fill="#A13833"/>
<path transform="translate(733,852)" d="m0 0 9 3 7 7-1 3-10-9-5-3z" fill="#B24A45"/>
<path transform="translate(1402,745)" d="m0 0 3 2-5 7-6 1-1-2 8-7z" fill="#9E3A35"/>
<path transform="translate(815,360)" d="m0 0h6v6h-7l-1-4z" fill="#68100C"/>
<path transform="translate(1052,281)" d="m0 0 2 1 1 12 1 1v12h-1v-10h-2l-1-2z" fill="#DD9895"/>
<path transform="translate(1053,452)" d="m0 0 5 1v6l-3 5-2-2z" fill="#360804"/>
<path transform="translate(1212,1210)" d="m0 0 8 2 7 3v2l-7-1-8-5z" fill="#B76965"/>
<path transform="translate(1265,534)" d="m0 0 2 2 1 7-4 4-1-7z" fill="#BA7572"/>
<path transform="translate(1785,1154)" d="m0 0h2v13h2v8l-2-1-2-15z" fill="#9E3631"/>
<path transform="translate(1187,642)" d="m0 0 8 10 2 5-3-1-6-8-2-5z" fill="#C95A55"/>
<path transform="translate(988,470)" d="m0 0 4 4 3 6-1 2-6-5z" fill="#C85551"/>
<path transform="translate(1041,277)" d="m0 0 3 4 1 5v11l-2-1-1-10-1-2z" fill="#BF9C9B"/>
<path transform="translate(1345,684)" d="m0 0 4 1 5 3 3 3h-7l-5-6z" fill="#B36966"/>
<path transform="translate(726,845)" d="m0 0 4 1 9 7-2 1-6-3z" fill="#9A241F"/>
<path transform="translate(1348,819)" d="m0 0v3l-9 9-1-3 8-8z" fill="#4B0905"/>
<path transform="translate(1414,724)" d="m0 0 4 1-5 8-2-1 1-5z" fill="#A3443F"/>
<path transform="translate(1617,1210)" d="m0 0 7 2 1 3 7 1v1h-7l-8-6z" fill="#CF9390"/>
<path transform="translate(1179,630)" d="m0 0 4 5 4 7-4-1-5-9z" fill="#CC635F"/>
<path transform="translate(869,99)" d="m0 0h5l-5 5-4 1-1-3 1-2z" fill="#FEFEFE"/>
<path transform="translate(949,367)" d="m0 0h1l3 11v3l-3-1-2-10z" fill="#CD6662"/>
<path transform="translate(196,1207)" d="m0 0 6 1 5 2v1h-9z" fill="#A3433F"/>
<path transform="translate(1049,329)" d="m0 0h8l-1 4-7 1z" fill="#840E08"/>
<path transform="translate(943,1164)" d="m0 0 3 3-2 2-7-1 1-2z" fill="#A04540"/>
</svg>
