<?xml version="1.0" encoding="UTF-8"?>
<svg version="1.1" viewBox="0 0 2048 1436" width="268" height="188" xmlns="http://www.w3.org/2000/svg">
<path transform="translate(0)" d="m0 0h2048v1436h-2048z" fill="#FEFEFE"/>
<path transform="translate(987)" d="m0 0h77l45 7 29 6 18 5 23 6 26 10 19 8 29 14 13 7 19 11 14 9 18 13 17 13 11 9 11 10 8 7 12 11 22 24 9 11 13 17 11 16 10 15 16 27 12 23 14 32 9 24 8 27 7 29 6 33 2 17 2 36v19l-2 45-3 23-8 40-8 30-10 30-13 31-8 18-14 24-9 15-5 7-5-1-11-13-9-14-5-11 1-3 4-2 10 1 9 4 10-1 2-3-1-5-1-1-13-1-8-7-7-6-9-4-5-2-8-2-7-1-5-4-1-10-7-11-14-20-21-27-8-10-8-17-7-17-13-26-10-16v-9l2-6h2l-4-12-9-17-12-22-13-26-6-15-4-16-6-2-13 4-9 1-12 1 2-2 16-5 22-10 12-8 4-6 2-6-6-9-14-19-11-14-13-18-8-9v-2l-6-1-12 6-8 3h-5l5-4 17-11 8-7 4-4-1-8-12-14-12-12-10-8-19-12-23-12-24-9-30-8-38-7-2-1 3 10 6 22 4 22 4 39 2 37 1 34v24l-1 42-3 73-2 17-3 9-2-3v-31l1-53v-75l-2-57-3-36-5-34-4-16-4-8-2 3-6 15-9 11-6 5v-3l9-15 5-18 1-12-1-5-5-13-5-5-8-4-4-5v-9l-2-9v-5l3-4 2-10 1-10 1-4-3-13-6-11-8-6-7 1-5 5-3 5-4 11v14h-4l-8-8-8-5-11-5-9-5-16-16-3-1-17-1-21 3-12 5-9 5-6-9-2-6-1-10-2 2v12l3 14-1 5-10 9-4 6v6l11 19 12 16 8 8 7 17 9 10 8 8 14 10 13 10 12 11 2 4 1 30 5 42 8 36 9 29 11 30 16 35 12 23 14 24 8 14 6 11 2 5-5-5-9-11-20-30-12-21-10-19-12-26-9-24-9-27-6-25-5-25-4-34-3-33-1-1-7 1-11 7-16 12-12 10-26 16-13 10-12 11-7 9-10 15-3 7 7 8 10 9 18 13 2 3-9-3-16-8-14-9-3-1-10 19-5 13-4 16-6 8-8 11-3 6 1 6 7 7 11 7 6 5v8l2 12v23l-3 31-4 19-4 15v25l-3 7-5 4-7 9-9 13-7 11-5 5-9 7-6 10-12 12-11 9-7 6-3 2 1 5 5 6-12 6-22 10-9 6-10 9-8 7-5 4-14 5-2 2 1 5 3 3 6 1 18-6 1-1h5v4l-5 5-8 7-14 10-6 4-4-2-6-7-9-16-10-19-8-16-9-20-11-29-10-36-6-26-7-41-2-24-1-21v-28l3-36 5-33 8-35 12-39 9-24 15-34 12-22 10-17 12-18 11-16 18-22 13-15 14-15 22-22 11-9 17-14 11-8 17-12 22-14 28-15 17-9 19-8 12-4 4 1v2h-5l-2 5 4 2 5-6 5-1 10-6 11-5 18-4h31l16 3 16 7 16 9 12 9 7 7-6-8-5-6v-2l-4-2-5-5-8-7-24-15v-3l17-3 20-3z" fill="#94110F"/>
<path transform="translate(874,240)" d="m0 0 1 2-5 7-14 11-6 4-8 6h-2l-2 4h-2v2h-2l-2 4-5 6-5 5-6 5-6 9-3 8-7 11-1 4 7 8 10 9 18 13 2 3-9-3-16-8-14-9-3-1-10 19-5 13-4 16-6 8-8 11-3 6 1 6 7 7 11 7 6 5v8l2 12v23l-3 31-4 19-4 15v25l-3 7-5 4-7 9-9 13-7 11-5 5-9 7-6 10-12 12-11 9-7 6-3 2 1 5 5 6-12 6-22 10-9 6-10 9-8 7-5 4-14 5-2 2 1 5 3 3 6 1 18-6 1-1h5v4l-5 5-8 7-14 10-6 4-4-2-6-7-9-16-10-19-8-16-9-20-11-29-10-36-6-26-7-41-2-24-1-21v-28l3-36 5-33 8-35 12-39 9-24 14-32 4-2 2-3 5-3 8-10 8 2 4 4h9l-1 4 7-4 13 2v2h13l2 2 3 8 9 5 3 5 7 3 2 3 7 2 8 4 13 2 7-3 6-5 9-3 4-2 15-1 10-5 9-1 11-4h10l15-2 23-11 19-8 19-11z" fill="#540D0C"/>
<path transform="translate(1431,235)" d="m0 0 4 1 5 5v2h2l16 22 8 16 10 21 5 13 4 10 6 17 7 23 3 15 5 18 2 10 2 9 2 1 3 23 2 36v19l-2 45-3 23-8 40-8 30-10 30-13 31-8 18-14 24-9 15-5 7-5-1-11-13-9-14-5-11 1-3 4-2 10 1 9 4 10-1 2-3-1-5-1-1-13-1-8-7-7-6-9-4-5-2-8-2-7-1-5-4-1-10-7-11-14-20-21-27-8-10-8-17-7-17-13-26-10-16v-9l2-6h2l-4-12-9-17-12-22-13-26-6-15-4-16-6-2-13 4-9 1-12 1 2-2 16-5 22-10 12-8 4-6 2-6-6-9-14-19-11-14-13-18-8-9v-2l-4-1v-8l10-10 3-2-1-6-5-6-1-4-4-1-4-4-5-4-4-8 2-1 12 8 7 1 7 3 8 8h8l6 3 11 2h8l7 3 1 4 2 1-1 2 6 1h3l3 2 11 2h10l11 2 8 1 1-4 5-3 20 2 7-1 3-1 6 2 6-3 8-6 5-9 3-7 3-6 2-7 7-3 4-1v-3l4 1 5 4 2-2 6 5 5 3 4 1-2-7z" fill="#540D0C"/>
<path transform="translate(1951,1115)" d="m0 0h29l17 4 10 4 11 7 7 8 5 12 2 14v39l3 17 5 5 8 3v14l-10 10-15 11-12 6-11 3-12-1-11-4-10-8-5-1-10 8-12 4-6 1h-22l-13-4-10-6-8-10-5 5-8 6-8 5-13 3-20 1h-18l-20-2-6-5-3-7v-8l4-6 4-8 2-7 2-16v-11l-2-18-4-10-4-4-5-3h-6l-2 3-2 9v47l3 9 4 10 1 7-4 6-9 6-8 4-10 3h-43l-13-2-6-3-7-9-6 2-8 6-13 5-6 1-23 1-21-1-14-2-9-3-6-7-1-8 4-10 5-6 6-5 2-7 1-35-4-17-2-4-11-7-3-2 1-15-6 1-9 8-14 24-8 16-14 27-8 16-11 19-10 11-11 6-5 2-8-1-11-9-8-12-8-16-10-18-14-27-13-25-7-9-7-3-8-4-3-7v-9l6-7 6-4 9-3 21-2h35l19 2 16 5 5 10-1 4-5 5-7 6 2 9 8 13v2l4 2h4l8-15v-10l-6-8-1-7 2-9 5-5 5-2 18-2h14l22 2 12 4 1 3 1 7 20-7 31-7 13-2h16l3 4 1 3 1 20-1 52 1 25 4 9 6 7 4 4 3 1v-2h6l3-10 2-22v-33l-4-6-7-6-5-5 1-10 5-8 5-4 9-4 19-7 26-7 5-1h16l4 4 2 13 1 2h3l7-8 10-7 12-4h22l17 4 11 8 5 5 5 7 4 13 2 10 2 54 3 19 5 1 1 1 1-17 4-11 6-9 5-5 5-4 16-8 6-2 13-2 27-2-2-15-4-12-4-4-5 1-8 9-7 8-10 7-12 5-11 1-8-7-3-6v-8l4-10 7-9 9-7 16-8 10-4z" fill="#530D0C"/>
<path transform="translate(59,1058)" d="m0 0 23 1 8 1 7 8 12 22 9 16 10 20 9 15 4 2 10-18 12-24 10-19 7-11 7-8 14-4h40l13 2 9 6 5 8v7l-4 6-5 4-5 6-2 8-4 36v12l2 51 4 22 4 7 6 2h2v-11l6-16 5-8 11-9 14-8 11-3 28-2 7-2v-14l-4-12-5-4-6 2-9 11-7 7-18 10-9 1-9-4-4-6-1-10 5-13 6-8 10-7 16-8 16-5 5-1 24-1h14l21 5 18 12 6 8 4 9 2 11v46l1 12 5 5 8 6 2 8-4 8-8 9-18 12-15 5-11 1-9-3-10-5-5-4-4-4-7 6-10 5-10 4-13 1-14-1-13-4-5-3-7-8-6-7-2-1-1 4-4 6-15 9-11 3-14 1h-21l-17-1-17-3-8-5-3-5 1-9 3-7 7-9h2l3-13v-25l-1-13-3 1-12 23-11 24-8 19-3 5-13 9-2 1h-6l-7-10-8-16-10-22-13-29-3-5-1 1v44l2 8 5 2 7 6 3 3 1 5-7 8-11 7-13 5h-35l-12-3-6-4-6-5v-8l10-9 9-8 2-7 4-53v-52l-4-14-2-6-5-2-9-7-2-2v-7l3-10 9-10 8-3z" fill="#94100E"/>
<path transform="translate(1152,525)" d="m0 0h6l2 4 1 18 4 20 7 18 8 15 24 36 15 22 8 10 9 9 6 11 2 13 1 16v10l5 10 8 9 8 7 11 10 11 9 11 7 3 3 5-1 11-10 8-7 9-10 5-5 10 9 26 16 11 4 16 3 5 1h7l6-1-2 5-12 16-10 13-9 10-7 8-9 9-7 8-14 13-28 22-13 9-5 4h-2v2h160l585 1v17l-25 1h-763l-30-1-2-2-6-26-17-67-18-73-14-58-20-81-6-24-4-23v-15l2-17 3-5z" fill="#420D0C"/>
<path transform="translate(612,1060)" d="m0 0 7 6 1 4 1 36v114l4 7 8 6 7 1 5-4 3-17 1-10v-28l-3-9-8-5-5-4v-12l4-8 7-6 20-8 25-6 9-1h20l4 2 3 12v2l6-1 10-11 7-3 6-1h10l13 2 6 3 8 9 4 8 3 12-3 12-8 11-5 5-14 9-11 3h-8l-8-2-8-4-4-3h-5l1 36 3 9 17 10 4 5 1 6-3 7-9 8-10 5-11 3h-57l-16-3-8-4-6-9h-5l-9 6-11 5-17 4-16 2h-12l-7-3-3-7-3-6-4 1-8 7-12 6-6 2-7 1h-10l-16-4-16-9-11-11-9-13-6-11-2-7-2-17 1-17 4-17 7-13 12-17 9-8 17-9 11-3 12-1h10l13 2 7 2h7l-3-8-7-5-6-2-5-4-1-2v-9l7-10 8-6 17-5 29-6 7-1z" fill="#530D0C"/>
<path transform="translate(1431,235)" d="m0 0 4 1 5 5v2h2l16 22 8 16 10 21 5 13 4 10 6 17 7 23 3 15 5 18 2 10 2 9 2 1 3 23v15l-1 6h-1l-2-17-1-4-2-10-2-9-3-15-5-10-5-16-5-11-2-1-1 9v8h-2l-1 6 4-1-1 10-4 9-4-3v-2l-9-1-5 2h-7l-4 1-3 11-6 11h-2l-2 5-3 4-5 8-5 6-7 1h-6l-2-2h-3l-2 6-1 2-4-1v-3l-8-1 2 4h-4v-2l-6-1h-11l-2 4h-9l-7-2-5-1-2-2-8-1-3-3h-6l-6-5-8-1-5 1-7-1-2 4-2 1-3-1 1 5 1 3-3 2-4-1v-6l-5-2-9-4v-2l-4-2-5-4-1 4 1 10h2l2 9v3h2l4 8 1 6 3 1 4 8 3 8 2 9-4-1-9-17-12-22-13-26-6-15-4-16-6-2-13 4-9 1-12 1 2-2 16-5 22-10 12-8 4-6 2-6-6-9-14-19-11-14-13-18-8-9v-2l-4-1v-8l10-10 3-2-1-6-5-6-1-4-4-1-4-4-5-4-4-8 2-1 12 8 7 1 7 3 8 8h8l6 3 11 2h8l7 3 1 4 2 1-1 2 6 1h3l3 2 11 2h10l11 2 8 1 1-4 5-3 20 2 7-1 3-1 6 2 6-3 8-6 5-9 3-7 3-6 2-7 7-3 4-1v-3l4 1 5 4 2-2 6 5 5 3 4 1-2-7z" fill="#6C0D0B"/>
<path transform="translate(874,240)" d="m0 0 1 2-5 7-14 11-6 4-8 6h-2l-2 4h-2v2h-2l-2 4-5 6-5 5-6 5-6 9-3 8-7 11-1 4 7 8 10 9 18 13 2 3-9-3-16-8-14-9-3-1-10 19-5 13-4 16-6 8-8 11-3 6h-1v-7l5-5 8-10 4-10 3-10v-6l1-1v-9l-2-7-1-1-10 14-2 8-9 15-6 2-1 3-6 2v2h-3l-7 11-3 1-1 3-5 3-2 2-2 5-9 6-2 6-5 5-4 10-5 8-6 1-3 5-6-1-3 5-4-2-7-1-10 4-10-3h-7l-1 2-9-3-1 5-3 1-4-2-3 2-5-1v-2l-7-2-4-3h-4l-3-4v-2h-4v4l-4 1-2-1v-2l-6 3-5 2-1 2h-2v2l-7 5-5-1-7-8-5-2-2 4h-4l-3-8v-5h-2l3-26 5-28 8-32 12-38 10-25 11-25 4-2 2-3 5-3 8-10 8 2 4 4h9l-1 4 7-4 13 2v2h13l2 2 3 8 9 5 3 5 7 3 2 3 7 2 8 4 13 2 7-3 6-5 9-3 4-2 15-1 10-5 9-1 11-4h10l15-2 23-11 19-8 19-11z" fill="#6C0D0B"/>
<path transform="translate(850,689)" d="m0 0h2l-1 9-9 39-10 40-13 41-11 28-16 33-10 17-12 17-5 6-3 1-85 1h-639l-38-1v-17l703-1 46-1v-2l-5-2-11-7-16-13-14-11-15-13-10-9-21-21-11-14-9-11-11-16-4-7v-2h8l8 3h16l8 4 4 1h16l16-8 8-7 10-11 8-11 8-13 3-7 4 1 9 13 11 9 14 8 4 2 6-1 11-6 7-8 6-8 15-10 10-9 7-10 7-11z" fill="#420E0C"/>
<path transform="translate(1106,1057)" d="m0 0h14l24 3 19 3 18-1 9 2 9 7 7 10 6 13 2 9v9l-5 9-8 7-12 5h-7l-10-6-10-10-14-10-14-5h-11l-5 4 1 7 5 6 12 7 24 7 15 5 17 9 10 9 6 7 6 10 3 10v20l-2 10-8 17-12 13-15 11-16 9-16 5-16 3h-35l-21-3-21-6-11-6-7-7-6-13-5-19v-14l3-11 4-6 6-3h8l9 3 11 14 9 14 9 7 12 5 6 1h15l8-3 2-3-1-7-6-5-29-10-18-8-8-5-10-7-12-12-7-10-4-10-2-8v-14l2-12 5-13 7-11 5-6 11-9 13-8 8-4 15-4z" fill="#94100E"/>
<path transform="translate(358,1115)" d="m0 0h14l21 5 18 12 6 8 4 9 2 11v46l1 12 5 5 8 6 2 8-4 8-8 9-18 12-15 5-11 1-9-3-10-5-5-4-4-4-7 6-10 5-10 4-13 1-14-1-13-4-5-3-7-8-6-7-2-1-1 4-4 6-15 9-11 3-14 1h-21l-17-1-17-3-8-5-3-5 1-9 3-7 7-9h2l3-13v-40l26-2 16-3 13-5 4-4 10-3 4-2 3 37 4 25 3 9 4 4 6 1v-11l6-16 5-8 11-9 14-8 11-3 28-2 7-2v-14l-4-12-5-4-6 2-9 11-7 7-18 10-9 1-9-4-4-6-1-10 5-13 6-8 10-7 16-8 16-5 5-1z" fill="#530D0C"/>
<path transform="translate(1951,1115)" d="m0 0h29l17 4 10 4 11 7 7 8 5 12 2 14v39l3 17 5 5 8 3v14l-10 10-15 11-12 6-11 3-12-1-11-4-10-8-5-1-10 8-12 4-6 1h-22l-13-4-10-6-8-10-5 5-8 6-8 5-13 3-20 1h-18l-20-2-6-5-3-7v-8l4-6 5-9 2-5 2-15 1-20 2-16 6-5 12-4h16l4 3h12l5-4 12 2 1 2 2 46 4 18 5 1 1 1 1-17 4-11 6-9 5-5 5-4 16-8 6-2 13-2 27-2-2-15-4-12-4-4-5 1-8 9-7 8-10 7-12 5-11 1-8-7-3-6v-8l4-10 7-9 9-7 16-8 10-4z" fill="#540D0C"/>
<path transform="translate(1416,1116)" d="m0 0h35l19 2 16 5 5 10-1 4-5 5-7 6 2 9 8 13v2l4 2h4l8-15v-10l-6-8-1-7 2-9 5-5 5-2 18-2h14l22 2 12 4 1 3 1 7 20-7 31-7 13-2h16l3 4 1 3 1 20-1 52 1 25 4 9 3 4-4-2-4-4 1-3h-2l-3-47-6-5-3-3-4 1-5 2-2 4-12 2-9-2-11-2-5-2h-6l-4 4-3 20h-1v-9l-4-17-2-4-11-7-3-2 1-15-6 1-9 8-14 24-8 16-14 27-8 16-11 19-10 11-11 6-5 2-8-1-11-9-8-12-8-16-10-18-14-27-13-25-7-9-7-3-8-4-3-7v-9l6-7 6-4 9-3z" fill="#6B0D0B"/>
<path transform="translate(1298,1115)" d="m0 0h21l18 3 11 5 13 8 8 11 4 15 1 11-1 24v17l5 13 8 5 4 3v7l-7 12-8 7-14 9-12 5-11 2h-7l-11-4-8-7-5-4-14 8-16 6-5 1h-11l-16-3-9-4-6-4-8-10-4-13-1-11 2-11 5-9 8-10 9-6 7-5 14-5 8-1 20-1 10-2-1-10-5-19-2-2-4 1-8 7-9 10-8 6-15 7-10 1-8-6-3-6v-11l4-10 9-10 14-9 12-5 15-4z" fill="#95110F"/>
<path transform="translate(863,1115)" d="m0 0h26l17 4 9 4 13 8 9 8 7 10 5 11 2 8v11l-3 10-5 5-8 6-2 1-25 1h-44l2 7 7 8 5 4 8 4h11l19-7 14-5h6l4 4 5 9-1 8-6 9-9 8-22 12-12 5-13 3-13 1-20-2-14-4-11-6-10-8-7-7-9-14-5-12-2-12v-23l6-21 12-18 12-12 14-9 11-5z" fill="#540D0C"/>
<path transform="translate(612,1060)" d="m0 0 7 6 1 4 1 36v114l4 8-3-1-3-6-1-45-6 1-3-4-5 1-4 4-9 1-7 1-19-1-7-3-2 4-3 7-4 2-1 3-2 24-5 11-2 1h-7l-7-5-4-7-3-12v-3h-2l-1-16-6-5-9 1h-10l-11 1-10-1h-12l-3 1-2 4-9 12-1 3-1 11-2-3-1-16 2-16 4-13 6-11 12-17 9-8 17-9 11-3 12-1h10l13 2 7 2h7l-3-8-7-5-6-2-5-4-1-2v-9l7-10 8-6 17-5 29-6 7-1z" fill="#94100F"/>
<path transform="translate(1201,1168)" d="m0 0 9 1 4 8 2 15v9l-2 14-8 16-11 12-15 11-16 9-16 5-16 3h-35l-21-3-21-6-11-6-7-7-6-13-5-19v-14l3-11 4-6 6-3h8l9 3 11 14 9 14 9 7 12 5 6 1h15l10-1 1-4v-8l-1-4h-2v-2l-6-2-12-5-16-6-10-5-5-5v-1l26-6 11-1h11l16-1 20 1 14 1 4 1 14-1 5-5 1-3h2z" fill="#540D0C"/>
<path transform="translate(358,1115)" d="m0 0h14l21 5 18 12 6 8 4 9 2 11v17l-1 8h-1l-2 7-4 3-7 2-5 4-3 2-16 1-9-3-7-2-8 1-2 4h-2l-2 5-3 1-1 19-3 3h-5l-4-4-1-3v-12l4-5 3-2-8 1-1-5-18 5-6 1-1-3h-10l-15 4h-3l-2 5-2 4-4 3-1-5v-4l-2 2 1-5 5-8 11-9 14-8 11-3 28-2 7-2v-14l-4-12-5-4-6 2-9 11-7 7-18 10-9 1-9-4-4-6-1-10 5-13 6-8 10-7 16-8 16-5 5-1z" fill="#94100F"/>
<path transform="translate(1951,1115)" d="m0 0h29l17 4 10 4 11 7 7 8 5 12 2 14v14l-1 15-2 3-4 2h-6l-7 9-2 1h-13l-19-2-20 5 1 2v16l-2 2h-7l-3-6-1-4v-7l2-6 1-2h-4l-2-5h-22l-16-3-8 3-4 4h-2l-1 3h-2l-2 4-3 2h-3l2-6 8-11 10-7 13-6 6-2 13-2 27-2-2-15-4-12-4-4-5 1-8 9-7 8-10 7-12 5-11 1-8-7-3-6v-8l4-10 7-9 9-7 16-8 10-4z" fill="#95110F"/>
<path transform="translate(1371,1189)" d="m0 0h1l1 20 5 13 8 5 4 3v7l-7 12-8 7-14 9-12 5-11 2h-7l-11-4-8-7-5-4-14 8-16 6-5 1h-11l-16-3-9-4-6-4-8-10-4-13-1-11 2-11 2-4 7-2 6-4 5-5 2-1h11l6 5 5 1 12-2 2-1h6l3 5 2 1 1 17 2 4 4 1 4-3 1-16 3 1 5-5 7-1 8 3 12 2 12-1 4-2 4-6 3-1v-2l4-1 7 1v-7z" fill="#540D0C"/>
<path transform="translate(1744,1116)" d="m0 0h16l4 4 2 13 1 2h3l7-8 10-7 12-4h22l17 4 11 8 5 5 5 7 4 13 2 10 2 60h-1l-1-5-2-48-12-1-5 4h-12l-4-3h-16l-12 4-5 4-2 16-1 20-3 19-2 1 3-22v-11l-2-18-4-10-4-4-5-3h-6l-2 3-2 9-1 39h-1v-42l-7-2-2-2-9 1-5 1-25-1-17-1-2 1 1 10-2 5-2 3-2 28-3 15-4 6v-3l2-7 2-22v-33l-4-6-7-6-5-5 1-10 5-8 5-4 9-4 19-7 26-7z" fill="#94100E"/>
<path transform="translate(1340,900)" d="m0 0h123l585 1v14h-155l-183-1-35-1-29-2-30-1h-13l-26 1-12 2-46 1h-218l-2-2 1-2 10-4 10-2 3-1 17-1z" fill="#180504"/>
<path transform="translate(698,1116)" d="m0 0h20l4 2 3 12v2l6-1 10-11 7-3 6-1h10l13 2 6 3 8 9 4 8 3 12-3 12-8 11-5 5-14 9-11 3h-8l-8-2-8-4-4-3h-6l-1-3-3-2-10 1-13 1h-31l-8 4-5 10-1 14-1 5h-1v-36l-3-9-8-5-5-4v-12l4-8 7-6 20-8 25-6z" fill="#95110F"/>
<path transform="translate(245,1160)" d="m0 0h1l3 37 4 25 3 9 4 4 6 1 1 11 2 1-5 9-14 9-13 4-14 1h-21l-17-1-17-3-8-5-3-5 1-9 3-7 7-9h2l3-13v-40l26-2 16-3 13-5 4-4 10-3z" fill="#530D0C"/>
<path transform="translate(0,903)" d="m0 0h112l131 1h378l2 1v2l-8 2v1h18v1h-8v3l2 1-31 1h-67l-3 1h-109l-138 1-237 1h-42z" fill="#280805"/>
<path transform="translate(1527,1116)" d="m0 0h14l22 2 12 4 1 3 1 7 20-7 31-7 13-2h16l3 4 1 3 1 20-1 52 1 25 4 9 3 4-4-2-4-4 1-3h-2l-3-47-6-5-3-3-4 1-5 2-2 4-12 2-9-2-11-2-5-2h-6l-4 4-3 20h-1v-9l-4-17-2-4-11-7-3-2 1-15-6 1-9 8-14 24-2 5-1-3h-2v-2h-12l-8 4h-8l-5 1v-2h-3v-2l-2-1 7-12 2-4v-10l-6-8-1-7 2-9 5-5 5-2z" fill="#94100E"/>
<path transform="translate(863,1115)" d="m0 0h26l17 4 9 4 13 8 9 8 7 10 5 11 2 8v11l-2 8-4-5-3-7-3-5-5 1-5 5-6 2-10 1h-13l-4-1-23-1-13 1h-22l-20 1-10 3-5 4-6 15-3 7-1 5h-1l-1-6v-23l6-21 12-18 12-12 14-9 11-5z" fill="#95110F"/>
<path transform="translate(1152,525)" d="m0 0h6l2 4 1 18 4 20 7 18 8 15 24 36 15 22 8 10 9 9 6 11 2 13 1 16-1 8h-1l-3-21-1-8-3-3v-2l-3-1-2-3-6-1v12l-4 4h-1l1 10-8 6-5-3-5-7h-3l-7-1-3 8-3-1-1 4 1 11 10 38 6 24h2v9l6 27 5 21-1 3-2-4-2-1-27-108-10-42-21-85-6-24-4-23v-15l2-17 3-5z" fill="#540D0C"/>
<path transform="translate(1416,1116)" d="m0 0h35l19 2 16 5 5 10-1 4-5 5-7 6 2 9 8 13v2l4 2 3 3-3 2-7-1-2-1h-7l-7 2-12-1h-12l-3 1h-20l-8 7h-2v-2l-3-1-10-19-7-9-7-3-8-4-3-7v-9l6-7 6-4 9-3z" fill="#94100E"/>
<path transform="translate(770,893)" d="m0 0 5 2 5 1-1 4-10 14-4 5-3 1-85 1h-639l-38-1v-1l42-1 375-2h109l3-1h75l21-1v-3h-11l1-3 8-1v-2h-380l-131-1v-1l576-1 21 1 15 4 16 2v2l7 1 1-4 8-3 5-9z" fill="#280A07"/>
<path transform="translate(37,1175)" d="m0 0 6 1 4 2h19l5 1 1 47 2 8 5 2 7 6 3 3 1 5-7 8-11 7-13 5h-35l-12-3-6-4-6-5v-8l10-9 9-8 2-7 3-35 2-13 1 2 7-3z" fill="#530D0C"/>
<path transform="translate(93,1182)" d="m0 0h9l5 3h14l5-1h18l7-1h11l3 1-1 7-11 22-13 30-4 9-12 9-4 2h-6l-7-10-8-16-10-22-12-27v-3l13-2z" fill="#6B0D0B"/>
<path transform="translate(936,1169)" d="m0 0 4 1 5 8 3 7-1 5-5 5-9 6-25 1h-44l2 7 1 2-3 1-4-2v-2l-6 1-1-2h-4l3 3-1 5-5 4-4-1-1-2h2v-2l-3-2v-1l-18-1-10-2-6 4-3 5-2 6h-2l-3-3-3-1-1-6 3-11 4-9 4-8 7-5 8-2 20-1h26l12-1 20 1 4 1h13l14-2 4-2z" fill="#6C0D0B"/>
<path transform="translate(1244,730)" d="m0 0h2l5 8 7 8 8 7 11 10 11 9 11 7 3 3 5-1 11-10 8-7 9-10 5-5 10 9 26 16 13 5v2l2 1-6 3-8 1 2 2 2 5-1 7-5 7h-2l-2 4-7 6-1 2-4 2-6 4h-2l-1 3-6 5-3 3h-5v-3l-6 1-2-2v-5h2l-1-11 4-2v-7l-3 2h-7l-6-5-9-2-1-2 9-2-5-6v-2l-8-1-3-3-17-9-7-8-5-6-8-7-11-9-5-6-3-5z" fill="#540D0C"/>
<path transform="translate(1340,900)" d="m0 0h123l288 1v1l-345 1 4 2 25 3h86l38-3 36-1h20l69 2 41 2 17 1 53 1 85 1 52 2 59 1v1h-98l-183-1-35-1-29-2-30-1h-13l-26 1-12 2-46 1h-218l-2-2 1-2 10-4 10-2 3-1 17-1z" fill="#2B0906"/>
<path transform="translate(722,956)" d="m0 0 12 1 10 5 7 8 3 8 1 5v22l-4 13-6 8-12 6-13 1-12-3-9-6-6-10-2-9-1-18 3-14 7-10 10-5z" fill="#160D0F"/>
<path transform="translate(1496,956)" d="m0 0 14 1 10 4 5 5 5 8 3 10v22l-4 10-6 9-9 6-8 2h-9l-9-2-8-5-7-8-4-10-1-4v-20l3-10 6-10 7-5z" fill="#150D0F"/>
<path transform="translate(715,628)" d="m0 0h3l2 1-2 5-1 9-12 11-8 7-7 5 1 5 5 6-12 6-22 10-9 6-10 9-8 7-5 4-14 5-2 2 1 5 3 3 6 1 18-6 1-1h5v4l-5 5-8 7-14 10-6 4-4-2-6-7-9-16-10-19-8-16-9-20-7-18h3l6 7 4 7 4 6 5 3 9 9 2 7 4 1 1 3 2 5-1 3 6-3-2-2 11-3 10-4 6-3h2l1-3 7-3 11-10 14-8 6-6 3-5 12-12 6-5h2l2-4 10-9z" fill="#410D0B"/>
<path transform="translate(1318,1172)" d="m0 0 15 3v2l12-1 8-3h9l6 4 3 6v7l-2 10-4 1-7-1v2l-5 5-3 4-9 2-18-2-8-3-7 1-3 2-2 4-3-3v16l-5 4-5-2-2-4v-17l-3-1-2-4h-6l-7 2-9 1-5-3-4-3h-11l-5 3-3 4-7 4h-4l2-5 8-10 9-6 12-5 2-1 3 1h13l8-3 6-1h13l1-3 9-2z" fill="#6C0D0B"/>
<path transform="translate(122,1327)" d="m0 0 5 1 2 3 1 60v25h-7l-1-7-10 4-8 3-13 1-10-5-6-8-4-16v-16l4-13 5-7 10-6 2-1h13l10 5 4 4v-24z" fill="#170D0F"/>
<path transform="translate(1566,1345)" d="m0 0h14l12 7 1 1 1-5 2-3h5l3 4 1 57-2 10-6 8-8 5-12 3h-8l-10-3-6-4-2-6 8 1 12 2h8l8-4 6-8 2-6v-5l-10 7-9 4h-11l-6-3-6-5-6-12-1-4v-16l3-10 4-6 7-6z" fill="#160D0F"/>
<path transform="translate(686,1344)" d="m0 0h10l10 3 8 7 5 9 2 9v18l-4 12-6 8-7 5-11 3h-9l-10-4-8-8-5-11-1-5v-18l4-13 8-9 10-5z" fill="#160D0F"/>
<path transform="translate(486,1344)" d="m0 0h11l11 4 8 7 4 8 2 12v12l-3 12-6 10-8 6-14 3-12-2-8-5-6-8-3-9-1-5v-18l3-10 5-8 8-6z" fill="#170D0F"/>
<path transform="translate(1101,1345)" d="m0 0h18l10 5 6 7 4 9 1 6v18l-3 10-4 6-4 5-10 5-8 2h-8l-10-4-7-7-5-10-3-14 2-16 4-10 4-5 10-6z" fill="#160D0F"/>
<path transform="translate(2013,1344)" d="m0 0h11l10 4 7 6 7 9v35l-7 9-8 7-9 3h-14l-9-4-7-7-4-8-3-13 1-15 5-14 9-8z" fill="#150D0F"/>
<path transform="translate(1616,1061)" d="m0 0h20l12 3 6 4 6 7 1 9-6 8-8 7-17 9-12 4-12 2h-14l-9-2-9-6-3-6-1-10 3-8 5-7 15-8 17-5z" fill="#94100E"/>
<path transform="translate(1201,1168)" d="m0 0 9 1 4 8 2 15v9l-1 7h-1l-1-7-11-1-7 6-9 4-11-1-5-2-21-1h-2l2 2h-2l1 6h-3l-9-5-4-1v-2l-3-1-1 5h-2v-2l-6-2-12-5-16-6-10-5-5-5v-1l26-6 11-1h11l16-1 20 1 14 1 4 1 14-1 5-5 1-3h2z" fill="#6B0D0B"/>
<path transform="translate(2017,1170)" d="m0 0 12 1 1 3v22l-5 2h-6l-7 9-2 1h-13l-19-2-20 5 1 2v16l-2 2h-7l-3-6-1-4v-7l2-6 1-2h-4l-2-5h-22l-16-3-8 3-4 4h-2l-1 3h-2l-2 4-3 2h-3l2-6 8-11 10-7 10-5h19l3-2 10-2h13l6-2 1 1h5l6-3h20l4 1h8l8-3z" fill="#6C0D0B"/>
<path transform="translate(735,724)" d="m0 0 4 1 9 13 11 9 7 5-3 3-8-2-11-9-2-4-4-2-3-1-2 6-2 9h2v2l8 2 8 5 3 3 3 7-1 5-7 1-2 5-10 5h-2v2l-12 6-8-1-1 2 1 7-6 4 1 2 6 3 1 2-1 2h2l1 10 1 4 3 1 3-1 2-2 2 5 7 3 1 5-3 2-2-1v-2h-2v-3l-2 1h-12l-5-5-5-2-2-4-7-2-7-4v-2l-6-2-5-5-4-5-1-3 1-7 6 1 8-3 8-2 10-7 9-5 1-2h2v-3h2l2-5h6l2-4-4-4v-4h-2l-2 4-4 3h-3l-1 2h-2l-1 3-8 7-6 5h-2v2l-16 8-6 2-3-2-7-2-7-5v-2l-18-4-3-3 3-1h16l8 4 4 1h16l16-8 8-7 10-11 8-11 8-13z" fill="#540D0C"/>
<path transform="translate(1484,638)" d="m0 0h2v8l-3 18 1 5-15 35-8 16-14 24-10 15-5-1-11-13-9-14-5-11 1-3 4-2 10 1 9 4 12-1 4-4-1-7h-3v-2l-3-1v-2h-12l-9-5-6-10-7-3-15-3-6-5-7-9-3-8-4-6 1-4 5-1 5 5v2l3 1 8 11v3l6 4 1 2 3 1v2h2v2l9 4 3 2 2-1 13 3v2l7 2 5 1 12-9 2-4h2l2-5 5-7 4-7 5-6 1-4v-4l5-9z" fill="#420E0C"/>
<path transform="translate(1603,909)" d="m0 0h15l30 1 27 2 40 1 178 1 155 1v3l-25 1h-471l-195-1v-1l90-1 6 1v-2l44-1 6-1h22l40-1 15-2z" fill="#590D0B"/>
<path transform="translate(368,1175)" d="m0 0 9 2 11 4h7l6-3 5-2 9-1 5 1 1 7-2 9-4 3-7 2-5 4-3 2-16 1-9-3-7-2-8 1-2 4h-2l-2 5-3 1-1 19-3 3h-5l-4-4-1-3v-12l4-5 3-2-8 1-1-5-18 5-6 1-1-3h-10l-15 4h-3l-2 5-2 4-4 3-1-5v-4l-2 2 1-5 4-4 7-6 3-3 5-1v-2h4l2-4h7l8-2 27-3 9-3 8-3 4-2z" fill="#6C0D0B"/>
<path transform="translate(1505,1206)" d="m0 0 7 1v3l5 1-1 7-8 16-11 19-10 11-11 6-5 2-8-1-11-9-8-12-8-16-10-18-1-3 4 1 4-1 2 2h8l8 4 1 2 3 1v-2l19 2 3 1h7l9-4 8-5h2v-2h3l1-4-10 5-6 1-1-1-7-1 1-2h13z" fill="#540D0C"/>
<path transform="translate(0,903)" d="m0 0h112l131 1h378l2 1v2l-8 2v1h18v1h-8v3l2 1-31 1h-55l-13-1-5-1-2-2h-11v-1l-5-1-1 2-2-1v-2l-4 1-37-1-55-1h-330l-34-1-19-1h-23z" fill="#180504"/>
<path transform="translate(1017,958)" d="m0 0h41l10 1v11l-1 5-34 1v7l1 2 4 1 29 1v15l-1 1-33 1 2 10 32 1v15l-2 1h-49v-72z" fill="#140D0F"/>
<path transform="translate(815,1344)" d="m0 0 10 1 5 3 6 9 3 1 2-4 9-8 6-2 10 1 9 6 3 6 2 16v42l-1 1h-7l-3-2-1-17-1-32-4-7-4-2h-7l-7 4-4 6-1 3-1 42-2 5h-9l-1-48-3-7-4-5-8-1-6 4-5 4-3 8-1 44-2 1h-8l-1-1v-46l1-23 5-1 4 9v2l10-5 7-6z" fill="#170D0F"/>
<path transform="translate(1203,956)" d="m0 0h8l8 2 6 3 5 6 1 4v9l-1 2-5-1-10-5-12 1-7 4-4 6-1 4v13l4 8 5 4h10l4-2 1-2 1-14 2-4h10l4 2 1 2v18l-3 7-9 7-5 2-13 1-9-2-8-5-7-7-4-8-3-11v-14l4-12 7-10 7-5 6-2z" fill="#150D0F"/>
<path transform="translate(1210,1344)" d="m0 0 12 1 8 4 6 7 4 11 1 6v9l-6 2-15 1-25-1 3 13 5 7 6 3h12l8-4 8-7h2l-1 9-5 6-10 5-4 1h-12l-10-4-7-8-5-10-2-10v-9l2-9 5-10 5-6 8-5z" fill="#170D0F"/>
<path transform="translate(1645,1168)" d="m0 0 5 1 8 8 1 16v13l-4-4-4-5-6-1-6 8-8 2 9-2 6-4 4 1-5 4-5 9-4 1-8-1h-11l-3 1-3-2-7-1-3-3h-6l1-3h-3l-1 8-2 3h-2l-1 4-1-6v-18l3-21 5-5 9 1 6 2 10 2 9 1 9-2 5-5z" fill="#6C0D0B"/>
<path transform="translate(1642,1345)" d="m0 0h14l8 4 8 9 2 5 2 12-1 8-6 2h-39l1 9 5 8 5 4 7 2 9-1 7-4 9-7h1v6l-5 8-7 5-8 2h-11l-11-4-5-4-6-12-2-7v-20l4-9 5-8 8-6z" fill="#160D0F"/>
<path transform="translate(418,1344)" d="m0 0h10l10 3 5 5 3 5 1 5v47l-2 7-5-1-4-2-6 1-10 4h-9l-8-4-5-6-2-6v-8l4-6 9-6 23-9h2l1-7-3-7-5-3h-9l-12 4-7 4-1-3 6-9 8-6z" fill="#180D0F"/>
<path transform="translate(1821,1345)" d="m0 0h17l8 4 4 5 2 5v53l-2 4-7-1-2-4-10 4-9 3-9-1-7-5-4-8v-12l6-7 12-6 18-6 2-2v-8l-3-5-4-2h-12l-10 4-7 4-2-1 4-8 5-5z" fill="#160D0F"/>
<path transform="translate(917,1344)" d="m0 0 11 1 9 4 5 6 1 3v55l-2 3-6-1-3-2h-6l-10 4h-10l-8-5-4-5-2-7v-8l5-5 11-6 22-9 1-2v-7l-3-5-4-2h-11l-9 4-10 5 1-6 8-9 9-5z" fill="#170D0F"/>
<path transform="translate(1038,1344)" d="m0 0h10l10 5 5 6 2 5v50l-2 5-2 1-8-3-9 2-10 3-10-2-6-5-3-7v-11l7-8 10-5 18-7h2l1-3v-7l-3-6-3-1h-12l-12 5-3 2h-3l1-7 8-7 8-4z" fill="#170D0F"/>
<path transform="translate(1948,1344)" d="m0 0h9l9 4 5 5 2 5 1 20v33l-3 5-6-2-4-2-11 5-9 1-9-3-6-5-2-5v-13l6-7 10-5 17-6 4-1 1-8-3-7-3-2h-11l-11 4-5 3h-3l1-7 8-7 8-4z" fill="#160D0F"/>
<path transform="translate(301,1344)" d="m0 0 10 1 6 3 5 5 3 6v52l-3 5-5-1-2-2-9 1-8 4h-7l-7-2-7-6-3-8v-9l5-5 14-8 19-8 2-3-1-7-4-5-2-1h-13l-9 4-7 4h-2l1-5 7-9 10-5z" fill="#170D0F"/>
<path transform="translate(1432,1344)" d="m0 0h10l8 3 5 5 4 8v57h-6l-3-7-12 6-7 2h-7l-9-5-5-6-1-3v-10l4-6 8-6 21-8 6-2 1-7-4-6-4-3h-12l-16 7h-2l2-8 7-6 8-4z" fill="#160D0F"/>
<path transform="translate(417,916)" d="m0 0h117l194 2v1l-51 1v1h-639l-38-1v-1l42-1 251-1z" fill="#6F0F0D"/>
<path transform="translate(503,1179)" d="m0 0h6l7 6v16h2l5 17 4 6-1 2-6-5-5-11-2-4h-3l-2 8h-2l-4 5-11-2-5 2-4-1-1-4h-5l1-7-4 1h-12l-8 3-4 9-1 5-2-1v-3l-3-1-2-3h-1l1-16 3-6 10-13 3-2h12l10 1 12-1h9z" fill="#6C0D0B"/>
<path transform="translate(554,956)" d="m0 0 14 1 9 3 5 6 3 16-5-1-13-6-8 1-8 5-3 7v16l3 6v2l8 4h7l18-6 2 3-1 5-6 9-10 5h-16l-10-4-6-5-5-10-2-9v-20l3-11 5-8 7-6z" fill="#150D0F"/>
<path transform="translate(1288,1334)" d="m0 0h44l3 1v8l-3 2-35 1v22h36l2 2-1 9-1 1-35 1-1 11v12h31l7 2 1 7-1 2-5 1h-44l-1-32v-49z" fill="#190E0F"/>
<path transform="translate(9,1334)" d="m0 0h48l1 5-2 6-29 1-7 1v21l37 1 1 1v7l-1 3-36 1-1 2v20l1 1h34l3 5v5l-5 2h-44l-1-9v-72z" fill="#150D0F"/>
<path transform="translate(605,1172)" d="m0 0 5 1 2 4 6-1 1 12v23l-2-3-7-3-2-2h-5l-4 3-7 2h-7l-8 3h-12l-3-2h-5l-3 3h-2l-1 3h-2l-1 4-3 6-4 2 2-6 2-5 3-33h1l1 5 3-1 1-6 4-5 7 2 19 1 13-1 5-3z" fill="#6B0D0B"/>
<path transform="translate(1700,1170)" d="m0 0 17 1 25 1 8-2h6l4 3 6 1-1 31h-1l-1-9-10 1-4 4-12 1h-16l-14-3-3 3-5 11-3 5-2 12-3 1v-8l1-5 2-28 3-4 1-5-1-9z" fill="#6C0D0B"/>
<path transform="translate(1033,527)" d="m0 0 5 4 7 9 7 1 3 5 2 7 2 3 3 1 1 2 2 13 15-3 11-2 1 2v9l-7 3-18 4 1 17 4 40v15l-11 1-1-1-5-47-3-20-9 1-8 2-6-1-4-2-1-6 5-3 20-5h2l-1-7-1-17-13-19-3-4z" fill="#2C0907"/>
<path transform="translate(82,1197)" d="m0 0h2l6 11 5 3 7-1 6 3 8 7 7-1 11-4 5-5 10-4 3-1v-2h2l2-4 2 1-1 5-11 24-8 19-3 5-13 9-2 1h-6l-7-10-8-16-10-22-7-16z" fill="#530D0C"/>
<path transform="translate(1851,1168)" d="m0 0 12 2 1 2v22l-2-3-1-4-4 1-6 5h-2l-2 5-1 1h-7l-7-2-9 1-5 4-13 2v2l5 1-2 8-5 1-1-4-2-1-2 7-2 5-3 9h-1v-9l1-9 1-20 2-16 6-5 12-4h16l4 3h12z" fill="#6B0D0B"/>
<path transform="translate(1751,901)" d="m0 0h297l-1 4h-12l-20 1-83 1h-155l-67-2-26-1-46-1v-1z" fill="#120E10"/>
<path transform="translate(528,1154)" d="m0 0h7l6 4 3 4 3 11v34l-2 12-4 8-2 1h-7l-7-5-4-7-4-15v-19l5-19 5-8z" fill="#fff"/>
<path transform="translate(1509,1344)" d="m0 0 9 1 8 7 4 9 1 5v43l-2 7h-6l-3-3-1-12-1-34-3-8-4-3-8 1-9 4-4 8-1 4-1 42-1 1h-9l-1-1v-68l2-2h7l1 1 1 11 7-4 11-8z" fill="#170D0F"/>
<path transform="translate(150,1345)" d="m0 0h7l2 3 1 46 2 8 5 6 6 1 10-5 5-5 1-3 2-49 3-2 6 1 2 2v57l1 10-1 1h-6l-4-5-1-4-14 9-7 2h-7l-9-6-5-8-1-5v-53z" fill="#160D0F"/>
<path transform="translate(1059,289)" d="m0 0h1l1 11 1 1 2 56v24l-1 42-3 73-2 17-3 9-2-3v-31l1-53v-75l-2-57v-13l5 2z" fill="#1B0E0F"/>
<path transform="translate(2013,1356)" d="m0 0h12l6 4 7 11 1 4v10l-3 12-6 8-7 4h-9l-8-4-6-9-3-11v-9l4-10 6-7z" fill="#fff"/>
<path transform="translate(606,1334)" d="m0 0h43l1 1v8l-1 2-34 1-2 1v21l2 1h33l1 1v11l-27 1-9 1-1 33h-10l-1-1v-80z" fill="#160D0F"/>
<path transform="translate(486,1356)" d="m0 0h13l6 4 5 8 1 5v17l-3 9-7 7-7 3-10-1-6-4-4-6-3-11v-14l4-9 5-5z" fill="#fff"/>
<path transform="translate(1108,1355)" d="m0 0 9 1 7 5 4 8 1 4v17l-3 8-7 8-6 3h-8l-6-3-7-8-2-5-1-6v-13l4-10 8-7z" fill="#fff"/>
<path transform="translate(866,958)" d="m0 0h17l1 56h24v16l-1 1h-42l-1-1 1-68z" fill="#140D0F"/>
<path transform="translate(685,1356)" d="m0 0h12l6 4 4 5 3 8v17l-4 10-7 7-5 2h-10l-6-4-5-8-2-7-1-13 2-9 4-6 6-5z" fill="#fff"/>
<path transform="translate(713,1175)" d="m0 0h6l4 4-3 10-1 5-4-2-2-3h-4l-5 10-7 1-14-4h-5l-2 6-4 6-3 1-5-2h-2l-5 10-3 9-7 3-1-2 2-14 2-7 1-14 5-10 9-5h37z" fill="#6C0D0B"/>
<path transform="translate(99,1355)" d="m0 0 8 1 8 7 4 6 1 4v15l-3 10-7 7-8 3h-7l-6-4-5-8-2-8v-17l4-9 6-5z" fill="#fff"/>
<path transform="translate(1430,916)" d="m0 0h514l104 1v1l-25 1h-471l-195-1v-1z" fill="#95110F"/>
<path transform="translate(983,1344)" d="m0 0h7l9 4 8 9 2 4-2 2-6-1-9-6-7-1-7 3-5 5-3 4-2 6v17l3 8 6 8 7 4 16-8 6-4h3l-1 5-4 6-6 5-8 3v-2l-2 2 4 10 2 9h-22l2-4 5-2h3l-4-11-8-6-7-6-5-10-2-7v-14l3-12 6-10 8-6 6-3z" fill="#190D0F"/>
<path transform="translate(361,1345)" d="m0 0h14l10 6 4 6 1 4-4 2-12-7-7-1-7 2-5 4-4 8-1 4v13l3 12 7 9 5 3 5-1 14-9 2-2h3v6l-6 8-7 4h-8l6 9 1 2v9h-23l3-5 9-2-2-6-5-7-9-6-6-8-3-11v-20l3-10 6-8 8-6z" fill="#190E10"/>
<path transform="translate(1746,1347)" d="m0 0h47l1 5-4 11-20 28-7 9-4 7 13-1h19l2 2v6l-1 1-28 1h-14l-3-2v-11l7-11 10-12 9-12 6-9 1-2h-32l-2-4z" fill="#150D0F"/>
<path transform="translate(1889,1345)" d="m0 0h12l10 6 6 7 1 3-5 2-12-7-7-1-7 3-5 4-4 7-1 4v17l3 8 4 6 8 6h7l1-3 12-7 2-2h3l-1 5-6 9-10 5v-3h-4l6 14v8h-22l4-5 7-2-4-10-4-4-8-6-5-6-4-10-1-6v-8l3-14 5-10 11-8z" fill="#170D0F"/>
<path transform="translate(245,1160)" d="m0 0h1l1 21-1 3h-6l-3-2v-2l-6 3-4 5-9 5-9 3-6 4-7 1h-13l-6 5-1-1-1-12-2 1v-15l26-2 16-3 13-5 4-4 10-3z" fill="#6C0D0B"/>
<path transform="translate(1345,1344)" d="m0 0 7 1 4 6 8 25 5 19 3 9h3l3-9 12-42 3-6 5-2 4 1-1 7-7 24-9 32-3 6-1 1h-13l-4-2-6-17-8-28-5-22z" fill="#160D0F"/>
<path transform="translate(37,1175)" d="m0 0 6 1 4 2h19l5 1v16h-1v11h-2v2l-6 1-3-2-5 1-5 4-8-1-5-2v-3h-2v2l-5 3h-4l-2-5 1-15 2-13 1 2 7-3z" fill="#6C0D0B"/>
<path transform="translate(929,318)" d="m0 0 4 5 5 2 3 14-1 8 2 4v3h2v4l2 1 2 12h2l6 11 5 12 12 27 12 25 13 23 14 25 8 14v3l-10-12-14-20-12-19-10-18-9-17-12-26-9-24-9-27-6-25z" fill="#450E0C"/>
<path transform="translate(1571,1355)" d="m0 0h8l6 4 7 8 1 4v13l-3 8-6 5-8 4h-6l-6-4-4-5-3-7-1-10 2-9 4-6 6-4z" fill="#fff"/>
<path transform="translate(243,1344)" d="m0 0h7l8 3 6 5 4 7-1 5-5-2-9-6h-11l-7 4-5 8-2 9 1 12 3 10 6 8 3 2h7l8-4 10-8h2l-1 8-6 7-10 5-5 1-11-2-9-6-6-9-3-11v-18l3-11 7-9 11-7z" fill="#160D0F"/>
<path transform="translate(1355,957)" d="m0 0 4 1v51l-1 22-2 1h-14l-1-6v-45l1-22z" fill="#170D0F"/>
<path transform="translate(850,689)" d="m0 0h2l-1 9-9 39-9 36h-1l-1-7 2-10 2-9-1-16v-5l-7 4-7 7-6 5-11 9-10 8-10 5-4-1-3-4 16-8 8-7 6-9 11-8 9-6 9-10 11-17z" fill="#530D0C"/>
<path transform="translate(1495,975)" d="m0 0h10l6 4 3 4 2 7v12l-3 9-6 5-3 1h-7l-5-3-4-4-2-7v-17l5-8z" fill="#fff"/>
<path transform="translate(719,975)" d="m0 0h8l6 3 3 3 2 6v16l-4 9-7 4-6 1-7-3-4-5-2-5v-17l3-7 5-4z" fill="#fff"/>
<path transform="translate(760,1344)" d="m0 0h7l5 2 3 4 1 5-1 2h-14l-8 3-3 4-1 3-1 48-1 1h-9l-1-1-1-68 2-2 7 1 3 5v6l7-6 3-6z" fill="#150D0F"/>
<path transform="translate(420,1227)" d="m0 0 12 1 1 4h2l-1 5-1 2 1 7-7 8-18 12-13 4v-2l4-3-2-2h-14l-4-2-1-4h5l7-3 10-4h2v-2l6-3 6-8 3-8h2z" fill="#410D0C"/>
<path transform="translate(1691,1329)" d="m0 0h9l1 1v82l-2 5h-9z" fill="#2B0906"/>
<path transform="translate(1033,527)" d="m0 0 5 4 7 9 7 1 3 5 2 7 2 3 3 1 1 2 2 13 15-3 11-2 1 2v9l-7 3-20 4h-6v-6h-5l-2 2-1-3h-2v-2h2l-1-7-1-17-13-19-3-4z" fill="#440E0C"/>
<path transform="translate(1722,1348)" d="m0 0h7l2 2v65l-1 1h-9l-1-13v-52z" fill="#140E0F"/>
<path transform="translate(1059,289)" d="m0 0h1l1 11 1 1 1 22v13l-3 42-1 15-2 4-1-2-1-27-1-8-2-57v-13l5 2z" fill="#440E0C"/>
<path transform="translate(742,1235)" d="m0 0 4 2 4 7-1 7-6 7-10 7-16 5h-57l-16-3-4-2 1-2 5 1 8 1 4-1h8l4 3-1 1h40l11-3 6-5 2-12 5-7 9-1z" fill="#430E0C"/>
<path transform="translate(1255,387)" d="m0 0h3l-1 7 3 1-1 4 1 2h3l-1 5-6 2-2 10 2 4 2 7 5 12 2 5-1 5-3-4-9-19-5-16-1-6-6-2-13 4-9 1-12 1 2-2 16-5 22-10z" fill="#560D0C"/>
<path transform="translate(1052,1185)" d="m0 0 5 2 10 13 9 14 9 7 12 5 6 1h19l-5 4-4 2h-16l-11-3-9-5-13-13v-2h-2l-7-8-1-3-4-2-8-2 3-3h4v2l3-1-2-7z" fill="#700D0B"/>
<path transform="translate(1048,1382)" d="m0 0h5l1 1v12l-3 8-9 6-9 2-5-3-4-8 1-7 8-5z" fill="#fff"/>
<path transform="translate(1956,1382)" d="m0 0h6l1 1v12l-3 7-9 7-7 2-6-3-4-5-1-6 2-5 6-4z" fill="#fff"/>
<path transform="translate(430,1382)" d="m0 0h5l2 3-2 12-3 6-10 7-6 1-6-3-4-7v-6l7-6 14-6z" fill="#fff"/>
<path transform="translate(1833,1382)" d="m0 0h7l1 1v12l-2 7-10 7-3 1h-8l-5-4-1-3v-7l6-7z" fill="#fff"/>
<path transform="translate(928,1381)" d="m0 0 4 1v12l-2 8-9 6-5 2h-6l-6-5-2-8 6-7 16-8z" fill="#fff"/>
<path transform="translate(1448,1381)" d="m0 0h3v7l-4 10-7 8-8 5-6-1-5-5-1-9 3-5 9-5z" fill="#fff"/>
<path transform="translate(583,490)" d="m0 0 6 2 2 4 5 1 1 6-1 2 4-1 3 3v6l-1-2-6 2v2l-5 1-2-1v-2l-5-1-1 3v-2l-6 3h-3v2l-3-1-2-6v-3-8l5-4 4-3h3v-2z" fill="#6C0D0B"/>
<path transform="translate(310,1382)" d="m0 0 5 1 1 2-2 10-3 7-10 7-2 1h-7l-6-5-2-4 1-5 4-5 12-6z" fill="#fff"/>
<path transform="translate(1371,654)" d="m0 0 3 3 4 7 2 5 8 10 7 3 15 3 5 4 5 9 8 4h9l3 1 3 3v2h3l2 4-1 5-4 3-2-1 2-3-1-5-1-1-13-1-8-7-7-6-9-4-5-2-8-2-7-1-5-4-1-10-7-11-4-7z" fill="#5A0D0C"/>
<path transform="translate(1644,1356)" d="m0 0h11l8 6 3 5 1 6-2 2h-35l1-7 4-6 5-4z" fill="#fff"/>
<path transform="translate(1209,1356)" d="m0 0h12l8 7 2 5v6l-1 1h-35l2-9 6-7z" fill="#fff"/>
<path transform="translate(1446,1240)" d="m0 0h3l6 13v3l9 1v2h9l12-7h3v2h2v2h2l-1 4-7 6-8 4-5 2-8-1-11-9-8-12-2-6 1-2h3z" fill="#450E0C"/>
<path transform="translate(1033,187)" d="m0 0 6 1 3 2v9l4 20v3h2l1 4 3 3 1 5v19l-1 4-1 16h-1l-6-40-4-16-3-6-1-8-4-1-2-10z" fill="#520D0C"/>
<path transform="translate(1339,749)" d="m0 0 7 6 5 4 1 4 7 6 5 8-1 3-5-1 1 3h-5l-4-3-1-3-2-1v-2h-15l-2-4 2-3v-6-3z" fill="#410D0C"/>
<path transform="translate(1152,525)" d="m0 0h6l2 4v12l-1 13-1 5-3 6-5 1-3-6-2-16h-1l1-12 3-5z" fill="#420E0C"/>
<path transform="translate(1862,1244)" d="m0 0h7l4 2 1 5 4 2-5 6-13 8-13 3h-19v-1l14-4 11-1v-2l4-2-6-2 2-1v-3l3-3 3-6z" fill="#410D0C"/>
<path transform="translate(1603,909)" d="m0 0h15l30 1 27 2 29 1v1h-179v-1l40-1 15-2z" fill="#420E0C"/>
<path transform="translate(1044,1232)" d="m0 0 9 6 8 6 2 3-1 4-1 2h-2l1 4h-2l3 3 10 4v2l-10-2-12-5-8-6-5-6 2-1h8l-3-9z" fill="#410D0B"/>
<path transform="translate(667,910)" d="m0 0h30l9 2v-2h31l-2 3-14 3h-67l-10-1-1-3 2-1h18z" fill="#180504"/>
<path transform="translate(1055,423)" d="m0 0h1v55h2l3-49h1v17l-2 50-2 17-3 9-2-3v-31l1-53z" fill="#8B100F"/>
<path transform="translate(1396,808)" d="m0 0 5 1-4 6-9 10-7 8-9 9-7 8-14 13-6 4-1-4 3-6h2l2-4h2v-2l9-7 5-4 9-11 3-3h2v-2l6-5h3l2-5z" fill="#2D0907"/>
<path transform="translate(1429,731)" d="m0 0 8 4 3 6v7l-3 6-6 3-13-16-2-3 1-3 4-2z" fill="#290906"/>
<path transform="translate(868,1148)" d="m0 0 7 1 6 4 3 5v8l-2 2-13 1-5-2-1-2v-10l3-5z" fill="#fff"/>
<path transform="translate(417,916)" d="m0 0h117v2l-62 1h-93l2-2z" fill="#4F0D0C"/>
<path transform="translate(589,717)" d="m0 0 3 4 3 5v2l5 2 13 8 3 6v2l5 2 1 3-1 3-6 4-4-2-6-7-9-16-7-13z" fill="#290806"/>
<path transform="translate(772,548)" d="m0 0h1l1 23-3 7-5 4-6 8-2-4 1-13 7-15 2-1z" fill="#420D0C"/>
<path transform="translate(407,1327)" d="m0 0h13l25 1 1 3-3 4h-33l-8 1-2-1 1-4 3-3z" fill="#1A0D0F"/>
<path transform="translate(1056,553)" d="m0 0 3 3 3 1 1 2 2 13 15-3 11-2 1 2v9l-3 2h-3v-3l-4-1-1 2-5 1-9-2-1-2-6-1-2-15-6-1 2-4z" fill="#520D0C"/>
<path transform="translate(1934,1327)" d="m0 0 39 1-1 4-5 3h-30l-8 1-2-1 2-6z" fill="#180D0F"/>
<path transform="translate(1061,621)" d="m0 0 2 4 2 7 2 1 3 8 1 16-10 1-1-1-2-24 1-1z" fill="#1C0605"/>
<path transform="translate(1026,1327)" d="m0 0 27 1 8-1 2 1-1 5-5 2h-38l-1-2 5-5z" fill="#1E0E0F"/>
<path transform="translate(1949,1207)" d="m0 0h6l4 6v16l-2 2h-7l-3-6-1-4v-7l2-6z" fill="#fff"/>
<path transform="translate(1579,1244)" d="m0 0 5 1 11 6 4 5 2 1v2l-2 2h-14l-5-2-4-5 2-9z" fill="#420E0C"/>
<path transform="translate(1292,1207)" d="m0 0 6 1 2 3v17l-5 4-5-2-2-4v-15z" fill="#fff"/>
<path transform="translate(1194,1238)" d="m0 0h5l-6 7-18 12-14 7h-2v-2l3-1 3-6v-2h2l-1-3 3 1 6-5 5-3h7z" fill="#400D0B"/>
<path transform="translate(1484,1255)" d="m0 0h4l-1 4 2 1-2 4-11 6-5 2-8-1-6-5v-1l6-2 3-2h8z" fill="#570D0C"/>
<path transform="translate(341,1208)" d="m0 0h6l2 2v20l-2 2h-5l-4-4-1-3v-12z" fill="#fff"/>
<path transform="translate(542,1404)" d="m0 0h5l2 2v8l-6 21-1 1h-7l6-31z" fill="#190D0F"/>
<path transform="translate(643,728)" d="m0 0h5v4l-5 5-8 7-6 4-2-4-3-1-4-6-2-2 10-1 14-5z" fill="#570D0C"/>
<path transform="translate(1355,802)" d="m0 0h5l3 6v3l-2 1-3 5-2 2-7 1-4 7h-6l1-5 4-1 2-1 2-6 3-3h2l1-5z" fill="#420D0C"/>
<path transform="translate(796,339)" d="m0 0 12 2h3l13 10 11 8 1 2-9-3-16-8-14-9z" fill="#92100E"/>
<path transform="translate(386,1398)" d="m0 0h3v6l-6 8-7 4-9-1-1-3 9-6 10-7z" fill="#1A0D0E"/>
<path transform="translate(1417,697)" d="m0 0 5 2 6 3h9l3 1 3 3v2h3l2 4-1 5-4 3-2-1 2-3-1-5-1-1-13-1-8-7-3-3z" fill="#570D0C"/>
<path transform="translate(994,465)" d="m0 0 4 4 14 25 8 14v3l-10-12-8-11-3-8-6-10z" fill="#8F100F"/>
<path transform="translate(1052,938)" d="m0 0h7l3 3-1 4-12 5-9 1 1-5 4-5z" fill="#1A0D0F"/>
<path transform="translate(1361,914)" d="m0 0h8l-1 2-21 1-47 1-3 1h-11l-13-1-1-2z" fill="#540D0C"/>
<path transform="translate(756,413)" d="m0 0 2 4 7 8 9 6 7 5-2 5-11-7-9-4-3-4z" fill="#6F0D0B"/>
<path transform="translate(896,204)" d="m0 0 5 2 14 11 2 3h-5l-1 2-7-1-4-1-2-7v-7h-2z" fill="#670D0B"/>
<path transform="translate(1420,913)" d="m0 0h68l9 1v1h-44v2h-62v-1l28-1z" fill="#450D0C"/>
<path transform="translate(641,1263)" d="m0 0 5 1 8 1 4-1h8l4 3-1 1 46 1v1h-55l-16-3-4-2z" fill="#3D0D0C"/>
<path transform="translate(938,326)" d="m0 0 2 2 8 29 8 23-1 2-5-9v-2h-2l-3-9-1-8h-2l-3-8 1-8z" fill="#95110F"/>
<path transform="translate(1042,192)" d="m0 0 2 3 6 18 3 12v5l-2-1v-2l-3-1v-4h-2l-2-7-3-18z" fill="#95110F"/>
<path transform="translate(850,689)" d="m0 0h2l-1 9-4 16h-7l1-8v-4l6-9z" fill="#410E0C"/>
<path transform="translate(1185,609)" d="m0 0 4 4 12 19 10 14 6 10h-3l-10-15v-2h-2l-2-5-3-1-3-7-2-1v-2h-2l-4-5-3-7h2z" fill="#790E0C"/>
<path transform="translate(792,338)" d="m0 0 4 1-4 4-12 25-4 18-6 9-8 10-4 8h-1v-7l5-5 8-10 4-10 6-19 11-23z" fill="#91100E"/>
<path transform="translate(938,1194)" d="m0 0 4 1-9 6-25 1h-23v-1l14-2 25-1 12-3z" fill="#95110F"/>
<path transform="translate(1066,597)" d="m0 0h1l3 23 2 22v15h-1l-4-30-1-4z" fill="#4D0E0C"/>
<path transform="translate(1699,1393)" d="m0 0 2 4v15l-2 5h-9v-6h2l1-3v2h4l1-10z" fill="#1D0E0F"/>
<path transform="translate(1033,187)" d="m0 0 6 1 3 2v7l-2 2-6 1-2 2-2-10z" fill="#6C0D0B"/>
<path transform="translate(258,1246)" d="m0 0h3l3 4v2h2l-2 5-14 9h-2v-2l4-2 2-4h2v-10z" fill="#410D0B"/>
<path transform="translate(584,470)" d="m0 0 6 1 1 5-4 4-9 3-1-5-2-2 6-4z" fill="#6C0D0B"/>
<path transform="translate(1721,1329)" d="m0 0h11l1 1v5l-4 3h-7l-2-1v-7z" fill="#180D0F"/>
<path transform="translate(1152,525)" d="m0 0h6l-1 3-4 1v5h-2l-4 13-3-3 1-12 3-5z" fill="#340B08"/>
<path transform="translate(986,456)" d="m0 0 3 1 6 7v5 3l7 12-1 2-14-21-2-8z" fill="#1E0E0F"/>
<path transform="translate(1461,713)" d="m0 0 3 1-11 20-5 8-1-3 2-3 2-10h2l2-5 2-4z" fill="#5F0D0C"/>
<path transform="translate(1380,1246)" d="m0 0h4l-2 4-11 9-8 4 2-5 1-3h2v-2l10-3z" fill="#400D0B"/>
<path transform="translate(1235,398)" d="m0 0 2 1-2 5-5 2h-3v2l-9 1-12 1 2-2 16-5z" fill="#90100F"/>
<path transform="translate(101,1212)" d="m0 0 5 2 5 4 1 7-9-3-3-3v-2h-2v-4z" fill="#6C0D0B"/>
<path transform="translate(1886,1254)" d="m0 0 6 2v2l4 2 5 4 11 4v2l-8-1-12-6-5-5z" fill="#3D0D0B"/>
<path transform="translate(1056,553)" d="m0 0 3 3 3 1 1 2 2 13 1 2-4 1-2-2-2-14-6-1 2-4z" fill="#600E0C"/>
<path transform="translate(1336,614)" d="m0 0 5 2 11 16 5 6 3 3 7 11-1 3-10-14-16-21z" fill="#820F0D"/>
<path transform="translate(768,906)" d="m0 0h6l-4 7-4 3-13-1 1-3 6-1 7-2z" fill="#400D0B"/>
<path transform="translate(622,774)" d="m0 0 5 2 5 4 1 6 3 3 2 6 1 2-4-2-9-13z" fill="#2B0907"/>
<path transform="translate(1412,715)" d="m0 0 10 1 5 3-4 1-9 1-5 2-2-5z" fill="#530D0C"/>
<path transform="translate(86,1252)" d="m0 0 2 1-9 8-14 7-1-2 4-2 4-4 8-6z" fill="#410D0C"/>
<path transform="translate(1069,1205)" d="m0 0 4 4 3 5 9 7 12 5v1l-9-1-9-5-5-5v-2h-2l-4-8z" fill="#95110F"/>
<path transform="translate(979,442)" d="m0 0 5 2 9 16-1 2-3-3v-2l-5-1-4-8z" fill="#92100E"/>
<path transform="translate(2019,1205)" d="m0 0h2l1 4-4 2-5 10h-3l-4-3 1-3 6-2 4-6z" fill="#6C0D0B"/>
<path transform="translate(1046,1239)" d="m0 0 7 2 4 5-1 5-6-2v-4h-3z" fill="#540D0C"/>
<path transform="translate(688,670)" d="m0 0 4 2 4 5-5 3-6-1-1-4z" fill="#2D0906"/>
<path transform="translate(588,1265)" d="m0 0h12l-3 2-16 3-14 1 2-2 9-2 1-1z" fill="#3E0D0C"/>
<path transform="translate(794,320)" d="m0 0 1 2h3v10h-10l2-5 3-5z" fill="#540D0C"/>
<path transform="translate(620,1253)" d="m0 0h5l-5 5-15 7h-2v-2l14-9z" fill="#3B0D0B"/>
<path transform="translate(792,338)" d="m0 0 4 1-4 4-12 25-3 10-1-4 6-17 8-16z" fill="#95110F"/>
<path transform="translate(1485,1252)" d="m0 0h3v2h2v2h2l-1 4-2 1-3-2 2-4-7 3-8 4-6-1v-1l8-2z" fill="#410E0C"/>
<path transform="translate(697,859)" d="m0 0 5 2 4 3v2l5 2v2h3l1 3 5 3-1 3-17-14-5-4z" fill="#650D0C"/>
<path transform="translate(1336,476)" d="m0 0 3 3 1 2 1 12-3-1v-2h-2l-2-6 1-7z" fill="#6C0D0B"/>
<path transform="translate(1659,1194)" d="m0 0 2 1 1 25 4 9 3 4-4-2-4-4 1-3h-2l-1-17z" fill="#95110F"/>
<path transform="translate(1478,676)" d="m0 0h2l-1 5-7 16-3 1 1-5 4-9 2-7z" fill="#5B0D0C"/>
<path transform="translate(4,1259)" d="m0 0 6 1 5 4 9 4v1l-10-1-8-5z" fill="#3D0D0B"/>
<path transform="translate(1056,601)" d="m0 0h2l3 17h-5l-1-15z" fill="#410D0C"/>
<path transform="translate(773,381)" d="m0 0 1 4-5 9-6 7-4 4 1-5 11-15z" fill="#6C0D0B"/>
<path transform="translate(1326,879)" d="m0 0h2l-1 3-12 9h-1v-5l2-3 7-3z" fill="#540D0C"/>
<path transform="translate(801,333)" d="m0 0 4 2 4 4-1 3-10-2-3-3 5-1z" fill="#5D0D0C"/>
<path transform="translate(603,1205)" d="m0 0h3v2h3l-1 4-4 1-5 5-3-1 2-1 1-5h2l1-4z" fill="#6C0D0B"/>
<path transform="translate(1237,397)" d="m0 0h3l3 4 2 1v2l-8 1-5 2h-5l4-3h4z" fill="#220E0F"/>
<path transform="translate(1768,1249)" d="m0 0 1 2h3l1 4-7 6-4 1 4-9z" fill="#3F0D0B"/>
<path transform="translate(1598,1196)" d="m0 0 5 2 11 3 3 2-1 2-13-3-5-2-1-3z" fill="#540D0C"/>
<path transform="translate(1033,527)" d="m0 0 5 4 7 9 7 1 1 2h-6l-2-1-1 2-11-15z" fill="#70100F"/>
<path transform="translate(1887,1430)" d="m0 0h2v3l7 2v1h-16l4-5z" fill="#815E5E"/>
<path transform="translate(1443,746)" d="m0 0 2 1-8 12-5-1 1-3 4-1 2-5 4-1z" fill="#610E0C"/>
<path transform="translate(1327,838)" d="m0 0h6l2 2-1 4-6 1-2-1v-5z" fill="#540D0C"/>
<path transform="translate(854,163)" d="m0 0h7l3 5-1 4-5-2-4-6z" fill="#6C0D0B"/>
<path transform="translate(747,1250)" d="m0 0 1 2-5 6-8 6-4-1 7-6 6-4z" fill="#330A07"/>
<path transform="translate(618,1217)" d="m0 0 5 10 5 2 2 3-5-1-6-4-3-4z" fill="#710D0B"/>
<path transform="translate(1667,1256)" d="m0 0 4 1-10 7-8 3v-2l6-4h3l2-4z" fill="#410E0C"/>
<path transform="translate(15,1236)" d="m0 0 2 1-13 13-2 7h-2v-7l10-9z" fill="#3D0D0D"/>
<path transform="translate(435,1233)" d="m0 0h3l1 4-4 8h-2l-1-7z" fill="#5A0D0C"/>
<path transform="translate(618,716)" d="m0 0h5l1 3-2 3-6 1-2-2z" fill="#520D0C"/>
<path transform="translate(629,1373)" d="m0 0 4 1v3l-9 2-3-3 3-2z" fill="#290906"/>
<path transform="translate(555,631)" d="m0 0 2 3 3 10v6l-2-1-4-14z" fill="#3A0D0B"/>
<path transform="translate(1246,393)" d="m0 0 2 1-1 5-2 4-4-2-1-5z" fill="#410E0C"/>
<path transform="translate(1691,1329)" d="m0 0h9v2l-5 1-1 7-2 1-1-4z" fill="#170D0F"/>
<path transform="translate(1418,781)" d="m0 0h3l-2 5-3 4-3-1v-6z" fill="#520D0C"/>
<path transform="translate(1204,639)" d="m0 0 3 1 10 15-2 2-11-16z" fill="#7D0E0C"/>
<path transform="translate(1261,415)" d="m0 0 3 1 2 7-1 3h-2l-4-9z" fill="#540D0C"/>
<path transform="translate(187,1401)" d="m0 0 3 2 1 4-5 3-4-1z" fill="#2C0907"/>
<path transform="translate(249,1245)" d="m0 0 5 3-1 5-6 4-3-1 4-2 1-4z" fill="#420E0C"/>
<path transform="translate(932,329)" d="m0 0 3 3 1 4v9l-2-1-3-12z" fill="#520D0C"/>
<path transform="translate(1047,545)" d="m0 0 5 1v2h3l1 6-5 2 3-6-5-1z" fill="#260B0A"/>
<path transform="translate(1045,542)" d="m0 0 9 1 1 5h-3v-2l-5-1 1 3h-2l-2-4z" fill="#3E0E0D"/>
<path transform="translate(1314,1262)" d="m0 0 10 3v2h2v3l-6-2-6-5z" fill="#450E0C"/>
<path transform="translate(186,1207)" d="m0 0 3 2 1 8-5-1v-7z" fill="#6C0D0B"/>
<path transform="translate(1954,1260)" d="m0 0h3l-2 4-9 4h-2v-2l6-3z" fill="#400D0C"/>
<path transform="translate(347,1256)" d="m0 0h6l-5 6-4 1 1-5z" fill="#3C0D0C"/>
<path transform="translate(1084,574)" d="m0 0 4 4h-2l-1 3h-6l2-6z" fill="#2D0A08"/>
<path transform="translate(703,961)" d="m0 0h2l-2 4-8 8v-3l5-7z" fill="#300A0A"/>
<path transform="translate(1328,771)" d="m0 0 3 4-2 4-4 1-1-3 2-4h2z" fill="#420E0C"/>
<path transform="translate(1084,568)" d="m0 0h4v2h-2v2l-8 1-1-3z" fill="#450E0C"/>
<path transform="translate(1785,1262)" d="m0 0 5 2 2 3 3 2h-6l-4-3z" fill="#460D0C"/>
<path transform="translate(614,1256)" d="m0 0m-1 1m-2 1h2l1 3-9 4h-2v-2z" fill="#380D0C"/>
<path transform="translate(1227,909)" d="m0 0 7 6v2l-4 1-2-2z" fill="#320A08"/>
<path transform="translate(364,1263)" d="m0 0h8l2 4-3 1-7-4z" fill="#3D0D0C"/>
<path transform="translate(1052,589)" d="m0 0h4l1 8-2 3-2-6z" fill="#440D0B"/>
<path transform="translate(1660,1220)" d="m0 0h2l4 9 3 4-4-2-4-4 1-3h-2z" fill="#7F0E0C"/>
<path transform="translate(871,1199)" d="m0 0h7l7 2v1h-14z" fill="#3A0D0D"/>
<path transform="translate(1412,715)" d="m0 0 10 1v1l-15 3 1-3z" fill="#620F0D"/>
<path transform="translate(1420,701)" d="m0 0 5 2 2 3 11 2v1h-10l-8-7z" fill="#95110F"/>
<path transform="translate(1299,1255)" d="m0 0 6 1-5 5-5 2 4-5z" fill="#3F0E0C"/>
<path transform="translate(225,1193)" d="m0 0h2l-1 4-4 6h-2l2-6z" fill="#6C0D0B"/>
<path transform="translate(622,773)" d="m0 0h8l2 1v2l-5 2z" fill="#600E0D"/>
<path transform="translate(1207,1225)" d="m0 0 2 1-4 6-3 2v-4z" fill="#3C0D0B"/>
</svg>
