<?xml version="1.0" encoding="UTF-8"?>
<svg version="1.1" viewBox="0 0 1000 1000" width="1000" height="1000" xmlns="http://www.w3.org/2000/svg">
<path transform="translate(330,292)" d="m0 0 18 1 28 5 26 7 26 9 32 13 50 23 16-8 19-9 35-15 24-9 28-8 23-5 24-4h11v9l-25 114-16 74-6 25-4 1-3-17v-33l3-22 1-9-5 4-6 12-5 20-2 4-4-1-12-21-14-24-7-11-4-1 2 9 12 26 5 15v6l-5-2-9-9-8-10v-2l-4-2-12-14-2-3-4-1 2 8 9 15 10 14 8 11 1 5-3 1-12-9-13-11-9-6-5-2 3 7 14 15 19 19 1 5h-13l-11-1h-4v2l9 3 7 3 1 2 8 4 10 9 13 9 2 4-1 5-12 6-25 11-21 9-13 5-19 8-9-1-31-14-30-13-22-10v-4l18-12 15-11 20-9v-2h-13l-6 1h-11v-5l11-12 28-28 3-7-7 1-6 4-8 8-11 9-12 9-4-1 6-11 10-13 9-13 8-14 1-5-7 2-10 11-9 11-16 17-4 4h-2l1-9 8-22 7-14 3-12-6 1-6 9-12 21-10 20-6 8h-3l-4-16-3-7-4-7-5-3 4 29v18l-3 18-3 13-4-2-16-73-14-64-15-69-3-18z" fill="#FE8931"/>
<path transform="translate(134,484)" d="m0 0h25l16 4 12 5 14 10 8 8 9 16 3 12 1 7v9l-4 19-6 19-13 35-5 13v2l12-16 13-17 14-18 11-14 10-12 7-8 10-11 4-5 11-9 10-6 3-1h10l5 2 3 2v2h2l3 9v8l-5 15-12 23-10 17-15 27-9 16-1 4 14-17 10-13 22-28 12-15 11-14 12-13 9-5 3-1h9l5 3 5 8v12l-7 16-11 24-9 25-4 18v23l5 8h8l9-5 10-9 5-7 3-3 7-8 9-11 7-7 11-8 9-5 15-5h21l6 4 3 3 2 9-4 10-3 11-3 4h-2l-2 6-7 11-2 5v3l8-4 14-12 11-11 5-7 3-15 6-12 7-9 5-6 7-3h9l5 5 2 6-2 9-6 12 11-7 3-1h8l5 5v9l-7 11-10 16-6 12-2 5 8-4 3-1 2-4 8-7 12-12 10-17 7-10 4-2h11l5 3 1 2v6l-13 22-9 16-3 8 9-5 12-11 12-19 7-8h2l2-4 7-7 16-9 16-6 15-1 9 2 4 2 3 6v11l-4 7-1 8-12 18-5 10v2l11-7 16-12 5-3 4-11-9-2-4-5v-5l7-9 8-7 7-4h15l7 6 1 2v14l10-8 8-4 9-1 6 3 2 3v11l-15 33-1 5 7-5h3l1-4 10-9 10-13 7-8 6-7 13-9 8-4 15-5 7-1h11l7 3 4 4 2 6v6l-4 9-1 8-6 8h-2l-2 6-2 3h-2l-3 10v3l12-8 18-13 10-1 7 2 3 4v5l-6 7-10 7-21 16-13 9-5 2h-11l-8-5-4-8-20 10-12 2-10-4-5-7v-3l-14 8-7 3-13 1-6-3-4-5v-14-4l-12 15-7 8-8 5h-10l-4-4-2-6-14 9-4 2h-11l-6-3-5-6-1-5-18 10-5 2h-13l-7-4-4-5-5 1-6 4-7 3h-13l-6-4-3-4v-2l-21 10-6 1h-8l-8-3-4-5-2-5v-8l4-13 7-13h-7l-10 10-7 8-13 13-15 11-14 7h-11l-6-3-5-6-2-5-13 8-10 4h-11l-8-5-5-5-16 8-4 1h-14l-10-4-6-4-7-11-3-9v-27l4-17 10-29-6 8h-2l-2 5-4 5-29 38-12 16-13 15-8 8-10 6h-8l-5-3-5-6-2-7v-15l4-13 8-17 14-24 16-29 9-16 5-11-11 13-4 6-4 4-12 16-10 12-12 16-13 16-14 19-10 13-14 19-9 6-3 1h-9l-8-5-3-4v-15l5-17 18-47 10-26 7-19 4-17v-11l-3-10-6-11-2-4-4-2-10-6-11-4h-25l-11 4-7 5-3 5v8l10 8 2 3v7l-5 5h-12l-11-7-6-7-6-12v-13l3-7 9-9 10-6 10-4zm315 151-11 6-10 8-5 5v2l-4 2-8 10-5 10v6l5-1 13-9 12-11 3-3v-2h2l6-9 4-4 1-2v-8zm214 0-12 7-11 8-9 10-9 14-3 7v3l6-1 14-12 8-7 12-12 7-10v-7zm174 1-16 9-11 11-4 6v2h-3l-6 11-2 5v4l6-1 13-10 10-9 7-7 10-13 1-8z" fill="#FD1015"/>
<path transform="translate(330,292)" d="m0 0 18 1 28 5 26 7 26 9 32 13 50 23 1 6-1 2h-2l-1 8-7 3-3 3-1 3v10l3 4 5 1h5l1 2v167l-1 20h-6l-31-14-30-13-22-10v-4l18-12 15-11 20-9v-2h-13l-6 1h-11v-5l11-12 28-28 3-7-7 1-6 4-8 8-11 9-12 9-4-1 6-11 10-13 9-13 8-14 1-5-7 2-10 11-9 11-16 17-4 4h-2l1-9 8-22 7-14 3-12-6 1-6 9-12 21-10 20-6 8h-3l-4-16-3-7-4-7-5-3 4 29v18l-3 18-3 13-4-2-16-73-14-64-15-69-3-18z" fill="#FE3131"/>
<path transform="translate(679,335)" d="m0 0 2 2-1 10-15 68-16 74-6 25-4 1-3-17v-33l3-22 1-9-5 4-6 12-5 20-2 4-4-1-12-21-14-24-7-11v-3h3l2-4 9-9 7-9h2l1-7h2l4 5h7l2-4v-16l5-3 14-11 10-7 15-9 3-1 2 1 1 6 4-8z" fill="#FE6B35"/>
<path transform="translate(345,360)" d="m0 0 2 1v2l5 2 16 10 11 9 13 12 11 9 13 12 7 7 2 4-2 9-14 27-6 9-4 1-4-16-3-7-4-7-5-3 4 29v18l-3 18-3 13-4-2-16-73-14-64-2-9z" fill="#83302F"/>
<path transform="translate(553,472)" d="m0 0 4 1 23 23 1 5h-13l-11-1h-4v2l9 3 7 3 1 2 8 4 10 9 13 9 2 4-1 5-12 6-25 11-21 9-13 5-19 8h-5l2-1v-11h1v7l2-1 2-9 10-24 8-19 10-24 11-24z" fill="#FE6B35"/>
<path transform="translate(462,480)" d="m0 0 4 2 4 4 19 38 13 32 6 23-7-1-29-13-30-13-22-10v-4l18-12 15-11 20-9v-2h-13l-6 1h-11v-5l11-12z" fill="#83302F"/>
<path transform="translate(569,510)" d="m0 0 7 3 8 6 9 8 8 5 2 4-1 5-12 6-25 11-21 9-9 2 2-6 10-18 11-18 4-7 6-9z" fill="#FECC29"/>
<path transform="translate(657,439)" d="m0 0 2 4-12 55-4 16-4 1-3-17v-33l2-17 2-4 16-4z" fill="#FECC2A"/>
<path transform="translate(606,595)" d="m0 0h9l6 4v8l-6 10-5 4-10 2-6-3-2-3v-8l6-9 5-4z" fill="#FD1317"/>
<path transform="translate(591,367)" d="m0 0h15l4 8 3-6 1-1h7l4 5v13l-3 4-7 1-4-4v-2h-2l-1 4-4-1 2-7h-2v-7l-1-3h-3l-2 3v15l-1 1h-8v-3l3-1 1-10-2-5z" fill="#FEFEFE"/>
<path transform="translate(582,429)" d="m0 0 3 1 10 21 5 15v6l-5-2-9-9-8-10v-2l-4-2-1-4h3l2-6 3-5z" fill="#FE6D35"/>
<path transform="translate(508,358)" d="m0 0 2 1 1 30-9 2-5-3-2-3v-10l3-5 5-4h4v-6z" fill="#FEFEFE"/>
<path transform="translate(433,439)" d="m0 0 4 2 5 5v2h2l-1 5-14 15-4 4h-2l1-9 8-22z" fill="#8B3735"/>
<path transform="translate(541,357)" d="m0 0h11l2 2-1 1h-10l1 12h9v3l-9 1 1 12h9v2h-14v-32z" fill="#FEFEFE"/>
<path transform="translate(411,367)" d="m0 0h6l3 3 1 7-1 1h-12l3 9 7 1 2-4 1 3-3 4h-6l-4-3-2-5 1-11z" fill="#FEFEFE"/>
<path transform="translate(558,368)" d="m0 0h11l2 3 1 6v12l-3 1-1-3-2-15h-4l-1 17-5-1 1-19z" fill="#FEFEFE"/>
<path transform="translate(518,366)" d="m0 0 5 1 3 8v3l-2 1-10-1 3 9 6 1 2-6h1v6l-1 2-8 1-4-4v-16z" fill="#FEFEFE"/>
<path transform="translate(626,453)" d="m0 0h1l-1 10-4 11-4-1-5-8 1-4 10-7z" fill="#FECA2D"/>
<path transform="translate(394,357)" d="m0 0 6 2 2 4v3l-3-1-2-4-3-1-2 9v8l2 10h5l2-7h3l-1 7-2 3h-8l-4-6-1-3v-13l3-8z" fill="#FEFEFE"/>
<path transform="translate(425,368)" d="m0 0h11l3 4v17h-3l-1-15-1-4h-6v16l-2 5h-2v-22z" fill="#FEFEFE"/>
<path transform="translate(502,369)" d="m0 0h5v16l-1 3h-6l-3-4v-7l3-6z" fill="#FD1617"/>
<path transform="translate(615,370)" d="m0 0h5l2 2v13l-2 3h-5l-3-6 1-8z" fill="#FF6A34"/>
<path transform="translate(473,370)" d="m0 0h5l3 5v8l-2 4-5 1-3-4v-10z" fill="#FD211B"/>
<path transform="translate(428,370)" d="m0 0h6l2 4v14l-1 2-4-1h-3z" fill="#FD0E14"/>
<path transform="translate(449,465)" d="m0 0 2 3 3 1 1 4-11 9-3 2-4-1 6-11z" fill="#913735"/>
<path transform="translate(561,519)" d="m0 0 2 2-12 19-12 21-4 9-3 1 3-9 12-22 10-15z" fill="#FF8A30"/>
<path transform="translate(470,367)" d="m0 0h2l-1 5-2 8v8l-3-1-2-7h-2v3h-2l-1 2 1-9 6-7z" fill="#FD1517"/>
<path transform="translate(665,642)" d="m0 0h1v5l-3 1-2 5-4 5h-2l-1 4-7 6-3 3-6 4-5 4-3-1 15-13 13-13z" fill="#FE6936"/>
<path transform="translate(422,369)" d="m0 0h2l-1 12-3 1-1 4-1 2-7-1-3-6v-3l12-1z" fill="#FD1217"/>
<path transform="translate(438,369)" d="m0 0h6l1 1v21l-5 1z" fill="#FD1318"/>
<path transform="translate(453,368)" d="m0 0 4 2v2h3l2-4h4l-2 4-3 4-4 14-3-1z" fill="#FEFEFE"/>
<path transform="translate(450,368)" d="m0 0h3l1 3 1 20-7 1 1-23z" fill="#FD1418"/>
<path transform="translate(803,632)" d="m0 0 2 2-11 12-6 9h-2l-2 5-10 10-5 2 2-4 9-8 10-13 7-8z" fill="#FE6839"/>
<path transform="translate(473,368)" d="m0 0h6l3 2 1 5v10l-3 5h-7l-3-3-2-8 2-7zm0 2-2 4v10l3 4 5-1 2-4v-8l-3-5z" fill="#FEFEFE"/>
<path transform="translate(445,359)" d="m0 0 3 1-1 5 5 1-1 2h-3v22h-3l-1-20-2-5z" fill="#FEFEFE"/>
<path transform="translate(731,676)" d="m0 0h1v10l-1 9 5-3 3 1-4 6 2 2 3 1v2l6 1v1h-7l-6-3-4-5v-14l1-7z" fill="#FE3E37"/>
<path transform="translate(578,370)" d="m0 0h7l3 4 1 7-2 4v-2l-3-1-1-5h-6z" fill="#FF8A31"/>
<path transform="translate(630,440)" d="m0 0 2 1-3 9-2 4-8 4-7 5-1-3 13-10z" fill="#FF8A31"/>
<path transform="translate(577,367)" d="m0 0h9l3 4 2 8v6h-3v-8l-3-6-7-1-1 7-3-1 1-7z" fill="#FEFEFE"/>
<path transform="translate(514,378)" d="m0 0 11 1v6l-2 3-6-1-3-5z" fill="#FF7034"/>
<path transform="translate(659,426)" d="m0 0 3 1-3 15-2-2-7 3h-7l3-2 5-2h3l2-6z" fill="#FE8B33"/>
<path transform="translate(422,626)" d="m0 0 1 3-13 12-8 8h-2l2-4 9-10z" fill="#FF6734"/>
<path transform="translate(583,376)" d="m0 0 1 4 3 3-1 5-3 3h-6l-3-3v-3l4 2h5l-1-5-5-3v-2z" fill="#FEFEFE"/>
<path transform="translate(559,696)" d="m0 0 5 5 4 1 14 1v2l-2 1h-13l-6-4-3-5z" fill="#FE6F3A"/>
<path transform="translate(338,700)" d="m0 0 9 1 17 3-1 2h-14l-10-4z" fill="#FE6637"/>
<path transform="translate(455,459)" d="m0 0 2 3 2 8-4 2-1-3-4-1-1-4z" fill="#FD1418"/>
<path transform="translate(685,615)" d="m0 0 6 2 3 6v11l-3 6h-1l1-8 1-5-2-2-2-6-3-3z" fill="#FF6D34"/>
<path transform="translate(751,627)" d="m0 0 2 2-11 11-6 2v-5l3-4 1 3 10-8z" fill="#FE733E"/>
<path transform="translate(687,693)" d="m0 0h3l1 9 1 4 8 1v1h-8l-4-4-3-10z" fill="#FF6934"/>
<path transform="translate(551,499)" d="m0 0h2v3l9 3 7 3-1 5-2-1v-3l-11-3-4-3z" fill="#FE9034"/>
<path transform="translate(502,557)" d="m0 0 3 3 1 5h2l1 6v8l-2-1-5-18z" fill="#FD0D13"/>
<path transform="translate(580,318)" d="m0 0 4 1v2l-16 6-1-2 1-2z" fill="#FF7134"/>
<path transform="translate(513,382)" d="m0 0h2l2 5 6 1 2-6h1v6l-1 2-8 1-4-4z" fill="#FEFEFE"/>
<path transform="translate(378,383)" d="m0 0 5 2 7 7 9 7 1 3-4-2-15-13z" fill="#FD0D13"/>
<path transform="translate(783,656)" d="m0 0h2l-1 4-10 10-5 2 2-4 9-8z" fill="#FE6F38"/>
<path transform="translate(577,380)" d="m0 0 5 1 2 2-1 5h-5l-2-4z" fill="#FF7134"/>
<path transform="translate(788,703)" d="m0 0 14 1-2 2-12 2-5-2 4-2z" fill="#FF6134"/>
<path transform="translate(617,374)" d="m0 0h2v7l-4 2-1 4-2-5v-5l3 1z" fill="#FF8731"/>
<path transform="translate(269,652)" d="m0 0 1 4-8 10h-3l2-6 4-4z" fill="#FE8E4B"/>
<path transform="translate(575,475)" d="m0 0 9 1 2 6-3 1-8-6z" fill="#FF7034"/>
<path transform="translate(619,377)" d="m0 0 2 1 1 7-2 3h-5v-5l3-2z" fill="#FE292A"/>
<path transform="translate(474,374)" d="m0 0 5 1v5l-5 1-1 2-1-1 1-7z" fill="#FF3132"/>
<path transform="translate(772,692)" d="m0 0 3 1 2 4 3 1v4h2v3l-4-1-5-7z" fill="#FE6739"/>
<path transform="translate(577,494)" d="m0 0 4 4v3h-9l1-4 3-1z" fill="#FF8A31"/>
<path transform="translate(621,703)" d="m0 0 6 1-3 2-2 1h-13v-1h6v-2z" fill="#FF6334"/>
<path transform="translate(517,369)" d="m0 0 5 1v5l-5 2-1-4z" fill="#FF7234"/>
<path transform="translate(519,704)" d="m0 0h11l7 1v1l-6 1h-8l-4-1z" fill="#FE723F"/>
<path transform="translate(412,369)" d="m0 0 5 2v5h-6v-6z" fill="#FF3D32"/>
<path transform="translate(647,663)" d="m0 0m-1 1m-1 1m-1 1m-1 1m-1 1m-1 1m-2 1h2l-2 4-6 5-3-1z" fill="#FF6B34"/>
<path transform="translate(393,381)" d="m0 0 1 2 6-1v5l-1 1h-5l-1-1z" fill="#FD0F14"/>
<path transform="translate(423,374)" d="m0 0h1v15h-4v-7l2-1z" fill="#FF5B34"/>
<path transform="translate(473,370)" d="m0 0h5l2 5h-6l-3 1z" fill="#FD1A1B"/>
<path transform="translate(517,604)" d="m0 0 3 1-6 7-2 2-3-1z" fill="#FE723A"/>
<path transform="translate(104,550)" d="m0 0 17 1-1 2h-12z" fill="#FE7647"/>
<path transform="translate(578,370)" d="m0 0 3 1-1 2h3l1 3-1 1h-6z" fill="#FF8C30"/>
<path transform="translate(693,623)" d="m0 0h1v11l-3 6h-1l1-8z" fill="#FE7939"/>
<path transform="translate(581,370)" d="m0 0 5 1 1 1v5h-3l-1-4h-3z" fill="#FF6E34"/>
<path transform="translate(734,701)" d="m0 0h5l1 3 6 1v1h-7l-6-3z" fill="#FF6334"/>
<path transform="translate(670,673)" d="m0 0 3 1-1 5 3-1v3l-6 1z" fill="#FE7C39"/>
<path transform="translate(192,643)" d="m0 0 2 4-5 6-1-4 1-4z" fill="#FE7B40"/>
<path transform="translate(390,703)" d="m0 0 9 1v2h8v1h-11l-6-3z" fill="#FF6534"/>
<path transform="translate(698,642)" d="m0 0h14l-1 3h-10z" fill="#FF8031"/>
<path transform="translate(688,639)" d="m0 0 2 2-1 8-3 1v-8z" fill="#f53"/>
<path transform="translate(447,648)" d="m0 0h2l-2 5-5 5-1-2z" fill="#FE6C3C"/>
<path transform="translate(803,632)" d="m0 0 2 2-6 7-3-1z" fill="#FF6E34"/>
</svg>
