<?xml version="1.0" encoding="UTF-8"?>
<svg version="1.1" viewBox="0 0 1280 1280" width="320" height="320" xmlns="http://www.w3.org/2000/svg">
<path transform="translate(0)" d="m0 0h1280v1280h-1280z" fill="#FDFCFC"/>
<path transform="translate(422,313)" d="m0 0 19 1 36 6 28 7 36 12 33 13 26 11 31 15 22 10 4-2 23-12 29-13 33-14 29-11 30-9 24-6 31-6 16-2h11v7l-9 41-18 81-10 47-14 65-7 30-3 12-1 2h-2l-2-9-2-14v-40l2-19 4-21-1-3-7 6-5 6-4 10-5 22-4 9-3-1-8-14-13-23-13-22-8-12-1-3-6 1 1 9 7 16 8 16 7 19 2 11-4-1-12-12-9-11-3-3v-2h-2l-7-8-14-17-5-1-1 7 6 11 12 19 12 16 7 10 2 5-3 1-14-10-14-12-14-11-10-3 1 6 11 13 14 14 7 8 8 7 7 8 1 5-1-2-2 1h-8l-14-3-11 1-1 3 15 6 6 3v2l6 2 10 7 13 12 11 7 3 5v5l-5 3-10 4-15 7-36 15-10 5-10 3-12 6-20 8-8-2-24-11-62-27-22-10v-2l11-7 17-12 13-10 12-6 17-7v-4l-4-1h-12l-16 3-7-1-1-3 7-10 17-16 24-24 6-8 1-6h-7l-8 4-15 14-13 11-16 12-3-1 6-11 12-16 13-18 11-19 1-2v-6l-1-1-7 1-10 11-9 11-10 11-7 8-12 13-3 3h-2l1-8 5-15 8-20 7-14 3-10v-6h-7l-6 7-16 27-15 30-6 10-4 2-2-5-4-19-7-13-6-5-4-1 1 11 4 25 1 19-3 22-5 23-3-1-8-35-12-56-14-63-11-51-12-54-5-27z" fill="#F3893B"/>
<path transform="translate(174,559)" d="m0 0h28l15 3 15 5 14 8 9 7 12 12 6 10 5 10 4 16 1 8v10l-4 22-6 20-13 34-10 29-5 11v3l14-18 12-16 13-17 14-18 11-14 14-17 7-9h2l2-4 9-10 7-8 4-4h2v-2l14-11 12-6 9-1 9 2 5 4v2h2l3 6 1 5v10l-5 17-8 16-8 14-9 15-3 6-13 23-12 21-7 14h-2l-1 5-5 9 1 1 16-20 33-42 14-18 9-11 14-18 9-11 9-10 7-7 9-6 6-2h10l6 3 6 8 2 7-1 10-5 13-8 16-7 15-8 20-7 21-4 16-1 6v29l5 10 5 3 8-1 11-6 11-10 7-8 3-4h2l2-5 9-10 8-10 11-11 10-8 13-8 21-7 4-1h22l7 3 5 5 3 10-2 8-5 9v7l-5 9h-2l-2 4-11 18-3 7-1 6 10-4 17-14 18-18 7-9 1-5 2-12 6-14 8-12 9-10 8-4h12l5 4 3 8-1 9-10 19-2 3 9-5 9-6 6-2 10 1 4 6v9l-7 12-4 5-8 13-9 16-4 11v2l6-2 7-5h2v-2l8-7 21-21 11-19 10-15 5-2h14l5 3v2h2v7l-6 10-10 16-13 24-4 12 11-6 10-8 9-9 12-20 9-12h2v-2h2l2-4 10-9 11-7 16-8 12-4 15-2 13 1 9 4 4 9v10l-4 8-2 3v8l-7 11-6 8-9 15-2 9 11-6 5-4 15-11 11-8h2l2-6 4-11h-10l-7-6-1-6 6-9 10-10 11-7 2-1h16l6 3 5 6v13l-2 10 11-9 10-8 9-3h8l6 3 4 5v10l-9 20-11 24-4 11 8-5 6-5h2l2-4 8-7 10-11 10-14 12-13 12-10 14-8 20-7 14-2h9l8 2 6 4 3 6 1 10-6 14-1 9-7 10h-2l-2 5-4 7h-2l-2 6-4 9 1 4 15-10 11-8 14-10 8-2 12 2 4 4 1 6-6 8-10 7-9 7-16 12-9 7-13 9-10 4h-9l-10-5-5-8-2-6-5 3-14 8-9 4-12 2-13-5-7-9-1-4-4 2-10 6-13 6-13 2-9-3-6-8-1-2v-10l4-14v-2l-11 13-6 8-7 9-7 7-10 5h-8l-4-2-4-7v-7l-15 11-10 5-3 1h-9l-9-4-6-8-3-7-17 10-11 5-3 1h-13l-9-5-5-6-1-2-5 1-7 5-12 5-5 1h-8l-6-2-5-4-5-8-4 2-10 6-12 5-11 2-10-1-6-3-4-4-3-6-1-9 4-16 8-16 4-7h-10l-5 4-7 8-11 12-14 14-11 9-8 6-13 8-11 4h-8l-9-3-6-7-2-3-1-7-5 3-13 8-12 5-3 1h-11l-8-4-8-8v-2l-5 2-10 6-11 4-6 1h-11l-12-4-10-7-8-12-4-10-1-6v-28l4-19 5-16 7-19 4-10-1-1-9 11-1 2h-2l-2 4-3 5h-2l-2 5-6 7-10 13-27 36-11 14-11 13-13 13-13 8-8 1-7-3-6-7-4-13v-13l4-16 11-23 13-23 15-26 13-24 6-10 14-27 2-5h-2l-2 5-18 22-5 7h-2l-2 4-13 17-13 16-13 17-22 28-21 28-10 13-9 12-8 11-9 7-9 3h-7l-10-5-4-5-1-3v-15l4-16 8-22 16-41 12-31 11-30 5-19 1-6v-12l-3-12-6-12-7-9-11-8-12-6-11-3h-27l-15 5-10 6-5 7-1 3v8l5 5 6 4 6 7v7l-8 7h-12l-11-6-9-8-7-11-3-8-1-4v-9l3-10 9-10 9-7 12-6 19-6z" fill="#D9151A"/>
<path transform="translate(422,313)" d="m0 0 19 1 36 6 28 7 36 12 33 13 26 11 31 15 22 10 1 5-3 5-1 7-1 3-7 1-6 7-2 6v7l3 5v2l5 2h10l1 20v57l-1 165-7-1-24-11-62-27-22-10v-2l11-7 17-12 13-10 12-6 17-7v-4l-4-1h-12l-16 3-7-1-1-3 7-10 17-16 24-24 6-8 1-6h-7l-8 4-15 14-13 11-16 12-3-1 6-11 12-16 13-18 11-19 1-2v-6l-1-1-7 1-10 11-9 11-10 11-7 8-12 13-3 3h-2l1-8 5-15 8-20 7-14 3-10v-6h-7l-6 7-16 27-15 30-6 10-4 2-2-5-4-19-7-13-6-5-4-1 1 11 4 25 1 19-3 22-5 23-3-1-8-35-12-56-14-63-11-51-12-54-5-27z" fill="#DD3435"/>
<path transform="translate(870,367)" d="m0 0h1v8l-15 67-10 47-14 65-7 30-3 12-1 2h-2l-2-9-2-14v-40l2-19 4-21-1-3-7 6-5 6-4 10-5 22-4 9-3-1-8-14-13-23-13-22-8-12-1-5 3 1 2-4 10-9 10-13 2-3h3l1-10 1-5h1l2 9 4 4 7-1 4-6v-19l4 1v-2l11-9 11-8 8-6 16-10 9-5 4 1-1 10-1 2 5-5 3-7z" fill="#EC6B3B"/>
<path transform="translate(441,398)" d="m0 0 4 5 18 11 14 10 10 8 10 9 10 8 16 15 10 9 7 7 4 7-1 6-8 14-13 26-6 10-4 2-2-5-4-19-7-13-6-5-4-1 1 11 4 25 1 19-3 22-5 23-3-1-8-35-12-56-14-63-9-43z" fill="#6F3231"/>
<path transform="translate(708,542)" d="m0 0 4 2 6 7 6 5 4 5 8 7 7 8 1 5-1-2-2 1h-8l-14-3-11 1-1 3 15 6 6 3v2l6 2 10 7 13 12 11 7 3 5v5l-5 3-10 4-15 7-36 15-10 5-10 3-12 6-20 8-2-1v-16h1l1 11 3 1 1-9 3-8 5-13 12-27 3-8 7-18 3-4 6-16 11-25 2-3z" fill="#EC6B3B"/>
<path transform="translate(593,553)" d="m0 0 7 6 12 24 8 14 10 24 14 34 5 17 2 8-6-1-24-11-62-27-22-10v-2l11-7 17-12 13-10 12-6 17-7v-4l-4-1h-12l-16 3-7-1-1-3 7-10 17-16z" fill="#6F3231"/>
<path transform="translate(727,592)" d="m0 0 5 1 11 7 7 7 13 10 6 4 2 4v5l-5 3-10 4-15 7-36 15-10 5-10 3-2 1 2-6 12-22 14-23 10-15 5-7z" fill="#FFCB3F"/>
<path transform="translate(1068,877)" d="m0 0 4 1 3 4-1 5-7 17-9 30-1 5 5-5 10-25 3-6 5 1-1 4-9 26-1 6 4-4 5-10 13-39 2-3h5l2 4-10 25-5 17-1 10 1 1 6-12 9-32 6-17 5-1 3 4-3 9-8 20-2 6 11-9h5l2 4-4 17-1 16-2 4-4-1v-16l3-15-6 4-5 5-3 9-1 12-3 1-1-11-4 2-4 9-4 1-2-2v-13l-5 5-5 10h-4v-11l-6 4-5 6-6 12-7 6-4-2-1-4 7-9 3-1 5-11 11-44 6-18z" fill="#241411"/>
<path transform="translate(781,909)" d="m0 0 8 1 3 3 1 9-2 5h-6l1-10-4-1-6 7-2 7v11l2 4 4 1 8-5 5-6 5-16 3-5 8-4 4-1 6 2 3 8 1 12 6-19 2-2h3l1 6 5-2 2-4 5-1 1 1-1 8 8-6h5l1 6-8 24 4-4 11-20h2l-1 6-11 19-6 7-4-1v-12l5-16-5 5-6 9-3 9-1 7h-5l2-17 5-13 1-2-6 3-6 12-2 13-3 3-1-1-1-12-5 5-3 5-6 4-7-1-4-5-2-5h-2l-6 7-5 3-6 1-6-4-3-6v-15l4-10h2l1-3z" fill="#201210"/>
<path transform="translate(984,909)" d="m0 0 7 1 4 4v9l-6 11-9 8h-2l1 4 6-1 9-10 5-15 3-10h5l1 5-5 16-1 11 2 4h4l3-11 7-23 1-2 5 1 1 4-5 12-4 15h2l2-5 8-15 2-4h2l-1 6-8 15-6 10h-4l-1-2-5 2-1 2-5-1-5-6-2-4-5 7-7 4-6-1-4-5-3-6-3 7-5 4-9 1-6-5-1-2v-6l5-4 5-2h3v-2l-5-2-4-4v-7l4-7 5 1 1 4-3 4 1 4 8 6 3 3 5-14 7-7z" fill="#251412"/>
<path transform="translate(643,909)" d="m0 0 6 1 3 4v9l-5 10-7 7-4 2 1 4 5-1 5-5 5-6 8-24 5 1-1 8 8-7 2-3 4 1 1 1v8l-5 21h2l-1 7-3 3h-3v-18l4-14-6 4-7 10-2 6-1 9-3 2-2-6v-2l-5 5-5 4-6 1-5-3-4-8-2-1-2 5-10 7-7-1-5-5-2-5-1-9 4-12 7-8 3-1h9l4 4v10l-4 4h-4v-5l2-7-7 1-2 4-4 10v9l2 6h6l9-7 3-5 4-14 4-6 5-4z" fill="#211211"/>
<path transform="translate(842,499)" d="m0 0h1l-1 9-12 55-7 30-2 5h-2l-2-9-2-14v-40l2-19 2-9 6-2 12-3 5-1z" fill="#FFCB3F"/>
<path transform="translate(563,909)" d="m0 0 6 1 3 3 1 8-4 10-8 9-5 1 1 5 6-1 8-8 5-11 3-12 3-4 5 1-1 5-1 1v6l8 6 4 5v7l-4 6-6 4h-7l-5-4-3-6-5 5-6 5-7-1-4-5-4-8 1-8 4-11 6-7z" fill="#241412"/>
<path transform="translate(281,910)" d="m0 0h10l4 4v10l-4 4h-4v-5l2-3v-3l-7 1-5 10-1 11 2 7 8-1 9-9 6-19 5-6 9-1 5 4 2-4 4 1-1 7-4 13-1 4v13l-2 2-4-1-3-2-5 4-4-1-3-4-1-7-5 5-9 6-6 1-6-5-3-7v-3h-2l2-9 4-9 6-7z" fill="#211210"/>
<path transform="translate(576,751)" d="m0 0 3 1v8l-4 7-9 11-2 3h-2v2l-5 5-11 10-10 8-14 9h-3v-6l8-16 7-9 5-6h2l2-4 4-2 2-4 14-10z" fill="#FEFCFC"/>
<path transform="translate(1074,752)" d="m0 0 4 1-1 8-7 10-12 14-8 8-11 9-5 4-10 7-6 2-1-4 5-12 7-11h2l2-4 9-11 9-8 6-4 10-6z" fill="#FEFCFB"/>
<path transform="translate(850,751)" d="m0 0h3v10l-6 8-8 10-16 16-14 11-10 7-6 2-1-2 5-13 7-11 11-13 8-8 16-11z" fill="#FEFDFD"/>
<path transform="translate(195,869)" d="m0 0h8l6 3 4 5 1 3v7l-4 9-2 4-5-1-2-5 4-7v-9l-5-2-9 1-8 4-5 8v10l4 6 6 5-1 3-12 2-7 5-4 9v7l3 8 3 3 3 1h8l8-4 6-7 4-7 2-4h3l1 5-5 10-8 8-11 5h-8l-8-4-6-7-2-5v-11l4-9 4-5 8-4 3-1 1-2-4-2-3-6v-9l6-10 7-6 7-3z" fill="#1C0F0F"/>
<path transform="translate(710,895)" d="m0 0 5 1-1 7-6 14-4 19v5l3-3-1 4-5 8-4-1-3-2-4 4-5-1-3-5-1-6h-2l1-8 4-12 4-6 4-3h6l5 4 3-11 3-7z" fill="#221311"/>
<path transform="translate(383,895)" d="m0 0 5 1-1 6-7 20-3 15 1 3 1 2-5 8-8-2-3 3-5-1-4-10v-2l-3-1 7-20 5-6 2-1h6l5 2 5-15z" fill="#211210"/>
<path transform="translate(1068,877)" d="m0 0 4 1 3 4-1 5-7 17-9 30-1 5 5-5 10-25 3-6 5 1-1 4-9 26-1 6 6-6 1 2-5 7-3 7h-4v-11l-6 4-5 6-6 12-7 6-4-2-1-4 7-9 3-1 5-11 11-44 6-18z" fill="#251411"/>
<path transform="translate(239,895)" d="m0 0 5 1v6l-5 12-5 19v13l-4 4-4-2-4 1-1 1h-5l-5-6v-16l3-10 7-8h7l5 3 3-11z" fill="#1E110F"/>
<path transform="translate(1133,910)" d="m0 0h9l5 5 1 3v10l-1 2 4-4 2-8 2 1-1 8-7 9-6 9-6 5-6 1-7-6-3-6v-8l5-14 7-6z" fill="#251412"/>
<path transform="translate(904,910)" d="m0 0h8l4 4 1 2v14l3-3 4-8 2-1-1 6-3 5-9 13-6 7-5 2-5-1-4-4-2-3-1-5v-11l4-10 5-5z" fill="#281513"/>
<path transform="translate(727,909)" d="m0 0 5 1 5 6 1 13 2-2 4-8 2-1-1 6-7 11-8 11-8 5-5-1-5-6-3-6-1-4 6-16 5-6z" fill="#221211"/>
<path transform="translate(397,910)" d="m0 0h8l5 6 1 13h2l2-4 2-7 2 1-1 6-8 11-7 10-8 5-6-1-4-5-3-6v-7l4-13 6-7z" fill="#1F1110"/>
<path transform="translate(777,701)" d="m0 0h9l5 2 3 3 1 7-8 14-7 6-12 2-7-4-3-4 1-9 6-10 6-5z" fill="#DA1C1C"/>
<path transform="translate(843,909)" d="m0 0 5 1-1 8 8-6h5l1 6-8 24 4-4 11-20h2l-1 6-11 19-6 7-4-1v-12l5-16-5 5-6 9-3 9-1 7h-5l2-17 5-13 1-2-6 3-6 12-2 13-3 3-1-1-1-12h-2l1-4 3-4 5-17 2-2h3l1 6 5-2 2-4z" fill="#271512"/>
<path transform="translate(527,908)" d="m0 0 4 1-1 9 7-1 6-4 4-2-1 7-4 13-1 8 1 4-3 6-4 1-1-1v-11l3-12 1-2-9 1-8 14-6 7-9 5-6-1-5-5-2-5v-13l3-8 6-7 4-2h9l5 6-1 8-3 4-5-1 1-5 1-6-7 2-4 6-2 7v9l2 5 5 1 6-4 6-7 5-9 1-15z" fill="#251412"/>
<path transform="translate(756,408)" d="m0 0 5 2h2l7-2 6 1 5 12 3-9 3-3h7l5 5 1 4v13l-5 7-7 1-5-5-2-4-3 7h-5l3-6v-5h-3v-3h2l-2-9-1-2h-3l-5 6 1 19-3 1h-8v-4l5-1v-13l-3-8z" fill="#FEFDFD"/>
<path transform="translate(451,910)" d="m0 0h9l4 4v7l-4 10-8 9-5 2 1 4 5-1 7-6 8-15 3-6h1l-1 8-4 10-7 9-5 4-5 2-5-1-5-6-1-3v-15l4-10h2l2-4z" fill="#231311"/>
<path transform="translate(745,488)" d="m0 0h2l8 16 8 18 5 17v3l-4-1-12-12-9-11-3-3v-2h-2l-5-6v-2l4 1 2-6 5-5z" fill="#ED703B"/>
<path transform="translate(582,910)" d="m0 0 5 1-1 5-1 1v6l8 6 4 5v7l-4 6-6 4h-7l-5-4-3-6-3-1 7-14 3-12z" fill="#311817"/>
<path transform="translate(1e3 910)" d="m0 0h5l1 5-5 16-1 11 2 4h4l3-11 7-23 1-2 5 1 1 4-5 12-4 15h2l2-5 8-15 2-4h2l-1 6-8 15-6 10h-4l-1-2-5 2-1 2-5-1-5-6v-6h-2l1-5z" fill="#241311"/>
<path transform="translate(651,397)" d="m0 0 2 3 1 31v5l-7 3-7-1-5-5-2-4v-7l3-8 6-6 7-1v-7z" fill="#FEFDFD"/>
<path transform="translate(334,910)" d="m0 0 4 1-1 8 9-9h6v10l-5 20 3 1-4 9-4-1v-16l3-11v-4l-6 5-6 9-3 16h-4l-1-8-4 2 2-5 8-21z" fill="#251412"/>
<path transform="translate(953,910)" d="m0 0 5 1 1 4-3 4 1 4 8 6 3 3v11l-5 6-5 2h-6l-6-5-1-2v-6l5-4 5-2h3v-2l-5-2-4-4v-7z" fill="#1E1110"/>
<path transform="translate(606,409)" d="m0 0h6l6 5 1 5v9l-3 7-3 3h-7l-5-5-3-8 2-10z" fill="#FEFDFD"/>
<path transform="translate(1093,884)" d="m0 0h5l2 4-10 25-5 17-1 12h2l-2 7-4 1-2-2v-13h-3l16-48z" fill="#201210"/>
<path transform="translate(781,909)" d="m0 0 8 1 3 3 1 9-2 5h-6l1-10-4-1-6 7-2 7v11l2 4 4 1 8-5 2-2 3 1-6 7-5 3-6 1-6-4-3-6v-15l4-10h2l1-3z" fill="#211210"/>
<path transform="translate(556,500)" d="m0 0 9 9 1 3 3 1-2 4-9 10-11 12-3 3h-2l1-8 5-15 7-18z" fill="#753331"/>
<path transform="translate(281,910)" d="m0 0h10l4 4v10l-4 4h-4v-5l2-3v-3l-7 1-5 10-1 11 2 7h8l2 2-6 3-6-1-5-6-2-5v-3h-2l2-9 4-9 6-7z" fill="#1B0F0F"/>
<path transform="translate(612,910)" d="m0 0h9l4 4v10l-4 4h-4v-5l2-7-7 1-2 4-4 10v9l2 6h8l-3 5-7-1-5-5-2-5-1-9 4-12 7-8z" fill="#1C0F0F"/>
<path transform="translate(506,910)" d="m0 0h9l5 6-1 8-3 4-5-1 1-5 1-6-7 2-4 6-2 7v9l2 5 5 1 4-1-1 4-4 2-6-1-5-5-2-5v-13l3-8 6-7z" fill="#1D1010"/>
<path transform="translate(664,407)" d="m0 0 5 2 3 5 1 8-5 3-9-1 3 8 3 2 4-1 3-5h2l-1 7-2 3-9 1-5-6-1-3v-15l4-6z" fill="#FEFDFD"/>
<path transform="translate(528,408)" d="m0 0 6 1 4 5 1 7-2 2h-14l4 9v2l7 1 2-5h4l-1 5-4 4h-7l-5-4-4-10 1-1 1-9 5-6z" fill="#FEFDFD"/>
<path transform="translate(742,408)" d="m0 0 8 1 4 5 2 3 1 5v7l-2 3h-2v-11l-4-6-2-2h-6l-2 8 4-2 4 1 3 8 2 1-1 5-5 5h-7l-5-5 1-4 4 2v2h7l1-3-3-4-5-3-4-4 1-8 3-3z" fill="#FEFDFD"/>
<path transform="translate(1075,903)" d="m0 0 5 1-1 4-9 26-1 6 6-6 1 2-5 7-3 7h-4v-11l-6 3 2-5 6-12 6-16z" fill="#2D1814"/>
<path transform="translate(582,910)" d="m0 0 5 1-1 5-1 1v6l8 6 4 5v7l-4 6-4 3-4-1 6-9-1-4-3-2v-3l-4-2-7-1 3-14z" fill="#1D1010"/>
<path transform="translate(544,409)" d="m0 0h12l5 4 1 2v22h-4l-1-18-3-6h-6l-1 25-4 1-1-3 1-25z" fill="#FEFDFD"/>
<path transform="translate(263,910)" d="m0 0 5 1-1 7-4 11-2 11 5-3-6 12h-4l-4-4 7-25z" fill="#261512"/>
<path transform="translate(246,910)" d="m0 0h5l1 5-5 14-1 5v9l1 2 5 1-2 1-1 3h-6l-5-11 1-9 6-19z" fill="#201210"/>
<path transform="translate(693,396)" d="m0 0h13l3 1-1 3h-13l1 15 11-1 1 4-4 1-8 1v16l6-1h8l-1 3h-17l-1-4v-36z" fill="#FEFDFD"/>
<path transform="translate(694,916)" d="m0 0 5 1 1 1-1 11-5 17h-5l-2-5v-7l4-15z" fill="#FDFCFB"/>
<path transform="translate(715,409)" d="m0 0h12l3 3 2 12v13l-4 1-2-23-2-2-5 1-1 1v21l-5 1-1-2 1-24z" fill="#FEFDFD"/>
<path transform="translate(368,916)" d="m0 0 5 2-1 10-4 16-1 2-5-1-2-4 1-11 2-9z" fill="#FDFCFB"/>
<path transform="translate(224,916)" d="m0 0 5 1 1 5-5 20-2 4-3 1-3-4v-10l3-13z" fill="#FDFBFA"/>
<path transform="translate(311,916)" d="m0 0 5 1v8l-5 19-1 2h-5l-2-9 3-15 3-5z" fill="#FDF9F7"/>
<path transform="translate(802,515)" d="m0 0h1l-1 9-5 18-3 3-4-4-5-10v-3l11-8 5-1z" fill="#FFCB3F"/>
<path transform="translate(505,396)" d="m0 0 6 2 3 5v4l-3-1-4-6h-2l-3 7-1 5v9l2 9 2 4h5l2-3 2-7 4 2-3 9-3 3h-8l-5-6-3-9v-8l2-9 3-6z" fill="#FEFDFD"/>
<path transform="translate(1e3 910)" d="m0 0h5l1 5-5 16-1 11 2 4 2 1v4l-5-1-5-6v-6h-2l1-5z" fill="#1F110F"/>
<path transform="translate(831,910)" d="m0 0h3l1 6 5-2-3 4 1 2-5 5-4 9-2 13-3 3-1-1-1-12h-2l1-4 3-4 5-17z" fill="#2B1614"/>
<path transform="translate(644,411)" d="m0 0 5 1v17l-2 5-1 1h-5l-4-6v-7l3-7z" fill="#DB2720"/>
<path transform="translate(574,409)" d="m0 0h5l2 3 1 7v20l-8 1v-10l-1-2v-18z" fill="#D9211E"/>
<path transform="translate(551,412)" d="m0 0 4 1 3 6v15l-1 4-4-1-2-4-3 4v-24z" fill="#D8191C"/>
<path transform="translate(608,412)" d="m0 0 4 1 3 7v8l-2 5-5 2-5-6v-10l3-6z" fill="#CD2E24"/>
<path transform="translate(788,412)" d="m0 0h5l3 5v13l-3 5h-5l-3-5-1-8z" fill="#EE783A"/>
<path transform="translate(1136,915)" d="m0 0 5 2 2 5v9l-2 5-4 1-5-5-1-3v-8l3-5z" fill="#FDF5F0"/>
<path transform="translate(811,915)" d="m0 0 5 2 1 5v10l-2 6-6-3-4-7v-6l4-6z" fill="#FDFAF9"/>
<path transform="translate(905,916)" d="m0 0h5l2 2v17l-4 2-6-5-2-5 1-7z" fill="#FDFBFB"/>
<path transform="translate(725,916)" d="m0 0h5l2 3v15l-2 3-6-2-4-7 1-7z" fill="#FDFBFB"/>
<path transform="translate(399,915)" d="m0 0 4 1 2 3v15l-3 4-7-6-2-5 1-6z" fill="#FDFAF8"/>
<path transform="translate(570,398)" d="m0 0 3 1-1 7 7 1-2 2-3 1v28l-3 1-2-2-1-22-2-8 2-3z" fill="#FEFDFD"/>
<path transform="translate(603,408)" d="m0 0h2l-1 4-3 3-2 10 2 6-1 4-3-1-3-9h-3v4h-2l-2 4 1-13 7-8 5-2z" fill="#DC2520"/>
<path transform="translate(576,533)" d="m0 0 1 3v2l7 2-5 6-16 12-3-1 6-11z" fill="#773531"/>
<path transform="translate(642,915)" d="m0 0 4 1 1 1-1 8-6 9-6 5-1-1v-8l4-10z" fill="#FDFBF9"/>
<path transform="translate(562,915)" d="m0 0 5 1v8l-6 10-5 4h-2l-1-5 4-12z" fill="#FDF9F6"/>
<path transform="translate(983,916)" d="m0 0h6l1 1-1 7-4 8-6 6-3-1 1-10 4-9z" fill="#FDFBF9"/>
<path transform="translate(453,916)" d="m0 0h5l1 4-4 10-6 7-4 1v-9l4-10z" fill="#FDFAF8"/>
<path transform="translate(541,411)" d="m0 0h1v16l-5 3-3 5-7-1-4-8v-3l16-1z" fill="#DB1F1F"/>
<path transform="translate(566,410)" d="m0 0h2l1 5v24l-4 1-2-1-1-22-1-6h2v2h2z" fill="#DB1E1D"/>
<path transform="translate(580,409)" d="m0 0 4 2 2 4 3 1 2-5 2-2h5l-6 7-3 4-4 18-4-1v-18z" fill="#FEFDFD"/>
<path transform="translate(586,935)" d="m0 0 5 1 1 4-4 6-2 2-6-1-4-5 1-4z" fill="#FDF9F7"/>
<path transform="translate(956,935)" d="m0 0 6 1 1 1-1 7-4 4-6-1-4-4 1-4z" fill="#FDFCFB"/>
<path transform="translate(896,928)" d="m0 0 4 5 1 4 7 2-1 5-4 3-4-1-3-3-1-3v-11z" fill="#FDFCFB"/>
<path transform="translate(801,928)" d="m0 0 2 1 3 6 1 3 5 1v5l-5 3-4-1-3-5-1-7z" fill="#FDF8F5"/>
<path transform="translate(389,929)" d="m0 0 4 4 4 5 4 2-2 5-6 2-4-5-2-5 1-7z" fill="#FDF9F6"/>
<path transform="translate(1125,929)" d="m0 0 3 1 4 6 6 4-1 5-6 2-5-5-1-2z" fill="#FDFBF9"/>
<path transform="translate(715,930)" d="m0 0 3 1 3 5 7 3-1 6-4 2-4-1-4-6-1-8z" fill="#FDF9F6"/>
<path transform="translate(719,603)" d="m0 0 1 2-11 17-13 22-6 10-7 14-2 1 2-6 8-16 5-8 4-8 7-10 7-11z" fill="#F3893B"/>
<path transform="translate(471,918)" d="m0 0h1l-1 8-4 10-7 9-5 4-5 1 2-1-1-3 6-4 6-8z" fill="#743630"/>
<path transform="translate(936,808)" d="m0 0 1 4-1 5v12h2l5-5 3 3-3 1v2h-2l-1 2v1l2 4 4-1 1 3 3 1-1 2-9-3-6-8-1-2v-10z" fill="#E45137"/>
<path transform="translate(659,423)" d="m0 0 9 1 4-1v7l-4 5-5-1-4-6-1-4z" fill="#EF783B"/>
<path transform="translate(852,761)" d="m0 0 1 2-2 5h-2l-1 3h-2l-1 4-5 6h-2l-1 4h-2l-1 2-5 5-2 1-1 3-5 2-8 7-4 3-2-1 13-11 10-9 11-11 7-9z" fill="#E75B38"/>
<path transform="translate(958,930)" d="m0 0 2 4-4 2-7 4 1 4 4 3 3 2 1 2h-6l-6-5-1-2v-6l5-4 5-2h3z" fill="#673129"/>
<path transform="translate(1029,748)" d="m0 0 2 1-8 8-7 8-7 10-1 2h-2l-2 5-10 10-9 8v-3l10-9 9-10 10-14 12-13z" fill="#E96439"/>
<path transform="translate(741,412)" d="m0 0h6l5 5v6l-4-1v-2h-5l-4 1 1-8z" fill="#ED703B"/>
<path transform="translate(1030,918)" d="m0 0h2l-1 6-8 15-5 9-1-3 1-2-3 1v-5l1 3h2l2-5 8-15z" fill="#421F1E"/>
<path transform="translate(583,526)" d="m0 0 2 8 2 5-3 2h-3v-2l-5-1 1-7z" fill="#D6141A"/>
<path transform="translate(835,319)" d="m0 0h10v1l-36 8-7 1 3-1v-2l25-6z" fill="#EF7B3B"/>
<path transform="translate(526,925)" d="m0 0 1 3-6 11-6 7-5 2 2-5 7-8 5-9z" fill="#2A1515"/>
<path transform="translate(846,480)" d="m0 0h1l-1 9-2 9-4 4-9 3h-6l4-2 8-3 7-14v-2h2z" fill="#F38D3B"/>
<path transform="translate(794,419)" d="m0 0h1l1 11-3 5h-5l-1-1v-5l4-4z" fill="#E04133"/>
<path transform="translate(738,425)" d="m0 0 6 1 4 5-2 4-7-1v-2h-2z" fill="#EE763B"/>
<path transform="translate(540,741)" d="m0 0 2 1-12 11-17 17v-3l11-12 13-12z" fill="#E55230"/>
<path transform="translate(732,419)" d="m0 0 6 3 2 3h-2v5l-3 1v6l-3-3z" fill="#F1823A"/>
<path transform="translate(434,835)" d="m0 0 8 1 5 2 19 2v1l-6 1h-11l-12-4z" fill="#E86038"/>
<path transform="translate(807,502)" d="m0 0 2 1-8 16-6 3-10 7h-2v-2l11-8 5-3 4-7z" fill="#F48F3B"/>
<path transform="translate(715,830)" d="m0 0h2l4 5v2l17 2h7l-3 2-5 1h-8l-6-2-5-4-3-4z" fill="#E75D38"/>
<path transform="translate(745,346)" d="m0 0h4l-1 3-16 6-4 2-4-1 8-5z" fill="#EE773B"/>
<path transform="translate(1123,940)" d="m0 0 5 3 3 3 7 1-3 3-6 1-7-6z" fill="#4B2520"/>
<path transform="translate(899,923)" d="m0 0 5 10 4 3h3l-2 6-1-3-5-1-3-3-4-6-1-2h3z" fill="#75372F"/>
<path transform="translate(868,918)" d="m0 0h2l-1 6-10 18-2-4z" fill="#512821"/>
<path transform="translate(843,909)" d="m0 0 5 1-1 7-11 2 6-9z" fill="#20120F"/>
<path transform="translate(607,416)" d="m0 0 5 2 1 6-3 2h-3v2h-2v-7z" fill="#DD3336"/>
<path transform="translate(736,546)" d="m0 0 5 2 1-2 6 4 2 5-3 1-11-8z" fill="#EE753B"/>
<path transform="translate(1042,955)" d="m0 0h2l-1 7 2 1-5 4-4-2-1-4 2-2 1 2z" fill="#A07770"/>
<path transform="translate(642,650)" d="m0 0 3 4 3 8h2l2 18-3-2-4-17-3-8z" fill="#D81019"/>
<path transform="translate(738,571)" d="m0 0 5 5 1 5-1-2-2 1h-8l-1-3 5-4v2h2z" fill="#F5963B"/>
<path transform="translate(484,429)" d="m0 0 4 2 10 9 10 8 6 7-4-2-11-10-11-9z" fill="#D80F18"/>
<path transform="translate(528,411)" d="m0 0 5 2 1 6-5 1-3-1 1-7z" fill="#D6432F"/>
<path transform="translate(878,727)" d="m0 0 6 2 4 9v10l-4 8-1-2 3-7 1-7-3-1-1-5-2-4-3-1z" fill="#EE793A"/>
<path transform="translate(705,577)" d="m0 0 3 1-1 3 15 6 6 3-2 6-1-4v-2l-10-3-8-3-2-3z" fill="#F5983B"/>
<path transform="translate(662,411)" d="m0 0 5 1 1 1v5l-5 3-2-1z" fill="#EE773A"/>
<path transform="translate(1008,839)" d="m0 0 17 1-3 2-12 2-6-2 4-1z" fill="#E65937"/>
<path transform="translate(962,742)" d="m0 0 2 1-11 10-5 5-6 2 1-8h1v5l11-9z" fill="#EC6F39"/>
<path transform="translate(579,927)" d="m0 0 5 2 2 3-7 4h-2v-6z" fill="#FDFAF9"/>
<path transform="translate(881,826)" d="m0 0h2v10l2 3v3l11 2v1h-8l-4-2-4-7v-7h-3l1-2z" fill="#EC723A"/>
<path transform="translate(393,927)" d="m0 0 2 3 5 6 3 3-2 3-1-2-5-3-4-5v-2h2z" fill="#512822"/>
<path transform="translate(790,418)" d="m0 0h2l-1 9-4 2-1 2-2-5 1-4v2h3z" fill="#F8A73D"/>
<path transform="translate(503,426)" d="m0 0 2 3h5l2-2v6l-2 2h-5l-2-3z" fill="#DB1F1F"/>
<path transform="translate(987,824)" d="m0 0 4 1 2 7 3-1 2 1 1 6h2v2l-5-2-6-8-1-4z" fill="#E75E38"/>
<path transform="translate(724,519)" d="m0 0h2l11 16-1 2-5-5-6-9z" fill="#EF7C3B"/>
<path transform="translate(654,410)" d="m0 0h1l1 19 1 5-2 1v-2l-2-1v-17z" fill="#ED763A"/>
<path transform="translate(993,936)" d="m0 0 1 2h2l-1 2-8 8-3 1 2-5z" fill="#48231F"/>
<path transform="translate(803,930)" d="m0 0h4l3 5 4 2-1 6-1-4-5-1-4-6z" fill="#45211E"/>
<path transform="translate(345,774)" d="m0 0 1 2-7 9-5 6h-2l2-6 3-4 1 2z" fill="#F0813B"/>
<path transform="translate(1022,934)" d="m0 0h3l-2 5-5 9-1-3 1-2-3 1v-5l1 3h2l2-5z" fill="#683427"/>
<path transform="translate(461,937)" d="m0 0h2l-2 5-3 3-1 3-4 2-3-1h2l-1-3 6-4z" fill="#43211D"/>
<path transform="translate(834,939)" d="m0 0 4 4v8h-5z" fill="#3A1F17"/>
<path transform="translate(542,424)" d="m0 0h1v12h-3l-4 3 2-4 2-5-3-1 4-2z" fill="#E44C32"/>
<path transform="translate(790,939)" d="m0 0 3 1-6 7-5 2v-4l6-4z" fill="#361B19"/>
<path transform="translate(939,833)" d="m0 0 3 4 4-1 1 3 3 1-1 2-9-3-3-3v-2z" fill="#E65737"/>
<path transform="translate(757,414)" d="m0 0 2 3 1 8h-2l-1 4-2-12-1-2z" fill="#F4903B"/>
<path transform="translate(471,918)" d="m0 0h1l-1 8-5 8-1-4z" fill="#4D281E"/>
<path transform="translate(799,839)" d="m0 0 3 1-8 3h-13v-1h7v-2z" fill="#EA6939"/>
<path transform="translate(136,643)" d="m0 0 18 1-2 2h-12l-4-2z" fill="#E86238"/>
<path transform="translate(608,412)" d="m0 0 4 1 2 6-5-2-5 1 2-5z" fill="#DA2B24"/>
<path transform="translate(745,918)" d="m0 0 1 4-6 10-3-1 1-2 2-2 4-8z" fill="#7C3D2E"/>
<path transform="translate(752,419)" d="m0 0 2 4-2 5h-3l-2-4 1-4v2h3z" fill="#F1853B"/>
<path transform="translate(586,931)" d="m0 0 1 3 2 1-7 3h-5l-1-2 9-4z" fill="#7D3C31"/>
<path transform="translate(669,839)" d="m0 0 14 2v1l-12 1-7-2v-1z" fill="#E96739"/>
<path transform="translate(741,412)" d="m0 0h2l-2 5 5-1 1 4-8 1 1-8z" fill="#F5973C"/>
<path transform="translate(852,761)" d="m0 0 1 2-2 5h-2l-1 3h-2l-1 4-4 2 4-7 5-6z" fill="#E96339"/>
<path transform="translate(664,712)" d="m0 0 2 1-12 12-2-1 10-11z" fill="#E6532E"/>
<path transform="translate(505,399)" d="m0 0 4 2 2 3v4h-2l-2-3-3-1z" fill="#DC3324"/>
<path transform="translate(647,438)" d="m0 0h4l-1 5-7-1-1-2z" fill="#D9171B"/>
<path transform="translate(794,419)" d="m0 0h1l1 11-3 1 1-5h-2l1-6z" fill="#DD2D28"/>
<path transform="translate(949,944)" d="m0 0 8 4 1 3h-6l-4-4z" fill="#7A3932"/>
<path transform="translate(719,924)" d="m0 0 2 4 1 6-2 2-3-5-2-2 3-1z" fill="#7C3C2F"/>
<path transform="translate(500,838)" d="m0 0 10 2v2h9v1h-11l-8-4z" fill="#E96339"/>
<path transform="translate(794,519)" d="m0 0h2l-2 4-6 4-5 2v-2z" fill="#F38B3B"/>
<path transform="translate(1042,952)" d="m0 0 2 1 1 1v5l-1-4-4 4-2 4-1-5z" fill="#391C1A"/>
<path transform="translate(1164,944)" d="m0 0h6l-1 5-3 1-2-1z" fill="#2D1814"/>
<path transform="translate(1131,935)" d="m0 0h5l3 2 1 5-2 1v-3l-5-2z" fill="#5F2E26"/>
<path transform="translate(902,934)" d="m0 0 4 1 5 1-2 6-1-3-5-1z" fill="#532823"/>
<path transform="translate(859,799)" d="m0 0 1 2-2 9 6-2v2l-7 2-1-5z" fill="#F0823B"/>
<path transform="translate(617,411)" d="m0 0 4 4-1 13h-1z" fill="#E2422B"/>
<path transform="translate(417,918)" d="m0 0 2 1-1 6-4 6-3-2h2l2-4z" fill="#6F372A"/>
<path transform="translate(790,413)" d="m0 0 5 2 1 2v7l-3-4-1-5-4 2z" fill="#E85D38"/>
<path transform="translate(609,369)" d="m0 0 6 1 8 4v2l-7-2-7-4z" fill="#DF3226"/>
<path transform="translate(243,764)" d="m0 0 2 3 3-2-2 4-5 5 1-7z" fill="#F2863B"/>
<path transform="translate(881,757)" d="m0 0 1 2v8l-3 4v-10z" fill="#E96639"/>
<path transform="translate(868,918)" d="m0 0h2l-1 6-3 3h-2l2-5z" fill="#5D2E25"/>
<path transform="translate(573,768)" d="m0 0 1 2-6 9h-2v2h-2l2-4z" fill="#E96539"/>
<path transform="translate(894,760)" d="m0 0 6 2 11-1-1 3h-12z" fill="#F38E3B"/>
</svg>
