<?xml version="1.0" encoding="UTF-8"?>
<svg version="1.1" viewBox="0 0 1000 1000" width="1000" height="1000" xmlns="http://www.w3.org/2000/svg">
<path transform="translate(458,67)" d="m0 0h82l55 9 36 10 26 9 32 14 19 10 19 11 18 12 18 13 16 13 10 9 8 7 16 15 13 14 9 11 13 16 18 27 13 22 14 27 10 23 12 34 7 26 5 23 3 16 3 23v80l-6 36-6 28-7 26-10 28-11 25-8 16-10 19-11 17-8 12-15 20-9 11-15 16-7 8-18 18-8 7-14 12-15 11-27 18-21 12-32 16-28 11-27 9-32 8-43 8h-86l-44-7-38-9-9-2-9-4-29-11-34-16-23-13-18-12-17-12-10-8-13-11-15-14-28-28-9-11-13-16-22-33-10-17-13-26-10-23-9-25-9-32-8-38-2-11v-108l8-41 7-27 9-27 11-27 12-25 12-22 16-24 13-18 11-13 9-11 9-9 7-8 7-7h2l1-3 8-7 11-10 17-13 15-11 17-11 24-14 23-12 26-11 23-8 23-7 27-6z" fill="#003C8F"/>
<path transform="translate(543,133)" d="m0 0h20v4l-16 10-14 10-14 11-18 14-13 12-6 8-3 7v7l4 5 16 4 53 4 17 3 11 4 9 5 8 10 1 2v9l-3 12-8 17-8 12-11 14-13 16-12 13-15 16-11 11-7 6-15 15-11 9-18 18-11 9-7 8-2 1h-107v-2l18-12 10-7 9-5 3-1v-2l16-11 17-12 11-8 28-21 3-3 9-7 11-9 10-10 8-7 21-21 8-10 6-12 1-8-2-7-6-5-9-3-13-2-40-3-23-3-10-3-7-8 1-9 6-9 11-12 13-12 10-8 14-11 20-14 15-10 13-8 9-6z" fill="#FEFEFE"/>
<path transform="translate(458,67)" d="m0 0h82l55 9 36 10 26 9 32 14 19 10 19 11 18 12 18 13 16 13 10 9 8 7 16 15 13 14 9 11 13 16 18 27 13 22 14 27 10 23 12 34 7 26 5 23 3 16 1 9v13l-2 1-2-4v-4l-3-1-4-9-3-10-4-28-7-26-10-28-6-12-6-7-12-21-8-18 2-1 5 7-6-12v-2h-2l-10-15-11-15-9-10-11-16-14-14-6-8-7-8-4-5-15-15-8-7-6-5-9-5-2-4-9-3-13-9-21-14-16-8-24-10-31-11-25-7-10-3-58-10-27-2-6-1h-22l-27 2-41 7-25 7-15 4-24 7-20 7-26 12-16 8-14 9-15 8-15 10-16 13-3 1v2l-9 7-13 11h-2l-2 4-5 5-12 13-14 14-9 11-14 21-10 17-6 10h-2l-1 4-4 7-5 8-8 12-8 16-8 18-4 12-4 14-4 9-4 16-6 18-3 11v7l-2 12-1 20v46l1 14v9l2 13 3 5 2 7 3 6 7 3v3l-4 2-1 6 2 10 1 1 2 10 1 1 2 14 6 18 6 15 5 5 3 8 3 7 2 2h7l4 14 6 8 5 6 8 5 14 5 6 1 25 1 17-3 16-8 12-8 1 4-3 5-4 5-7 2-3 2-21 3-9 2-23 2h-9l-10-4h-4l-1 3v9l8 16 10 12 5 11 9 12 12 14 5 4v2l3 1 5 5 16 8 7 8 3 3 3 7 7 4 17 2 4 2-2 1-2 7 3 4v2l6 2 4 3 25 5 15 2 18 2v2h-3v2l-5 3-4 3-2-1 9 9-2 1 6 3v1h-6l-23-11-23-13-18-12-17-12-10-8-13-11-15-14-28-28-9-11-13-16-22-33-10-17-13-26-10-23-9-25-9-32-8-38-2-11v-108l8-41 7-27 9-27 11-27 12-25 12-22 16-24 13-18 11-13 9-11 9-9 7-8 7-7h2l1-3 8-7 11-10 17-13 15-11 17-11 24-14 23-12 26-11 23-8 23-7 27-6z" fill="#012C77"/>
<path transform="translate(852,572)" d="m0 0 7 1 4 5 5 13v13l-3 12-6 13-8 13-9 12-10 11-6 4-11 5-5-2-5-6-4-8-4 2-11 6-15 6-6-1-3-6-1-5v-14l3-12 11-26 2-6-9-3-5-1-12 6-14 10-15 11-12 11 12-7 17-12 15-9v2l4-1-3 3-16 12-10 8-13 11-7 7-8 7-7 7-6 5-4 5-5 1-2-2-1-12-1-3-5 1-11 6-8 1-3-7-1-10v-6l-8 7-10 14-5 6-9 6-4 1-6-3-6-17v-3l-6 3-4 5-17 11-6 3-5-2-5-5-5-10-1-3v-12l4-13 7-17 5-10 8-14 3-5 4 4 1 2v10l-3 14-4 12-5 11-5 15 9-6 12-10 11-9 6-4 8-15 7-9 4-4 3-5 12-12 7-4 6-2 9 1 3 2 1 3v13l5-5 4-2 6 2-1 14-4 10-11 19-5 12-2 9 5-2 11-11 11-14 8-16 8-21 7-13 5-1 2 1-1 9-4 9-1 7-1 18-3 7-7 10-2 4v3l10-9 12-10 12-9 4-4 11-9 14-10 12-6 3-1h7l7 4 3 5-3 18-5 16-7 16-2 11 14-7 11-7 3-2 5-18 7-14 6-10 6-6 14-7 9-8z" fill="#FDFDFD"/>
<path transform="translate(441,458)" d="m0 0h6l2 2 1 14-7 9-7 8-15 23-9 16-10 27-9 36-5 25-2 11-3 29-6 45-2 23-2 3-5-1-6-12 1-32 3-17 2-19 7-37 5-22 1-13-9 19-7 10-11 18-12 17-9 11-9 10-10 6-4-1-5-8-2-6-1-13 1-7-6 4-11 9-16 10-2-1 6-5 1-2-4 1-12 6-3 6-3-2-5-11v-16l6-12 18-20 10-8 16-8h10l7 3 6 6h7l3 2v10l-2 4 3-2v6l-6 8-6 10-5 8-2 5 5-3 10-10 9-12 12-18 7-11 10-16 8-13 6-9 12-20 7-11 6-9 6-11 9-15 11-16 5-5z" fill="#FDFDFD"/>
<path transform="translate(931,508)" d="m0 0 2 1v32l-6 36-6 28-7 26-10 28-11 25-8 16-10 19-11 17-8 12-15 20-9 11-15 16-7 8-18 18-8 7-14 12-15 11-27 18-21 12-32 16-28 11-27 9-32 8-43 8h-86l-44-7-38-9-9-2-9-4-29-11-2-1v-2h4v-2l11 2 18 5 9 3 17 4 20 4 23 5 19 1 13-1 7-1 10 1 50-1 4-2h10l12-1h12l17-4 12-1 8-3 21-1 21-3 24-8 8-4 5-3v-5l4-4-5-2-2-6 21-3 19-5h6l11-7h-2l1-4 9-8 9-4h6l-1-3 4-3v4l4-1 1-7 2-2v-2h2l1-5 1-1-2-1-1 2 1-5 2-1h8l5-1v-3l7 1 10-8h2v-2h2l2-10 10-8 4-5 2-5 9-16 8-11 1 3 3-2v-3h-2l2-9h2v3l2-3h2l1-10 3-5h2l1-3h2l1-3 5-5 4-5 3-11-3-3 1-2h3v-3l7-3v-2l-4 1 1-15 2-2 12-2 3-1 3-11 3-5 2-10 4-18 1-2 1-14 2-10-1-11-1-4 2-4 1-4 4-15 5-21 3-20z" fill="#022E78"/>
<path transform="translate(281,449)" d="m0 0h14l7 2 3 3 3 7v10l-2 7-6-1-1-8h-13l-12 3-15 8-14 11-17 17-9 11-8 11-12 19-8 18-3 11v14l4 12 5 9 7 10 9 9 8 7 10 9 9 10 4 7 1 4v8l-2 13-5 10-5 5-11 6-12 6-19 3-23-1-13-3-12-6-6-5-8-10-4-11 1-5 5-1 6 3 9 6 9 4 16 4h25l19-5 14-7 4-3-1-4-9-10-10-10-8-7-8-8-8-12-3-4-5-16-1-6v-29l4-17 7-19 16-31 5-5 8-10 9-10 5-6 7-6 16-11 16-8z" fill="#FEFEFE"/>
<path transform="translate(547,555)" d="m0 0h9l4 4-1 12-2 2h-11l-17 9-10 9-12 14-10 14-1 7 7 9 7 6v2l4 2 9 10 4 7v13l-2 12-3 3-7-1-8-2-27-10-9-5-5-6 1-4 9 2 14 6 13 3h14l-2-6-9-11-13-15-6-10v-6l-3 3 2 4-8 11-8 8-9 7-2-1 2-6 5-4 7-8 6-7-11 9-15 12-4 3h-2l-2 5-4 6-5 3-7 3-5 1h-11l-8-4-6-7-5-11-1-4v-17l3-15 5-10 7-9 9-10 8-7 10-5 7-2h13l5 5 2 3 1 16-3 9-10 13-10 9-5 3-7-1-5-5-5-8v-2l-4 2-10 21-2 6 1 7 1 4 4 1h11l17-5 15-8 14-10 16-14 7-9 4-9 6-10h2l2-5 11-12 14-10 8-4z" fill="#FEFEFE"/>
<path transform="translate(587,198)" d="m0 0 5 1 7 2 10 5 3 2v2l4 2 12 8 10 9 8 7 10 10 9 11 4 6 4 5 8 14 6 12 5 15 3 16v18l-4 17-8 15-8 10-8 8-11 8-8 4-11 5-15 5-16 4-30 4h-23l-21-3-24-3-17-4-3-3 8-7 5-5 11 1 27 4 13 1h19l24-2 20-5 9-4 9-3 14-9 12-10 9-13 5-10 4-15v-23l-3-15-6-16-7-13-8-11-11-13-8-9-8-7-13-10-18-12-8-5z" fill="#FEFEFE"/>
<path transform="translate(429,155)" d="m0 0h15l-1 2-38 7-18 5-16 8-13 9-9 9-7 10-5 10-3 10v30l4 16 6 16 11 18 11 14 10 11 8 7 15 12 16 11 8 6 1 5-9 6h-6l-17-11-10-8-15-13-12-12-9-11-10-13-4-7v-2h-2l-9-19-6-19-1-5v-19l3-15 5-13 8-12 14-14 15-10 16-8 19-6 24-4z" fill="#FEFEFE"/>
<path transform="translate(452,69)" d="m0 0h8v2l-12 4-29 4-8 4-8 5-20 7-32 10-20 8-30 13-9 4-6 2-11 7-22 10-5 5-6 4-6 3-10 9-11 11h-2v2l-5 4h-2v2l-6 5h-2l-2 4-5 4-5 6-8 6-5 8-4 4h-2l-2 4-2 3h-2l-2 5-3 4h-2l-2 5-9 11-4 8-8 13-7 11-8 15-7 14-3 8-10 20-3 1 3-10 11-25 11-22 10-17 14-21 13-18 11-13 9-11 9-9 7-8 7-7h2l1-3 8-7 11-10 17-13 15-11 17-11 24-14 23-12 26-11 23-8 23-7 27-6 23-4z" fill="#031F62"/>
<path transform="translate(716,125)" d="m0 0 6 2 22 14 16 12 13 10 14 12 12 11 13 12 14 15 9 11 13 16 18 27 13 22 14 27 10 23 2 5v3l-3-1-6-14-9-17-4-7-12-20v-2h-2l-17-28-6-9-7-8-7-10-12-14-6-6v-2l-3-1-11-14-17-16v-2l-3-1-5-5-8-7-8-5-14-10-10-7-5-5-14-9z" fill="#072466"/>
<path transform="translate(200,617)" d="m0 0 5 5 12 11 14 13 6 3 2 4 4 1 3-1 2-4h2l5 10 4-6 13-7 4 1-5 6 12-7 18-14h2v12l2 11 4 8 1 3 6-1 8-5h2l-1 5-5 2-3 4-7 1-6-5-2-7-2-1v-3l-9-1-14 5-3 3-6 1-2 4-6 3-5 3-6 1-3 6h-1l-2-16-6-9-9-10-13-12-8-7-7-8z" fill="#002C78"/>
<path transform="translate(768,483)" d="m0 0h18l1 1v9l-2 8-6 5-1 2h-2v-3l-7 3 15 3 5 4v9l-4 5-10 4h-9l-8-5-1-2v-7l3-3 1-7 1-3-3-10 1-8 5-4z" fill="#FEFEFE"/>
<path transform="translate(395,585)" d="m0 0 1 4 6 1 3 3 5 1-2 4-8 11-4 11-2 11v17l4 11 6 9 6 4 3 1h11l10-3 3 1-5 5-7 3h-15l-14-5-13-1-1-1v-14l3-29 5-27 4-16z" fill="#002C78"/>
<path transform="translate(485,625)" d="m0 0h2l2 7 6 10 9 10 9 11 4 5v5l-2 1h-12l-15-4-14-6-6-2-2-2-4 2-5-1 5-5 11-9 8-9 4-6-2-5z" fill="#003C8F"/>
<path transform="translate(572,766)" d="m0 0 7 1 1 1v39l-3 1h-7l-5-3-8-16-2-5-5-2 1 2v23h-8l-1-1v-37l2-2h7l6 4 8 17 4 6 1 3v-28z" fill="#FEFEFE"/>
<path transform="translate(854,591)" d="m0 0 5 1-1 9-9 20-6 9-12 13-10 9-6 4-6 1-1-3 4-6 8-8 5-10v-6l-4-5v-3l6-1 2 2v3h2l2-4 9-13 10-11z" fill="#002C78"/>
<path transform="translate(647,482)" d="m0 0 8 1 7 5 3 6v13l-3 6-6 5-4 2-11-2-5-5-3-5-1-4v-7l3-7 4-5 3-2z" fill="#FEFEFE"/>
<path transform="translate(481,764)" d="m0 0h6l2 2 1 38-1 3-11 1h-11l-5-4-3-7v-10l5-8 4-3h7l5 1v-12z" fill="#FEFEFE"/>
<path transform="translate(843,483)" d="m0 0h12l6 4 5 7v14l-3 6-10 6-10-1-7-6-2-4v-15l4-7z" fill="#FEFEFE"/>
<path transform="translate(649,770)" d="m0 0 5 1 5 5 3 2-1 4-4 2-2 5v8l8 5 1 5-2 1h-9l-6-4-2-6v-15l-9 3-5 4-1 15-3 3-6-1-1-3v-24l1-4 5 1 4 3 4-3 11-1z" fill="#FEFEFE"/>
<path transform="translate(596,776)" d="m0 0h10l5 3 4 7 1 3v11l-5 6-5 2h-11l-4-2-4-7-1-3v-9l3-7z" fill="#FEFEFE"/>
<path transform="translate(504,776)" d="m0 0h8l7 3 4 5 1 2v12l-4 6-3 3-3 1h-11l-5-4-4-8v-10l4-6z" fill="#FEFEFE"/>
<path transform="translate(421,777)" d="m0 0h13l8 7 1 3v9l-3 6-7 6h-11l-5-3-5-10v-8l6-8z" fill="#FEFEFE"/>
<path transform="translate(444,481)" d="m0 0h2l1 4-5 11-3 6 1 9-1 4-2 4-6 5h-2l-2 5-4 5-3 3-4 6-3 1-4 4-3-1 1-7 7-16 11-18 8-12 8-10z" fill="#002C78"/>
<path transform="translate(289,776)" d="m0 0h9l9 3 2 3 1 5v20l-1 1h-23l-5-4-1-9 5-8h2v2h2v-2l10 1v-5l-9 1-4 2-1-1v-6z" fill="#FEFEFE"/>
<path transform="translate(256,858)" d="m0 0 6 1 6 4 25 5 15 2 18 2v2h-3v2l-5 3-4 3-2-1 9 9-2 1 6 3v1h-6l-23-11-23-13-17-11z" fill="#022D77"/>
<path transform="translate(770,766)" d="m0 0h11l1 1v6l-5 2-8 1-2 2v5l13-1 1 1v6l-14 2v8l14 1 1 2-2 6h-19l-3-3-1-9v-22l2-6z" fill="#FEFEFE"/>
<path transform="translate(599,471)" d="m0 0h10l5 2 1 2v6l-6-1h-10l-6 4-1 3v16l4 6 5 2 14 1-1 4-5 3h-13l-7-3-5-6-3-9v-11l4-10 7-6z" fill="#FEFEFE"/>
<path transform="translate(677,776)" d="m0 0h8l5 2 4 5 1 2v11l-13-1h-7l3 5h16v6l-9 3-9-1-5-3-4-5-1-3v-11l5-7z" fill="#FEFEFE"/>
<path transform="translate(350,776)" d="m0 0h12l5 3 4 10-1 5-1 1h-16l-2 1 1 4 2 1 14-1v6l-2 2h-14l-5-2-6-9-1-6 6-12z" fill="#FEFEFE"/>
<path transform="translate(725,481)" d="m0 0 8 1 5 5 4 7v7l-3 2-14 1-3-1v-5h11l-3-9h-7l-2 3-1 16 6 3 13-1 1 3-3 5-4 2h-7l-9-4-5-6-1-3v-12l3-6 5-5z" fill="#FEFEFE"/>
<path transform="translate(656,597)" d="m0 0h5l-4 7-13 14-9 11-7 7-7 8-9 6h-1l1-7 4-6 13-13 2-5-14 7 3-5 10-9 11-9 10-5z" fill="#002D79"/>
<path transform="translate(249,775)" d="m0 0 7 1 1 1 1 20 3 3h5l2-24 7 1 2 3v28h-7l-5-1-10 1-5-3-3-8v-18z" fill="#FEFEFE"/>
<path transform="translate(736,767)" d="m0 0h13l2 2v7h-12l-6 2-1 3v14l2 3 16 1 1 1v5l-5 3h-13l-7-4-4-7-1-5v-12l6-9 5-3z" fill="#FEFEFE"/>
<path transform="translate(343,283)" d="m0 0 3 3 1 4 4 2 10 13 6 8 5 5 2 4h2l9 11 3 3v2l5 2v2l4 2 13 10 9 7 9 4 6 2 8-6 7-4h2l-1 3-12 9-15 11-4 1-3-2 1-4 5-4h2l-2-5-10-7-14-10-14-11-15-14-11-14-8-11-7-12z" fill="#002C77"/>
<path transform="translate(286,468)" d="m0 0h9l4 1v7l-16-1-6 3h-3v2l-9 4-6 2-6 3-2 5-7 8-3 2-1 6-12 5-8 6-3 1 2-4 9-11 19-19 15-11 15-7z" fill="#002D79"/>
<path transform="translate(231,767)" d="m0 0 9 1 1 2-1 41-3 5-8 4-8-1 1-5 7-5 1-40z" fill="#FEFEFE"/>
<path transform="translate(380,575)" d="m0 0 2 1-1 13-2 10h-2l-1 6-4 5h-2l-2 4-3 3-7 13-6 5h-2l-2 5-5 5-5 4h-2l-2 4-5 4 2-5 8-9 12-17 15-24 7-11z" fill="#002C77"/>
<path transform="translate(316,776)" d="m0 0h20l2 2-1 6-9 14-1 3h11l1 6-2 2h-18l-4-2v-6l10-14 1-4-9 1-2-2v-5z" fill="#FEFEFE"/>
<path transform="translate(449,587)" d="m0 0 5 1v7l-6 8-9 8-8 5-5-1-4-5 1-5 7-8 9-6z" fill="#002E7A"/>
<path transform="translate(307,600)" d="m0 0h3l-1 4-7 6-14 10-11 9-14 10h-5l1-6 11-12 18-11 10-7z" fill="#001D61"/>
<path transform="translate(602,536)" d="m0 0 5 1 2 5v9l-8 17-5 8h-3l2-10 4-9-3 1-4 9-4 1-2-2 1-5 7-14z" fill="#FEFEFE"/>
<path transform="translate(332,598)" d="m0 0 5 2 1 2h6l5-3-1 4-15 22-12 13-5 5h-3l1-5 15-24h2v-7l-4 2 3-5z" fill="#001F65"/>
<path transform="translate(96,660)" d="m0 0 3 1 3 7 3 3 1 6 4 7 5 9 9 15 13 23 3 7 7 11 4 5 6 9 5 6v2l-4-2-13-17-17-26-10-17-13-26-9-20z" fill="#092769"/>
<path transform="translate(765,605)" d="m0 0 5 1v3l-12 5-5 4-7 3-9 7-3 1v2h-2l-1 4-8 7-5 5-2 1v-2l-4 3 3 2-8 12-7 6h-3v-2h-5l-5 4 2-4 13-12 16-15 14-12 16-12 9-6z" fill="#002D79"/>
<path transform="translate(546,572)" d="m0 0h8l4 2-8 5-9 3-4 5-8 3-5 5-11 12-6 4h-2l1-6 9-10 7-8 7-6z" fill="#002D79"/>
<path transform="translate(390,776)" d="m0 0 6 1 4 2 2-2h8l-1 6-8 6-1 5v12l-2 2h-7l-1-1z" fill="#FEFEFE"/>
<path transform="translate(685,469)" d="m0 0 6 1 1 1v19l-1 27-5 1-2-2v-46z" fill="#FEFEFE"/>
<path transform="translate(716,766)" d="m0 0 4 2-6 14-7 24-5 3-4-1 1-9 9-26 4-5z" fill="#FEFEFE"/>
<path transform="translate(847,489)" d="m0 0h6l4 4 1 4v10l-5 5h-6l-4-2-2-3v-11l3-5z" fill="#003C8F"/>
<path transform="translate(646,489)" d="m0 0h6l5 6v12l-2 4-2 1h-8l-5-6v-10l4-6z" fill="#003C8F"/>
<path transform="translate(714,611)" d="m0 0 10 1 4-1-2 4-17 13-10 9-6 5-1-4 6-10 4-5 3-7 6-4z" fill="#002D78"/>
<path transform="translate(656,597)" d="m0 0h5l-4 7-11 12-3-1 1-4-6 4-1-2 2-3-2 1-5 10-1-2-14 7 3-5 10-9 11-9 10-5z" fill="#003B8D"/>
<path transform="translate(334,787)" d="m0 0h2l2 9 4 1 6 9 4 1 13 1v2l-10 5h-8l-7-3-2-11-12 1 3-8z" fill="#002C78"/>
<path transform="translate(661,781)" d="m0 0 3 1 2 3 1 12 3 6 3 3 3 1-2 4h-7l-2-1-13-1v-1l12-1-3-6-6-3-1-1v-8l3-6z" fill="#002E7B"/>
<path transform="translate(376,776)" d="m0 0h6l1 1 1 30-1 1h-8l-2-2 1-28z" fill="#FEFEFE"/>
<path transform="translate(432,248)" d="m0 0 16 1 37 3 21 2 12 3 6 4 3 3v3h-2l-3-3-10-5-14-3-44-1-14-3-8-3z" fill="#002F7B"/>
<path transform="translate(519,291)" d="m0 0 1 3-15 16-19 19-8 7-13 12-4 1 6-7h2v-2l10-10 8-10 6-7h2l1-3 5-2 1-3 9-7z" fill="#002D79"/>
<path transform="translate(809,483)" d="m0 0h4l2 3v30l-2 2-6-1-1-15v-14z" fill="#FEFEFE"/>
<path transform="translate(854,591)" d="m0 0 5 1-1 9-9 20-6 9-3 2-2-3v-6l3-2 4-10 5-5h2l2-5 1-3-8 1 3-5z" fill="#003D90"/>
<path transform="translate(759,599)" d="m0 0 4 1-2 4-5 1-1 3-6 4-16 10-13 9-9 6-2-1 7-7 11-9 14-10 15-10z" fill="#002A75"/>
<path transform="translate(781,630)" d="m0 0h3l1 10 1 2 5-2 6-4h2l-1 3-12 7-10 6-5 1v-7l5-14z" fill="#002D78"/>
<path transform="translate(723,488)" d="m0 0h7l3 6v4h-11v5h17v4h-2v-2h-4l-1 6-1 1-8-1-4-3 1-16z" fill="#003D90"/>
<path transform="translate(504,384)" d="m0 0 2 1-2 2v10l-8 7-7 3-7 4-8 3 2-4 9-9 11-9z" fill="#002D78"/>
<path transform="translate(573,628)" d="m0 0 3 1v3l4 1v2l5 1-1 4-10 8-7 5h-2l1-7z" fill="#002D79"/>
<path transform="translate(449,357)" d="m0 0h2l-1 3-12 9-15 11-4 1-3-2 1-4 5-4h2l-2-5-3-4 6 1 7 4 5-2 5-4z" fill="#002D79"/>
<path transform="translate(599,636)" d="m0 0 2 1-3 6-14 12-9 9-9 6h-3v-5l11-8 11-10z" fill="#003D90"/>
<path transform="translate(670,619)" d="m0 0h2l-2 9-7 11 5-4h4l-1 4-12 12-5 1 2-10 3-8h4l1-5 4-9z" fill="#002D79"/>
<path transform="translate(411,923)" d="m0 0 27 1 15 2 6 3 1 1 8 1 1 2h-10l-44-7z" fill="#082668"/>
<path transform="translate(694,781)" d="m0 0 4 2v2l4-1 1 7-1 3-3 1-3 8-2-4h-5v2h-11l-3-3v-3l12-1 7 1z" fill="#002E7A"/>
<path transform="translate(599,783)" d="m0 0 5 1 4 6v7l-3 3-5 1-5-2-2-5 1-6z" fill="#003B8D"/>
<path transform="translate(507,783)" d="m0 0 5 1 4 4v8l-5 5-6-1-3-5v-6l2-4z" fill="#003C8F"/>
<path transform="translate(237,700)" d="m0 0 2 1-1 6-6 7-7 2-3 2-15 2-7-1v-1l13-3 16-9 6-4z" fill="#002D78"/>
<path transform="translate(667,660)" d="m0 0 9 2v9l-4-1-1 3-10-1-5-3-4-2 9-4z" fill="#002C77"/>
<path transform="translate(285,612)" d="m0 0v3l-4 5-7 4-1 8-10 7h-5l1-6 11-12z" fill="#002D78"/>
<path transform="translate(496,158)" d="m0 0 2 1-9 7-19 13-14 12-3-1 15-15 10-7 6-3h2l1-4h-7l-2-2z" fill="#002E7A"/>
<path transform="translate(383,775)" d="m0 0 6 1 1 30 1 3-7-1-1-10z" fill="#002B76"/>
<path transform="translate(473,783)" d="m0 0 5 1 3 8v6l-3 3-7-1-3-3v-9z" fill="#003B8D"/>
<path transform="translate(584,772)" d="m0 0 4 2-3 2v7h2v13l3 7 1 4-5-1-4-7v-9l-1-1v16h-1v-31z" fill="#002872"/>
<path transform="translate(799,657)" d="m0 0 3 1 5 10-1 2-2-1v-3l-6-1-5 1-4 1-5 5h-6l-2 3-9 1-4-5-1-5 3 3v2l9-1 15-6z" fill="#002D79"/>
<path transform="translate(426,783)" d="m0 0 5 1 3 5-1 9-2 2h-8l-2-3v-9z" fill="#002D78"/>
<path transform="translate(333,635)" d="m0 0h2l-1 5-13 14-6 3h-5l-1-5 7-5 7-3 8-8z" fill="#00398A"/>
<path transform="translate(332,598)" d="m0 0 5 2 1 2h6l5-3-1 4-7 10-4-1-6 2v-7l-4 2 3-5zm-3 16 2 1-3 2z" fill="#002D79"/>
<path transform="translate(661,366)" d="m0 0v3l-4 5-14 11-12 7h-6l5-5 11-8 18-11z" fill="#002D79"/>
<path transform="translate(861,623)" d="m0 0 4 1-1 4-8 18-5 5-5 2 1-7 7-10 6-11z" fill="#002E7A"/>
<path transform="translate(477,632)" d="m0 0h2l-2 4-8 9h-2l-2 4-6 4-5 8h-5v-2h-2v-3l11-8 11-9z" fill="#002F7C"/>
<path transform="translate(443,152)" d="m0 0h37l13 1 2 2h-65l2-2z" fill="#002C77"/>
<path transform="translate(272,646)" d="m0 0 4 1-5 6 7-4 2 1-5 5-9 4-6 2h-5l3-7 8-5z" fill="#0F4896"/>
<path transform="translate(776,789)" d="m0 0h6v7l-1 3-2 1h-12l-1-1v-8l1-1z" fill="#002D79"/>
<path transform="translate(763,517)" d="m0 0h18l1 5-5 5h-8l-5-5z" fill="#002E7B"/>
<path transform="translate(656,597)" d="m0 0h5l-4 7-11 12-3-1 1-4-6 4-1-2 4-4 8-6 2-5z" fill="#003C8F"/>
<path transform="translate(263,779)" d="m0 0h4v21l-1 1-7-1-1-1v-10l4-3z" fill="#002D79"/>
<path transform="translate(621,391)" d="m0 0 3 1-1 3-15 5-13 3h-15v-2l4-2 16-1 14-4z" fill="#002E7A"/>
<path transform="translate(704,621)" d="m0 0h6v3l2 1-15 14-5 3 1-6 7-11z" fill="#001E64"/>
<path transform="translate(841,660)" d="m0 0h2v3l11 2-2 4-8 4-11 1 1-4z" fill="#002C77"/>
<path transform="translate(291,582)" d="m0 0 5 1v2l-14 7-13 11-9 10-1-3 3-5 7-6h2l2-5h2v-2l8-6z" fill="#002E7A"/>
<path transform="translate(415,615)" d="m0 0h3l5 9 5 5 2 1v2l-9-1-1-3-7 1-3 1 1-9z" fill="#002A74"/>
<path transform="translate(324,783)" d="m0 0h2l-1 5-10 14-2 4v-2h-2l-1-3v-13l4 2h3l4-3h2z" fill="#002B75"/>
<path transform="translate(641,407)" d="m0 0h5l-4 3-15 6-18 5-17 2h-8l2-2 25-4 21-6z" fill="#00307D"/>
<path transform="translate(339,314)" d="m0 0h2l10 13 14 15 12 11 6 5h-3l-12-9-5-4-5-5-11-13-4-6-4-5z" fill="#00307D"/>
<path transform="translate(353,794)" d="m0 0h8l7 1 1 3h2l-1 6-1-4-9 2h-6l-4-4 1-3z" fill="#00236A"/>
<path transform="translate(573,924)" d="m0 0h5v3l-16 3h-14v-4l2-1z" fill="#082567"/>
<path transform="translate(334,787)" d="m0 0h2l2 9 4 1 3 5-1 3-4-4h-8l-6 1 3-8z" fill="#001E63"/>
<path transform="translate(829,639)" d="m0 0h4l-2 4-10 9-6 4-6 1-1-3 3-3 3 1 2-6 2-1v2l5-1 4-6z" fill="#002066"/>
<path transform="translate(565,179)" d="m0 0 6 1 17 10 24 16v2l-5-2-7-4-5-5-21-11-9-6z" fill="#002C77"/>
<path transform="translate(727,503)" d="m0 0h12v4h-2v-2h-4l-1 6-1 1-8-1-3-2 1-5z" fill="#002A74"/>
<path transform="translate(596,557)" d="m0 0h3l-1 4-5 16-6-2-4-3 2-4 7-2 3-8z" fill="#00307E"/>
<path transform="translate(629,626)" d="m0 0 4 3-2 4-10 11-4 1-2-3 4-4 2-4 4-2h3l-1-4z" fill="#001C61"/>
<path transform="translate(770,489)" d="m0 0h8v8l-3 3-7-1-2-4 2-5z" fill="#00307D"/>
<path transform="translate(769,775)" d="m0 0h11v7l-10 2-4-1v-5z" fill="#002C78"/>
<path transform="translate(406,503)" d="m0 0h2v5l-7 11-6 4h-2l3-10 5-4z" fill="#002D79"/>
<path transform="translate(94,347)" d="m0 0h1l-1 8-4 9-3 11-4 8h-1l1-8 8-24z" fill="#09276A"/>
<path transform="translate(905,352)" d="m0 0 3 1 10 30v7l-3-4-10-32z" fill="#0C2B6E"/>
<path transform="translate(597,656)" d="m0 0 3 1 4 11v5l-5-4-1-4-9 3 2-5z" fill="#002D79"/>
<path transform="translate(558,773)" d="m0 0 2 1v2l4 2 4 3 2 1 1 16-2-1-4-8-7-13z" fill="#002E7A"/>
<path transform="translate(765,605)" d="m0 0 5 1v3l-12 5-5 4-6 1 2-4 11-7z" fill="#002D78"/>
<path transform="translate(476,784)" d="m0 0h2l3 8v6l-2 2-3-1-2-4-2-1v-5z" fill="#002D79"/>
<path transform="translate(862,575)" d="m0 0 4 1 5 4 1 4-1 8h-3l-6-14z" fill="#002D79"/>
<path transform="translate(231,477)" d="m0 0 1 3-9 9-11 14-1 2h-2l3-9 11-12z" fill="#002F7C"/>
<path transform="translate(663,802)" d="m0 0 5 2 1-2 4 4 3 1-2 4h-7l-2-1-13-1v-1l12-1z" fill="#002D79"/>
<path transform="translate(392,627)" d="m0 0h1l1 21 2 10-3-1-3-5v-18z" fill="#002066"/>
<path transform="translate(389,338)" d="m0 0 4 2v2l4 2 13 10 9 7-1 2-16-11-9-7-4-5z" fill="#002E7B"/>
<path transform="translate(376,764)" d="m0 0 7 1 1 1v5l-4 3-5-1-2-6z" fill="#FEFEFE"/>
<path transform="translate(645,643)" d="m0 0h2l1 6-1 5-5 2h-3v-2h-2l1-4z" fill="#002E7A"/>
<path transform="translate(267,452)" d="m0 0h2v2l-14 7-14 10-2-1 5-5 14-10z" fill="#00307D"/>
<path transform="translate(431,370)" d="m0 0m-6 1 5 1v3l-8 6-5-1-1-4 3-3z" fill="#001C61"/>
<path transform="translate(299,792)" d="m0 0h1v8l-2 2-7-1-2-3 1-5h8z" fill="#00317F"/>
<path transform="translate(457,649)" d="m0 0h2l1 3-6 9h-5v-2h-2v-3z" fill="#002C78"/>
<path transform="translate(548,643)" d="m0 0h2l1 13 4 10 1 4-5-5-5-12v-7z" fill="#002F7B"/>
<path transform="translate(731,620)" d="m0 0 4 1-24 16-2-1 7-7 8-6z" fill="#003C8E"/>
<path transform="translate(125,684)" d="m0 0 2 3 3 8 7 8-1 2-6-3-4-5-2-4v-7z" fill="#003A8C"/>
<path transform="translate(532,649)" d="m0 0h10l2 4-5 3h-6l-2-1v-5z" fill="#002C77"/>
<path transform="translate(72,571)" d="m0 0 3 3 1 2 2 20-2 3-4-19z" fill="#112F70"/>
<path transform="translate(728,469)" d="m0 0h5l2 2-1 5-1 1h-8l-1-5z" fill="#FEFEFE"/>
<path transform="translate(519,143)" d="m0 0h2l-1 3-14 8-4 3h-3l2-4 5-4 8-4z" fill="#002F7B"/>
<path transform="translate(493,789)" d="m0 0h1l2 9 3 6 3 2-1 2-5-3-3-3-2-1-1 4v-12h2z" fill="#002973"/>
<path transform="translate(643,573)" d="m0 0h5l-4 3-7 4-8 8h-2l2-5 4-6z" fill="#002F7C"/>
<path transform="translate(844,574)" d="m0 0 2 1-12 10-8 4-3-1 9-7 5-3 4-3z" fill="#002E7B"/>
<path transform="translate(849,490)" d="m0 0h6l3 7v10l-2 1-5-15v-2z" fill="#002D78"/>
<path transform="translate(362,690)" d="m0 0h1v16l-1 6-3-3v-11l2-7z" fill="#002E79"/>
<path transform="translate(200,617)" d="m0 0 5 5 12 11 14 13-1 2-15-14-8-7-7-8z" fill="#00327F"/>
<path transform="translate(619,779)" d="m0 0h1l1 13v12l-2 2-2-3v-13h1z" fill="#002D78"/>
<path transform="translate(444,597)" d="m0 0h6l1 3-8 8-3-2 2-8z" fill="#003D90"/>
<path transform="translate(285,612)" d="m0 0v3l-4 5-10 4-4 3-2-1 7-6z" fill="#003D90"/>
<path transform="translate(426,783)" d="m0 0 5 1 3 5-1 3h-3-2l-2-3-4-1 2-4z" fill="#003280"/>
<path transform="translate(347,904)" d="m0 0 11 3 13 5v3l-4-1-19-7z" fill="#04256A"/>
<path transform="translate(514,644)" d="m0 0 7 6 9 3v3l-2 1v5h-2l-7-11-5-5z" fill="#002D79"/>
<path transform="translate(479,566)" d="m0 0 4 1 5 7 1 7h-4l-3-9-3-2z" fill="#002C77"/>
<path transform="translate(567,627)" d="m0 0 2 1-6 19-1 8-2 1v-11l4-11z" fill="#003B8D"/>
<path transform="translate(807,471)" d="m0 0h7l2 4-3 3h-6l-2-4z" fill="#FEFEFE"/>
<path transform="translate(681,782)" d="m0 0 4 1 1 4-6 4h-3l-1-3 3-5z" fill="#00317E"/>
<path transform="translate(475,675)" d="m0 0 5 1 24 9v2l-22-6-1-3-6-2z" fill="#002E7A"/>
<path transform="translate(307,600)" d="m0 0h3l-1 4-4 3-6-1-4 2-3-1 8-5z" fill="#003281"/>
<path transform="translate(518,549)" d="m0 0v3l-5 8-4 4h-3l1-4 3-4h2l2-4z" fill="#002C77"/>
<path transform="translate(919,397)" d="m0 0h2l4 14v9l-2-2-4-17z" fill="#09286B"/>
<path transform="translate(569,638)" d="m0 0 2 2 1 10-5 3h-2l1-7z" fill="#003C8F"/>
<path transform="translate(293,782)" d="m0 0 6 1v5h-11l1-4z" fill="#002C77"/>
<path transform="translate(587,191)" d="m0 0 5 2 16 10 4 3v2l-5-2-7-4-5-5-8-5z" fill="#001F65"/>
<path transform="translate(507,783)" d="m0 0 5 1 4 4v8l-3-1-1-7-4-2-5 4 1-5z" fill="#002D78"/>
<path transform="translate(616,637)" d="m0 0 4 1-4 5 2 3-7 4 1-7z" fill="#002E7B"/>
<path transform="translate(648,600)" d="m0 0h2l-1 4-6 5h-2l-1-2-3 1 1-3z" fill="#002E7B"/>
<path transform="translate(583,790)" d="m0 0 1 2v5l4 2 3 5v3l-5-1-4-7v-8z" fill="#002B76"/>
<path transform="translate(96,660)" d="m0 0 3 1 3 7 3 3-2 5-3-4-4-9z" fill="#0F2E6F"/>
<path transform="translate(763,517)" d="m0 0h18v1l-12 1-1 7-4-4z" fill="#003C8F"/>
<path transform="translate(740,613)" d="m0 0 4 2-8 5-12 4v-2l9-5 5-1v-2z" fill="#00317E"/>
<path transform="translate(94,347)" d="m0 0h1l-1 8-3 7-4 2 3-10 3-6z" fill="#0F2D6F"/>
<path transform="translate(229,706)" d="m0 0 3 1-5 5-9 3-3-1z" fill="#001F65"/>
<path transform="translate(372,618)" d="m0 0h1v8l-1 6-3 1-1-8 3-6z" fill="#002E7B"/>
<path transform="translate(706,600)" d="m0 0 1 3h4v6l-2 3h-2l-1 3z" fill="#002C77"/>
<path transform="translate(367,795)" d="m0 0 2 1v2h2l-1 6-1-4-9 1 2-5z" fill="#002E7A"/>
<path transform="translate(552,784)" d="m0 0h3l8 14-1 3-5-6z" fill="#002E7B"/>
<path transform="translate(353,783)" d="m0 0h7l1 4-3 2-6-1z" fill="#002C77"/>
<path transform="translate(408,788)" d="m0 0h3l2 7 3 9-5-5-1-6-4 1 1-5z" fill="#002E7A"/>
<path transform="translate(591,548)" d="m0 0h2l-2 6-6 12-1-4 3-7 2-6z" fill="#002E7A"/>
<path transform="translate(269,599)" d="m0 0h2l-2 4-9 10-1-3 3-5z" fill="#002F7C"/>
<path transform="translate(464,654)" d="m0 0 4 1-1 3-5 4-5-1 5-5z" fill="#002D78"/>
<path transform="translate(263,632)" d="m0 0h4l-1 5-3 2h-5l1-4z" fill="#003C8F"/>
<path transform="translate(497,655)" d="m0 0 4 2 5 5v2l-9-1z" fill="#002C77"/>
<path transform="translate(366,652)" d="m0 0h1v15l-3 2-1-7z" fill="#002E7A"/>
<path transform="translate(847,481)" d="m0 0h9l2 1v2l4 1 5 8h-3l-4-6-7-4-6-1z" fill="#002A74"/>
<path transform="translate(600,419)" d="m0 0h5l-2 3-19 1 2-2z" fill="#003280"/>
<path transform="translate(256,858)" d="m0 0 6 1 7 5-3 2-10-6z" fill="#13397E"/>
<path transform="translate(360,714)" d="m0 0 5 5 3 10h-2l-2-5-2-1-2-5-1-2z" fill="#002E7B"/>
<path transform="translate(759,599)" d="m0 0 4 1-2 4-5 1-1 2-2-2 1-4z" fill="#002E7A"/>
<path transform="translate(655,786)" d="m0 0 2 3 2 4 2 2-3 1-2 3-2-2v-8z" fill="#003D90"/>
<path transform="translate(380,575)" d="m0 0 2 1v5h-2l-1 4-4 6-1-2z" fill="#003C8E"/>
<path transform="translate(641,407)" d="m0 0h5l-4 3-13 5-2-1 5-3z" fill="#002D78"/>
<path transform="translate(396,608)" d="m0 0h3l-1 6-1 2h-4l-1-4z" fill="#001E63"/>
<path transform="translate(498,585)" d="m0 0h3l-1 6-4 2-2-1 1-5z" fill="#002C77"/>
<path transform="translate(337,783)" d="m0 0h1v7h2l1 7-4-1-2-11z" fill="#002E7A"/>
<path transform="translate(253,458)" d="m0 0m-1 1m-1 1m-1 1 1 3-10 7-2-1 5-5z" fill="#002E7B"/>
<path transform="translate(415,376)" d="m0 0 5 5-5 5h-3z" fill="#002E7A"/>
<path transform="translate(628,625)" d="m0 0 2 1-2 3v3l-6 2-5 4 2-4z" fill="#002973"/>
<path transform="translate(677,674)" d="m0 0h2l1 8-6 1 1-4z" fill="#002C77"/>
<path transform="translate(741,610)" d="m0 0 5 1v3h-8v2l-5 2 1-3z" fill="#002269"/>
<path transform="translate(446,590)" d="m0 0h2v3l-6 3-5-1v-2z" fill="#001A5D"/>
<path transform="translate(772,505)" d="m0 0h4v4h5v1h-9l-4-2z" fill="#002D79"/>
<path transform="translate(280,469)" d="m0 0h7l-2 2-7 3h-5l1-3z" fill="#002066"/>
<path transform="translate(301,580)" d="m0 0h7l4 4-14-1z" fill="#002C77"/>
<path transform="translate(70,434)" d="m0 0 1 2-1 6v6l-1 1-1 7h-1v-10l2-11z" fill="#0F4795"/>
<path transform="translate(285,612)" d="m0 0v3l-4 5-6 2 6-8z" fill="#002D79"/>
<path transform="translate(425,785)" d="m0 0h4l1 4h2v2l-4 1-2-3h-2z" fill="#003D90"/>
<path transform="translate(739,775)" d="m0 0 9 1 3 1-1 3-12-3z" fill="#002C78"/>
<path transform="translate(579,614)" d="m0 0h1v8l-4 4 1-9z" fill="#002E7B"/>
<path transform="translate(823,615)" d="m0 0 5 1-2 6-4-2-1-4z" fill="#003D90"/>
<path transform="translate(425,604)" d="m0 0h2l-1 4 1 4-3 1-2-3 1-5z" fill="#003C8F"/>
<path transform="translate(522,419)" d="m0 0h10l6 1v2h-8l-8-2z" fill="#00307E"/>
<path transform="translate(767,493)" d="m0 0 7 2-1 4h-5l-2-4z" fill="#001D62"/>
<path transform="translate(727,488)" d="m0 0 4 1 2 5v4h-7l4-2z" fill="#002B76"/>
<path transform="translate(561,642)" d="m0 0h2l-1 13-2 1v-11z" fill="#003382"/>
<path transform="translate(706,624)" d="m0 0h2v5l-7 5-1-3 1-2h4z" fill="#002E7B"/>
<path transform="translate(538,400)" d="m0 0 6 2v1h-12l-5-1v-1z" fill="#002D78"/>
<path transform="translate(682,794)" d="m0 0 9 1v1l-9 1-5 1v-3z" fill="#002066"/>
<path transform="translate(656,642)" d="m0 0 2 1 1 8-5 1z" fill="#003D90"/>
<path transform="translate(596,557)" d="m0 0h3l-1 4-3 6h-1v-7z" fill="#002B76"/>
<path transform="translate(733,505)" d="m0 0h4v2l2 1-1 2-6 1z" fill="#003889"/>
<path transform="translate(770,489)" d="m0 0 5 1-2 1-1 4-4-1-1-2z" fill="#003584"/>
<path transform="translate(289,469)" d="m0 0h10v6h-2l-2-3-6-2z" fill="#001B5E"/>
<path transform="translate(493,394)" d="m0 0 3 1-10 9-3 1 2-4z" fill="#002269"/>
<path transform="translate(696,634)" d="m0 0 3 3-6 5-1-4z" fill="#00317F"/>
<path transform="translate(77,599)" d="m0 0 3 1 1 10h-2l-2-7z" fill="#123172"/>
<path transform="translate(860,515)" d="m0 0h2l-2 5-10 1 3-2z" fill="#002D79"/>
<path transform="translate(685,797)" d="m0 0h3l1 4h-11l4-3z" fill="#003D90"/>
<path transform="translate(477,632)" d="m0 0h2l-2 4-5 6-2-4z" fill="#003787"/>
<path transform="translate(751,603)" d="m0 0h3l1 5-5 1-2-2z" fill="#001E63"/>
</svg>
