<?xml version="1.0" encoding="UTF-8"?>
<svg version="1.1" viewBox="0 0 804 1000" width="201" height="251" xmlns="http://www.w3.org/2000/svg">
<path transform="translate(0)" d="m0 0h804v1e3h-804z" fill="#3D756B"/>
<path transform="translate(0)" d="m0 0h804v1e3h-804zm359 53-34 4-26 4-29 6-27 7-44 13-20 7-25 11-30 13-23 12-32 18-17 12-1 5 8 26 13 43 11 41 5 27 6 43 1 13v49l-3 30-4 29-20 107-2 26-1 54 4 24 7 25 13 32 8 16 22 33 9 11 8 8 8 7 13 11 17 12 26 16 22 12 32 14 60 24 15 8 18 6 18 10 13 8 20 12 9 6 9-1 18-11 10-6 40-20 16-9 16-8 21-11 14-8 22-13 20-12 16-11 18-13 16-11 17-12 16-12 10-9 13-13 7-8 6-7 8-15 9-19 2-6 7-42v-18l-4-46-3-26-5-24-7-30-15-77-2-15-1-14v-44l4-33 9-58 6-27 10-37 12-36 6-17-4-5-33-22-20-13-23-12-30-14-36-14-46-15-34-9-28-5-26-3-50-4z" fill="#3D756B"/>
<path transform="translate(387,65)" d="m0 0h8l1 6v338l-1 34-3 7-9 13-12 13-14 11-13 9-19 11-25 12-30 12-27 9-28 8-44 11-37 7-37 5h-8l1-9 8-40 6-37 5-46 1-16v-60l-4-42-7-43-8-36-10-37-9-30 1-4 28-17 25-14 29-15 34-15 26-10 41-13 38-9 32-6 27-4 18-2z" fill="#B9DDCB"/>
<path transform="translate(401,65)" d="m0 0 18 1 36 4 32 5 26 5 36 9 33 10 36 14 33 15 16 8 19 10 20 12 17 11 1 1-1 8-9 30-9 33-9 43-6 39-3 35-1 21v24l2 38 4 36 6 40 9 45v7l-29-3-36-6-29-6-35-9-37-11-27-10-26-11-20-10-18-11-14-10-13-12-8-8-11-16-2-6-1-13-1-170v-172z" fill="#B9DDCB"/>
<path transform="translate(390,15)" d="m0 0h17l33 3 33 4 28 5 36 8 20 6 41 15 38 15 25 13 23 11 38 19 26 16 12 8 9 7 11 12 3 4-1 8-13 28-9 23-16 50-6 24-7 41-3 25-2 25-1 27 3 34 4 27 13 59 10 52 4 38v52l-4 35-4 15-8 22-7 14-12 17-14 17-7 8-4 5-12 12-8 7-12 12-19 14-24 16-23 12-54 28-19 10-25 12-14 8-26 15-19 12-10 8-12 11-5 4-4 5-6-1-13-11-10-8-18-13-16-9-19-7-35-12-29-12-40-18-30-15-18-11-16-12-13-11-8-7-20-20-7-8-9-10-9-12-10-13-11-17-10-21-11-27-5-16-4-24-3-29v-36l3-33 9-65 6-49 3-34 1-18v-37l-4-48-1-13h2l-4-13-13-52-9-31-10-30-9-23-3-13v-4l26-15 11-7 15-9 22-13 16-9 17-9 23-11 28-13 31-12 27-10 49-13 26-6 20-3 44-4zm-31 38-34 4-26 4-29 6-27 7-44 13-20 7-25 11-30 13-23 12-32 18-17 12-1 5 8 26 13 43 11 41 5 27 6 43 1 13v49l-3 30-4 29-20 107-2 26-1 54 4 24 7 25 13 32 8 16 22 33 9 11 8 8 8 7 13 11 17 12 26 16 22 12 32 14 60 24 15 8 18 6 18 10 13 8 20 12 9 6 9-1 18-11 10-6 40-20 16-9 16-8 21-11 14-8 22-13 20-12 16-11 18-13 16-11 17-12 16-12 10-9 13-13 7-8 6-7 8-15 9-19 2-6 7-42v-18l-4-46-3-26-5-24-7-30-15-77-2-15-1-14v-44l4-33 9-58 6-27 10-37 12-36 6-17-4-5-33-22-20-13-23-12-30-14-36-14-46-15-34-9-28-5-26-3-50-4z" fill="#BADDCC"/>
<path transform="translate(2,143)" d="m0 0h1l2 13 14 36 6 19 12 41 7 27 6 21 2 6v12l4 58v32l-2 35-6 54-10 72-4 30-1 14v36l4 39 3 18 5 15 15 36 8 17 12 17 9 12 10 13 12 14 26 26 11 9 18 14 14 9 22 12 31 15 36 16 27 11 54 18 17 11 13 9 17 13 11 9v2h-408v-860z" fill="#FBFCFC"/>
<path transform="translate(802,156)" d="m0 0h2v848h-382l2-6 8-8 10-8 12-9 24-14 23-13 16-10 27-12 25-13 19-10 44-22 20-12 15-11 12-9 10-9 12-11 19-19h2l2-4 8-9 14-19 9-13 5-11 9-24 4-17 5-51v-16l-3-41-3-20-12-62-12-54-5-36-1-9v-35l3-38 4-27 6-34 5-20 17-55 9-21z" fill="#FBFCFC"/>
<path transform="translate(405,508)" d="m0 0h5l5 5 3 5v7l-9 10-2 4 1 7 8 8 3 2 1 6-5 8-5 6-1 7 15 3 1-9 13-61 2-4 5 1 1 5-10 65-1 5 9 2 4 1 1-5 12-30 13-32 2-2 5 1 1 5-12 36-11 31 4 3 6 1 12-19 15-22 12-17 4-2 3 2-1 6-10 17-16 27-9 16 1 3 4 1 4-6 4-3 18 1-1-12 1-7 4-5 5-3 7-1h11l3-11 5 1 2 2-1 10-3 5-4 2-17 2-2 5-1 17-6 6-16 1-2 4 1 5 3 4v2l5-2 22-14 18-12 14-9 4-1 2 3-1 4-17 13-19 14-16 12-3 1 3 7 2 4 5-1 28-12 33-13 4 1 1 1v5l-5 3-29 14-23 11-8 4 3 12 49-9 17-3h7l1 2v6l-43 10-25 6-2 1v8h9l9 12v2l5-1 5-5 7-5h8l7 4 7 8 7-1 5-2 2 2v5l-10 8-6-2-9-7-3-4h-7l-10 9-3 2h-6l-6-5-5-5-5-2-1 17 18 5 33 9 12 4 2 4-2 3h-7l-45-10-14-3-2 9-1 5 5 2 54 27 2 3-2 4-5 1-30-13-27-12h-3l-5 11 4 2 14 11 13 10 17 14 5 4 1 4-3 3-5-1-12-9-18-13-14-10-9-6-2 3 2 4 1 5-1 7v8l15 1 7 4 4 8 1 15 3 3 7 2 1 5-2 2h-8l-8-4-2-3-1-15-1-4-2-1-18-1-6-6-1-18-6 3-4 3 1 4 13 22 17 28 3 7-1 2h-5l-9-11-24-36-5-7-10 5 1 6 15 39 7 18-2 4h-5l-3-5-10-21-8-20-6-14-8 1-5 2 13 55 3 13v5l-1 1h-5l-4-9-8-26-9-32-1-5-11 1 2 5-1 7-9 7-2 5 5 5 6 7 1 2v9l-5 8-6 7 1 5 2 2v7l-3 1-6-5-3-4v-9l10-15-2-5-7-8-5-6 2-7 7-10 1-7-13-2-3 15-10 40-5 18-3 1-4-2 2-16 11-56 1-3-11-2-10 28-9 24-7 18h-5l-2-2 2-10 10-33 8-26 1-6-9-3-2 5-8 14-11 18-12 19-6 9-4-2-1-5 10-19 10-18 12-22 2-4-1-4-6-4-2 6-4 3-17 1 1 19-7 8-5 2-14 2-2 10-5 1-2-2v-10l2-6 8-4 13-2 1-11v-12l5-5 12-2 6-4-1-6-4-5v-2l-5 2-12 9-11 9-12 9-10 9-7 5-4-2 1-5 9-9 11-9 17-16 10-9 4-1-4-10v-2l-10 4-20 10-16 9-18 9-5-1v-6l14-9 24-14 25-15-3-7-9 2-35 10-26 7h-3l-1-7 8-4 53-18 10-3-1-6-9 2-5-5-6-7h-5l-7 9-5 4-7 1-8-4-6-5-4-1-5 3-5 2-1-1v-6l7-8 6-1 7 4 8 6 5-1 5-5 8-9 8 1 11 8 7-1v-17l-63-7-7-2 1-5 1-1h22l46 2 3 1 3-13-5-1-59-19-5-2-1-3 3-5 14 3 54 14 5-1 2-6-6-2-14-8-26-15-14-8-5-4 1-5h6l39 19 17 9 6 3h3l5-7-7-7 1-7v-12l-15 1-7-3-4-5-3-10v-9l-9-3-1-1v-6l4-1 10 2 5 5 2 16 2 4 22 1 3 5 2 15 2 3 4-1 9-7h2l-4-8-10-15-11-16-7-10-7-11 1-4h5l10 12 10 13 16 21 6 8 4-1 7-4-1-4-9-21-11-25-7-16 1-4 5-1 6 9 22 44 6 11v2l10-3-16-73 1-3 5-1 3 5 7 23 9 33 3 13 8-1-2-9 5-5 6-5 2-5v-2l-4-2-6-7-2-6 1-8 7-9 3-2v-6l-3-5z" fill="#3D756B"/>
<path transform="translate(677,197)" d="m0 0h4l9 17 2 2-1 7-11 39-12 45-12 50-2 8-4 1-4-7-5-8 2 5 4 8v2h2v3h3l3 6-1 4-7 1-41-2-34-1h-19v3l-8 1-5 3h-12l-3-1v-4l4-3 1-3-2-2 2-4v-3l-3 7-21 5-43 12-30 9-3-1-1-11h2l2-5 6-7 7-12 2-1 11-1h62l-3-1-13-1h-53l-20 4-2 2h-4l2-10 11-27 16-44 13-40 6-18 6-5 9-2 10-1h57l8 2v-4l3 1-1 7-12 41-10 40-11 38-3 11 6-15 6-20 17-64 7-28 4-10 4-4 16-8 10-2h51l23-3z" fill="#F8FBFA"/>
<path transform="translate(405,508)" d="m0 0h5l5 5 3 5v7l-9 10-2 4 1 7 8 8 3 2 1 6-5 8-5 6-1 7 15 3 1-9 13-61 2-4 5 1 1 5-10 65-1 5 9 2 4 1 1-5 12-30 13-32 2-2 5 1 1 5-12 36-11 31 4 3 6 1 12-19 15-22 12-17 4-2 3 2-1 6-10 17-16 27-9 16 1 3 4 1 4-6 4-3 18 1-1-12 1-7 4-5 5-3 7-1h11l3-11 5 1 2 2-1 10-3 5-4 2-17 2-2 5-1 17-6 6-16 1-2 4 1 5 3 4v2l5-2 22-14 18-12 14-9 4-1 2 3-1 4-17 13-19 14-16 12-3 1 3 7 2 4 5-1 28-12 33-13 4 1 1 1v5l-5 3-29 14-23 11-8 4 3 12 49-9 17-3h7l1 2v6l-43 10-25 6-2 1v8h9l9 12v2l5-1 5-5 7-5h8l7 4 7 8 7-1 5-2 2 2v5l-10 8-6-2-9-7-3-4h-7l-10 9-3 2h-6l-6-5-5-5-5-2-1 17 18 5 33 9 12 4 2 4-2 3h-7l-45-10-14-3-2 9-1 5 5 2 54 27 2 3-2 4-5 1-30-13-27-12h-3l-5 11 4 2 14 11 13 10 17 14 5 4 1 4-3 3-5-1-12-9-18-13-14-10-9-6-2 3 2 4 1 5-1 7v8l15 1 7 4 4 8 1 15 3 3 7 2 1 5-2 2h-8l-8-4-2-3-1-15-1-4-2-1-18-1-6-6-1-18-6 3-4 3 1 4 13 22 17 28 3 7-1 2h-5l-9-11-24-36-5-7-10 5 1 6 15 39 7 18-2 4h-5l-3-5-10-21-8-20-6-14-8 1-5 2 13 55 3 13v5l-1 1h-5l-4-9-8-26-9-32-1-5-11 1 2 5-1 7-9 7-2 5 5 5 6 7 1 2v9l-5 8-6 7 1 5 2 2v7l-3 1-6-5-3-4v-9l10-15-2-5-7-8-5-6 2-7 7-10 1-7-13-2-3 15-10 40-5 18-3 1-4-2 2-16 11-56 1-3-11-2-10 28-9 24-7 18h-5l-2-2 2-10 10-33 8-26 1-6-9-3-2 5-8 14-11 18-12 19-6 9-4-2-1-5 10-19 10-18 12-22 2-4-1-4-6-4-2 6-4 3-17 1 1 19-7 8-5 2-14 2-2 10-5 1-2-2v-10l2-6 8-4 13-2 1-11v-12l5-5 12-2 6-4-1-6-4-5v-2l-5 2-12 9-11 9-12 9-10 9-7 5-4-2 1-5 9-9 11-9 17-16 10-9 4-1-4-10v-2l-10 4-20 10-16 9-18 9-5-1v-6l14-9 24-14 25-15-3-7-9 2-35 10-26 7h-3l-1-7 8-4 53-18 10-3-1-6-9 2-5-5-6-7h-5l-7 9-5 4-7 1-8-4-6-5-4-1-5 3-5 2-1-1v-6l7-8 6-1 7 4 8 6 5-1 5-5 8-9 8 1 11 8 7-1v-17l-63-7-7-2 1-5 1-1h22l46 2 3 1 3-13-5-1-59-19-5-2-1-3 3-5 14 3 54 14 5-1 2-6-6-2-14-8-26-15-14-8-5-4 1-5h6l39 19 17 9 6 3h3l5-7-7-7 1-7v-12l-15 1-7-3-4-5-3-10v-9l-9-3-1-1v-6l4-1 10 2 5 5 2 16 2 4 22 1 3 5 2 15 2 3 4-1 9-7h2l-4-8-10-15-11-16-7-10-7-11 1-4h5l10 12 10 13 16 21 6 8 4-1 7-4-1-4-9-21-11-25-7-16 1-4 5-1 6 9 22 44 6 11v2l10-3-16-73 1-3 5-1 3 5 7 23 9 33 3 13 8-1-2-9 5-5 6-5 2-5v-2l-4-2-6-7-2-6 1-8 7-9 3-2v-6l-3-5zm-14 88-17 4-18 8-14 9-10 9-8 8-12 18-8 19-4 14-1 6v36l5 19 7 16 7 12 9 11 12 12 10 7 14 8 13 5 13 3 9 1h15l16-2 24-8 15-9 10-8 12-12 10-14 9-19 4-15 3-17v-20l-3-18-6-17-9-17-11-14-11-11-14-10-14-7-11-4-16-3z" fill="#F3F8F6"/>
<path transform="translate(360,43)" d="m0 0h45l54 3 31 3 34 6 34 9 56 18 21 9 40 18 16 8 16 10 12 8 13 9 15 10 8 6 1 2v11l-15 47-10 38-4 15-4 20-8 47-3 25-1 15v40l2 23 5 27 7 36 7 31 2 10 5 24 3 19 3 27 2 19v46l-4 26-6 18-11 24-10 15-11 13-13 13-14 11-13 10-19 14-23 15-19 12-17 11-26 16-16 9-24 13-18 8-10 6-16 8-24 13-19 12-13 10-4 3-5-1-14-7-18-11-11-6-23-12-16-7-26-11-63-27-29-13-17-9-18-11-19-12-11-9-13-11-9-9-8-10-9-11-7-9-12-19-12-25-10-28-7-25-3-15-2-27v-28l2-22 4-29 8-43 9-46 5-32 3-28v-30l-2-30-7-51-8-38-8-29-12-40-7-25v-7l3-5 10-9 23-15 23-13 17-9 45-19 21-8 36-12 26-8 36-8 29-5 34-4zm-1 10-34 4-26 4-29 6-27 7-44 13-20 7-25 11-30 13-23 12-32 18-17 12-1 5 8 26 13 43 11 41 5 27 6 43 1 13v49l-3 30-4 29-20 107-2 26-1 54 4 24 7 25 13 32 8 16 22 33 9 11 8 8 8 7 13 11 17 12 26 16 22 12 32 14 60 24 15 8 18 6 18 10 13 8 20 12 9 6 9-1 18-11 10-6 40-20 16-9 16-8 21-11 14-8 22-13 20-12 16-11 18-13 16-11 17-12 16-12 10-9 13-13 7-8 6-7 8-15 9-19 2-6 7-42v-18l-4-46-3-26-5-24-7-30-15-77-2-15-1-14v-44l4-33 9-58 6-27 10-37 12-36 6-17-4-5-33-22-20-13-23-12-30-14-36-14-46-15-34-9-28-5-26-3-50-4z" fill="#F7FAF9"/>
<path transform="translate(412)" d="m0 0h392v152l-19-19-9-7-23-14-24-14-27-13-28-13-23-12-8-4-10-3-15-6-55-20-26-7-48-10-43-5-31-3z" fill="#FBFCFC"/>
<path transform="translate(0)" d="m0 0h402v1l-8 1-23 1-53 5-18 3-60 15-26 8-30 11-29 12-26 12-40 20-59 35-22 13-8 4z" fill="#FBFCFC"/>
<path transform="translate(402,66)" d="m0 0 38 2 35 5 34 6 40 10 33 10 36 14 33 15 16 8 19 10 20 12 17 11 1 1-1 8-9 30-9 33-9 43-6 39-3 35-1 21v24l2 38 4 36 6 40 9 45v7l-29-3-36-6-29-6-35-9-37-11-27-10-26-11-20-10-18-11-14-10-13-12-8-8-11-16v-13l3-4 3 11 7 12 20 20 14 10 18 10 27 13 27 11 30 11 24 7 40 10 31 6 35 6 16 1 1-1v-8l-6-27-1-9-1-1-4-23-3-19-1-15-3-23-1-17-1-36v-19l3-42 3-26 8-40 9-29 11-37 2-5 1-7-5-2-13-7-11-7-23-12-16-8-20-9-13-6-41-15-29-9-30-8-29-6-43-6-28-3h-7l-1 2h-2v19l-3 1z" fill="#F5F9F8"/>
<path transform="translate(402)" d="m0 0h10l13 2 58 6 50 10 27 7 45 16 21 8 12 5 10 3 24 13 27 13 28 13 18 10 23 14 15 10 7 6 14 16v4h-2l-3 9-18 40-10 30-12 40-6 29-6 36-3 32-1 15v35l5 39 10 47 9 43 8 43 3 36 1 14v16l-5 51-4 17-7 19-7 16-12 17-9 12-8 10-5 6-8 7-6 6-2-1 6-8h2l2-4 5-5 3-5 2-1 2-5 3-1 1-3 5-5 2-4 4-1v-2h2l1-5 5-8 5-11 1-6 3-3 2-5 3-7 2-9 1-1 1-15 2-16 2-24 2-2 1-20-3-5-1-34-4-30-4-15-4-23-4-16-3-15-2-6-2-12-2-7v-8h-2l-2-12-1-12-1-1-2-18-3-16v-9l2-15 1-29 3-24 3-21 2-11 1-9 3-13 2-9 2-7 4-13 2-8 3-10 2-3 2-9 8-24 2-1 3-9 5-12 1-5-4-4 1-7 3 2v2l6-2 2-11-2-5-9-10-9-8-30-18-21-12-12-5v-2l-5-1-8-4-4-1v-2l-5-1-23-11-19-10-12-5-10-4-10-3-1-2-10-3-4-2-7-2-12-4-16-6-15-5-26-6-15-2-8-2v-2h-10l-2-1-68-8h-49l-60 6-27 6-31 8-6 2-18 4-8 3-9 3-20 7-9 4-6 2-26 11-12 5-30 15-17 8-5 3h-3v2l-10 5-5 4-11 6-30 18-19 11-6 3-3-1 3-3 25-15 29-17 15-9 17-10 34-17 23-11 26-11 37-14 22-7 54-14 23-5 37-4 24-2 23-1z" fill="#192726"/>
<path transform="translate(397,608)" d="m0 0h7l-1 29h26l5 1 1 3-1 2-6 1h-25v41l2-1h26l1 3-7 1-1 56h12l-1-3v-12l3-1 3 10 6 4 8 1 8-2 1-3v-7l-3-5-20-14-5-6-1-3v-7l4-8 6-4h12l10 2h4l1 17-4-2-6-10-3-2h-11l-3 3-1 6 7 8 14 9 6 5 4 6v8l-5 8-5 4-2 1h-15l-9-2-7 2-5 1h-16l-3-1v-2l7-1v-26l-27 1v24l7 2-1 3h-23l1-2 5-1v-57l-10-1-9 1v56l6 2-1 2h-21v-2l5-2v-55l-7-2v-2l11-1h46l1-40h-30l-1-7 4-1 1 1h24l1-16z" fill="#EEF6F3"/>
<path transform="translate(372,67)" d="m0 0h22v13l-5-2-2-4h-16l-26 3-25 4-28 5-26 6-31 9-18 6-32 13-9 3v2l-8 4-7 3-6 3-10 6-20 10-1 2-10 6-11 6-3 2h-3v2l-6 3-4 3-2 12 1 5v8l1 2 2 12 5 17 6 21 5 25 3 14 4 26 4 43v65l-5 50-3 17-2 11-3 9h-1l1-20 4-32 3-37v-60l-4-42-7-43-8-36-10-37-9-30 1-4 28-17 25-14 29-15 34-15 26-10 41-13 38-9 32-6 27-4z" fill="#F4F8F7"/>
<path transform="translate(390,398)" d="m0 0 2 2 2 8v34l-1 7-10 14-12 13-14 11-13 9-19 11-25 12-30 12-27 9-28 8-44 11-37 7-37 5h-8v-5h2l2-11 2 3 1 2 18-2 32-5 41-9 39-10 26-8 25-9 28-11 16-8 16-9 17-12 14-12 12-13 6-10 1-4 1-31 1-8z" fill="#F6FAF9"/>
<path transform="translate(795,150)" d="m0 0 5 2 2-2 2 2v4h-2l-3 9-18 40-10 30-12 40-6 29-6 36-3 32-1 15v35l5 39 10 47 9 43 8 43 3 36 1 14v16l-5 51-4 17-7 19-7 16-12 17-9 12-8 10-5 6-8 7-6 6-2-1 6-8h2l2-4 5-5 3-5 2-1 2-5 3-1 1-3 5-5 2-4 4-1v-2h2l1-5 5-8 5-11 1-6 3-3 2-5 3-7 2-9 1-1 1-15 2-16 2-24 2-2 1-20-3-5-1-34-4-30-4-15-4-23-4-16-3-15-2-6-2-12-2-7v-8h-2l-2-12-1-12-1-1-2-18-3-16v-9l2-15 1-29 3-24 3-21 2-11 1-9 3-13 2-9 2-7 4-13 2-8 3-10 2-3 2-9 8-24 2-1 3-9 5-12 1-5-4-4 1-7 3 2v2l6-2 2-11z" fill="#2B5953"/>
<path transform="translate(387,65)" d="m0 0h8l1 6v338l-1 34-2 4v-39l-3-9-1 10-1 29h-1v-84l1-170-1-74v-36l2 1v3l4 1 1-12-32 1v-1z" fill="#CBE8DE"/>
<path transform="translate(401,65)" d="m0 0 18 1 11 1v1h-13l-13-1-2-1 1 30h2l-1-9v-7l1-3h2l1-3 16 1v1h-15l-1 182v64l-1 26 1 58v26l-2-1-1 2-1 10-2-3-1-13-1-170v-172z" fill="#CBE9DF"/>
<path transform="translate(743,552)" d="m0 0 4 1 1 5h2l5 26 4 38v52l-4 35-4 15-8 22-3 6-1-2h-3v-2l-5 3-3 3-1-8 11-25 4-13 2-7 2-8 1-3v-3l1-32-2-35-5-40-2-11v-6l1-3-1-4z" fill="#BADCCC"/>
<path transform="translate(721,300)" d="m0 0 2 2-6 35-2 16-2 19-1 32 1 23 3 26 1 9 3 1 1 3 7 5 1-2v-7h1l7 34 8 36 4 22-1 4-1-5-4-1-2 4v4 3h-2l4 23 4 34 2 36-1 31 1 5-2-1-2 10-1 6h-1l1-13 2-12v-46l-2-19-3-27-4-24-4-19-5-23-9-43-5-27-2-11-2-23v-40l2-25 5-33z" fill="#C3DDD4"/>
<path transform="translate(445,684)" d="m0 0h12l10 2h4l1 17-4-2-6-10-3-2h-11l-3 3-1 6 7 8 14 9 6 5 4 6v8l-5 8-5 4-2 1h-15l-9-2-7 2-5 1h-16l-3-1v-2l7-1v-27h-5v-2h5l-1-26-7-3v-1h25v2l-7 1-1 56h12l-1-3v-12l3-1 3 10 6 4 8 1 8-2 1-3v-7l-3-5-20-14-5-6-1-3v-7l4-8z" fill="#EEF5F3"/>
<path transform="translate(705,205)" d="m0 0h2l-2 10-10 33-6 27-3 16-3 26-3 42v19l1 36 1 17 3 23 2 22v8l-2-4-2-13-2-23-1-6-2-49-2-20v-16l2-13v-10l-2 3v-2h-3l-4-4v-4h3v-2l-4 1v4h-2l2-11 11-42 10-38 1-11 2-7 5-1 5-6z" fill="#C3DED4"/>
<path transform="translate(399,64)" d="m0 0h1v352l-1 19-2 2-1-1-1-365 2-6z" fill="#2D5E57"/>
<path transform="translate(346,684)" d="m0 0h14l29 1v2h-2v53l2 4 6 1-1 3h-23l1-2 5-1v-57l-10-1-9 1v56l6 2-1 2h-21v-2l5-2v-55l-7-2v-2z" fill="#EFF6F4"/>
<path transform="translate(545,22)" d="m0 0 8 1 30 10 43 16 12 5 10 3 24 13 27 13 28 13 18 10 23 14 15 10 7 6 7 8 4 4v5l-5-2-6-7-5-5-10-9-30-18-21-12-12-5v-2l-5-1-8-4-4-1v-2l-5-1-23-11-19-10-12-5-10-4-10-3-1-2-10-3-4-2-7-2-12-4-16-6-15-5-8-2z" fill="#162221"/>
<path transform="translate(68,746)" d="m0 0h2l4 4 2 3 2 4 4 6v2l4 2 2 4 2 1 3 6 5 5 2 4h2l4 7 6 7v2l3 1 1 4h2l6 9 11 13 6 7v2h2v2l4 1v3h4l1 2h2l5 6 5 5 1 5-4-1-10-8-10-9-19-19-7-8-9-10-9-12-10-13-11-17-8-16z" fill="#CBE8DE"/>
<path transform="translate(775,603)" d="m0 0h1l3 41v16l-5 51-4 17-7 19-7 16-12 17-9 12-8 10-5 6-8 7-6 6-2-1 6-8h2l2-4 5-5 3-5 2-1 2-5 3-1 1-3 5-5 2-4 4-1v-2h2l1-5 5-8 5-11 1-6 3-3 2-5 3-7 2-9 1-1 1-15 2-16 2-24 2-2 1-20-3-5v-32z" fill="#294441"/>
<path transform="translate(402)" d="m0 0h10l13 2 58 6 50 10 12 3 1 3h-9l-12-3-15-2-8-2v-2h-10l-2-1-68-8h-49l-22 2h-8v-1h-16v-1l44-4 23-1z" fill="#1A2A29"/>
<path transform="translate(486,293)" d="m0 0 8 1 8 6 5 6 1 2v10l-6 8-10 6-4 2h-3l-1-5v-15z" fill="#2D5C56"/>
<path transform="translate(397,79)" d="m0 0h1l1 20 1 147v72l-1 59-1 27h-1z" fill="#233333"/>
<path transform="translate(600,229)" d="m0 0h6l1 1 2 13 3 7 3-4 8-13 4-3 4 1-2 17-2 18-2 3-5-1 2-22-5 5-7 11h-3l-5-20-6 18-4 7h-4l3-9 6-15 2-13z" fill="#2A4946"/>
<path transform="translate(363,685)" d="m0 0h26v2h-2v53l2 4 6 1-1 3h-23l1-2 5-1v-57l-15-1z" fill="#F1F7F5"/>
<path transform="translate(529,363)" d="m0 0 2 1-1 4-1 3 2 2-3 5-5 4-88 24-12 1 1-5 1-2h2l2 3 14-3 62-17 20-6h2v-4l-38 11-25 7-22 6-12 2v-2l47-14 44-12h6l1-5z" fill="#223937"/>
<path transform="translate(159,325)" d="m0 0 4 1 2 7 8 16 5 9v2h2l-1-5-1-25 1-1h18l3 3-2 1-6-1-10 1v11h13l1 3-2 1h-9l-3-1v18l-3 2-4-4-8-15-1-3-2-1h-10l-4 9-1 6h-4l1-7 8-18 3-7z" fill="#1C2E2C"/>
<path transform="translate(744,447)" d="m0 0h2l4 24 14 65 11 58v23h-1l-1-10-2-9-3-23-4-15-4-23-4-16-3-15-2-6-2-12-2-7v-8h-2l-1-13z" fill="#1A2A29"/>
<path transform="translate(751,301)" d="m0 0h1v8l-5 31-3 32-1 15v35l2 16v27l-2-4-1-12-1-1-2-18-3-16v-9l2-15 1-2 2-36 2-6 1-13 2-10 1-6z" fill="#2D5C56"/>
<path transform="translate(338,6)" d="m0 0h6l-3 3-34 4-34 8-18 5-6 2-18 4-8 3-24 8-4-1 2-3 23-8 24-7 56-14 18-3z" fill="#1A2A29"/>
<path transform="translate(151,391)" d="m0 0h12l4 2 1 8-5 5-3 1 3 5 8 6 5 2h7l8-1-4 4-11 1-8-3-6-4-8-8-2-1 1 11-5 2-1-4 1-3v-21z" fill="#1A2B29"/>
<path transform="translate(601,290)" d="m0 0h5l-2 4-9 3-8 4-4 6v7l3 6 3 3 7 1v-7l-2-4-3-1 1-3 6-1h10l-1 4-5 1-1 12-5 4-10-1-6-5-4-8v-8l4-7 8-6z" fill="#294340"/>
<path transform="translate(523,373)" d="m0 0h4v4l-11 4-55 15-25 7-8 1v-4l8-3 17-4 28-8z" fill="#F2F7F5"/>
<path transform="translate(135,853)" d="m0 0 4 1 8 7v2h2v2l8 4 2 3 7 4 3 3 12 6 8 5 9 5 15 7 19 9 6 3 10 4 4 3 6 2v2l5 1 15 7 5 1 2 3-7-1-29-13-33-15-24-12-22-13-18-14-10-8-7-6z" fill="#2C5651"/>
<path transform="translate(157,183)" d="m0 0h13l1 4-16 1v16h10l-1 3-10 1v14l16 1 4 1-5 5-1 3v10l8 7 2 1-1 2-9-6-4-4 1-13-15-1-2-1 2-15v-13l-1-11-2-3 1-1z" fill="#305D57"/>
<path transform="translate(519,233)" d="m0 0h2l2 21 4 19-1 1h-5l-4-10-2-19-7 11-6 10-4 5-8 1 2-4 8-9 7-11 6-8z" fill="#305F58"/>
<path transform="translate(690,224)" d="m0 0h1l-1 11-26 100-8 32-1 3h-2l1-8 11-47 18-68z" fill="#2A4945"/>
<path transform="translate(473,223)" d="m0 0 1 3-15 47-19 53-12 30-3 7h-1l1-9 13-34 10-27 22-66z" fill="#213835"/>
<path transform="translate(204,203)" d="m0 0h7l4 3v2h2v-5l2 1 4-1-3 7 1 7 2 3v3l-7 1-2 1h-8l-5-3-2-4v-8l3-6z" fill="#BBDDCD"/>
<path transform="translate(705,205)" d="m0 0h2l-2 10-10 33-2 8-5 1-2-2v-9l4-16v-7l2-6 5-1 5-6z" fill="#C0DBD1"/>
<path transform="translate(227,391)" d="m0 0 13 1 3 4 1 5-4 6-6 1 3 5 4 4v3l-5-1-6-10-2-1v12l-5-1v-27z" fill="#1B2C2A"/>
<path transform="translate(775,603)" d="m0 0h1l3 41v16l-5 51h-2l-3 4v-9l2-16 2-24 2-2 1-20-3-5v-32z" fill="#2B5751"/>
<path transform="translate(173,124)" d="m0 0 3 1-8 4-7 3-6 3-10 6-20 10-1 2-10 6-11 6-3 2h-3v2l-6 3-4 3-2 12 1 5v8l1 2v6l-2-3-7-22v-6l8-6 16-9 19-12 23-12 9-6z" fill="#CDEBE1"/>
<path transform="translate(376,10)" d="m0 0h7l5 1v2l-32 3-4 1-25 2-22 3-30 6-9 3-15 3-10 3h-7l1-2 36-9 14-4 16-3 50-6 20-1z" fill="#2B5A54"/>
<path transform="translate(726,748)" d="m0 0 2 3 1 2 4-5h3v2h3v5l-8 12-8 11-13 16-7 6-2-1 4-7h2l1-5 3-4h3l1-3h4l-1-5 3-5v-5l5-4 1-4-2-2-3 1 2-5z" fill="#C1DCD1"/>
<path transform="translate(452,356)" d="m0 0h53l13 1 4 2v1h-63l-13 1-2 5-7 11-6 7-3-1 9-14 6-8-5 2-2 1h-7l3-4z" fill="#1A2B29"/>
<path transform="translate(287,195)" d="m0 0 4 2 13 28 5 9v2l-4-1-6-9-5-10-1-1h-11l-3 6-2 7h-5l1-5 6-12z" fill="#1C2F2C"/>
<path transform="translate(179,261)" d="m0 0 4 1 4 10 15 30-5-1-5-8-7-13h-10l-5 10v5l-7 1 2-5 7-15 6-14z" fill="#1C2E2C"/>
<path transform="translate(676,206)" d="m0 0 1 4-8 34-22 82-6 20-2 1 2-12 13-49 14-52 6-24z" fill="#25423E"/>
<path transform="translate(195,40)" d="m0 0 2 1v3l-12 5-6 2-26 11-12 5-38 19-2-1 3-2-1-2 22-11 23-11 26-11z" fill="#1A2B29"/>
<path transform="translate(566,220)" d="m0 0h1l-1 8-11 44-13 49-9 27-3 5-1-3 9-29 14-53 7-26z" fill="#203734"/>
<path transform="translate(795,150)" d="m0 0 5 2 2-2 2 2v4h-2l-1 4h-2l-2 6-7 14-5 12-8 19-2 1v4h-2l-1 3h-1l1-7 4-12 2-1 3-9 5-12 1-5-4-4 1-7 3 2v2l6-2 2-11z" fill="#2A5852"/>
<path transform="translate(670,196)" d="m0 0h6v2l-7 2-18 2h-51l-13 3-13 7-3 1-2 4-1-3 5-6 16-8 20-3 23 1h21z" fill="#33665E"/>
<path transform="translate(266,268)" d="m0 0h8l5 4 1 2v8l-5 6-2 1h-6l-5-5-2-3v-7l4-5z" fill="#BADDCC"/>
<path transform="translate(210,331)" d="m0 0 8 1 4 5 1 6-3 7-5 3-7-1-4-5-1-7 3-7z" fill="#BADDCC"/>
<path transform="translate(229,202)" d="m0 0h7l5 4 2 3-1 7-5 6-2 1h-6l-5-6-1-2v-7l4-5z" fill="#BADDCC"/>
<path transform="translate(289,331)" d="m0 0h6l5 5 1 2v8l-5 6-4 1-5-2-5-6v-7l4-6z" fill="#BADDCC"/>
<path transform="translate(555,376)" d="m0 0h19l56 2 17 1 5 1v2h-33l-57-2-8-1-1-2z" fill="#34675F"/>
<path transform="translate(516,211)" d="m0 0h22l19 2 7 3v2l-8-1h-57l-15 2-6 1 3-3 9-3 11-2z" fill="#172423"/>
<path transform="translate(403,687)" d="m0 0h9l3 2v25h-11l-1-5z" fill="#3D756B"/>
<path transform="translate(181,394)" d="m0 0 9 1 3 6-1 9-5 5h-6l-5-4-2-4 1-8 4-4z" fill="#BADDCC"/>
<path transform="translate(199,265)" d="m0 0 4 2 9 10 7 8h1v-20l4 2v29l-4-2-6-8-11-11v18l-2 1-2-7v-14l-1-7z" fill="#1D322F"/>
<path transform="translate(629,349)" d="m0 0 4 1-7 3-14 2h-14l-32-1-17 1-11 2h-3l4-2v-2l10-2 17-1h57z" fill="#2F5651"/>
<path transform="translate(253,328)" d="m0 0 3 1 2 15v14l-4-1-11-11-6-7-1 1v17l-4-2-1-23-1-3 5 1 16 17 3 2z" fill="#1B2D2B"/>
<path transform="translate(397,755)" d="m0 0 14 1v3l-2 2-2 18-1 19-1 6-3-1-2-33-2-10-2-4z" fill="#F0F6F4"/>
<path transform="translate(512,381)" d="m0 0h6l-2 3-81 22-12 1 1-5 1-2h2l2 3 14-3 62-17z" fill="#243E3B"/>
<path transform="translate(399,318)" d="m0 0h1v98l-1 19-2 2-1-1v-97h1l1 38z" fill="#2B5A54"/>
<path transform="translate(421,757)" d="m0 0 7 1 7 4-1 5-5-1-1 5-13 30-5 5 2-9 10-30z" fill="#ECF4F1"/>
<path transform="translate(196,88)" d="m0 0h5l-2 2-10 4h-5v2l-15 6-16 7-15 7-12 5-12 6-17 8-1-2 22-12 19-9 26-11 24-10z" fill="#2C5651"/>
<path transform="translate(382,757)" d="m0 0 5 1-1 7 8 26 3 11-1 3-4-7-8-18-5-11v-1l-7-2 1-4z" fill="#EAF3F0"/>
<path transform="translate(394,973)" d="m0 0 5 1 8 8h5l4-3 10-4 4-1-2 4-15 15-6-1-6-5-3-5-5-4z" fill="#CAE8DE"/>
<path transform="translate(102,499)" d="m0 0h1v10l3-9h1l-1 10-5 26-2 15-2 7v2l3 1-5-1-1-2-3 8-1-4 8-40z" fill="#CBE8DD"/>
<path transform="translate(540,366)" d="m0 0h58l30 1 15 1 2 2-1 1-72-2h-32z" fill="#346860"/>
<path transform="translate(204,394)" d="m0 0h7l4 3 1 4v9l-2 5-4 3-5-1-2-5v-16z" fill="#CCE8DE"/>
<path transform="translate(799,160)" d="m0 0 1 3-16 35-9 24-12 39h-3l3-11 2-1-1-6 3-9v-7l3-8 3-3h2l-1-4 3-1 1-5 7-16 8-18z" fill="#284340"/>
<path transform="translate(199,391)" d="m0 0 17 1 3 5 1 4v10l-4 7-3 2h-13l-1-5v-18l-1-5zm5 3-1 2v16l2 5 5 1 5-4 1-4v-9l-2-5-3-2z" fill="#1E3330"/>
<path transform="translate(600,229)" d="m0 0h6v15l2 3 1 9 2-1 2-3 1 3-4 7h-3l-5-20-6 18-4 7h-4l3-9 6-15 2-13z" fill="#2B524D"/>
<path transform="translate(751,301)" d="m0 0h1v8l-5 31-3 32-1 15-2 4-1-3v-24l1-12 2-6 1-13 2-10 1-6z" fill="#273D3C"/>
<path transform="translate(721,300)" d="m0 0 2 2-6 35-2 16-2 19-1 32 1 23 3 26 1 12-2-4-3-18-2-23v-40l2-25 5-33z" fill="#CDEBE1"/>
<path transform="translate(389,687)" d="m0 0h8l1 5-1 21-2 1h-7v-26z" fill="#3D756B"/>
<path transform="translate(491,299)" d="m0 0 7 4 4 5 1 7-7 9-4 3-3-1z" fill="#F0F7F5"/>
<path transform="translate(338,6)" d="m0 0h6l-3 3-34 4-34 8h-2v-4l34-8 13-2z" fill="#192726"/>
<path transform="translate(289,328)" d="m0 0h6l6 4 3 4 1 8-3 6-6 5h-9l-7-6-2-6 1-6 4-6zm0 3-5 3-2 4v7l6 7 5 1 5-3 3-4v-8l-4-6-2-1z" fill="#2D4E4A"/>
<path transform="translate(522,360)" d="m0 0h2l-1 3-29 8-56 14h-5l3-3 27-7 45-11 12-3z" fill="#213735"/>
<path transform="translate(266,265)" d="m0 0h8l6 4 3 4 1 9-6 7-6 3-7-1-6-5-3-6v-6l6-7zm0 3-5 4-1 2v7l5 7 2 1h6l6-5 1-2v-8l-6-6z" fill="#223B38"/>
<path transform="translate(402)" d="m0 0 1 2 10 2v1l-40 1-22 2h-8v-1h-16v-1l44-4 23-1z" fill="#243D3A"/>
<path transform="translate(192,331)" d="m0 0 8 3v12l-4 1-1-2-13-1-1-12z" fill="#B9DCCB"/>
<path transform="translate(400,85)" d="m0 0h1l1 99 1 4v17l-1 13-1 39h-1z" fill="#C1DAD1"/>
<path transform="translate(176,392)" d="m0 0h15l4 5v15l-5 6-5-1h-6l-7-6-2-5 2-9zm5 2-5 3-2 5 1 7 6 6h6l5-5 1-9-3-6z" fill="#243D3A"/>
<path transform="translate(271,391)" d="m0 0 7 1 1 4-10-1-4 1-2 6-1 2v7l3 5 3 3h7l4-5 1-7h3v8l-5 7-2 1h-8l-7-4-3-7v-9l4-8 4-3z" fill="#213936"/>
<path transform="translate(309,389)" d="m0 0h2v25l-3 5-2 1h-7l-4-2-3-5-1-20h4l1 1 1 18 2 3h9v-25z" fill="#1E3330"/>
<path transform="translate(209,328)" d="m0 0 8 1 6 3 2 5v9l-3 6-7 4-7-1-7-6-1-2v-11l5-5zm1 3-5 3-2 6 1 7 4 5 7 1 5-3 3-7-2-8-3-3z" fill="#1F3633"/>
<path transform="translate(231,199)" d="m0 0 7 1 6 4 2 5-1 8-5 6-10 2-5-2-5-6-1-7 4-8 3-2zm-2 3-5 4-1 2v7l4 6 2 2h6l6-5 2-4v-5l-5-6-2-1z" fill="#213A37"/>
<path transform="translate(346,391)" d="m0 0h14l2 3-11 18-3 5 17-2-1 3-6 2h-15v-4l8-11 4-7 1-4h-13v-2z" fill="#233E3A"/>
<path transform="translate(154,260)" d="m0 0h6l-1 4-8 1-3 4v6l7 8 6 6 1 9-3 7-5 4-4 2h-4v-2l8-3 4-5v-8l-10-10-4-8 1-7 4-5z" fill="#1C302D"/>
<path transform="translate(749,767)" d="m0 0 2 3-12 17-11 14-6 7-8 7-6 6-2-1 6-8h2l2-4 5-5 3-5 2-1 2-5 3-1 1-3 5-5 2-4 4-1v-2h2l1-5z" fill="#2C5B55"/>
<path transform="translate(269,318)" d="m0 0h5l1 3h-5l-6 4-1 5 4 7 8 8 2 4v7l-3 6-7 6-4 1v-2l7-4 4-8-1-4-7-8-5-6-2-10 6-7z" fill="#1F3533"/>
<path transform="translate(186,188)" d="m0 0h5l1 4h-7l-5 7 1 5 9 8 4 7 2 1-3 10-6 7-5 2-3-1 9-5 3-7v-5l-6-7-6-5-2-5v-6l7-9z" fill="#192927"/>
<path transform="translate(319,391)" d="m0 0 14 1-2 4-9-1-1 7v3l4-3 4 1v3l-8 2-1 8h15l-1 3-5 1h-13l1-21v-7z" fill="#1D302E"/>
<path transform="translate(179,329)" d="m0 0h18l3 3-2 1-6-1-10 1v11h13l1 3-2 1h-9l-3-1v12l-1 2-2-1-1-30z" fill="#2E534E"/>
<path transform="translate(184,880)" d="m0 0 5 1 16 9 26 13 5 2 1 4-13-5-16-8-21-11-3-3z" fill="#2F6059"/>
<path transform="translate(489,294)" d="m0 0 7 1 10 9 2 4v10l-6 8-4 3-3-1 3-4h2v-2l4-4-1-1-2-9-5-5-7-8z" fill="#28403F"/>
<path transform="translate(766,233)" d="m0 0 2 2v2h-2v6l-1 3-2 9-2 6 1 4-4 14-3 1-3 4-1-4 3-9 5-17 2-8 3-10z" fill="#2B534E"/>
<path transform="translate(242,393)" d="m0 0 4 1 2 1v16l-1 5-5 2-8-7v-3l7-3 2-6z" fill="#B9DDCB"/>
<path transform="translate(166,403)" d="m0 0h3l5 9 6 5 6 1v2l-3 1h-7l-10-5-6-6v-3z" fill="#C7E1D8"/>
<path transform="translate(687,484)" d="m0 0 2 4 4 23 1 1 2 12 5 24v8l-2 2h-7l2-2h5l-2-12-2-3-2-13-2-7-2-19-2-8z" fill="#CDEBE1"/>
<path transform="translate(512,241)" d="m0 0 3 1-3 8-9 14-4 6-4 2h-5l2-4 8-9 7-11z" fill="#253D3B"/>
<path transform="translate(178,267)" d="m0 0 3 1 3 7v4l-9 1-5 10v5l-7 1 2-5 7-15 3-7z" fill="#25403D"/>
<path transform="translate(387,687)" d="m0 0 2 1-1 26 9-1v-23h2v12l-1 14 11 1v-2h-6v-6h1v5h11v1h-5v2h5v1l-27 1-1 21h-1v-22z" fill="#C4E1D6"/>
<path transform="translate(204,200)" d="m0 0h10l2 1v6l-5-3h-7l-3 3-1 3v8l3 5 3 1h8l4-1-3 4-10 1-5-3-4-5v-10l4-8z" fill="#25413E"/>
<path transform="translate(170,223)" d="m0 0 4 1-5 5-1 3v10l8 7 2 1-1 2-9-6-4-4 1-13-15-1-2-1v-2l2-1z" fill="#192927"/>
<path transform="translate(447,357)" d="m0 0 4 1 8 1v1l-13 1-2 5-7 11-6 7-3-1 9-14 6-8-5 2-2 1h-7l3-4z" fill="#2A4B47"/>
<path transform="translate(229,264)" d="m0 0h24l3 1v4l-11-1-2-1v16l-3 5-3-1 2-6 1-14-11 2-1-4z" fill="#233B38"/>
<path transform="translate(775,603)" d="m0 0h1l3 41v16h-1l-1-14-3-6-1-1v-32z" fill="#30625B"/>
<path transform="translate(667,314)" d="m0 0h1l-1 9-11 44-1 3h-2l1-8 11-47z" fill="#2E534E"/>
<path transform="translate(101,82)" d="m0 0 4 1-4 4-12 6h-3v2l-10 5-5 4-9 4 2-5 20-12z" fill="#1D302E"/>
<path transform="translate(566,350)" d="m0 0h17l10 2v1l-44 2-11 2h-3l4-2v-2l10-2z" fill="#2B4946"/>
<path transform="translate(477,383)" d="m0 0h6v2l-16 5-25 7-12 2v-2z" fill="#1C2E2B"/>
<path transform="translate(287,203)" d="m0 0 4 4 4 7-1 2-1-1h-11l-3 6-2 7h-5l1-5 6-12 1 2h2l2-7z" fill="#24413D"/>
<path transform="translate(566,220)" d="m0 0h1l-1 8-11 44-2 6h-2l1-10 7-26z" fill="#1C302E"/>
<path transform="translate(625,244)" d="m0 0 3 1v14l-2 9-5 1-1-1 1-11 2-12z" fill="#30625A"/>
<path transform="translate(744,447)" d="m0 0h2l4 24 3 14v5h-2l-1 2-3-11v-8h-2l-1-13z" fill="#1B2C2A"/>
<path transform="translate(235,913)" d="m0 0 13 5 4 3 6 2v2l5 1 15 7 5 1 2 3-7-1-29-13-16-7 2-1z" fill="#2E5D57"/>
<path transform="translate(600,198)" d="m0 0h14l-4 2-9 1-7 2-11 4-10 6h-2l-2 4-1-3 5-6 16-8z" fill="#24413D"/>
<path transform="translate(611,378)" d="m0 0h19l17 1 5 1v2h-33l-23-1v-1l15-1z" fill="#3D756B"/>
<path transform="translate(197,895)" d="m0 0 7 3 15 7 16 8v2l-6-1-33-16z" fill="#2C5852"/>
<path transform="translate(84,349)" d="m0 0h1l2 30v30l-2 19h-1v-17l1-5v-17l-1-7z" fill="#CDEBE1"/>
<path transform="translate(153,394)" d="m0 0h8l3 1 1 7-5 3-8-1v-9z" fill="#BCDECE"/>
<path transform="translate(199,391)" d="m0 0h6l-1 5v16l1 4 3 3-8 1-1-5v-18l-1-5z" fill="#182524"/>
<path transform="translate(253,195)" d="m0 0 2 1 1 21h14v2l-7 2h-11l-1-4 1-21z" fill="#305C56"/>
<path transform="translate(439,319)" d="m0 0h2l-1 7-12 30-3 7h-1l1-9 13-34z" fill="#233C39"/>
<path transform="translate(182,80)" d="m0 0h2v2l-21 8-33 14-3 1v-3l11-5 30-12z" fill="#C1DCD2"/>
<path transform="translate(287,937)" d="m0 0 10 2v2l7 1 14 5v2l3-1 17 6v1l-9-1-36-12-6-3z" fill="#2C5852"/>
<path transform="translate(58,750)" d="m0 0 2 3 1 4h2l6 12 5 9 5 8 2 6-5-5-10-15-8-17z" fill="#2E5E58"/>
<path transform="translate(696,829)" d="m0 0h2l-2 4-13 12-17 13-4 3-3-1 8-6 5-6 7-5 3-1 5-5z" fill="#2E5F58"/>
<path transform="translate(196,392)" d="m0 0 3 1 1 4v18l-2 3-4-4v-20z" fill="#CAE5DC"/>
<path transform="translate(650,301)" d="m0 0 3 1-4 17-7 24-2 4-1-3 10-40z" fill="#243F3B"/>
<path transform="translate(248,391)" d="m0 0 4 1 1 25-5 1-1-23-1-3z" fill="#1B2D2B"/>
<path transform="translate(690,224)" d="m0 0h1l-1 11-9 34-3-1 4-17 7-25z" fill="#366B62"/>
<path transform="translate(356,15)" d="m0 0m-3 0 3 1v2l-39 4-22 4-4-1 6-3 24-3 18-2 13-1z" fill="#3E766C"/>
<path transform="translate(488,935)" d="m0 0 2 1-4 4-23 13-11 7-3-1 5-4 5-2v-2l17-9 10-6z" fill="#C7E5DA"/>
<path transform="translate(563,912)" d="m0 0h2v2l-23 12-16 7-3-1 9-5h2v-2l9-4 19-8z" fill="#2E5F58"/>
<path transform="translate(402,643)" d="m0 0h12v1h-11v41l2-1h26v1l-21 1v1h-7v19h-1z" fill="#C2DED3"/>
<path transform="translate(229,394)" d="m0 0 8 1 3 2v6l-6 2-6-1v-9z" fill="#D2EBE2"/>
<path transform="translate(46,284)" d="m0 0 1 3h2l1 6 3 5-1 4 3-1v21l-2 3-2-7v-12l-5-15z" fill="#2D5D56"/>
<path transform="translate(196,88)" d="m0 0h5l-2 2-10 4h-5v2l-15 6-9 4-4-1 3-2 20-9z" fill="#2E5E57"/>
<path transform="translate(747,313)" d="m0 0 1 4-1 6-2 10-1 13-2 6-2 36h-1v-27l3-24 3-21z" fill="#2B5A54"/>
<path transform="translate(662,260)" d="m0 0h1l-1 10-8 30-3 3 1-10 8-29z" fill="#243E3B"/>
<path transform="translate(444,978)" d="m0 0h2l-1 3-14 11-7 8-2 4h-6l4-1 1-8h2v-2l10-7 3-3z" fill="#2C5B55"/>
<path transform="translate(124,103)" d="m0 0m-2 1h2l-1 3-21 10-17 10-7 4-3-1 15-9 17-10z" fill="#C1DCD2"/>
<path transform="translate(799,160)" d="m0 0 1 3-16 35-7 18-3-2 1-3h2l1-5 7-16 8-18z" fill="#294441"/>
<path transform="translate(129,68)" d="m0 0 5 1-1 2-30 15-2-1 3-2-1-2 22-11z" fill="#1F3331"/>
<path transform="translate(402)" d="m0 0 1 2 10 2v1h-30v-1h-23v-1l11-1 23-1z" fill="#2B4D49"/>
<path transform="translate(757,661)" d="m0 0 2 1v12l-3 29h-1l-1-8-2-1v-2l2-1 2-18h-2v-7z" fill="#C0DAD0"/>
<path transform="translate(522,360)" d="m0 0h2l-1 3-29 8-12 3-3-1v-2l29-7 12-3z" fill="#2C504B"/>
<path transform="translate(598,242)" d="m0 0h2v7l-6 15-2 3h-4l3-9 6-15z" fill="#1A2A28"/>
<path transform="translate(62,104)" d="m0 0 2 1-2 4-22 13-5 1 2-4z" fill="#172423"/>
<path transform="translate(289,328)" d="m0 0h6l6 4 3 4 1 8-3 6-3 1 1-5v-8l-3-5-10-2v-2z" fill="#223C39"/>
<path transform="translate(715,780)" d="m0 0h4l-1 4-8 10-7 6-2-1 4-7h2l1-5 3-4h3z" fill="#CBE8DE"/>
<path transform="translate(595,308)" d="m0 0h13l-1 4-5 1-1 12-2 1v-11h-2l-1 2-2-4-3-1 1-3z" fill="#2D534E"/>
<path transform="translate(6,152)" d="m0 0h2v4l2 1 4 14 1 4h2v5l-3 1-9-23v-5z" fill="#2D5D56"/>
<path transform="translate(151,391)" d="m0 0h12l4 2 1 8-5 5-3 1-1 3-5-6h6l4-2v-7h-12z" fill="#2B4B46"/>
<path transform="translate(38,255)" d="m0 0h3v2l4 4 2 11-2 2v6l-2-1-5-20z" fill="#2F5F59"/>
<path transform="translate(57,727)" d="m0 0 3 1 11 26v7l-2-2-7-15-5-14z" fill="#30615A"/>
<path transform="translate(90,732)" d="m0 0 5 5 6 10 4 9v3h2l-1 2-5-5-8-13-3-7z" fill="#2F6059"/>
<path transform="translate(512,381)" d="m0 0h6l-2 3-26 7h-7v-2z" fill="#233C39"/>
<path transform="translate(220,395)" d="m0 0 4 1v14l-2 7-6 2 2-5 1-3v-15z" fill="#CFEAE1"/>
<path transform="translate(679,344)" d="m0 0h1v15l-1 30h-1l-2-20v-16z" fill="#C4DFD5"/>
<path transform="translate(155,335)" d="m0 0h1v5l7 1v1h-9l-2 6-2 5-1 6h-4l1-7 7-16z" fill="#1A2B29"/>
<path transform="translate(683,269)" d="m0 0 3 3-3 9-1-2h-2l1 5-1 7-4-2 1-8 3-9z" fill="#BEDACF"/>
<path transform="translate(267,18)" d="m0 0h5l-2 4-15 4-6 2-4-1h3v-4z" fill="#1B2C2A"/>
<path transform="translate(501,944)" d="m0 0 2 1-9 6-27 15-8 5-3-1 20-12 6-3h2v-2l14-7z" fill="#30615A"/>
<path transform="translate(555,376)" d="m0 0h19l21 2v1h-41l-1-2z" fill="#2B4B47"/>
<path transform="translate(772,708)" d="m0 0h1v9l-5 17-2 5-2-2v-5l2-6 2-5 2-8z" fill="#294B47"/>
<path transform="translate(770,581)" d="m0 0h2l3 13v23h-1l-1-10-2-9z" fill="#151F1E"/>
<path transform="translate(252,401)" d="m0 0 2 2 1 5 3 1 3 10-7 2-2-7z" fill="#CEEAE1"/>
<path transform="translate(271,391)" d="m0 0 7 1 1 4-10-1-4 1-2 6-2 9-3 1v-9l4-8 4-3z" fill="#263F3C"/>
<path transform="translate(604,367)" d="m0 0h24l15 1 2 2-1 1-37-1z" fill="#3C746A"/>
<path transform="translate(178,331)" d="m0 0h1l1 29h-2l-7-13 1-3v2h4l1-1v-8z" fill="#C6E0D7"/>
<path transform="translate(153,57)" d="m0 0 3 1-1 3-7 3-11 5-7 1 4-4z" fill="#1C2F2D"/>
<path transform="translate(84,796)" d="m0 0h3l1 3 5 5 9 12 5 6-1 3-10-11-12-16z" fill="#2D5C55"/>
<path transform="translate(540,366)" d="m0 0h37l-1 2-36 1z" fill="#2C5C56"/>
<path transform="translate(266,265)" d="m0 0h8l6 4 3 4 1 9-3 3-1-2-1-9-5-5-8-2z" fill="#1F3432"/>
<path transform="translate(50,484)" d="m0 0 1 3v19h-2l-2 8h-1v-9l2-17z" fill="#2E5F58"/>
<path transform="translate(26,213)" d="m0 0 2 3 5 11v8h2l1 8 2 10-2-1-10-34z" fill="#2F6059"/>
<path transform="translate(179,329)" d="m0 0h18l3 3-2 1-6-1-10 1v10h-1l-1-5h-1l-1-8z" fill="#345F59"/>
<path transform="translate(219,265)" d="m0 0h1l1 21-4-2-9-10h3l3 2 1-3 2-1z" fill="#C1DBD1"/>
<path transform="translate(238,201)" d="m0 0 5 2 3 6-1 8-5 6-4-1 5-6 1-7-4-5-2-2z" fill="#203633"/>
<path transform="translate(486,293)" d="m0 0h5v3l3 4h-2l-1 10h-1v-6l-2 1v4h-2l-1 2v-9z" fill="#477C72"/>
<path transform="translate(345,414)" d="m0 0h2v3l18-2-1 3-6 2h-15v-4z" fill="#233F3B"/>
<path transform="translate(553,213)" d="m0 0 7 1 4 2v2l-8-1-53-1v-1l50-1z" fill="#29504C"/>
<path transform="translate(775,603)" d="m0 0h1l1 12v18l-1-3h-2l-1-4v-19z" fill="#283F3D"/>
<path transform="translate(253,328)" d="m0 0 3 1 2 15-1 11-1-3-2-1z" fill="#1F3431"/>
<path transform="translate(676,299)" d="m0 0 2 4-2 4-2 1v3 7l-5 2-1-5 3-9 2-3h2z" fill="#BDDBCE"/>
<path transform="translate(244,24)" d="m0 0h5l-1 3-12 4-10 1v-3z" fill="#182625"/>
<path transform="translate(361)" d="m0 0h41v1l-8 1-30 1z" fill="#B4D0C7"/>
<path transform="translate(172,412)" d="m0 0 4 2 4 3 6 1v2l-3 1h-7l-8-4-1-2 4 1z" fill="#D4EBE3"/>
<path transform="translate(630,231)" d="m0 0 1 4-2 13-1-3h-5l-1 3-1-4 5-10h4z" fill="#3C746A"/>
<path transform="translate(80,93)" d="m0 0 3 1-5 5-9 6-7 3 2-5z" fill="#1A2927"/>
<path transform="translate(758,261)" d="m0 0 2 1-2 9v8l-3 1-3 4-1-4 6-18z" fill="#2B5A54"/>
<path transform="translate(157,183)" d="m0 0h13l1 4-20 1v-4z" fill="#284340"/>
<path transform="translate(54,448)" d="m0 0h1v19l-3 11h-1v-15l1-9z" fill="#2D5D56"/>
<path transform="translate(405,779)" d="m0 0h1v19l-1 6-3-1v-19l2 2z" fill="#BFDDD0"/>
<path transform="translate(447,357)" d="m0 0 4 1 8 1v1l-18 1-5 3h-7l3-4z" fill="#274641"/>
<path transform="translate(425,400)" d="m0 0h2l2 3 13-2 4 2-11 3-12 1 1-5z" fill="#2C4F4A"/>
<path transform="translate(537,324)" d="m0 0 1 2h2l-3 11-6 15-2 1 2-9z" fill="#203734"/>
<path transform="translate(488,304)" d="m0 0h2v10l-1 3h-2l1 8-3 2v-16l1-2h2l-1-4z" fill="#253535"/>
<path transform="translate(566,220)" d="m0 0h1l-1 8-6 25h-3l1-7z" fill="#284945"/>
<path transform="translate(638,871)" d="m0 0 3 1-2 4-17 9-3-1 6-5 5-2 6-4z" fill="#2F5F59"/>
<path transform="translate(751,709)" d="m0 0 1 2h2l-2 10-2 6-4-4 2-9z" fill="#C0DAD0"/>
<path transform="translate(441,360)" d="m0 0 3 1-6 8-7 11h-2v-3h2v-3h2l1-9z" fill="#ECF5F2"/>
<path transform="translate(600,229)" d="m0 0h6l-2 1v16l-2-4-2 4v-4h-2l1-12z" fill="#386B63"/>
<path transform="translate(679,267)" d="m0 0h1l-1 10-3 12h-2l-1 3v-8l4-15z" fill="#243D3A"/>
<path transform="translate(473,223)" d="m0 0 1 3-7 22-3-1 3-11 4-11z" fill="#243F3C"/>
<path transform="translate(606,230)" d="m0 0h1l2 13 3 7 1 2-2 4h-2l-3-11-1-1v-12z" fill="#30625A"/>
<path transform="translate(609,197)" d="m0 0 23 1v1h-5v2h-26v-1l9-1z" fill="#366A62"/>
<path transform="translate(135,853)" d="m0 0 4 1 8 7v2h2v2l8 4 2 5-8-6-9-7-7-6z" fill="#2F615A"/>
<path transform="translate(772,690)" d="m0 0h1l1 21h-2l-3 4v-9l2-15z" fill="#2C5C55"/>
<path transform="translate(740,410)" d="m0 0h1l3 21v11l-2 2-1-13-1-2z" fill="#1C2B2A"/>
<path transform="translate(676,206)" d="m0 0 1 4-6 26h-2v-7l5-19z" fill="#243F3C"/>
<path transform="translate(227,391)" d="m0 0 13 1 3 4 1 5-3 4-2-8-10-3z" fill="#1E3431"/>
<path transform="translate(154,260)" d="m0 0h6l-1 4-8 1-3 4v8l-3 1-1-8 5-7z" fill="#284743"/>
<path transform="translate(153,204)" d="m0 0h12l-1 3-10 1-1 12-2 2 1-17z" fill="#1D2D2C"/>
<path transform="translate(529,363)" d="m0 0 2 1-1 4-1 3 2 2-3 5-5 4-6 1-1-3 11-3v-4l-2-1z" fill="#315953"/>
<path transform="translate(249,199)" d="m0 0h3v18l-2 1-3-11z" fill="#C3DED4"/>
<path transform="translate(775,677)" d="m0 0h1v16l-2 10h-1v-25z" fill="#273D3C"/>
<path transform="translate(766,560)" d="m0 0 3 2 3 16v3h-2l-1 4-2-14-1-2z" fill="#182625"/>
<path transform="translate(193,401)" d="m0 0h1l1 11-5 6-5-1h-6l2-3h6l4-4z" fill="#27433F"/>
<path transform="translate(165,228)" d="m0 0 4 1-1 3v10l8 7 2 1-1 2-9-6-4-4z" fill="#2D534E"/>
<path transform="translate(680,196)" d="m0 0 5 2 7 14v3l-3-1-9-17z" fill="#2D524D"/>
<path transform="translate(47,128)" d="m0 0h3v2l-24 14-3-1 9-6 12-7z" fill="#30625A"/>
<path transform="translate(484,314)" d="m0 0h1l1 12 1-4v-5h2l1-3v12l2 2h-3l-1 2-1-1 1 5h-3l-1-5z" fill="#31635B"/>
<path transform="translate(282,924)" d="m0 0 6 1 12 5 9 3 2 2-9-2-8-2-13-5z" fill="#C6E4D9"/>
<path transform="translate(727,799)" d="m0 0v3l-5 6-8 7-6 6-2-1 6-8h2l2-4 10-8z" fill="#2A5550"/>
<path transform="translate(247,264)" d="m0 0 9 1v4l-11-1-2-1v16h-1v-18z" fill="#2B4C47"/>
<path transform="translate(512,241)" d="m0 0 3 1-3 8-4 6-3-3 2-5z" fill="#223836"/>
<path transform="translate(283,14)" d="m0 0h5l-2 4-15 3v-4z" fill="#1A2726"/>
<path transform="translate(228,408)" d="m0 0 3 1 4 7v4l-5 1-2-5z" fill="#DDF0E9"/>
<path transform="translate(272,339)" d="m0 0 5 2v3l3 3 5 6 2 1-1 2-5-3-1-3-3 1-5-8z" fill="#CAE7DD"/>
<path transform="translate(200,273)" d="m0 0 3 1v19l-2 1-2-7v-12z" fill="#243F3B"/>
<path transform="translate(199,218)" d="m0 0 4 5 3 1h8l4-1-3 4-10 1-5-3-2-4z" fill="#2B4B47"/>
<path transform="translate(670,196)" d="m0 0h6v2l-7 2-13 1-3-3z" fill="#33645C"/>
<path transform="translate(186,188)" d="m0 0h5l1 4h-7l-5 7v5h-3v-6l7-9z" fill="#294A46"/>
<path transform="translate(154,105)" d="m0 0h3v2l-16 8-3-1-1-2z" fill="#2D5C56"/>
<path transform="translate(372,3)" d="m0 0h13l-2 2-10 1h-17l-1-2z" fill="#161F1F"/>
<path transform="translate(206,397)" d="m0 0 4 1v7 3l-3 3h-2v-13z" fill="#BADDCC"/>
<path transform="translate(184,221)" d="m0 0 3 3v2l3-1 1 4-3 5-3-1-1-7h-2z" fill="#C0DAD0"/>
<path transform="translate(312,945)" d="m0 0 6 2v2l3-1 17 6v1l-9-1-19-6 2-1z" fill="#30615A"/>
<path transform="translate(223,80)" d="m0 0h5l-3 3-9 2-3 1-11 2v-2z" fill="#32645D"/>
<path transform="translate(741,431)" d="m0 0h1l1 11 2-4v27l-2-4-1-12-1-1z" fill="#284542"/>
<path transform="translate(545,380)" d="m0 0 4 1-6 6h-10v-3l10-2z" fill="#25423E"/>
<path transform="translate(285,330)" d="m0 0 4 2-4 2-2 4-1 6h-2l-1 3-1-8 5-8z" fill="#2E4F4B"/>
<path transform="translate(193,219)" d="m0 0 3 1-3 10-6 7-5 2-3-1 9-5 3-7z" fill="#2C504B"/>
<path transform="translate(600,198)" d="m0 0h14l-4 2-9 1-7 2-4-1-1-2z" fill="#2A4845"/>
<path transform="translate(195,40)" d="m0 0 2 1v3l-12 5h-3v-4z" fill="#1D2F2D"/>
<path transform="translate(191,881)" d="m0 0 9 2 1 3 4 1 3 2v2l-5-1-11-6z" fill="#C7E5DA"/>
<path transform="translate(684,248)" d="m0 0h1l-1 9-3 12-3-1 4-17z" fill="#2F544F"/>
<path transform="translate(124,103)" d="m0 0m-2 1h2l-1 3-21 10v-3l16-8z" fill="#BFDBD0"/>
<path transform="translate(261,926)" d="m0 0 9 3 8 4 5 1 2 3-7-1-18-8z" fill="#30615A"/>
<path transform="translate(744,447)" d="m0 0h2l2 18h-2v8h-1l-1-13z" fill="#213735"/>
<path transform="translate(601,290)" d="m0 0h5l-2 4-6 2h-5l-1-2 1-2z" fill="#1B2E2C"/>
<path transform="translate(287,203)" d="m0 0 4 4 1 5h-8v-6z" fill="#BDDBCE"/>
<path transform="translate(403)" d="m0 0h9l9 3v1h-13l-6-1z" fill="#1B2C2A"/>
<path transform="translate(259,404)" d="m0 0h1v7h2l3 5 3 4-1 2-5-2-3-5z" fill="#203633"/>
<path transform="translate(202,336)" d="m0 0h1l1 9 6 9-5-1-4-4v-12z" fill="#1B2D2B"/>
<path transform="translate(662,260)" d="m0 0h1l-1 10-3 11h-2v-7l4-12z" fill="#203634"/>
<path transform="translate(605,308)" d="m0 0h3l-1 4-5 1-1 12-2 1v-11l2-6z" fill="#305B55"/>
<path transform="translate(170,283)" d="m0 0h2l-1 5-1 7-7 1 2-5 3-7z" fill="#233E3A"/>
<path transform="translate(269,318)" d="m0 0h5l1 3h-5l-6 4-2 4-3 1 1-5 7-6z" fill="#315F58"/>
<path transform="translate(159,294)" d="m0 0h2l1 4-3 7-5 4-4 2h-4v-2l8-3 4-5z" fill="#35645D"/>
<path transform="translate(495,213)" d="m0 0 3 1-2 1 3 2-15 2-6 1 3-3 9-3z" fill="#2A4C47"/>
<path transform="translate(597,315)" d="m0 0h2l1 9-2 4h-5l-3-3 5-1z" fill="#243636"/>
<path transform="translate(19,183)" d="m0 0h2l5 15-4 4-1-1v-10l-2-5z" fill="#2C5C56"/>
<path transform="translate(44,716)" d="m0 0 3 1 3 10 2 5-2 2-4-8-2-5z" fill="#2F6059"/>
<path transform="translate(657,348)" d="m0 0h1l1 8-4 14h-2l1-8z" fill="#366B62"/>
<path transform="translate(58,750)" d="m0 0 2 3 1 4h2l4 8-1 2-2 1-6-13z" fill="#2F6059"/>
<path transform="translate(398,680)" d="m0 0h1l-1 8-9-1v-2h-16v-1h24z" fill="#C3E0D5"/>
<path transform="translate(186,419)" d="m0 0h5l-4 4-11 1-7-2 4-1 10-1z" fill="#2B4C47"/>
<path transform="translate(149,345)" d="m0 0 3 1-3 13h-4l1-7z" fill="#284642"/>
<path transform="translate(751,301)" d="m0 0h1v8l-2 13-2-1-1-4z" fill="#294240"/>
<path transform="translate(255,217)" d="m0 0h15v2l-7 2h-11l3-1z" fill="#34635C"/>
<path transform="translate(364,955)" d="m0 0 4 2v2l4 1 7 5-3 2-11-8z" fill="#C4E3D6"/>
<path transform="translate(165,404)" d="m0 0 2 3h-2l3 6-3 2-5-5v-3z" fill="#bdc"/>
<path transform="translate(185,392)" d="m0 0h6l4 5v11h-1v-7h-2l-2-5-3-1v-2z" fill="#1B2B2A"/>
<path transform="translate(444,304)" d="m0 0 1 2 2 1-5 14-1-2h-2l3-10z" fill="#233E3B"/>
<path transform="translate(46,284)" d="m0 0 1 3h2l1 6 3 5-1 4h-2l-4-11z" fill="#2E5E58"/>
<path transform="translate(264,266)" d="m0 0 8 1v1l-8 2-3 4v9l-2-1v-8l-2-1 5-6z" fill="#2D544F"/>
<path transform="translate(66,116)" d="m0 0h3l-1 3-14 8-3-1 8-6z" fill="#2F6059"/>
<path transform="translate(47,113)" d="m0 0 2 1-2 4-8 5-4-1 5-5z" fill="#182524"/>
<path transform="translate(159,332)" d="m0 0 3 3 2 5-5 1-3-1v-5z" fill="#BBDCCC"/>
<path transform="translate(15,132)" d="m0 0 2 1-1 3-11 6-3-1 3-3z" fill="#1E2E2D"/>
<path transform="translate(416,785)" d="m0 0 1 4-2 6 1 3-4 7-2 1 2-9z" fill="#C9E3D9"/>
<path transform="translate(475,372)" d="m0 0h6l-3 3-14 3-1-3z" fill="#233D3A"/>
<path transform="translate(181,345)" d="m0 0h15v2l-2 1h-9l-4-1-1 3z" fill="#1C2F2C"/>
<path transform="translate(604,230)" d="m0 0h2v14l2 4-1 5h-2l-1-4-1-17z" fill="#273C3B"/>
<path transform="translate(231,199)" d="m0 0 7 1v2l-9 1-5 3-1-4 3-2z" fill="#25413D"/>
<path transform="translate(727,768)" d="m0 0h2l-2 5-7 9h-1v-5z" fill="#C5E1D7"/>
<path transform="translate(301,339)" d="m0 0h4l-1 8-3 4h-2z" fill="#233E3A"/>
<path transform="translate(256,265)" d="m0 0 4 1 5-1-6 7-4 3 1-5-4-1 2-1 2 1z" fill="#C5E1D7"/>
<path transform="translate(316,415)" d="m0 0 1 4 9-2 9-1-1 3-5 1h-13z" fill="#26443F"/>
<path transform="translate(152,408)" d="m0 0 4 2 3 3v2l-5 3-2-3z" fill="#C9E6DC"/>
<path transform="translate(171,404)" d="m0 0 2 1v2h2l3 5 2 1v3l-4-1-5-6z" fill="#192827"/>
<path transform="translate(494,386)" d="m0 0h5l-2 3-7 2h-7v-2z" fill="#1C2E2C"/>
<path transform="translate(447,379)" d="m0 0 2 1 1 2-12 3h-5l3-3z" fill="#2B4C48"/>
<path transform="translate(509,357)" d="m0 0h9l4 2v1h-17l1-2z" fill="#2F544F"/>
<path transform="translate(643,327)" d="m0 0 2 3-1 7-4 10-1-3z" fill="#2F5650"/>
<path transform="translate(756,277)" d="m0 0h1l-1 11-2 7h-1v-13z" fill="#283F3D"/>
<path transform="translate(362,468)" d="m0 0 3 1-12 10-3 1 2-4 4-5 5-2z" fill="#C2DBD2"/>
<path transform="translate(151,408)" d="m0 0h1l1 11-5 2-1-4 1-3 2-1z" fill="#213A37"/>
<path transform="translate(640,350)" d="m0 0 4 4 6 11-1 2-4-4-5-10z" fill="#2E544F"/>
<path transform="translate(220,348)" d="m0 0 1 2 2 1-8 5-7-1 1-3 9-1z" fill="#284843"/>
<path transform="translate(299,345)" d="m0 0 1 3-4 4-4 1-5-2-2-4 5 2 6-1z" fill="#C8E5DB"/>
<path transform="translate(180,269)" d="m0 0 3 3 1 4-7 1-1-4z" fill="#C0DAD0"/>
<path transform="translate(625,251)" d="m0 0h1v17l-5 1 1-4 2-6z" fill="#273C3B"/>
<path transform="translate(196,88)" d="m0 0h5l-2 2-10 4h-7l2-2z" fill="#30615A"/>
<path transform="translate(163,415)" d="m0 0 6 2 8 4-4 1-9-3-2-3z" fill="#213735"/>
<path transform="translate(204,395)" d="m0 0 2 3v18h-2l-1-4v-16z" fill="#CDE5DD"/>
<path transform="translate(242,393)" d="m0 0 4 1 2 1v6l-4 2z" fill="#CBE8DE"/>
<path transform="translate(207,329)" d="m0 0 1 2 2 1-4 2-2 6-2-3-1 10h-1v-11l5-5z" fill="#294945"/>
<path transform="translate(586,201)" d="m0 0h6l-2 1v2l-7 3h-5v-2z" fill="#1F3532"/>
<path transform="translate(122,802)" d="m0 0 16 16h-3l-7-6-6-8z" fill="#CCEAE0"/>
<path transform="translate(392,788)" d="m0 0 2 3 3 11-1 3-4-7-1-5 1-1z" fill="#C6E1D6"/>
<path transform="translate(763,737)" d="m0 0 1 2-4 10-3 6-1-3 1-6 3-3 2-5z" fill="#2B5A54"/>
<path transform="translate(319,391)" d="m0 0 14 1-2 4-9-1-2 2z" fill="#253D3A"/>
<path transform="translate(309,389)" d="m0 0h2v12l-1 11h-1l-1-22z" fill="#162221"/>
<path transform="translate(540,366)" d="m0 0h14l-2 1v2h-12z" fill="#376C63"/>
<path transform="translate(184,329)" d="m0 0h13l3 3-2 1-16-2z" fill="#263F3C"/>
<path transform="translate(338,6)" d="m0 0h6l-3 3h-16l2-2z" fill="#141B1B"/>
<path transform="translate(542,907)" d="m0 0 4 2-10 5h-5l3-3z" fill="#C6E3D8"/>
<path transform="translate(521,371)" d="m0 0h5l-3 3-6 2-7-1 3-2z" fill="#294945"/>
<path transform="translate(222,336)" d="m0 0 3 1v9l-2 4h-2z" fill="#1C312F"/>
<path transform="translate(672,288)" d="m0 0 3 1-1 8-2 7-2-4 1-8z" fill="#2B4F4A"/>
<path transform="translate(542,313)" d="m0 0 1 4-3 9h-2l1-9 1-3z" fill="#1D302E"/>
<path transform="translate(550,276)" d="m0 0 1 2 2 1-3 11h-3l2-11z" fill="#24403C"/>
<path transform="translate(465,246)" d="m0 0h1l-1 8-2 5-2 1 1-9z" fill="#1D312F"/>
<path transform="translate(519,233)" d="m0 0h2l1 10-2 3-2-1-1-5 2-4-2-1z" fill="#3C746A"/>
<path transform="translate(627,230)" d="m0 0h3v4h-4l-1 4-4-2 4-5z" fill="#2C514C"/>
<path transform="translate(140,63)" d="m0 0h3l-2 4-9 3-2-1 8-5z" fill="#1B2A29"/>
<path transform="translate(238,407)" d="m0 0 2 1v4l2 1v3l-4-1-4-4v-3z" fill="#CBE7DD"/>
<path transform="translate(428,346)" d="m0 0 2 3-3 10-3 4 1-9z" fill="#34675F"/>
<path transform="translate(11,171)" d="m0 0 4 1v3h2v5l-3 1-3-7z" fill="#2F6059"/>
<path transform="translate(393,10)" d="m0 0h12v2l-5 1h-11l1-2z" fill="#2B5A54"/>
<path transform="translate(772,708)" d="m0 0h1v9l-1 4h-3v-6z" fill="#233635"/>
<path transform="translate(451,398)" d="m0 0h6v2l-7 2h-8l1-2z" fill="#203835"/>
<path transform="translate(346,391)" d="m0 0h10v3h-13v-2z" fill="#36645D"/>
<path transform="translate(253,328)" d="m0 0 3 1-1 20h-1z" fill="#284844"/>
<path transform="translate(683,269)" d="m0 0 3 3-3 9-2-4 1-2-2-1 2-4z" fill="#B9DDCB"/>
<path transform="translate(209,109)" d="m0 0 2 1-10 6-9 1 3-2z" fill="#C7E3D9"/>
<path transform="translate(252,22)" d="m0 0 4 1-2 4-9 1 3-1v-4z" fill="#1D312F"/>
<path transform="translate(222,909)" d="m0 0h6l7 4v2l-6-1-7-4z" fill="#2A4F4A"/>
<path transform="translate(159,873)" d="m0 0 4 1 8 6v2l3 1-2 1-12-9z" fill="#2B534E"/>
<path transform="translate(320,402)" d="m0 0 1 3 4-3 4 1v3l-9 2z" fill="#2C504B"/>
<path transform="translate(243,401)" d="m0 0h5v7h-3v-2l-4-1z" fill="#C1DBD2"/>
<path transform="translate(443,393)" d="m0 0 2 1 1 2-16 3v-2z" fill="#2C514C"/>
<path transform="translate(671,310)" d="m0 0 3 3v5l-5 2-1-5h2z" fill="#B9DCCB"/>
<path transform="translate(553,213)" d="m0 0 7 1 4 2v2l-16-2v-1l5-1z" fill="#294744"/>
<path transform="translate(253,197)" d="m0 0h1l1 23h-4l1-4z" fill="#121B1A"/>
<path transform="translate(83,140)" d="m0 0h4v2l-6 2-3 3-5 2 1-4z" fill="#2E5F58"/>
<path transform="translate(110,125)" d="m0 0 2 1-4 4-11 5-1-2z" fill="#30625B"/>
<path transform="translate(299,932)" d="m0 0 18 4 2 2-3 1-17-6z" fill="#C1DFD2"/>
<path transform="translate(44,519)" d="m0 0h2l1 11-3 4z" fill="#2F6059"/>
<path transform="translate(378,451)" d="m0 0 2 2-10 11-1-3 3-1 2-6z" fill="#C3DDD4"/>
<path transform="translate(223,396)" d="m0 0h1v14l-3 1v-11z" fill="#BFDFD1"/>
<path transform="translate(258,399)" d="m0 0 2 2-2 8h-4v-6z" fill="#BFDAD0"/>
<path transform="translate(453,390)" d="m0 0 4 1-1 2-6 2h-6l2-3z" fill="#223A37"/>
<path transform="translate(529,363)" d="m0 0 2 1-1 4-1 3 2 2-2 3h-2v-3l-2-1z" fill="#86A59D"/>
<path transform="translate(503,319)" d="m0 0 2 1-2 5-5 4-3-1 3-4h2v-2z" fill="#283F3D"/>
<path transform="translate(667,314)" d="m0 0h1l-1 9-2 4-1-1v-7l1-4z" fill="#2D504C"/>
<path transform="translate(486,301)" d="m0 0 5 2v7h-1v-6l-2 1v4h-2l-1 2v-9z" fill="#2F5F59"/>
<path transform="translate(590,293)" d="m0 0 3 1 2 3-9 3 1-4z" fill="#233937"/>
<path transform="translate(608,243)" d="m0 0 2 3 3 6-2 4h-2l-1-4z" fill="#3E766C"/>
<path transform="translate(32,235)" d="m0 0h3l1 8 2 10-2-1-4-14z" fill="#30625B"/>
<path transform="translate(795,144)" d="m0 0 4 2 2 2v5l-5-2z" fill="#14201F"/>
<path transform="translate(763,143)" d="m0 0 6 2v5l-5-1z" fill="#CCE9E0"/>
<path transform="translate(291,12)" d="m0 0h5l2 3-11 2v-4z" fill="#1A2928"/>
<path transform="translate(135,853)" d="m0 0 4 1 6 5-1 3-8-6z" fill="#2E5F58"/>
<path transform="translate(65,766)" d="m0 0 3 1 3 6v4h-2l-4-7z" fill="#2A4E4A"/>
<path transform="translate(57,397)" d="m0 0 2 3v11l-2 5h-1v-10z" fill="#2B5A54"/>
<path transform="translate(425,400)" d="m0 0h2l1 3 5 1-4 2-6 1 1-5z" fill="#23403C"/>
<path transform="translate(492,326)" d="m0 0 3 1-3 5-5 1-1-5h3 3z" fill="#273D3C"/>
<path transform="translate(202,274)" d="m0 0 5 5-3 1v10l-2-2z" fill="#C1DBD1"/>
<path transform="translate(676,206)" d="m0 0 1 4-3 13-2-2 2-11z" fill="#2E544F"/>
<path transform="translate(461,952)" d="m0 0 2 1-11 7-3-1 5-4z" fill="#C4E2D6"/>
<path transform="translate(632,875)" d="m0 0m-1 1m-1 1m-1 1m-4 1h4l-1 3-6 3-3-1z" fill="#2D5D57"/>
<path transform="translate(447,357)" d="m0 0 4 1 8 1v1l-16 1v-2z" fill="#213836"/>
<path transform="translate(548,288)" d="m0 0h1l-1 10-1 3h-2l1-10z" fill="#1B2C2A"/>
<path transform="translate(591,258)" d="m0 0 3 4-2 5h-4z" fill="#25403D"/>
<path transform="translate(517,246)" d="m0 0h2l1 12-1 5h-1l-1-7z" fill="#202E2E"/>
<path transform="translate(680,196)" d="m0 0 5 2 2 3v5l-2 1z" fill="#2C4D49"/>
<path transform="translate(101,82)" d="m0 0 4 1-4 4-7 1 1-3z" fill="#192726"/>
<path transform="translate(612,60)" d="m0 0 5 1 9 4v1l-8-1-5-2z" fill="#30625B"/>
<path transform="translate(287,937)" d="m0 0 10 2v2h2v2l-6-1-6-3z" fill="#2E5E58"/>
<path transform="translate(696,829)" d="m0 0h2l-2 4-9 8v-3z" fill="#2F6059"/>
<path transform="translate(84,796)" d="m0 0h3l1 3 5 5-2 3-7-9z" fill="#2E5F58"/>
<path transform="translate(751,717)" d="m0 0 1 4-2 6-4-4v-3z" fill="#BDDBCE"/>
<path transform="translate(260,400)" d="m0 0h3l-2 11-3 1v-9z" fill="#2D4F4A"/>
<path transform="translate(220,395)" d="m0 0h3v8l-3 3-1-10z" fill="#F7FAF9"/>
<path transform="translate(533,338)" d="m0 0 2 3-3 9-3 3 2-9z" fill="#2F5650"/>
<path transform="translate(687,247)" d="m0 0h2v6l2 1-1 3-4-2v-6z" fill="#B9DCCB"/>
<path transform="translate(259,20)" d="m0 0h5l-2 4-7 1 1-4z" fill="#1A2928"/>
<path transform="translate(542,352)" d="m0 0 4 1 3 2-11 2h-3l4-2v-2z" fill="#33625B"/>
<path transform="translate(199,346)" d="m0 0 2 1v4l-3 1v-2h-5l1-3z" fill="#C5E0D6"/>
<path transform="translate(490,310)" d="m0 0h1l1 13 2 2-4 2-1-5z" fill="#C0DED2"/>
<path transform="translate(586,295)" d="m0 0 2 1-2 6-2 1-4-3z" fill="#2B4644"/>
<path transform="translate(654,290)" d="m0 0h1l-1 10-3 3 1-10h2z" fill="#1F3230"/>
<path transform="translate(165,228)" d="m0 0 4 1-3 13h-2z" fill="#2B4A46"/>
<path transform="translate(129,68)" d="m0 0 5 1-1 2-6 3-4 1 2-2-2-2z" fill="#243B39"/>
<path transform="translate(98,815)" d="m0 0 4 1 5 6-1 3-8-9z" fill="#2E5F58"/>
<path transform="translate(264,393)" d="m0 0 5 1-4 2-2 4h-3l2-5z" fill="#223B38"/>
<path transform="translate(357,391)" d="m0 0 4 1v3l-3 3-2-4-2-2z" fill="#1C2D2B"/>
<path transform="translate(298,332)" d="m0 0 4 1 2 3v3l-4-1-2-3z" fill="#1F3431"/>
<path transform="translate(460,258)" d="m0 0 3 1-2 8-4 1z" fill="#274742"/>
<path transform="translate(222,104)" d="m0 0 4 1-7 4-5 1-2-2z" fill="#C7E2D9"/>
<path transform="translate(283,14)" d="m0 0h5l-2 4h-7v-3z" fill="#172524"/>
<path transform="translate(235,913)" d="m0 0 7 3v3l-9-3 2-1z" fill="#2D5C56"/>
<path transform="translate(176,871)" d="m0 0 4 2 8 5-2 1-7-3z" fill="#C8E6DC"/>
<path transform="translate(436,743)" d="m0 0h6l-4 3-10 1v-2z" fill="#C0DED2"/>
<path transform="translate(191,415)" d="m0 0 3 1-2 4-12-2v-1l6-1 4 1z" fill="#C1DCD2"/>
<path transform="translate(154,404)" d="m0 0h10l-2 3h-2l-1 3z" fill="#2C4E49"/>
<path transform="translate(198,395)" d="m0 0h1v11l-3 1v-8z" fill="#EFF8F5"/>
<path transform="translate(166,393)" d="m0 0h1l1 8-4 4-2-2 2-1v-6h2z" fill="#2A4C48"/>
<path transform="translate(434,376)" d="m0 0h2l-2 4-3 4-3-1 4-6z" fill="#274340"/>
<path transform="translate(280,344)" d="m0 0 3 1 3 4v2l-5-1-1-1z" fill="#203633"/>
<path transform="translate(159,325)" d="m0 0 3 1-5 5 3 1-5 4-1-2 3-7z" fill="#284944"/>
<path transform="translate(195,287)" d="m0 0 4 1 1 1v5h-3l-2-4z" fill="#F3F8F7"/>
<path transform="translate(766,233)" d="m0 0 2 2v2h-2v6l-3 1 1-8z" fill="#2B5A54"/>
<path transform="translate(121,72)" d="m0 0h5l-5 5-4 1v-4z" fill="#1D2F2D"/>
</svg>
