<?xml version="1.0" encoding="UTF-8"?>
<svg version="1.1" viewBox="0 0 1000 1000" width="1000" height="1000" xmlns="http://www.w3.org/2000/svg">
<path transform="translate(589,292)" d="m0 0 7 2 8 6 10 9 9 9 12 16 5 9 9 16 4 10 5 14 4 15 2 5 3 18 1 14v15l-2 20-3 15-3 8-7 20-10 16-6 8-4 7-14 14-5 4-9 5-9 6-20 8-24 5h-14l-28-4-16-4-9-3-30-7-9-3-22-5-9-2-9-3-44-11-11-2-1-1v-85l2-16 2-5 3-9 6-12 3-3 3-5 5-5 3-1 2-3 14-7 1-5 3-17 4-14 8-18 14-21 4-4 3-5 10-10 7-3 15 6 7 3 21 5 11 1h30l18-2 15-3 10-4zm-100 31-12 2-10 4-11 6-13 11-9 10-9 14-5 11-2 5v5l9 4 10 6 13 11 9 12 7 12 5 14 4 15 1 9v19l-2 13-5 15-6 12-2 1-2 6 1 1 17 3 20 4 1 1 16 2h13l14-2 9-4 10-4 13-10 5-3 3-5 8-10 8-14 5-14 2-6 3-16v-31l-4-21-3-7-3-9-4-9-8-15-7-9h-2l-2-4-12-12-17-12-12-6-15-4-9-1zm-98 94-12 5-8 7-7 11-3 5-3 12-1 15v46l1 9 2 2 38 8 6 2h7l9-3 8-4 8-8 4-6 5-12 2-9v-24l-3-13-5-12-5-8-8-10-11-8-13-5z" fill="#005178"/>
<path transform="translate(673,643)" d="m0 0h33l9 1v15l-47 1-4 2v8l1 2 3 1 38 1 7 3 6 7 4 10v8l-5 9-7 6-10 3h-45l-1-1v-15l49-1 2-3v-8l-1-1-10-1-33-1-8-5v-2l-3-1v-2h-2l-2-8v-9l3-8 9-8 4-2z" fill="#005178"/>
<path transform="translate(259,633)" d="m0 0h55l1 1v12l-56 1-3 2-2 4v10l6 5 45 1 8 3 5 3 7 14v9l-5 10-8 7-8 3h-55l-1-12 1-2 55-1 4-2 2-10-2-6-3-2-45-1-10-3-8-8-3-9 1-12 3-6 7-8z" fill="#015178"/>
<path transform="translate(515,265)" d="m0 0h15l19 3 16 8 4 4v8l-3 5-17 9-11 2-12 1h-22l-15-2-8-3-10-5-4-4-1-6 7-8 6-4 14-5 11-2z" fill="#005178"/>
<path transform="translate(763,644)" d="m0 0 11 1 7 3 8 5 7 6v3h-2l-2 4-35 35-1 2 10 1 8-2 8-6 2-2 5 1 7 7-2 4-9 8-10 5-4 1h-13l-12-5-9-6-8-13-2-12 1-12 4-9 6-9 13-8zm1 15-8 2-8 6-5 8v15h4l8-8 5-6 8-7 6-6-1-3z" fill="#015178"/>
<path transform="translate(363,645)" d="m0 0h12l7 2 8 4 6 5 9 14 2 22v22l-2 7-14-1-1-17v-23l-3-10-8-7-5-2h-11l-10 6-5 7-1 5v8l4 10 9 6 3 1 14 1 1 1v14h-18l-9-4-10-6-1-3h-2l-4-8-3-8v-16l2-6 5-9 4-5 9-6 5-3z" fill="#015278"/>
<path transform="translate(441,645)" d="m0 0h14l7 2 10 6 7 7 6 10 1 3v18l-3 7-5 9-5 5-10 6-5 2h-19l-12-6-7-5-6-11-3-7v-18l6-12 5-6 9-6 5-3zm4 15-8 3-7 6-3 5-1 4v10l3 7 6 7 7 3h13l7-4 7-8 2-5v-11l-4-8-8-7-5-2z" fill="#035379"/>
<path transform="translate(598,644)" d="m0 0h12l9 2 10 7 7 7 5 12 2 6v9l-3 9-5 9-8 8-12 6-6 1h-10l-9-3-11-6-9-11-3-12v-11l3-12 4-5 3-5 9-6 8-4zm-1 16-6 4-5 5-4 7-1 9 3 7 3 6 4 4 11 3 10-1 8-5 5-6 2-5v-13l-4-8-8-6-2-1z" fill="#015278"/>
<path transform="translate(549,622)" d="m0 0h11l2 4v17l1 1v32l-1 1-1 20-3 6-9 10-7 5-6 2-15 1-1-1v-13l11-1 10-5 5-7 1-3 1-68z" fill="#05547A"/>
<path transform="translate(345,633)" d="m0 0h50l1 5-2 2h-49l-3-2 1-4z" fill="#015178"/>
<path transform="translate(786,633)" d="m0 0h5l2 4-5 3h-23l-18-1 1-2 14-2z" fill="#0E5B7F"/>
</svg>
