<?xml version="1.0" encoding="UTF-8"?>
<svg version="1.1" viewBox="0 0 2048 2048" width="150" height="150" xmlns="http://www.w3.org/2000/svg">
<path transform="translate(0)" d="m0 0h2048v2048h-2048z" fill="#195689"/>
<path transform="translate(1234,486)" d="m0 0h8l14 7 14 10 14 11 15 14 16 16 22 28 14 18 14 22 12 21 12 23 14 32 11 29 6 18 12 48 4 21 4 28 2 19 1 21v16l-2 35-4 31-5 25-6 24-7 22-9 24-11 24-13 25-10 16-13 17-9 11-11 13-10 11-7 8-15 14-14 11-14 10-16 10-16 9-16 8-21 8-25 8-29 6-17 2-17 1h-34l-21-2-28-5-65-16-42-11-91-23-63-16-49-12-64-16-47-12-17-5-2-2v-191l2-36 4-31 5-22 8-22 10-21 8-12 8-11 12-13 11-10 13-9 18-10 18-8v-3l-1-1v-11l3-20 5-20 12-39 8-21 8-18 9-16 6-12 7-11 8-12 12-16 9-10 7-8 11-12 15-15h2v-2l10-7 4-2h7l12 5 20 9 29 10 25 7 18 4 19 3 38 3h51l31-3 24-4 28-6 23-6 28-13 19-9z" fill="#FDFEFE"/>
<path transform="translate(996,565)" d="m0 0 26 1 21 3 23 6 23 8 23 11 18 11 16 11 18 14 13 12 23 23 11 14 9 13 10 16 12 21 11 23 9 23 8 25 8 32 4 28 2 31v12l-3 36-5 28-8 31-6 18-9 21-13 23-13 19-11 14-11 12-11 11-14 11-19 13-19 10-19 7-19 6-23 5-15 2h-28l-27-4-54-11-49-11-18-3 2-4 9-13 14-26 7-16 8-24 4-21 2-16v-63l-2-17-6-26-11-33-10-24-12-22-10-15-11-14-9-9-4-5-8-7-11-9-16-11-17-9-24-10-4-1 1-7 5-15 12-28 13-24 12-17 9-11 9-10 6-7 8-7 13-11 18-12 16-9 17-8 24-8 26-5z" fill="#195689"/>
<path transform="translate(722,817)" d="m0 0 17 1 20 4 16 8 9 6 16 13 11 11 13 17 11 19 9 19 7 19 6 26 3 31v15l-3 25-5 20-6 18-8 16-7 12-11 12-12 10-15 9-21 9-3 1h-10l-29-5-91-20-12-4-3-2-1-6v-158l3-24 5-21 6-16 7-14 9-13 11-12 9-8 13-8 12-5 11-3z" fill="#19578A"/>
<path transform="translate(853,1387)" d="m0 0h21l16 3 17 6 14 8 9 7 13 13 10 16 6 14 3 13 1 8v15l-2 17-4 15-11 21-11 14-8 8-13 9-14 6-18 5-7 1h-26l-17-4-17-7-13-9-10-9-9-11-8-13-5-11-4-17-1-9v-19l3-21 5-13 7-12 9-11 14-14 11-7 15-7 16-4z" fill="#FDFEFE"/>
<path transform="translate(1258,1386)" d="m0 0h31l15 3 14 5 13 7 9 7 10 9 10 12 8 16 4 11 3 16v24l-3 14-6 15-9 16-11 14-10 10-14 9-15 6-17 4h-29l-19-5-14-6-15-10-11-10-12-16-7-14-4-15-2-20 1-23 3-14 6-15 9-14 8-9 14-11 16-9 18-6z" fill="#FDFEFE"/>
<path transform="translate(1843)" d="m0 0h205v267l-3 1-1 2h-2l2 5-1 2h-5l-1-6h2l2-5-4-1-1 5h-4l-2-6-4-5 1-3 3-1 1-3 3 6h6l1-2-4-1-5-3-4-4-7-1-2-8 4-2v-2h-2l-1-4 3-3 5 2 1-1-1-4h-4l-1 2v-3l-7-2-1-3h-7l-3-2v-3h2l1-2 8-1 1-9 2-3h-3v-5h-7-4l-2-3h-6l-2-3 2-5 1-2h3l-5-5v3l-2 1 1 4-4 1v-2l-3-1 1-5-4-2-3 1v-5l-4-3-1 3-3 1-1-3h-2v-2l2-1 1-2 6 1v-7l-4-1 2-1 2-4h2v-2l-4-2 2-2-6 1h-3l-1-1-2 3-10-3-4 1-1-4-3-1 2-5 1-1h6l4 1-1 3 2 3h7v-3l-4-1v-2l-2-1-1-5-6 1-3-2-5 2-1-4 1-5-1-2-9 2-4-2 1-2h-2l-3-3-6-1-7-1 1-7h2l-2-5h-4v4l-5-1-2-4h2v-4l-5-3 5-5v-2h-2v2l-3-1-3 1h-2l-4-1v-4l-5-1-1-3 4-2v2h2l2-5-1-2-5 1-3-2h-2v-6h2v-5l-4-1 2-6-2-5h-3v4l-4 1-2-4v-3l-3-1h-9v-2h3l2-6h-2l-1-5-2-1-2-6-5 5-5-2-1-7-2-3h-3l-1-6 1-3h-4l-2-8h2z" fill="#2B3D58"/>
<path transform="translate(1677,1388)" d="m0 0h38l24 5 9 4 10 6 11 10 9 7 3 4-1 6-6 7-8 7-1 2h-2l-2 4-8 7-7 8-16 17-27 27-8 7-17 17-4 7 8 3h14l22-4 11-4 11-7 12-12 7 1 10 7 8 7 1 3v10l-6 10-11 9-11 7-15 7-16 5-11 2h-23l-19-5-16-7-13-9-10-9-9-11-8-15-7-21-3-12v-25l5-20 7-16 10-14 6-7 11-9 11-7 10-5z" fill="#FDFEFE"/>
<path transform="translate(378,1355)" d="m0 0h110l17 1 3 1 2 8v17l-4 6-5 1-126 1-13 1-8 4-4 7-3 8-1 4v10l2 10 4 8 5 4 10 3 10 1h74l26 1 16 3 11 5 9 6 9 9 8 13 4 12 1 5v24l-5 13-7 12-5 7-12 9-13 6-12 3-11 1-49 1h-76l-9-2-2-2v-27l3-5 113-1 21-1 16-3 5-3 5-8 3-13-1-11-5-12-4-4-10-2-83-1-31-2-12-2-12-5-8-6-7-7-8-14-4-10-2-9v-21l4-17 7-13 6-7 13-9 10-4 15-3z" fill="#FDFEFE"/>
<path transform="translate(1553,1385)" d="m0 0 14 1 1 1v26l-2 8-2 1-10 1-101 1-14 1-8 4-3 7v11l2 9 3 4 12 3 80 1 20 3 16 6 8 6 9 10 4 8 5 18 1 13-3 12-7 14-9 12-6 7-11 6-13 3-12 1-113 1-7-3-1-2 1-26 3-8 2-2h87l25-1 15-2 4-2 3-9v-16l-3-6-7-3-57-1-35-1-16-2-13-5-11-9-9-12-4-13-2-10v-21l2-9 9-14 10-11 10-6 5-2 16-2z" fill="#FDFEFE"/>
<path transform="translate(1033,416)" d="m0 0h44l25 2 25 5 12 4 16 7 11 7 11 10 5 8 2 11-5 10-7 8-11 7-16 7-22 7-24 5-24 3-15 1h-33l-31-2-24-4-27-8-16-8-11-8-6-8-1-3v-10l4-8 10-11 11-8 15-7 27-9 26-5 14-2z" fill="#FDFEFE"/>
<path transform="translate(644,1388)" d="m0 0h20l16 2 17 5 15 9 12 11 8 9 11 17 5 12 2 14 3 49v41l-1 25-5 4-3 1h-25l-6-2-2-5 1-45v-44l-2-18-4-12-7-12-10-11-12-7-15-4-13-1-15 3-14 7-8 7-8 10-8 15-3 13v14l4 12 6 12 8 10 10 8 10 5 18 4 30 1 2 2v29l-2 6-5 2h-16l-19-2-21-5-17-8-14-10-12-12-9-14-6-12-5-20-1-8v-30l6-18 7-13 8-11 9-10 9-8 18-11 14-4z" fill="#FDFEFE"/>
<path transform="translate(858,1425)" d="m0 0 12 1 16 4 10 5 10 8 8 10 6 12 3 10 1 14-2 12-6 14-9 12-13 10-10 5-13 4-12 1-13-2-16-8-11-10-9-13-5-11-2-9v-16l4-15 5-10 9-11 8-7 11-5 13-4z" fill="#19578A"/>
<path transform="translate(1266,1425)" d="m0 0h17l15 4 12 6 10 8 7 10 6 13 2 10v15l-2 10-10 19-11 12-11 7-12 4-10 2-14-1-13-3-11-6-10-9-7-8-7-14-2-8v-19l4-16 6-12 9-10 8-6 16-6z" fill="#19578A"/>
<path transform="translate(1133,1328)" d="m0 0h26l2 1 1 3 1 31v93l-1 56-3 13-8 16-8 10-7 9h-2v2l-13 10-15 8-23 6-13 2h-8l-7-4-2-4-2-21 2-7 2-2 29-2 16-8 9-7 5-5 6-9 5-12 3-15v-160l3-3z" fill="#FDFEFE"/>
<path transform="translate(1700,1423)" d="m0 0 12 1 9 4 2 2-1 4-7 8-26 24-22 22-9 11-8 7-6 1-3-3-2-13-1-9 2-14 8-17 12-14 10-6 17-6z" fill="#195689"/>
<path transform="translate(591,1356)" d="m0 0h129l4 4 1 2v9l-4 4h-129l-6-3-4-6 1-5 5-4z" fill="#FDFEFE"/>
<path transform="translate(1752,1355)" d="m0 0h16l4 4 1 3v10l-3 3-17-1h-27l-21-1-26 1h-17l-1-1h-10v-2l16-3 11-3 45-6 25-3z" fill="#FDFEFE"/>
<path transform="translate(1099,589)" d="m0 0 5 1 20 11 22 15 18 14 13 12 23 23 11 14 5 7-1 3-8-11-9-11-8-8-7-8-10-9-10-10-13-10-22-15-14-9-15-8z" fill="#29405E"/>
<path transform="translate(1268,501)" d="m0 0 5 2 10 8 8 7 12 11 9 9 9 11h-3l-12-13-16-16-11-9-10-8z" fill="#254568"/>
<path transform="translate(1099,589)" d="m0 0 5 1 20 11 22 15 18 14 1 2-5-2-14-11-18-12-14-9-15-8z" fill="#274364"/>
<path transform="translate(1324,554)" d="m0 0 5 5 8 10 7 9 3 4v2h-2l-9-12-11-14z" fill="#254569"/>
<path transform="translate(1158,435)" d="m0 0 5 2 8 6 5 4 7 10 1 5h-2l-4-8-8-9-12-9z" fill="#284262"/>
<path transform="translate(1268,501)" d="m0 0 5 2 10 8 8 7 2 4-8-6-11-9-6-5z" fill="#284261"/>
<path transform="translate(1140,613)" d="m0 0 5 2 15 12 5 5-5-2-14-11-6-4z" fill="#254568"/>
<path transform="translate(1991,176)" d="m0 0 5 1v3h-2l1 4-4 1v-2l-3-1 1-4h2z" fill="#2A3E5B"/>
<path transform="translate(1202,670)" d="m0 0 3 1 11 15-1 3-8-11-5-6z" fill="#264567"/>
<path transform="translate(2008,198)" d="m0 0 5 3-1 4h-3v3h-4l2-7z" fill="#2B3E5A"/>
<path transform="translate(1377,631)" d="m0 0 3 4 8 16-1 2-9-16z" fill="#264567"/>
<path transform="translate(1268,501)" d="m0 0 5 2 7 6-1 2-10-8z" fill="#274363"/>
</svg>
