<svg width="425" height="425" viewBox="0 0 425 425" fill="none" xmlns="http://www.w3.org/2000/svg">
<path d="M164.333 27.7548C151.467 37.8991 142.733 52.9946 142.733 52.9946C142.733 52.9946 130.501 48.5926 115.939 49.7025C100.438 50.8839 82.2234 57.8495 70.8268 67.2606C61.2733 75.1498 50.2855 88.4737 46.2201 101.828C40.295 121.291 43.7594 140.511 43.7594 140.511C43.7594 140.511 29.4453 148.024 18.059 165.751C9.77865 178.642 3.64162 200.876 3.84167 214.584C4.05562 229.245 9.97778 246.719 18.8792 259.577C28.6971 273.759 41.5721 282.622 41.5721 282.622C41.5721 282.622 41.6201 292.355 43.1827 304.021C44.4617 313.57 46.7554 324.415 50.868 332.279C56.6263 343.289 67.3916 353.399 77.3887 361.134C89.2786 370.334 100.082 376.174 100.082 376.174C100.082 376.174 100.337 387.049 104.73 395.927C107.937 402.41 114.362 406.804 119.494 410.193C127.304 415.351 140.929 414.504 150.662 410.193C161.068 405.583 167.34 397.299 167.34 397.299C167.34 397.299 178.429 405.682 189.213 408.2C199.997 410.718 211.506 410.649 222.569 410.193C234.411 409.704 241.101 406.413 251.277 400.316C260.177 394.984 271.236 382.758 271.236 382.758C271.236 382.758 283.135 391.917 304.045 390.989C317.493 390.391 339.157 382.537 348.884 375.625C360.285 367.523 372.155 349.568 377.045 334.748C383.289 315.824 380.872 300.454 380.872 300.454C380.872 300.454 392.323 296.666 403.292 281.525C411.916 269.621 420.366 247.871 421.884 234.612C423.826 217.636 418.248 191.001 408.213 174.804C395.483 154.258 377.318 145.998 377.318 145.998C377.318 145.998 381.033 127.732 375.678 107.315C371.863 92.7719 361.149 76.732 351.618 67.2606C342.425 58.1256 325.429 46.88 311.427 43.1182C291.04 37.6415 274.243 42.0208 274.243 42.0208C274.243 42.0208 264.217 30.9517 249.636 22.5423C238.056 15.8633 223.198 11.4172 211.086 11.5684C195.253 11.7661 177.603 17.2913 164.333 27.7548Z" fill="white"/>
<path d="M48.1307 148.928C45.234 139.066 44.435 128.704 45.7853 118.513C47.1356 108.321 50.6052 98.5286 55.9691 89.7691C67.3874 71.117 86.4313 57.3027 107.971 53.3491C119.116 51.3813 130.564 52.0523 141.405 55.3087C145.825 56.6097 147.714 49.6928 143.304 48.3949C132.567 45.245 121.293 44.3794 110.204 45.8537C99.1146 47.3279 88.4543 51.1095 78.9054 56.9562C58.769 69.3441 43.4523 90.2097 39.2399 113.686C37.0188 126.056 37.7043 138.776 41.2419 150.834C42.5369 155.25 49.4286 153.373 48.1307 148.928Z" fill="#E9E9E9"/>
<path d="M49.6282 285.073C39.8027 279.587 31.2334 272.094 24.4743 263.077C17.7152 254.061 12.9165 243.721 10.3883 232.728C4.98358 209.384 9.24664 183.887 22.99 164.185C30.1023 154.122 39.4326 145.842 50.2549 139.989C54.2932 137.778 50.691 131.586 46.6497 133.798C36.0314 139.63 26.7354 147.611 19.3501 157.235C11.9648 166.859 6.65101 177.916 3.74514 189.708C-2.37111 214.772 1.69845 242.65 16.3007 264.089C23.9726 275.338 34.1479 284.641 46.0216 291.263C50.0405 293.504 53.6516 287.317 49.6282 285.073Z" fill="#E9E9E9"/>
<path d="M100.73 367.445C84.6391 362.523 70.8646 352.052 60.4302 338.948C50.7862 327.126 45.0905 312.561 44.1489 297.313C43.8048 289.008 44.9596 280.71 47.5576 272.818C48.9791 268.417 42.0829 266.534 40.6673 270.912C35.6505 286.316 35.7618 302.94 40.9844 318.275C46.8327 335.205 58.3239 349.887 72.4483 360.714C80.3652 366.803 89.3027 371.423 98.8394 374.357C103.248 375.701 105.133 368.787 100.739 367.445H100.73Z" fill="#E9E9E9"/>
<path d="M277.499 369.071C270.939 381.517 260.779 391.679 248.354 398.22C234.581 405.451 218.74 407.779 203.352 406.508C193.842 405.776 184.545 403.314 175.913 399.243C175.089 398.788 174.123 398.668 173.213 398.907C172.303 399.147 171.52 399.727 171.025 400.529C170.555 401.352 170.426 402.327 170.666 403.244C170.905 404.161 171.495 404.947 172.306 405.433C202.789 420.07 242.7 416.324 267.998 393.096C274.333 387.232 279.632 380.331 283.667 372.689C285.83 368.619 279.666 364.994 277.499 369.071Z" fill="#E9E9E9"/>
<path d="M375.293 289.874C378.256 299.789 379.023 310.233 377.539 320.476C376.055 330.719 372.357 340.513 366.703 349.17C355.03 367.412 335.97 381.88 314.562 385.986C303.537 388.006 292.184 387.232 281.533 383.732C277.141 382.328 275.262 389.248 279.633 390.645C290.244 393.969 301.451 394.922 312.468 393.437C323.485 391.951 334.044 388.062 343.404 382.045C363.379 369.416 379.397 348.86 384.056 325.37C386.511 312.938 385.867 300.091 382.184 287.969C380.844 283.567 373.951 285.443 375.293 289.874Z" fill="#E9E9E9"/>
<path d="M374.032 147.619C384.491 153.003 393.625 160.654 400.775 170.016C407.949 179.665 412.982 190.744 415.535 202.508C420.962 226.853 417.252 254.298 403.144 275.112C395.837 285.728 386.002 294.344 374.534 300.177C370.445 302.292 374.055 308.482 378.139 306.367C389.297 300.5 399.035 292.249 406.668 282.195C414.302 272.14 419.643 260.528 422.316 248.176C428.239 221.814 424.558 192.315 409.289 169.695C401.236 157.786 390.36 148.073 377.638 141.428C373.565 139.298 369.948 145.483 374.032 147.619Z" fill="#E9E9E9"/>
<path d="M265.82 47.5987C276.897 44.3236 288.535 43.4142 299.984 44.9291C311.433 46.4441 322.439 50.3499 332.292 56.3946C353.29 69.2604 368.909 90.8101 373.423 115.177C375.68 127.764 374.987 140.706 371.397 152.978C370.12 157.42 377.014 159.317 378.286 154.884C381.741 142.821 382.649 130.167 380.951 117.732C379.253 105.297 374.986 93.3544 368.425 82.6685C354.531 60.151 331.285 43.0597 305.125 38.4011C291.398 35.9558 277.293 36.7407 263.92 40.6938C259.52 41.9947 261.39 48.9161 265.82 47.6062V47.5987Z" fill="#E9E9E9"/>
<path d="M145.439 53.6613C150.34 44.6248 157.079 36.7228 165.219 30.4677C173.36 24.2126 182.719 19.744 192.691 17.3519C213.941 12.2378 237.228 16.0255 255.245 28.5808C264.471 35.0979 272.061 43.6779 277.415 53.6434C279.62 57.694 285.791 54.0795 283.583 50.0244C278.221 40.1991 270.875 31.6042 262.014 24.789C253.154 17.9738 242.975 13.088 232.126 10.4439C209.054 4.8758 183.421 8.79053 163.833 22.5137C153.634 29.6591 145.227 39.082 139.273 50.0408C137.072 54.0945 143.239 57.7164 145.442 53.6598L145.439 53.6613Z" fill="#E9E9E9"/>
<path d="M97.5208 380.14C97.9376 391.043 101.815 402.461 110.444 409.564C119.747 417.225 133.019 418.505 144.395 415.5C151.024 413.762 157.119 410.4 162.134 405.715C165.498 402.556 160.438 397.5 157.082 400.646C153.296 404.051 148.832 406.609 143.986 408.151C139.14 409.693 134.022 410.183 128.973 409.59C124.604 409.234 120.404 407.74 116.787 405.256C113.17 402.772 110.262 399.384 108.35 395.427C106.042 390.655 104.785 385.44 104.666 380.137C104.49 375.538 97.3437 375.516 97.5208 380.137V380.14Z" fill="#E9E9E9"/>
<path d="M354.758 91.1912C347.598 72.2192 332.298 60.4076 320.609 64.8752C314.55 67.1396 310.633 73.3821 309.287 81.4605C286.031 72.0357 255.553 78.278 234.684 82.6232C203.411 89.1716 170.852 47.4945 117.853 75.7076C113.753 77.9108 110.02 80.6036 106.592 83.786C106.592 78.0332 105.246 72.464 100.656 69.3428C89.5788 61.6316 77.706 84.092 77.706 84.092C77.706 84.092 61.9776 99.5144 61.4268 154.166C60.876 208.879 72.7488 180.91 72.7488 180.91L75.3804 174.117C73.422 204.962 76.1148 233.42 77.9508 244.375C79.6032 254.534 82.7856 263.408 87.2532 271.18C83.7648 271.609 80.8272 272.894 78.7464 275.158C70.056 284.4 78.0732 305.942 96.678 323.384C115.222 340.765 137.254 347.436 145.944 338.194C151.085 332.686 150.289 322.711 144.842 311.878C179.42 322.099 220.669 321.67 252.126 319.651C253.228 319.773 254.084 319.834 254.758 319.896C261.061 320.324 235.786 326.689 239.886 337.46C243.925 348.292 303.412 341.071 330.401 320.814C357.451 300.556 350.23 289.724 348.883 280.238C347.537 270.813 334.501 274.852 331.747 282.502C331.38 283.543 331.135 284.032 330.952 284.155C332.053 275.158 331.564 265.734 332.237 257.166C334.134 232.747 339.52 208.634 341.845 184.215C343.375 168.242 344.722 150.984 342.824 134.46C344.13 134.337 345.395 134.052 346.619 133.603C358.308 129.196 361.98 110.224 354.758 91.1912Z" fill="#9ACEEE"/>
<path opacity="0.7" d="M354.758 91.1912C347.598 72.2192 332.298 60.4076 320.609 64.8752C314.55 67.1396 310.633 73.3821 309.287 81.4605C286.031 72.0357 255.553 78.278 234.684 82.6232C203.411 89.1716 170.852 47.4945 117.853 75.7076C113.753 77.9108 110.02 80.6036 106.592 83.786C106.592 78.0332 105.246 72.464 100.656 69.3428C89.5788 61.6316 77.706 84.092 77.706 84.092C77.706 84.092 61.9776 99.5144 61.4268 154.166C60.876 208.879 72.7488 180.91 72.7488 180.91L75.3804 174.117C73.422 204.962 76.1148 233.42 77.9508 244.375C79.6032 254.534 82.7856 263.408 87.2532 271.18C83.7648 271.609 80.8272 272.894 78.7464 275.158C70.056 284.4 78.0732 305.942 96.678 323.384C115.222 340.765 137.254 347.436 145.944 338.194C151.085 332.686 150.289 322.711 144.842 311.878C179.42 322.099 220.669 321.67 252.126 319.651C253.228 319.773 254.084 319.834 254.758 319.896C261.061 320.324 235.786 326.689 239.886 337.46C243.925 348.292 303.412 341.071 330.401 320.814C357.451 300.556 350.23 289.724 348.883 280.238C347.537 270.813 334.501 274.852 331.747 282.502C331.38 283.543 331.135 284.032 330.952 284.155C332.053 275.158 331.564 265.734 332.237 257.166C334.134 232.747 339.52 208.634 341.845 184.215C343.375 168.242 344.722 150.984 342.824 134.46C344.13 134.337 345.395 134.052 346.619 133.603C358.308 129.196 361.98 110.224 354.758 91.1912Z" fill="white"/>
<path d="M296.007 238.806H285.113C281.931 238.806 279.36 236.235 279.36 233.053V217.08C279.36 213.897 281.931 211.327 285.113 211.327H299.618C302.861 211.327 305.432 213.897 305.432 217.08V233.053C305.432 236.235 302.861 238.806 299.618 238.806" stroke="#263238" stroke-miterlimit="10" stroke-linecap="round"/>
<path d="M279.36 265.856V257.349C279.36 254.106 281.931 251.535 285.113 251.535H299.618C302.861 251.535 305.432 254.106 305.432 257.349V273.261C305.432 276.444 302.861 279.075 299.618 279.075H285.113C281.931 279.075 279.36 276.444 279.36 273.261V269.589" stroke="#263238" stroke-miterlimit="10" stroke-linecap="round"/>
<path d="M305.432 309.92V313.47C305.432 316.713 302.861 319.284 299.618 319.284H285.113C281.931 319.284 279.36 316.713 279.36 313.47V297.558C279.36 294.375 281.931 291.744 285.113 291.744H299.618C302.861 291.744 305.432 294.375 305.432 297.558V306.248" stroke="#263238" stroke-miterlimit="10" stroke-linecap="round"/>
<path d="M294.966 225.036L301.698 218.304C302.433 217.63 302.433 216.468 301.698 215.733C301.025 214.999 299.862 214.999 299.128 215.733L292.396 222.465L285.664 215.733C284.929 214.999 283.767 214.999 283.032 215.733C282.359 216.468 282.359 217.63 283.032 218.304L289.764 225.036L283.032 231.768C282.359 232.502 282.359 233.665 283.032 234.399C283.399 234.766 283.889 234.95 284.379 234.95C284.807 234.95 285.297 234.766 285.664 234.399L292.396 227.667L299.128 234.399C299.495 234.766 299.985 234.95 300.413 234.95C300.903 234.95 301.392 234.766 301.698 234.399C302.433 233.665 302.433 232.502 301.698 231.768L294.966 225.036Z" fill="#54AFE7" stroke="#263238" stroke-miterlimit="10"/>
<path d="M294.966 265.795L301.698 259.063C302.433 258.39 302.433 257.227 301.698 256.492C301.025 255.758 299.862 255.758 299.128 256.492L292.396 263.224L285.664 256.492C284.929 255.758 283.767 255.758 283.032 256.492C282.359 257.227 282.359 258.39 283.032 259.063L289.764 265.795L283.032 272.527C282.359 273.261 282.359 274.424 283.032 275.158C283.399 275.526 283.889 275.709 284.379 275.709C284.807 275.709 285.297 275.526 285.664 275.158L292.396 268.426L299.128 275.158C299.495 275.526 299.985 275.709 300.413 275.709C300.903 275.709 301.392 275.526 301.698 275.158C302.433 274.424 302.433 273.261 301.698 272.527L294.966 265.795Z" fill="#54AFE7" stroke="#263238" stroke-miterlimit="10"/>
<path d="M134.622 238.806H127.156C123.912 238.806 121.342 236.235 121.342 233.053V217.08C121.342 213.897 123.912 211.327 127.156 211.327H141.66C144.843 211.327 147.413 213.897 147.413 217.08V233.053C147.413 236.235 144.843 238.806 141.66 238.806H138.355" stroke="#263238" stroke-miterlimit="10" stroke-linecap="round"/>
<path d="M136.336 251.535H141.66C144.843 251.535 147.413 254.106 147.413 257.349V273.261C147.413 276.444 144.843 279.075 141.66 279.075H127.156C123.912 279.075 121.342 276.444 121.342 273.261V257.349C121.342 254.106 123.912 251.535 127.156 251.535H131.073" stroke="#263238" stroke-miterlimit="10" stroke-linecap="round"/>
<path d="M121.342 303.127V297.558C121.342 294.375 123.912 291.744 127.156 291.744H141.66C144.843 291.744 147.413 294.375 147.413 297.558V313.47C147.413 316.713 144.843 319.284 141.66 319.284H127.156C123.912 319.284 121.342 316.713 121.342 313.47V307.533" stroke="#263238" stroke-miterlimit="10" stroke-linecap="round"/>
<path d="M133.888 232.869C133.806 232.869 133.745 232.869 133.704 232.869C133.092 232.808 132.541 232.441 132.174 231.89L126.85 222.894C126.299 221.976 126.605 220.752 127.523 220.201C128.441 219.65 129.665 219.956 130.216 220.874L134.194 227.667L148.514 211.694C149.188 210.898 150.412 210.837 151.268 211.572C152.064 212.306 152.125 213.53 151.391 214.326L135.295 232.196C134.928 232.624 134.438 232.869 133.888 232.869Z" fill="#92E3A9" stroke="#263238" stroke-miterlimit="10"/>
<path d="M163.876 141.314C163.876 141.314 162.285 138.07 161.367 136.785C160.449 135.5 157.327 135.072 156.593 134.888C155.797 134.704 151.942 133.48 150.963 132.807C150.045 132.134 149.677 132.746 149.739 133.419C149.861 134.704 151.452 135.622 151.942 135.622C152.737 135.561 152.921 136.418 152.921 136.418C152.921 136.418 147.046 137.458 146.74 137.336C146.373 137.152 143.741 136.234 143.007 136.785C142.578 137.091 142.639 137.152 142.701 138.009C142.762 138.193 142.333 139.478 142.456 139.662C142.578 140.029 142.578 140.335 142.945 140.702C143.435 141.13 144.292 141.498 144.475 141.681C145.21 142.66 147.964 144.313 149.127 144.435C150.289 144.496 158.919 143.578 158.919 143.578L168.343 159.858L177.891 154.778L163.876 141.314Z" fill="white" stroke="#263238" stroke-miterlimit="10" stroke-linecap="round"/>
<path d="M151.329 141.804C150.656 142.232 149.738 142.844 149.738 142.844L148.331 142.783C148.331 142.783 145.577 140.947 145.026 141.13C145.026 141.13 144.414 140.886 144.475 141.681" fill="white"/>
<path d="M151.329 141.804C150.656 142.232 149.738 142.844 149.738 142.844L148.331 142.783C148.331 142.783 145.577 140.947 145.026 141.13C145.026 141.13 144.414 140.886 144.475 141.681" stroke="#263238" stroke-miterlimit="10" stroke-linecap="round"/>
<path d="M159.836 139.906C159.836 139.906 158.735 139.05 156.899 138.988C156.103 138.927 154.084 140.212 152.737 141.008" fill="white"/>
<path d="M159.836 139.906C159.836 139.906 158.735 139.05 156.899 138.988C156.103 138.927 154.084 140.212 152.737 141.008" stroke="#263238" stroke-miterlimit="10" stroke-linecap="round"/>
<path d="M152.921 136.418L156.226 136.54Z" fill="white"/>
<path d="M152.921 136.418L156.226 136.54" stroke="#263238" stroke-miterlimit="10" stroke-linecap="round"/>
<path d="M142.7 138.009C142.7 138.009 142.945 137.336 143.741 137.52C144.597 137.642 146.678 138.866 146.678 138.866L150.595 138.438" fill="white"/>
<path d="M142.7 138.009C142.7 138.009 142.945 137.336 143.741 137.52C144.597 137.642 146.678 138.866 146.678 138.866L150.595 138.438" stroke="#263238" stroke-miterlimit="10" stroke-linecap="round"/>
<path d="M142.456 139.662C142.456 139.662 142.762 138.988 143.496 139.111C144.17 139.233 146.862 140.58 146.862 140.58L150.779 140.274" fill="white"/>
<path d="M142.456 139.662C142.456 139.662 142.762 138.988 143.496 139.111C144.17 139.233 146.862 140.58 146.862 140.58L150.779 140.274" stroke="#263238" stroke-miterlimit="10" stroke-linecap="round"/>
<path d="M282.726 166.528C282.726 166.528 284.134 163.836 284.868 162.367C285.603 160.959 288.602 160.041 289.275 159.735C290.009 159.429 293.62 157.593 294.477 156.798C295.272 156.002 295.762 156.492 295.823 157.226C295.884 158.45 294.477 159.674 293.926 159.735C293.192 159.796 293.13 160.653 293.13 160.653C293.13 160.653 299.128 160.714 299.434 160.531C299.74 160.347 302.188 159.001 302.984 159.429C303.473 159.613 303.412 159.674 303.473 160.531C303.473 160.776 304.085 161.938 304.024 162.183C303.963 162.55 304.024 162.856 303.718 163.224C303.29 163.713 302.494 164.264 302.372 164.448C301.76 165.61 299.312 167.63 298.21 167.936C297.108 168.242 287.377 168.732 287.377 168.732L277.769 181.4L271.037 175.831L282.726 166.528Z" fill="white" stroke="#263238" stroke-miterlimit="10" stroke-linecap="round"/>
<path d="M295.578 165.733C296.313 166.039 297.353 166.467 297.353 166.467L298.699 166.161C298.699 166.161 301.086 163.958 301.698 164.019C301.698 164.019 302.249 163.713 302.371 164.448" fill="white"/>
<path d="M295.578 165.733C296.313 166.039 297.353 166.467 297.353 166.467L298.699 166.161C298.699 166.161 301.086 163.958 301.698 164.019C301.698 164.019 302.249 163.713 302.371 164.448" stroke="#263238" stroke-miterlimit="10" stroke-linecap="round"/>
<path d="M286.888 165.243C286.888 165.243 287.867 164.203 289.642 163.835C290.437 163.652 292.579 164.57 294.048 165.182" stroke="#263238" stroke-miterlimit="10" stroke-linecap="round"/>
<path d="M293.13 160.653L289.887 161.326Z" fill="white"/>
<path d="M293.13 160.653L289.887 161.326" stroke="#263238" stroke-miterlimit="10" stroke-linecap="round"/>
<path d="M303.473 160.531C303.473 160.531 303.167 159.919 302.371 160.225C301.576 160.531 299.74 162.061 299.74 162.061L295.762 162.244" fill="white"/>
<path d="M303.473 160.531C303.473 160.531 303.167 159.919 302.371 160.225C301.576 160.531 299.74 162.061 299.74 162.061L295.762 162.244" stroke="#263238" stroke-miterlimit="10" stroke-linecap="round"/>
<path d="M304.024 162.183C304.024 162.183 303.596 161.571 302.923 161.755C302.25 161.999 299.802 163.774 299.802 163.774L295.885 164.08" fill="white"/>
<path d="M304.024 162.183C304.024 162.183 303.596 161.571 302.923 161.755C302.25 161.999 299.802 163.774 299.802 163.774L295.885 164.08" stroke="#263238" stroke-miterlimit="10" stroke-linecap="round"/>
<path d="M185.295 222.282C185.295 222.282 183.092 228.83 183.337 236.908C183.643 244.987 186.764 262.857 185.479 265.611C184.194 268.304 179.665 269.161 176.36 275.281C173.116 281.34 164.732 311.205 164.793 312.062C164.855 312.858 171.831 315.306 171.831 315.306C171.831 315.306 191.232 281.829 197.107 275.342C202.982 268.794 208.674 233.665 208.674 233.665C208.674 233.665 206.654 271.915 206.899 278.402C207.144 284.889 213.264 300.74 214.855 307.227C216.507 313.653 216.752 329.014 216.752 329.014C216.752 329.014 222.383 330.361 224.28 329.81C226.177 329.259 226.177 329.259 226.177 329.259C226.177 329.259 226.544 309.492 227.095 303.066C227.646 296.578 223.974 276.627 223.974 276.627C223.974 276.627 234.255 243.09 235.051 230.727C235.051 230.727 231.807 215.672 225.381 210.531C218.894 205.39 208.429 203.004 201.697 205.39C194.965 207.838 185.295 222.282 185.295 222.282Z" fill="#263238" stroke="#263238" stroke-miterlimit="10"/>
<path d="M211.305 214.019C211.305 214.693 210.815 215.182 210.142 215.182C209.469 215.182 208.979 214.693 208.979 214.019C208.979 213.346 209.469 212.857 210.142 212.857C210.815 212.857 211.305 213.346 211.305 214.019Z" fill="white" stroke="#263238" stroke-miterlimit="10" stroke-linecap="round"/>
<path d="M208.98 214.02C208.98 214.02 206.899 223.812 207.266 225.28C207.572 226.688 209.102 226.504 209.102 226.504L210.387 222.588" stroke="#858585" stroke-miterlimit="10"/>
<path d="M201.085 213.163C201.085 213.163 204.879 212.918 206.899 213.469" stroke="#858585" stroke-miterlimit="10"/>
<path d="M197.046 222.894C197.046 222.894 200.167 227.912 202.86 231.094" stroke="#858585" stroke-miterlimit="10"/>
<path d="M221.525 224.485L215.222 228.891" stroke="#858585" stroke-miterlimit="10"/>
<path d="M216.752 329.014C216.752 329.014 216.936 336.481 216.752 337.399C216.569 338.378 213.876 347.925 213.876 350.557C213.876 353.25 217.12 358.39 219.812 357.228C222.505 356.126 225.504 352.699 226.116 350.006C226.667 347.313 224.77 338.929 224.77 337.399C224.77 335.93 224.77 327.913 224.77 327.913L216.752 329.014Z" fill="white" stroke="#263238" stroke-miterlimit="10"/>
<path d="M219.812 357.228C222.505 356.126 225.504 352.699 226.116 350.006C226.422 348.537 225.994 345.232 225.504 342.356C224.831 344.131 223.668 346.762 223.056 347.558C222.077 348.66 219.629 350.006 217.303 348.292C215.039 346.579 215.834 342.356 215.834 342.356L215.467 342.417C214.733 345.477 213.876 349.088 213.876 350.557C213.876 353.25 217.12 358.39 219.812 357.228Z" fill="#9ACEEE" stroke="#263238" stroke-miterlimit="10"/>
<path d="M164.793 312.062C164.793 312.062 162.774 316.652 161.611 319.528C160.509 322.405 159.836 323.384 159.897 326.199C159.959 328.953 158.123 334.4 160.938 338.072C162.774 340.52 166.874 340.826 168.404 335.869C169.873 330.973 168.771 322.405 168.833 321.426C168.894 320.446 170.363 315.183 170.363 315.183L164.793 312.062Z" fill="white" stroke="#263238" stroke-miterlimit="10"/>
<path d="M159.897 326.199C159.959 328.953 158.123 334.4 160.938 338.072C162.774 340.52 166.874 340.826 168.404 335.869C169.016 333.788 169.2 331.095 169.2 328.586C168.221 330.606 167.119 332.564 165.773 333.849C163.937 335.502 161.978 333.237 161.244 331.462C160.571 329.688 161.611 319.528 161.611 319.528C160.509 322.405 159.836 323.384 159.897 326.199Z" fill="#9ACEEE" stroke="#263238" stroke-miterlimit="10"/>
<path d="M272.078 174.974C271.466 174.729 270.854 175.096 270.854 175.096L269.752 176.688C269.752 176.688 269.752 176.688 268.834 176.688C268.222 176.688 267.365 177.85 266.937 178.462L265.896 179.258C265.856 179.258 265.794 179.278 265.713 179.319C264.734 179.809 263.142 180.604 263.142 180.604C263.142 180.604 262.469 178.707 261.49 178.34C260.878 178.095 259.776 177.606 258.981 177.238L246.741 161.755C247.23 159.858 232.175 153.921 232.175 153.921L211.49 149.943L200.535 152.269L188.601 161.449C188.234 161.143 187.254 160.408 186.642 160.653C185.908 160.898 184.439 162.856 184.439 162.856C184.439 162.856 184.072 160.898 183.521 160.47C183.032 160.102 181.44 159.613 181.44 159.613C181.44 159.613 182.052 159.001 181.44 158.022C180.828 156.981 179.421 156.369 179.054 155.757C178.686 155.145 178.319 153.738 177.707 153.493C177.034 153.248 177.034 153.248 177.034 153.248C177.034 153.248 172.444 155.39 170.057 157.226C167.732 159.123 166.814 158.878 167.181 160.225C167.548 161.632 168.466 161.694 168.466 161.694C168.466 161.694 167.426 163.101 168.221 164.386C168.956 165.61 169.935 166.222 169.935 166.222C169.935 166.222 171.098 168.487 171.71 169.711C172.138 170.568 173.974 171.914 175.198 172.832C177.768 176.994 179.788 180.176 180.278 180.727C182.236 182.869 182.97 182.746 184.868 181.706C185.908 181.094 190.926 178.34 197.964 175.096L199.127 183.42C199.127 183.42 190.131 202.759 189.335 204.534C188.601 206.37 189.886 207.043 189.886 207.043C189.886 207.043 185.786 213.163 185.541 214.448C185.296 215.733 185.296 222.282 185.296 222.282L195.7 215.733C201.147 211.327 203.228 210.225 203.901 210.286C206.838 210.47 212.714 211.082 214.182 212.184C214.182 212.184 234.134 232.257 234.562 233.481C235.052 234.644 236.276 229.381 237.01 227.116C237.744 224.913 236.704 223.812 236.704 223.812C236.704 223.812 238.234 222.771 238.05 221.119C237.989 220.078 238.662 218.671 237.989 214.693C237.989 212.122 236.398 205.635 236.459 204.84C236.52 203.86 234.623 193.028 234.99 191.804C237.561 186.602 238.356 188.438 241.722 183.848C247.965 188.01 263.448 198.658 264.305 198.291C265.59 197.74 269.385 194.619 272.812 189.846L274.587 187.704C274.587 187.704 274.587 187.704 275.566 186.296C276.606 184.95 276.974 183.297 277.463 182.93C277.953 182.563 278.198 181.706 278.198 180.727C278.198 179.686 272.751 175.219 272.078 174.974Z" fill="#9ACEEE" stroke="#263238" stroke-miterlimit="10"/>
<path d="M241.723 183.848L238.234 181.951" stroke="#263238" stroke-miterlimit="10"/>
<path d="M216.998 193.395C217.732 194.313 218.528 195.231 219.324 196.088" stroke="#263238" stroke-miterlimit="10"/>
<path d="M210.938 182.991C210.938 182.991 212.468 186.663 215.039 190.641" stroke="#263238" stroke-miterlimit="10"/>
<path d="M213.142 189.662L216.324 195.048" stroke="#263238" stroke-miterlimit="10"/>
<path d="M213.692 154.35C213.692 154.35 211.612 160.164 213.325 165.366" stroke="#263238" stroke-miterlimit="10"/>
<path d="M217.242 211.816C217.242 211.816 230.094 219.956 233.95 222.404Z" fill="white"/>
<path d="M217.242 211.816C217.242 211.816 230.094 219.956 233.95 222.404" stroke="#263238" stroke-miterlimit="10"/>
<path d="M187.561 216.712L200.902 210.592Z" fill="white"/>
<path d="M187.561 216.712L200.902 210.592" stroke="#263238" stroke-miterlimit="10"/>
<path d="M214.183 212.184C214.183 212.184 219.323 214.448 223.363 216.896Z" fill="white"/>
<path d="M214.183 212.184C214.183 212.184 219.323 214.448 223.363 216.896" stroke="#263238" stroke-miterlimit="10"/>
<path d="M201.085 164.937C201.085 164.937 199.066 169.527 198.209 173.566Z" fill="white"/>
<path d="M201.085 164.937C201.085 164.937 199.066 169.527 198.209 173.566" stroke="#263238" stroke-miterlimit="10"/>
<path d="M184.255 164.019C184.255 164.019 182.113 169.405 181.93 172.036Z" fill="#B8B8B8"/>
<path d="M184.255 164.019C184.255 164.019 182.113 169.405 181.93 172.036" stroke="#263238" stroke-miterlimit="10"/>
<path d="M180.094 159.123C180.094 159.123 173.729 163.53 172.383 166.712Z" fill="#B8B8B8"/>
<path d="M180.094 159.123C180.094 159.123 173.729 163.53 172.383 166.712" stroke="#263238" stroke-miterlimit="10"/>
<path d="M170.18 160.837C170.18 160.837 174.035 157.226 177.401 156.308Z" fill="#B8B8B8"/>
<path d="M170.18 160.837C170.18 160.837 174.035 157.226 177.401 156.308" stroke="#263238" stroke-miterlimit="10"/>
<path d="M182.787 164.815C182.787 164.815 177.585 173.75 178.564 174.056C179.543 174.423 180.4 171.914 180.4 171.914" fill="#B8B8B8"/>
<path d="M182.787 164.815C182.787 164.815 177.585 173.75 178.564 174.056C179.543 174.423 180.4 171.914 180.4 171.914" stroke="#263238" stroke-miterlimit="10"/>
<path d="M262.959 182.379C262.959 182.379 263.265 189.968 264.122 189.601C264.979 189.295 264.305 185.256 264.305 185.256" stroke="#263238" stroke-miterlimit="10"/>
<path d="M267.487 179.686C267.487 179.686 270.18 184.582 271.343 185.439" stroke="#263238" stroke-miterlimit="10"/>
<path d="M269.752 176.688C269.752 176.688 274.342 180.054 275.505 181.706" stroke="#263238" stroke-miterlimit="10"/>
<path d="M261.245 179.87C261.245 179.87 259.226 186.051 260.572 189.417" stroke="#263238" stroke-miterlimit="10"/>
<path d="M223.056 149.637L221.282 148.536C221.282 148.536 219.69 148.046 218.222 150.739C218.222 150.739 216.263 154.594 216.141 158.389C216.018 161.877 219.568 164.57 225.749 161.694C226.361 161.449 226.973 161.143 227.524 160.776C230.094 159.001 233.154 155.696 233.154 155.696L234.501 145.537C231.808 147.128 226.055 148.78 223.056 149.637Z" fill="white" stroke="#263238" stroke-miterlimit="10"/>
<path d="M229.054 147.556C229.054 147.556 220.425 156.124 216.569 157.654L218.344 149.576L229.299 146.332L229.054 147.556Z" fill="#263238" stroke="#263238" stroke-miterlimit="10"/>
<path d="M230.401 125.953C230.401 125.953 232.359 126.198 233.889 130.298C235.358 134.337 234.991 135.439 236.337 137.52C237.745 139.6 239.03 142.905 238.479 145.965C237.989 148.964 237.561 153.126 234.929 154.717C230.707 157.287 224.954 153.003 221.833 151.29C218.773 149.576 216.141 146.271 215.162 144.802C214.244 143.334 212.163 139.784 212.285 135.928C212.469 132.134 216.875 127.728 219.262 126.565C221.649 125.463 225.872 124.79 230.401 125.953Z" fill="white" stroke="#263238" stroke-miterlimit="10"/>
<path d="M219.752 122.403C219.752 122.403 221.037 119.098 216.325 118.364C211.612 117.691 211.918 120.69 210.939 120.934C209.899 121.24 207.512 115.855 202.922 117.691C198.393 119.527 199.984 123.933 199.801 125.096C199.678 126.198 197.414 123.382 195.394 127.054C193.436 130.788 195.394 133.174 195.088 134.031C194.843 134.888 190.743 132.868 189.764 135.99C188.723 139.111 191.294 141.681 191.294 142.232C191.294 142.783 189.029 142.783 188.479 144.925C187.928 147.067 189.458 148.23 189.58 149.331C189.764 150.494 187.316 152.697 189.335 155.88C191.294 159.001 195.088 157.96 194.966 159.49C194.843 161.082 193.681 162.367 195.394 163.468C197.108 164.631 198.944 162.612 198.944 162.612C198.944 162.612 198.515 160.102 199.25 160.102C199.984 160.102 201.943 161.938 203.35 160.959C204.819 159.919 204.513 157.348 205.676 157.104C206.777 156.798 206.227 157.654 209.348 157.226C212.469 156.798 212.041 152.82 212.041 152.085C212.041 151.412 214.183 152.391 215.345 150.555C216.447 148.719 215.59 147.25 215.59 147.25C215.59 147.25 212.347 141.865 212.775 138.744" fill="#263238"/>
<path d="M219.752 122.403C219.752 122.403 221.037 119.098 216.325 118.364C211.612 117.691 211.918 120.69 210.939 120.934C209.899 121.24 207.512 115.855 202.922 117.691C198.393 119.527 199.984 123.933 199.801 125.096C199.678 126.198 197.414 123.382 195.394 127.054C193.436 130.788 195.394 133.174 195.088 134.031C194.843 134.888 190.743 132.868 189.764 135.99C188.723 139.111 191.294 141.681 191.294 142.232C191.294 142.783 189.029 142.783 188.479 144.925C187.928 147.067 189.458 148.23 189.58 149.331C189.764 150.494 187.316 152.697 189.335 155.88C191.294 159.001 195.088 157.96 194.966 159.49C194.843 161.082 193.681 162.367 195.394 163.468C197.108 164.631 198.944 162.612 198.944 162.612C198.944 162.612 198.515 160.102 199.25 160.102C199.984 160.102 201.943 161.938 203.35 160.959C204.819 159.919 204.513 157.348 205.676 157.104C206.777 156.798 206.227 157.654 209.348 157.226C212.469 156.798 212.041 152.82 212.041 152.085C212.041 151.412 214.183 152.391 215.345 150.555C216.447 148.719 215.59 147.25 215.59 147.25C215.59 147.25 212.347 141.865 212.775 138.744" stroke="#263238" stroke-miterlimit="10"/>
<path d="M217.488 146.271C217.488 146.271 216.937 144.558 218.283 142.477C219.568 140.396 219.752 138.193 218.222 137.275C216.753 136.296 216.141 134.766 218.344 132.256C220.548 129.747 224.464 132.746 226.79 130.665C229.116 128.523 229.116 126.993 230.89 126.687C232.665 126.442 233.216 128.646 233.216 128.646C233.216 128.646 231.502 123.688 225.994 122.403C220.548 121.118 211.918 125.035 209.164 132.501C206.349 140.029 215.59 147.25 215.59 147.25C215.59 147.25 216.202 147.434 217.488 146.271Z" fill="#263238" stroke="#263238" stroke-miterlimit="10"/>
<path d="M231.625 139.417L235.787 145.108L232.604 146.271" stroke="#263238" stroke-miterlimit="10"/>
<path d="M235.419 148.719C235.419 148.719 233.522 150.433 231.625 149.576" stroke="#263238" stroke-miterlimit="10"/>
<path d="M227.647 141.987C227.953 142.66 227.891 143.334 227.585 143.456C227.218 143.64 226.667 143.211 226.423 142.538C226.117 141.865 226.117 141.253 226.484 141.069C226.851 140.947 227.341 141.314 227.647 141.987Z" fill="#263238"/>
<path d="M234.378 137.764C234.684 138.376 234.684 139.05 234.317 139.233C233.95 139.356 233.46 138.988 233.154 138.315C232.848 137.642 232.909 136.969 233.215 136.846C233.583 136.663 234.134 137.091 234.378 137.764Z" fill="#263238"/>
<path d="M223.179 141.008C223.179 141.008 224.158 137.581 226.912 137.948" stroke="#263238" stroke-width="2" stroke-miterlimit="10" stroke-linecap="round"/>
<path d="M230.768 135.378C230.768 135.378 231.441 133.113 233.522 133.48" stroke="#263238" stroke-width="2" stroke-miterlimit="10" stroke-linecap="round"/>
<path d="M218.222 146.516C218.222 146.516 214.672 142.722 214.121 146.088C213.509 149.515 216.631 150.433 218.222 150.739C219.752 151.045 220.303 149.331 220.303 149.331" fill="white"/>
<path d="M218.222 146.516C218.222 146.516 214.672 142.722 214.121 146.088C213.509 149.515 216.631 150.433 218.222 150.739C219.752 151.045 220.303 149.331 220.303 149.331" stroke="#263238" stroke-miterlimit="10"/>
<path d="M326.912 126.81C326.912 147.373 310.266 164.019 289.703 164.019C269.14 164.019 252.493 147.373 252.493 126.81C252.493 106.246 269.14 89.6 289.703 89.6C310.266 89.6 326.912 106.246 326.912 126.81Z" fill="white" stroke="#263238" stroke-miterlimit="10"/>
<path d="M318.222 126.81C318.222 142.538 305.431 155.329 289.703 155.329C273.974 155.329 261.184 142.538 261.184 126.81C261.184 111.081 273.974 98.2904 289.703 98.2904C305.431 98.2904 318.222 111.081 318.222 126.81Z" fill="#54AFE7" stroke="#263238" stroke-miterlimit="10"/>
<path d="M308.92 150.249C307.818 150.249 306.717 149.821 305.86 148.964L268.467 111.571C266.814 109.918 266.814 107.226 268.467 105.512C270.119 103.86 272.873 103.86 274.526 105.512L311.919 142.905C313.571 144.619 313.571 147.312 311.919 148.964C311.062 149.821 309.96 150.249 308.92 150.249Z" fill="#263238"/>
<path d="M271.527 150.249C270.425 150.249 269.324 149.821 268.467 148.964C266.814 147.312 266.814 144.619 268.467 142.905L305.86 105.512C307.512 103.86 310.266 103.86 311.919 105.512C313.571 107.226 313.571 109.918 311.919 111.571L274.526 148.964C273.669 149.821 272.567 150.249 271.527 150.249Z" fill="#263238"/>
<path d="M179.482 103.86C179.482 124.423 162.836 141.069 142.273 141.069C121.71 141.069 105.002 124.423 105.002 103.86C105.002 83.2964 121.71 66.65 142.273 66.65C162.836 66.65 179.482 83.2964 179.482 103.86Z" fill="white" stroke="#263238" stroke-miterlimit="10"/>
<path d="M170.731 103.86C170.731 119.588 158.002 132.379 142.273 132.379C126.484 132.379 113.754 119.588 113.754 103.86C113.754 88.1313 126.484 75.3405 142.273 75.3405C158.002 75.3405 170.731 88.1313 170.731 103.86Z" fill="#92E3A9" stroke="#263238" stroke-miterlimit="10"/>
<path fill-rule="evenodd" clip-rule="evenodd" d="M141.11 118.915C140.988 118.915 140.845 118.915 140.682 118.915C139.335 118.792 138.111 117.997 137.438 116.834L125.627 96.944C124.464 94.9244 125.137 92.2928 127.157 91.0688C129.176 89.8448 131.808 90.518 133.032 92.5988L141.845 107.409L173.301 72.3416C174.893 70.5668 177.585 70.4444 179.36 72.0356C181.135 73.6268 181.257 76.3196 179.666 78.0944L144.293 117.507C143.497 118.425 142.334 118.915 141.11 118.915Z" fill="#263238"/>
<path d="M114.745 348.24C113.241 348.24 111.961 347.992 110.905 347.496C109.865 346.984 109.057 346.248 108.481 345.288C107.905 344.312 107.585 343.128 107.521 341.736C107.505 341.08 107.497 340.376 107.497 339.624C107.497 338.872 107.505 338.152 107.521 337.464C107.585 336.088 107.905 334.92 108.481 333.96C109.073 332.984 109.897 332.24 110.953 331.728C112.009 331.216 113.273 330.96 114.745 330.96C115.817 330.96 116.793 331.096 117.673 331.368C118.553 331.64 119.313 332.032 119.953 332.544C120.593 333.056 121.089 333.656 121.441 334.344C121.793 335.032 121.985 335.8 122.017 336.648C122.017 336.792 121.961 336.912 121.849 337.008C121.753 337.104 121.633 337.152 121.489 337.152H118.753C118.561 337.152 118.409 337.104 118.297 337.008C118.185 336.912 118.097 336.752 118.033 336.528C117.793 335.584 117.393 334.936 116.833 334.584C116.273 334.232 115.577 334.056 114.745 334.056C113.753 334.056 112.969 334.328 112.393 334.872C111.817 335.416 111.505 336.32 111.457 337.584C111.409 338.896 111.409 340.24 111.457 341.616C111.505 342.88 111.817 343.784 112.393 344.328C112.969 344.872 113.753 345.144 114.745 345.144C115.577 345.144 116.273 344.968 116.833 344.616C117.409 344.248 117.809 343.6 118.033 342.672C118.097 342.432 118.185 342.272 118.297 342.192C118.409 342.096 118.561 342.048 118.753 342.048H121.489C121.633 342.048 121.753 342.096 121.849 342.192C121.961 342.288 122.017 342.408 122.017 342.552C121.985 343.4 121.793 344.168 121.441 344.856C121.089 345.544 120.593 346.144 119.953 346.656C119.313 347.168 118.553 347.56 117.673 347.832C116.793 348.104 115.817 348.24 114.745 348.24ZM130.162 348.24C128.834 348.24 127.722 348.024 126.826 347.592C125.93 347.144 125.242 346.512 124.762 345.696C124.298 344.88 124.042 343.928 123.994 342.84C123.978 342.52 123.97 342.16 123.97 341.76C123.97 341.344 123.978 340.984 123.994 340.68C124.042 339.576 124.314 338.624 124.81 337.824C125.306 337.008 126.002 336.384 126.898 335.952C127.794 335.504 128.882 335.28 130.162 335.28C131.426 335.28 132.506 335.504 133.402 335.952C134.298 336.384 134.994 337.008 135.49 337.824C135.986 338.624 136.258 339.576 136.306 340.68C136.338 340.984 136.354 341.344 136.354 341.76C136.354 342.16 136.338 342.52 136.306 342.84C136.258 343.928 135.994 344.88 135.514 345.696C135.05 346.512 134.37 347.144 133.474 347.592C132.578 348.024 131.474 348.24 130.162 348.24ZM130.162 345.6C130.946 345.6 131.538 345.36 131.938 344.88C132.338 344.384 132.554 343.664 132.586 342.72C132.602 342.48 132.61 342.16 132.61 341.76C132.61 341.36 132.602 341.04 132.586 340.8C132.554 339.872 132.338 339.16 131.938 338.664C131.538 338.168 130.946 337.92 130.162 337.92C129.378 337.92 128.778 338.168 128.362 338.664C127.962 339.16 127.746 339.872 127.714 340.8C127.698 341.04 127.69 341.36 127.69 341.76C127.69 342.16 127.698 342.48 127.714 342.72C127.746 343.664 127.962 344.384 128.362 344.88C128.778 345.36 129.378 345.6 130.162 345.6ZM139.44 348C139.28 348 139.144 347.944 139.032 347.832C138.92 347.72 138.864 347.576 138.864 347.4V336.12C138.864 335.96 138.92 335.824 139.032 335.712C139.144 335.584 139.28 335.52 139.44 335.52H141.792C141.952 335.52 142.088 335.584 142.2 335.712C142.328 335.824 142.392 335.96 142.392 336.12V337.08C142.792 336.584 143.28 336.2 143.856 335.928C144.448 335.656 145.128 335.52 145.896 335.52H146.928C147.088 335.52 147.224 335.576 147.336 335.688C147.448 335.8 147.504 335.944 147.504 336.12V338.184C147.504 338.36 147.448 338.504 147.336 338.616C147.224 338.728 147.088 338.784 146.928 338.784H144.816C144.112 338.784 143.56 338.984 143.16 339.384C142.76 339.768 142.56 340.32 142.56 341.04V347.4C142.56 347.576 142.504 347.72 142.392 347.832C142.28 347.944 142.136 348 141.96 348H139.44ZM149.869 348C149.709 348 149.573 347.944 149.461 347.832C149.349 347.72 149.293 347.576 149.293 347.4V336.12C149.293 335.96 149.349 335.824 149.461 335.712C149.573 335.584 149.709 335.52 149.869 335.52H152.221C152.381 335.52 152.517 335.584 152.629 335.712C152.757 335.824 152.821 335.96 152.821 336.12V337.08C153.221 336.584 153.709 336.2 154.285 335.928C154.877 335.656 155.557 335.52 156.325 335.52H157.357C157.517 335.52 157.653 335.576 157.765 335.688C157.877 335.8 157.933 335.944 157.933 336.12V338.184C157.933 338.36 157.877 338.504 157.765 338.616C157.653 338.728 157.517 338.784 157.357 338.784H155.245C154.541 338.784 153.989 338.984 153.589 339.384C153.189 339.768 152.989 340.32 152.989 341.04V347.4C152.989 347.576 152.933 347.72 152.821 347.832C152.709 347.944 152.565 348 152.389 348H149.869ZM165.15 348.24C163.31 348.24 161.846 347.728 160.758 346.704C159.686 345.68 159.118 344.192 159.054 342.24C159.054 342.112 159.054 341.944 159.054 341.736C159.054 341.512 159.054 341.336 159.054 341.208C159.118 339.976 159.398 338.92 159.894 338.04C160.39 337.144 161.086 336.464 161.982 336C162.878 335.52 163.926 335.28 165.126 335.28C166.47 335.28 167.59 335.56 168.486 336.12C169.398 336.664 170.078 337.416 170.526 338.376C170.99 339.32 171.222 340.408 171.222 341.64V342.192C171.222 342.352 171.158 342.488 171.03 342.6C170.918 342.712 170.782 342.768 170.622 342.768H162.774C162.774 342.784 162.774 342.816 162.774 342.864C162.774 342.896 162.774 342.928 162.774 342.96C162.79 343.472 162.886 343.944 163.062 344.376C163.254 344.792 163.518 345.128 163.854 345.384C164.206 345.64 164.622 345.768 165.102 345.768C165.502 345.768 165.83 345.712 166.086 345.6C166.342 345.488 166.55 345.352 166.71 345.192C166.886 345.032 167.014 344.896 167.094 344.784C167.238 344.624 167.35 344.528 167.43 344.496C167.526 344.448 167.67 344.424 167.862 344.424H170.358C170.518 344.424 170.646 344.472 170.742 344.568C170.854 344.648 170.902 344.768 170.886 344.928C170.87 345.184 170.734 345.504 170.478 345.888C170.238 346.256 169.878 346.624 169.398 346.992C168.918 347.344 168.318 347.64 167.598 347.88C166.894 348.12 166.078 348.24 165.15 348.24ZM162.774 340.584H167.478V340.536C167.478 339.96 167.382 339.464 167.19 339.048C167.014 338.616 166.75 338.28 166.398 338.04C166.046 337.8 165.622 337.68 165.126 337.68C164.63 337.68 164.206 337.8 163.854 338.04C163.502 338.28 163.23 338.616 163.038 339.048C162.862 339.464 162.774 339.96 162.774 340.536V340.584ZM179.141 353.28C178.709 353.28 178.317 353.208 177.965 353.064C177.629 352.92 177.381 352.752 177.221 352.56C177.077 352.368 177.085 352.2 177.245 352.056L177.677 351.672C177.821 351.544 177.941 351.504 178.037 351.552C178.149 351.616 178.285 351.696 178.445 351.792C178.605 351.888 178.837 351.936 179.141 351.936C179.397 351.936 179.605 351.864 179.765 351.72C179.925 351.576 180.005 351.392 180.005 351.168C180.005 350.96 179.925 350.784 179.765 350.64C179.605 350.496 179.397 350.424 179.141 350.424C178.949 350.424 178.773 350.448 178.613 350.496C178.453 350.56 178.301 350.6 178.157 350.616C178.029 350.632 177.909 350.584 177.797 350.472L177.341 350.016C177.245 349.92 177.205 349.808 177.221 349.68C177.237 349.568 177.285 349.424 177.365 349.248L177.869 348.144C176.477 347.92 175.357 347.344 174.509 346.416C173.661 345.488 173.205 344.264 173.141 342.744C173.125 342.488 173.117 342.168 173.117 341.784C173.117 341.384 173.125 341.056 173.141 340.8C173.189 339.632 173.461 338.64 173.957 337.824C174.469 336.992 175.173 336.36 176.069 335.928C176.965 335.496 177.997 335.28 179.165 335.28C180.237 335.28 181.149 335.432 181.901 335.736C182.653 336.024 183.269 336.392 183.749 336.84C184.229 337.288 184.581 337.76 184.805 338.256C185.045 338.736 185.173 339.16 185.189 339.528C185.205 339.688 185.149 339.832 185.021 339.96C184.909 340.072 184.773 340.128 184.613 340.128H182.045C181.885 340.128 181.757 340.088 181.661 340.008C181.581 339.912 181.501 339.784 181.421 339.624C181.197 339.064 180.909 338.664 180.557 338.424C180.205 338.184 179.765 338.064 179.237 338.064C178.517 338.064 177.949 338.296 177.533 338.76C177.117 339.224 176.893 339.944 176.861 340.92C176.845 341.544 176.845 342.112 176.861 342.624C176.909 343.616 177.133 344.336 177.533 344.784C177.949 345.232 178.517 345.456 179.237 345.456C179.797 345.456 180.245 345.336 180.581 345.096C180.917 344.856 181.197 344.456 181.421 343.896C181.485 343.736 181.565 343.616 181.661 343.536C181.757 343.44 181.885 343.392 182.045 343.392H184.613C184.773 343.392 184.909 343.456 185.021 343.584C185.149 343.696 185.205 343.832 185.189 343.992C185.173 344.328 185.053 344.736 184.829 345.216C184.605 345.696 184.261 346.168 183.797 346.632C183.349 347.08 182.749 347.456 181.997 347.76C181.245 348.064 180.333 348.224 179.261 348.24L178.781 349.224C178.877 349.176 179.005 349.136 179.165 349.104C179.341 349.088 179.477 349.08 179.573 349.08C180.149 349.08 180.605 349.272 180.941 349.656C181.293 350.04 181.469 350.536 181.469 351.144C181.469 351.752 181.261 352.256 180.845 352.656C180.445 353.072 179.877 353.28 179.141 353.28ZM191.215 348.24C190.367 348.24 189.607 348.08 188.935 347.76C188.263 347.424 187.727 346.976 187.327 346.416C186.927 345.856 186.727 345.232 186.727 344.544C186.727 343.408 187.183 342.512 188.095 341.856C189.023 341.2 190.239 340.752 191.743 340.512L194.887 340.056V339.624C194.887 339 194.743 338.52 194.455 338.184C194.167 337.848 193.663 337.68 192.943 337.68C192.415 337.68 191.991 337.784 191.671 337.992C191.351 338.2 191.103 338.472 190.927 338.808C190.799 339.016 190.615 339.12 190.375 339.12H188.095C187.919 339.12 187.783 339.072 187.687 338.976C187.591 338.864 187.551 338.736 187.567 338.592C187.567 338.32 187.671 338 187.879 337.632C188.087 337.264 188.407 336.904 188.839 336.552C189.271 336.184 189.823 335.88 190.495 335.64C191.167 335.4 191.991 335.28 192.967 335.28C193.975 335.28 194.839 335.4 195.559 335.64C196.279 335.88 196.855 336.216 197.287 336.648C197.719 337.08 198.039 337.584 198.247 338.16C198.455 338.72 198.559 339.328 198.559 339.984V347.4C198.559 347.576 198.503 347.72 198.391 347.832C198.279 347.944 198.135 348 197.959 348H195.607C195.447 348 195.311 347.944 195.199 347.832C195.087 347.72 195.031 347.576 195.031 347.4V346.512C194.823 346.816 194.543 347.104 194.191 347.376C193.839 347.632 193.415 347.84 192.919 348C192.439 348.16 191.871 348.24 191.215 348.24ZM192.175 345.744C192.703 345.744 193.175 345.632 193.591 345.408C194.007 345.184 194.335 344.84 194.575 344.376C194.815 343.912 194.935 343.328 194.935 342.624V342.216L192.703 342.576C191.839 342.72 191.207 342.936 190.807 343.224C190.407 343.512 190.207 343.864 190.207 344.28C190.207 344.584 190.295 344.848 190.471 345.072C190.663 345.296 190.911 345.464 191.215 345.576C191.519 345.688 191.839 345.744 192.175 345.744ZM194.311 333.84C193.879 333.84 193.527 333.768 193.255 333.624C192.999 333.48 192.759 333.344 192.535 333.216C192.327 333.072 192.087 333 191.815 333C191.607 333 191.455 333.056 191.359 333.168C191.263 333.28 191.175 333.4 191.095 333.528C191.015 333.656 190.887 333.72 190.711 333.72H189.439C189.327 333.72 189.231 333.68 189.151 333.6C189.071 333.504 189.031 333.408 189.031 333.312C189.031 333.056 189.071 332.776 189.151 332.472C189.247 332.152 189.391 331.848 189.583 331.56C189.791 331.256 190.055 331.008 190.375 330.816C190.695 330.624 191.079 330.528 191.527 330.528C191.959 330.528 192.311 330.6 192.583 330.744C192.855 330.872 193.095 331.008 193.303 331.152C193.527 331.296 193.775 331.368 194.047 331.368C194.255 331.368 194.399 331.304 194.479 331.176C194.575 331.048 194.663 330.928 194.743 330.816C194.839 330.688 194.975 330.624 195.151 330.624H196.399C196.543 330.624 196.647 330.672 196.711 330.768C196.791 330.848 196.831 330.944 196.831 331.056C196.831 331.312 196.783 331.6 196.687 331.92C196.591 332.224 196.439 332.528 196.231 332.832C196.039 333.12 195.783 333.36 195.463 333.552C195.143 333.744 194.759 333.84 194.311 333.84ZM207.177 348.24C205.849 348.24 204.737 348.024 203.841 347.592C202.945 347.144 202.257 346.512 201.777 345.696C201.313 344.88 201.057 343.928 201.009 342.84C200.993 342.52 200.985 342.16 200.985 341.76C200.985 341.344 200.993 340.984 201.009 340.68C201.057 339.576 201.329 338.624 201.825 337.824C202.321 337.008 203.017 336.384 203.913 335.952C204.809 335.504 205.897 335.28 207.177 335.28C208.441 335.28 209.521 335.504 210.417 335.952C211.313 336.384 212.009 337.008 212.505 337.824C213.001 338.624 213.273 339.576 213.321 340.68C213.353 340.984 213.369 341.344 213.369 341.76C213.369 342.16 213.353 342.52 213.321 342.84C213.273 343.928 213.009 344.88 212.529 345.696C212.065 346.512 211.385 347.144 210.489 347.592C209.593 348.024 208.489 348.24 207.177 348.24ZM207.177 345.6C207.961 345.6 208.553 345.36 208.953 344.88C209.353 344.384 209.569 343.664 209.601 342.72C209.617 342.48 209.625 342.16 209.625 341.76C209.625 341.36 209.617 341.04 209.601 340.8C209.569 339.872 209.353 339.16 208.953 338.664C208.553 338.168 207.961 337.92 207.177 337.92C206.393 337.92 205.793 338.168 205.377 338.664C204.977 339.16 204.761 339.872 204.729 340.8C204.713 341.04 204.705 341.36 204.705 341.76C204.705 342.16 204.713 342.48 204.729 342.72C204.761 343.664 204.977 344.384 205.377 344.88C205.793 345.36 206.393 345.6 207.177 345.6ZM226.744 348.24C224.904 348.24 223.44 347.728 222.352 346.704C221.28 345.68 220.712 344.192 220.648 342.24C220.648 342.112 220.648 341.944 220.648 341.736C220.648 341.512 220.648 341.336 220.648 341.208C220.712 339.976 220.992 338.92 221.488 338.04C221.984 337.144 222.68 336.464 223.576 336C224.472 335.52 225.52 335.28 226.72 335.28C228.064 335.28 229.184 335.56 230.08 336.12C230.992 336.664 231.672 337.416 232.12 338.376C232.584 339.32 232.816 340.408 232.816 341.64V342.192C232.816 342.352 232.752 342.488 232.624 342.6C232.512 342.712 232.376 342.768 232.216 342.768H224.368C224.368 342.784 224.368 342.816 224.368 342.864C224.368 342.896 224.368 342.928 224.368 342.96C224.384 343.472 224.48 343.944 224.656 344.376C224.848 344.792 225.112 345.128 225.448 345.384C225.8 345.64 226.216 345.768 226.696 345.768C227.096 345.768 227.424 345.712 227.68 345.6C227.936 345.488 228.144 345.352 228.304 345.192C228.48 345.032 228.608 344.896 228.688 344.784C228.832 344.624 228.944 344.528 229.024 344.496C229.12 344.448 229.264 344.424 229.456 344.424H231.952C232.112 344.424 232.24 344.472 232.336 344.568C232.448 344.648 232.496 344.768 232.48 344.928C232.464 345.184 232.328 345.504 232.072 345.888C231.832 346.256 231.472 346.624 230.992 346.992C230.512 347.344 229.912 347.64 229.192 347.88C228.488 348.12 227.672 348.24 226.744 348.24ZM224.368 340.584H229.072V340.536C229.072 339.96 228.976 339.464 228.784 339.048C228.608 338.616 228.344 338.28 227.992 338.04C227.64 337.8 227.216 337.68 226.72 337.68C226.224 337.68 225.8 337.8 225.448 338.04C225.096 338.28 224.824 338.616 224.632 339.048C224.456 339.464 224.368 339.96 224.368 340.536V340.584ZM109.029 376C108.869 376 108.733 375.944 108.621 375.832C108.509 375.72 108.453 375.576 108.453 375.4V364.12C108.453 363.96 108.509 363.824 108.621 363.712C108.733 363.584 108.869 363.52 109.029 363.52H111.381C111.541 363.52 111.677 363.584 111.789 363.712C111.917 363.824 111.981 363.96 111.981 364.12V365.08C112.381 364.584 112.869 364.2 113.445 363.928C114.037 363.656 114.717 363.52 115.485 363.52H116.517C116.677 363.52 116.813 363.576 116.925 363.688C117.037 363.8 117.093 363.944 117.093 364.12V366.184C117.093 366.36 117.037 366.504 116.925 366.616C116.813 366.728 116.677 366.784 116.517 366.784H114.405C113.701 366.784 113.149 366.984 112.749 367.384C112.349 367.768 112.149 368.32 112.149 369.04V375.4C112.149 375.576 112.093 375.72 111.981 375.832C111.869 375.944 111.725 376 111.549 376H109.029ZM124.31 376.24C122.47 376.24 121.006 375.728 119.918 374.704C118.846 373.68 118.278 372.192 118.214 370.24C118.214 370.112 118.214 369.944 118.214 369.736C118.214 369.512 118.214 369.336 118.214 369.208C118.278 367.976 118.558 366.92 119.054 366.04C119.55 365.144 120.246 364.464 121.142 364C122.038 363.52 123.086 363.28 124.286 363.28C125.63 363.28 126.75 363.56 127.646 364.12C128.558 364.664 129.238 365.416 129.686 366.376C130.15 367.32 130.382 368.408 130.382 369.64V370.192C130.382 370.352 130.318 370.488 130.19 370.6C130.078 370.712 129.942 370.768 129.782 370.768H121.934C121.934 370.784 121.934 370.816 121.934 370.864C121.934 370.896 121.934 370.928 121.934 370.96C121.95 371.472 122.046 371.944 122.222 372.376C122.414 372.792 122.678 373.128 123.014 373.384C123.366 373.64 123.782 373.768 124.262 373.768C124.662 373.768 124.99 373.712 125.246 373.6C125.502 373.488 125.71 373.352 125.87 373.192C126.046 373.032 126.174 372.896 126.254 372.784C126.398 372.624 126.51 372.528 126.59 372.496C126.686 372.448 126.83 372.424 127.022 372.424H129.518C129.678 372.424 129.806 372.472 129.902 372.568C130.014 372.648 130.062 372.768 130.046 372.928C130.03 373.184 129.894 373.504 129.638 373.888C129.398 374.256 129.038 374.624 128.558 374.992C128.078 375.344 127.478 375.64 126.758 375.88C126.054 376.12 125.238 376.24 124.31 376.24ZM121.934 368.584H126.638V368.536C126.638 367.96 126.542 367.464 126.35 367.048C126.174 366.616 125.91 366.28 125.558 366.04C125.206 365.8 124.782 365.68 124.286 365.68C123.79 365.68 123.366 365.8 123.014 366.04C122.662 366.28 122.39 366.616 122.198 367.048C122.022 367.464 121.934 367.96 121.934 368.536V368.584ZM137.702 376.24C136.71 376.24 135.854 376.128 135.134 375.904C134.43 375.664 133.854 375.376 133.406 375.04C132.974 374.704 132.646 374.368 132.422 374.032C132.214 373.68 132.102 373.384 132.086 373.144C132.07 372.968 132.126 372.824 132.254 372.712C132.382 372.6 132.51 372.544 132.638 372.544H134.966C135.014 372.544 135.062 372.552 135.11 372.568C135.158 372.584 135.206 372.624 135.254 372.688C135.462 372.832 135.678 373 135.902 373.192C136.126 373.368 136.382 373.52 136.67 373.648C136.974 373.776 137.35 373.84 137.798 373.84C138.326 373.84 138.774 373.736 139.142 373.528C139.51 373.304 139.694 372.992 139.694 372.592C139.694 372.304 139.606 372.064 139.43 371.872C139.27 371.68 138.958 371.504 138.494 371.344C138.03 371.184 137.342 371.008 136.43 370.816C135.566 370.624 134.83 370.368 134.222 370.048C133.614 369.728 133.158 369.328 132.854 368.848C132.55 368.352 132.398 367.76 132.398 367.072C132.398 366.448 132.59 365.848 132.974 365.272C133.374 364.696 133.958 364.224 134.726 363.856C135.494 363.472 136.454 363.28 137.606 363.28C138.486 363.28 139.254 363.392 139.91 363.616C140.582 363.824 141.142 364.096 141.59 364.432C142.038 364.752 142.374 365.088 142.598 365.44C142.838 365.776 142.966 366.072 142.982 366.328C142.998 366.488 142.95 366.624 142.838 366.736C142.726 366.848 142.598 366.904 142.454 366.904H140.318C140.238 366.904 140.166 366.896 140.102 366.88C140.038 366.848 139.982 366.808 139.934 366.76C139.742 366.632 139.542 366.488 139.334 366.328C139.142 366.152 138.91 366 138.638 365.872C138.366 365.744 138.014 365.68 137.582 365.68C137.054 365.68 136.646 365.8 136.358 366.04C136.086 366.264 135.95 366.552 135.95 366.904C135.95 367.128 136.022 367.336 136.166 367.528C136.31 367.72 136.606 367.896 137.054 368.056C137.502 368.216 138.182 368.384 139.094 368.56C140.182 368.752 141.046 369.04 141.686 369.424C142.326 369.808 142.782 370.256 143.054 370.768C143.342 371.264 143.486 371.8 143.486 372.376C143.486 373.128 143.262 373.8 142.814 374.392C142.366 374.968 141.71 375.424 140.846 375.76C139.998 376.08 138.95 376.24 137.702 376.24ZM150.373 376.24C149.445 376.24 148.621 376.032 147.901 375.616C147.197 375.184 146.645 374.568 146.245 373.768C145.861 372.952 145.669 371.968 145.669 370.816V364.12C145.669 363.944 145.725 363.8 145.837 363.688C145.949 363.576 146.085 363.52 146.245 363.52H148.789C148.965 363.52 149.109 363.576 149.221 363.688C149.333 363.8 149.389 363.944 149.389 364.12V370.672C149.389 372.464 150.173 373.36 151.741 373.36C152.493 373.36 153.085 373.128 153.517 372.664C153.965 372.184 154.189 371.52 154.189 370.672V364.12C154.189 363.944 154.245 363.8 154.357 363.688C154.469 363.576 154.613 363.52 154.789 363.52H157.333C157.493 363.52 157.629 363.576 157.741 363.688C157.853 363.8 157.909 363.944 157.909 364.12V375.4C157.909 375.576 157.853 375.72 157.741 375.832C157.629 375.944 157.493 376 157.333 376H154.981C154.805 376 154.661 375.944 154.549 375.832C154.437 375.72 154.381 375.576 154.381 375.4V374.464C153.965 375.04 153.429 375.48 152.773 375.784C152.117 376.088 151.317 376.24 150.373 376.24ZM161.53 376C161.354 376 161.21 375.944 161.098 375.832C160.986 375.72 160.93 375.576 160.93 375.4V359.56C160.93 359.384 160.986 359.24 161.098 359.128C161.21 359.016 161.354 358.96 161.53 358.96H163.93C164.09 358.96 164.226 359.016 164.338 359.128C164.45 359.24 164.506 359.384 164.506 359.56V375.4C164.506 375.576 164.45 375.72 164.338 375.832C164.226 375.944 164.09 376 163.93 376H161.53ZM173.539 376C172.547 376 171.699 375.84 170.995 375.52C170.291 375.184 169.755 374.672 169.387 373.984C169.035 373.296 168.859 372.432 168.859 371.392V366.352H166.987C166.811 366.352 166.667 366.296 166.555 366.184C166.443 366.072 166.387 365.928 166.387 365.752V364.12C166.387 363.944 166.443 363.8 166.555 363.688C166.667 363.576 166.811 363.52 166.987 363.52H168.859V359.56C168.859 359.384 168.915 359.24 169.027 359.128C169.155 359.016 169.299 358.96 169.459 358.96H171.811C171.987 358.96 172.131 359.016 172.243 359.128C172.355 359.24 172.411 359.384 172.411 359.56V363.52H175.411C175.571 363.52 175.707 363.576 175.819 363.688C175.931 363.8 175.987 363.944 175.987 364.12V365.752C175.987 365.928 175.931 366.072 175.819 366.184C175.707 366.296 175.571 366.352 175.411 366.352H172.411V371.104C172.411 371.712 172.515 372.192 172.723 372.544C172.947 372.88 173.331 373.048 173.875 373.048H175.627C175.787 373.048 175.923 373.104 176.035 373.216C176.147 373.328 176.203 373.464 176.203 373.624V375.4C176.203 375.576 176.147 375.72 176.035 375.832C175.923 375.944 175.787 376 175.627 376H173.539ZM181.969 376.24C181.121 376.24 180.361 376.08 179.689 375.76C179.017 375.424 178.481 374.976 178.081 374.416C177.681 373.856 177.481 373.232 177.481 372.544C177.481 371.408 177.937 370.512 178.849 369.856C179.777 369.2 180.993 368.752 182.497 368.512L185.641 368.056V367.624C185.641 367 185.497 366.52 185.209 366.184C184.921 365.848 184.417 365.68 183.697 365.68C183.169 365.68 182.745 365.784 182.425 365.992C182.105 366.2 181.857 366.472 181.681 366.808C181.553 367.016 181.369 367.12 181.129 367.12H178.849C178.673 367.12 178.537 367.072 178.441 366.976C178.345 366.864 178.305 366.736 178.321 366.592C178.321 366.32 178.425 366 178.633 365.632C178.841 365.264 179.161 364.904 179.593 364.552C180.025 364.184 180.577 363.88 181.249 363.64C181.921 363.4 182.745 363.28 183.721 363.28C184.729 363.28 185.593 363.4 186.313 363.64C187.033 363.88 187.609 364.216 188.041 364.648C188.473 365.08 188.793 365.584 189.001 366.16C189.209 366.72 189.313 367.328 189.313 367.984V375.4C189.313 375.576 189.257 375.72 189.145 375.832C189.033 375.944 188.889 376 188.713 376H186.361C186.201 376 186.065 375.944 185.953 375.832C185.841 375.72 185.785 375.576 185.785 375.4V374.512C185.577 374.816 185.297 375.104 184.945 375.376C184.593 375.632 184.169 375.84 183.673 376C183.193 376.16 182.625 376.24 181.969 376.24ZM182.929 373.744C183.457 373.744 183.929 373.632 184.345 373.408C184.761 373.184 185.089 372.84 185.329 372.376C185.569 371.912 185.689 371.328 185.689 370.624V370.216L183.457 370.576C182.593 370.72 181.961 370.936 181.561 371.224C181.161 371.512 180.961 371.864 180.961 372.28C180.961 372.584 181.049 372.848 181.225 373.072C181.417 373.296 181.665 373.464 181.969 373.576C182.273 373.688 182.593 373.744 182.929 373.744ZM196.851 376.24C196.051 376.24 195.339 376.112 194.715 375.856C194.091 375.584 193.563 375.2 193.131 374.704C192.699 374.192 192.371 373.592 192.147 372.904C191.923 372.2 191.787 371.424 191.739 370.576C191.723 370.272 191.715 370 191.715 369.76C191.715 369.504 191.723 369.232 191.739 368.944C191.771 368.112 191.899 367.352 192.123 366.664C192.363 365.976 192.691 365.384 193.107 364.888C193.539 364.376 194.067 363.984 194.691 363.712C195.331 363.424 196.051 363.28 196.851 363.28C197.683 363.28 198.395 363.424 198.987 363.712C199.579 363.984 200.067 364.344 200.451 364.792V359.56C200.451 359.384 200.507 359.24 200.619 359.128C200.731 359.016 200.875 358.96 201.051 358.96H203.523C203.683 358.96 203.819 359.016 203.931 359.128C204.043 359.24 204.099 359.384 204.099 359.56V375.4C204.099 375.576 204.043 375.72 203.931 375.832C203.819 375.944 203.683 376 203.523 376H201.219C201.059 376 200.923 375.944 200.811 375.832C200.699 375.72 200.643 375.576 200.643 375.4V374.584C200.243 375.064 199.739 375.464 199.131 375.784C198.523 376.088 197.763 376.24 196.851 376.24ZM197.955 373.36C198.547 373.36 199.019 373.224 199.371 372.952C199.739 372.68 200.003 372.336 200.163 371.92C200.339 371.504 200.435 371.056 200.451 370.576C200.483 370.272 200.499 369.968 200.499 369.664C200.499 369.36 200.483 369.064 200.451 368.776C200.435 368.328 200.339 367.912 200.163 367.528C199.987 367.128 199.715 366.8 199.347 366.544C198.995 366.288 198.531 366.16 197.955 366.16C197.347 366.16 196.867 366.296 196.515 366.568C196.163 366.824 195.907 367.168 195.747 367.6C195.603 368.032 195.515 368.504 195.483 369.016C195.435 369.512 195.435 370.008 195.483 370.504C195.515 371.016 195.603 371.488 195.747 371.92C195.907 372.352 196.163 372.704 196.515 372.976C196.867 373.232 197.347 373.36 197.955 373.36ZM212.861 376.24C211.533 376.24 210.421 376.024 209.525 375.592C208.629 375.144 207.941 374.512 207.461 373.696C206.997 372.88 206.741 371.928 206.693 370.84C206.677 370.52 206.669 370.16 206.669 369.76C206.669 369.344 206.677 368.984 206.693 368.68C206.741 367.576 207.013 366.624 207.509 365.824C208.005 365.008 208.701 364.384 209.597 363.952C210.493 363.504 211.581 363.28 212.861 363.28C214.125 363.28 215.205 363.504 216.101 363.952C216.997 364.384 217.693 365.008 218.189 365.824C218.685 366.624 218.957 367.576 219.005 368.68C219.037 368.984 219.053 369.344 219.053 369.76C219.053 370.16 219.037 370.52 219.005 370.84C218.957 371.928 218.693 372.88 218.213 373.696C217.749 374.512 217.069 375.144 216.173 375.592C215.277 376.024 214.173 376.24 212.861 376.24ZM212.861 373.6C213.645 373.6 214.237 373.36 214.637 372.88C215.037 372.384 215.253 371.664 215.285 370.72C215.301 370.48 215.309 370.16 215.309 369.76C215.309 369.36 215.301 369.04 215.285 368.8C215.253 367.872 215.037 367.16 214.637 366.664C214.237 366.168 213.645 365.92 212.861 365.92C212.077 365.92 211.477 366.168 211.061 366.664C210.661 367.16 210.445 367.872 210.413 368.8C210.397 369.04 210.389 369.36 210.389 369.76C210.389 370.16 210.397 370.48 210.413 370.72C210.445 371.664 210.661 372.384 211.061 372.88C211.477 373.36 212.077 373.6 212.861 373.6ZM226.483 376.24C225.491 376.24 224.635 376.128 223.915 375.904C223.211 375.664 222.635 375.376 222.187 375.04C221.755 374.704 221.427 374.368 221.203 374.032C220.995 373.68 220.883 373.384 220.867 373.144C220.851 372.968 220.907 372.824 221.035 372.712C221.163 372.6 221.291 372.544 221.419 372.544H223.747C223.795 372.544 223.843 372.552 223.891 372.568C223.939 372.584 223.987 372.624 224.035 372.688C224.243 372.832 224.459 373 224.683 373.192C224.907 373.368 225.163 373.52 225.451 373.648C225.755 373.776 226.131 373.84 226.579 373.84C227.107 373.84 227.555 373.736 227.923 373.528C228.291 373.304 228.475 372.992 228.475 372.592C228.475 372.304 228.387 372.064 228.211 371.872C228.051 371.68 227.739 371.504 227.275 371.344C226.811 371.184 226.123 371.008 225.211 370.816C224.347 370.624 223.611 370.368 223.003 370.048C222.395 369.728 221.939 369.328 221.635 368.848C221.331 368.352 221.179 367.76 221.179 367.072C221.179 366.448 221.371 365.848 221.755 365.272C222.155 364.696 222.739 364.224 223.507 363.856C224.275 363.472 225.235 363.28 226.387 363.28C227.267 363.28 228.035 363.392 228.691 363.616C229.363 363.824 229.923 364.096 230.371 364.432C230.819 364.752 231.155 365.088 231.379 365.44C231.619 365.776 231.747 366.072 231.763 366.328C231.779 366.488 231.731 366.624 231.619 366.736C231.507 366.848 231.379 366.904 231.235 366.904H229.099C229.019 366.904 228.947 366.896 228.883 366.88C228.819 366.848 228.763 366.808 228.715 366.76C228.523 366.632 228.323 366.488 228.115 366.328C227.923 366.152 227.691 366 227.419 365.872C227.147 365.744 226.795 365.68 226.363 365.68C225.835 365.68 225.427 365.8 225.139 366.04C224.867 366.264 224.731 366.552 224.731 366.904C224.731 367.128 224.803 367.336 224.947 367.528C225.091 367.72 225.387 367.896 225.835 368.056C226.283 368.216 226.963 368.384 227.875 368.56C228.963 368.752 229.827 369.04 230.467 369.424C231.107 369.808 231.563 370.256 231.835 370.768C232.123 371.264 232.267 371.8 232.267 372.376C232.267 373.128 232.043 373.8 231.595 374.392C231.147 374.968 230.491 375.424 229.627 375.76C228.779 376.08 227.731 376.24 226.483 376.24Z" fill="black" fill-opacity="0.2"/>
<path d="M114.745 346.24C113.241 346.24 111.961 345.992 110.905 345.496C109.865 344.984 109.057 344.248 108.481 343.288C107.905 342.312 107.585 341.128 107.521 339.736C107.505 339.08 107.497 338.376 107.497 337.624C107.497 336.872 107.505 336.152 107.521 335.464C107.585 334.088 107.905 332.92 108.481 331.96C109.073 330.984 109.897 330.24 110.953 329.728C112.009 329.216 113.273 328.96 114.745 328.96C115.817 328.96 116.793 329.096 117.673 329.368C118.553 329.64 119.313 330.032 119.953 330.544C120.593 331.056 121.089 331.656 121.441 332.344C121.793 333.032 121.985 333.8 122.017 334.648C122.017 334.792 121.961 334.912 121.849 335.008C121.753 335.104 121.633 335.152 121.489 335.152H118.753C118.561 335.152 118.409 335.104 118.297 335.008C118.185 334.912 118.097 334.752 118.033 334.528C117.793 333.584 117.393 332.936 116.833 332.584C116.273 332.232 115.577 332.056 114.745 332.056C113.753 332.056 112.969 332.328 112.393 332.872C111.817 333.416 111.505 334.32 111.457 335.584C111.409 336.896 111.409 338.24 111.457 339.616C111.505 340.88 111.817 341.784 112.393 342.328C112.969 342.872 113.753 343.144 114.745 343.144C115.577 343.144 116.273 342.968 116.833 342.616C117.409 342.248 117.809 341.6 118.033 340.672C118.097 340.432 118.185 340.272 118.297 340.192C118.409 340.096 118.561 340.048 118.753 340.048H121.489C121.633 340.048 121.753 340.096 121.849 340.192C121.961 340.288 122.017 340.408 122.017 340.552C121.985 341.4 121.793 342.168 121.441 342.856C121.089 343.544 120.593 344.144 119.953 344.656C119.313 345.168 118.553 345.56 117.673 345.832C116.793 346.104 115.817 346.24 114.745 346.24ZM130.162 346.24C128.834 346.24 127.722 346.024 126.826 345.592C125.93 345.144 125.242 344.512 124.762 343.696C124.298 342.88 124.042 341.928 123.994 340.84C123.978 340.52 123.97 340.16 123.97 339.76C123.97 339.344 123.978 338.984 123.994 338.68C124.042 337.576 124.314 336.624 124.81 335.824C125.306 335.008 126.002 334.384 126.898 333.952C127.794 333.504 128.882 333.28 130.162 333.28C131.426 333.28 132.506 333.504 133.402 333.952C134.298 334.384 134.994 335.008 135.49 335.824C135.986 336.624 136.258 337.576 136.306 338.68C136.338 338.984 136.354 339.344 136.354 339.76C136.354 340.16 136.338 340.52 136.306 340.84C136.258 341.928 135.994 342.88 135.514 343.696C135.05 344.512 134.37 345.144 133.474 345.592C132.578 346.024 131.474 346.24 130.162 346.24ZM130.162 343.6C130.946 343.6 131.538 343.36 131.938 342.88C132.338 342.384 132.554 341.664 132.586 340.72C132.602 340.48 132.61 340.16 132.61 339.76C132.61 339.36 132.602 339.04 132.586 338.8C132.554 337.872 132.338 337.16 131.938 336.664C131.538 336.168 130.946 335.92 130.162 335.92C129.378 335.92 128.778 336.168 128.362 336.664C127.962 337.16 127.746 337.872 127.714 338.8C127.698 339.04 127.69 339.36 127.69 339.76C127.69 340.16 127.698 340.48 127.714 340.72C127.746 341.664 127.962 342.384 128.362 342.88C128.778 343.36 129.378 343.6 130.162 343.6ZM139.44 346C139.28 346 139.144 345.944 139.032 345.832C138.92 345.72 138.864 345.576 138.864 345.4V334.12C138.864 333.96 138.92 333.824 139.032 333.712C139.144 333.584 139.28 333.52 139.44 333.52H141.792C141.952 333.52 142.088 333.584 142.2 333.712C142.328 333.824 142.392 333.96 142.392 334.12V335.08C142.792 334.584 143.28 334.2 143.856 333.928C144.448 333.656 145.128 333.52 145.896 333.52H146.928C147.088 333.52 147.224 333.576 147.336 333.688C147.448 333.8 147.504 333.944 147.504 334.12V336.184C147.504 336.36 147.448 336.504 147.336 336.616C147.224 336.728 147.088 336.784 146.928 336.784H144.816C144.112 336.784 143.56 336.984 143.16 337.384C142.76 337.768 142.56 338.32 142.56 339.04V345.4C142.56 345.576 142.504 345.72 142.392 345.832C142.28 345.944 142.136 346 141.96 346H139.44ZM149.869 346C149.709 346 149.573 345.944 149.461 345.832C149.349 345.72 149.293 345.576 149.293 345.4V334.12C149.293 333.96 149.349 333.824 149.461 333.712C149.573 333.584 149.709 333.52 149.869 333.52H152.221C152.381 333.52 152.517 333.584 152.629 333.712C152.757 333.824 152.821 333.96 152.821 334.12V335.08C153.221 334.584 153.709 334.2 154.285 333.928C154.877 333.656 155.557 333.52 156.325 333.52H157.357C157.517 333.52 157.653 333.576 157.765 333.688C157.877 333.8 157.933 333.944 157.933 334.12V336.184C157.933 336.36 157.877 336.504 157.765 336.616C157.653 336.728 157.517 336.784 157.357 336.784H155.245C154.541 336.784 153.989 336.984 153.589 337.384C153.189 337.768 152.989 338.32 152.989 339.04V345.4C152.989 345.576 152.933 345.72 152.821 345.832C152.709 345.944 152.565 346 152.389 346H149.869ZM165.15 346.24C163.31 346.24 161.846 345.728 160.758 344.704C159.686 343.68 159.118 342.192 159.054 340.24C159.054 340.112 159.054 339.944 159.054 339.736C159.054 339.512 159.054 339.336 159.054 339.208C159.118 337.976 159.398 336.92 159.894 336.04C160.39 335.144 161.086 334.464 161.982 334C162.878 333.52 163.926 333.28 165.126 333.28C166.47 333.28 167.59 333.56 168.486 334.12C169.398 334.664 170.078 335.416 170.526 336.376C170.99 337.32 171.222 338.408 171.222 339.64V340.192C171.222 340.352 171.158 340.488 171.03 340.6C170.918 340.712 170.782 340.768 170.622 340.768H162.774C162.774 340.784 162.774 340.816 162.774 340.864C162.774 340.896 162.774 340.928 162.774 340.96C162.79 341.472 162.886 341.944 163.062 342.376C163.254 342.792 163.518 343.128 163.854 343.384C164.206 343.64 164.622 343.768 165.102 343.768C165.502 343.768 165.83 343.712 166.086 343.6C166.342 343.488 166.55 343.352 166.71 343.192C166.886 343.032 167.014 342.896 167.094 342.784C167.238 342.624 167.35 342.528 167.43 342.496C167.526 342.448 167.67 342.424 167.862 342.424H170.358C170.518 342.424 170.646 342.472 170.742 342.568C170.854 342.648 170.902 342.768 170.886 342.928C170.87 343.184 170.734 343.504 170.478 343.888C170.238 344.256 169.878 344.624 169.398 344.992C168.918 345.344 168.318 345.64 167.598 345.88C166.894 346.12 166.078 346.24 165.15 346.24ZM162.774 338.584H167.478V338.536C167.478 337.96 167.382 337.464 167.19 337.048C167.014 336.616 166.75 336.28 166.398 336.04C166.046 335.8 165.622 335.68 165.126 335.68C164.63 335.68 164.206 335.8 163.854 336.04C163.502 336.28 163.23 336.616 163.038 337.048C162.862 337.464 162.774 337.96 162.774 338.536V338.584ZM179.141 351.28C178.709 351.28 178.317 351.208 177.965 351.064C177.629 350.92 177.381 350.752 177.221 350.56C177.077 350.368 177.085 350.2 177.245 350.056L177.677 349.672C177.821 349.544 177.941 349.504 178.037 349.552C178.149 349.616 178.285 349.696 178.445 349.792C178.605 349.888 178.837 349.936 179.141 349.936C179.397 349.936 179.605 349.864 179.765 349.72C179.925 349.576 180.005 349.392 180.005 349.168C180.005 348.96 179.925 348.784 179.765 348.64C179.605 348.496 179.397 348.424 179.141 348.424C178.949 348.424 178.773 348.448 178.613 348.496C178.453 348.56 178.301 348.6 178.157 348.616C178.029 348.632 177.909 348.584 177.797 348.472L177.341 348.016C177.245 347.92 177.205 347.808 177.221 347.68C177.237 347.568 177.285 347.424 177.365 347.248L177.869 346.144C176.477 345.92 175.357 345.344 174.509 344.416C173.661 343.488 173.205 342.264 173.141 340.744C173.125 340.488 173.117 340.168 173.117 339.784C173.117 339.384 173.125 339.056 173.141 338.8C173.189 337.632 173.461 336.64 173.957 335.824C174.469 334.992 175.173 334.36 176.069 333.928C176.965 333.496 177.997 333.28 179.165 333.28C180.237 333.28 181.149 333.432 181.901 333.736C182.653 334.024 183.269 334.392 183.749 334.84C184.229 335.288 184.581 335.76 184.805 336.256C185.045 336.736 185.173 337.16 185.189 337.528C185.205 337.688 185.149 337.832 185.021 337.96C184.909 338.072 184.773 338.128 184.613 338.128H182.045C181.885 338.128 181.757 338.088 181.661 338.008C181.581 337.912 181.501 337.784 181.421 337.624C181.197 337.064 180.909 336.664 180.557 336.424C180.205 336.184 179.765 336.064 179.237 336.064C178.517 336.064 177.949 336.296 177.533 336.76C177.117 337.224 176.893 337.944 176.861 338.92C176.845 339.544 176.845 340.112 176.861 340.624C176.909 341.616 177.133 342.336 177.533 342.784C177.949 343.232 178.517 343.456 179.237 343.456C179.797 343.456 180.245 343.336 180.581 343.096C180.917 342.856 181.197 342.456 181.421 341.896C181.485 341.736 181.565 341.616 181.661 341.536C181.757 341.44 181.885 341.392 182.045 341.392H184.613C184.773 341.392 184.909 341.456 185.021 341.584C185.149 341.696 185.205 341.832 185.189 341.992C185.173 342.328 185.053 342.736 184.829 343.216C184.605 343.696 184.261 344.168 183.797 344.632C183.349 345.08 182.749 345.456 181.997 345.76C181.245 346.064 180.333 346.224 179.261 346.24L178.781 347.224C178.877 347.176 179.005 347.136 179.165 347.104C179.341 347.088 179.477 347.08 179.573 347.08C180.149 347.08 180.605 347.272 180.941 347.656C181.293 348.04 181.469 348.536 181.469 349.144C181.469 349.752 181.261 350.256 180.845 350.656C180.445 351.072 179.877 351.28 179.141 351.28ZM191.215 346.24C190.367 346.24 189.607 346.08 188.935 345.76C188.263 345.424 187.727 344.976 187.327 344.416C186.927 343.856 186.727 343.232 186.727 342.544C186.727 341.408 187.183 340.512 188.095 339.856C189.023 339.2 190.239 338.752 191.743 338.512L194.887 338.056V337.624C194.887 337 194.743 336.52 194.455 336.184C194.167 335.848 193.663 335.68 192.943 335.68C192.415 335.68 191.991 335.784 191.671 335.992C191.351 336.2 191.103 336.472 190.927 336.808C190.799 337.016 190.615 337.12 190.375 337.12H188.095C187.919 337.12 187.783 337.072 187.687 336.976C187.591 336.864 187.551 336.736 187.567 336.592C187.567 336.32 187.671 336 187.879 335.632C188.087 335.264 188.407 334.904 188.839 334.552C189.271 334.184 189.823 333.88 190.495 333.64C191.167 333.4 191.991 333.28 192.967 333.28C193.975 333.28 194.839 333.4 195.559 333.64C196.279 333.88 196.855 334.216 197.287 334.648C197.719 335.08 198.039 335.584 198.247 336.16C198.455 336.72 198.559 337.328 198.559 337.984V345.4C198.559 345.576 198.503 345.72 198.391 345.832C198.279 345.944 198.135 346 197.959 346H195.607C195.447 346 195.311 345.944 195.199 345.832C195.087 345.72 195.031 345.576 195.031 345.4V344.512C194.823 344.816 194.543 345.104 194.191 345.376C193.839 345.632 193.415 345.84 192.919 346C192.439 346.16 191.871 346.24 191.215 346.24ZM192.175 343.744C192.703 343.744 193.175 343.632 193.591 343.408C194.007 343.184 194.335 342.84 194.575 342.376C194.815 341.912 194.935 341.328 194.935 340.624V340.216L192.703 340.576C191.839 340.72 191.207 340.936 190.807 341.224C190.407 341.512 190.207 341.864 190.207 342.28C190.207 342.584 190.295 342.848 190.471 343.072C190.663 343.296 190.911 343.464 191.215 343.576C191.519 343.688 191.839 343.744 192.175 343.744ZM194.311 331.84C193.879 331.84 193.527 331.768 193.255 331.624C192.999 331.48 192.759 331.344 192.535 331.216C192.327 331.072 192.087 331 191.815 331C191.607 331 191.455 331.056 191.359 331.168C191.263 331.28 191.175 331.4 191.095 331.528C191.015 331.656 190.887 331.72 190.711 331.72H189.439C189.327 331.72 189.231 331.68 189.151 331.6C189.071 331.504 189.031 331.408 189.031 331.312C189.031 331.056 189.071 330.776 189.151 330.472C189.247 330.152 189.391 329.848 189.583 329.56C189.791 329.256 190.055 329.008 190.375 328.816C190.695 328.624 191.079 328.528 191.527 328.528C191.959 328.528 192.311 328.6 192.583 328.744C192.855 328.872 193.095 329.008 193.303 329.152C193.527 329.296 193.775 329.368 194.047 329.368C194.255 329.368 194.399 329.304 194.479 329.176C194.575 329.048 194.663 328.928 194.743 328.816C194.839 328.688 194.975 328.624 195.151 328.624H196.399C196.543 328.624 196.647 328.672 196.711 328.768C196.791 328.848 196.831 328.944 196.831 329.056C196.831 329.312 196.783 329.6 196.687 329.92C196.591 330.224 196.439 330.528 196.231 330.832C196.039 331.12 195.783 331.36 195.463 331.552C195.143 331.744 194.759 331.84 194.311 331.84ZM207.177 346.24C205.849 346.24 204.737 346.024 203.841 345.592C202.945 345.144 202.257 344.512 201.777 343.696C201.313 342.88 201.057 341.928 201.009 340.84C200.993 340.52 200.985 340.16 200.985 339.76C200.985 339.344 200.993 338.984 201.009 338.68C201.057 337.576 201.329 336.624 201.825 335.824C202.321 335.008 203.017 334.384 203.913 333.952C204.809 333.504 205.897 333.28 207.177 333.28C208.441 333.28 209.521 333.504 210.417 333.952C211.313 334.384 212.009 335.008 212.505 335.824C213.001 336.624 213.273 337.576 213.321 338.68C213.353 338.984 213.369 339.344 213.369 339.76C213.369 340.16 213.353 340.52 213.321 340.84C213.273 341.928 213.009 342.88 212.529 343.696C212.065 344.512 211.385 345.144 210.489 345.592C209.593 346.024 208.489 346.24 207.177 346.24ZM207.177 343.6C207.961 343.6 208.553 343.36 208.953 342.88C209.353 342.384 209.569 341.664 209.601 340.72C209.617 340.48 209.625 340.16 209.625 339.76C209.625 339.36 209.617 339.04 209.601 338.8C209.569 337.872 209.353 337.16 208.953 336.664C208.553 336.168 207.961 335.92 207.177 335.92C206.393 335.92 205.793 336.168 205.377 336.664C204.977 337.16 204.761 337.872 204.729 338.8C204.713 339.04 204.705 339.36 204.705 339.76C204.705 340.16 204.713 340.48 204.729 340.72C204.761 341.664 204.977 342.384 205.377 342.88C205.793 343.36 206.393 343.6 207.177 343.6ZM226.744 346.24C224.904 346.24 223.44 345.728 222.352 344.704C221.28 343.68 220.712 342.192 220.648 340.24C220.648 340.112 220.648 339.944 220.648 339.736C220.648 339.512 220.648 339.336 220.648 339.208C220.712 337.976 220.992 336.92 221.488 336.04C221.984 335.144 222.68 334.464 223.576 334C224.472 333.52 225.52 333.28 226.72 333.28C228.064 333.28 229.184 333.56 230.08 334.12C230.992 334.664 231.672 335.416 232.12 336.376C232.584 337.32 232.816 338.408 232.816 339.64V340.192C232.816 340.352 232.752 340.488 232.624 340.6C232.512 340.712 232.376 340.768 232.216 340.768H224.368C224.368 340.784 224.368 340.816 224.368 340.864C224.368 340.896 224.368 340.928 224.368 340.96C224.384 341.472 224.48 341.944 224.656 342.376C224.848 342.792 225.112 343.128 225.448 343.384C225.8 343.64 226.216 343.768 226.696 343.768C227.096 343.768 227.424 343.712 227.68 343.6C227.936 343.488 228.144 343.352 228.304 343.192C228.48 343.032 228.608 342.896 228.688 342.784C228.832 342.624 228.944 342.528 229.024 342.496C229.12 342.448 229.264 342.424 229.456 342.424H231.952C232.112 342.424 232.24 342.472 232.336 342.568C232.448 342.648 232.496 342.768 232.48 342.928C232.464 343.184 232.328 343.504 232.072 343.888C231.832 344.256 231.472 344.624 230.992 344.992C230.512 345.344 229.912 345.64 229.192 345.88C228.488 346.12 227.672 346.24 226.744 346.24ZM224.368 338.584H229.072V338.536C229.072 337.96 228.976 337.464 228.784 337.048C228.608 336.616 228.344 336.28 227.992 336.04C227.64 335.8 227.216 335.68 226.72 335.68C226.224 335.68 225.8 335.8 225.448 336.04C225.096 336.28 224.824 336.616 224.632 337.048C224.456 337.464 224.368 337.96 224.368 338.536V338.584ZM109.029 374C108.869 374 108.733 373.944 108.621 373.832C108.509 373.72 108.453 373.576 108.453 373.4V362.12C108.453 361.96 108.509 361.824 108.621 361.712C108.733 361.584 108.869 361.52 109.029 361.52H111.381C111.541 361.52 111.677 361.584 111.789 361.712C111.917 361.824 111.981 361.96 111.981 362.12V363.08C112.381 362.584 112.869 362.2 113.445 361.928C114.037 361.656 114.717 361.52 115.485 361.52H116.517C116.677 361.52 116.813 361.576 116.925 361.688C117.037 361.8 117.093 361.944 117.093 362.12V364.184C117.093 364.36 117.037 364.504 116.925 364.616C116.813 364.728 116.677 364.784 116.517 364.784H114.405C113.701 364.784 113.149 364.984 112.749 365.384C112.349 365.768 112.149 366.32 112.149 367.04V373.4C112.149 373.576 112.093 373.72 111.981 373.832C111.869 373.944 111.725 374 111.549 374H109.029ZM124.31 374.24C122.47 374.24 121.006 373.728 119.918 372.704C118.846 371.68 118.278 370.192 118.214 368.24C118.214 368.112 118.214 367.944 118.214 367.736C118.214 367.512 118.214 367.336 118.214 367.208C118.278 365.976 118.558 364.92 119.054 364.04C119.55 363.144 120.246 362.464 121.142 362C122.038 361.52 123.086 361.28 124.286 361.28C125.63 361.28 126.75 361.56 127.646 362.12C128.558 362.664 129.238 363.416 129.686 364.376C130.15 365.32 130.382 366.408 130.382 367.64V368.192C130.382 368.352 130.318 368.488 130.19 368.6C130.078 368.712 129.942 368.768 129.782 368.768H121.934C121.934 368.784 121.934 368.816 121.934 368.864C121.934 368.896 121.934 368.928 121.934 368.96C121.95 369.472 122.046 369.944 122.222 370.376C122.414 370.792 122.678 371.128 123.014 371.384C123.366 371.64 123.782 371.768 124.262 371.768C124.662 371.768 124.99 371.712 125.246 371.6C125.502 371.488 125.71 371.352 125.87 371.192C126.046 371.032 126.174 370.896 126.254 370.784C126.398 370.624 126.51 370.528 126.59 370.496C126.686 370.448 126.83 370.424 127.022 370.424H129.518C129.678 370.424 129.806 370.472 129.902 370.568C130.014 370.648 130.062 370.768 130.046 370.928C130.03 371.184 129.894 371.504 129.638 371.888C129.398 372.256 129.038 372.624 128.558 372.992C128.078 373.344 127.478 373.64 126.758 373.88C126.054 374.12 125.238 374.24 124.31 374.24ZM121.934 366.584H126.638V366.536C126.638 365.96 126.542 365.464 126.35 365.048C126.174 364.616 125.91 364.28 125.558 364.04C125.206 363.8 124.782 363.68 124.286 363.68C123.79 363.68 123.366 363.8 123.014 364.04C122.662 364.28 122.39 364.616 122.198 365.048C122.022 365.464 121.934 365.96 121.934 366.536V366.584ZM137.702 374.24C136.71 374.24 135.854 374.128 135.134 373.904C134.43 373.664 133.854 373.376 133.406 373.04C132.974 372.704 132.646 372.368 132.422 372.032C132.214 371.68 132.102 371.384 132.086 371.144C132.07 370.968 132.126 370.824 132.254 370.712C132.382 370.6 132.51 370.544 132.638 370.544H134.966C135.014 370.544 135.062 370.552 135.11 370.568C135.158 370.584 135.206 370.624 135.254 370.688C135.462 370.832 135.678 371 135.902 371.192C136.126 371.368 136.382 371.52 136.67 371.648C136.974 371.776 137.35 371.84 137.798 371.84C138.326 371.84 138.774 371.736 139.142 371.528C139.51 371.304 139.694 370.992 139.694 370.592C139.694 370.304 139.606 370.064 139.43 369.872C139.27 369.68 138.958 369.504 138.494 369.344C138.03 369.184 137.342 369.008 136.43 368.816C135.566 368.624 134.83 368.368 134.222 368.048C133.614 367.728 133.158 367.328 132.854 366.848C132.55 366.352 132.398 365.76 132.398 365.072C132.398 364.448 132.59 363.848 132.974 363.272C133.374 362.696 133.958 362.224 134.726 361.856C135.494 361.472 136.454 361.28 137.606 361.28C138.486 361.28 139.254 361.392 139.91 361.616C140.582 361.824 141.142 362.096 141.59 362.432C142.038 362.752 142.374 363.088 142.598 363.44C142.838 363.776 142.966 364.072 142.982 364.328C142.998 364.488 142.95 364.624 142.838 364.736C142.726 364.848 142.598 364.904 142.454 364.904H140.318C140.238 364.904 140.166 364.896 140.102 364.88C140.038 364.848 139.982 364.808 139.934 364.76C139.742 364.632 139.542 364.488 139.334 364.328C139.142 364.152 138.91 364 138.638 363.872C138.366 363.744 138.014 363.68 137.582 363.68C137.054 363.68 136.646 363.8 136.358 364.04C136.086 364.264 135.95 364.552 135.95 364.904C135.95 365.128 136.022 365.336 136.166 365.528C136.31 365.72 136.606 365.896 137.054 366.056C137.502 366.216 138.182 366.384 139.094 366.56C140.182 366.752 141.046 367.04 141.686 367.424C142.326 367.808 142.782 368.256 143.054 368.768C143.342 369.264 143.486 369.8 143.486 370.376C143.486 371.128 143.262 371.8 142.814 372.392C142.366 372.968 141.71 373.424 140.846 373.76C139.998 374.08 138.95 374.24 137.702 374.24ZM150.373 374.24C149.445 374.24 148.621 374.032 147.901 373.616C147.197 373.184 146.645 372.568 146.245 371.768C145.861 370.952 145.669 369.968 145.669 368.816V362.12C145.669 361.944 145.725 361.8 145.837 361.688C145.949 361.576 146.085 361.52 146.245 361.52H148.789C148.965 361.52 149.109 361.576 149.221 361.688C149.333 361.8 149.389 361.944 149.389 362.12V368.672C149.389 370.464 150.173 371.36 151.741 371.36C152.493 371.36 153.085 371.128 153.517 370.664C153.965 370.184 154.189 369.52 154.189 368.672V362.12C154.189 361.944 154.245 361.8 154.357 361.688C154.469 361.576 154.613 361.52 154.789 361.52H157.333C157.493 361.52 157.629 361.576 157.741 361.688C157.853 361.8 157.909 361.944 157.909 362.12V373.4C157.909 373.576 157.853 373.72 157.741 373.832C157.629 373.944 157.493 374 157.333 374H154.981C154.805 374 154.661 373.944 154.549 373.832C154.437 373.72 154.381 373.576 154.381 373.4V372.464C153.965 373.04 153.429 373.48 152.773 373.784C152.117 374.088 151.317 374.24 150.373 374.24ZM161.53 374C161.354 374 161.21 373.944 161.098 373.832C160.986 373.72 160.93 373.576 160.93 373.4V357.56C160.93 357.384 160.986 357.24 161.098 357.128C161.21 357.016 161.354 356.96 161.53 356.96H163.93C164.09 356.96 164.226 357.016 164.338 357.128C164.45 357.24 164.506 357.384 164.506 357.56V373.4C164.506 373.576 164.45 373.72 164.338 373.832C164.226 373.944 164.09 374 163.93 374H161.53ZM173.539 374C172.547 374 171.699 373.84 170.995 373.52C170.291 373.184 169.755 372.672 169.387 371.984C169.035 371.296 168.859 370.432 168.859 369.392V364.352H166.987C166.811 364.352 166.667 364.296 166.555 364.184C166.443 364.072 166.387 363.928 166.387 363.752V362.12C166.387 361.944 166.443 361.8 166.555 361.688C166.667 361.576 166.811 361.52 166.987 361.52H168.859V357.56C168.859 357.384 168.915 357.24 169.027 357.128C169.155 357.016 169.299 356.96 169.459 356.96H171.811C171.987 356.96 172.131 357.016 172.243 357.128C172.355 357.24 172.411 357.384 172.411 357.56V361.52H175.411C175.571 361.52 175.707 361.576 175.819 361.688C175.931 361.8 175.987 361.944 175.987 362.12V363.752C175.987 363.928 175.931 364.072 175.819 364.184C175.707 364.296 175.571 364.352 175.411 364.352H172.411V369.104C172.411 369.712 172.515 370.192 172.723 370.544C172.947 370.88 173.331 371.048 173.875 371.048H175.627C175.787 371.048 175.923 371.104 176.035 371.216C176.147 371.328 176.203 371.464 176.203 371.624V373.4C176.203 373.576 176.147 373.72 176.035 373.832C175.923 373.944 175.787 374 175.627 374H173.539ZM181.969 374.24C181.121 374.24 180.361 374.08 179.689 373.76C179.017 373.424 178.481 372.976 178.081 372.416C177.681 371.856 177.481 371.232 177.481 370.544C177.481 369.408 177.937 368.512 178.849 367.856C179.777 367.2 180.993 366.752 182.497 366.512L185.641 366.056V365.624C185.641 365 185.497 364.52 185.209 364.184C184.921 363.848 184.417 363.68 183.697 363.68C183.169 363.68 182.745 363.784 182.425 363.992C182.105 364.2 181.857 364.472 181.681 364.808C181.553 365.016 181.369 365.12 181.129 365.12H178.849C178.673 365.12 178.537 365.072 178.441 364.976C178.345 364.864 178.305 364.736 178.321 364.592C178.321 364.32 178.425 364 178.633 363.632C178.841 363.264 179.161 362.904 179.593 362.552C180.025 362.184 180.577 361.88 181.249 361.64C181.921 361.4 182.745 361.28 183.721 361.28C184.729 361.28 185.593 361.4 186.313 361.64C187.033 361.88 187.609 362.216 188.041 362.648C188.473 363.08 188.793 363.584 189.001 364.16C189.209 364.72 189.313 365.328 189.313 365.984V373.4C189.313 373.576 189.257 373.72 189.145 373.832C189.033 373.944 188.889 374 188.713 374H186.361C186.201 374 186.065 373.944 185.953 373.832C185.841 373.72 185.785 373.576 185.785 373.4V372.512C185.577 372.816 185.297 373.104 184.945 373.376C184.593 373.632 184.169 373.84 183.673 374C183.193 374.16 182.625 374.24 181.969 374.24ZM182.929 371.744C183.457 371.744 183.929 371.632 184.345 371.408C184.761 371.184 185.089 370.84 185.329 370.376C185.569 369.912 185.689 369.328 185.689 368.624V368.216L183.457 368.576C182.593 368.72 181.961 368.936 181.561 369.224C181.161 369.512 180.961 369.864 180.961 370.28C180.961 370.584 181.049 370.848 181.225 371.072C181.417 371.296 181.665 371.464 181.969 371.576C182.273 371.688 182.593 371.744 182.929 371.744ZM196.851 374.24C196.051 374.24 195.339 374.112 194.715 373.856C194.091 373.584 193.563 373.2 193.131 372.704C192.699 372.192 192.371 371.592 192.147 370.904C191.923 370.2 191.787 369.424 191.739 368.576C191.723 368.272 191.715 368 191.715 367.76C191.715 367.504 191.723 367.232 191.739 366.944C191.771 366.112 191.899 365.352 192.123 364.664C192.363 363.976 192.691 363.384 193.107 362.888C193.539 362.376 194.067 361.984 194.691 361.712C195.331 361.424 196.051 361.28 196.851 361.28C197.683 361.28 198.395 361.424 198.987 361.712C199.579 361.984 200.067 362.344 200.451 362.792V357.56C200.451 357.384 200.507 357.24 200.619 357.128C200.731 357.016 200.875 356.96 201.051 356.96H203.523C203.683 356.96 203.819 357.016 203.931 357.128C204.043 357.24 204.099 357.384 204.099 357.56V373.4C204.099 373.576 204.043 373.72 203.931 373.832C203.819 373.944 203.683 374 203.523 374H201.219C201.059 374 200.923 373.944 200.811 373.832C200.699 373.72 200.643 373.576 200.643 373.4V372.584C200.243 373.064 199.739 373.464 199.131 373.784C198.523 374.088 197.763 374.24 196.851 374.24ZM197.955 371.36C198.547 371.36 199.019 371.224 199.371 370.952C199.739 370.68 200.003 370.336 200.163 369.92C200.339 369.504 200.435 369.056 200.451 368.576C200.483 368.272 200.499 367.968 200.499 367.664C200.499 367.36 200.483 367.064 200.451 366.776C200.435 366.328 200.339 365.912 200.163 365.528C199.987 365.128 199.715 364.8 199.347 364.544C198.995 364.288 198.531 364.16 197.955 364.16C197.347 364.16 196.867 364.296 196.515 364.568C196.163 364.824 195.907 365.168 195.747 365.6C195.603 366.032 195.515 366.504 195.483 367.016C195.435 367.512 195.435 368.008 195.483 368.504C195.515 369.016 195.603 369.488 195.747 369.92C195.907 370.352 196.163 370.704 196.515 370.976C196.867 371.232 197.347 371.36 197.955 371.36ZM212.861 374.24C211.533 374.24 210.421 374.024 209.525 373.592C208.629 373.144 207.941 372.512 207.461 371.696C206.997 370.88 206.741 369.928 206.693 368.84C206.677 368.52 206.669 368.16 206.669 367.76C206.669 367.344 206.677 366.984 206.693 366.68C206.741 365.576 207.013 364.624 207.509 363.824C208.005 363.008 208.701 362.384 209.597 361.952C210.493 361.504 211.581 361.28 212.861 361.28C214.125 361.28 215.205 361.504 216.101 361.952C216.997 362.384 217.693 363.008 218.189 363.824C218.685 364.624 218.957 365.576 219.005 366.68C219.037 366.984 219.053 367.344 219.053 367.76C219.053 368.16 219.037 368.52 219.005 368.84C218.957 369.928 218.693 370.88 218.213 371.696C217.749 372.512 217.069 373.144 216.173 373.592C215.277 374.024 214.173 374.24 212.861 374.24ZM212.861 371.6C213.645 371.6 214.237 371.36 214.637 370.88C215.037 370.384 215.253 369.664 215.285 368.72C215.301 368.48 215.309 368.16 215.309 367.76C215.309 367.36 215.301 367.04 215.285 366.8C215.253 365.872 215.037 365.16 214.637 364.664C214.237 364.168 213.645 363.92 212.861 363.92C212.077 363.92 211.477 364.168 211.061 364.664C210.661 365.16 210.445 365.872 210.413 366.8C210.397 367.04 210.389 367.36 210.389 367.76C210.389 368.16 210.397 368.48 210.413 368.72C210.445 369.664 210.661 370.384 211.061 370.88C211.477 371.36 212.077 371.6 212.861 371.6ZM226.483 374.24C225.491 374.24 224.635 374.128 223.915 373.904C223.211 373.664 222.635 373.376 222.187 373.04C221.755 372.704 221.427 372.368 221.203 372.032C220.995 371.68 220.883 371.384 220.867 371.144C220.851 370.968 220.907 370.824 221.035 370.712C221.163 370.6 221.291 370.544 221.419 370.544H223.747C223.795 370.544 223.843 370.552 223.891 370.568C223.939 370.584 223.987 370.624 224.035 370.688C224.243 370.832 224.459 371 224.683 371.192C224.907 371.368 225.163 371.52 225.451 371.648C225.755 371.776 226.131 371.84 226.579 371.84C227.107 371.84 227.555 371.736 227.923 371.528C228.291 371.304 228.475 370.992 228.475 370.592C228.475 370.304 228.387 370.064 228.211 369.872C228.051 369.68 227.739 369.504 227.275 369.344C226.811 369.184 226.123 369.008 225.211 368.816C224.347 368.624 223.611 368.368 223.003 368.048C222.395 367.728 221.939 367.328 221.635 366.848C221.331 366.352 221.179 365.76 221.179 365.072C221.179 364.448 221.371 363.848 221.755 363.272C222.155 362.696 222.739 362.224 223.507 361.856C224.275 361.472 225.235 361.28 226.387 361.28C227.267 361.28 228.035 361.392 228.691 361.616C229.363 361.824 229.923 362.096 230.371 362.432C230.819 362.752 231.155 363.088 231.379 363.44C231.619 363.776 231.747 364.072 231.763 364.328C231.779 364.488 231.731 364.624 231.619 364.736C231.507 364.848 231.379 364.904 231.235 364.904H229.099C229.019 364.904 228.947 364.896 228.883 364.88C228.819 364.848 228.763 364.808 228.715 364.76C228.523 364.632 228.323 364.488 228.115 364.328C227.923 364.152 227.691 364 227.419 363.872C227.147 363.744 226.795 363.68 226.363 363.68C225.835 363.68 225.427 363.8 225.139 364.04C224.867 364.264 224.731 364.552 224.731 364.904C224.731 365.128 224.803 365.336 224.947 365.528C225.091 365.72 225.387 365.896 225.835 366.056C226.283 366.216 226.963 366.384 227.875 366.56C228.963 366.752 229.827 367.04 230.467 367.424C231.107 367.808 231.563 368.256 231.835 368.768C232.123 369.264 232.267 369.8 232.267 370.376C232.267 371.128 232.043 371.8 231.595 372.392C231.147 372.968 230.491 373.424 229.627 373.76C228.779 374.08 227.731 374.24 226.483 374.24Z" fill="#2A668B"/>
</svg>
