<svg width="425" height="425" viewBox="0 0 425 425" fill="none" xmlns="http://www.w3.org/2000/svg">
<path d="M164.333 27.7548C151.467 37.8991 142.733 52.9946 142.733 52.9946C142.733 52.9946 130.501 48.5926 115.939 49.7025C100.438 50.8839 82.2234 57.8495 70.8268 67.2606C61.2733 75.1498 50.2855 88.4737 46.2201 101.828C40.295 121.291 43.7594 140.511 43.7594 140.511C43.7594 140.511 29.4453 148.024 18.059 165.751C9.77865 178.642 3.64162 200.876 3.84167 214.584C4.05562 229.245 9.97778 246.719 18.8792 259.577C28.6971 273.759 41.5721 282.622 41.5721 282.622C41.5721 282.622 41.6201 292.355 43.1827 304.021C44.4617 313.57 46.7554 324.415 50.868 332.279C56.6263 343.289 67.3916 353.399 77.3887 361.134C89.2786 370.334 100.082 376.174 100.082 376.174C100.082 376.174 100.337 387.049 104.73 395.927C107.937 402.41 114.362 406.804 119.494 410.193C127.304 415.351 140.929 414.504 150.662 410.193C161.068 405.583 167.34 397.299 167.34 397.299C167.34 397.299 178.429 405.682 189.213 408.2C199.997 410.718 211.506 410.649 222.569 410.193C234.411 409.704 241.101 406.413 251.277 400.316C260.177 394.984 271.236 382.758 271.236 382.758C271.236 382.758 283.135 391.917 304.045 390.989C317.493 390.391 339.157 382.537 348.884 375.625C360.285 367.523 372.155 349.568 377.045 334.748C383.289 315.824 380.872 300.454 380.872 300.454C380.872 300.454 392.323 296.666 403.292 281.525C411.916 269.621 420.366 247.871 421.884 234.612C423.826 217.636 418.248 191.001 408.213 174.804C395.483 154.258 377.318 145.998 377.318 145.998C377.318 145.998 381.033 127.732 375.678 107.315C371.863 92.7719 361.149 76.732 351.618 67.2606C342.425 58.1256 325.429 46.88 311.427 43.1182C291.04 37.6415 274.243 42.0208 274.243 42.0208C274.243 42.0208 264.217 30.9517 249.636 22.5423C238.056 15.8633 223.198 11.4172 211.086 11.5684C195.253 11.7661 177.603 17.2913 164.333 27.7548Z" fill="white"/>
<path d="M48.1307 148.928C45.234 139.066 44.435 128.704 45.7853 118.513C47.1356 108.321 50.6052 98.5286 55.9691 89.7691C67.3874 71.117 86.4313 57.3027 107.971 53.3491C119.116 51.3813 130.564 52.0523 141.405 55.3087C145.825 56.6097 147.714 49.6928 143.304 48.3949C132.567 45.245 121.293 44.3794 110.204 45.8537C99.1146 47.3279 88.4543 51.1095 78.9054 56.9562C58.769 69.3441 43.4523 90.2097 39.2399 113.686C37.0188 126.056 37.7043 138.776 41.2419 150.834C42.5369 155.25 49.4286 153.373 48.1307 148.928Z" fill="#E9E9E9"/>
<path d="M49.6282 285.073C39.8027 279.587 31.2334 272.094 24.4743 263.077C17.7152 254.061 12.9165 243.721 10.3883 232.728C4.98358 209.384 9.24664 183.887 22.99 164.185C30.1023 154.122 39.4326 145.842 50.2549 139.989C54.2932 137.778 50.691 131.586 46.6497 133.798C36.0314 139.63 26.7354 147.611 19.3501 157.235C11.9648 166.859 6.65101 177.916 3.74514 189.708C-2.37111 214.772 1.69845 242.65 16.3007 264.089C23.9726 275.338 34.1479 284.641 46.0216 291.264C50.0405 293.504 53.6516 287.317 49.6282 285.073Z" fill="#E9E9E9"/>
<path d="M100.73 367.445C84.6391 362.523 70.8646 352.052 60.4302 338.948C50.7862 327.126 45.0905 312.561 44.1489 297.313C43.8048 289.008 44.9596 280.71 47.5576 272.818C48.9791 268.417 42.0829 266.534 40.6673 270.912C35.6505 286.316 35.7618 302.94 40.9844 318.275C46.8327 335.205 58.3239 349.887 72.4483 360.714C80.3652 366.803 89.3027 371.423 98.8394 374.357C103.248 375.701 105.133 368.787 100.739 367.445H100.73Z" fill="#E9E9E9"/>
<path d="M277.499 369.071C270.939 381.517 260.779 391.679 248.354 398.22C234.581 405.451 218.74 407.779 203.352 406.508C193.842 405.776 184.545 403.314 175.913 399.243C175.089 398.788 174.123 398.668 173.213 398.907C172.303 399.147 171.52 399.727 171.025 400.529C170.555 401.352 170.426 402.327 170.666 403.244C170.905 404.161 171.495 404.947 172.306 405.433C202.789 420.07 242.7 416.324 267.998 393.096C274.333 387.232 279.632 380.331 283.667 372.689C285.83 368.619 279.666 364.994 277.499 369.071Z" fill="#E9E9E9"/>
<path d="M375.293 289.874C378.256 299.789 379.023 310.233 377.539 320.476C376.055 330.719 372.357 340.513 366.703 349.17C355.03 367.412 335.97 381.88 314.562 385.986C303.537 388.006 292.184 387.232 281.533 383.732C277.141 382.328 275.262 389.248 279.633 390.645C290.244 393.969 301.451 394.922 312.468 393.437C323.485 391.951 334.044 388.062 343.404 382.045C363.379 369.416 379.397 348.86 384.056 325.37C386.511 312.938 385.867 300.091 382.184 287.969C380.844 283.567 373.951 285.443 375.293 289.874Z" fill="#E9E9E9"/>
<path d="M374.032 147.619C384.491 153.003 393.625 160.654 400.775 170.016C407.949 179.665 412.982 190.744 415.535 202.508C420.962 226.853 417.252 254.298 403.144 275.112C395.837 285.728 386.002 294.344 374.534 300.177C370.445 302.292 374.055 308.482 378.139 306.367C389.297 300.5 399.035 292.249 406.668 282.195C414.302 272.14 419.643 260.528 422.316 248.176C428.239 221.814 424.558 192.315 409.289 169.695C401.236 157.786 390.36 148.073 377.638 141.428C373.565 139.298 369.948 145.483 374.032 147.619Z" fill="#E9E9E9"/>
<path d="M265.82 47.5987C276.897 44.3236 288.535 43.4142 299.984 44.9291C311.433 46.4441 322.439 50.3499 332.292 56.3946C353.29 69.2604 368.909 90.8101 373.423 115.177C375.68 127.764 374.987 140.706 371.397 152.978C370.12 157.42 377.014 159.317 378.286 154.884C381.741 142.821 382.649 130.167 380.951 117.732C379.253 105.297 374.986 93.3544 368.425 82.6685C354.531 60.151 331.285 43.0597 305.125 38.4011C291.398 35.9558 277.293 36.7407 263.92 40.6938C259.52 41.9947 261.39 48.9161 265.82 47.6062V47.5987Z" fill="#E9E9E9"/>
<path d="M145.439 53.6613C150.34 44.6248 157.079 36.7228 165.219 30.4677C173.36 24.2126 182.719 19.744 192.691 17.3519C213.941 12.2378 237.228 16.0255 255.245 28.5808C264.471 35.0979 272.061 43.6779 277.415 53.6434C279.62 57.694 285.791 54.0795 283.583 50.0244C278.221 40.1991 270.875 31.6042 262.014 24.789C253.154 17.9738 242.975 13.088 232.126 10.4439C209.054 4.8758 183.421 8.79053 163.833 22.5137C153.634 29.6591 145.227 39.082 139.273 50.0408C137.072 54.0945 143.239 57.7164 145.442 53.6598L145.439 53.6613Z" fill="#E9E9E9"/>
<path d="M97.5208 380.14C97.9376 391.043 101.815 402.461 110.444 409.564C119.747 417.225 133.019 418.505 144.395 415.5C151.024 413.762 157.119 410.4 162.134 405.715C165.498 402.556 160.438 397.5 157.082 400.646C153.296 404.051 148.832 406.609 143.986 408.151C139.14 409.693 134.022 410.183 128.973 409.59C124.604 409.234 120.404 407.74 116.787 405.256C113.17 402.772 110.262 399.384 108.35 395.427C106.042 390.655 104.785 385.44 104.666 380.137C104.49 375.538 97.3437 375.516 97.5208 380.137V380.14Z" fill="#E9E9E9"/>
<path d="M230.508 291.76H82.4043V95.036H230.508V291.76Z" fill="#54AFE7"/>
<g opacity="0.1">
<path d="M230.508 291.76H82.4043V95.036H230.508V291.76Z" fill="#020100"/>
</g>
<path d="M234.52 291.76H86.416V95.036H234.52V291.76Z" fill="#54AFE7"/>
<path d="M226.361 280.064L95.5965 281.764L93.3525 104.556L224.049 102.856L226.361 280.064Z" fill="#EBEBEB"/>
<path d="M221.26 282.308L90.5645 279.52L94.3725 102.312L225.068 105.1L221.26 282.308Z" fill="#DBDBDB"/>
<path d="M223.165 280.948H92.4688V103.672H223.165V280.948Z" fill="white"/>
<path fill-rule="evenodd" clip-rule="evenodd" d="M223.164 280.948C223.028 280.948 92.4003 281.084 92.2643 281.084C92.2643 280.948 92.1963 103.808 92.1963 103.672V103.4H92.4683C92.6043 103.4 223.232 103.468 223.368 103.468C223.572 103.604 223.096 280.812 223.164 280.948ZM223.164 280.948L223.028 103.672C224.252 104.08 92.1283 103.876 92.4683 103.944L92.6723 103.672L92.6043 280.948C91.5843 280.676 223.436 280.948 223.164 280.948Z" fill="#DBDBDB"/>
<path d="M109.061 135.156C126.265 134.68 143.673 134.68 160.877 135.156C143.673 135.564 126.265 135.564 109.061 135.156Z" fill="#C7C7C7"/>
<path d="M109.061 142.704C126.265 142.228 143.673 142.228 160.877 142.704C143.673 143.18 126.265 143.18 109.061 142.704Z" fill="#C7C7C7"/>
<path d="M109.061 150.252C126.265 149.776 143.673 149.776 160.877 150.252C143.673 150.728 126.265 150.728 109.061 150.252Z" fill="#C7C7C7"/>
<path d="M109.061 157.8C126.265 157.392 143.673 157.392 160.877 157.8C143.673 158.276 126.265 158.276 109.061 157.8Z" fill="#C7C7C7"/>
<path d="M109.061 165.416C126.265 164.94 143.673 164.94 160.877 165.416C143.673 165.892 126.265 165.892 109.061 165.416Z" fill="#C7C7C7"/>
<path d="M109.061 172.964C126.265 172.488 143.673 172.488 160.877 172.964C143.673 173.44 126.265 173.44 109.061 172.964Z" fill="#C7C7C7"/>
<path d="M109.061 180.512C140.545 180.104 175.565 180.104 207.117 180.512C175.565 180.988 140.545 180.988 109.061 180.512Z" fill="#C7C7C7"/>
<path d="M109.061 188.128C140.545 187.652 175.565 187.652 207.117 188.128C175.565 188.536 140.545 188.536 109.061 188.128Z" fill="#C7C7C7"/>
<path d="M109.061 195.676C140.545 195.268 175.565 195.268 207.117 195.676C175.565 196.152 140.545 196.152 109.061 195.676Z" fill="#C7C7C7"/>
<path d="M109.061 210.84C140.545 210.364 175.565 210.364 207.117 210.84C175.565 211.248 140.545 211.248 109.061 210.84Z" fill="#C7C7C7"/>
<path d="M109.061 218.388C140.545 217.912 175.565 217.98 207.117 218.388C175.565 218.864 140.545 218.864 109.061 218.388Z" fill="#C7C7C7"/>
<path d="M109.061 225.936C128.917 225.528 151.017 225.528 170.873 225.936C151.017 226.412 128.917 226.412 109.061 225.936Z" fill="#C7C7C7"/>
<path d="M127.148 248.716C147.004 248.308 169.104 248.308 189.028 248.716C169.104 249.192 147.004 249.192 127.148 248.716Z" fill="#C7C7C7"/>
<path d="M109.061 263.812C140.545 263.336 175.565 263.404 207.117 263.812C175.565 264.288 140.545 264.288 109.061 263.812Z" fill="#C7C7C7"/>
<path d="M135.173 124.956C150.405 124.072 165.705 124.072 180.937 124.956C165.705 125.908 150.405 125.908 135.173 124.956Z" fill="#C7C7C7"/>
<path d="M166.452 137.06L192.428 136.992C201.064 137.06 198.752 136.992 207.388 137.06C198.752 137.128 201.064 137.128 192.428 137.128L166.452 137.06Z" fill="#DBDBDB"/>
<path d="M166.452 139.236L192.428 139.168C201.064 139.168 198.752 139.168 207.388 139.236C198.752 139.304 201.064 139.304 192.428 139.304L166.452 139.236Z" fill="#DBDBDB"/>
<path d="M166.452 141.412L192.428 141.344C201.064 141.344 198.752 141.344 207.388 141.412C198.752 141.48 201.064 141.48 192.428 141.48L166.452 141.412Z" fill="#DBDBDB"/>
<path d="M166.452 143.588L192.428 143.52C201.064 143.52 198.752 143.52 207.388 143.588C198.752 143.656 201.064 143.656 192.428 143.656L166.452 143.588Z" fill="#DBDBDB"/>
<path d="M166.452 145.764L192.428 145.696C201.064 145.696 198.752 145.696 207.388 145.764C198.752 145.832 201.064 145.764 192.428 145.832L166.452 145.764Z" fill="#DBDBDB"/>
<path d="M166.452 147.94L192.428 147.872C201.064 147.872 198.752 147.872 207.388 147.94C198.752 148.008 201.064 147.94 192.428 148.008L166.452 147.94Z" fill="#DBDBDB"/>
<path d="M166.452 150.116L192.428 149.98C201.064 150.048 198.752 150.048 207.388 150.116C198.752 150.116 201.064 150.116 192.428 150.184L166.452 150.116Z" fill="#DBDBDB"/>
<path d="M166.452 152.224L192.428 152.156C201.064 152.224 198.752 152.224 207.388 152.224C198.752 152.292 201.064 152.292 192.428 152.292L166.452 152.224Z" fill="#DBDBDB"/>
<path d="M166.452 154.4L192.428 154.332C201.064 154.4 198.752 154.332 207.388 154.4C198.752 154.468 201.064 154.468 192.428 154.468L166.452 154.4Z" fill="#DBDBDB"/>
<path d="M166.452 156.576L192.428 156.508C201.064 156.576 198.752 156.508 207.388 156.576C198.752 156.644 201.064 156.644 192.428 156.644L166.452 156.576Z" fill="#DBDBDB"/>
<path d="M166.452 158.752L192.428 158.684C201.064 158.684 198.752 158.684 207.388 158.752C198.752 158.82 201.064 158.82 192.428 158.82L166.452 158.752Z" fill="#DBDBDB"/>
<path d="M166.452 160.928L192.428 160.86C201.064 160.86 198.752 160.86 207.388 160.928C198.752 160.996 201.064 160.996 192.428 160.996L166.452 160.928Z" fill="#DBDBDB"/>
<path d="M166.452 163.104L192.428 163.036C201.064 163.036 198.752 163.036 207.388 163.104C198.752 163.172 201.064 163.172 192.428 163.172L166.452 163.104Z" fill="#DBDBDB"/>
<path d="M166.452 165.28L192.428 165.212C201.064 165.212 198.752 165.212 207.388 165.28C198.752 165.348 201.064 165.28 192.428 165.348L166.452 165.28Z" fill="#DBDBDB"/>
<path d="M166.452 167.456L192.428 167.388C201.064 167.388 198.752 167.388 207.388 167.456C198.752 167.524 201.064 167.456 192.428 167.524L166.452 167.456Z" fill="#DBDBDB"/>
<path fill-rule="evenodd" clip-rule="evenodd" d="M175.904 152.224V169.972H171.96V152.224H175.904Z" fill="#D0E4FC"/>
<path d="M183.18 144.744H179.236V169.972H183.18V144.744Z" fill="#263238"/>
<path d="M190.456 150.184H186.58V169.972H190.456V150.184Z" fill="#DBDBDB"/>
<path d="M197.8 143.588H193.856V169.972H197.8V143.588Z" fill="#0094EF"/>
<path d="M205.076 147.124H201.132V169.972H205.076V147.124Z" fill="#263238"/>
<path d="M167.88 135.564L167.948 144.132L168.016 152.768C168.107 158.48 168.152 164.215 168.152 169.972L167.88 169.7H180.46H193.108L205.756 169.768L207.388 169.972L205.756 170.108L193.108 170.176L180.46 170.244H167.88H167.608V169.972C167.608 164.215 167.631 158.48 167.676 152.768L167.744 144.132L167.88 135.564Z" fill="#DBDBDB"/>
<path d="M175.904 172.148H171.96V171.808H175.904V172.148Z" fill="#DBDBDB"/>
<path d="M183.18 172.148H179.236V171.808H183.18V172.148Z" fill="#DBDBDB"/>
<path d="M190.456 172.148H186.58V171.808H190.456V172.148Z" fill="#DBDBDB"/>
<path d="M197.8 172.148H193.856V171.808H197.8V172.148Z" fill="#DBDBDB"/>
<path d="M205.076 172.148H201.132V171.808H205.076V172.148Z" fill="#DBDBDB"/>
<path d="M197.528 265.648L200.656 260.752L206.436 261.364L196.916 241.78L188.076 246.064L197.528 265.648Z" fill="#455A64"/>
<path d="M192.768 255.788L188.076 246.064L196.916 241.78L192.768 255.788Z" fill="#37474F"/>
<path d="M195.761 242.324L204.941 261.228H205.145L195.965 242.256L195.761 242.324Z" fill="white"/>
<path d="M189.028 245.588L198.208 264.56L198.344 264.356L189.164 245.52L189.028 245.588Z" fill="white"/>
<path d="M179.78 265.308L185.084 262.996L189.572 266.668L192.972 242.324L183.18 240.964L179.78 265.308Z" fill="#455A64"/>
<path d="M191.68 242.12L188.416 265.716L188.552 265.852L191.884 242.12H191.68Z" fill="white"/>
<path d="M184.268 241.1L181.004 264.764L181.14 264.696L184.472 241.1H184.268Z" fill="white"/>
<path d="M188.756 223.012C189.096 223.624 189.98 223.556 190.32 222.944C190.66 222.264 191.68 222.332 191.884 223.08C192.088 223.76 192.972 223.896 193.448 223.352C193.924 222.74 194.876 223.08 194.944 223.828C195.012 224.508 195.828 224.848 196.372 224.44C196.984 223.964 197.868 224.44 197.8 225.188C197.732 225.868 198.412 226.412 199.092 226.072C199.772 225.732 200.52 226.412 200.316 227.16C200.044 227.772 200.656 228.452 201.336 228.248C202.084 228.044 202.696 228.86 202.288 229.54C201.948 230.152 202.424 230.9 203.104 230.832C203.92 230.832 204.328 231.716 203.784 232.328C203.308 232.804 203.648 233.688 204.328 233.756C205.076 233.892 205.348 234.912 204.668 235.32C204.124 235.728 204.192 236.612 204.872 236.884C205.62 237.156 205.62 238.176 204.94 238.448C204.26 238.72 204.192 239.604 204.804 240.012C205.416 240.42 205.28 241.44 204.464 241.576C203.784 241.712 203.512 242.596 204.056 243.072C204.6 243.616 204.192 244.568 203.444 244.568C202.696 244.5 202.288 245.316 202.696 245.86C203.104 246.54 202.492 247.356 201.744 247.22C201.064 247.084 200.52 247.696 200.724 248.376C201.064 249.124 200.316 249.804 199.568 249.464C198.956 249.192 198.276 249.736 198.344 250.416C198.48 251.164 197.596 251.708 196.984 251.232C196.44 250.824 195.624 251.232 195.624 251.912C195.556 252.66 194.604 253 194.06 252.456C193.584 251.912 192.768 252.116 192.564 252.796C192.36 253.544 191.34 253.68 191 253C190.66 252.388 189.776 252.388 189.436 253C189.096 253.748 188.076 253.68 187.804 252.864C187.6 252.252 186.784 252.048 186.308 252.592C185.832 253.204 184.812 252.932 184.744 252.116C184.744 251.436 183.928 251.096 183.384 251.572C182.772 252.048 181.82 251.572 181.956 250.756C182.024 250.076 181.276 249.6 180.664 249.872C179.984 250.28 179.236 249.6 179.44 248.852C179.712 248.172 179.1 247.56 178.42 247.764C177.672 247.968 176.992 247.152 177.4 246.472C177.808 245.86 177.332 245.112 176.652 245.112C175.836 245.18 175.428 244.228 175.972 243.684C176.448 243.14 176.108 242.324 175.428 242.256C174.68 242.12 174.408 241.1 175.088 240.624C175.632 240.284 175.496 239.4 174.884 239.128C174.136 238.856 174.136 237.836 174.816 237.496C175.496 237.224 175.564 236.34 174.952 236C174.272 235.592 174.476 234.572 175.292 234.436C175.972 234.3 176.176 233.416 175.7 232.94C175.156 232.396 175.564 231.444 176.312 231.444C176.992 231.444 177.468 230.696 177.06 230.084C176.652 229.472 177.196 228.588 178.012 228.792C178.692 228.928 179.236 228.248 178.964 227.636C178.692 226.888 179.44 226.14 180.188 226.48C180.8 226.82 181.48 226.276 181.412 225.596C181.276 224.78 182.16 224.236 182.772 224.712C183.316 225.12 184.132 224.78 184.132 224.1C184.2 223.284 185.152 222.944 185.696 223.556C186.104 224.1 186.988 223.896 187.192 223.216C187.396 222.468 188.416 222.332 188.756 223.012Z" fill="#0094EF"/>
<path fill-rule="evenodd" clip-rule="evenodd" d="M203.24 236.272C204.192 243.684 198.956 250.416 191.544 251.368C184.2 252.252 177.468 247.084 176.516 239.672C175.564 232.328 180.8 225.596 188.144 224.644C195.556 223.692 202.288 228.928 203.24 236.272Z" fill="white"/>
<path d="M191.477 250.416C184.609 251.3 178.353 246.404 177.469 239.604C176.585 232.736 181.413 226.48 188.281 225.596C195.149 224.712 201.405 229.54 202.289 236.408C203.173 243.276 198.277 249.532 191.477 250.416ZM188.349 225.868C181.617 226.752 176.925 232.872 177.741 239.536C178.625 246.2 184.745 250.96 191.409 250.076C198.073 249.26 202.833 243.14 201.949 236.476C201.133 229.744 195.013 225.052 188.349 225.868Z" fill="#9ACEEE"/>
<path d="M198.957 227.908C198.957 227.908 200.317 224.508 197.257 222.128C195.897 221.108 193.721 220.36 192.361 219.612C190.525 218.592 188.825 217.028 188.825 217.028C188.825 217.028 187.805 228.52 198.345 228.724L192.973 222.74L198.957 227.908Z" fill="#37474F"/>
<path d="M183.725 234.776C185.901 237.02 187.805 239.536 189.641 242.052L187.805 241.848C191.885 236.68 196.237 231.784 200.929 227.228C202.561 225.732 204.193 224.236 205.893 222.876C201.337 230.356 195.625 237.088 189.505 243.344L188.417 244.5C186.649 241.372 185.017 238.108 183.725 234.776Z" fill="#455A64"/>
<path d="M198.888 227.704C198.888 227.704 197.052 223.08 201.2 219.884C203.036 218.524 206.028 217.436 207.864 216.416C210.312 215.124 212.692 212.948 212.692 212.948C212.692 212.948 214.052 228.588 199.704 228.86L206.98 220.7L198.888 227.704Z" fill="#455A64"/>
<path d="M181.616 110.132H135.24V92.656H181.616V110.132Z" fill="#C7C7C7"/>
<path d="M172.64 84.9041H143.808L142.584 92.656H174.34L172.64 84.9041ZM158.428 90.4801C157.476 90.4801 156.728 89.7321 156.728 88.7801C156.728 87.8281 157.476 87.0801 158.428 87.0801C159.38 87.0801 160.128 87.8281 160.128 88.7801C160.128 89.7321 159.38 90.4801 158.428 90.4801Z" fill="#C7C7C7"/>
<path d="M174.34 92.6561H142.584L142.856 90.8881H173.932L174.34 92.6561Z" fill="#A6A6A6"/>
<path d="M249.955 353.436C251.655 353.98 301.635 352.892 303.471 351.668C304.151 351.26 299.867 303.932 299.867 303.932L268.179 304.544L271.783 336.164C271.783 336.164 253.355 344.936 251.451 346.432C249.615 347.996 248.255 352.96 249.955 353.436Z" fill="#EB9481"/>
<path d="M249.955 353.436C251.655 353.98 301.635 352.892 303.471 351.668C303.675 351.532 303.743 346.772 302.927 340.516C293.883 342.012 261.515 346.976 258.999 345.48C257.231 344.46 258.795 342.828 260.223 341.74C256.143 343.848 252.267 345.82 251.451 346.5C249.615 347.996 248.255 352.96 249.955 353.436Z" fill="#263238"/>
<path d="M270.899 328.616L301.975 328.14C301.975 328.14 295.855 253.612 296.059 252.184C296.399 250.348 318.499 163.784 318.499 163.784H288.783C288.783 163.784 265.391 244.5 264.575 252.252C263.215 264.832 270.899 328.616 270.899 328.616Z" fill="#263238"/>
<path d="M299.188 321.136C297.352 321 295.515 321 293.679 321C291.821 320.955 289.962 320.955 288.103 321C284.431 321 280.76 321.068 277.088 321.204C276.045 321.204 275.025 321.227 274.028 321.272C272.94 321.34 271.851 321.544 270.831 321.544C270.695 321.544 270.695 321.68 270.831 321.68C271.715 321.68 272.599 321.816 273.551 321.884C274.458 321.884 275.387 321.884 276.339 321.884C278.198 321.884 280.057 321.884 281.916 321.884C285.588 321.816 289.259 321.816 292.931 321.612C295.039 321.544 297.148 321.544 299.188 321.34C299.324 321.272 299.324 321.136 299.188 321.136Z" fill="#37474F"/>
<path d="M311.971 170.788C309.319 180.24 306.871 189.692 304.491 199.212C302.134 208.687 299.754 218.161 297.351 227.636C296.172 232.396 294.994 237.156 293.815 241.916C292.659 246.54 291.367 251.164 291.095 255.924C290.755 260.82 291.367 265.716 291.775 270.544C292.183 275.395 292.614 280.245 293.067 285.096C293.883 294.82 294.699 304.544 295.787 314.2C295.923 315.424 296.036 316.648 296.127 317.872C296.195 318.008 296.331 318.008 296.331 317.872C295.651 308.148 295.039 298.424 294.223 288.7C293.86 283.849 293.475 278.999 293.067 274.148C292.659 269.32 292.115 264.424 291.911 259.528C291.775 254.632 292.659 249.94 293.883 245.18C295.016 240.556 296.172 235.932 297.351 231.308C299.708 221.788 302.066 212.291 304.423 202.816C307.075 192.208 309.727 181.532 312.039 170.856C312.039 170.788 311.971 170.72 311.971 170.788Z" fill="#37474F"/>
<path d="M318.499 163.852C318.499 163.852 309.047 200.98 302.383 227.092L289.735 163.852H318.499Z" fill="#37474F"/>
<path d="M287.287 353.572C288.987 354.116 338.967 353.028 340.735 351.804C341.483 351.328 338.831 304 338.831 304L307.551 304.612L309.115 336.3C309.115 336.3 290.687 345.004 288.783 346.568C286.947 348.132 285.519 353.028 287.287 353.572Z" fill="#EB9481"/>
<path d="M287.287 353.572C288.987 354.116 338.967 353.028 340.735 351.804C341.007 351.668 340.939 346.976 340.735 340.584C331.691 342.148 298.847 347.112 296.331 345.616C294.563 344.596 296.127 342.964 297.555 341.876C293.407 343.916 289.599 345.888 288.783 346.568C286.947 348.132 285.519 353.028 287.287 353.572Z" fill="#263238"/>
<path d="M289.735 163.784C289.735 163.784 291.435 184.796 294.903 190.1C294.903 190.1 298.303 191.256 303.539 194.384C303.539 194.384 305.647 250.552 305.579 253.884C305.443 266.532 308.707 327.936 308.707 327.936L340.055 327.664C340.055 327.664 336.791 258.168 336.791 253.544C336.791 249.056 334.683 220.904 332.779 196.424C332.779 196.424 335.567 188.604 335.227 184.66C334.479 175.14 330.195 163.784 330.195 163.784H289.735Z" fill="#263238"/>
<path d="M300.82 183.776C300.684 183.005 300.548 182.212 300.412 181.396C300.208 179.968 299.936 178.54 299.664 177.112C299.12 173.848 298.508 170.584 297.76 167.388C297.76 167.32 297.624 167.32 297.624 167.388C297.76 168.703 297.918 169.995 298.1 171.264C298.304 172.556 298.44 173.916 298.576 175.208C298.984 177.724 299.324 180.308 299.732 182.892C299.936 183.844 300.548 185.612 299.12 185.952C298.032 186.156 297.148 185.068 296.876 184.184C296.468 183.028 296.332 181.804 296.06 180.58C295.833 179.311 295.629 178.019 295.448 176.704C295.04 173.848 294.609 171.015 294.156 168.204C294.156 168.136 294.02 168.136 294.02 168.204C294.088 171.128 294.292 174.052 294.632 176.908C294.813 178.313 295.04 179.696 295.312 181.056C295.516 182.348 295.652 183.708 296.264 184.932C296.672 185.884 297.488 186.7 298.576 186.836C298.621 186.836 298.644 186.836 298.644 186.836C298.598 186.836 298.576 186.859 298.576 186.904C298.644 187.38 298.644 187.788 298.644 188.264C298.712 188.74 298.78 189.216 298.916 189.624C298.984 190.1 299.052 190.576 299.256 190.984C299.301 191.211 299.369 191.415 299.46 191.596C299.596 191.777 299.732 191.981 299.868 192.208C299.936 192.276 300.004 192.208 300.004 192.14C300.004 192.049 300.004 191.981 300.004 191.936C300.004 191.891 300.004 191.868 300.004 191.868C300.004 191.732 300.004 191.596 300.004 191.46C299.958 191.233 299.913 191.007 299.868 190.78C299.732 190.372 299.618 189.941 299.528 189.488C299.392 189.08 299.324 188.604 299.188 188.196C299.052 187.72 298.916 187.312 298.848 186.836C298.802 186.836 298.78 186.836 298.78 186.836C299.596 186.836 300.48 186.36 300.752 185.544C301.024 185 300.888 184.388 300.82 183.776Z" fill="#37474F"/>
<path d="M306.055 195.064C305.171 194.316 304.083 193.704 303.131 193.092C302.043 192.457 300.91 191.891 299.731 191.392C297.487 190.372 295.107 189.692 292.795 188.944C292.727 188.876 292.659 189.012 292.727 189.08C294.971 189.964 297.147 191.12 299.391 192.208C300.434 192.752 301.522 193.251 302.655 193.704C303.743 194.248 304.831 194.792 305.987 195.2C306.055 195.268 306.123 195.132 306.055 195.064Z" fill="#37474F"/>
<path d="M323.735 177.52C322.171 177.52 316.663 177.112 315.031 175.276C314.079 174.256 313.399 172.896 312.991 171.604C312.447 170.108 312.039 168.68 311.699 167.116C311.699 167.048 311.631 167.048 311.631 167.116C311.586 168.884 311.79 170.584 312.243 172.216C312.651 173.644 313.127 175.208 314.283 176.16C315.439 177.18 317.071 177.588 318.635 177.792C320.335 177.996 322.035 177.928 323.735 177.656C323.871 177.656 323.871 177.52 323.735 177.52Z" fill="#37474F"/>
<path d="M285.995 177.928C286.471 177.928 287.967 176.908 288.103 176.704C289.327 174.868 289.599 169.088 289.735 167.592C289.735 167.456 289.735 167.524 289.735 167.592C289.826 169.269 289.758 170.969 289.531 172.692C289.463 174.052 289.259 175.616 288.919 176.636C288.579 177.656 286.539 178.336 285.995 178.132V177.928Z" fill="#37474F"/>
<path d="M338.695 321.612C336.859 321.476 334.955 321.476 333.119 321.476C331.305 321.431 329.469 321.408 327.611 321.408C323.939 321.453 320.244 321.521 316.527 321.612C315.529 321.657 314.532 321.703 313.535 321.748C312.447 321.816 311.359 321.952 310.271 322.02C310.203 322.02 310.203 322.156 310.271 322.156C311.223 322.156 312.107 322.292 312.991 322.292C313.943 322.337 314.895 322.36 315.847 322.36C317.66 322.36 319.496 322.36 321.355 322.36C325.027 322.292 328.767 322.224 332.439 322.088C334.479 322.02 336.587 321.952 338.695 321.748C338.831 321.748 338.831 321.612 338.695 321.612Z" fill="#37474F"/>
<path d="M334.887 317.532C335.091 317.464 335.227 317.328 335.227 317.124L328.155 195.472C328.223 194.996 330.263 188.196 330.399 184.728C330.603 181.056 326.795 166.708 326.659 166.164C326.591 165.96 326.387 165.824 326.183 165.892C325.979 165.892 325.843 166.096 325.911 166.3C325.979 166.504 329.855 181.124 329.651 184.66C329.447 188.264 327.407 195.336 327.407 195.404L334.479 317.124C334.479 317.328 334.683 317.532 334.887 317.532Z" fill="#37474F"/>
<path d="M301.908 92.9279C309.32 96.1919 310.884 106.596 310.408 121.42C310.34 123.664 291.3 127.54 282.12 120.604C280.624 119.516 282.732 101.428 286.404 96.192C290.892 89.732 297.352 90.8199 301.908 92.9279Z" fill="#263238"/>
<path d="M302.112 93.0639C305.988 95.0359 308.436 98.9119 309.592 102.992C310.408 105.984 310.748 109.18 311.088 112.24C311.428 115.232 311.632 118.224 311.224 121.216C311.224 121.284 311.088 121.284 311.088 121.216C311.156 115.572 310.476 109.996 309.32 104.488C308.368 99.9319 306.056 95.7839 301.976 93.3359C301.84 93.2679 301.976 92.9959 302.112 93.0639Z" fill="#263238"/>
<path d="M283.548 101.292C284.908 96.6 287.968 93.2 292.524 91.704V91.772C287.628 93.676 284.84 97.552 283.548 102.72C282.188 108.364 281.644 114.008 281.168 119.788C281.168 119.924 280.964 119.924 280.964 119.788C281.1 113.668 281.916 107.14 283.548 101.292Z" fill="#263238"/>
<path d="M299.188 129.172C297.012 145.22 293 161.268 290.416 163.784C286.336 167.66 263.692 173.168 256.416 173.576C253.968 173.712 251.928 157.528 253.832 155.828C255.736 154.128 280.08 149.912 281.44 149.096C282.12 148.688 288.036 136.312 292.592 128.084C296.808 120.4 299.868 124.344 299.188 129.172Z" fill="#EB9481"/>
<path d="M264.644 173.1L261.72 152.7C261.72 152.7 278.924 148.824 281.032 148.144C281.916 147.872 289.26 132.64 292.864 126.112C295.176 121.828 300.004 120.4 299.732 129.852C299.596 135.36 295.176 161.404 290.892 164.94C287.424 167.796 264.644 173.1 264.644 173.1Z" fill="#9ACEEE"/>
<path d="M268.248 171.196C268.316 169.7 267.364 163.648 267.092 162.152C266.888 160.656 265.664 154.604 265.392 153.04C265.392 152.904 265.256 152.904 265.256 153.04C265.528 154.536 266.208 160.724 266.48 162.22C266.684 163.716 267.704 169.768 268.18 171.264C268.18 171.264 268.248 171.264 268.248 171.196Z" fill="#263238"/>
<path opacity="0.1" d="M299.731 128.288C299.731 128.515 299.731 128.764 299.731 129.036C299.777 129.308 299.777 129.58 299.731 129.852C299.731 130.804 299.595 132.368 299.323 134.272C299.278 134.635 299.233 135.02 299.187 135.428C299.142 135.655 299.097 135.881 299.051 136.108C299.006 136.607 298.938 137.128 298.847 137.672C298.847 137.763 298.825 137.853 298.779 137.944C298.689 138.533 298.598 139.123 298.507 139.712C298.417 140.165 298.349 140.619 298.303 141.072C298.213 141.525 298.122 141.979 298.031 142.432C297.986 142.659 297.941 142.908 297.895 143.18C297.419 145.696 296.875 148.416 296.263 151C296.082 151.68 295.901 152.36 295.719 153.04C295.583 153.493 295.47 153.947 295.379 154.4C295.243 154.853 295.107 155.284 294.971 155.692C293.747 160.18 292.251 163.784 290.891 164.94C288.579 166.912 277.359 169.972 270.355 171.74L295.923 122.984C296.059 122.939 296.173 122.893 296.263 122.848C296.875 122.712 297.487 122.78 298.031 123.188C298.258 123.369 298.462 123.596 298.643 123.868C298.779 124.049 298.915 124.253 299.051 124.48C299.142 124.752 299.233 125.024 299.323 125.296C299.55 126.112 299.686 127.109 299.731 128.288Z" fill="#020100"/>
<path d="M287.424 156.032L285.996 168.272C285.996 168.272 287.696 168.204 293.204 167.932L294.496 163.444L297.08 167.728L332.032 165.008L326.66 155.42C322.444 146.104 317.14 132.096 310.068 125.432C304.492 120.06 298.44 120.876 294.768 125.092C293.816 126.18 284.84 141.276 284.024 147.26C283.276 152.632 287.424 156.032 287.424 156.032Z" fill="#D0E4FC"/>
<g opacity="0.1">
<path d="M296.332 154.196C294.972 154.196 293.612 154.332 292.252 154.74C291.572 154.967 290.892 155.216 290.212 155.488C289.849 155.624 289.509 155.76 289.192 155.896C288.852 156.032 288.444 156.1 288.104 156.1V156.168C288.444 156.236 288.716 156.304 289.056 156.236C289.396 156.236 289.736 156.168 290.076 156.1C290.756 155.896 291.436 155.624 292.116 155.42C293.544 155.012 294.904 154.604 296.264 154.4C296.332 154.332 296.4 154.196 296.332 154.196Z" fill="#020100"/>
<path d="M302.655 155.624C300.955 155.42 299.187 155.352 297.419 155.352C296.558 155.397 295.697 155.465 294.835 155.556C294.427 155.601 294.019 155.669 293.611 155.76C293.135 155.828 292.727 155.964 292.251 156.032C292.183 156.032 292.183 156.1 292.251 156.1C292.659 156.1 293.135 156.1 293.543 156.1C293.997 156.055 294.427 156.032 294.835 156.032C295.697 155.987 296.558 155.964 297.419 155.964C299.187 155.873 300.933 155.805 302.655 155.76C302.723 155.76 302.723 155.624 302.655 155.624Z" fill="#020100"/>
</g>
<path d="M297.216 128.696C295.38 133.048 293.68 137.468 292.184 141.888C290.484 146.988 289.192 150.864 294.564 154.196L294.632 154.264C294.632 155.805 294.632 157.347 294.632 158.888C294.564 160.384 294.564 161.948 294.496 163.444C294.496 161.948 294.428 160.384 294.36 158.888C294.315 157.347 294.292 155.828 294.292 154.332L294.36 154.468C288.852 151.068 290.076 147.056 291.912 141.82C293.408 137.332 295.244 132.98 297.216 128.696Z" fill="#263238"/>
<path d="M294.769 135.768C294.769 136.04 295.041 136.312 295.313 136.312C295.653 136.312 295.925 136.04 295.925 135.768C295.925 135.428 295.653 135.156 295.313 135.156C295.041 135.156 294.769 135.428 294.769 135.768Z" fill="#263238"/>
<path d="M293.272 142.228C293.272 142.568 293.544 142.772 293.816 142.772C294.156 142.772 294.428 142.5 294.428 142.228C294.428 141.888 294.156 141.616 293.816 141.616C293.544 141.616 293.272 141.888 293.272 142.228Z" fill="#263238"/>
<path d="M291.912 148.144C291.912 148.484 292.184 148.688 292.524 148.688C292.864 148.688 293.068 148.416 293.068 148.144C293.068 147.804 292.796 147.532 292.524 147.532C292.184 147.532 291.912 147.804 291.912 148.144Z" fill="#263238"/>
<path d="M295.584 153.448C295.584 153.72 295.856 153.992 296.128 153.992C296.468 153.992 296.74 153.72 296.74 153.448C296.74 153.108 296.468 152.836 296.128 152.836C295.856 152.836 295.584 153.108 295.584 153.448Z" fill="#263238"/>
<path d="M295.856 159.364C295.856 159.636 296.128 159.908 296.4 159.908C296.74 159.908 297.012 159.636 297.012 159.296C297.012 159.024 296.74 158.752 296.4 158.752C296.128 158.752 295.856 159.024 295.856 159.364Z" fill="#263238"/>
<path d="M303.472 123.392C303.404 124.14 300.344 129.58 296.808 129.852C295.652 129.92 294.904 123.664 294.904 123.664L294.768 123.256L292.524 116.932L299.528 111.152L300.548 110.336C300.548 110.336 301.024 112.104 301.636 114.28C301.682 114.416 301.704 114.529 301.704 114.62C301.75 114.756 301.795 114.869 301.84 114.96C301.931 115.323 302.022 115.663 302.112 115.98C302.158 116.252 302.226 116.501 302.316 116.728C302.362 117 302.43 117.272 302.52 117.544C303.132 120.264 303.54 123.052 303.472 123.392Z" fill="#EB9481"/>
<path d="M301.636 114.28C300.412 119.72 296.536 122.304 294.768 123.256L292.524 116.932L299.528 111.152L300.548 110.336C300.548 110.336 301.024 112.104 301.636 114.28Z" fill="#263238"/>
<path d="M283.548 104.76C280.896 116.184 287.424 119.04 289.872 119.584C292.116 120.128 299.8 121.556 303.608 110.472C307.416 99.388 302.928 94.56 297.896 93.064C292.864 91.636 286.132 93.268 283.548 104.76Z" fill="#EB9481"/>
<path d="M285.52 104.148C285.792 104.148 286.064 104.148 286.336 104.08C286.608 104.08 286.88 104.08 287.152 103.876C287.288 103.808 287.288 103.536 287.22 103.4C287.016 103.06 286.608 102.992 286.268 102.992C285.86 102.992 285.52 103.128 285.248 103.4C284.908 103.672 285.18 104.148 285.52 104.148Z" fill="#263238"/>
<path d="M293.341 105.1C293.069 105.032 292.797 104.896 292.525 104.828C292.253 104.692 292.049 104.624 291.845 104.352C291.709 104.216 291.777 103.944 291.913 103.876C292.253 103.604 292.593 103.672 292.933 103.74C293.341 103.876 293.613 104.08 293.817 104.42C294.021 104.76 293.681 105.168 293.341 105.1Z" fill="#263238"/>
<path d="M286.88 106.324C286.88 106.256 286.812 106.324 286.812 106.392C286.744 107.14 286.54 108.092 285.792 108.228C285.792 108.228 285.724 108.296 285.792 108.296C286.676 108.296 286.948 107.072 286.88 106.324Z" fill="#263238"/>
<path d="M286.336 105.372C285.044 105.1 284.636 107.684 285.792 107.888C286.948 108.16 287.356 105.644 286.336 105.372Z" fill="#263238"/>
<path d="M285.724 105.44C285.52 105.576 285.316 105.78 285.044 105.78C284.772 105.712 284.636 105.44 284.5 105.1C284.455 105.1 284.432 105.123 284.432 105.168C284.364 105.644 284.432 106.188 284.84 106.324C285.248 106.46 285.656 106.12 285.86 105.644C285.86 105.576 285.86 105.44 285.724 105.44Z" fill="#263238"/>
<path d="M290.348 113.736C290.144 113.872 289.94 114.144 289.6 114.144C289.328 114.144 289.056 114.008 288.784 113.872H288.716C288.92 114.212 289.328 114.416 289.736 114.416C290.076 114.416 290.28 114.076 290.416 113.804C290.416 113.736 290.348 113.736 290.348 113.736Z" fill="#263238"/>
<path d="M287.493 110.404C287.493 110.404 287.153 111.492 287.017 112.104C287.017 112.104 287.153 112.172 287.357 112.24C288.309 112.512 289.397 112.308 290.077 111.628C290.145 111.56 290.077 111.492 290.009 111.56C289.193 111.968 288.377 111.968 287.493 111.832C287.493 111.696 288.173 109.928 288.037 109.86C287.765 109.792 287.153 109.928 286.745 109.996C287.425 107.548 288.445 105.236 289.057 102.856C289.057 102.72 288.921 102.72 288.921 102.788C287.629 105.1 286.881 107.888 286.133 110.336C285.997 110.676 287.221 110.404 287.493 110.404Z" fill="#263238"/>
<path d="M287.424 112.036C287.424 112.036 287.832 112.852 288.512 113.26C288.716 113.464 289.056 113.532 289.328 113.532C290.008 113.464 290.144 112.92 290.144 112.376C290.144 111.968 290.008 111.56 290.008 111.56C290.008 111.56 288.92 112.24 287.424 112.036Z" fill="#263238"/>
<path d="M288.512 113.26C288.716 113.464 289.056 113.532 289.328 113.532C290.008 113.464 290.144 112.92 290.144 112.376C289.464 112.308 288.716 112.648 288.512 113.26Z" fill="#FF9ABB"/>
<path d="M293.749 107.344C293.545 107.208 293.273 107.14 293.069 107.072C292.842 107.072 292.615 107.072 292.389 107.072C292.162 107.117 291.935 107.185 291.709 107.276C291.482 107.412 291.278 107.593 291.097 107.82L290.893 108.228H291.369C291.641 108.228 291.981 108.228 292.321 108.296C292.661 108.364 292.933 108.5 293.205 108.704C293.069 108.364 292.797 108.092 292.457 107.956C292.094 107.82 291.709 107.729 291.301 107.684L291.505 108.092C291.731 107.775 292.049 107.571 292.457 107.48C292.865 107.389 293.295 107.344 293.749 107.344Z" fill="#263238"/>
<path d="M292.253 109.044C291.913 108.908 291.573 108.772 291.301 108.568C291.233 108.5 290.961 108.296 290.961 108.228C291.029 108.092 291.097 107.888 291.165 107.752C291.097 107.888 290.961 108.024 290.893 108.16C290.893 108.364 290.961 108.568 291.165 108.704C291.505 108.908 291.913 108.976 292.253 109.044Z" fill="#263238"/>
<path d="M303.54 111.084C301.024 109.656 301.16 106.936 301.16 106.936C298.032 105.304 296.468 102.652 296.332 102.448C296.4 102.652 296.808 104.488 297.08 105.372C289.736 103.4 287.9 97.484 287.9 97.484C285.248 99.728 284.636 101.224 284.228 101.972C284.228 101.972 284.568 97.416 287.152 94.56C290.28 91.024 294.156 92.044 294.156 92.044C294.156 92.044 300.072 90.752 304.22 95.988C308.64 101.632 303.54 111.084 303.54 111.084Z" fill="#263238"/>
<path d="M291.503 103.672C292.659 104.42 293.883 105.032 295.175 105.372C295.221 105.372 295.243 105.372 295.243 105.372C293.135 104.624 291.367 103.332 290.007 101.632C289.418 100.907 288.942 100.113 288.579 99.252C288.171 98.368 287.831 97.348 287.831 96.328C287.831 96.26 287.695 96.26 287.695 96.328C287.695 97.416 287.695 98.368 288.035 99.32C288.375 100.272 288.851 101.156 289.531 101.904C290.075 102.584 290.733 103.173 291.503 103.672Z" fill="#263238"/>
<path d="M291.503 111.696C289.599 110.948 288.647 108.84 289.327 106.936C290.075 104.964 292.183 104.012 294.155 104.76C296.059 105.44 297.011 107.616 296.331 109.52C295.719 111.152 294.087 112.104 292.455 111.9C292.138 111.855 291.821 111.787 291.503 111.696ZM289.803 107.072C289.191 108.772 290.075 110.608 291.707 111.22C293.339 111.832 295.243 111.016 295.855 109.316C296.467 107.684 295.583 105.848 293.951 105.168C293.679 105.077 293.43 105.032 293.203 105.032C291.775 104.828 290.347 105.712 289.803 107.072Z" fill="#FFC727"/>
<path d="M284.092 109.928C282.596 109.656 281.644 107.82 281.984 105.848C282.211 104.805 282.619 103.989 283.208 103.4C283.888 102.788 284.636 102.516 285.384 102.652C286.132 102.788 286.744 103.264 287.152 104.08C287.492 104.896 287.628 105.848 287.424 106.8C287.084 108.704 285.724 110.064 284.296 109.996C284.251 109.996 284.183 109.973 284.092 109.928ZM283.548 103.74C283.004 104.284 282.664 105.032 282.528 105.916C282.188 107.616 282.936 109.248 284.16 109.452C285.384 109.656 286.676 108.432 286.948 106.732C287.084 105.848 287.016 104.964 286.676 104.284C286.336 103.672 285.86 103.264 285.316 103.128C285.225 103.128 285.157 103.128 285.112 103.128C284.568 103.06 284.024 103.332 283.548 103.74Z" fill="#FFC727"/>
<path d="M289.396 107.344L289.804 107.072C289.328 106.46 288.172 105.576 287.084 106.324L287.356 106.732C288.376 106.052 289.328 107.276 289.396 107.344Z" fill="#FFC727"/>
<path d="M305.308 111.968L305.784 111.832C305.716 111.628 305.172 109.656 304.152 109.248C303.132 108.84 296.536 107.956 296.264 107.956L296.196 108.432C298.1 108.636 303.2 109.384 303.948 109.656C304.628 109.996 305.104 111.424 305.308 111.968Z" fill="#FFC727"/>
<path d="M301.636 110.948C301.636 110.948 304.628 107.684 306.192 108.772C307.688 109.928 305.036 114.96 302.996 115.368C300.956 115.844 300.548 113.94 300.548 113.94L301.636 110.948Z" fill="#EB9481"/>
<path d="M305.375 110.2C305.443 110.2 305.443 110.268 305.375 110.268C303.947 110.608 303.063 111.764 302.383 112.988C302.859 112.58 303.471 112.376 304.015 112.92C304.083 112.988 304.015 113.056 304.015 112.988C303.471 112.784 303.063 112.852 302.587 113.26C302.315 113.532 302.043 113.872 301.839 114.212C301.771 114.348 301.499 114.28 301.567 114.144C301.613 114.099 301.635 114.076 301.635 114.076C301.839 112.376 303.471 110.132 305.375 110.2Z" fill="#263238"/>
<path d="M294.7 123.256L297.08 128.492L303.404 121.556L305.376 123.664C305.376 123.664 299.324 134.544 299.256 134.068L296.876 129.58L293.816 132.844V124.82L294.7 123.256Z" fill="#EBEBEB"/>
<path d="M293.612 128.9C293.612 127.608 293.612 126.248 293.748 124.956C293.748 124.888 293.816 124.888 293.816 124.888C294.156 126.18 293.952 131.212 294.02 132.436C294.156 132.3 296.876 129.512 296.876 129.58C297.352 130.26 299.12 133.592 299.256 133.864C300.208 132.096 304.288 125.296 305.444 123.596C305.512 123.596 305.58 123.596 305.512 123.664C304.696 125.5 299.392 134.544 299.324 134.476C299.256 134.544 297.148 130.532 296.876 129.716C296.4 130.328 293.68 133.456 293.68 133.252C293.544 131.96 293.544 130.26 293.612 128.9Z" fill="#263238"/>
<path d="M312.516 129.92C318.84 141.616 325.912 161.472 323.94 165.212C318.976 174.528 307.144 184.252 301.636 187.448C298.44 189.284 287.832 172.896 290.552 171.128C294.972 168.272 306.396 158.548 307.756 157.188C308.504 156.508 306.26 142.432 305.716 133.116C305.036 122.984 309.456 124.208 312.516 129.92Z" fill="#EB9481"/>
<path d="M282.528 180.444C283.208 179.356 282.664 178.948 280.556 179.764C278.38 180.512 270.628 185.34 269.132 182.484C267.704 179.56 278.788 172.964 282.46 171.944C286.132 170.992 292.388 170.652 292.388 170.652C290.484 172.352 286.268 176.976 282.528 180.444Z" fill="#EB9481"/>
<path d="M278.651 184.932L284.567 180.376L255.939 143.248L250.023 147.804L278.651 184.932Z" fill="#C7C7C7"/>
<path d="M289.055 201.524L297.963 194.656L279.467 170.584L270.491 177.452L289.055 201.524Z" fill="#263238"/>
<g opacity="0.2">
<path d="M216.84 147.6C195.148 141.548 182.5 119.04 188.484 97.416C191.408 87.012 198.208 78.308 207.728 72.936C217.18 67.564 228.128 66.204 238.6 69.128C249.072 72.052 257.776 78.852 263.148 88.304C268.52 97.824 269.812 108.772 266.956 119.244C264.032 129.716 257.232 138.42 247.712 143.792C238.26 149.096 227.244 150.456 216.84 147.6Z" fill="white"/>
</g>
<path d="M215.003 154.196C189.707 147.192 174.815 120.876 181.887 95.58C188.891 70.352 215.207 55.46 240.435 62.532C265.731 69.536 280.555 95.784 273.551 121.08C266.547 146.376 240.231 161.2 215.003 154.196ZM216.431 148.96C238.803 155.148 262.059 142.024 268.315 119.652C274.503 97.28 261.379 73.956 239.007 67.768C216.635 61.512 193.379 74.704 187.123 97.076C180.935 119.448 194.059 142.704 216.431 148.96Z" fill="#37474F"/>
<path d="M276.068 100.34C275.116 94.764 273.212 89.324 270.356 84.224C263.896 72.868 253.424 64.64 240.844 61.104C214.8 53.896 187.736 69.196 180.528 95.24C176.992 107.82 178.624 121.012 185.084 132.436C191.544 143.86 202.016 152.02 214.596 155.556C227.176 159.024 240.368 157.46 251.792 151C263.216 144.54 271.444 134.068 274.912 121.488C276.884 114.484 277.224 107.276 276.068 100.34ZM270.696 101.224C269.88 96.26 268.18 91.432 265.596 86.944C259.884 76.812 250.568 69.536 239.348 66.408C228.196 63.28 216.432 64.708 206.3 70.42C196.168 76.2 188.892 85.516 185.764 96.668C182.636 107.888 184.132 119.652 189.844 129.784C192.7 134.816 196.44 139.168 200.86 142.636C205.348 146.172 210.448 148.756 216.024 150.32C239.212 156.712 263.216 143.112 269.676 119.992C271.376 113.804 271.716 107.412 270.696 101.224ZM270.696 101.224C269.88 96.26 268.18 91.432 265.596 86.944C259.884 76.812 250.568 69.536 239.348 66.408C228.196 63.28 216.432 64.708 206.3 70.42C196.168 76.2 188.892 85.516 185.764 96.668C182.636 107.888 184.132 119.652 189.844 129.784C192.7 134.816 196.44 139.168 200.86 142.636C205.348 146.172 210.448 148.756 216.024 150.32C239.212 156.712 263.216 143.112 269.676 119.992C271.376 113.804 271.716 107.412 270.696 101.224ZM272.192 120.74C268.928 132.572 261.176 142.432 250.432 148.552C239.688 154.604 227.244 156.1 215.344 152.836C203.512 149.504 193.584 141.82 187.532 131.008C184.812 126.248 183.044 121.148 182.16 115.912C181.072 109.316 181.412 102.584 183.248 95.988C190.048 71.44 215.548 57.024 240.096 63.892C257.912 68.788 270.424 83.612 273.28 100.816C274.368 107.208 274.096 114.008 272.192 120.74ZM265.596 86.944C259.884 76.812 250.568 69.536 239.348 66.408C228.196 63.28 216.432 64.708 206.3 70.42C196.168 76.2 188.892 85.516 185.764 96.668C182.636 107.888 184.132 119.652 189.844 129.784C192.7 134.816 196.44 139.168 200.86 142.636C205.348 146.172 210.448 148.756 216.024 150.32C239.212 156.712 263.216 143.112 269.676 119.992C271.376 113.804 271.716 107.412 270.696 101.224C269.88 96.26 268.18 91.432 265.596 86.944ZM266.956 119.244C260.904 140.868 238.464 153.584 216.84 147.6C206.368 144.676 197.664 137.876 192.292 128.356C186.92 118.904 185.56 107.888 188.484 97.416C191.408 87.012 198.208 78.308 207.728 72.936C217.18 67.564 228.196 66.204 238.6 69.128C249.072 72.052 257.776 78.852 263.148 88.304C268.52 97.824 269.88 108.772 266.956 119.244ZM266.956 119.244C260.904 140.868 238.464 153.584 216.84 147.6C206.368 144.676 197.664 137.876 192.292 128.356C186.92 118.904 185.56 107.888 188.484 97.416C191.408 87.012 198.208 78.308 207.728 72.936C217.18 67.564 228.196 66.204 238.6 69.128C249.072 72.052 257.776 78.852 263.148 88.304C268.52 97.824 269.88 108.772 266.956 119.244ZM266.956 119.244C260.904 140.868 238.464 153.584 216.84 147.6C206.368 144.676 197.664 137.876 192.292 128.356C186.92 118.904 185.56 107.888 188.484 97.416C191.408 87.012 198.208 78.308 207.728 72.936C217.18 67.564 228.196 66.204 238.6 69.128C249.072 72.052 257.776 78.852 263.148 88.304C268.52 97.824 269.88 108.772 266.956 119.244Z" fill="#37474F"/>
<path d="M197.595 123.324C195.487 119.516 194.399 115.232 194.059 110.88C193.855 108.636 193.991 106.46 194.263 104.216C194.535 102.04 195.011 99.796 195.759 97.688C197.187 93.404 199.567 89.46 202.627 86.196C205.687 82.864 209.359 80.212 213.303 78.308C209.971 81.164 206.911 84.224 204.327 87.556C203.103 89.256 201.811 90.956 200.859 92.792C199.907 94.628 199.023 96.532 198.411 98.504C196.983 102.448 196.371 106.596 196.235 110.744C196.167 114.892 196.643 119.108 197.595 123.324Z" fill="white"/>
<path d="M259.679 103.876C260.631 108.092 260.495 112.512 259.679 116.796C259.271 118.972 258.523 121.08 257.707 123.188C256.823 125.228 255.735 127.2 254.443 129.036C251.859 132.776 248.527 135.904 244.651 138.216C240.843 140.528 236.559 142.16 232.275 142.908C236.219 141.004 240.027 138.964 243.427 136.448C245.127 135.156 246.759 133.864 248.187 132.3C249.615 130.804 250.975 129.24 252.131 127.54C254.511 124.14 256.279 120.332 257.503 116.32C258.727 112.308 259.475 108.16 259.679 103.876Z" fill="white"/>
<path d="M303.472 185.952C297.896 190.576 291.3 196.764 283.276 198.124C281.712 198.396 280.624 197.784 280.624 197.784C277.02 198.464 275.66 196.968 275.66 196.968C272.124 196.56 270.9 194.792 270.9 194.792C270.9 194.792 266.684 195.54 265.8 193.092C264.78 190.304 270.9 189.828 274.096 187.448C281.44 182.076 290.416 172.42 292.388 170.652L303.472 185.952Z" fill="#EB9481"/>
<path d="M285.792 187.244C283.548 188.74 281.44 190.304 279.06 191.596C276.476 192.888 273.688 193.772 270.968 194.724C270.832 194.792 270.9 194.86 270.968 194.86C276.272 193.976 281.916 190.984 285.86 187.312C285.928 187.244 285.86 187.176 285.792 187.244Z" fill="#263238"/>
<path d="M289.668 191.188C287.424 192.548 283.548 194.996 275.66 196.832C275.592 196.832 275.592 196.9 275.66 196.9C280.964 196.356 285.52 194.452 289.736 191.324C289.872 191.188 289.804 191.12 289.668 191.188Z" fill="#263238"/>
<path d="M291.709 193.364C287.833 195.54 285.113 196.424 280.693 197.716C280.625 197.716 280.625 197.784 280.693 197.784C285.929 196.832 287.697 195.948 291.777 193.5C291.913 193.364 291.845 193.296 291.709 193.364Z" fill="#263238"/>
<path d="M305.851 188.332L291.775 168.68L306.871 156.916C305.919 149.3 304.083 134.068 304.219 128.696C304.423 122.44 308.843 122.1 312.243 127.54C319.995 139.984 327.543 162.56 326.931 166.164C326.115 171.332 305.851 188.332 305.851 188.332Z" fill="#54AFE7"/>
<path d="M307.28 183.64C306.668 182.212 303.132 177.112 302.248 175.82C301.364 174.596 297.556 169.564 296.604 168.272C296.604 168.204 296.468 168.272 296.536 168.34C297.42 169.632 300.82 174.936 301.704 176.16C302.588 177.452 306.192 182.552 307.212 183.64C307.28 183.708 307.348 183.64 307.28 183.64Z" fill="#263238"/>
<path d="M313.808 181.328C318.228 176.976 323.056 172.76 326.32 167.388C327.204 165.892 326.592 164.192 326.32 162.56C326.048 161.472 325.753 160.384 325.436 159.296C322.648 150.592 319.112 142.228 315.712 133.728C318.704 139.916 321.424 146.172 323.872 152.632C325.028 155.828 326.116 159.092 326.864 162.424C327.136 164.124 327.612 166.096 326.66 167.592C323.328 172.964 318.364 177.112 313.808 181.328Z" fill="#263238"/>
<path d="M317.208 137.06C316.936 136.312 316.8 135.496 316.596 134.748C317.004 135.428 317.14 136.244 317.208 137.06Z" fill="#263238"/>
<path d="M304.967 138.692C305.647 143.86 306.463 149.776 307.007 154.944C307.075 155.624 307.143 156.236 307.143 156.916C307.211 156.984 307.075 157.188 307.007 157.256C303.539 160.316 299.391 163.172 295.651 165.96L291.843 168.68L292.183 169.224L291.775 168.68V168.612L295.447 165.756C298.983 162.832 303.131 159.84 306.531 156.78C306.531 156.848 306.531 156.848 306.531 156.916C306.531 156.689 306.509 156.44 306.463 156.168C305.987 150.456 305.103 144.472 304.967 138.692Z" fill="#263238"/>
<path d="M304.491 139.78C304.831 140.596 305.035 141.48 305.307 142.296C304.831 141.548 304.627 140.664 304.491 139.78Z" fill="#263238"/>
<path d="M270.016 168.408C270.084 165.892 267.092 167.252 267.092 167.252C267.092 167.252 270.9 164.328 270.016 161.744C269.132 159.228 265.596 160.928 265.324 161.064C265.528 160.928 268.928 158.14 267.772 155.624C266.548 153.04 263.284 155.352 263.08 155.488C263.216 155.284 265.052 152.496 263.76 150.796C261.448 147.872 255.532 155.42 252.54 155.828L248.596 151.884C248.868 152.904 249.208 153.924 248.732 156.1C248.256 158.14 247.916 159.5 248.256 160.724C248.732 162.832 250.704 162.9 250.704 162.9C250.704 162.9 248.868 164.804 249.752 166.844C250.228 167.864 252.268 168.068 252.268 168.068C252.268 168.068 250.908 169.632 251.792 171.4C252.472 172.76 254.444 172.76 254.444 172.76C254.444 172.76 253.832 174.936 255.056 176.092C257.368 178.472 269.812 173.712 270.016 168.408Z" fill="#EB9481"/>
<path d="M251.52 155.08L248.664 151.952C248.528 151.861 248.392 151.771 248.256 151.68C243.7 148.892 237.172 151.136 239.756 154.06C241.66 156.236 246.624 155.488 248.256 158.004L251.52 155.08Z" fill="#EB9481"/>
<path d="M254.716 172.828C254.716 172.828 254.716 172.896 254.784 172.896C259.204 172.284 263.964 170.312 267.296 167.184C267.364 167.116 267.228 166.844 267.092 166.98C263.08 169.496 259.34 171.468 254.716 172.828Z" fill="#263238"/>
<path d="M252.2 168.068C252.132 168.136 252.2 168.204 252.268 168.204C256.824 167.592 262.128 165.144 265.528 161.132C265.596 160.996 265.596 160.792 265.46 160.928C263.012 163.444 256.348 166.912 252.2 168.068Z" fill="#263238"/>
<path d="M263.216 155.148C259.816 158.888 255.6 161.132 250.84 162.832C250.84 162.9 250.84 162.968 250.908 162.968C253.424 162.764 256.348 161.336 258.456 160.112C260.564 158.888 262.128 157.324 263.352 155.284C263.42 155.216 263.284 155.08 263.216 155.148Z" fill="#263238"/>
<path d="M342.164 81.232C342.164 89.8 335.16 96.804 326.524 96.804C323.056 96.804 319.86 95.648 317.208 93.744L309.592 95.716L312.788 88.576C311.564 86.4 310.952 83.884 310.952 81.232C310.952 72.596 317.888 65.592 326.524 65.592C335.16 65.592 342.164 72.596 342.164 81.232Z" fill="white"/>
<path d="M342.164 81.2321C342.232 90.2081 334.14 97.6881 325.164 96.9401C322.308 96.7361 319.452 95.6481 317.072 93.9481H317.276L309.66 95.9881L309.048 96.1241L309.32 95.5801L312.448 88.4401V88.7121C308.844 82.3201 310.612 73.6841 316.324 69.0601C326.592 60.6281 342.164 67.9041 342.164 81.2321ZM342.164 81.2321C342.164 71.2361 332.44 63.6201 322.784 66.2721C313.264 68.6521 308.368 79.8041 313.06 88.4401L313.128 88.5761L313.06 88.7121L309.864 95.8521L309.524 95.3761L317.14 93.5401L317.276 93.4721L317.344 93.5401C319.656 95.2401 322.376 96.3281 325.232 96.6001C334.208 97.5521 342.164 90.2081 342.164 81.2321Z" fill="#263238"/>
<path d="M324.008 90.48L317.004 83.408L319.384 81.096L323.464 85.244L331.964 71.916L334.752 73.684L324.008 90.48Z" fill="#0094EF"/>
<path d="M73.7549 328C73.5949 328 73.4509 327.944 73.3229 327.832C73.2109 327.72 73.1549 327.576 73.1549 327.4V311.8C73.1549 311.624 73.2109 311.48 73.3229 311.368C73.4509 311.256 73.5949 311.2 73.7549 311.2H75.9869C76.2269 311.2 76.4029 311.264 76.5149 311.392C76.6429 311.52 76.7309 311.616 76.7789 311.68L81.1949 319.816L85.6589 311.68C85.6909 311.616 85.7629 311.52 85.8749 311.392C86.0029 311.264 86.1869 311.2 86.4269 311.2H88.6589C88.8349 311.2 88.9789 311.256 89.0909 311.368C89.2029 311.48 89.2589 311.624 89.2589 311.8V327.4C89.2589 327.576 89.2029 327.72 89.0909 327.832C88.9789 327.944 88.8349 328 88.6589 328H86.2109C86.0509 328 85.9149 327.944 85.8029 327.832C85.6909 327.72 85.6349 327.576 85.6349 327.4V317.704L82.5869 323.416C82.5069 323.56 82.4029 323.688 82.2749 323.8C82.1469 323.912 81.9789 323.968 81.7709 323.968H80.6429C80.4349 323.968 80.2669 323.912 80.1389 323.8C80.0109 323.688 79.9069 323.56 79.8269 323.416L76.7789 317.704V327.4C76.7789 327.576 76.7229 327.72 76.6109 327.832C76.4989 327.944 76.3629 328 76.2029 328H73.7549ZM98.267 328.24C96.939 328.24 95.827 328.024 94.931 327.592C94.035 327.144 93.347 326.512 92.867 325.696C92.403 324.88 92.147 323.928 92.099 322.84C92.083 322.52 92.075 322.16 92.075 321.76C92.075 321.344 92.083 320.984 92.099 320.68C92.147 319.576 92.419 318.624 92.915 317.824C93.411 317.008 94.107 316.384 95.003 315.952C95.899 315.504 96.987 315.28 98.267 315.28C99.531 315.28 100.611 315.504 101.507 315.952C102.403 316.384 103.099 317.008 103.595 317.824C104.091 318.624 104.363 319.576 104.411 320.68C104.443 320.984 104.459 321.344 104.459 321.76C104.459 322.16 104.443 322.52 104.411 322.84C104.363 323.928 104.099 324.88 103.619 325.696C103.155 326.512 102.475 327.144 101.579 327.592C100.683 328.024 99.579 328.24 98.267 328.24ZM98.267 325.6C99.051 325.6 99.643 325.36 100.043 324.88C100.443 324.384 100.659 323.664 100.691 322.72C100.707 322.48 100.715 322.16 100.715 321.76C100.715 321.36 100.707 321.04 100.691 320.8C100.659 319.872 100.443 319.16 100.043 318.664C99.643 318.168 99.051 317.92 98.267 317.92C97.483 317.92 96.883 318.168 96.467 318.664C96.067 319.16 95.851 319.872 95.819 320.8C95.803 321.04 95.795 321.36 95.795 321.76C95.795 322.16 95.803 322.48 95.819 322.72C95.851 323.664 96.067 324.384 96.467 324.88C96.883 325.36 97.483 325.6 98.267 325.6ZM107.545 328C107.385 328 107.249 327.944 107.137 327.832C107.025 327.72 106.969 327.576 106.969 327.4V316.12C106.969 315.944 107.025 315.8 107.137 315.688C107.249 315.576 107.385 315.52 107.545 315.52H109.897C110.073 315.52 110.217 315.576 110.329 315.688C110.441 315.8 110.497 315.944 110.497 316.12V317.056C110.913 316.544 111.449 316.12 112.105 315.784C112.761 315.448 113.561 315.28 114.505 315.28C115.449 315.28 116.273 315.496 116.977 315.928C117.697 316.344 118.257 316.96 118.657 317.776C119.073 318.576 119.281 319.552 119.281 320.704V327.4C119.281 327.576 119.217 327.72 119.089 327.832C118.977 327.944 118.841 328 118.681 328H116.137C115.961 328 115.817 327.944 115.705 327.832C115.593 327.72 115.537 327.576 115.537 327.4V320.848C115.537 320 115.329 319.344 114.913 318.88C114.513 318.4 113.921 318.16 113.137 318.16C112.385 318.16 111.785 318.4 111.337 318.88C110.889 319.344 110.665 320 110.665 320.848V327.4C110.665 327.576 110.609 327.72 110.497 327.832C110.385 327.944 110.249 328 110.089 328H107.545ZM122.733 328C122.573 328 122.437 327.944 122.325 327.832C122.213 327.72 122.157 327.576 122.157 327.4V316.12C122.157 315.944 122.213 315.8 122.325 315.688C122.437 315.576 122.573 315.52 122.733 315.52H125.133C125.309 315.52 125.453 315.576 125.565 315.688C125.677 315.8 125.733 315.944 125.733 316.12V327.4C125.733 327.576 125.677 327.72 125.565 327.832C125.453 327.944 125.309 328 125.133 328H122.733ZM122.661 313.6C122.501 313.6 122.365 313.544 122.253 313.432C122.141 313.32 122.085 313.176 122.085 313V311.08C122.085 310.904 122.141 310.76 122.253 310.648C122.365 310.52 122.501 310.456 122.661 310.456H125.181C125.357 310.456 125.501 310.52 125.613 310.648C125.741 310.76 125.805 310.904 125.805 311.08V313C125.805 313.176 125.741 313.32 125.613 313.432C125.501 313.544 125.357 313.6 125.181 313.6H122.661ZM134.742 328C133.75 328 132.902 327.84 132.198 327.52C131.494 327.184 130.958 326.672 130.59 325.984C130.238 325.296 130.062 324.432 130.062 323.392V318.352H128.19C128.014 318.352 127.87 318.296 127.758 318.184C127.646 318.072 127.59 317.928 127.59 317.752V316.12C127.59 315.944 127.646 315.8 127.758 315.688C127.87 315.576 128.014 315.52 128.19 315.52H130.062V311.56C130.062 311.384 130.118 311.24 130.23 311.128C130.358 311.016 130.502 310.96 130.662 310.96H133.014C133.19 310.96 133.334 311.016 133.446 311.128C133.558 311.24 133.614 311.384 133.614 311.56V315.52H136.614C136.774 315.52 136.91 315.576 137.022 315.688C137.134 315.8 137.19 315.944 137.19 316.12V317.752C137.19 317.928 137.134 318.072 137.022 318.184C136.91 318.296 136.774 318.352 136.614 318.352H133.614V323.104C133.614 323.712 133.718 324.192 133.926 324.544C134.15 324.88 134.534 325.048 135.078 325.048H136.83C136.99 325.048 137.126 325.104 137.238 325.216C137.35 325.328 137.406 325.464 137.406 325.624V327.4C137.406 327.576 137.35 327.72 137.238 327.832C137.126 327.944 136.99 328 136.83 328H134.742ZM145.212 328.24C143.884 328.24 142.772 328.024 141.876 327.592C140.98 327.144 140.292 326.512 139.812 325.696C139.348 324.88 139.092 323.928 139.044 322.84C139.028 322.52 139.02 322.16 139.02 321.76C139.02 321.344 139.028 320.984 139.044 320.68C139.092 319.576 139.364 318.624 139.86 317.824C140.356 317.008 141.052 316.384 141.948 315.952C142.844 315.504 143.932 315.28 145.212 315.28C146.476 315.28 147.556 315.504 148.452 315.952C149.348 316.384 150.044 317.008 150.54 317.824C151.036 318.624 151.308 319.576 151.356 320.68C151.388 320.984 151.404 321.344 151.404 321.76C151.404 322.16 151.388 322.52 151.356 322.84C151.308 323.928 151.044 324.88 150.564 325.696C150.1 326.512 149.42 327.144 148.524 327.592C147.628 328.024 146.524 328.24 145.212 328.24ZM145.212 325.6C145.996 325.6 146.588 325.36 146.988 324.88C147.388 324.384 147.604 323.664 147.636 322.72C147.652 322.48 147.66 322.16 147.66 321.76C147.66 321.36 147.652 321.04 147.636 320.8C147.604 319.872 147.388 319.16 146.988 318.664C146.588 318.168 145.996 317.92 145.212 317.92C144.428 317.92 143.828 318.168 143.412 318.664C143.012 319.16 142.796 319.872 142.764 320.8C142.748 321.04 142.74 321.36 142.74 321.76C142.74 322.16 142.748 322.48 142.764 322.72C142.796 323.664 143.012 324.384 143.412 324.88C143.828 325.36 144.428 325.6 145.212 325.6ZM154.49 328C154.33 328 154.194 327.944 154.082 327.832C153.97 327.72 153.914 327.576 153.914 327.4V316.12C153.914 315.96 153.97 315.824 154.082 315.712C154.194 315.584 154.33 315.52 154.49 315.52H156.842C157.002 315.52 157.138 315.584 157.25 315.712C157.378 315.824 157.442 315.96 157.442 316.12V317.08C157.842 316.584 158.33 316.2 158.906 315.928C159.498 315.656 160.178 315.52 160.946 315.52H161.978C162.138 315.52 162.274 315.576 162.386 315.688C162.498 315.8 162.554 315.944 162.554 316.12V318.184C162.554 318.36 162.498 318.504 162.386 318.616C162.274 318.728 162.138 318.784 161.978 318.784H159.866C159.162 318.784 158.61 318.984 158.21 319.384C157.81 319.768 157.61 320.32 157.61 321.04V327.4C157.61 327.576 157.554 327.72 157.442 327.832C157.33 327.944 157.186 328 157.01 328H154.49ZM167.805 328.24C166.957 328.24 166.197 328.08 165.525 327.76C164.853 327.424 164.317 326.976 163.917 326.416C163.517 325.856 163.317 325.232 163.317 324.544C163.317 323.408 163.773 322.512 164.685 321.856C165.613 321.2 166.829 320.752 168.333 320.512L171.477 320.056V319.624C171.477 319 171.333 318.52 171.045 318.184C170.757 317.848 170.253 317.68 169.533 317.68C169.005 317.68 168.581 317.784 168.261 317.992C167.941 318.2 167.693 318.472 167.517 318.808C167.389 319.016 167.205 319.12 166.965 319.12H164.685C164.509 319.12 164.373 319.072 164.277 318.976C164.181 318.864 164.141 318.736 164.157 318.592C164.157 318.32 164.261 318 164.469 317.632C164.677 317.264 164.997 316.904 165.429 316.552C165.861 316.184 166.413 315.88 167.085 315.64C167.757 315.4 168.581 315.28 169.557 315.28C170.565 315.28 171.429 315.4 172.149 315.64C172.869 315.88 173.445 316.216 173.877 316.648C174.309 317.08 174.629 317.584 174.837 318.16C175.045 318.72 175.149 319.328 175.149 319.984V327.4C175.149 327.576 175.093 327.72 174.981 327.832C174.869 327.944 174.725 328 174.549 328H172.197C172.037 328 171.901 327.944 171.789 327.832C171.677 327.72 171.621 327.576 171.621 327.4V326.512C171.413 326.816 171.133 327.104 170.781 327.376C170.429 327.632 170.005 327.84 169.509 328C169.029 328.16 168.461 328.24 167.805 328.24ZM168.765 325.744C169.293 325.744 169.765 325.632 170.181 325.408C170.597 325.184 170.925 324.84 171.165 324.376C171.405 323.912 171.525 323.328 171.525 322.624V322.216L169.293 322.576C168.429 322.72 167.797 322.936 167.397 323.224C166.997 323.512 166.797 323.864 166.797 324.28C166.797 324.584 166.885 324.848 167.061 325.072C167.253 325.296 167.501 325.464 167.805 325.576C168.109 325.688 168.429 325.744 168.765 325.744ZM178.631 328C178.471 328 178.335 327.944 178.223 327.832C178.111 327.72 178.055 327.576 178.055 327.4V316.12C178.055 315.944 178.111 315.8 178.223 315.688C178.335 315.576 178.471 315.52 178.631 315.52H180.863C181.023 315.52 181.159 315.576 181.271 315.688C181.399 315.8 181.463 315.944 181.463 316.12V316.936C181.783 316.488 182.223 316.104 182.783 315.784C183.359 315.464 184.039 315.296 184.823 315.28C186.679 315.248 187.951 315.952 188.639 317.392C189.007 316.768 189.535 316.264 190.223 315.88C190.927 315.48 191.695 315.28 192.527 315.28C193.359 315.28 194.111 315.472 194.783 315.856C195.455 316.224 195.983 316.8 196.367 317.584C196.767 318.352 196.967 319.344 196.967 320.56V327.4C196.967 327.576 196.911 327.72 196.799 327.832C196.687 327.944 196.551 328 196.391 328H194.015C193.855 328 193.719 327.944 193.607 327.832C193.495 327.72 193.439 327.576 193.439 327.4V320.752C193.439 320.096 193.343 319.584 193.151 319.216C192.959 318.832 192.703 318.56 192.383 318.4C192.079 318.24 191.735 318.16 191.351 318.16C191.015 318.16 190.687 318.24 190.367 318.4C190.063 318.56 189.807 318.832 189.599 319.216C189.407 319.584 189.311 320.096 189.311 320.752V327.4C189.311 327.576 189.255 327.72 189.143 327.832C189.031 327.944 188.887 328 188.711 328H186.359C186.183 328 186.039 327.944 185.927 327.832C185.815 327.72 185.759 327.576 185.759 327.4V320.752C185.759 320.096 185.663 319.584 185.471 319.216C185.279 318.832 185.023 318.56 184.703 318.4C184.399 318.24 184.063 318.16 183.695 318.16C183.359 318.16 183.031 318.248 182.711 318.424C182.391 318.584 182.127 318.848 181.919 319.216C181.727 319.584 181.631 320.088 181.631 320.728V327.4C181.631 327.576 181.575 327.72 181.463 327.832C181.351 327.944 181.215 328 181.055 328H178.631ZM205.443 328.24C203.603 328.24 202.139 327.728 201.051 326.704C199.979 325.68 199.411 324.192 199.347 322.24C199.347 322.112 199.347 321.944 199.347 321.736C199.347 321.512 199.347 321.336 199.347 321.208C199.411 319.976 199.691 318.92 200.187 318.04C200.683 317.144 201.379 316.464 202.275 316C203.171 315.52 204.219 315.28 205.419 315.28C206.763 315.28 207.883 315.56 208.779 316.12C209.691 316.664 210.371 317.416 210.819 318.376C211.283 319.32 211.515 320.408 211.515 321.64V322.192C211.515 322.352 211.451 322.488 211.323 322.6C211.211 322.712 211.075 322.768 210.915 322.768H203.067C203.067 322.784 203.067 322.816 203.067 322.864C203.067 322.896 203.067 322.928 203.067 322.96C203.083 323.472 203.179 323.944 203.355 324.376C203.547 324.792 203.811 325.128 204.147 325.384C204.499 325.64 204.915 325.768 205.395 325.768C205.795 325.768 206.123 325.712 206.379 325.6C206.635 325.488 206.843 325.352 207.003 325.192C207.179 325.032 207.307 324.896 207.387 324.784C207.531 324.624 207.643 324.528 207.723 324.496C207.819 324.448 207.963 324.424 208.155 324.424H210.651C210.811 324.424 210.939 324.472 211.035 324.568C211.147 324.648 211.195 324.768 211.179 324.928C211.163 325.184 211.027 325.504 210.771 325.888C210.531 326.256 210.171 326.624 209.691 326.992C209.211 327.344 208.611 327.64 207.891 327.88C207.187 328.12 206.371 328.24 205.443 328.24ZM203.067 320.584H207.771V320.536C207.771 319.96 207.675 319.464 207.483 319.048C207.307 318.616 207.043 318.28 206.691 318.04C206.339 317.8 205.915 317.68 205.419 317.68C204.923 317.68 204.499 317.8 204.147 318.04C203.795 318.28 203.523 318.616 203.331 319.048C203.155 319.464 203.067 319.96 203.067 320.536V320.584ZM214.49 328C214.33 328 214.194 327.944 214.082 327.832C213.97 327.72 213.914 327.576 213.914 327.4V316.12C213.914 315.944 213.97 315.8 214.082 315.688C214.194 315.576 214.33 315.52 214.49 315.52H216.842C217.018 315.52 217.162 315.576 217.274 315.688C217.386 315.8 217.442 315.944 217.442 316.12V317.056C217.858 316.544 218.394 316.12 219.05 315.784C219.706 315.448 220.506 315.28 221.45 315.28C222.394 315.28 223.218 315.496 223.922 315.928C224.642 316.344 225.202 316.96 225.602 317.776C226.018 318.576 226.226 319.552 226.226 320.704V327.4C226.226 327.576 226.162 327.72 226.034 327.832C225.922 327.944 225.786 328 225.626 328H223.082C222.906 328 222.762 327.944 222.65 327.832C222.538 327.72 222.482 327.576 222.482 327.4V320.848C222.482 320 222.274 319.344 221.858 318.88C221.458 318.4 220.866 318.16 220.082 318.16C219.33 318.16 218.73 318.4 218.282 318.88C217.834 319.344 217.61 320 217.61 320.848V327.4C217.61 327.576 217.554 327.72 217.442 327.832C217.33 327.944 217.194 328 217.034 328H214.49ZM234.961 328C233.969 328 233.121 327.84 232.417 327.52C231.713 327.184 231.177 326.672 230.809 325.984C230.457 325.296 230.281 324.432 230.281 323.392V318.352H228.409C228.233 318.352 228.089 318.296 227.977 318.184C227.865 318.072 227.809 317.928 227.809 317.752V316.12C227.809 315.944 227.865 315.8 227.977 315.688C228.089 315.576 228.233 315.52 228.409 315.52H230.281V311.56C230.281 311.384 230.337 311.24 230.449 311.128C230.577 311.016 230.721 310.96 230.881 310.96H233.233C233.409 310.96 233.553 311.016 233.665 311.128C233.777 311.24 233.833 311.384 233.833 311.56V315.52H236.833C236.993 315.52 237.129 315.576 237.241 315.688C237.353 315.8 237.409 315.944 237.409 316.12V317.752C237.409 317.928 237.353 318.072 237.241 318.184C237.129 318.296 236.993 318.352 236.833 318.352H233.833V323.104C233.833 323.712 233.937 324.192 234.145 324.544C234.369 324.88 234.753 325.048 235.297 325.048H237.049C237.209 325.048 237.345 325.104 237.457 325.216C237.569 325.328 237.625 325.464 237.625 325.624V327.4C237.625 327.576 237.569 327.72 237.457 327.832C237.345 327.944 237.209 328 237.049 328H234.961ZM245.431 328.24C244.103 328.24 242.991 328.024 242.095 327.592C241.199 327.144 240.511 326.512 240.031 325.696C239.567 324.88 239.311 323.928 239.263 322.84C239.247 322.52 239.239 322.16 239.239 321.76C239.239 321.344 239.247 320.984 239.263 320.68C239.311 319.576 239.583 318.624 240.079 317.824C240.575 317.008 241.271 316.384 242.167 315.952C243.063 315.504 244.151 315.28 245.431 315.28C246.695 315.28 247.775 315.504 248.671 315.952C249.567 316.384 250.263 317.008 250.759 317.824C251.255 318.624 251.527 319.576 251.575 320.68C251.607 320.984 251.623 321.344 251.623 321.76C251.623 322.16 251.607 322.52 251.575 322.84C251.527 323.928 251.263 324.88 250.783 325.696C250.319 326.512 249.639 327.144 248.743 327.592C247.847 328.024 246.743 328.24 245.431 328.24ZM245.431 325.6C246.215 325.6 246.807 325.36 247.207 324.88C247.607 324.384 247.823 323.664 247.855 322.72C247.871 322.48 247.879 322.16 247.879 321.76C247.879 321.36 247.871 321.04 247.855 320.8C247.823 319.872 247.607 319.16 247.207 318.664C246.807 318.168 246.215 317.92 245.431 317.92C244.647 317.92 244.047 318.168 243.631 318.664C243.231 319.16 243.015 319.872 242.983 320.8C242.967 321.04 242.959 321.36 242.959 321.76C242.959 322.16 242.967 322.48 242.983 322.72C243.015 323.664 243.231 324.384 243.631 324.88C244.047 325.36 244.647 325.6 245.431 325.6Z" fill="black" fill-opacity="0.2"/>
<path d="M73.7549 326C73.5949 326 73.4509 325.944 73.3229 325.832C73.2109 325.72 73.1549 325.576 73.1549 325.4V309.8C73.1549 309.624 73.2109 309.48 73.3229 309.368C73.4509 309.256 73.5949 309.2 73.7549 309.2H75.9869C76.2269 309.2 76.4029 309.264 76.5149 309.392C76.6429 309.52 76.7309 309.616 76.7789 309.68L81.1949 317.816L85.6589 309.68C85.6909 309.616 85.7629 309.52 85.8749 309.392C86.0029 309.264 86.1869 309.2 86.4269 309.2H88.6589C88.8349 309.2 88.9789 309.256 89.0909 309.368C89.2029 309.48 89.2589 309.624 89.2589 309.8V325.4C89.2589 325.576 89.2029 325.72 89.0909 325.832C88.9789 325.944 88.8349 326 88.6589 326H86.2109C86.0509 326 85.9149 325.944 85.8029 325.832C85.6909 325.72 85.6349 325.576 85.6349 325.4V315.704L82.5869 321.416C82.5069 321.56 82.4029 321.688 82.2749 321.8C82.1469 321.912 81.9789 321.968 81.7709 321.968H80.6429C80.4349 321.968 80.2669 321.912 80.1389 321.8C80.0109 321.688 79.9069 321.56 79.8269 321.416L76.7789 315.704V325.4C76.7789 325.576 76.7229 325.72 76.6109 325.832C76.4989 325.944 76.3629 326 76.2029 326H73.7549ZM98.267 326.24C96.939 326.24 95.827 326.024 94.931 325.592C94.035 325.144 93.347 324.512 92.867 323.696C92.403 322.88 92.147 321.928 92.099 320.84C92.083 320.52 92.075 320.16 92.075 319.76C92.075 319.344 92.083 318.984 92.099 318.68C92.147 317.576 92.419 316.624 92.915 315.824C93.411 315.008 94.107 314.384 95.003 313.952C95.899 313.504 96.987 313.28 98.267 313.28C99.531 313.28 100.611 313.504 101.507 313.952C102.403 314.384 103.099 315.008 103.595 315.824C104.091 316.624 104.363 317.576 104.411 318.68C104.443 318.984 104.459 319.344 104.459 319.76C104.459 320.16 104.443 320.52 104.411 320.84C104.363 321.928 104.099 322.88 103.619 323.696C103.155 324.512 102.475 325.144 101.579 325.592C100.683 326.024 99.579 326.24 98.267 326.24ZM98.267 323.6C99.051 323.6 99.643 323.36 100.043 322.88C100.443 322.384 100.659 321.664 100.691 320.72C100.707 320.48 100.715 320.16 100.715 319.76C100.715 319.36 100.707 319.04 100.691 318.8C100.659 317.872 100.443 317.16 100.043 316.664C99.643 316.168 99.051 315.92 98.267 315.92C97.483 315.92 96.883 316.168 96.467 316.664C96.067 317.16 95.851 317.872 95.819 318.8C95.803 319.04 95.795 319.36 95.795 319.76C95.795 320.16 95.803 320.48 95.819 320.72C95.851 321.664 96.067 322.384 96.467 322.88C96.883 323.36 97.483 323.6 98.267 323.6ZM107.545 326C107.385 326 107.249 325.944 107.137 325.832C107.025 325.72 106.969 325.576 106.969 325.4V314.12C106.969 313.944 107.025 313.8 107.137 313.688C107.249 313.576 107.385 313.52 107.545 313.52H109.897C110.073 313.52 110.217 313.576 110.329 313.688C110.441 313.8 110.497 313.944 110.497 314.12V315.056C110.913 314.544 111.449 314.12 112.105 313.784C112.761 313.448 113.561 313.28 114.505 313.28C115.449 313.28 116.273 313.496 116.977 313.928C117.697 314.344 118.257 314.96 118.657 315.776C119.073 316.576 119.281 317.552 119.281 318.704V325.4C119.281 325.576 119.217 325.72 119.089 325.832C118.977 325.944 118.841 326 118.681 326H116.137C115.961 326 115.817 325.944 115.705 325.832C115.593 325.72 115.537 325.576 115.537 325.4V318.848C115.537 318 115.329 317.344 114.913 316.88C114.513 316.4 113.921 316.16 113.137 316.16C112.385 316.16 111.785 316.4 111.337 316.88C110.889 317.344 110.665 318 110.665 318.848V325.4C110.665 325.576 110.609 325.72 110.497 325.832C110.385 325.944 110.249 326 110.089 326H107.545ZM122.733 326C122.573 326 122.437 325.944 122.325 325.832C122.213 325.72 122.157 325.576 122.157 325.4V314.12C122.157 313.944 122.213 313.8 122.325 313.688C122.437 313.576 122.573 313.52 122.733 313.52H125.133C125.309 313.52 125.453 313.576 125.565 313.688C125.677 313.8 125.733 313.944 125.733 314.12V325.4C125.733 325.576 125.677 325.72 125.565 325.832C125.453 325.944 125.309 326 125.133 326H122.733ZM122.661 311.6C122.501 311.6 122.365 311.544 122.253 311.432C122.141 311.32 122.085 311.176 122.085 311V309.08C122.085 308.904 122.141 308.76 122.253 308.648C122.365 308.52 122.501 308.456 122.661 308.456H125.181C125.357 308.456 125.501 308.52 125.613 308.648C125.741 308.76 125.805 308.904 125.805 309.08V311C125.805 311.176 125.741 311.32 125.613 311.432C125.501 311.544 125.357 311.6 125.181 311.6H122.661ZM134.742 326C133.75 326 132.902 325.84 132.198 325.52C131.494 325.184 130.958 324.672 130.59 323.984C130.238 323.296 130.062 322.432 130.062 321.392V316.352H128.19C128.014 316.352 127.87 316.296 127.758 316.184C127.646 316.072 127.59 315.928 127.59 315.752V314.12C127.59 313.944 127.646 313.8 127.758 313.688C127.87 313.576 128.014 313.52 128.19 313.52H130.062V309.56C130.062 309.384 130.118 309.24 130.23 309.128C130.358 309.016 130.502 308.96 130.662 308.96H133.014C133.19 308.96 133.334 309.016 133.446 309.128C133.558 309.24 133.614 309.384 133.614 309.56V313.52H136.614C136.774 313.52 136.91 313.576 137.022 313.688C137.134 313.8 137.19 313.944 137.19 314.12V315.752C137.19 315.928 137.134 316.072 137.022 316.184C136.91 316.296 136.774 316.352 136.614 316.352H133.614V321.104C133.614 321.712 133.718 322.192 133.926 322.544C134.15 322.88 134.534 323.048 135.078 323.048H136.83C136.99 323.048 137.126 323.104 137.238 323.216C137.35 323.328 137.406 323.464 137.406 323.624V325.4C137.406 325.576 137.35 325.72 137.238 325.832C137.126 325.944 136.99 326 136.83 326H134.742ZM145.212 326.24C143.884 326.24 142.772 326.024 141.876 325.592C140.98 325.144 140.292 324.512 139.812 323.696C139.348 322.88 139.092 321.928 139.044 320.84C139.028 320.52 139.02 320.16 139.02 319.76C139.02 319.344 139.028 318.984 139.044 318.68C139.092 317.576 139.364 316.624 139.86 315.824C140.356 315.008 141.052 314.384 141.948 313.952C142.844 313.504 143.932 313.28 145.212 313.28C146.476 313.28 147.556 313.504 148.452 313.952C149.348 314.384 150.044 315.008 150.54 315.824C151.036 316.624 151.308 317.576 151.356 318.68C151.388 318.984 151.404 319.344 151.404 319.76C151.404 320.16 151.388 320.52 151.356 320.84C151.308 321.928 151.044 322.88 150.564 323.696C150.1 324.512 149.42 325.144 148.524 325.592C147.628 326.024 146.524 326.24 145.212 326.24ZM145.212 323.6C145.996 323.6 146.588 323.36 146.988 322.88C147.388 322.384 147.604 321.664 147.636 320.72C147.652 320.48 147.66 320.16 147.66 319.76C147.66 319.36 147.652 319.04 147.636 318.8C147.604 317.872 147.388 317.16 146.988 316.664C146.588 316.168 145.996 315.92 145.212 315.92C144.428 315.92 143.828 316.168 143.412 316.664C143.012 317.16 142.796 317.872 142.764 318.8C142.748 319.04 142.74 319.36 142.74 319.76C142.74 320.16 142.748 320.48 142.764 320.72C142.796 321.664 143.012 322.384 143.412 322.88C143.828 323.36 144.428 323.6 145.212 323.6ZM154.49 326C154.33 326 154.194 325.944 154.082 325.832C153.97 325.72 153.914 325.576 153.914 325.4V314.12C153.914 313.96 153.97 313.824 154.082 313.712C154.194 313.584 154.33 313.52 154.49 313.52H156.842C157.002 313.52 157.138 313.584 157.25 313.712C157.378 313.824 157.442 313.96 157.442 314.12V315.08C157.842 314.584 158.33 314.2 158.906 313.928C159.498 313.656 160.178 313.52 160.946 313.52H161.978C162.138 313.52 162.274 313.576 162.386 313.688C162.498 313.8 162.554 313.944 162.554 314.12V316.184C162.554 316.36 162.498 316.504 162.386 316.616C162.274 316.728 162.138 316.784 161.978 316.784H159.866C159.162 316.784 158.61 316.984 158.21 317.384C157.81 317.768 157.61 318.32 157.61 319.04V325.4C157.61 325.576 157.554 325.72 157.442 325.832C157.33 325.944 157.186 326 157.01 326H154.49ZM167.805 326.24C166.957 326.24 166.197 326.08 165.525 325.76C164.853 325.424 164.317 324.976 163.917 324.416C163.517 323.856 163.317 323.232 163.317 322.544C163.317 321.408 163.773 320.512 164.685 319.856C165.613 319.2 166.829 318.752 168.333 318.512L171.477 318.056V317.624C171.477 317 171.333 316.52 171.045 316.184C170.757 315.848 170.253 315.68 169.533 315.68C169.005 315.68 168.581 315.784 168.261 315.992C167.941 316.2 167.693 316.472 167.517 316.808C167.389 317.016 167.205 317.12 166.965 317.12H164.685C164.509 317.12 164.373 317.072 164.277 316.976C164.181 316.864 164.141 316.736 164.157 316.592C164.157 316.32 164.261 316 164.469 315.632C164.677 315.264 164.997 314.904 165.429 314.552C165.861 314.184 166.413 313.88 167.085 313.64C167.757 313.4 168.581 313.28 169.557 313.28C170.565 313.28 171.429 313.4 172.149 313.64C172.869 313.88 173.445 314.216 173.877 314.648C174.309 315.08 174.629 315.584 174.837 316.16C175.045 316.72 175.149 317.328 175.149 317.984V325.4C175.149 325.576 175.093 325.72 174.981 325.832C174.869 325.944 174.725 326 174.549 326H172.197C172.037 326 171.901 325.944 171.789 325.832C171.677 325.72 171.621 325.576 171.621 325.4V324.512C171.413 324.816 171.133 325.104 170.781 325.376C170.429 325.632 170.005 325.84 169.509 326C169.029 326.16 168.461 326.24 167.805 326.24ZM168.765 323.744C169.293 323.744 169.765 323.632 170.181 323.408C170.597 323.184 170.925 322.84 171.165 322.376C171.405 321.912 171.525 321.328 171.525 320.624V320.216L169.293 320.576C168.429 320.72 167.797 320.936 167.397 321.224C166.997 321.512 166.797 321.864 166.797 322.28C166.797 322.584 166.885 322.848 167.061 323.072C167.253 323.296 167.501 323.464 167.805 323.576C168.109 323.688 168.429 323.744 168.765 323.744ZM178.631 326C178.471 326 178.335 325.944 178.223 325.832C178.111 325.72 178.055 325.576 178.055 325.4V314.12C178.055 313.944 178.111 313.8 178.223 313.688C178.335 313.576 178.471 313.52 178.631 313.52H180.863C181.023 313.52 181.159 313.576 181.271 313.688C181.399 313.8 181.463 313.944 181.463 314.12V314.936C181.783 314.488 182.223 314.104 182.783 313.784C183.359 313.464 184.039 313.296 184.823 313.28C186.679 313.248 187.951 313.952 188.639 315.392C189.007 314.768 189.535 314.264 190.223 313.88C190.927 313.48 191.695 313.28 192.527 313.28C193.359 313.28 194.111 313.472 194.783 313.856C195.455 314.224 195.983 314.8 196.367 315.584C196.767 316.352 196.967 317.344 196.967 318.56V325.4C196.967 325.576 196.911 325.72 196.799 325.832C196.687 325.944 196.551 326 196.391 326H194.015C193.855 326 193.719 325.944 193.607 325.832C193.495 325.72 193.439 325.576 193.439 325.4V318.752C193.439 318.096 193.343 317.584 193.151 317.216C192.959 316.832 192.703 316.56 192.383 316.4C192.079 316.24 191.735 316.16 191.351 316.16C191.015 316.16 190.687 316.24 190.367 316.4C190.063 316.56 189.807 316.832 189.599 317.216C189.407 317.584 189.311 318.096 189.311 318.752V325.4C189.311 325.576 189.255 325.72 189.143 325.832C189.031 325.944 188.887 326 188.711 326H186.359C186.183 326 186.039 325.944 185.927 325.832C185.815 325.72 185.759 325.576 185.759 325.4V318.752C185.759 318.096 185.663 317.584 185.471 317.216C185.279 316.832 185.023 316.56 184.703 316.4C184.399 316.24 184.063 316.16 183.695 316.16C183.359 316.16 183.031 316.248 182.711 316.424C182.391 316.584 182.127 316.848 181.919 317.216C181.727 317.584 181.631 318.088 181.631 318.728V325.4C181.631 325.576 181.575 325.72 181.463 325.832C181.351 325.944 181.215 326 181.055 326H178.631ZM205.443 326.24C203.603 326.24 202.139 325.728 201.051 324.704C199.979 323.68 199.411 322.192 199.347 320.24C199.347 320.112 199.347 319.944 199.347 319.736C199.347 319.512 199.347 319.336 199.347 319.208C199.411 317.976 199.691 316.92 200.187 316.04C200.683 315.144 201.379 314.464 202.275 314C203.171 313.52 204.219 313.28 205.419 313.28C206.763 313.28 207.883 313.56 208.779 314.12C209.691 314.664 210.371 315.416 210.819 316.376C211.283 317.32 211.515 318.408 211.515 319.64V320.192C211.515 320.352 211.451 320.488 211.323 320.6C211.211 320.712 211.075 320.768 210.915 320.768H203.067C203.067 320.784 203.067 320.816 203.067 320.864C203.067 320.896 203.067 320.928 203.067 320.96C203.083 321.472 203.179 321.944 203.355 322.376C203.547 322.792 203.811 323.128 204.147 323.384C204.499 323.64 204.915 323.768 205.395 323.768C205.795 323.768 206.123 323.712 206.379 323.6C206.635 323.488 206.843 323.352 207.003 323.192C207.179 323.032 207.307 322.896 207.387 322.784C207.531 322.624 207.643 322.528 207.723 322.496C207.819 322.448 207.963 322.424 208.155 322.424H210.651C210.811 322.424 210.939 322.472 211.035 322.568C211.147 322.648 211.195 322.768 211.179 322.928C211.163 323.184 211.027 323.504 210.771 323.888C210.531 324.256 210.171 324.624 209.691 324.992C209.211 325.344 208.611 325.64 207.891 325.88C207.187 326.12 206.371 326.24 205.443 326.24ZM203.067 318.584H207.771V318.536C207.771 317.96 207.675 317.464 207.483 317.048C207.307 316.616 207.043 316.28 206.691 316.04C206.339 315.8 205.915 315.68 205.419 315.68C204.923 315.68 204.499 315.8 204.147 316.04C203.795 316.28 203.523 316.616 203.331 317.048C203.155 317.464 203.067 317.96 203.067 318.536V318.584ZM214.49 326C214.33 326 214.194 325.944 214.082 325.832C213.97 325.72 213.914 325.576 213.914 325.4V314.12C213.914 313.944 213.97 313.8 214.082 313.688C214.194 313.576 214.33 313.52 214.49 313.52H216.842C217.018 313.52 217.162 313.576 217.274 313.688C217.386 313.8 217.442 313.944 217.442 314.12V315.056C217.858 314.544 218.394 314.12 219.05 313.784C219.706 313.448 220.506 313.28 221.45 313.28C222.394 313.28 223.218 313.496 223.922 313.928C224.642 314.344 225.202 314.96 225.602 315.776C226.018 316.576 226.226 317.552 226.226 318.704V325.4C226.226 325.576 226.162 325.72 226.034 325.832C225.922 325.944 225.786 326 225.626 326H223.082C222.906 326 222.762 325.944 222.65 325.832C222.538 325.72 222.482 325.576 222.482 325.4V318.848C222.482 318 222.274 317.344 221.858 316.88C221.458 316.4 220.866 316.16 220.082 316.16C219.33 316.16 218.73 316.4 218.282 316.88C217.834 317.344 217.61 318 217.61 318.848V325.4C217.61 325.576 217.554 325.72 217.442 325.832C217.33 325.944 217.194 326 217.034 326H214.49ZM234.961 326C233.969 326 233.121 325.84 232.417 325.52C231.713 325.184 231.177 324.672 230.809 323.984C230.457 323.296 230.281 322.432 230.281 321.392V316.352H228.409C228.233 316.352 228.089 316.296 227.977 316.184C227.865 316.072 227.809 315.928 227.809 315.752V314.12C227.809 313.944 227.865 313.8 227.977 313.688C228.089 313.576 228.233 313.52 228.409 313.52H230.281V309.56C230.281 309.384 230.337 309.24 230.449 309.128C230.577 309.016 230.721 308.96 230.881 308.96H233.233C233.409 308.96 233.553 309.016 233.665 309.128C233.777 309.24 233.833 309.384 233.833 309.56V313.52H236.833C236.993 313.52 237.129 313.576 237.241 313.688C237.353 313.8 237.409 313.944 237.409 314.12V315.752C237.409 315.928 237.353 316.072 237.241 316.184C237.129 316.296 236.993 316.352 236.833 316.352H233.833V321.104C233.833 321.712 233.937 322.192 234.145 322.544C234.369 322.88 234.753 323.048 235.297 323.048H237.049C237.209 323.048 237.345 323.104 237.457 323.216C237.569 323.328 237.625 323.464 237.625 323.624V325.4C237.625 325.576 237.569 325.72 237.457 325.832C237.345 325.944 237.209 326 237.049 326H234.961ZM245.431 326.24C244.103 326.24 242.991 326.024 242.095 325.592C241.199 325.144 240.511 324.512 240.031 323.696C239.567 322.88 239.311 321.928 239.263 320.84C239.247 320.52 239.239 320.16 239.239 319.76C239.239 319.344 239.247 318.984 239.263 318.68C239.311 317.576 239.583 316.624 240.079 315.824C240.575 315.008 241.271 314.384 242.167 313.952C243.063 313.504 244.151 313.28 245.431 313.28C246.695 313.28 247.775 313.504 248.671 313.952C249.567 314.384 250.263 315.008 250.759 315.824C251.255 316.624 251.527 317.576 251.575 318.68C251.607 318.984 251.623 319.344 251.623 319.76C251.623 320.16 251.607 320.52 251.575 320.84C251.527 321.928 251.263 322.88 250.783 323.696C250.319 324.512 249.639 325.144 248.743 325.592C247.847 326.024 246.743 326.24 245.431 326.24ZM245.431 323.6C246.215 323.6 246.807 323.36 247.207 322.88C247.607 322.384 247.823 321.664 247.855 320.72C247.871 320.48 247.879 320.16 247.879 319.76C247.879 319.36 247.871 319.04 247.855 318.8C247.823 317.872 247.607 317.16 247.207 316.664C246.807 316.168 246.215 315.92 245.431 315.92C244.647 315.92 244.047 316.168 243.631 316.664C243.231 317.16 243.015 317.872 242.983 318.8C242.967 319.04 242.959 319.36 242.959 319.76C242.959 320.16 242.967 320.48 242.983 320.72C243.015 321.664 243.231 322.384 243.631 322.88C244.047 323.36 244.647 323.6 245.431 323.6Z" fill="#2A668B"/>
</svg>
