<svg width="1920" height="308" viewBox="0 0 1920 308" fill="none" xmlns="http://www.w3.org/2000/svg">
<path fill-rule="evenodd" clip-rule="evenodd" d="M0 222C0 285 137.814 157.738 231.5 159C327.777 160.297 370.765 228.871 467 232C567.015 235.251 615.579 164.078 715.5 169.5C825.35 175.461 866.509 273.345 976.5 275.5C1067.32 277.279 1109.21 208.221 1200 211.104C1300.88 214.308 1339.08 308.368 1440 307C1557.27 305.41 1589.79 173.621 1707 169.5C1793.63 166.454 1920 310 1920 232C1920 154 1920 -0.00012207 1920 -0.00012207H1440H960H480H0C0 -0.00012207 0 159 0 222Z" fill="#2A668B"/>
</svg>
