<svg width="1920" height="801" viewBox="0 0 1920 801" fill="none" xmlns="http://www.w3.org/2000/svg">
<path d="M671 50C772.505 23.6886 836.615 -3.09521 946.5 0.5C1050.29 3.89576 1059.77 36.6672 1156 65C1291.99 105.04 1385.96 37.6379 1517.91 93.0683C1653.52 150.03 1614.55 238.275 1715.5 298C1769.1 329.712 1858.05 328.262 1911.91 330.068C2100.24 336.383 1911.91 812.568 1911.91 812.568H-8.08556C-8.08556 812.568 -194.643 356.553 -8.08556 330.068C56.7526 320.864 125.66 339.088 186.5 298C258.896 249.108 214.936 157.277 321.414 93.0683C440.135 21.4769 537.847 84.5152 671 50Z" fill="#2A668B"/>
</svg>
