<svg width="1920" height="189" viewBox="0 0 1920 189" fill="none" xmlns="http://www.w3.org/2000/svg">
<path fill-rule="evenodd" clip-rule="evenodd" d="M0 103C0 166 137.814 38.7376 231.5 39.9999C327.777 41.297 370.765 109.871 467 113C567.015 116.251 615.579 45.0778 715.5 50.4999C825.35 56.4607 866.509 154.345 976.5 156.5C1067.32 158.279 1109.21 89.2207 1200 92.104C1300.88 95.3079 1339.08 189.368 1440 188C1557.27 186.41 1589.79 54.6213 1707 50.4999C1793.63 47.4536 1920 191 1920 113C1920 34.9998 1920 0 1920 0H1445.5H962H478H0C0 0 0 39.9999 0 103Z" fill="#2A668B"/>
</svg>
