<svg version="1.2" xmlns="http://www.w3.org/2000/svg" width="500" height="500"><style>.s0{fill:#e0e0e0}.s1{fill:#fafafa}.s2{fill:#f0f0f0}.s3{fill:#e6e6e6}.s4{fill:#ebebeb}.s6{opacity:.2;fill:#000}.s7{fill:#407bff}.s8{opacity:.8;fill:#fff}.s9{fill:#263238}.s10{opacity:.4;fill:#fff}.s11,.s12{opacity:.7;fill:#fff}.s12{opacity:.2}.s13{opacity:.6}.s13,.s14,.s15{fill:#fff}.s15{opacity:.5}.s16,.s17{fill:none;stroke:#407bff;stroke-miterlimit:10;stroke-width:.8}.s17{stroke:#263238;stroke-width:.4}.s18,.s19{fill:none;stroke:#407bff;stroke-width:.5}.s18{stroke-linecap:round;stroke-linejoin:round}.s19{stroke-miterlimit:10}.s20{opacity:.3}.s20,.s21{fill:#000}.s23{fill:#e4897b}.s27{fill:none;stroke:#fff;stroke-linecap:round;stroke-linejoin:round;stroke-width:.5}</style><g id="Background complete"><g id="&lt;Group&gt;"><path id="&lt;Path&gt;" class="s0" d="m302.3 81.1 129.4 36.1-25.8 92.6-129.5-36.1z"/><path id="&lt;Path&gt;" class="s1" d="m341.3 191.3 26.3-94.4s18.1-1.1 62.2 11.2l-27.9 100.1z"/><path id="&lt;Path&gt;" class="s2" d="m341.3 191.3 26.3-94.4s-14.9-10.3-59-22.7l-27.9 100.2zM369.6 108c-.4-.1-.7-.6-.6-1 0-.5.5-.9 1-.9 17.2 2.2 34.2 5.6 50.9 10.2.5.2.8.8.6 1.2-.2.5-.6.7-1.1.6-16.6-4.6-33.5-7.9-50.6-10.1h-.2zM367.7 114.8c-.4-.2-.7-.6-.6-1.1.1-.5.5-.8 1-.8.3.1 26.3 3.7 50.8 10.5.5.2.7.8.5 1.3-.1.4-.5.6-1 .6-24.4-6.8-50.3-10.5-50.6-10.5h-.1zM365.8 121.6c-.4-.2-.7-.6-.6-1.1.1-.5.5-.9 1-.8.3.1 28.7 4.7 50.8 10.9.4.2.7.7.5 1.2-.2.4-.6.6-1.1.6-21.9-6.1-50.2-10.8-50.5-10.8zM363.9 128.3c-.4-.1-.7-.6-.6-1 .1-.5.6-.9 1.1-.8.3.1 31 5.7 50.6 11.2.4.2.7.7.5 1.2-.2.4-.6.7-1 .6-19.6-5.4-50.2-11.1-50.5-11.2zM362 135.1c-.4-.1-.7-.6-.6-1.1.1-.5.6-.8 1.1-.7.3 0 33.3 6.7 50.5 11.5.5.2.7.7.5 1.2-.1.5-.6.7-1 .6-17.1-4.7-50.1-11.4-50.4-11.5zM360.2 141.9c-.5-.1-.8-.6-.7-1.1.1-.5.6-.8 1.1-.7.4 0 35.7 7.7 50.4 11.8.5.2.7.8.5 1.2-.1.5-.6.7-1 .6-14.7-4-49.9-11.7-50.3-11.8zM358.3 148.7c-.5-.2-.8-.8-.6-1.3.2-.4.6-.6 1-.5.4 0 38.1 8.7 50.3 12.1.5.2.7.8.6 1.3-.2.4-.7.7-1.1.6-12.2-3.4-49.8-12.1-50.2-12.2zM356.4 155.5c-.5-.2-.8-.8-.6-1.3.2-.4.6-.6 1-.6.4.1 40.4 9.8 50.2 12.6.5.2.8.7.6 1.2-.2.4-.6.7-1.1.6-9.8-2.7-49.7-12.4-50.1-12.5zM354.5 162.2c-.5-.1-.8-.7-.6-1.2.2-.4.6-.7 1.1-.6.4.1 42.7 10.8 50 12.9.5.2.7.7.5 1.2-.1.4-.6.7-1 .6-7.3-2-49.6-12.7-50-12.9zM352.6 169c-.5-.2-.8-.7-.6-1.2.2-.4.6-.7 1.1-.6.4.1 45.1 11.8 50 13.2.4.2.7.8.5 1.3-.2.4-.6.6-1.1.5-4.8-1.3-49.4-13-49.9-13.2zM350.7 175.8c-.5-.2-.7-.8-.5-1.2.1-.4.6-.7 1-.6.5.1 47.4 12.9 49.9 13.5.4.2.7.8.5 1.3-.2.4-.6.6-1.1.6-2.4-.7-49.3-13.5-49.8-13.6zM398.6 196.5l-49.8-13.9c-.5-.2-.7-.8-.5-1.3.2-.4.6-.6 1-.5l49.8 13.9c.5.2.7.7.5 1.2-.2.4-.6.6-1 .6z"/><path id="&lt;Path&gt;" class="s3" d="M360.2 105.4c.4.1.9-.2 1-.6.2-.4.1-1-.4-1.2-15.8-7.1-32.1-13-48.8-17.7-.5-.1-1 .3-1.1.8-.1.4.1.9.6 1 16.6 4.7 32.8 10.6 48.5 17.6q.1 0 .2.1zM358.3 112.1c.4.2.9-.1 1-.5.3-.5.1-1-.4-1.2-.2-.2-24.4-10.5-48.9-17.4-.5 0-1 .3-1.1.8-.1.5.2.9.6 1.1 24.4 6.8 48.4 17.1 48.7 17.2h.1zM356.4 118.9c.4.1.9-.1 1.1-.6.2-.4-.1-1-.5-1.2-.3-.1-27-10.8-49-16.9-.5-.1-1 .2-1.1.8-.1.4.2.8.6 1 21.9 6.1 48.5 16.8 48.8 16.9zM354.5 125.7c.5.1.9-.1 1.1-.6.2-.5-.1-1-.5-1.2-.3-.1-29.5-11.2-49.1-16.6-.5-.1-1 .3-1.1.8 0 .4.2.8.6 1 19.5 5.4 48.6 16.5 48.9 16.6zM352.6 132.5c.5.1.9-.2 1.1-.6.2-.5-.1-1-.5-1.2-.3-.1-32-11.5-49.2-16.3-.5-.1-1 .2-1.1.8-.1.4.2.9.6 1 17.1 4.8 48.7 16.2 49.1 16.3zM350.7 139.3c.5.1 1-.2 1.1-.7.2-.4-.1-1-.5-1.1-.4-.2-34.6-11.9-49.3-16-.5-.1-1 .3-1.1.8-.1.4.2.9.6 1 14.7 4.1 48.8 15.8 49.2 16zM348.8 146.1c.5 0 1-.3 1.1-.8.1-.5-.1-.9-.5-1.1-.4-.1-37.1-12.1-49.4-15.6-.5-.1-1 .3-1.1.8 0 .5.2.9.6 1.1 12.2 3.4 48.9 15.4 49.3 15.5zM346.9 152.8c.6.1 1-.2 1.1-.8.1-.4-.1-.8-.5-1-.4-.1-39.7-12.5-49.4-15.2-.6-.1-1.1.2-1.1.7-.1.5.1.9.5 1.1 9.8 2.7 49 15.1 49.4 15.2zM345 159.6c.6.1 1.1-.2 1.2-.7 0-.5-.2-.9-.6-1.1-.5-.1-42.2-12.9-49.5-14.9-.5-.1-1 .3-1.1.8-.1.4.2.8.6 1 7.3 2.1 49 14.8 49.4 14.9zM343.1 166.4c.6.1 1.1-.2 1.2-.8 0-.4-.2-.9-.6-1-.5-.2-44.7-13.2-49.6-14.6-.5-.1-1 .3-1.1.8-.1.4.2.9.6 1 4.8 1.4 49.1 14.5 49.5 14.6zM341.3 173.2c.5.1 1-.3 1-.8.1-.5-.1-.9-.5-1-.5-.2-47.3-13.6-49.7-14.3-.5 0-1 .3-1.1.8-.1.5.2.9.6 1.1 2.4.6 49.2 14 49.6 14.2zM289.6 166.1l49.8 13.9c.5 0 1-.3 1-.8.1-.5-.1-.9-.5-1.1l-49.8-13.8c-.5-.1-1 .2-1.1.8 0 .4.2.8.6 1z"/><path id="&lt;Path&gt;" class="s0" d="m364 130.9-1.9-3.7-3.7 2.1 9.4-33.3 5.8.4zM368 147.9c-.2 0-.2-.3-.2-.8 0-.1.1-.1.2-.1s.2 0 .2.1c.1-.2.2-.5.3-.8q1-2.6 2.2-5c.9-1.7 1.8-2.6 2.6-2.6.5.1.9.3 1.1.7.1.1 0 .2 0 .3-.1.1-.3 0-.3-.1-.2-.3-.4-.5-.8-.5s-1.2.4-2.2 2.4q-1.3 2.4-2.2 4.9c-.5 1.3-.6 1.6-.9 1.5z"/><path id="&lt;Path&gt;" class="s0" d="M368.9 142.7c-.1 0-.2-.1-.2-.2s.1-.1.2-.1l3.4-.4c.1 0 .2 0 .2.1s0 .2-.2.2l-3.3.4q-.1.1-.1 0zM374.6 147.2q0-.1-.1-.1c-2.3-2.4.6-5.8.6-5.9h.3c0 .1.1.2 0 .3-.1.1-2.7 3.1-.6 5.3q.2.2 0 .3-.1.1-.2.1zM377.7 146.8c-.1 0-.2-.1-.1-.2v-.1c2.7-2.9.5-5.2.4-5.3q-.2-.1 0-.3c0-.1.1-.1.2 0 .1 0 2.6 2.7-.3 5.8q-.1.1-.2.1z"/><path id="&lt;Path&gt;" class="s0" d="M377.1 145.1h-.1l-1.7-2.2q-.2-.1 0-.3c.1 0 .2 0 .3.1l1.7 2.1c0 .1 0 .2-.1.3q0 .1-.1 0z"/><path id="&lt;Path&gt;" class="s0" d="M374.8 145q0-.1-.1-.1v-.3l2.5-2.2h.2q.1.1 0 .3l-2.4 2.2q-.1.1-.2.1zM291.7 155.1c-.1 0-.2-.2-.2-.3.3-1.1 1-2.1 2-2.6 2-1.1 4.5-.4 4.6-.4.1.1.1.2.1.3 0 .1-.1.1-.2.1 0 0-2.5-.7-4.3.3-.9.5-1.6 1.4-1.8 2.4 0 .2-.1.2-.2.2z"/><path id="&lt;Path&gt;" class="s0" d="M295.6 156.8q0-.1-.1-.1-.1-.2 0-.4.2-.6.7-.9c-.9.2-1.9.1-2.3-.3-.2-.2-.3-.5 0-1.1.3-.6 1.1-1 1.8-.7.7.2 1.3.9 1.3 1.4 0 .1-.1.1-.2.1s-.2-.1-.2-.2c0-.2-.4-.8-1-.9-.6-.2-1.1 0-1.4.5-.2.4-.1.6 0 .6.5.5 2.3.3 3-.1.1 0 .2 0 .3.1 0 .1 0 .2-.1.2v.1c-.6.3-1.5.9-1.6 1.3.1.1.1.3 0 .3q-.1.1-.2.1zM295.2 157.8q-.2-.1-.4-.3-.2-.1 0-.3c0-.1.2-.1.2 0 .5.5 1.3 0 1.3-.1.1 0 .2 0 .3.1 0 .1 0 .2-.1.3-.3.2-.8.3-1.3.3zM298.8 159.8c-.4-.2-.8-.5-1-.9q-.2-.2 0-.3c.1-.1.2 0 .3.1.2.5.7.8 1.3.8.4-.1.7-.3.9-.7.1-.2 0-.5-.2-.7-.7-.7-2.6.1-3.2.5-.1 0-.2 0-.3-.1v-.1q0-.1.1-.1l4.9-2.9c.1 0 .2 0 .2.1q.2.1 0 .3l-3 1.7c.5-.2 1.1 0 1.5.3.3.3.5.7.3 1.2s-.7.8-1.2.8q-.3.1-.6 0z"/><path id="&lt;Path&gt;" class="s0" d="M297.7 161c-.1 0-.1-.1-.1-.2s.1-.2.2-.2q2.4.6 3.8-.4c1.4-1.1 1.5-3 1.5-3 0-.1.1-.2.2-.2s.2.1.2.2-.1 2.1-1.7 3.3c-1 .7-2.4.9-4.1.5z"/><g id="&lt;Group&gt;"><path id="&lt;Path&gt;" class="s0" d="M399.5 119.1q-.1-.1-.1-.2l1.1-4-1.6-.8c-.1 0-.2-.1-.1-.2 0-.1.1-.2.2-.1l1.8.8q.1.1.1.2l-1 3.5 5.6-5.7q.1-.1.2 0l6.1 2.8c.1 0 .1.1.1.2-.1.1-.2.2-.3.1l-5.9-2.7-6 6.1q-.1.1-.2 0z"/><path id="&lt;Path&gt;" class="s0" d="M406.8 122q-.1 0-.1-.1l-1.4-5.7c-.1-.1 0-.2.1-.2.1-.1.2 0 .2.1l1.5 5.7c0 .1-.1.2-.2.2q0 .1-.1 0z"/><path id="&lt;Path&gt;" class="s0" d="M402.7 120.1q-.1 0-.1-.1c0-.1 0-.2.1-.2l6-2.3c.1 0 .2 0 .3.1 0 .1 0 .2-.1.3l-6 2.2q-.1.1-.2 0z"/></g><path id="&lt;Path&gt;" class="s0" d="M383.9 109.1h-.1c-.2-.1-.6-.4-.6-1.1 0-.8.6-1.6 1.4-1.7.9-.2 1.9.1 2.1.6 0 .1 0 .2-.1.3-.1 0-.2 0-.2-.1-.2-.3-.9-.6-1.7-.4-.7 0-1.2.6-1.1 1.3 0 .6.3.7.4.7.7.3 2.4-1 3-1.8.1-.1.2-.1.3-.1q.1.1 0 .3c-.4.6-1 1.8-.9 2.2l.1.1c.1.1.2.2.1.3 0 .1-.2.1-.3.1q-.2-.1-.2-.4-.1-.7.3-1.3c-.8.6-1.9 1.2-2.5 1z"/><path id="&lt;Compound Path&gt;" class="s0" d="M387.9 107.8h-.1c0-.1-.1-.2 0-.3l1.2-2c0-.1.2-.1.3 0 0 0 .1.1 0 .2l-.5.9q.2-.1.3 0c.2 0 .4.2.5.4 0 .3-.1.6-.4.7q-.5.3-.9 0-.1-.1-.1-.2 0 .1-.1.2t-.2.1zm.6-.5c.2.1.4.2.5.1q.2-.1.2-.3c0-.1 0-.1-.2-.2-.1 0-.4.2-.6.4h.1z"/><path id="&lt;Path&gt;" class="s0" d="M334.4 177.2q-.2-.1-.3-.4 0-.7.3-1.3c-.8.6-1.8 1.2-2.5 1-.3-.1-.6-.4-.6-1.1-.1-.8.5-1.6 1.4-1.7.8-.2 1.8.1 2 .6q.1.1 0 .3c-.1 0-.2 0-.3-.1-.1-.3-.9-.6-1.7-.4-.6 0-1.1.6-1.1 1.3 0 .6.3.7.4.7.8.2 2.5-1 3-1.8.1-.1.2-.1.3-.1.1.1.1.2.1.3-.4.6-1 1.8-.9 2.2q0 .1.1.1c.1.1.1.2.1.3-.1.1-.2.1-.3.1z"/><path id="&lt;Compound Path&gt;" class="s0" d="M335.9 175.2c-.1-.1-.1-.2-.1-.3l1.2-2q.2-.1.3 0c.1 0 .1.1.1.2l-.6.9q.2-.1.4 0c.2 0 .4.2.4.4 0 .3-.1.6-.3.7-.3.2-.7.2-.9 0q-.1-.1-.1-.2-.1.1-.1.2-.1.1-.3.1zm.6-.5h.1c.1.2.3.2.5.1q.1-.1.1-.3s0-.1-.1-.2c-.2 0-.5.2-.7.4h.1z"/><path id="&lt;Path&gt;" class="s0" d="m300.5 126.2-.1-.1-1.9-3.8q-.1-.1 0-.2l2.6-4.2c0-.1.1-.2.2-.1.1 0 .2.2.1.3l-2.5 4.1 1.9 3.8c0 .1 0 .2-.1.2h-.1zM304.7 124q-.1 0-.1-.1l-2.5-3.5c0-.1 0-.2.1-.3.1-.1.2 0 .3 0l2.4 3.6c.1.1 0 .2 0 .3h-.2z"/><path id="&lt;Path&gt;" class="s0" d="M302.3 123.4h-.1q-.2-.2 0-.3l2.3-3q.1-.1.3 0 .2.1 0 .3l-2.3 3h-.2zM305.4 125c-.1 0-.2-.1-.2-.2s.1-.2.2-.2c.2 0 .4-.5.5-.8 0-.1.2-.2.3-.2 0 .1.1.1.1.3-.1.1-.3 1.1-.9 1.1zM308.9 122.7h-.1l-1.5-2c-.1-.1 0-.2 0-.3.1-.1.2 0 .3 0l1.5 2q.2.2 0 .3h-.2z"/><path id="&lt;Path&gt;" class="s0" d="M306.6 126.6h-.1c-.1 0-.1-.2-.1-.2l3.9-6.4c0-.1.1-.1.2 0 .1 0 .2.1.1.2l-3.8 6.3q-.1.2-.2.1zM310.9 125.8h-.1q-.2-.2 0-.3l2.3-3.4-2.1-4.2c0-.1 0-.2.1-.3.1 0 .2 0 .2.1l2.2 4.4q0 .1-.1.1l-2.4 3.5q0 .1-.1.1z"/><path id="&lt;Compound Path&gt;" class="s0" d="m393.6 157.1-.1-.1q-.1-.1 0-.2l8.2-12.1c.1 0 .2-.1.3 0v.1l3.8 7.5v.2l-.1.1-12 4.5h-.1zm8.2-11.9-7.7 11.3 11.2-4.2z"/><path id="&lt;Path&gt;" class="s0" d="m403.9 153.2-.1-.1-.8-1.6v-.2q.1 0 .1-.1l1.5-.7c.1 0 .3 0 .3.1s0 .2-.1.2l-1.3.7.6 1.4q.2.1 0 .3h-.2z"/><path id="&lt;Compound Path&gt;" class="s0" d="M332.3 104.5c-2.6-.8-4.1-3.5-3.4-6.1.7-2.6 3.4-4.2 6.1-3.4 2.6.7 4.1 3.4 3.4 6-.8 2.7-3.5 4.2-6.1 3.5zm2.6-9.2c-2.5-.6-5 .8-5.6 3.2-.7 2.4.7 4.9 3.1 5.6 2.4.7 4.9-.7 5.6-3.2.7-2.4-.7-4.9-3.2-5.6z"/><path id="&lt;Compound Path&gt;" class="s0" d="M338.3 102.4c-2.9-.8-4.6-3.8-3.7-6.7.8-2.9 3.8-4.6 6.7-3.8 2.9.8 4.5 3.8 3.7 6.7-.8 2.9-3.8 4.6-6.7 3.8zm2.9-10.1c-2.7-.8-5.5.8-6.3 3.5-.7 2.7.8 5.5 3.5 6.2 2.7.8 5.5-.8 6.3-3.5.7-2.7-.8-5.5-3.5-6.2z"/><path id="&lt;Path&gt;" class="s0" d="M334.5 97.7v-.1c-.1 0-.2-.1-.1-.2l1.2-2c.1-.1.2-.1.3-.1q.2.2 0 .3l-1.2 2q-.1.1-.2.1zM334.8 99h-.1c-.1 0-.1-.1 0-.2l1.7-2.9c.1-.1.2-.1.3-.1v.1c.1 0 .1.1 0 .2L335 99q-.1.1-.2 0zM335.4 100.2c-.1-.1-.2-.2-.1-.3l1.9-3.2c0-.1.1-.1.2-.1.1.1.2.2.1.3l-1.9 3.2q-.1.1-.2.1zM336.4 101.4c-.1-.1-.1-.2-.1-.3l1.6-3.1c.1-.1.2-.1.3-.1q.2.2 0 .3l-1.5 3.1q-.1.1-.2.1zM337 101.8c-.1 0-.1-.2-.1-.3l1.3-2.3s.1-.1.2 0c.1 0 .2.1.1.2l-1.2 2.3q-.1.1-.3.1z"/><path id="&lt;Compound Path&gt;" class="s0" d="M330.1 94.5q-.3-.1-.4-.3c-.4-.4-.3-1 .1-1.3.3-.4.9-.6 1.2-.4 0-.1.1-.2.2-.2s.2.1.2.2c0 .6.2 1.1.3 1.2.1 0 .2 0 .2.2 0 .1-.1.2-.2.2q-.1 0-.3-.1-.2-.2-.2-.5c-.2.5-.5.9-.8 1q-.2.1-.3 0zm.7-1.7c-.3 0-.6.1-.8.3q-.3.4 0 .9c.1.2.2.2.2.2.3-.1.7-.8.8-1.4q-.1.1-.2 0z"/><path id="&lt;Path&gt;" class="s0" d="M339.1 91.7q-.1 0-.2-.1l-.7-3.1c0-.1.1-.2.2-.2.1-.1.2 0 .2.1l.4 1.5q.1-.3.3-.4c.3-.2.6-.2.8 0 .2.2.4.6.3.9-.1.4-.5.7-.9.8-.1 0-.2-.1-.2-.2s.1-.2.2-.2c.2 0 .4-.2.5-.5.1-.2 0-.4-.1-.5-.1-.1-.3-.1-.4 0-.4.2-.3 1.3-.2 1.7 0 .1 0 .2-.1.2h-.1zM338.5 133.9q-.1 0-.1-.1l-1.5-2.5c-.1-.1 0-.2.1-.3.1 0 .2 0 .2.1l1.5 2.5c.1.1 0 .2 0 .3h-.2z"/><path id="&lt;Path&gt;" class="s0" d="M336.8 133.5h-.1q-.2-.1 0-.3l2.4-2.1q.1-.2.3 0 .2.2 0 .3l-2.5 2.1h-.1zM341 132.7q-.1 0-.1-.1c0-.2 0-.2.2-.3l2.2-.1c.1-.1.2 0 .2.1s0 .2-.1.2l-2.3.2zM345.8 132.1l-.1-.1-.9-1.4q-.2-.1 0-.3h.3v.1l.9 1.4q.2.1 0 .3h-.2z"/><path id="&lt;Path&gt;" class="s0" d="M344.4 134.9h-.1c-.1 0-.1-.1-.1-.2h.1l3.1-5c0-.1.1-.2.2-.1s.2.2.1.3l-3.1 5q-.1.1-.2 0zM356.7 175.5q-.1 0-.1-.1l-1.6-2.5c0-.1 0-.2.1-.2q.2-.1.3 0l1.5 2.6s0 .2-.1.2h-.1z"/><path id="&lt;Path&gt;" class="s0" d="m354.9 175.2-.1-.1q-.1-.1 0-.3l2.5-2.1c.1 0 .2 0 .2.1.1 0 .1.2 0 .2l-2.4 2.1q-.1.1-.2.1zM359.2 174.4c-.1 0-.2-.1-.2-.2s.1-.2.2-.2l2.3-.2c.1 0 .2 0 .2.1s0 .2-.1.3h-.1zM364 173.8l-.1-.1-1-1.5s0-.2.1-.2c.1-.1.2-.1.2 0l1 1.5c0 .1 0 .2-.1.2q0 .1-.1.1z"/><path id="&lt;Path&gt;" class="s0" d="M362.5 176.6c-.1-.1-.2-.2-.1-.3l3.1-5c.1-.1.2-.1.3-.1q.2.1 0 .3l-3.1 5q-.1.1-.2.1zM375.6 167.6q-.1 0-.2-.1-.7-.4-.8-1.7c-.2-1.8.8-2.6 1.4-2.9l-2.4-.7-1.1 4c0 .1-.1.1-.2.1s-.1-.1-.1-.2l1.1-4.2c0-.1.1-.2.2-.1l3.1.8c.1.1.2.2.2.3q-.1.1-.2.1s-1.8.5-1.7 2.7q.1 1.2.6 1.5c.4.1.7.1 1-.1.1 0 .2 0 .3.1 0 .1 0 .2-.1.3-.4.1-.7.2-1.1.1z"/><g id="&lt;Group&gt;"><path id="&lt;Compound Path&gt;" class="s0" d="m348.9 152.2-4.2-1.5c-.1 0-.1-.1-.1-.2l.8-6.3q0-.1.1-.1l4.3-1.5h.1l4.7 1.7c.1 0 .1.1.1.2l-1.4 6.1q0 .1-.1.1l-4.2 1.5q0 .1-.1 0zm-3.9-1.8 4 1.4 4-1.4 1.3-5.8-4.4-1.6-4.1 1.4z"/><path id="&lt;Path&gt;" class="s0" d="M344.7 150.7q-.1 0-.1-.1c-.1-.1 0-.2.1-.2l4.1-1.6h.2l4.2 1.5c.1.1.1.2.1.3 0 .1-.1.1-.2.1l-4.2-1.5-4.1 1.5h-.1z"/><path id="&lt;Path&gt;" class="s0" d="M348.9 149.2c-.1 0-.2-.1-.2-.2l1-6.3c0-.1.1-.1.2-.1s.2.1.2.2l-1 6.2c0 .1-.1.2-.2.2z"/><path id="&lt;Path&gt;" class="s0" d="m350.1 146.3-4.6-1.9c-.1 0-.1-.1-.1-.2s.2-.2.3-.1l4.5 1.8 4.2-1.6c.1-.1.2 0 .3.1 0 .1 0 .2-.1.2l-4.4 1.7h-.1z"/><path id="&lt;Path&gt;" class="s0" d="M348.9 152.2c-.1 0-.1-.1-.1-.2l1.2-5.9c0-.1.1-.2.2-.2s.2.1.2.2l-1.3 6c0 .1-.1.2-.2.1z"/></g><path id="&lt;Compound Path&gt;" class="s0" d="M320.9 158.8q-.1 0-.1-.1-.1 0 0-.1l2.3-8 .2-.2q.1 0 .2.1l5.5 6.7q.1.1 0 .2 0 .1-.1.2l-7.9 1.2h-.1zm2.5-7.8-2.2 7.4 7.3-1.1z"/><path id="&lt;Path&gt;" class="s0" d="M324.8 158.1q-.1 0-.1-.1l-1.6-7.3c0-.1.1-.2.2-.2.1-.1.2 0 .2.1l1.6 7.3c0 .1-.1.2-.2.3l-.1-.1z"/><path id="&lt;Path&gt;" class="s0" d="M325.8 158.1q-.2-.1-.2-.2l-.2-1.1-.7.2c-.1 0-.2-.1-.2-.2-.1-.1 0-.2.1-.2l.9-.2c.1 0 .2.1.3.2l.2 1.2c0 .1 0 .2-.1.3h-.1zM392.6 178.4l-.1-.1-2-3.9q-.2-.1 0-.3c.1 0 .2 0 .3.1l2.1 4s0 .2-.1.2q-.1.1-.2 0z"/><path id="&lt;Path&gt;" class="s0" d="m390.3 177.6-.1-.1q-.2-.1 0-.3l3.4-2.6c.1-.1.2-.1.2 0q.1.1 0 .3l-3.4 2.6q0 .1-.1.1zM396.2 176l-1.7-.4q-.1-.1-.1-.2t.1-.2c.4-.1 1.3-.6 1.4-1.1q0-.2-.1-.4-.2-.1-.4-.1c-.1 0-.2-.1-.2-.2-.1-.1 0-.2.1-.2q.4 0 .7.2c.2.2.3.5.2.7 0 .6-.6 1-1.1 1.3l1.2.3c.1 0 .1.1.1.2s-.1.2-.2.1zM316.2 92.4h-.1l-2-4c-.1-.1-.1-.2 0-.2.1-.1.2 0 .3.1l2 3.9c.1.1.1.2 0 .2q-.1.1-.2 0z"/><path id="&lt;Path&gt;" class="s0" d="M313.9 91.6q-.1 0-.1-.1c-.1-.1-.1-.2 0-.2l3.4-2.7c0-.1.2-.1.2 0q.1.2 0 .3l-3.4 2.7h-.1zM319.8 90.1l-1.7-.5c-.1 0-.1-.1-.1-.2q0-.1.1-.1c.4-.2 1.3-.7 1.3-1.2q.1-.2-.1-.4-.1-.1-.4-.1c-.1 0-.2 0-.2-.1s.1-.2.2-.2q.4-.1.7.2c.2.2.2.4.2.6 0 .6-.7 1-1.1 1.3l1.1.3c.1 0 .2.1.2.2l-.2.2z"/></g><g id="&lt;Group&gt;"><g id="&lt;Group&gt;"><g id="&lt;Group&gt;"><g id="&lt;Group&gt;"><path id="&lt;Path&gt;" class="s0" d="M500 381.2H0v-.2h500z"/></g></g></g><path id="&lt;Path&gt;" class="s0" d="M51.7 395.2h16v.3h-16zM170.4 392.5h53.5v.3h-53.5zM68.7 404.5H105v.3H68.7zM378.4 392.4h43.1v.2h-43.1zM430.5 392.4h6.3v.2h-6.3zM316.2 398.6h53.9v.3h-53.9z"/></g><g id="&lt;Group&gt;"><g id="&lt;Group&gt;"><g id="&lt;Group&gt;"><path id="&lt;Path&gt;" class="s0" d="M82 418.5c0-.5-1.9-56.5-11-65.3-8.8-8.6-19-.4-19.4 0l-.9-1.1c.1-.1 11.5-9.5 21.3 0 9.5 9.3 11.4 64.1 11.5 66.4z"/></g><g id="&lt;Group&gt;"><path id="&lt;Path&gt;" class="s0" d="M82.8 429.5c-.1-.6-6.2-67.1 18.1-95l1.1.9c-23.9 27.4-17.8 93.3-17.8 94z"/></g><g id="&lt;Group&gt;"><path id="&lt;Path&gt;" class="s0" d="m81.9 422.5-1.4-.1c0-.7 4.7-75.6-13.1-92l1-1.1c18.3 16.9 13.7 90.1 13.5 93.2z"/></g><g id="&lt;Group&gt;"><path id="&lt;Path&gt;" class="s0" d="m84.2 422.5-1.4-.1c0-2 .6-50.5 14.4-58.4 3-1.8 6-2.1 8.9-.9 8.3 3.5 12.5 18.3 12.6 18.9l-1.4.4c0-.2-4.1-14.8-11.8-18-2.4-1-5-.7-7.6.8-13.1 7.5-13.7 56.8-13.7 57.3z"/></g><g id="&lt;Group&gt;"><path id="&lt;Path&gt;" class="s0" d="m78.9 422.5-1.5-.1c.1-.4 2.1-38.3-8.1-51.7-2.5-3.2-5.2-4.8-8-4.6-6.7.5-12.4 10.3-12.4 10.4l-1.3-.7c.3-.4 6.1-10.6 13.6-11.1 3.3-.2 6.4 1.5 9.2 5.1 10.6 13.8 8.6 51.1 8.5 52.7z"/></g><g id="&lt;Group&gt;"><path id="&lt;Path&gt;" class="s0" d="M81.1 427.7c-.3-3.7-6.7-90.4 4.6-105.6l1.2.8c-11 14.8-4.4 103.8-4.4 104.6z"/></g></g><g id="&lt;Group&gt;"><path id="&lt;Path&gt;" class="s4" d="M109.2 371.9s-6.8 2.5-4.8 8.4 23.4 15.6 23.4 15.6 9-8.2.8-21.6c-8.3-13.4-19.3-6.6-19.4-2.4z"/></g><g id="&lt;Group&gt;"><path id="&lt;Path&gt;" class="s4" d="M79.7 360.7s7.2-.3 7.6 5.9c.4 6.2-15.6 23.4-15.6 23.4s-11.4-4.1-9-19.6c2.5-15.6 15.2-13.5 17-9.7z"/></g><g id="&lt;Group&gt;"><path id="&lt;Path&gt;" class="s4" d="M73.6 330.9s4.8-.5 4.4-3.4c-.4-3-18.7-10.5-29.5 1.7 0 0 7 11.9 17 12 9.9.2 8.1-10.3 8.1-10.3z"/></g><g id="&lt;Group&gt;"><path id="&lt;Path&gt;" class="s4" d="M82.6 323.8s-4.4 2.1-5.6-.6c-1.2-2.7 10.3-18.7 25.9-14.1 0 0 .5 13.7-7.9 19.1-8.5 5.5-12.4-4.4-12.4-4.4z"/></g><g id="&lt;Group&gt;"><path id="&lt;Path&gt;" class="s4" d="M59.8 369.5s3.3-2.7-.3-4c-3.5-1.3-21.1-.9-21.3 16.5 0 0 20.5 3.4 23-3.2 2.5-6.7-1.4-9.3-1.4-9.3z"/></g><g id="&lt;Group&gt;"><path id="&lt;Path&gt;" class="s4" d="M101.5 330.5s-3.3-2.7.3-4c3.6-1.3 21.2-.9 21.3 16.5 0 0-20.4 3.4-23-3.3-2.5-6.6 1.4-9.2 1.4-9.2z"/></g><g id="&lt;Group&gt;"><path id="&lt;Path&gt;" class="s4" d="M90.7 344.5s-.3-3.3 2.4-2c2.6 1.3 11.7 11.2 2.3 20.6 0 0-12.8-9.5-10.5-14.4 2.3-5 5.8-4.2 5.8-4.2z"/></g><g id="&lt;Group&gt;"><path id="&lt;Path&gt;" class="s4" d="M56.8 349.1s2-2.6-.9-2.9c-2.9-.3-15.9 3.2-12.9 16.2 0 0 15.9-1.2 16.6-6.6.6-5.4-2.8-6.7-2.8-6.7z"/></g><path id="&lt;Path&gt;" class="s2" d="M97.6 447.6h-32l-8.5-39.3h48.2z"/><path id="&lt;Path&gt;" class="s3" d="M108 419H54.2v-11.3H108z"/></g><g id="&lt;Group&gt;"><path id="&lt;Compound Path&gt;" class="s0" d="M104.8 86.4c-39.9 18.4-67.2 44.1-61 57.6 6.1 13.4 43.5 9.3 83.4-9.1 39.9-18.4 67.2-44.1 61-57.5-6.2-13.4-43.5-9.4-83.4 9zm19.7 42.6c-34.9 16.1-67.3 20.3-72.3 9.3-5.1-10.9 19.1-32.8 54-48.9s67.2-20.3 72.3-9.3c5.1 10.9-19.1 32.9-54 48.9z"/><path id="&lt;Path&gt;" class="s3" d="M77.1 92.6c8.2-23.6 34-36.1 57.6-27.9 23.6 8.1 36.1 33.9 28 57.5-8.2 23.6-34 36.2-57.6 28-23.6-8.2-36.2-33.9-28-57.6z"/><g id="&lt;Group&gt;" style="opacity:.2"><path id="&lt;Path&gt;" class="s1" d="M157.3 132.8c-9.2 13.7-25.1 21.2-41.5 19.7-4.4-.4-8.8-1.5-12.9-3.2 14.5-.9 35.7-3.4 54.4-16.5zM120.8 98.6c9.6-3.8 29.1-8.1 37.9-14.4q.6.9 1.1 1.9c-4.9 3.4-9.5 7.2-13.7 11.3-9.7 8.9-14.5 17-30.6 17.7-16.1.6-5.5-12.3 5.3-16.5zM92.4 143.4c14.2-1.8 48.4-7.9 71.8-26.4-.4 1.6-.8 3.2-1.4 4.8-14.8 7.6-42.5 22.2-65.8 24.6q-2.4-1.4-4.6-3z"/><path id="&lt;Path&gt;" class="s1" d="M81.6 131.4q13.7-1.9 27.1-5.6c18.3-5.5 43.6-18.4 55.3-28.4q.9 3.9 1.1 7.9c-14.6 9.7-49.8 31.1-79.2 31.9q-2.4-2.7-4.3-5.8zM80.9 84.6q.9-1.8 2.1-3.4c13.7-4 40-10.3 52-16.4q2.7.9 5.2 2.2c-14.9 3.5-45.9 14.4-59.3 17.6zM77.4 91.8c10.4-3.3 21.1-5.5 32-6.3 7.3 0 28.9-8.5 36.6-15q.9.6 1.7 1.3c-18.7 7.9-41.6 27.5-52.2 33.1q-9.8 5.4-20.4 8.7c-.5-3.4-.6-6.9-.3-10.3.4-3.9 1.2-7.8 2.6-11.5z"/></g><path id="&lt;Path&gt;" class="s0" d="M75.7 117q5-1.2 9.8-2.8c12.4-4.2 34.7-22.3 54.5-30.6 7.4-3.1 11.6-4.9 14.1-5.8.8.9 1.5 1.8 2.2 2.8q-8.5 5-17.6 8.8c-12.5 5.3-26 12.4-33.7 18.9-6 4.9-20.9 11.3-27.9 13.7q-.9-2.4-1.4-5zM78.2 125c11.4-2.8 23-4.9 34.7-6.4 19.6-2.2 27-10.9 35-19.2 4-3.9 8.6-7.2 13.6-9.7q1.1 2.5 1.8 5.2c-9 7.5-19 13.8-29.6 18.8-18.6 8.7-44.4 12.9-54.1 14.3q-.8-1.4-1.4-3zM88.5 139.9c17-2.2 33.5-7.1 48.9-14.7 12.7-6.2 21.6-11.1 27.6-14.5q.1.5 0 .9c-.1 1.3-.3 2.6-.5 3.9-14.2 7.5-47 23.2-75.6 24.7-.2 0-.3-.2-.4-.3z"/><path id="&lt;Path&gt;" class="s2" d="M87 76.3c9.6-10.1 23.2-15.2 37.1-13.9 1 0 2.1.2 3.2.4-9.7 4.5-27.5 11.8-40.3 13.5z"/><path id="&lt;Path&gt;" class="s0" d="M100.4 148.2c11.3-2.7 40.3-10 52.7-16.7q3.4-2 7.1-3.4-1.1 2.2-2.5 4.2c-8.8 3.9-25.9 10.9-35.5 12.5-8.5 1.3-16.1 2.8-20.7 3.9q-.6-.2-1.1-.5zM138.7 70.7s-16.6 10.2-24.1 11.5q-6.8 1.1-13.7 1.2s24-12.3 37.8-12.7zM173.5 75.7c2.2.8 4 2.4 5 4.5 5.1 11-19.1 32.9-54 49-34.9 16-67.3 20.2-72.3 9.3-.9-2.2-.9-4.5 0-6.7l-8.6 4c-1 2.7-.9 5.6.2 8.3 6.2 13.4 43.6 9.4 83.4-9 39.9-18.4 67.3-44.2 61.1-57.6-1.3-2.6-3.5-4.6-6.2-5.6z"/></g><g id="&lt;Group&gt;"><path id="&lt;Compound Path&gt;" class="s0" d="m434.7 252.9-12.1-4.3c-.2-.1-.4-.3-.4-.6l2.5-18c0-.2.1-.4.3-.5l12.3-4.2h.4l13.3 4.8q.4.1.3.6l-3.9 17.5q-.1.3-.4.4l-11.9 4.3q-.2.1-.4 0zm-11.4-5.2 11.5 4.1 11.6-4.1 3.8-16.8-12.8-4.5-11.7 4z"/><path id="&lt;Path&gt;" class="s0" d="M422.6 248.6q-.3-.1-.4-.3c-.1-.3.1-.6.4-.7l11.9-4.4q.2-.1.4 0l12.1 4.4c.3.1.4.4.3.6-.1.3-.4.5-.7.4l-11.9-4.3-11.8 4.3h-.3z"/><path id="&lt;Path&gt;" class="s0" d="M434.6 244.2c-.3-.1-.5-.3-.4-.6l2.7-17.9c0-.3.3-.5.6-.4.3 0 .5.3.5.6l-2.8 17.9c0 .3-.3.5-.6.4z"/><path id="&lt;Path&gt;" class="s0" d="M438.2 235.9h-.1l-13.2-5.4c-.2-.1-.4-.4-.3-.7h.1c.1-.3.4-.4.7-.3l12.9 5.3 12.3-4.7c.2-.2.6 0 .7.3.1.2-.1.6-.4.7l-12.4 4.8h-.3z"/><path id="&lt;Path&gt;" class="s0" d="M434.7 252.9c-.3 0-.5-.3-.4-.6l3.5-17.1c.1-.3.3-.5.6-.4.3.1.5.4.5.7l-3.5 17c-.1.3-.4.5-.7.5z"/></g></g><g id="Shadow"><g id="&lt;Group&gt;"><g id="&lt;Group&gt;"><path id="&lt;Path&gt;" d="M458.9 448.4c0 3.4-93.5 6.1-208.9 6.1s-208.9-2.7-208.9-6.1c0-3.4 93.5-6.1 208.9-6.1s208.9 2.7 208.9 6.1z" style="fill:#f5f5f5"/></g></g></g><g id="Books"><g id="freepik--Books--inject-2"><path id="&lt;Path&gt;" class="s6" d="M373.9 396.2h-37.1v-1.7h37.1z"/><g id="&lt;Group&gt;"><path id="&lt;Path&gt;" class="s7" d="M375.9 411.7h-39.1v-16.9h39.1z"/><path id="&lt;Path&gt;" class="s8" d="M375.9 411.7h-39.1v-16.9h39.1z"/><path id="&lt;Path&gt;" class="s6" d="m372.7 397.9-32.4.7 32.4.7zM372.7 404.1l-34.3.6 34.3.5zM372.7 407.8l-34 .7 34 .7zM336.8 400.3l32.9 1-32.9.7z"/><path id="&lt;Path&gt;" class="s9" d="M424 403.2c0 4.2-3.4 7.6-7.6 7.6H335c-.4 0-.6.3-.6.6v.6c0 .3.2.6.6.6h81.8c5.2 0 9.4-4.3 9.4-9.5-.1-5.3-4.4-9.4-9.6-9.4H335c-.3 0-.6.2-.6.6v.6c0 .3.3.5.6.5h81.1c4.3 0 7.8 3.5 7.9 7.8z"/><path id="&lt;Path&gt;" class="s10" d="M424 403.2c0 4.2-3.4 7.6-7.6 7.6H335c-.4 0-.6.3-.6.6v.6c0 .3.2.6.6.6h81.8c5.2 0 9.4-4.3 9.4-9.5-.1-5.3-4.4-9.4-9.6-9.4H335c-.3 0-.6.2-.6.6v.6c0 .3.3.5.6.5h81.1c4.3 0 7.8 3.5 7.9 7.8z"/><path id="&lt;Path&gt;" class="s7" d="M453.7 403.3c0 4.6-3.8 8.5-8.5 8.5h-72.5v-17h72.5c4.7-.1 8.5 3.7 8.5 8.4v.1z"/><path id="&lt;Path&gt;" class="s11" d="M372.7 394.8v17h72.5c4.7 0 8.5-3.8 8.5-8.5s-3.8-8.5-8.5-8.5z"/><path id="&lt;Path&gt;" class="s6" d="M372.7 399.3v-1.4l72.3.6zM372.7 405.2v-1.1l32.5 1.2zM372.7 409.2v-1.4l52.3.8z"/><path id="&lt;Path&gt;" class="s6" d="M445.3 396.4c1.4 0 2.8.5 3.8 1.5q-.7 1.3-1 2.7l-72.5.6 72.3.2q-.1.9-.1 1.8 0 1 .2 2.1l-48.8 1 49.3.6q.6 1.8 1.6 3.4c3.8-2.7 4.8-8 2.1-11.9-1.5-2.2-4.1-3.6-6.9-3.6h-72.6v1.6z"/><path id="&lt;Path&gt;" class="s9" d="M453.1 403.2c-.1 4.2-3.5 7.6-7.7 7.6h-73.9c-.3 0-.5.3-.5.6v.6c0 .3.2.6.5.6h74.3c5.2 0 9.4-4.3 9.4-9.5-.1-5.3-4.4-9.4-9.7-9.4h-74c-.3 0-.5.2-.5.6v.6c0 .3.2.5.5.5h73.7c4.3.1 7.8 3.5 7.9 7.8z"/><path id="&lt;Path&gt;" class="s7" d="M445 401v6.8l-2.5-2.4-2.4 2.3V401z"/></g><path id="&lt;Path&gt;" class="s7" d="M439.4 447.3h-91v-14.7h91z"/><path id="&lt;Path&gt;" class="s11" d="M439.4 447.3h-91v-14.7h91z"/><path id="&lt;Path&gt;" class="s6" d="M348.4 436.5v-1.2l62.3.5zM348.4 441.6v-.9l28 1zM348.4 445.1v-1.2l45.1.7z"/><path id="&lt;Path&gt;" class="s6" d="m419.1 432.6 1.3 10.9-1.6-1.6c-.5 2-1.5 3.8-2.9 5.4q-1.4-2-2.3-4.3l-42.5-.4 42.1-1q-.2-.9-.2-1.8 0-.7.2-1.5l-62.4-.2 62.5-.5q.3-1.2.9-2.3c-.9-.8-2-1.3-3.3-1.3h-62.5v-1.4z"/><path id="&lt;Path&gt;" class="s7" d="M417.7 439.9c0 3.6-3 6.6-6.7 6.6h-63.7c-.3 0-.5.2-.5.5v.5c0 .3.2.5.5.5h99.1c4.5 0 8.2-3.7 8.2-8.2-.1-4.5-3.9-8.1-8.4-8.1h-98.9c-.3 0-.5.2-.5.5v.5c0 .3.2.5.5.5h63.5c3.7 0 6.8 3 6.9 6.7z"/><path id="&lt;Path&gt;" class="s6" d="M417.7 439.9c0 3.6-3 6.6-6.7 6.6h-63.7c-.3 0-.5.2-.5.5v.5c0 .3.2.5.5.5h99.1c4.5 0 8.2-3.7 8.2-8.2-.1-4.5-3.9-8.1-8.4-8.1h-98.9c-.3 0-.5.2-.5.5v.5c0 .3.2.5.5.5h63.5c3.7 0 6.8 3 6.9 6.7z"/><path id="&lt;Path&gt;" class="s7" d="M417.7 439.9c0 3.6-3 6.6-6.7 6.6h-63.7c-.3 0-.5.2-.5.5v.5c0 .3.2.5.5.5h64.1c4.5 0 8.1-3.6 8.1-8.1v-.1c-.1-4.5-3.8-8.1-8.3-8.1h-63.9c-.3 0-.5.2-.5.5v.5c0 .3.2.5.5.5h63.5c3.7 0 6.8 3 6.9 6.7z"/><path id="&lt;Path&gt;" class="s12" d="M417.7 439.9c0 3.6-3 6.6-6.7 6.6h-63.7c-.3 0-.5.2-.5.5v.5c0 .3.2.5.5.5h64.1c4.5 0 8.1-3.6 8.1-8.1v-.1c-.1-4.5-3.8-8.1-8.3-8.1h-63.9c-.3 0-.5.2-.5.5v.5c0 .3.2.5.5.5h63.5c3.7 0 6.8 3 6.9 6.7z"/><path id="&lt;Path&gt;" class="s7" d="M453.3 431.3H344.6v-17.5h108.7z"/><path id="&lt;Path&gt;" class="s8" d="M453.3 431.3H344.6v-17.5h108.7z"/><path id="&lt;Path&gt;" class="s6" d="M344.6 418.4V417l74.5.6zM344.6 424.5v-1l33.4 1.1zM344.6 428.6v-1.4l53.9.8z"/><path id="&lt;Path&gt;" class="s6" d="m429 413.8 1.6 13-1.8-1.9c-.7 2.3-1.8 4.5-3.5 6.4-1.1-1.5-2.1-3.2-2.7-5l-50.8-.6 50.3-1.1q-.2-1.1-.2-2.2 0-.9.1-1.8l-74.5-.2 74.7-.6q.4-1.4 1.1-2.8c-1.1-1-2.5-1.5-3.9-1.5h-74.8v-1.7z"/><path id="&lt;Path&gt;" class="s7" d="M427.3 422.4c0 4.4-3.5 7.9-7.9 7.9h-76c-.4 0-.6.3-.6.6v.7c0 .3.2.5.6.5h112.4c5.4 0 9.7-4.3 9.7-9.7-.2-5.4-4.6-9.7-10-9.6H343.4c-.4 0-.6.2-.6.5v.7c0 .3.2.6.6.6h75.8c4.4 0 8 3.5 8.1 7.8z"/><path id="&lt;Path&gt;" class="s7" d="M427.3 422.4c0 4.4-3.5 7.9-7.9 7.9h-76c-.4 0-.6.3-.6.6v.7c0 .3.2.5.6.5h76.4c5.4 0 9.8-4.3 9.8-9.7-.2-5.4-4.6-9.7-10-9.6h-76.2c-.4 0-.6.2-.6.5v.7c0 .3.2.6.6.6h75.8c4.4 0 8 3.5 8.1 7.8z"/><path id="&lt;Path&gt;" class="s13" d="M427.3 422.4c0 4.4-3.5 7.9-7.9 7.9h-76c-.4 0-.6.3-.6.6v.7c0 .3.2.5.6.5h76.4c5.4 0 9.8-4.3 9.8-9.7-.2-5.4-4.6-9.7-10-9.6h-76.2c-.4 0-.6.2-.6.5v.7c0 .3.2.6.6.6h75.8c4.4 0 8 3.5 8.1 7.8z"/><g id="&lt;Group&gt;"><path id="&lt;Path&gt;" class="s7" d="M428 393.5h-75.4v-12.2H428z"/><path id="&lt;Path&gt;" class="s11" d="M428 393.5h-75.4v-12.2H428z"/><path id="&lt;Path&gt;" class="s6" d="M352.6 384.5v-1l51.6.5zM352.6 388.8v-.8l23.2.8zM352.6 391.6v-1l37.3.6z"/><path id="&lt;Path&gt;" class="s6" d="m411.1 381.3 1.1 9.1-1.3-1.4c-.4 1.6-1.2 3.2-2.3 4.5q-1.3-1.6-2-3.5l-35.2-.4 34.9-.8q-.1-.7-.2-1.5 0-.6.2-1.3l-51.7-.1 51.8-.4q.2-1 .7-2c-.7-.6-1.7-1-2.7-1h-51.8v-1.2z"/><path id="&lt;Path&gt;" class="s9" d="M410 387.3c0 3-2.5 5.5-5.5 5.5h-52.8c-.2 0-.4.2-.4.4v.4c0 .3.2.4.4.4h82.1c3.7 0 6.7-3 6.7-6.7-.1-3.8-3.1-6.8-6.9-6.7h-81.9c-.2 0-.4.2-.4.4v.4c0 .2.2.4.4.4h52.6c3.1 0 5.6 2.5 5.7 5.5z"/><path id="&lt;Path&gt;" class="s12" d="M410 387.3c0 3-2.5 5.5-5.5 5.5h-52.8c-.2 0-.4.2-.4.4v.4c0 .3.2.4.4.4h82.1c3.7 0 6.7-3 6.7-6.7-.1-3.8-3.1-6.8-6.9-6.7h-81.9c-.2 0-.4.2-.4.4v.4c0 .2.2.4.4.4h52.6c3.1 0 5.6 2.5 5.7 5.5z"/><path id="&lt;Path&gt;" class="s9" d="M410 387.3c0 3-2.5 5.5-5.5 5.5h-52.8c-.2 0-.4.2-.4.4v.4c0 .3.2.4.4.4h53c3.8 0 6.8-3 6.8-6.7-.1-3.8-3.2-6.8-6.9-6.7h-52.9c-.2 0-.4.2-.4.4v.4c0 .2.2.4.4.4h52.6c3.1 0 5.6 2.5 5.7 5.5z"/><path id="&lt;Path&gt;" class="s10" d="M410 387.3c0 3-2.5 5.5-5.5 5.5h-52.8c-.2 0-.4.2-.4.4v.4c0 .3.2.4.4.4h53c3.8 0 6.8-3 6.8-6.7-.1-3.8-3.2-6.8-6.9-6.7h-52.9c-.2 0-.4.2-.4.4v.4c0 .2.2.4.4.4h52.6c3.1 0 5.6 2.5 5.7 5.5z"/></g></g><g id="freepik--Books--inject-2 00000044877715487691543660000011104091714109380771"><path id="&lt;Path&gt;" class="s6" d="M117.3 430.5h-37v-1.7h37zM117.3 433.4V432l74.5.6z"/><g id="&lt;Group&gt;"><path id="&lt;Path&gt;" class="s7" d="M114.4 445.8H76.1v-16.6h38.3z"/><path id="&lt;Path&gt;" class="s8" d="M114.4 445.8H76.1v-16.6h38.3z"/><path id="&lt;Path&gt;" class="s6" d="m111.3 432.3-31.8.6 31.8.7zM111.3 438.4l-33.6.6 33.6.4zM111.3 442l-33.3.7 33.3.6zM76.1 434.6l32.3 1-32.3.7z"/><path id="&lt;Path&gt;" class="s9" d="M161.6 437.4c0 4.2-3.4 7.6-7.5 7.6H74.3c-.3 0-.5.2-.5.5v.6c0 .3.2.6.5.6h80.2c5.1 0 9.2-4.2 9.2-9.3-.1-5.2-4.3-9.3-9.4-9.2h-80c-.3 0-.5.2-.5.5v.6c0 .3.2.6.5.6h79.6c4.2 0 7.6 3.3 7.7 7.5z"/><path id="&lt;Path&gt;" class="s10" d="M161.6 437.4c0 4.2-3.4 7.6-7.5 7.6H74.3c-.3 0-.5.2-.5.5v.6c0 .3.2.6.5.6h80.2c5.1 0 9.2-4.2 9.2-9.3-.1-5.2-4.3-9.3-9.4-9.2h-80c-.3 0-.5.2-.5.5v.6c0 .3.2.6.5.6h79.6c4.2 0 7.6 3.3 7.7 7.5z"/><path id="&lt;Path&gt;" class="s7" d="M190.7 437.5c0 4.6-3.7 8.4-8.3 8.4h-71.1v-16.7h71c4.6 0 8.4 3.7 8.4 8.3z"/><path id="&lt;Path&gt;" class="s11" d="M111.3 429.2v16.7h71.1c4.6 0 8.3-3.8 8.3-8.4 0-4.6-3.7-8.3-8.3-8.3z"/><path id="&lt;Path&gt;" class="s6" d="M111.3 439.4v-1l31.8 1.1zM111.3 443.3V442l51.3.8z"/><path id="&lt;Path&gt;" class="s6" d="M182.5 430.8c1.4 0 2.7.5 3.7 1.5q-.7 1.3-1.1 2.7l-71 .5 70.9.2q-.2.9-.2 1.7.1 1.1.3 2.1l-47.9 1 48.3.6q.7 1.7 1.6 3.3c3.8-2.6 4.8-7.8 2.1-11.6-1.5-2.2-4.1-3.6-6.8-3.6h-71.1v1.7z"/><path id="&lt;Path&gt;" class="s9" d="M190 437.4c0 4.2-3.3 7.6-7.5 7.6h-72.4c-.3 0-.5.2-.5.5v.6c0 .3.2.6.5.6h72.8c5.1 0 9.2-4.2 9.2-9.3-.1-5.2-4.3-9.3-9.4-9.2h-72.6c-.3 0-.5.2-.5.5v.6c0 .3.2.6.5.6h72.2c4.2 0 7.6 3.3 7.7 7.5z"/><path id="&lt;Path&gt;" class="s7" d="M182.1 435.3v6.7l-2.4-2.4-2.3 2.3v-6.6z"/></g><g id="&lt;Group&gt;"><path id="&lt;Path&gt;" class="s7" d="M108 412.2h64.7v-10.4H108z"/><path id="&lt;Path&gt;" class="s8" d="M108 412.2h64.7v-10.4H108z"/><path id="&lt;Path&gt;" class="s6" d="M172.7 404.5v-.8l-44.3.3zM172.7 408.2v-.7l-19.9.7zM172.7 410.6v-.8l-32.1.5z"/><path id="&lt;Path&gt;" class="s6" d="m122.5 401.8-1 7.7 1.1-1.1a9.5 9.5 0 0 0 2.1 3.8q1-1.4 1.6-3l30.2-.3-29.9-.7q.1-.6.1-1.3 0-.5-.1-1.1l44.3-.1-44.4-.3q-.2-.9-.6-1.7c.6-.6 1.5-.9 2.3-.9h44.5v-1z"/><path id="&lt;Path&gt;" class="s7" d="M123.5 406.9c0 2.6 2.1 4.7 4.7 4.7h45.2c.2 0 .4.2.4.4v.3c0 .2-.2.4-.4.4h-66.8c-3.2 0-5.8-2.6-5.8-5.8.1-3.2 2.7-5.8 5.9-5.7h66.7c.2 0 .4.1.4.3v.4c0 .2-.2.3-.4.3h-45.1c-2.6 0-4.7 2.1-4.8 4.7z"/><path id="&lt;Path&gt;" class="s10" d="M123.5 406.9c0 2.6 2.1 4.7 4.7 4.7h45.2c.2 0 .4.2.4.4v.3c0 .2-.2.4-.4.4h-66.8c-3.2 0-5.8-2.6-5.8-5.8.1-3.2 2.7-5.8 5.9-5.7h66.7c.2 0 .4.1.4.3v.4c0 .2-.2.3-.4.3h-45.1c-2.6 0-4.7 2.1-4.8 4.7z"/><path id="&lt;Path&gt;" class="s7" d="M123.5 406.9c0 2.6 2.1 4.7 4.7 4.7h45.2c.2 0 .4.2.4.4v.3c0 .2-.2.4-.4.4h-45.5c-3.2 0-5.7-2.6-5.7-5.8.1-3.2 2.7-5.7 5.9-5.7h45.3c.2 0 .4.1.4.3v.4c0 .2-.2.3-.4.3h-45.1c-2.6 0-4.7 2.1-4.8 4.7z"/><path id="&lt;Path&gt;" class="s13" d="M123.5 406.9c0 2.6 2.1 4.7 4.7 4.7h45.2c.2 0 .4.2.4.4v.3c0 .2-.2.4-.4.4h-45.5c-3.2 0-5.7-2.6-5.7-5.8.1-3.2 2.7-5.7 5.9-5.7h45.3c.2 0 .4.1.4.3v.4c0 .2-.2.3-.4.3h-45.1c-2.6 0-4.7 2.1-4.8 4.7z"/></g><g id="&lt;Group&gt;"><path id="&lt;Path&gt;" class="s7" d="M176.8 427.3H87.4v-14.4h89.4z"/><path id="&lt;Path&gt;" class="s11" d="M176.8 427.3H87.4v-14.4h89.4z"/><path id="&lt;Path&gt;" class="s6" d="M87.4 416.7v-1.2l61.2.5zM87.4 421.7v-.9l27.5 1zM87.4 425.1v-1.2l44.3.7z"/><path id="&lt;Path&gt;" class="s6" d="m156.8 412.9 1.3 10.7-1.5-1.6c-.6 1.9-1.5 3.7-2.8 5.3q-1.5-1.9-2.3-4.2l-41.8-.4 41.4-.9q-.2-.9-.2-1.8 0-.8.1-1.5l-61.2-.2 61.3-.5q.4-1.2.9-2.3c-.8-.8-2-1.2-3.1-1.2H87.4v-1.4z"/><path id="&lt;Path&gt;" class="s7" d="M155.4 420c0 3.6-2.9 6.5-6.5 6.5H86.3c-.2 0-.4.2-.4.5v.5c0 .2.2.5.4.5h97.4c4.4 0 7.9-3.6 7.9-8v-.1c-.1-4.4-3.7-8-8.2-7.9H86.3c-.2 0-.4.2-.4.5v.5c0 .3.2.5.4.5h62.4c3.6 0 6.6 2.9 6.7 6.5z"/><path id="&lt;Path&gt;" class="s7" d="M155.4 420c0 3.6-2.9 6.5-6.5 6.5H86.3c-.2 0-.4.2-.4.5v.5c0 .2.2.5.4.5h62.9c4.4 0 8-3.6 8-8v-.1c-.1-4.4-3.7-7.9-8.2-7.9H86.3c-.2 0-.4.2-.4.5v.5c0 .3.2.5.4.5h62.4c3.6 0 6.6 2.9 6.7 6.5z"/></g></g><g id="freepik--Globe--inject-2 00000053539086422751885370000017917936002808535181"><path id="&lt;Path&gt;" class="s9" d="M391.9 352.2h5.3v17.2h-5.3z"/><g id="&lt;Group&gt;" style="opacity:.2"><path id="&lt;Path&gt;" class="s14" d="M391.9 352.2h5.3v17.2h-5.3z"/></g><path id="&lt;Path&gt;" class="s9" d="M394.5 354.9c-8.2 0-16.2-2-23.4-5.8l2.5-4.7c21.6 11.6 48.5 3.4 60.1-18.2 5.6-10.5 6.7-22.8 3.1-34.2-1.4-4.5-3.5-8.8-6.3-12.6-3.9-5.5-9.1-10-15-13.2l2.4-4.6q4.2 2.2 7.8 5.1c3.5 2.8 6.5 6 9.1 9.6 3.1 4.3 5.5 9.1 7 14.1 8.3 26.1-6.2 54-32.4 62.2-4.8 1.6-9.9 2.3-14.9 2.3z"/><g id="&lt;Group&gt;" style="opacity:.3"><path id="&lt;Path&gt;" class="s14" d="M394.5 354.9c-8.2 0-16.2-2-23.4-5.8l2.5-4.7c21.6 11.6 48.5 3.4 60.1-18.2 5.6-10.5 6.7-22.8 3.1-34.2-1.4-4.5-3.5-8.8-6.3-12.6-3.9-5.5-9.1-10-15-13.2l2.4-4.6q4.2 2.2 7.8 5.1c3.5 2.8 6.5 6 9.1 9.6 3.1 4.3 5.5 9.1 7 14.1 8.3 26.1-6.2 54-32.4 62.2-4.8 1.6-9.9 2.3-14.9 2.3z"/></g><path id="&lt;Path&gt;" class="s9" d="M369.5 353.4q-.4 0-.7-.1c-.6-.4-.8-1.2-.5-1.8l50.2-93.6c.3-.6 1.1-.9 1.7-.5.7.3.9 1.1.6 1.7l-50.2 93.6c-.2.4-.7.7-1.1.7z"/><g id="&lt;Group&gt;" style="opacity:.4"><path id="&lt;Path&gt;" class="s14" d="M369.5 353.4q-.4 0-.7-.1c-.6-.4-.8-1.2-.5-1.8l50.2-93.6c.3-.6 1.1-.9 1.7-.5.7.3.9 1.1.6 1.7l-50.2 93.6c-.2.4-.7.7-1.1.7z"/></g><path id="&lt;Path&gt;" class="s9" d="M385 368.1h19.1c1.3 0 2.3 1 2.3 2.3v4.3h-23.7v-4.3c0-1.3 1-2.3 2.3-2.3z"/><path id="&lt;Path&gt;" class="s7" d="M396.5 267.1c21.1 1.1 37.3 19.1 36.3 40.2-1.1 21.1-19.1 37.3-40.2 36.2-21.1-1.1-37.4-19-36.3-40.1v-.1c1.1-21.1 19.1-37.3 40.2-36.2z"/><path id="&lt;Compound Path&gt;" class="s15" d="M416.8 274.2q-.1 0-.1-.1l-.4-.2c-1.6-.9-1.1 2.2-2.6 2.9-1.5.7-4.1-.6-3.8-1.5.4-.9-2.6-3.4-3.5-3.8-1.3-.5-2.7.2-3.2 1.5q-.2.5-.2.9c-.1 2.6 1.3 4.2.9 5-.4.8-.3 1-3 2.3-2.6 1.2-4.5-.4-6.1 1.1-1.6 1.4.4 2.2-.2 5.7-.6 3.5-1.6 1-3.5 1.4-1.9.3-.8-2-.6-3.3.3-1.4-1.7-1.8-2.6-1.9-.9-.1-3-.3-2.8-3 .3-2.7.2-5.3-3.5-5.1-1.9.2-3-2.6-3.5-5.3-9.8 4.6-17.1 13.2-20.3 23.6.2-.1.4.2.7.9.9 2.2 1.7 4.4 2.8 5.7 1 1.1 1.3 2.6.9 4-.5 1.1-2.8 1.7-2.8 2.5 0 .7-2.1 1.7-2.5 2.4 0 .2-.2.3-.4.2 1.4 10.5 7 20 15.6 26.2 1-2.5 2.6-4.4 3.7-4.5 2.4-.1 9.6-1.3 6.9-4.4-2.6-3.2-5.4-6.1-5.4-6.1q.8-1.3 1.8-2.4c.4-.3-.9-1.1 1.5-1.3 2.4-.3 2.6-.3 1.6-1.5s-2.7-.3-1.6-1.7c1.1-1.5 2.3-2.6 3.5-1 1.2 1.6.5 2.5.9 2.9.4.5 4-.2 4-.2s1 1.3.5 1.6q-.9 1.1-1.8 2.4c-.2.8-.7 1.6-1.3 2.2-.8.4 2 3.2 2.8 3.6.8.4 1.1.8 1.8.6.8-.2 2.1-1.7 2.6-2.1.5-.4 3.5.6 3.5.6q1.7 1 3.2 2.3c1 1 2.5 1.2 3.7.4.6-.5.6-2 1.7-1.5 1.2.5 1.6 1 2.4 3.9.8 2.8 5.6 6.9 5 8.7 3.5-2 6.7-4.5 9.4-7.4-3.4-1.2-4.6-2.4-5.1-3.2-.7-1-.3-1 .1-2.6.3-1.6 3.4-2.6 3.9-3.1.5-.4 2.9-3.4 4.1-3.7 1.2-.3 1.1-1.9 1.1-1.9s.2.4.7-.6c.5-1.1-.1-2.1 1.5-3.6 1-.7 2.2-1.3 3.5-1.5q.3-2 .4-4 .2-3.5-.3-7l-4.1 1.6q-1.5 0-2.9-.3c-.5-.2-2.6-1.6-4.3-.8-1.7.9-1.8-.5-5-1-3.1-.6 1.6-5 2.3-5.7.7-.6.9-.3 3-1.3 2.1-1.1 1.7-2.7 1.7-2.7q-1.9-2.8-4.5-5.1c-2-1.6.9-1.8 6-3.2q-3.3-4.4-7.8-7.5zm-13.9 48.4c-.8 1.1-1.8-.2-1.8-.2-2.9-.9-3.2-3.3-2.2-4.2 1-.9 1.5-4 3.1-2.8q1.9 1.4 4 2.6s1.7-4.5 1.8-.3c.1 4.2 2.5 2.9.1 4.2-2.5 1.3-4.3-.4-5 .7zm11.6 1.1q0 1.6-.3 3.2l-2.3 1.2c-1.6-1.4-1-3.5-.1-3.7.9-.2 2.6-1.9 2.7-.7zm-4-32.3c.5 1.1-1.2 1.9-3.2 4.7-2 2.9-3.2.6-3.2.6s-4-3.2-2.7-4.6c1.3-1.4.3-3.2 2.2-4.3 1.2-.7 2.4-.1 3.5 1.1 1.1 1.3 2.8 1.3 3.4 2.4z"/><path id="&lt;Path&gt;" class="s12" d="M406.5 269c.5 11.5-3.1 23.9-11.2 34.6-9 11.8-21.5 19-33.9 20.8-10.6-18.3-4.2-41.7 14.1-52.2 9.4-5.4 20.7-6.6 31-3.2z"/><g id="&lt;Group&gt;" style="opacity:.3"><path id="&lt;Path&gt;" class="s14" d="M385 368.1h19.1c1.3 0 2.3 1 2.3 2.3v4.3h-23.7v-4.3c0-1.3 1-2.3 2.3-2.3z"/></g><path id="&lt;Path&gt;" class="s9" d="M374.6 373.4h39.8c1.5 0 2.7 1.2 2.7 2.7v4.5h-45.2v-4.5c0-1.5 1.3-2.7 2.7-2.7z"/><g id="&lt;Group&gt;" style="opacity:.4"><path id="&lt;Path&gt;" class="s14" d="M374.6 373.4h39.8c1.5 0 2.7 1.2 2.7 2.7v4.5h-45.2v-4.5c0-1.5 1.3-2.7 2.7-2.7z"/></g></g></g><g id="Exam"><g id="&lt;Group&gt;"><g id="&lt;Group&gt;"><path id="&lt;Path&gt;" class="s7" d="m263 334.4-177.4 20-27.8-245.9 177.3-20.1z"/><path id="&lt;Path&gt;" class="s8" d="m263 334.4-177.4 20-27.8-245.9 177.3-20.1z"/></g><g id="&lt;Group&gt;"><path id="&lt;Compound Path&gt;" class="s7" d="m99.3 134.5.5 4.4-16.1 1.8-2.3-20 15.7-1.8.5 4.4-10.1 1.1.4 3.4 8.9-1 .5 4.2-8.9 1 .4 3.7zM115.4 137.1l-4.9-5.7-3.4 6.6-6.4.8 6.1-11-8.1-9.1 6.4-.7 4.7 5.3 3.2-6.2 6.2-.7-5.9 10.4 8.6 9.6z"/><path id="&lt;Compound Path&gt;" class="s7" d="m135.7 130.8-8.5 1-1.1 4.1-5.8.6 6.6-21 5.6-.6 11.1 19-5.9.7zm-2.1-4-3.3-6.1-1.9 6.7zM163.3 131.7l-1.3-10.6-4.1 9.2-2.6.3-6-7.8 1.1 10.3-5.2.6-2.3-20 4.7-.5 8.4 10.7 5.5-12.3 4.7-.5 2.3 20z"/></g><g id="&lt;Group&gt;" style="opacity:.2"><path id="&lt;Path&gt;" class="s7" d="m215.6 111.8-38.3 4.4-.4-3.4 38.4-4.4z"/></g><g id="&lt;Group&gt;" style="opacity:.2"><path id="&lt;Path&gt;" class="s7" d="M211.1 147.7 91.6 161.2l-.5-4.4 119.5-13.5z"/></g><g id="&lt;Group&gt;" style="opacity:.2"><path id="&lt;Path&gt;" class="s7" d="m209.4 119.6-30.8 3.5-.4-3.4 30.8-3.5z"/></g><g id="&lt;Group&gt;" style="opacity:.2"><path id="&lt;Path&gt;" class="s7" d="m86 161.9-5.2.6-.6-5.2 5.2-.6z"/></g><g id="&lt;Group&gt;" style="opacity:.2"><path id="&lt;Path&gt;" class="s7" d="M219.1 218.2 99.6 231.7l-.5-4.4 119.5-13.6z"/></g><g id="&lt;Group&gt;" style="opacity:.2"><path id="&lt;Path&gt;" class="s7" d="m93.9 232.4-5.1.5-.6-5.1 5.2-.6z"/></g><g id="&lt;Group&gt;" style="opacity:.2"><path id="&lt;Path&gt;" class="s7" d="m225.9 278.6-119.4 13.5-.5-4.4 119.4-13.5z"/></g><g id="&lt;Group&gt;" style="opacity:.2"><path id="&lt;Path&gt;" class="s7" d="m100.8 292.8-5.2.6-.6-5.2 5.2-.6z"/></g><g id="&lt;Group&gt;"><g id="&lt;Group&gt;" style="opacity:.2"><path id="&lt;Path&gt;" fill-rule="evenodd" class="s7" d="m213.7 161.7-105.5 11.9-.5-4.4 105.5-12z"/></g><g id="&lt;Group&gt;" style="opacity:.2"><path id="&lt;Path&gt;" class="s7" d="m151.2 179.4-41.8 4.8-.5-4.5 41.8-4.7z"/></g><g id="&lt;Group&gt;" style="opacity:.2"><path id="&lt;Path&gt;" class="s16" d="m101.5 176.3-7.1.8-.9-7.1 7.2-.8z"/></g></g><g id="&lt;Group&gt;"><g id="&lt;Group&gt;" style="opacity:.2"><path id="&lt;Path&gt;" class="s7" d="m216.8 189.7-105.4 11.9-.5-4.4 105.4-12z"/></g><g id="&lt;Group&gt;" style="opacity:.2"><path id="&lt;Path&gt;" class="s7" d="m154.4 207.4-41.8 4.8-.5-4.5 41.8-4.7z"/></g><g id="&lt;Group&gt;" style="opacity:.2"><path id="&lt;Path&gt;" class="s16" d="m104.6 204.3-7.1.9-.8-7.2 7.1-.8z"/></g></g><g id="&lt;Group&gt;"><g id="&lt;Group&gt;" style="opacity:.2"><path id="&lt;Path&gt;" class="s7" d="m222 235.2-105.4 11.9-.5-4.4 105.4-12z"/></g><g id="&lt;Group&gt;" style="opacity:.2"><path id="&lt;Path&gt;" class="s7" d="m159.7 254-41.8 4.8-.5-4.5 41.8-4.7z"/></g><g id="&lt;Group&gt;" style="opacity:.2"><path id="&lt;Path&gt;" class="s16" d="m109.8 249.8-7.1.8-.8-7.1 7.1-.8z"/></g><g id="&lt;Group&gt;" style="opacity:.2"><path id="&lt;Path&gt;" class="s16" d="m111 260.9-7.1.8-.8-7.1 7.1-.8z"/></g><g id="&lt;Group&gt;" style="opacity:.2"><path id="&lt;Path&gt;" class="s7" d="m185.1 262.8-65.9 7.5-.5-4.5 65.9-7.4z"/></g><g id="&lt;Group&gt;" style="opacity:.2"><path id="&lt;Path&gt;" class="s16" d="m112.3 272.4-7.1.8-.8-7.1 7.1-.8z"/></g></g><g id="&lt;Group&gt;"><g id="&lt;Group&gt;" style="opacity:.2"><path id="&lt;Path&gt;" class="s7" d="m228.6 293.8-105.4 11.9-.5-4.4 105.4-12z"/></g><g id="&lt;Group&gt;" style="opacity:.2"><path id="&lt;Path&gt;" class="s7" d="m166.3 312.6-41.8 4.8-.5-4.5 41.8-4.7z"/></g><g id="&lt;Group&gt;" style="opacity:.2"><path id="&lt;Path&gt;" class="s16" d="m116.4 308.4-7.1.8-.8-7.1 7.1-.8z"/></g><g id="&lt;Group&gt;" style="opacity:.2"><path id="&lt;Path&gt;" class="s16" d="m117.7 319.5-7.1.8-.8-7.1 7.1-.8z"/></g><g id="&lt;Group&gt;" style="opacity:.2"><path id="&lt;Path&gt;" class="s7" d="m191.7 321.4-65.9 7.5-.5-4.5 65.9-7.4z"/></g><g id="&lt;Group&gt;" style="opacity:.2"><path id="&lt;Path&gt;" class="s16" d="m119 331-7.1.8-.8-7.1 7.1-.8z"/></g></g></g></g><g id="Ruler"><g id="&lt;Group&gt;"><path id="&lt;Compound Path&gt;" class="s7" d="m360.4 173.9-30.9 97.2 66.4-48.6zm5.5 28.3 12.2 16.3-22.8 16.2z"/><path id="&lt;Compound Path&gt;" class="s10" d="m360.4 173.9-30.9 97.2 66.4-48.6zm5.5 28.3 12.2 16.3-22.8 16.2z"/><path id="&lt;Path&gt;" class="s17" d="M363.6 187.1q2.2-1.3 4.3-2.7M366.6 191.3q2.1-1.4 4.3-2.7M369.9 195.4q2.1-1.3 4.3-2.6M372.9 199.6q2.1-1.3 4.3-2.7M375.8 203.7q2.2-1.4 4.3-2.7M378.8 207.7q2.1-1.3 4.3-2.6M381.7 211.8q2.2-1.3 4.3-2.7M384.7 215.9q2.1-1.4 4.3-2.7M387.6 219.9q2.2-1.3 4.3-2.7"/><path id="&lt;Path&gt;" class="s10" d="m363.5 228.9-1 18.1 10.3-7.6.7-17.6-8.9 6.3"/></g></g><g id="Speech Bubble"><g id="&lt;Group&gt;"><g id="&lt;Group&gt;"><path id="&lt;Path&gt;" class="s7" d="M329.8 179.5c0 10.5-8.5 19-18.9 19-10.5 0-19-8.5-19-19 0-10.4 8.5-18.9 19-18.9 10.4 0 18.9 8.5 18.9 18.9z"/><g id="&lt;Group&gt;"><g id="&lt;Group&gt;"><g id="&lt;Group&gt;"><path id="&lt;Path&gt;" class="s18" d="M324.6 162.3c-4.8-4.5-12-6.4-18.4-4.8M303.3 158.4c-1 .2-2 .5-2.8 1.1"/></g></g></g><path id="&lt;Path&gt;" class="s7" d="M300.9 200.4c0 1.2-.9 2.1-2.1 2.1-1.1 0-2-.9-2-2.1 0-1.2.9-2.1 2-2.1 1.2 0 2.1.9 2.1 2.1z"/></g><g id="&lt;Group&gt;"><path id="&lt;Path&gt;" class="s14" d="M310.9 177c1.3 0 2.4 1.1 2.4 2.4 0 1.4-1.1 2.5-2.4 2.5-1.3 0-2.4-1.1-2.4-2.5 0-1.3 1.1-2.4 2.4-2.4z"/><g id="&lt;Group&gt;"><path id="&lt;Path&gt;" class="s14" d="M302.6 177c1.3 0 2.4 1.1 2.4 2.4 0 1.4-1.1 2.5-2.4 2.5-1.4 0-2.4-1.1-2.4-2.5 0-1.3 1-2.4 2.4-2.4zM318.9 177c1.3 0 2.4 1.1 2.4 2.4 0 1.4-1.1 2.5-2.4 2.5-1.4 0-2.4-1.1-2.4-2.5 0-1.3 1-2.4 2.4-2.4z"/></g></g></g></g><g id="Icon"><g id="&lt;Group&gt;"><g id="&lt;Group&gt;"><g id="&lt;Group&gt;"><path id="&lt;Path&gt;" class="s7" d="M243.8 180.2c0 2.5-2 4.6-4.5 4.6s-4.6-2.1-4.6-4.6c0-2.5 2.1-4.5 4.6-4.5 2.5 0 4.5 2 4.5 4.5zM231 186c0 1.8-1.4 3.2-3.2 3.2-1.8 0-3.3-1.4-3.3-3.2 0-1.8 1.5-3.2 3.3-3.2 1.8 0 3.2 1.4 3.2 3.2zM234.4 172.3c0 1.1-.9 2-2.1 2-1.1 0-2-.9-2-2s.9-2 2-2c1.2 0 2.1.9 2.1 2zM251 183.6c0 1.1-.9 2-2 2s-2-.9-2-2 .9-2 2-2 2 .9 2 2zM252.1 174.3c0 1.5-1.2 2.7-2.7 2.7-1.6 0-2.8-1.2-2.8-2.7 0-1.5 1.2-2.8 2.8-2.8 1.5 0 2.7 1.3 2.7 2.8zM245.2 194.5c0 1.8-1.4 3.2-3.2 3.2-1.8 0-3.2-1.4-3.2-3.2 0-1.8 1.4-3.2 3.2-3.2 1.8 0 3.2 1.4 3.2 3.2z"/><path id="&lt;Path&gt;" class="s19" d="m228.4 185.2 9.5-4.2 3 .8 1.1 12.3M232.3 172.3l4.3 5.5 6.4 4.5 5 1.2"/></g><path id="&lt;Path&gt;" class="s19" d="M240.1 180.4q3.7-2.6 7.4-5.1"/></g></g></g><g id="Planet"><g id="&lt;Group&gt;"><path id="&lt;Path&gt;" class="s7" d="M184.1 238.3q.8-2.4 2.1-4.5.6-1 1.3-1.9 1.9-2.3 4.3-4.1.4-.3.9-.7 1-.6 2.1-1.2.7-.3 1.5-.6 1-.5 2.1-.8 1.4-.4 2.9-.6 1.8-.3 3.7-.2c3.7 0 7.2 1 10.4 2.9q1.4.8 2.6 1.8.6.5 1.1 1 .6.5 1.1 1 .3.4.7.8.4.6.9 1.1.8 1.2 1.6 2.5.2.4.3.8.6 1.2 1.1 2.4.2.5.3 1 .7 2.4.8 4.9.1.9 0 1.7v.9q0 .7-.1 1.4-.2 1.4-.6 2.7-.2.9-.5 1.7-.4 1.1-.8 2-.9 1.8-2 3.4-.7.9-1.5 1.8-.9 1-1.9 1.9-1 .9-2.2 1.6-1.5 1-3.1 1.7-1.2.6-2.5 1-1 .3-2 .5c-4.3.8-8.8.4-12.8-1.4l-1.6-.8q-.6-.3-1.2-.7-.6-.4-1.3-.9-.3-.2-.6-.5-1.2-.9-2.2-1.9c-2.3-2.4-4-5.3-5-8.5q-.7-2.4-.9-4.8-.1-1.1-.1-2.1l.2-2q.2-2.2.9-4.3z"/><path id="&lt;Path&gt;" class="s12" d="M184.1 238.3q.8-2.4 2.1-4.5.6-1 1.3-1.9 1.9-2.3 4.3-4.1.4-.3.9-.7 1-.6 2.1-1.2.7-.3 1.5-.6 1-.5 2.1-.8 1.4-.4 2.9-.6 1.8-.3 3.7-.2c3.7 0 7.2 1 10.4 2.9q1.4.8 2.6 1.8.6.5 1.1 1 .6.5 1.1 1 .3.4.7.8.4.6.9 1.1.8 1.2 1.6 2.5.2.4.3.8.6 1.2 1.1 2.4.2.5.3 1 .7 2.4.8 4.9.1.9 0 1.7v.9q0 .7-.1 1.4-.2 1.4-.6 2.7-.2.9-.5 1.7-.4 1.1-.8 2-.9 1.8-2 3.4-.7.9-1.5 1.8-.9 1-1.9 1.9-1 .9-2.2 1.6-1.5 1-3.1 1.7-1.2.6-2.5 1-1 .3-2 .5c-4.3.8-8.8.4-12.8-1.4l-1.6-.8q-.6-.3-1.2-.7-.6-.4-1.3-.9-.3-.2-.6-.5-1.2-.9-2.2-1.9c-2.3-2.4-4-5.3-5-8.5q-.7-2.4-.9-4.8-.1-1.1-.1-2.1l.2-2q.2-2.2.9-4.3z"/><path id="&lt;Path&gt;" class="s6" d="M184.1 238.3q1 0 2 .2c1 .2 1.9.6 2.9.8 1.2.2 2.4.1 3.7.3 1.2.1 2.5.5 3.3 1.4q-4.5.3-9 1c-1.2.3-2.5.5-3.8.6q.2-2.2.9-4.3zM217.9 246.7q2.8-.4 5.5-.4 1.3 0 2.5.2 0 .7-.1 1.4h-.2c-2.6.1-5.2-.3-7.7-1.2zM207.7 239.9q.5-.1 1 0 2.1.1 4.2-.1l3.6-.4q1.4-.1 2.7-.4.8-.3 1.5-.5 1-.1 2 .1l2.4.4q.7 2.4.8 4.9-.8 0-1.7-.2c-.9-.2-1.8-.6-2.7-.7-.9-.1-1.7 0-2.5 0q-1.4-.2-2.7-.5c-3-.7-6.2-.7-9.1-1.8-.1-.3.1-.7.5-.8zM191.8 227.8q.4-.4.9-.7 1-.7 2.1-1.2.7-.4 1.5-.7c.1 0 .1.1.2.1q7.3 2 14.7 2.8c2.6.3 5.4.5 7.9 1.3q.6.5 1.1 1-4.1-1-8.3-1.3c-2.3-.2-4.7-.1-7-.3-2.2-.2-4.3-.7-6.4-.5q-.7 0-1.5.1-2.4 0-4.7-.5-.3-.1-.5-.1zM204.9 231.1c2.1-.4 4.3-.2 6.4 0q3.7.4 7.4.3c.7-.1 1.5-.1 2.2-.2q.4.6.9 1.1.8 1.2 1.6 2.5.2.4.3.8-.3-.1-.6-.1c-1.3-.1-2.5-.2-3.8-.4q-1.4-.2-2.8-.6-1.1-.3-2.2-.7c-.6-.3-1.1-.6-1.7-.8q-1.1-.5-2.2-.8c-1.8-.5-3.6-1.1-5.5-1.1z"/><path id="&lt;Path&gt;" class="s6" d="M216.2 233.1c.9-.3 1.9 0 2.9-.2.4-.1.7-.2 1.1-.3q.7-.2 1.6-.3.8 1.2 1.6 2.5-1.8-.1-3.6-.5l-2-.4c-.4-.1-1.7-.2-1.9-.4-.2-.2.1-.4.3-.4zM187.5 231.9q1-1.2 2.1-2.3 1.6.1 3.2.5 1.2.4 2.5.5c1.1.1 2.3-.1 3.4-.1 1.1-.1 2.3.1 3.1.9q-2.2.2-4.4.3-3.8.3-7.5.3-1.2-.1-2.4-.1zM193.3 227.3q-.2-.1-.6-.2 1-.7 2.1-1.2 1.6.4 3.3.6c1.8.2 3.7.2 5.2 1.2l-2.3-.2q-2.4-.4-4.7-.2-.9.2-1.8.2-.6 0-1.2-.2zM198.4 224.5q1.4-.4 2.9-.7 1.8-.2 3.7-.2c3.7.1 7.2 1.1 10.4 3q1.4.8 2.6 1.8c-1.4 0-3.3-.6-4-.7l-4.8-.8q-5.6-1-10.8-2.4z"/><path id="&lt;Path&gt;" class="s6" d="M201.3 223.8q1.8-.2 3.7-.2c3.7.1 7.2 1.1 10.4 3q-.4-.1-.9-.1c-.3 0-.5.1-.8.1q-.6.1-1.1 0-2-.1-4-.6c-1.3-.3-2.4-.8-3.6-1.2q-1.8-.6-3.7-1zM191.2 250c.1-.3.5-.3.7-.4 1.2-.3 2.2-1.1 3.3-1.6 1.8-.8 3.8-.9 5.8-1q1.6 0 3.2.1 1.5.2 2.9.5c2 .5 4 1 6 1.6 3.6 1.1 7.2 2.2 11 2.9l.6.2q-.3 1-.8 2c-1.2 0-2.5-.2-3.6-.2-3.4-.1-6.6.7-9.8 1.7q-1.4.5-2.8.6c-1.3.1-2.6-.3-3.9-.6q-2.2-.7-4.3-1.4-1.2-.3-2.3-.8c-.6-.3-1.1-.8-1.7-1.1q-1.5-.9-3.1-1.2-.5-.1-1-.4c-.3-.2-.4-.6-.2-.9z"/><path id="&lt;Path&gt;" class="s6" d="M210.8 253.9q-1.9.4-4 .3-2.6 0-5.1-.5-2-.6-3.8-1.4c-.8-.3-1.5-.7-2-1.4 4-2.4 9.2-2 13.7-.9 2.8.6 5.6 1.5 8.3 2.4-.2-.1-1.4.6-1.8.7q-.7.1-1.5 0c-1.4-.1-2.5.5-3.8.8zM184 251.4l1.4.2c.9.2 1.9.7 1.8 1.6 2-.1 4.2 0 5.9 1.1l-2.4.6 20.2 3.2q.9.2 1.8.1c1.2-.1 2.3-.9 3.5-1.2 1.6-.4 3.9-.1 5.7.7q-.7.9-1.5 1.8-.9 1-1.9 1.8-1 .9-2.2 1.7c-4.3-.4-8.6-1.5-12.8-2.7q2.4-.2 4.7-.4c.9-.1 1.8-.2 2.4-.8q-3.8-.6-7.6-1-2.2-.2-4.4-.3-3.7-.2-7.5-.5-.3-.1-.6.1c-.3.1-.4.4-.2.6q.1.2.4.2l2.3.5c.7.2 1.6.6 1.4 1.3h-4q-.7 0-1.4-.1c-2.3-2.4-4-5.3-5-8.5zM191.1 261.9q1.7-.2 3.4-.1c2.5.1 5 .7 7.5 1.2q1 .3 2 .3c.8-.1 1.5-.3 2.3-.3 1.2 0 2.3.5 3.4.9.7.2 2.3.4 3.5.8q-1.2.6-2.5.9-2.3-.8-4.8-1.1c-3.5-.5-7.1-1-10.6-.7q-.5 0-1 .2-.6-.4-1.2-.7-.6-.4-1.3-.9-.3-.2-.7-.5z"/><path id="&lt;Path&gt;" class="s6" d="M214.1 260.2c1.9-1 4.2-1 6.3-.7q-.9 1-1.9 1.8-2.2-.3-4.4-1.1zM195.9 264.8c3.2-.6 6.4-.2 9.5.5q1.7.4 3.3.8c-4.3.9-8.8.4-12.8-1.3zM191.8 262.4q.3 0 .6-.1c1.5-.1 3.1-.2 4.5.2-1-.3-2.4.3-3.8.8q-.7-.4-1.3-.9z"/><path id="&lt;Compound Path&gt;" class="s6" d="M183.2 242.6q-.2 1-.2 2t.1 2q.7.2 1.5.1 3.6-.3 7.2-.5c-.8-.9-2.1-.9-3.2-.8-1.1.1-2.4.3-3.4-.2 1.7-1.1 3.7-1.7 5.8-1.7 1.4.1 2.8.5 4.2.3 1.2-.1 2.4-.6 3.6-.5q.9.2 1.7.5c6.2 1.7 13.1-1.7 19 .6q-5.5.7-11 1.3c1.5 1.4 3.8 1.3 5.9 1.5 2.3.3 4.5 1.1 6.4 2.3q1 .8 2.1 1.1 1 .2 1.9 0h.4q.4-1.4.6-2.8.1-.6.1-1.3 0-.5.1-.9 0-.9-.1-1.7-.1-2.5-.8-4.9-.1-.5-.3-1c-1.5 0-3 .2-4.5-.1-.6-.1-1.2-.3-1.8-.4q-1-.2-2-.2l-13.8-.3c-1.9 0-3.8 0-5.7-.3 4.2-1 8.6-1.4 12.9-1.1.7 0 1.5 0 2-.3-2-1.5-4.9-.9-7.4-1.2-1.2-.1-2.3-.5-3.5-.4-1 0-2.1.3-3.1.4q-1.7.2-3.4 0-4.1-.1-8.2-.3-1.4 2.1-2.2 4.5-.7 2.1-.9 4.3zm10.2-7q1.3-.4 2.7-.4l.3.3c-1.4.6-3 .8-4.5.4q.7-.1 1.5-.3z"/></g></g><g id="Clock"><g id="&lt;Group&gt;"><g id="&lt;Group&gt;"><path id="&lt;Path&gt;" class="s7" d="M282.4 89.4c-.9 16.7-15.2 29.6-31.9 28.7-16.7-.9-29.5-15.2-28.6-31.9.9-16.7 15.1-29.5 31.8-28.6 16.7.9 29.5 15.1 28.7 31.8z"/><path id="&lt;Path&gt;" class="s20" d="M282.4 89.4c-.9 16.7-15.2 29.6-31.9 28.7-16.7-.9-29.5-15.2-28.6-31.9.9-16.7 15.1-29.5 31.8-28.6 16.7.9 29.5 15.1 28.7 31.8z"/><path id="&lt;Path&gt;" class="s7" d="M282.4 86.3c-.9 16.7-15.2 29.5-31.9 28.6-16.7-.8-29.5-15.1-28.6-31.8.9-16.7 15.1-29.5 31.8-28.6 16.7.8 29.5 15.1 28.7 31.8z"/><path id="&lt;Path&gt;" class="s14" d="M277.2 86c-.7 13.9-12.5 24.6-26.4 23.8-13.9-.7-24.5-12.6-23.8-26.4.7-13.9 12.6-24.6 26.4-23.8 13.9.7 24.6 12.5 23.8 26.4z"/><g id="&lt;Group&gt;"><path id="&lt;Compound Path&gt;" class="s21" d="m255.4 106-.9-5.9q.2 0 .3-.1l1.1 5.9q-.3.1-.5.1zm-9.8-.8q-.2 0-.5-.1l2-5.7q.1.1.3.1zm19.3-3.2-3.5-4.8.3-.2 3.6 4.8-.4.2zm-28.1-2.1q-.2-.2-.3-.4l4.3-4.1.3.3zm34.7-5.8-5.4-2.6.1-.3 5.5 2.4-.1.1q0 .2-.1.4zm-40-3.1q-.1-.2-.2-.5l5.8-1.6q0 .2.1.4zm36.2-6.9q-.1-.2-.1-.3l6-.4v.5zm-30.9-2.3-5.8-1.1.1-.5 5.8 1.2zm28.9-4.8-.2-.3 5.1-3.1q.1.2.3.4zm-25.8-1.9-4.7-3.7q.2-.2.3-.4l4.6 3.8zm20.7-3.5q-.2 0-.3-.1l3.1-5.1.4.2zm-14.7-1.1-2.5-5.5q.3-.1.5-.2l2.3 5.6q-.2 0-.3.1zm7.6-1.3h-.3l.4-6q.2 0 .5.1z"/></g></g><g id="&lt;Group&gt;"><path id="&lt;Path&gt;" d="m241.1 82.1 11.5 3.3.7-13.6" style="fill:none;stroke:#000;stroke-linecap:round;stroke-linejoin:round"/><path id="&lt;Path&gt;" class="s21" d="M254.1 84.8c.1 1-.7 1.9-1.8 1.9-1 0-1.9-.8-1.9-1.8s.8-1.9 1.8-1.9c1.1-.1 1.9.8 1.9 1.8z"/></g></g></g><g id="Character"><g id="&lt;Group&gt;"><g id="&lt;Group&gt;"><g id="&lt;Group&gt;"><path id="&lt;Path&gt;" class="s7" d="M265.3 323.9s-6.6-43.5-8-54.1c-1.4-10.6 0-16 4-19.4 4-3.5 22.6-8.1 35.1-8.6 9.8-.3 14.8 1.6 23.1 23.5l-13.8 6s11.1 36.2 9.7 50.2z"/><path id="&lt;Path&gt;" class="s20" d="m303.2 272.4-2.3 1-3.5-9.1 3.7 12.8 3.1-1.4z"/></g><g id="&lt;Group&gt;"><path id="&lt;Path&gt;" class="s7" d="M261.3 250.3s-7.8 3.4-10.9 11.1c-1.4 3.8-4.5 10.6-7.4 17.2l23 3.5z"/><path id="&lt;Path&gt;" class="s23" d="M244.9 279s-9.3 16.3-6.5 23.5h16.7l.7-7.2-3-1.8 6.1-12.8z"/><path id="&lt;Path&gt;" class="s20" d="M252.8 293.5s-4.9-1.2-8.5.4c0 0 3-4.2 9-1.5zM255.6 268.2s-1 5.3.2 8.8c1.1 3.4 3.1 3.7 3.1 3.7z"/></g><g id="&lt;Group&gt;"><path id="&lt;Path&gt;" class="s9" d="M305.4 213.2c-1.2-.5-2.5-.7-3.7-1.3-2.6-1.2-4.1-3.9-5.2-6.6-1.1-2.6-1.9-5.5-3.8-7.6-1.9-2-4.6-3.2-7.3-3.2s-5.4 1.2-7.2 3.2l6.1 21.9c1.4 2.5 3.7 4.5 6.3 5.7 1.2.4 2.4.8 3.6.4 1.1-.4 2-1.7 1.5-2.8 1 1.5 3.1 2 4.7 1.2s2.3-2.8 1.7-4.5c1.2 0 2.5 0 3.7-.5 1.1-.6 2.1-1.7 2.1-2.9-.1-1.4-1.3-2.4-2.5-3z"/></g><g id="&lt;Group&gt;"><g id="&lt;Group&gt;"><path id="&lt;Path&gt;" class="s9" d="M257.7 203.3c-5 5-3.1 10.4-2.3 14.4 1.8 5.2 2.4 9 4.9 14l8.4-34.4c-3.2 1.3-5.5 1-11 6z"/><path id="&lt;Path&gt;" class="s9" d="M265 199c5.2-3.7 11.3-1.6 14.9-.1 4.1 2.3 7 6.3 8 10.9.8 4.3 1.7 9.6-.4 12.3-1.3 1.6-3.1 2.6-5.1 2.7l-25.1-15.7c1.7-3.9 4.3-7.4 7.7-10.1z"/><g id="&lt;Group&gt;"><path id="&lt;Path&gt;" class="s23" d="M276 253.8c3.5-.3 3.2-.4 5.2-1.7 9.9-6.3 5.5-9.5 5.5-9.5-3-2.5-2.3-5.7-2.4-11.2 0-.1.3-2.9.3-3.1-.1-.7-.9 2.5-1.4 2-1.4-1.4-3.7-1.4-5.1 0l-5.5 2.8v.2c.5 2.9 1 5.2 1.4 7-.1.2 0 .4.1.6 0 .2 0 .4.1.7.3 2.4-2.7 4.7-2.7 8.1-.9.8 1.1 4.1 4.5 4.1z"/><path id="&lt;Path&gt;" class="s6" d="M272.6 233.1v.2c.5 2.9 1 5.2 1.4 6.9q0 .4.1.7v.7c2.9-1.4 5.5-3.2 7.5-5.6 1.5-1.7 2.5-3.9 2.7-6.3-.2-.7-.7 1.1-1.2.6-1.4-1.4-3.6-1.4-5 0z"/><path id="&lt;Path&gt;" class="s23" d="M284.6 211.8c1.6 10.1 2.5 14.3-1.2 20.6-5.6 9.5-18 9.5-22.6.3-4-8.4-6.1-23.4 2.5-29.7 8.5-6.4 19.6-1.2 21.3 8.8z"/><path id="&lt;Path&gt;" class="s23" d="M290.9 219.4c-.6 2.3-2.1 4.1-3.7 5.1-2.5 1.3-5-2.5-4.8-5.4.1-2.5 2.3-4.8 5-5 2.6-.2 4.2 2.6 3.5 5.3z"/><path id="&lt;Path&gt;" d="M285.3 220.4c-.2-1 0-2 .5-2.8.5-.8 1.4-1.4 2.3-1.6" style="opacity:.2;fill:none;stroke:#000;stroke-linecap:round;stroke-linejoin:round;stroke-width:.5"/><g id="&lt;Group&gt;"><g id="&lt;Group&gt;"><path id="&lt;Path&gt;" class="s9" d="M272.7 218.4c.2 1.1-.1 2.1-.8 2.3-.6.2-1.3-.5-1.6-1.6-.2-1 .1-2.1.8-2.2.6-.2 1.3.5 1.6 1.5zM262.9 221.1c.3 1-.1 2-.7 2.2-.6.2-1.4-.5-1.6-1.5-.2-1 .1-2 .8-2.2.6-.2 1.3.5 1.5 1.5zM273.7 214.2q-.2.1-.3 0c-2-1-3.5 0-3.6 0-.2.1-.5.1-.6-.2-.1-.2-.1-.5.2-.7.1 0 2-1.3 4.4 0 .2.1.3.4.2.7q-.1.1-.3.2zM258.3 217q-.2 0-.3-.1c-.1-.2-.1-.5.1-.7 1.9-1.9 3.8-1.4 3.9-1.4.2.1.4.3.3.6-.1.3-.3.4-.6.4 0 0-1.6-.4-3.1 1.1q-.1.1-.3.1z"/><path id="&lt;Path&gt;" d="M265.5 219.9s-.6 4.1-1.7 6.9c-.2.5.2 1 .7 1 1.4.2 2.7-.6 2.7-.6z" style="fill:#a24e3f"/></g><path id="&lt;Path&gt;" class="s9" d="m271.5 216.8-2.5.1s1.8 1.3 2.5-.1zM261.6 219.5l-2.4.1s1.7 1.4 2.4-.1z"/></g></g><path id="&lt;Path&gt;" class="s9" d="M281.9 214.8s-6.9-5.5-8.2-11c0 0-21.7 1.2-16.5 18.5 0 0-6.8-16.4 9.4-22 16.2-5.6 23.7 15.5 17.6 24.5 0 0 2-6.6-2.3-10z"/></g><path id="&lt;Path&gt;" class="s9" d="M286.9 213.8c-1.5-6.7-5.2-11.3-10.3-12.5-6.9-1.5-15 .3-15 .3-.1 2-4 8-4.1 10.1 1.9-.5 7.4-4.5 9-5.4l-1.1 1.4s3-.5 4.5-2.4c3.2 8.2 14.2 8.5 17 8.5z"/><path id="&lt;Path&gt;" class="s7" d="M275 197.4s4.9.4 7.6 3.6c0 0-2.6-4.4-7.6-3.6z"/><path id="&lt;Path&gt;" d="M270.8 229.6c1.1-.9 2.5-1.9 3.2-3.3" style="fill:none;stroke:#263238;stroke-linecap:round;stroke-linejoin:round;stroke-width:.8"/></g><path id="&lt;Path&gt;" class="s9" d="M271.6 246s-5.7 9.4 4.6 9c10.3-.3 13.4-10.1 13.8-12.8l-3.2-1.1s-1.8 8-8.8 9.6c-7 1.6-5.4-5.6-5.4-5.6z"/><g id="&lt;Group&gt;"><path id="&lt;Path&gt;" class="s23" d="M316.6 266.5s5.8 16.6 6.5 21.2c.2 1.8 2 6.2-3.5 10.2-4.9 3.4-39.8 4.6-39.8 4.6l-1.1-9 28.8-7.5-4.3-13.6z"/><g id="&lt;Group&gt;"><path id="&lt;Path&gt;" class="s23" d="M280.6 293.1s-5.3-4.1-5.5-4.2c-.2 0-6.6-.3-7.6.4-.9.8-1.5 4.2-1.5 4.2s-2.4.9-2.8 2.1c-.5 1.2.4 2.3.4 2.3s-.5 1.3.3 2.3l.9 1.1s-.9 1-.1 1.7c.7.8 17.7-.5 17.7-.5z"/><path id="&lt;Path&gt;" class="s20" d="m266 293.5 7.4-1.2s-3.3-.5-5.1 0c-1.7.5-2.3 1.2-2.3 1.2z"/><path id="&lt;Path&gt;" class="s9" d="m274.6 282.7-3.8 10.1c-.8-.2-1.7.4-2.2.3l4.2-11.2c.2-.5.8-.7 1.3-.5.5.2.8.8.6 1.3z"/></g><path id="&lt;Path&gt;" class="s20" d="M307.5 286s6.3.3 7.2 3.9c0 0 0-5.8-7.7-5.4z"/></g><g id="&lt;Group&gt;"><path id="&lt;Path&gt;" class="s23" d="M255.8 295.3s11.8-.9 14.6 1.4c2.8 2.3 5.4 6.1 5.4 6.1l-21.3-.3z"/><path id="&lt;Path&gt;" class="s20" d="M262.4 295.1s-.8 3.3.6 5.7c.5.8-.5 1.5-.2 1.8l3.2.1-2.5-7.6z"/></g></g><g id="&lt;Group&gt;"><path id="&lt;Path&gt;" class="s23" d="m212.4 436.6 1.4-7.9 15.9 1.2-4.4 11.4-9.4.3z"/><g id="&lt;Group&gt;"><g id="&lt;Group&gt;"><path id="&lt;Path&gt;" class="s7" d="M210.8 435.2h4.2c1 0 1.8.5 2.4 1.3 2.4 3.3 4.2 2 6.9-1.1 1.6-.2 2.1 1.8 2.2 2.3l3.1 11.4c.3.9-.2 1.9-1.2 2.2q-.2.1-.5.1h-33.2c-5.3 0-6.4-5.4-4.2-5.9 9.8-2.1 16.7-5 19.7-7.8.6-.5 0-.9.6-2.5z"/><path id="&lt;Path&gt;" class="s27" d="M208.1 439c1.4.2 2.8 1 3.6 2.3M205.3 440.4c1.5.2 2.8 1.1 3.6 2.3M202.1 442.1c1.4.2 2.8 1 3.5 2.3"/></g></g><path id="&lt;Path&gt;" class="s23" d="m216.6 412.2-3.4-7.2 13.6-8.3 3.1 11.9-7.6 5.7z"/><g id="&lt;Group&gt;"><g id="&lt;Group&gt;"><path id="&lt;Path&gt;" class="s7" d="m214.5 412 3.5-2.4c.7-.5 1.7-.6 2.6-.3 3.9 1.2 4.7-.8 5-4.9 1.3-1.1 2.7.2 3.1.6l9.2 7.4c.8.7.9 1.8.3 2.6q-.2.2-.4.3c-4.2 3-6.1 4.3-11.3 8l-15.8 11.2c-4.3 3.1-8.3-.7-6.8-2.3 6.7-7.4 10.7-13.8 11.5-17.8.2-.8-.5-.8-.9-2.4z"/><path id="&lt;Path&gt;" class="s27" d="M214.5 416.7c1.3-.7 2.8-.8 4.2-.2M213 419.5c1.3-.7 2.9-.8 4.3-.2M211.3 422.7c1.3-.7 2.9-.8 4.3-.2"/></g></g><path id="&lt;Path&gt;" class="s9" d="M265.7 320.6s-50.6-6.9-65.9 7.5c0 0-11.8 7.5-7.2 32.8 2.9 15.5 11.8 35.7 21.2 48.4l13.3-11.3s-7.3-31.1-7.8-47l18.4-1.1 26.3-18 2.8-7.5z"/><path id="&lt;Path&gt;" class="s20" d="M221.3 350.8s-1.4-4.7-.1-10.5c1.3-5.8 4.6-11.5 22.7-13.8 18.1-2.3-20.7 24.3-20.7 24.3z"/><path id="&lt;Path&gt;" class="s9" d="M315.4 320.1s1.4 14.4-3.2 24.9c-4.6 10.6-20.7 14.4-31.6 13.7-10.9-.7-25-1.6-30.9.1 0 0-7.8 43.8-21.1 75.8l-16.2-1.4s8.8-61.9 10.2-76.2c1.4-14.4.7-16.6 9.5-23.6s53.7-16.5 83.3-13.3z"/><path id="&lt;Path&gt;" class="s20" d="m221.3 368.5-5.3 39s-.1-20.6.2-26.8c.5-7.6 5.1-12.2 5.1-12.2z"/></g><g id="&lt;Group&gt;"><path id="&lt;Path&gt;" d="m237 447.9 17.7-83.8h60l13.3 83.8" style="fill:none;stroke:#263238;stroke-linecap:round;stroke-linejoin:round;stroke-width:3"/><path id="&lt;Path&gt;" d="m237 447.9 17.7-83.8h60l13.3 83.8" style="opacity:.5;fill:none;stroke:#fff;stroke-linecap:round;stroke-linejoin:round;stroke-width:3"/><path id="&lt;Path&gt;" class="s7" d="M316.3 364.1h-63c-1.7 0-3.1-1.4-3.1-3.1 0-1.8 1.4-3.2 3.1-3.2h63c1.7 0 3.1 1.4 3.1 3.2 0 1.7-1.4 3.1-3.1 3.1z"/></g><g id="&lt;Group&gt;"><path id="&lt;Path&gt;" class="s9" d="M339.1 328.5H296v-18.9h43.1z"/><path id="&lt;Path&gt;" class="s10" d="M339.1 328.5H296v-18.9h43.1z"/><g id="&lt;Group&gt;"><path id="&lt;Path&gt;" class="s9" d="M293.1 328.5H157.9v-20.9h135.2z"/><path id="&lt;Path&gt;" class="s10" d="M293.1 328.5H157.9v-20.9h135.2z"/><path id="&lt;Path&gt;" class="s9" d="M298.1 447.9h-5V306h5z"/><path id="&lt;Path&gt;" class="s15" d="M298.1 447.9h-5V306h5z"/><path id="&lt;Path&gt;" class="s9" d="M342.2 447.9h-5.1V306h5.1z"/><path id="&lt;Path&gt;" class="s15" d="M342.2 447.9h-5.1V306h5.1z"/><path id="&lt;Path&gt;" class="s9" d="M160.4 447.9h-5V306h5z"/><path id="&lt;Path&gt;" class="s15" d="M160.4 447.9h-5V306h5z"/><g id="&lt;Group&gt;"><path id="&lt;Path&gt;" class="s9" d="M343.8 309.6H150.4v-7.1h193.4z"/><path id="&lt;Path&gt;" class="s15" d="M343.8 309.6H150.4v-7.1h193.4z"/></g></g></g><g id="&lt;Group&gt;"><path id="&lt;Path&gt;" class="s7" d="M281.9 302.7h-55.5v-1.9h55.5z"/><path id="&lt;Path&gt;" class="s15" d="M281.9 302.7h-55.5v-1.9h55.5z"/></g></g></g></svg>