<svg version="1.2" xmlns="http://www.w3.org/2000/svg" viewBox="0 0 500 500" width="500" height="500">
	<title>aplication-exam-svg</title>
	<style>
		.s0 { fill: #e0e0e0 } 
		.s1 { fill: #fafafa } 
		.s2 { fill: #f0f0f0 } 
		.s3 { fill: #e6e6e6 } 
		.s4 { fill: #ebebeb } 
		.s5 { fill: #f5f5f5 } 
		.s6 { opacity: .2;fill: #000000 } 
		.s7 { fill: #407bff } 
		.s8 { opacity: .8;fill: #ffffff } 
		.s9 { fill: #263238 } 
		.s10 { opacity: .4;fill: #ffffff } 
		.s11 { opacity: .7;fill: #ffffff } 
		.s12 { opacity: .2;fill: #ffffff } 
		.s13 { opacity: .6;fill: #ffffff } 
		.s14 { fill: #ffffff } 
		.s15 { opacity: .5;fill: #ffffff } 
		.s16 { fill: none;stroke: #407bff;stroke-miterlimit:10;stroke-width: .8 } 
		.s17 { fill: none;stroke: #263238;stroke-miterlimit:10;stroke-width: .4 } 
		.s18 { fill: none;stroke: #407bff;stroke-linecap: round;stroke-linejoin: round;stroke-width: .5 } 
		.s19 { fill: none;stroke: #407bff;stroke-miterlimit:10;stroke-width: .5 } 
		.s20 { opacity: .3;fill: #000000 } 
		.s21 { fill: #000000 } 
		.s22 { fill: none;stroke: #000000;stroke-linecap: round;stroke-linejoin: round } 
		.s23 { fill: #e4897b } 
		.s24 { opacity: .2;fill: none;stroke: #000000;stroke-linecap: round;stroke-linejoin: round;stroke-width: .5 } 
		.s25 { fill: #a24e3f } 
		.s26 { fill: none;stroke: #263238;stroke-linecap: round;stroke-linejoin: round;stroke-width: .8 } 
		.s27 { fill: none;stroke: #ffffff;stroke-linecap: round;stroke-linejoin: round;stroke-width: .5 } 
		.s28 { fill: none;stroke: #263238;stroke-linecap: round;stroke-linejoin: round;stroke-width: 3 } 
		.s29 { opacity: .5;fill: none;stroke: #ffffff;stroke-linecap: round;stroke-linejoin: round;stroke-width: 3 } 
	</style>
	<g id="Background complete">
		<g id="&lt;Group&gt;">
			<path id="&lt;Path&gt;" class="s0" d="m302.3 81.1l129.4 36.1-25.8 92.6-129.5-36.1z"/>
			<path id="&lt;Path&gt;" class="s1" d="m341.3 191.3l26.3-94.4c0 0 18.1-1.1 62.2 11.2l-27.9 100.1z"/>
			<path id="&lt;Path&gt;" class="s2" d="m341.3 191.3l26.3-94.4c0 0-14.9-10.3-59-22.7l-27.9 100.2z"/>
			<path id="&lt;Path&gt;" class="s2" d="m369.6 108c-0.4-0.1-0.7-0.6-0.6-1 0-0.5 0.5-0.9 1-0.9 17.2 2.2 34.2 5.6 50.9 10.2 0.5 0.2 0.8 0.8 0.6 1.2-0.2 0.5-0.6 0.7-1.1 0.6-16.6-4.6-33.5-7.9-50.6-10.1q-0.1 0-0.2 0z"/>
			<path id="&lt;Path&gt;" class="s2" d="m367.7 114.8c-0.4-0.2-0.7-0.6-0.6-1.1 0.1-0.5 0.5-0.8 1-0.8 0.3 0.1 26.3 3.7 50.8 10.5 0.5 0.2 0.7 0.8 0.5 1.3-0.1 0.4-0.5 0.6-1 0.6-24.4-6.8-50.3-10.5-50.6-10.5q0 0-0.1 0z"/>
			<path id="&lt;Path&gt;" class="s2" d="m365.8 121.6c-0.4-0.2-0.7-0.6-0.6-1.1 0.1-0.5 0.5-0.9 1-0.8 0.3 0.1 28.7 4.7 50.8 10.9 0.4 0.2 0.7 0.7 0.5 1.2-0.2 0.4-0.6 0.6-1.1 0.6-21.9-6.1-50.2-10.8-50.5-10.8z"/>
			<path id="&lt;Path&gt;" class="s2" d="m363.9 128.3c-0.4-0.1-0.7-0.6-0.6-1 0.1-0.5 0.6-0.9 1.1-0.8 0.3 0.1 31 5.7 50.6 11.2 0.4 0.2 0.7 0.7 0.5 1.2-0.2 0.4-0.6 0.7-1 0.6-19.6-5.4-50.2-11.1-50.5-11.2z"/>
			<path id="&lt;Path&gt;" class="s2" d="m362 135.1c-0.4-0.1-0.7-0.6-0.6-1.1 0.1-0.5 0.6-0.8 1.1-0.7 0.3 0 33.3 6.7 50.5 11.5 0.5 0.2 0.7 0.7 0.5 1.2-0.1 0.5-0.6 0.7-1 0.6-17.1-4.7-50.1-11.4-50.4-11.5z"/>
			<path id="&lt;Path&gt;" class="s2" d="m360.2 141.9c-0.5-0.1-0.8-0.6-0.7-1.1 0.1-0.5 0.6-0.8 1.1-0.7 0.4 0 35.7 7.7 50.4 11.8 0.5 0.2 0.7 0.8 0.5 1.2-0.1 0.5-0.6 0.7-1 0.6-14.7-4-49.9-11.7-50.3-11.8z"/>
			<path id="&lt;Path&gt;" class="s2" d="m358.3 148.7c-0.5-0.2-0.8-0.8-0.6-1.3 0.2-0.4 0.6-0.6 1-0.5 0.4 0 38.1 8.7 50.3 12.1 0.5 0.2 0.7 0.8 0.6 1.3-0.2 0.4-0.7 0.7-1.1 0.6-12.2-3.4-49.8-12.1-50.2-12.2z"/>
			<path id="&lt;Path&gt;" class="s2" d="m356.4 155.5c-0.5-0.2-0.8-0.8-0.6-1.3 0.2-0.4 0.6-0.6 1-0.6 0.4 0.1 40.4 9.8 50.2 12.6 0.5 0.2 0.8 0.7 0.6 1.2-0.2 0.4-0.6 0.7-1.1 0.6-9.8-2.7-49.7-12.4-50.1-12.5z"/>
			<path id="&lt;Path&gt;" class="s2" d="m354.5 162.2c-0.5-0.1-0.8-0.7-0.6-1.2 0.2-0.4 0.6-0.7 1.1-0.6 0.4 0.1 42.7 10.8 50 12.9 0.5 0.2 0.7 0.7 0.5 1.2-0.1 0.4-0.6 0.7-1 0.6-7.3-2-49.6-12.7-50-12.9z"/>
			<path id="&lt;Path&gt;" class="s2" d="m352.6 169c-0.5-0.2-0.8-0.7-0.6-1.2 0.2-0.4 0.6-0.7 1.1-0.6 0.4 0.1 45.1 11.8 50 13.2 0.4 0.2 0.7 0.8 0.5 1.3-0.2 0.4-0.6 0.6-1.1 0.5-4.8-1.3-49.4-13-49.9-13.2z"/>
			<path id="&lt;Path&gt;" class="s2" d="m350.7 175.8c-0.5-0.2-0.7-0.8-0.5-1.2 0.1-0.4 0.6-0.7 1-0.6 0.5 0.1 47.4 12.9 49.9 13.5 0.4 0.2 0.7 0.8 0.5 1.3-0.2 0.4-0.6 0.6-1.1 0.6-2.4-0.7-49.3-13.5-49.8-13.6z"/>
			<path id="&lt;Path&gt;" class="s2" d="m398.6 196.5l-49.8-13.9c-0.5-0.2-0.7-0.8-0.5-1.3 0.2-0.4 0.6-0.6 1-0.5l49.8 13.9c0.5 0.2 0.7 0.7 0.5 1.2-0.2 0.4-0.6 0.6-1 0.6z"/>
			<path id="&lt;Path&gt;" class="s3" d="m360.2 105.4c0.4 0.1 0.9-0.2 1-0.6 0.2-0.4 0.1-1-0.4-1.2-15.8-7.1-32.1-13-48.8-17.7-0.5-0.1-1 0.3-1.1 0.8-0.1 0.4 0.1 0.9 0.6 1 16.6 4.7 32.8 10.6 48.5 17.6q0.1 0 0.2 0.1z"/>
			<path id="&lt;Path&gt;" class="s3" d="m358.3 112.1c0.4 0.2 0.9-0.1 1-0.5 0.3-0.5 0.1-1-0.4-1.2-0.2-0.2-24.4-10.5-48.9-17.4-0.5 0-1 0.3-1.1 0.8-0.1 0.5 0.2 0.9 0.6 1.1 24.4 6.8 48.4 17.1 48.7 17.2q0 0 0.1 0z"/>
			<path id="&lt;Path&gt;" class="s3" d="m356.4 118.9c0.4 0.1 0.9-0.1 1.1-0.6 0.2-0.4-0.1-1-0.5-1.2-0.3-0.1-27-10.8-49-16.9-0.5-0.1-1 0.2-1.1 0.8-0.1 0.4 0.2 0.8 0.6 1 21.9 6.1 48.5 16.8 48.8 16.9z"/>
			<path id="&lt;Path&gt;" class="s3" d="m354.5 125.7c0.5 0.1 0.9-0.1 1.1-0.6 0.2-0.5-0.1-1-0.5-1.2-0.3-0.1-29.5-11.2-49.1-16.6-0.5-0.1-1 0.3-1.1 0.8 0 0.4 0.2 0.8 0.6 1 19.5 5.4 48.6 16.5 48.9 16.6z"/>
			<path id="&lt;Path&gt;" class="s3" d="m352.6 132.5c0.5 0.1 0.9-0.2 1.1-0.6 0.2-0.5-0.1-1-0.5-1.2-0.3-0.1-32-11.5-49.2-16.3-0.5-0.1-1 0.2-1.1 0.8-0.1 0.4 0.2 0.9 0.6 1 17.1 4.8 48.7 16.2 49.1 16.3z"/>
			<path id="&lt;Path&gt;" class="s3" d="m350.7 139.3c0.5 0.1 1-0.2 1.1-0.7 0.2-0.4-0.1-1-0.5-1.1-0.4-0.2-34.6-11.9-49.3-16-0.5-0.1-1 0.3-1.1 0.8-0.1 0.4 0.2 0.9 0.6 1 14.7 4.1 48.8 15.8 49.2 16z"/>
			<path id="&lt;Path&gt;" class="s3" d="m348.8 146.1c0.5 0 1-0.3 1.1-0.8 0.1-0.5-0.1-0.9-0.5-1.1-0.4-0.1-37.1-12.1-49.4-15.6-0.5-0.1-1 0.3-1.1 0.8 0 0.5 0.2 0.9 0.6 1.1 12.2 3.4 48.9 15.4 49.3 15.5z"/>
			<path id="&lt;Path&gt;" class="s3" d="m346.9 152.8c0.6 0.1 1-0.2 1.1-0.8 0.1-0.4-0.1-0.8-0.5-1-0.4-0.1-39.7-12.5-49.4-15.2-0.6-0.1-1.1 0.2-1.1 0.7-0.1 0.5 0.1 0.9 0.5 1.1 9.8 2.7 49 15.1 49.4 15.2z"/>
			<path id="&lt;Path&gt;" class="s3" d="m345 159.6c0.6 0.1 1.1-0.2 1.2-0.7 0-0.5-0.2-0.9-0.6-1.1-0.5-0.1-42.2-12.9-49.5-14.9-0.5-0.1-1 0.3-1.1 0.8-0.1 0.4 0.2 0.8 0.6 1 7.3 2.1 49 14.8 49.4 14.9z"/>
			<path id="&lt;Path&gt;" class="s3" d="m343.1 166.4c0.6 0.1 1.1-0.2 1.2-0.8 0-0.4-0.2-0.9-0.6-1-0.5-0.2-44.7-13.2-49.6-14.6-0.5-0.1-1 0.3-1.1 0.8-0.1 0.4 0.2 0.9 0.6 1 4.8 1.4 49.1 14.5 49.5 14.6z"/>
			<path id="&lt;Path&gt;" class="s3" d="m341.3 173.2c0.5 0.1 1-0.3 1-0.8 0.1-0.5-0.1-0.9-0.5-1-0.5-0.2-47.3-13.6-49.7-14.3-0.5 0-1 0.3-1.1 0.8-0.1 0.5 0.2 0.9 0.6 1.1 2.4 0.6 49.2 14 49.6 14.2z"/>
			<path id="&lt;Path&gt;" class="s3" d="m289.6 166.1l49.8 13.9c0.5 0 1-0.3 1-0.8 0.1-0.5-0.1-0.9-0.5-1.1l-49.8-13.8c-0.5-0.1-1 0.2-1.1 0.8 0 0.4 0.2 0.8 0.6 1z"/>
			<path id="&lt;Path&gt;" class="s0" d="m364 130.9l-1.9-3.7-3.7 2.1 9.4-33.3 5.8 0.4z"/>
			<path id="&lt;Path&gt;" class="s0" d="m368 147.9c-0.2 0-0.2-0.3-0.2-0.8 0-0.1 0.1-0.1 0.2-0.1 0.1 0 0.2 0 0.2 0.1 0.1-0.2 0.2-0.5 0.3-0.8q1-2.6 2.2-5c0.9-1.7 1.8-2.6 2.6-2.6 0.5 0.1 0.9 0.3 1.1 0.7 0.1 0.1 0 0.2 0 0.3-0.1 0.1-0.3 0-0.3-0.1-0.2-0.3-0.4-0.5-0.8-0.5-0.4 0-1.2 0.4-2.2 2.4q-1.3 2.4-2.2 4.9c-0.5 1.3-0.6 1.6-0.9 1.5z"/>
			<path id="&lt;Path&gt;" class="s0" d="m368.9 142.7c-0.1 0-0.2-0.1-0.2-0.2 0-0.1 0.1-0.1 0.2-0.1l3.4-0.4c0.1 0 0.2 0 0.2 0.1 0 0.1 0 0.2-0.2 0.2l-3.3 0.4q-0.1 0.1-0.1 0z"/>
			<path id="&lt;Path&gt;" class="s0" d="m374.6 147.2q0-0.1-0.1-0.1c-2.3-2.4 0.6-5.8 0.6-5.9q0.1 0 0.3 0c0 0.1 0.1 0.2 0 0.3-0.1 0.1-2.7 3.1-0.6 5.3q0.2 0.2 0 0.3-0.1 0.1-0.2 0.1z"/>
			<path id="&lt;Path&gt;" class="s0" d="m377.7 146.8c-0.1 0-0.2-0.1-0.1-0.2q0-0.1 0-0.1c2.7-2.9 0.5-5.2 0.4-5.3q-0.2-0.1 0-0.3c0-0.1 0.1-0.1 0.2 0 0.1 0 2.6 2.7-0.3 5.8q-0.1 0.1-0.2 0.1z"/>
			<path id="&lt;Path&gt;" class="s0" d="m377.1 145.1q-0.1 0-0.1 0l-1.7-2.2q-0.2-0.1 0-0.3c0.1 0 0.2 0 0.3 0.1l1.7 2.1c0 0.1 0 0.2-0.1 0.3q0 0.1-0.1 0z"/>
			<path id="&lt;Path&gt;" class="s0" d="m374.8 145q0-0.1-0.1-0.1 0-0.1 0-0.3l2.5-2.2c0 0 0.1 0 0.2 0q0.1 0.1 0 0.3l-2.4 2.2q-0.1 0.1-0.2 0.1z"/>
			<path id="&lt;Path&gt;" class="s0" d="m291.7 155.1c-0.1 0-0.2-0.2-0.2-0.3 0.3-1.1 1-2.1 2-2.6 2-1.1 4.5-0.4 4.6-0.4 0.1 0.1 0.1 0.2 0.1 0.3 0 0.1-0.1 0.1-0.2 0.1 0 0-2.5-0.7-4.3 0.3-0.9 0.5-1.6 1.4-1.8 2.4 0 0.2-0.1 0.2-0.2 0.2z"/>
			<path id="&lt;Path&gt;" class="s0" d="m295.6 156.8q0-0.1-0.1-0.1-0.1-0.2 0-0.4 0.2-0.6 0.7-0.9c-0.9 0.2-1.9 0.1-2.3-0.3-0.2-0.2-0.3-0.5 0-1.1 0.3-0.6 1.1-1 1.8-0.7 0.7 0.2 1.3 0.9 1.3 1.4 0 0.1-0.1 0.1-0.2 0.1-0.1 0-0.2-0.1-0.2-0.2 0-0.2-0.4-0.8-1-0.9-0.6-0.2-1.1 0-1.4 0.5-0.2 0.4-0.1 0.6 0 0.6 0.5 0.5 2.3 0.3 3-0.1 0.1 0 0.2 0 0.3 0.1 0 0.1 0 0.2-0.1 0.2q0 0 0 0.1c-0.6 0.3-1.5 0.9-1.6 1.3 0.1 0.1 0.1 0.3 0 0.3q-0.1 0.1-0.2 0.1z"/>
			<path id="&lt;Path&gt;" class="s0" d="m295.2 157.8q-0.2-0.1-0.4-0.3-0.2-0.1 0-0.3c0-0.1 0.2-0.1 0.2 0 0.5 0.5 1.3 0 1.3-0.1 0.1 0 0.2 0 0.3 0.1 0 0.1 0 0.2-0.1 0.3-0.3 0.2-0.8 0.3-1.3 0.3z"/>
			<path id="&lt;Path&gt;" class="s0" d="m298.8 159.8c-0.4-0.2-0.8-0.5-1-0.9q-0.2-0.2 0-0.3c0.1-0.1 0.2 0 0.3 0.1 0.2 0.5 0.7 0.8 1.3 0.8 0.4-0.1 0.7-0.3 0.9-0.7 0.1-0.2 0-0.5-0.2-0.7-0.7-0.7-2.6 0.1-3.2 0.5-0.1 0-0.2 0-0.3-0.1q0 0 0-0.1 0-0.1 0.1-0.1l4.9-2.9c0.1 0 0.2 0 0.2 0.1q0.2 0.1 0 0.3l-3 1.7c0.5-0.2 1.1 0 1.5 0.3 0.3 0.3 0.5 0.7 0.3 1.2-0.2 0.5-0.7 0.8-1.2 0.8q-0.3 0.1-0.6 0z"/>
			<path id="&lt;Path&gt;" class="s0" d="m297.7 161c-0.1 0-0.1-0.1-0.1-0.2 0-0.1 0.1-0.2 0.2-0.2q2.4 0.6 3.8-0.4c1.4-1.1 1.5-3 1.5-3 0-0.1 0.1-0.2 0.2-0.2 0.1 0 0.2 0.1 0.2 0.2 0 0.1-0.1 2.1-1.7 3.3-1 0.7-2.4 0.9-4.1 0.5z"/>
			<g id="&lt;Group&gt;">
				<path id="&lt;Path&gt;" class="s0" d="m399.5 119.1q-0.1-0.1-0.1-0.2l1.1-4-1.6-0.8c-0.1 0-0.2-0.1-0.1-0.2 0-0.1 0.1-0.2 0.2-0.1l1.8 0.8q0.1 0.1 0.1 0.2l-1 3.5 5.6-5.7q0.1-0.1 0.2 0l6.1 2.8c0.1 0 0.1 0.1 0.1 0.2-0.1 0.1-0.2 0.2-0.3 0.1l-5.9-2.7-6 6.1q-0.1 0.1-0.2 0z"/>
				<path id="&lt;Path&gt;" class="s0" d="m406.8 122q-0.1 0-0.1-0.1l-1.4-5.7c-0.1-0.1 0-0.2 0.1-0.2 0.1-0.1 0.2 0 0.2 0.1l1.5 5.7c0 0.1-0.1 0.2-0.2 0.2q0 0.1-0.1 0z"/>
				<path id="&lt;Path&gt;" class="s0" d="m402.7 120.1q-0.1 0-0.1-0.1c0-0.1 0-0.2 0.1-0.2l6-2.3c0.1 0 0.2 0 0.3 0.1 0 0.1 0 0.2-0.1 0.3l-6 2.2q-0.1 0.1-0.2 0z"/>
			</g>
			<path id="&lt;Path&gt;" class="s0" d="m383.9 109.1h-0.1c-0.2-0.1-0.6-0.4-0.6-1.1 0-0.8 0.6-1.6 1.4-1.7 0.9-0.2 1.9 0.1 2.1 0.6 0 0.1 0 0.2-0.1 0.3-0.1 0-0.2 0-0.2-0.1-0.2-0.3-0.9-0.6-1.7-0.4-0.7 0-1.2 0.6-1.1 1.3 0 0.6 0.3 0.7 0.4 0.7 0.7 0.3 2.4-1 3-1.8 0.1-0.1 0.2-0.1 0.3-0.1q0.1 0.1 0 0.3c-0.4 0.6-1 1.8-0.9 2.2q0.1 0.1 0.1 0.1c0.1 0.1 0.2 0.2 0.1 0.3 0 0.1-0.2 0.1-0.3 0.1q-0.2-0.1-0.2-0.4-0.1-0.7 0.3-1.3c-0.8 0.6-1.9 1.2-2.5 1z"/>
			<path id="&lt;Compound Path&gt;" class="s0" d="m387.9 107.8q0 0-0.1 0c0-0.1-0.1-0.2 0-0.3l1.2-2c0-0.1 0.2-0.1 0.3 0 0 0 0.1 0.1 0 0.2l-0.5 0.9q0.2-0.1 0.3 0c0.2 0 0.4 0.2 0.5 0.4 0 0.3-0.1 0.6-0.4 0.7q-0.5 0.3-0.9 0-0.1-0.1-0.1-0.2 0 0.1-0.1 0.2-0.1 0.1-0.2 0.1zm0.6-0.5c0.2 0.1 0.4 0.2 0.5 0.1q0.2-0.1 0.2-0.3c0-0.1 0-0.1-0.2-0.2-0.1 0-0.4 0.2-0.6 0.4q0 0 0.1 0z"/>
			<path id="&lt;Path&gt;" class="s0" d="m334.4 177.2q-0.2-0.1-0.3-0.4 0-0.7 0.3-1.3c-0.8 0.6-1.8 1.2-2.5 1-0.3-0.1-0.6-0.4-0.6-1.1-0.1-0.8 0.5-1.6 1.4-1.7 0.8-0.2 1.8 0.1 2 0.6q0.1 0.1 0 0.3c-0.1 0-0.2 0-0.3-0.1-0.1-0.3-0.9-0.6-1.7-0.4-0.6 0-1.1 0.6-1.1 1.3 0 0.6 0.3 0.7 0.4 0.7 0.8 0.2 2.5-1 3-1.8 0.1-0.1 0.2-0.1 0.3-0.1 0.1 0.1 0.1 0.2 0.1 0.3-0.4 0.6-1 1.8-0.9 2.2q0 0.1 0.1 0.1c0.1 0.1 0.1 0.2 0.1 0.3-0.1 0.1-0.2 0.1-0.3 0.1z"/>
			<path id="&lt;Compound Path&gt;" class="s0" d="m335.9 175.2c-0.1-0.1-0.1-0.2-0.1-0.3l1.2-2q0.2-0.1 0.3 0c0.1 0 0.1 0.1 0.1 0.2l-0.6 0.9q0.2-0.1 0.4 0c0.2 0 0.4 0.2 0.4 0.4 0 0.3-0.1 0.6-0.3 0.7-0.3 0.2-0.7 0.2-0.9 0q-0.1-0.1-0.1-0.2-0.1 0.1-0.1 0.2-0.1 0.1-0.3 0.1zm0.6-0.5h0.1c0.1 0.2 0.3 0.2 0.5 0.1q0.1-0.1 0.1-0.3c0 0 0-0.1-0.1-0.2-0.2 0-0.5 0.2-0.7 0.4q0.1 0 0.1 0z"/>
			<path id="&lt;Path&gt;" class="s0" d="m300.5 126.2q0 0-0.1-0.1l-1.9-3.8q-0.1-0.1 0-0.2l2.6-4.2c0-0.1 0.1-0.2 0.2-0.1 0.1 0 0.2 0.2 0.1 0.3l-2.5 4.1 1.9 3.8c0 0.1 0 0.2-0.1 0.2q-0.1 0-0.1 0z"/>
			<path id="&lt;Path&gt;" class="s0" d="m304.7 124q-0.1 0-0.1-0.1l-2.5-3.5c0-0.1 0-0.2 0.1-0.3 0.1-0.1 0.2 0 0.3 0l2.4 3.6c0.1 0.1 0 0.2 0 0.3q-0.1 0-0.2 0z"/>
			<path id="&lt;Path&gt;" class="s0" d="m302.3 123.4q0 0-0.1 0-0.2-0.2 0-0.3l2.3-3q0.1-0.1 0.3 0 0.2 0.1 0 0.3l-2.3 3q-0.1 0-0.2 0z"/>
			<path id="&lt;Path&gt;" class="s0" d="m305.4 125c-0.1 0-0.2-0.1-0.2-0.2 0-0.1 0.1-0.2 0.2-0.2 0.2 0 0.4-0.5 0.5-0.8 0-0.1 0.2-0.2 0.3-0.2 0 0.1 0.1 0.1 0.1 0.3-0.1 0.1-0.3 1.1-0.9 1.1z"/>
			<path id="&lt;Path&gt;" class="s0" d="m308.9 122.7q0 0-0.1 0l-1.5-2c-0.1-0.1 0-0.2 0-0.3 0.1-0.1 0.2 0 0.3 0l1.5 2q0.2 0.2 0 0.3-0.1 0-0.2 0z"/>
			<path id="&lt;Path&gt;" class="s0" d="m306.6 126.6q-0.1 0-0.1 0c-0.1 0-0.1-0.2-0.1-0.2l3.9-6.4c0-0.1 0.1-0.1 0.2 0 0.1 0 0.2 0.1 0.1 0.2l-3.8 6.3q-0.1 0.2-0.2 0.1z"/>
			<path id="&lt;Path&gt;" class="s0" d="m310.9 125.8q-0.1 0-0.1 0-0.2-0.2 0-0.3l2.3-3.4-2.1-4.2c0-0.1 0-0.2 0.1-0.3 0.1 0 0.2 0 0.2 0.1l2.2 4.4q0 0.1-0.1 0.1l-2.4 3.5q0 0.1-0.1 0.1z"/>
			<path id="&lt;Compound Path&gt;" class="s0" d="m393.6 157.1q0 0-0.1-0.1-0.1-0.1 0-0.2l8.2-12.1c0.1 0 0.2-0.1 0.3 0q0 0 0 0.1l3.8 7.5q0 0.1 0 0.2-0.1 0.1-0.1 0.1l-12 4.5q0 0-0.1 0zm8.2-11.9l-7.7 11.3 11.2-4.2z"/>
			<path id="&lt;Path&gt;" class="s0" d="m403.9 153.2q0 0-0.1-0.1l-0.8-1.6q0-0.1 0-0.2 0.1 0 0.1-0.1l1.5-0.7c0.1 0 0.3 0 0.3 0.1 0 0.1 0 0.2-0.1 0.2l-1.3 0.7 0.6 1.4q0.2 0.1 0 0.3-0.1 0-0.2 0z"/>
			<path id="&lt;Compound Path&gt;" class="s0" d="m332.3 104.5c-2.6-0.8-4.1-3.5-3.4-6.1 0.7-2.6 3.4-4.2 6.1-3.4 2.6 0.7 4.1 3.4 3.4 6-0.8 2.7-3.5 4.2-6.1 3.5zm2.6-9.2c-2.5-0.6-5 0.8-5.6 3.2-0.7 2.4 0.7 4.9 3.1 5.6 2.4 0.7 4.9-0.7 5.6-3.2 0.7-2.4-0.7-4.9-3.2-5.6z"/>
			<path id="&lt;Compound Path&gt;" class="s0" d="m338.3 102.4c-2.9-0.8-4.6-3.8-3.7-6.7 0.8-2.9 3.8-4.6 6.7-3.8 2.9 0.8 4.5 3.8 3.7 6.7-0.8 2.9-3.8 4.6-6.7 3.8zm2.9-10.1c-2.7-0.8-5.5 0.8-6.3 3.5-0.7 2.7 0.8 5.5 3.5 6.2 2.7 0.8 5.5-0.8 6.3-3.5 0.7-2.7-0.8-5.5-3.5-6.2z"/>
			<path id="&lt;Path&gt;" class="s0" d="m334.5 97.7q0-0.1 0-0.1c-0.1 0-0.2-0.1-0.1-0.2l1.2-2c0.1-0.1 0.2-0.1 0.3-0.1q0.2 0.2 0 0.3l-1.2 2q-0.1 0.1-0.2 0.1z"/>
			<path id="&lt;Path&gt;" class="s0" d="m334.8 99q0 0-0.1 0c-0.1 0-0.1-0.1 0-0.2l1.7-2.9c0.1-0.1 0.2-0.1 0.3-0.1q0 0.1 0 0.1c0.1 0 0.1 0.1 0 0.2l-1.7 2.9q-0.1 0.1-0.2 0z"/>
			<path id="&lt;Path&gt;" class="s0" d="m335.4 100.2c-0.1-0.1-0.2-0.2-0.1-0.3l1.9-3.2c0-0.1 0.1-0.1 0.2-0.1 0.1 0.1 0.2 0.2 0.1 0.3l-1.9 3.2q-0.1 0.1-0.2 0.1z"/>
			<path id="&lt;Path&gt;" class="s0" d="m336.4 101.4c-0.1-0.1-0.1-0.2-0.1-0.3l1.6-3.1c0.1-0.1 0.2-0.1 0.3-0.1q0.2 0.2 0 0.3l-1.5 3.1q-0.1 0.1-0.2 0.1z"/>
			<path id="&lt;Path&gt;" class="s0" d="m337 101.8c-0.1 0-0.1-0.2-0.1-0.3l1.3-2.3c0 0 0.1-0.1 0.2 0 0.1 0 0.2 0.1 0.1 0.2l-1.2 2.3q-0.1 0.1-0.3 0.1z"/>
			<path id="&lt;Compound Path&gt;" class="s0" d="m330.1 94.5q-0.3-0.1-0.4-0.3c-0.4-0.4-0.3-1 0.1-1.3 0.3-0.4 0.9-0.6 1.2-0.4 0-0.1 0.1-0.2 0.2-0.2 0.1 0 0.2 0.1 0.2 0.2 0 0.6 0.2 1.1 0.3 1.2 0.1 0 0.2 0 0.2 0.2 0 0.1-0.1 0.2-0.2 0.2q-0.1 0-0.3-0.1-0.2-0.2-0.2-0.5c-0.2 0.5-0.5 0.9-0.8 1q-0.2 0.1-0.3 0zm0.7-1.7c-0.3 0-0.6 0.1-0.8 0.3q-0.3 0.4 0 0.9c0.1 0.2 0.2 0.2 0.2 0.2 0.3-0.1 0.7-0.8 0.8-1.4q-0.1 0.1-0.2 0z"/>
			<path id="&lt;Path&gt;" class="s0" d="m339.1 91.7q-0.1 0-0.2-0.1l-0.7-3.1c0-0.1 0.1-0.2 0.2-0.2 0.1-0.1 0.2 0 0.2 0.1l0.4 1.5q0.1-0.3 0.3-0.4c0.3-0.2 0.6-0.2 0.8 0 0.2 0.2 0.4 0.6 0.3 0.9-0.1 0.4-0.5 0.7-0.9 0.8-0.1 0-0.2-0.1-0.2-0.2 0-0.1 0.1-0.2 0.2-0.2 0.2 0 0.4-0.2 0.5-0.5 0.1-0.2 0-0.4-0.1-0.5-0.1-0.1-0.3-0.1-0.4 0-0.4 0.2-0.3 1.3-0.2 1.7 0 0.1 0 0.2-0.1 0.2q-0.1 0-0.1 0z"/>
			<path id="&lt;Path&gt;" class="s0" d="m338.5 133.9q-0.1 0-0.1-0.1l-1.5-2.5c-0.1-0.1 0-0.2 0.1-0.3 0.1 0 0.2 0 0.2 0.1l1.5 2.5c0.1 0.1 0 0.2 0 0.3q-0.1 0-0.2 0z"/>
			<path id="&lt;Path&gt;" class="s0" d="m336.8 133.5q-0.1 0-0.1 0-0.2-0.1 0-0.3l2.4-2.1q0.1-0.2 0.3 0 0.2 0.2 0 0.3l-2.5 2.1q-0.1 0-0.1 0z"/>
			<path id="&lt;Path&gt;" class="s0" d="m341 132.7q-0.1 0-0.1-0.1c0-0.2 0-0.2 0.2-0.3l2.2-0.1c0.1-0.1 0.2 0 0.2 0.1 0 0.1 0 0.2-0.1 0.2l-2.3 0.2z"/>
			<path id="&lt;Path&gt;" class="s0" d="m345.8 132.1q0 0-0.1-0.1l-0.9-1.4q-0.2-0.1 0-0.3 0.2 0 0.3 0 0 0.1 0 0.1l0.9 1.4q0.2 0.1 0 0.3-0.1 0-0.2 0z"/>
			<path id="&lt;Path&gt;" class="s0" d="m344.4 134.9h-0.1c-0.1 0-0.1-0.1-0.1-0.2q0 0 0.1 0l3.1-5c0-0.1 0.1-0.2 0.2-0.1 0.1 0.1 0.2 0.2 0.1 0.3l-3.1 5q-0.1 0.1-0.2 0z"/>
			<path id="&lt;Path&gt;" class="s0" d="m356.7 175.5q-0.1 0-0.1-0.1l-1.6-2.5c0-0.1 0-0.2 0.1-0.2q0.2-0.1 0.3 0l1.5 2.6c0 0 0 0.2-0.1 0.2q-0.1 0-0.1 0z"/>
			<path id="&lt;Path&gt;" class="s0" d="m354.9 175.2q-0.1-0.1-0.1-0.1-0.1-0.1 0-0.3l2.5-2.1c0.1 0 0.2 0 0.2 0.1 0.1 0 0.1 0.2 0 0.2l-2.4 2.1q-0.1 0.1-0.2 0.1z"/>
			<path id="&lt;Path&gt;" class="s0" d="m359.2 174.4c-0.1 0-0.2-0.1-0.2-0.2 0-0.1 0.1-0.2 0.2-0.2l2.3-0.2c0.1 0 0.2 0 0.2 0.1 0 0.1 0 0.2-0.1 0.3q-0.1 0-0.1 0z"/>
			<path id="&lt;Path&gt;" class="s0" d="m364 173.8q-0.1-0.1-0.1-0.1l-1-1.5c0 0 0-0.2 0.1-0.2 0.1-0.1 0.2-0.1 0.2 0l1 1.5c0 0.1 0 0.2-0.1 0.2q0 0.1-0.1 0.1z"/>
			<path id="&lt;Path&gt;" class="s0" d="m362.5 176.6c-0.1-0.1-0.2-0.2-0.1-0.3l3.1-5c0.1-0.1 0.2-0.1 0.3-0.1q0.2 0.1 0 0.3l-3.1 5q-0.1 0.1-0.2 0.1z"/>
			<path id="&lt;Path&gt;" class="s0" d="m375.6 167.6q-0.1 0-0.2-0.1-0.7-0.4-0.8-1.7c-0.2-1.8 0.8-2.6 1.4-2.9l-2.4-0.7-1.1 4c0 0.1-0.1 0.1-0.2 0.1-0.1 0-0.1-0.1-0.1-0.2l1.1-4.2c0-0.1 0.1-0.2 0.2-0.1l3.1 0.8c0.1 0.1 0.2 0.2 0.2 0.3q-0.1 0.1-0.2 0.1c0 0-1.8 0.5-1.7 2.7q0.1 1.2 0.6 1.5c0.4 0.1 0.7 0.1 1-0.1 0.1 0 0.2 0 0.3 0.1 0 0.1 0 0.2-0.1 0.3-0.4 0.1-0.7 0.2-1.1 0.1z"/>
			<g id="&lt;Group&gt;">
				<path id="&lt;Compound Path&gt;" class="s0" d="m348.9 152.2l-4.2-1.5c-0.1 0-0.1-0.1-0.1-0.2l0.8-6.3q0-0.1 0.1-0.1l4.3-1.5q0.1 0 0.1 0l4.7 1.7c0.1 0 0.1 0.1 0.1 0.2l-1.4 6.1q0 0.1-0.1 0.1l-4.2 1.5q0 0.1-0.1 0zm-3.9-1.8l4 1.4 4-1.4 1.3-5.8-4.4-1.6-4.1 1.4z"/>
				<path id="&lt;Path&gt;" class="s0" d="m344.7 150.7q-0.1 0-0.1-0.1c-0.1-0.1 0-0.2 0.1-0.2l4.1-1.6q0.1 0 0.2 0l4.2 1.5c0.1 0.1 0.1 0.2 0.1 0.3 0 0.1-0.1 0.1-0.2 0.1l-4.2-1.5-4.1 1.5q0 0-0.1 0z"/>
				<path id="&lt;Path&gt;" class="s0" d="m348.9 149.2c-0.1 0-0.2-0.1-0.2-0.2l1-6.3c0-0.1 0.1-0.1 0.2-0.1 0.1 0 0.2 0.1 0.2 0.2l-1 6.2c0 0.1-0.1 0.2-0.2 0.2z"/>
				<path id="&lt;Path&gt;" class="s0" d="m350.1 146.3l-4.6-1.9c-0.1 0-0.1-0.1-0.1-0.2 0-0.1 0.2-0.2 0.3-0.1l4.5 1.8 4.2-1.6c0.1-0.1 0.2 0 0.3 0.1 0 0.1 0 0.2-0.1 0.2l-4.4 1.7q0 0-0.1 0z"/>
				<path id="&lt;Path&gt;" class="s0" d="m348.9 152.2c-0.1 0-0.1-0.1-0.1-0.2l1.2-5.9c0-0.1 0.1-0.2 0.2-0.2 0.1 0 0.2 0.1 0.2 0.2l-1.3 6c0 0.1-0.1 0.2-0.2 0.1z"/>
			</g>
			<path id="&lt;Compound Path&gt;" class="s0" d="m320.9 158.8q-0.1 0-0.1-0.1-0.1 0 0-0.1l2.3-8q0.1-0.1 0.2-0.2 0.1 0 0.2 0.1l5.5 6.7q0.1 0.1 0 0.2 0 0.1-0.1 0.2l-7.9 1.2q-0.1 0-0.1 0zm2.5-7.8l-2.2 7.4 7.3-1.1z"/>
			<path id="&lt;Path&gt;" class="s0" d="m324.8 158.1q-0.1 0-0.1-0.1l-1.6-7.3c0-0.1 0.1-0.2 0.2-0.2 0.1-0.1 0.2 0 0.2 0.1l1.6 7.3c0 0.1-0.1 0.2-0.2 0.3q0 0-0.1-0.1z"/>
			<path id="&lt;Path&gt;" class="s0" d="m325.8 158.1q-0.2-0.1-0.2-0.2l-0.2-1.1-0.7 0.2c-0.1 0-0.2-0.1-0.2-0.2-0.1-0.1 0-0.2 0.1-0.2l0.9-0.2c0.1 0 0.2 0.1 0.3 0.2l0.2 1.2c0 0.1 0 0.2-0.1 0.3q-0.1 0-0.1 0z"/>
			<path id="&lt;Path&gt;" class="s0" d="m392.6 178.4q0 0-0.1-0.1l-2-3.9q-0.2-0.1 0-0.3c0.1 0 0.2 0 0.3 0.1l2.1 4c0 0 0 0.2-0.1 0.2q-0.1 0.1-0.2 0z"/>
			<path id="&lt;Path&gt;" class="s0" d="m390.3 177.6q-0.1-0.1-0.1-0.1-0.2-0.1 0-0.3l3.4-2.6c0.1-0.1 0.2-0.1 0.2 0q0.1 0.1 0 0.3l-3.4 2.6q0 0.1-0.1 0.1z"/>
			<path id="&lt;Path&gt;" class="s0" d="m396.2 176l-1.7-0.4q-0.1-0.1-0.1-0.2 0-0.1 0.1-0.2c0.4-0.1 1.3-0.6 1.4-1.1q0-0.2-0.1-0.4-0.2-0.1-0.4-0.1c-0.1 0-0.2-0.1-0.2-0.2-0.1-0.1 0-0.2 0.1-0.2q0.4 0 0.7 0.2c0.2 0.2 0.3 0.5 0.2 0.7 0 0.6-0.6 1-1.1 1.3l1.2 0.3c0.1 0 0.1 0.1 0.1 0.2 0 0.1-0.1 0.2-0.2 0.1z"/>
			<path id="&lt;Path&gt;" class="s0" d="m316.2 92.4q-0.1 0-0.1 0l-2-4c-0.1-0.1-0.1-0.2 0-0.2 0.1-0.1 0.2 0 0.3 0.1l2 3.9c0.1 0.1 0.1 0.2 0 0.2q-0.1 0.1-0.2 0z"/>
			<path id="&lt;Path&gt;" class="s0" d="m313.9 91.6q-0.1 0-0.1-0.1c-0.1-0.1-0.1-0.2 0-0.2l3.4-2.7c0-0.1 0.2-0.1 0.2 0q0.1 0.2 0 0.3l-3.4 2.7q-0.1 0-0.1 0z"/>
			<path id="&lt;Path&gt;" class="s0" d="m319.8 90.1l-1.7-0.5c-0.1 0-0.1-0.1-0.1-0.2q0-0.1 0.1-0.1c0.4-0.2 1.3-0.7 1.3-1.2q0.1-0.2-0.1-0.4-0.1-0.1-0.4-0.1c-0.1 0-0.2 0-0.2-0.1 0-0.1 0.1-0.2 0.2-0.2q0.4-0.1 0.7 0.2c0.2 0.2 0.2 0.4 0.2 0.6 0 0.6-0.7 1-1.1 1.3l1.1 0.3c0.1 0 0.2 0.1 0.2 0.2-0.1 0.1-0.2 0.2-0.2 0.2z"/>
		</g>
		<g id="&lt;Group&gt;">
			<g id="&lt;Group&gt;">
				<g id="&lt;Group&gt;">
					<g id="&lt;Group&gt;">
						<g id="&lt;Group&gt;">
						</g>
					</g>
					<g id="&lt;Group&gt;">
						<g id="&lt;Group&gt;">
						</g>
					</g>
				</g>
				<g id="&lt;Group&gt;">
					<g id="&lt;Group&gt;">
						<path id="&lt;Path&gt;" class="s0" d="m500 381.2h-500v-0.2h500z"/>
					</g>
				</g>
			</g>
			<path id="&lt;Path&gt;" class="s0" d="m51.7 395.2h16v0.3h-16z"/>
			<path id="&lt;Path&gt;" class="s0" d="m170.4 392.5h53.5v0.3h-53.5z"/>
			<path id="&lt;Path&gt;" class="s0" d="m68.7 404.5h36.3v0.3h-36.3z"/>
			<path id="&lt;Path&gt;" class="s0" d="m378.4 392.4h43.1v0.2h-43.1z"/>
			<path id="&lt;Path&gt;" class="s0" d="m430.5 392.4h6.3v0.2h-6.3z"/>
			<path id="&lt;Path&gt;" class="s0" d="m316.2 398.6h53.9v0.3h-53.9z"/>
		</g>
		<g id="&lt;Group&gt;">
			<g id="&lt;Group&gt;">
				<g id="&lt;Group&gt;">
					<path id="&lt;Path&gt;" class="s0" d="m82 418.5c0-0.5-1.9-56.5-11-65.3-8.8-8.6-19-0.4-19.4 0l-0.9-1.1c0.1-0.1 11.5-9.5 21.3 0 9.5 9.3 11.4 64.1 11.5 66.4z"/>
				</g>
				<g id="&lt;Group&gt;">
					<path id="&lt;Path&gt;" class="s0" d="m82.8 429.5c-0.1-0.6-6.2-67.1 18.1-95l1.1 0.9c-23.9 27.4-17.8 93.3-17.8 94z"/>
				</g>
				<g id="&lt;Group&gt;">
					<path id="&lt;Path&gt;" class="s0" d="m81.9 422.5l-1.4-0.1c0-0.7 4.7-75.6-13.1-92l1-1.1c18.3 16.9 13.7 90.1 13.5 93.2z"/>
				</g>
				<g id="&lt;Group&gt;">
					<path id="&lt;Path&gt;" class="s0" d="m84.2 422.5l-1.4-0.1c0-2 0.6-50.5 14.4-58.4 3-1.8 6-2.1 8.9-0.9 8.3 3.5 12.5 18.3 12.6 18.9l-1.4 0.4c0-0.2-4.1-14.8-11.8-18-2.4-1-5-0.7-7.6 0.8-13.1 7.5-13.7 56.8-13.7 57.3z"/>
				</g>
				<g id="&lt;Group&gt;">
					<path id="&lt;Path&gt;" class="s0" d="m78.9 422.5l-1.5-0.1c0.1-0.4 2.1-38.3-8.1-51.7-2.5-3.2-5.2-4.8-8-4.6-6.7 0.5-12.4 10.3-12.4 10.4l-1.3-0.7c0.3-0.4 6.1-10.6 13.6-11.1 3.3-0.2 6.4 1.5 9.2 5.1 10.6 13.8 8.6 51.1 8.5 52.7z"/>
				</g>
				<g id="&lt;Group&gt;">
					<path id="&lt;Path&gt;" class="s0" d="m81.1 427.7c-0.3-3.7-6.7-90.4 4.6-105.6l1.2 0.8c-11 14.8-4.4 103.8-4.4 104.6z"/>
				</g>
			</g>
			<g id="&lt;Group&gt;">
				<path id="&lt;Path&gt;" class="s4" d="m109.2 371.9c0 0-6.8 2.5-4.8 8.4 2 5.9 23.4 15.6 23.4 15.6 0 0 9-8.2 0.8-21.6-8.3-13.4-19.3-6.6-19.4-2.4z"/>
			</g>
			<g id="&lt;Group&gt;">
				<path id="&lt;Path&gt;" class="s4" d="m79.7 360.7c0 0 7.2-0.3 7.6 5.9 0.4 6.2-15.6 23.4-15.6 23.4 0 0-11.4-4.1-9-19.6 2.5-15.6 15.2-13.5 17-9.7z"/>
			</g>
			<g id="&lt;Group&gt;">
				<path id="&lt;Path&gt;" class="s4" d="m73.6 330.9c0 0 4.8-0.5 4.4-3.4-0.4-3-18.7-10.5-29.5 1.7 0 0 7 11.9 17 12 9.9 0.2 8.1-10.3 8.1-10.3z"/>
			</g>
			<g id="&lt;Group&gt;">
				<path id="&lt;Path&gt;" class="s4" d="m82.6 323.8c0 0-4.4 2.1-5.6-0.6-1.2-2.7 10.3-18.7 25.9-14.1 0 0 0.5 13.7-7.9 19.1-8.5 5.5-12.4-4.4-12.4-4.4z"/>
			</g>
			<g id="&lt;Group&gt;">
				<path id="&lt;Path&gt;" class="s4" d="m59.8 369.5c0 0 3.3-2.7-0.3-4-3.5-1.3-21.1-0.9-21.3 16.5 0 0 20.5 3.4 23-3.2 2.5-6.7-1.4-9.3-1.4-9.3z"/>
			</g>
			<g id="&lt;Group&gt;">
				<path id="&lt;Path&gt;" class="s4" d="m101.5 330.5c0 0-3.3-2.7 0.3-4 3.6-1.3 21.2-0.9 21.3 16.5 0 0-20.4 3.4-23-3.3-2.5-6.6 1.4-9.2 1.4-9.2z"/>
			</g>
			<g id="&lt;Group&gt;">
				<path id="&lt;Path&gt;" class="s4" d="m90.7 344.5c0 0-0.3-3.3 2.4-2 2.6 1.3 11.7 11.2 2.3 20.6 0 0-12.8-9.5-10.5-14.4 2.3-5 5.8-4.2 5.8-4.2z"/>
			</g>
			<g id="&lt;Group&gt;">
				<path id="&lt;Path&gt;" class="s4" d="m56.8 349.1c0 0 2-2.6-0.9-2.9-2.9-0.3-15.9 3.2-12.9 16.2 0 0 15.9-1.2 16.6-6.6 0.6-5.4-2.8-6.7-2.8-6.7z"/>
			</g>
			<path id="&lt;Path&gt;" class="s2" d="m97.6 447.6h-32l-8.5-39.3h48.2z"/>
			<path id="&lt;Path&gt;" class="s3" d="m108 419h-53.8v-11.3h53.8z"/>
		</g>
		<g id="&lt;Group&gt;">
			<path id="&lt;Compound Path&gt;" class="s0" d="m104.8 86.4c-39.9 18.4-67.2 44.1-61 57.6 6.1 13.4 43.5 9.3 83.4-9.1 39.9-18.4 67.2-44.1 61-57.5-6.2-13.4-43.5-9.4-83.4 9zm19.7 42.6c-34.9 16.1-67.3 20.3-72.3 9.3-5.1-10.9 19.1-32.8 54-48.9 34.9-16.1 67.2-20.3 72.3-9.3 5.1 10.9-19.1 32.9-54 48.9z"/>
			<path id="&lt;Path&gt;" class="s3" d="m77.1 92.6c8.2-23.6 34-36.1 57.6-27.9 23.6 8.1 36.1 33.9 28 57.5-8.2 23.6-34 36.2-57.6 28-23.6-8.2-36.2-33.9-28-57.6z"/>
			<g id="&lt;Group&gt;" style="opacity: .2">
				<path id="&lt;Path&gt;" class="s1" d="m157.3 132.8c-9.2 13.7-25.1 21.2-41.5 19.7-4.4-0.4-8.8-1.5-12.9-3.2 14.5-0.9 35.7-3.4 54.4-16.5z"/>
				<path id="&lt;Path&gt;" class="s1" d="m120.8 98.6c9.6-3.8 29.1-8.1 37.9-14.4q0.6 0.9 1.1 1.9c-4.9 3.4-9.5 7.2-13.7 11.3-9.7 8.9-14.5 17-30.6 17.7-16.1 0.6-5.5-12.3 5.3-16.5z"/>
				<path id="&lt;Path&gt;" class="s1" d="m92.4 143.4c14.2-1.8 48.4-7.9 71.8-26.4-0.4 1.6-0.8 3.2-1.4 4.8-14.8 7.6-42.5 22.2-65.8 24.6q-2.4-1.4-4.6-3z"/>
				<path id="&lt;Path&gt;" class="s1" d="m81.6 131.4q13.7-1.9 27.1-5.6c18.3-5.5 43.6-18.4 55.3-28.4q0.9 3.9 1.1 7.9c-14.6 9.7-49.8 31.1-79.2 31.9q-2.4-2.7-4.3-5.8z"/>
				<path id="&lt;Path&gt;" class="s1" d="m80.9 84.6q0.9-1.8 2.1-3.4c13.7-4 40-10.3 52-16.4q2.7 0.9 5.2 2.2c-14.9 3.5-45.9 14.4-59.3 17.6z"/>
				<path id="&lt;Path&gt;" class="s1" d="m77.4 91.8c10.4-3.3 21.1-5.5 32-6.3 7.3 0 28.9-8.5 36.6-15q0.9 0.6 1.7 1.3c-18.7 7.9-41.6 27.5-52.2 33.1q-9.8 5.4-20.4 8.7c-0.5-3.4-0.6-6.9-0.3-10.3 0.4-3.9 1.2-7.8 2.6-11.5z"/>
			</g>
			<path id="&lt;Path&gt;" class="s0" d="m75.7 117q5-1.2 9.8-2.8c12.4-4.2 34.7-22.3 54.5-30.6 7.4-3.1 11.6-4.9 14.1-5.8 0.8 0.9 1.5 1.8 2.2 2.8q-8.5 5-17.6 8.8c-12.5 5.3-26 12.4-33.7 18.9-6 4.9-20.9 11.3-27.9 13.7q-0.9-2.4-1.4-5z"/>
			<path id="&lt;Path&gt;" class="s0" d="m78.2 125c11.4-2.8 23-4.9 34.7-6.4 19.6-2.2 27-10.9 35-19.2 4-3.9 8.6-7.2 13.6-9.7q1.1 2.5 1.8 5.2c-9 7.5-19 13.8-29.6 18.8-18.6 8.7-44.4 12.9-54.1 14.3q-0.8-1.4-1.4-3z"/>
			<path id="&lt;Path&gt;" class="s0" d="m88.5 139.9c17-2.2 33.5-7.1 48.9-14.7 12.7-6.2 21.6-11.1 27.6-14.5q0.1 0.5 0 0.9c-0.1 1.3-0.3 2.6-0.5 3.9-14.2 7.5-47 23.2-75.6 24.7-0.2 0-0.3-0.2-0.4-0.3z"/>
			<path id="&lt;Path&gt;" class="s2" d="m87 76.3c9.6-10.1 23.2-15.2 37.1-13.9 1 0 2.1 0.2 3.2 0.4-9.7 4.5-27.5 11.8-40.3 13.5z"/>
			<path id="&lt;Path&gt;" class="s0" d="m100.4 148.2c11.3-2.7 40.3-10 52.7-16.7q3.4-2 7.1-3.4-1.1 2.2-2.5 4.2c-8.8 3.9-25.9 10.9-35.5 12.5-8.5 1.3-16.1 2.8-20.7 3.9q-0.6-0.2-1.1-0.5z"/>
			<path id="&lt;Path&gt;" class="s0" d="m138.7 70.7c0 0-16.6 10.2-24.1 11.5q-6.8 1.1-13.7 1.2c0 0 24-12.3 37.8-12.7z"/>
			<path id="&lt;Path&gt;" class="s0" d="m173.5 75.7c2.2 0.8 4 2.4 5 4.5 5.1 11-19.1 32.9-54 49-34.9 16-67.3 20.2-72.3 9.3-0.9-2.2-0.9-4.5 0-6.7l-8.6 4c-1 2.7-0.9 5.6 0.2 8.3 6.2 13.4 43.6 9.4 83.4-9 39.9-18.4 67.3-44.2 61.1-57.6-1.3-2.6-3.5-4.6-6.2-5.6z"/>
		</g>
		<g id="&lt;Group&gt;">
			<path id="&lt;Compound Path&gt;" class="s0" d="m434.7 252.9l-12.1-4.3c-0.2-0.1-0.4-0.3-0.4-0.6l2.5-18c0-0.2 0.1-0.4 0.3-0.5l12.3-4.2q0.2 0 0.4 0l13.3 4.8q0.4 0.1 0.3 0.6l-3.9 17.5q-0.1 0.3-0.4 0.4l-11.9 4.3q-0.2 0.1-0.4 0zm-11.4-5.2l11.5 4.1 11.6-4.1 3.8-16.8-12.8-4.5-11.7 4z"/>
			<path id="&lt;Path&gt;" class="s0" d="m422.6 248.6q-0.3-0.1-0.4-0.3c-0.1-0.3 0.1-0.6 0.4-0.7l11.9-4.4q0.2-0.1 0.4 0l12.1 4.4c0.3 0.1 0.4 0.4 0.3 0.6-0.1 0.3-0.4 0.5-0.7 0.4l-11.9-4.3-11.8 4.3q-0.1 0-0.3 0z"/>
			<path id="&lt;Path&gt;" class="s0" d="m434.6 244.2c-0.3-0.1-0.5-0.3-0.4-0.6l2.7-17.9c0-0.3 0.3-0.5 0.6-0.4 0.3 0 0.5 0.3 0.5 0.6l-2.8 17.9c0 0.3-0.3 0.5-0.6 0.4z"/>
			<path id="&lt;Path&gt;" class="s0" d="m438.2 235.9h-0.1l-13.2-5.4c-0.2-0.1-0.4-0.4-0.3-0.7q0 0 0.1 0c0.1-0.3 0.4-0.4 0.7-0.3l12.9 5.3 12.3-4.7c0.2-0.2 0.6 0 0.7 0.3 0.1 0.2-0.1 0.6-0.4 0.7l-12.4 4.8q-0.2 0-0.3 0z"/>
			<path id="&lt;Path&gt;" class="s0" d="m434.7 252.9c-0.3 0-0.5-0.3-0.4-0.6l3.5-17.1c0.1-0.3 0.3-0.5 0.6-0.4 0.3 0.1 0.5 0.4 0.5 0.7l-3.5 17c-0.1 0.3-0.4 0.5-0.7 0.5z"/>
		</g>
	</g>
	<g id="Shadow">
		<g id="&lt;Group&gt;">
			<g id="&lt;Group&gt;">
				<path id="&lt;Path&gt;" class="s5" d="m458.9 448.4c0 3.4-93.5 6.1-208.9 6.1-115.4 0-208.9-2.7-208.9-6.1 0-3.4 93.5-6.1 208.9-6.1 115.4 0 208.9 2.7 208.9 6.1z"/>
			</g>
		</g>
	</g>
	<g id="Books">
		<g id="freepik--Books--inject-2">
			<path id="&lt;Path&gt;" class="s6" d="m373.9 396.2h-37.1v-1.7h37.1z"/>
			<g id="&lt;Group&gt;">
				<path id="&lt;Path&gt;" class="s7" d="m375.9 411.7h-39.1v-16.9h39.1z"/>
				<path id="&lt;Path&gt;" class="s8" d="m375.9 411.7h-39.1v-16.9h39.1z"/>
				<path id="&lt;Path&gt;" class="s6" d="m372.7 397.9l-32.4 0.7 32.4 0.7z"/>
				<path id="&lt;Path&gt;" class="s6" d="m372.7 404.1l-34.3 0.6 34.3 0.5z"/>
				<path id="&lt;Path&gt;" class="s6" d="m372.7 407.8l-34 0.7 34 0.7z"/>
				<path id="&lt;Path&gt;" class="s6" d="m336.8 400.3l32.9 1-32.9 0.7z"/>
				<path id="&lt;Path&gt;" class="s9" d="m424 403.2c0 4.2-3.4 7.6-7.6 7.6h-81.4c-0.4 0-0.6 0.3-0.6 0.6v0.6c0 0.3 0.2 0.6 0.6 0.6h81.8c5.2 0 9.4-4.3 9.4-9.5-0.1-5.3-4.4-9.4-9.6-9.4h-81.6c-0.3 0-0.6 0.2-0.6 0.6v0.6c0 0.3 0.3 0.5 0.6 0.5h81.1c4.3 0 7.8 3.5 7.9 7.8z"/>
				<path id="&lt;Path&gt;" class="s10" d="m424 403.2c0 4.2-3.4 7.6-7.6 7.6h-81.4c-0.4 0-0.6 0.3-0.6 0.6v0.6c0 0.3 0.2 0.6 0.6 0.6h81.8c5.2 0 9.4-4.3 9.4-9.5-0.1-5.3-4.4-9.4-9.6-9.4h-81.6c-0.3 0-0.6 0.2-0.6 0.6v0.6c0 0.3 0.3 0.5 0.6 0.5h81.1c4.3 0 7.8 3.5 7.9 7.8z"/>
				<path id="&lt;Path&gt;" class="s7" d="m453.7 403.3c0 4.6-3.8 8.5-8.5 8.5h-72.5v-17h72.5c4.7-0.1 8.5 3.7 8.5 8.4q0 0 0 0.1z"/>
				<path id="&lt;Path&gt;" class="s11" d="m372.7 394.8v17h72.5c4.7 0 8.5-3.8 8.5-8.5 0-4.7-3.8-8.5-8.5-8.5z"/>
				<path id="&lt;Path&gt;" class="s6" d="m372.7 399.3v-1.4l72.3 0.6z"/>
				<path id="&lt;Path&gt;" class="s6" d="m372.7 405.2v-1.1l32.5 1.2z"/>
				<path id="&lt;Path&gt;" class="s6" d="m372.7 409.2v-1.4l52.3 0.8z"/>
				<path id="&lt;Path&gt;" class="s6" d="m445.3 396.4c1.4 0 2.8 0.5 3.8 1.5q-0.7 1.3-1 2.7l-72.5 0.6 72.3 0.2q-0.1 0.9-0.1 1.8 0 1 0.2 2.1l-48.8 1 49.3 0.6q0.6 1.8 1.6 3.4c3.8-2.7 4.8-8 2.1-11.9-1.5-2.2-4.1-3.6-6.9-3.6h-72.6v1.6z"/>
				<path id="&lt;Path&gt;" class="s9" d="m453.1 403.2c-0.1 4.2-3.5 7.6-7.7 7.6h-73.9c-0.3 0-0.5 0.3-0.5 0.6v0.6c0 0.3 0.2 0.6 0.5 0.6h74.3c5.2 0 9.4-4.3 9.4-9.5-0.1-5.3-4.4-9.4-9.7-9.4h-74c-0.3 0-0.5 0.2-0.5 0.6v0.6c0 0.3 0.2 0.5 0.5 0.5h73.7c4.3 0.1 7.8 3.5 7.9 7.8z"/>
				<path id="&lt;Path&gt;" class="s7" d="m445 401v6.8l-2.5-2.4-2.4 2.3v-6.7z"/>
			</g>
			<path id="&lt;Path&gt;" class="s7" d="m439.4 447.3h-91v-14.7h91z"/>
			<path id="&lt;Path&gt;" class="s11" d="m439.4 447.3h-91v-14.7h91z"/>
			<path id="&lt;Path&gt;" class="s6" d="m348.4 436.5v-1.2l62.3 0.5z"/>
			<path id="&lt;Path&gt;" class="s6" d="m348.4 441.6v-0.9l28 1z"/>
			<path id="&lt;Path&gt;" class="s6" d="m348.4 445.1v-1.2l45.1 0.7z"/>
			<path id="&lt;Path&gt;" class="s6" d="m419.1 432.6l1.3 10.9-1.6-1.6c-0.5 2-1.5 3.8-2.9 5.4q-1.4-2-2.3-4.3l-42.5-0.4 42.1-1q-0.2-0.9-0.2-1.8 0-0.7 0.2-1.5l-62.4-0.2 62.5-0.5q0.3-1.2 0.9-2.3c-0.9-0.8-2-1.3-3.3-1.3h-62.5v-1.4z"/>
			<path id="&lt;Path&gt;" class="s7" d="m417.7 439.9c0 3.6-3 6.6-6.7 6.6h-63.7c-0.3 0-0.5 0.2-0.5 0.5v0.5c0 0.3 0.2 0.5 0.5 0.5h99.1c4.5 0 8.2-3.7 8.2-8.2-0.1-4.5-3.9-8.1-8.4-8.1h-98.9c-0.3 0-0.5 0.2-0.5 0.5v0.5c0 0.3 0.2 0.5 0.5 0.5h63.5c3.7 0 6.8 3 6.9 6.7z"/>
			<path id="&lt;Path&gt;" class="s6" d="m417.7 439.9c0 3.6-3 6.6-6.7 6.6h-63.7c-0.3 0-0.5 0.2-0.5 0.5v0.5c0 0.3 0.2 0.5 0.5 0.5h99.1c4.5 0 8.2-3.7 8.2-8.2-0.1-4.5-3.9-8.1-8.4-8.1h-98.9c-0.3 0-0.5 0.2-0.5 0.5v0.5c0 0.3 0.2 0.5 0.5 0.5h63.5c3.7 0 6.8 3 6.9 6.7z"/>
			<path id="&lt;Path&gt;" class="s7" d="m417.7 439.9c0 3.6-3 6.6-6.7 6.6h-63.7c-0.3 0-0.5 0.2-0.5 0.5v0.5c0 0.3 0.2 0.5 0.5 0.5h64.1c4.5 0 8.1-3.6 8.1-8.1q0-0.1 0-0.1c-0.1-4.5-3.8-8.1-8.3-8.1h-63.9c-0.3 0-0.5 0.2-0.5 0.5v0.5c0 0.3 0.2 0.5 0.5 0.5h63.5c3.7 0 6.8 3 6.9 6.7z"/>
			<path id="&lt;Path&gt;" class="s12" d="m417.7 439.9c0 3.6-3 6.6-6.7 6.6h-63.7c-0.3 0-0.5 0.2-0.5 0.5v0.5c0 0.3 0.2 0.5 0.5 0.5h64.1c4.5 0 8.1-3.6 8.1-8.1q0-0.1 0-0.1c-0.1-4.5-3.8-8.1-8.3-8.1h-63.9c-0.3 0-0.5 0.2-0.5 0.5v0.5c0 0.3 0.2 0.5 0.5 0.5h63.5c3.7 0 6.8 3 6.9 6.7z"/>
			<path id="&lt;Path&gt;" class="s7" d="m453.3 431.3h-108.7v-17.5h108.7z"/>
			<path id="&lt;Path&gt;" class="s8" d="m453.3 431.3h-108.7v-17.5h108.7z"/>
			<path id="&lt;Path&gt;" class="s6" d="m344.6 418.4v-1.4l74.5 0.6z"/>
			<path id="&lt;Path&gt;" class="s6" d="m344.6 424.5v-1l33.4 1.1z"/>
			<path id="&lt;Path&gt;" class="s6" d="m344.6 428.6v-1.4l53.9 0.8z"/>
			<path id="&lt;Path&gt;" class="s6" d="m429 413.8l1.6 13-1.8-1.9c-0.7 2.3-1.8 4.5-3.5 6.4-1.1-1.5-2.1-3.2-2.7-5l-50.8-0.6 50.3-1.1q-0.2-1.1-0.2-2.2 0-0.9 0.1-1.8l-74.5-0.2 74.7-0.6q0.4-1.4 1.1-2.8c-1.1-1-2.5-1.5-3.9-1.5h-74.8v-1.7z"/>
			<path id="&lt;Path&gt;" class="s7" d="m427.3 422.4c0 4.4-3.5 7.9-7.9 7.9h-76c-0.4 0-0.6 0.3-0.6 0.6v0.7c0 0.3 0.2 0.5 0.6 0.5h112.4c5.4 0 9.7-4.3 9.7-9.7-0.2-5.4-4.6-9.7-10-9.6h-112.1c-0.4 0-0.6 0.2-0.6 0.5v0.7c0 0.3 0.2 0.6 0.6 0.6h75.8c4.4 0 8 3.5 8.1 7.8z"/>
			<path id="&lt;Path&gt;" class="s7" d="m427.3 422.4c0 4.4-3.5 7.9-7.9 7.9h-76c-0.4 0-0.6 0.3-0.6 0.6v0.7c0 0.3 0.2 0.5 0.6 0.5h76.4c5.4 0 9.8-4.3 9.8-9.7-0.2-5.4-4.6-9.7-10-9.6h-76.2c-0.4 0-0.6 0.2-0.6 0.5v0.7c0 0.3 0.2 0.6 0.6 0.6h75.8c4.4 0 8 3.5 8.1 7.8z"/>
			<path id="&lt;Path&gt;" class="s13" d="m427.3 422.4c0 4.4-3.5 7.9-7.9 7.9h-76c-0.4 0-0.6 0.3-0.6 0.6v0.7c0 0.3 0.2 0.5 0.6 0.5h76.4c5.4 0 9.8-4.3 9.8-9.7-0.2-5.4-4.6-9.7-10-9.6h-76.2c-0.4 0-0.6 0.2-0.6 0.5v0.7c0 0.3 0.2 0.6 0.6 0.6h75.8c4.4 0 8 3.5 8.1 7.8z"/>
			<g id="&lt;Group&gt;">
				<path id="&lt;Path&gt;" class="s7" d="m428 393.5h-75.4v-12.2h75.4z"/>
				<path id="&lt;Path&gt;" class="s11" d="m428 393.5h-75.4v-12.2h75.4z"/>
				<path id="&lt;Path&gt;" class="s6" d="m352.6 384.5v-1l51.6 0.5z"/>
				<path id="&lt;Path&gt;" class="s6" d="m352.6 388.8v-0.8l23.2 0.8z"/>
				<path id="&lt;Path&gt;" class="s6" d="m352.6 391.6v-1l37.3 0.6z"/>
				<path id="&lt;Path&gt;" class="s6" d="m411.1 381.3l1.1 9.1-1.3-1.4c-0.4 1.6-1.2 3.2-2.3 4.5q-1.3-1.6-2-3.5l-35.2-0.4 34.9-0.8q-0.1-0.7-0.2-1.5 0-0.6 0.2-1.3l-51.7-0.1 51.8-0.4q0.2-1 0.7-2c-0.7-0.6-1.7-1-2.7-1h-51.8v-1.2z"/>
				<path id="&lt;Path&gt;" class="s9" d="m410 387.3c0 3-2.5 5.5-5.5 5.5h-52.8c-0.2 0-0.4 0.2-0.4 0.4v0.4c0 0.3 0.2 0.4 0.4 0.4h82.1c3.7 0 6.7-3 6.7-6.7-0.1-3.8-3.1-6.8-6.9-6.7h-81.9c-0.2 0-0.4 0.2-0.4 0.4v0.4c0 0.2 0.2 0.4 0.4 0.4h52.6c3.1 0 5.6 2.5 5.7 5.5z"/>
				<path id="&lt;Path&gt;" class="s12" d="m410 387.3c0 3-2.5 5.5-5.5 5.5h-52.8c-0.2 0-0.4 0.2-0.4 0.4v0.4c0 0.3 0.2 0.4 0.4 0.4h82.1c3.7 0 6.7-3 6.7-6.7-0.1-3.8-3.1-6.8-6.9-6.7h-81.9c-0.2 0-0.4 0.2-0.4 0.4v0.4c0 0.2 0.2 0.4 0.4 0.4h52.6c3.1 0 5.6 2.5 5.7 5.5z"/>
				<path id="&lt;Path&gt;" class="s9" d="m410 387.3c0 3-2.5 5.5-5.5 5.5h-52.8c-0.2 0-0.4 0.2-0.4 0.4v0.4c0 0.3 0.2 0.4 0.4 0.4h53c3.8 0 6.8-3 6.8-6.7-0.1-3.8-3.2-6.8-6.9-6.7h-52.9c-0.2 0-0.4 0.2-0.4 0.4v0.4c0 0.2 0.2 0.4 0.4 0.4h52.6c3.1 0 5.6 2.5 5.7 5.5z"/>
				<path id="&lt;Path&gt;" class="s10" d="m410 387.3c0 3-2.5 5.5-5.5 5.5h-52.8c-0.2 0-0.4 0.2-0.4 0.4v0.4c0 0.3 0.2 0.4 0.4 0.4h53c3.8 0 6.8-3 6.8-6.7-0.1-3.8-3.2-6.8-6.9-6.7h-52.9c-0.2 0-0.4 0.2-0.4 0.4v0.4c0 0.2 0.2 0.4 0.4 0.4h52.6c3.1 0 5.6 2.5 5.7 5.5z"/>
			</g>
		</g>
		<g id="freepik--Books--inject-2 00000044877715487691543660000011104091714109380771 ">
			<path id="&lt;Path&gt;" class="s6" d="m117.3 430.5h-37v-1.7h37z"/>
			<path id="&lt;Path&gt;" class="s6" d="m117.3 433.4v-1.4l74.5 0.6z"/>
			<g id="&lt;Group&gt;">
				<path id="&lt;Path&gt;" class="s7" d="m114.4 445.8h-38.3v-16.6h38.3z"/>
				<path id="&lt;Path&gt;" class="s8" d="m114.4 445.8h-38.3v-16.6h38.3z"/>
				<path id="&lt;Path&gt;" class="s6" d="m111.3 432.3l-31.8 0.6 31.8 0.7z"/>
				<path id="&lt;Path&gt;" class="s6" d="m111.3 438.4l-33.6 0.6 33.6 0.4z"/>
				<path id="&lt;Path&gt;" class="s6" d="m111.3 442l-33.3 0.7 33.3 0.6z"/>
				<path id="&lt;Path&gt;" class="s6" d="m76.1 434.6l32.3 1-32.3 0.7z"/>
				<path id="&lt;Path&gt;" class="s9" d="m161.6 437.4c0 4.2-3.4 7.6-7.5 7.6h-79.8c-0.3 0-0.5 0.2-0.5 0.5v0.6c0 0.3 0.2 0.6 0.5 0.6h80.2c5.1 0 9.2-4.2 9.2-9.3-0.1-5.2-4.3-9.3-9.4-9.2h-80c-0.3 0-0.5 0.2-0.5 0.5v0.6c0 0.3 0.2 0.6 0.5 0.6h79.6c4.2 0 7.6 3.3 7.7 7.5z"/>
				<path id="&lt;Path&gt;" class="s10" d="m161.6 437.4c0 4.2-3.4 7.6-7.5 7.6h-79.8c-0.3 0-0.5 0.2-0.5 0.5v0.6c0 0.3 0.2 0.6 0.5 0.6h80.2c5.1 0 9.2-4.2 9.2-9.3-0.1-5.2-4.3-9.3-9.4-9.2h-80c-0.3 0-0.5 0.2-0.5 0.5v0.6c0 0.3 0.2 0.6 0.5 0.6h79.6c4.2 0 7.6 3.3 7.7 7.5z"/>
				<path id="&lt;Path&gt;" class="s7" d="m190.7 437.5c0 4.6-3.7 8.4-8.3 8.4h-71.1v-16.7h71c4.6 0 8.4 3.7 8.4 8.3z"/>
				<path id="&lt;Path&gt;" class="s11" d="m111.3 429.2v16.7h71.1c4.6 0 8.3-3.8 8.3-8.4 0-4.6-3.7-8.3-8.3-8.3z"/>
				<path id="&lt;Path&gt;" class="s6" d="m111.3 439.4v-1l31.8 1.1z"/>
				<path id="&lt;Path&gt;" class="s6" d="m111.3 443.3v-1.3l51.3 0.8z"/>
				<path id="&lt;Path&gt;" class="s6" d="m182.5 430.8c1.4 0 2.7 0.5 3.7 1.5q-0.7 1.3-1.1 2.7l-71 0.5 70.9 0.2q-0.2 0.9-0.2 1.7 0.1 1.1 0.3 2.1l-47.9 1 48.3 0.6q0.7 1.7 1.6 3.3c3.8-2.6 4.8-7.8 2.1-11.6-1.5-2.2-4.1-3.6-6.8-3.6h-71.1v1.7z"/>
				<path id="&lt;Path&gt;" class="s9" d="m190 437.4c0 4.2-3.3 7.6-7.5 7.6h-72.4c-0.3 0-0.5 0.2-0.5 0.5v0.6c0 0.3 0.2 0.6 0.5 0.6h72.8c5.1 0 9.2-4.2 9.2-9.3-0.1-5.2-4.3-9.3-9.4-9.2h-72.6c-0.3 0-0.5 0.2-0.5 0.5v0.6c0 0.3 0.2 0.6 0.5 0.6h72.2c4.2 0 7.6 3.3 7.7 7.5z"/>
				<path id="&lt;Path&gt;" class="s7" d="m182.1 435.3v6.7l-2.4-2.4-2.3 2.3v-6.6z"/>
			</g>
			<g id="&lt;Group&gt;">
				<path id="&lt;Path&gt;" class="s7" d="m108 412.2h64.7v-10.4h-64.7z"/>
				<path id="&lt;Path&gt;" class="s8" d="m108 412.2h64.7v-10.4h-64.7z"/>
				<path id="&lt;Path&gt;" class="s6" d="m172.7 404.5v-0.8l-44.3 0.3z"/>
				<path id="&lt;Path&gt;" class="s6" d="m172.7 408.2v-0.7l-19.9 0.7z"/>
				<path id="&lt;Path&gt;" class="s6" d="m172.7 410.6v-0.8l-32.1 0.5z"/>
				<path id="&lt;Path&gt;" class="s6" d="m122.5 401.8l-1 7.7 1.1-1.1c0.4 1.4 1.1 2.7 2.1 3.8q1-1.4 1.6-3l30.2-0.3-29.9-0.7q0.1-0.6 0.1-1.3 0-0.5-0.1-1.1l44.3-0.1-44.4-0.3q-0.2-0.9-0.6-1.7c0.6-0.6 1.5-0.9 2.3-0.9h44.5v-1z"/>
				<path id="&lt;Path&gt;" class="s7" d="m123.5 406.9c0 2.6 2.1 4.7 4.7 4.7h45.2c0.2 0 0.4 0.2 0.4 0.4v0.3c0 0.2-0.2 0.4-0.4 0.4h-66.8c-3.2 0-5.8-2.6-5.8-5.8 0.1-3.2 2.7-5.8 5.9-5.7h66.7c0.2 0 0.4 0.1 0.4 0.3v0.4c0 0.2-0.2 0.3-0.4 0.3h-45.1c-2.6 0-4.7 2.1-4.8 4.7z"/>
				<path id="&lt;Path&gt;" class="s10" d="m123.5 406.9c0 2.6 2.1 4.7 4.7 4.7h45.2c0.2 0 0.4 0.2 0.4 0.4v0.3c0 0.2-0.2 0.4-0.4 0.4h-66.8c-3.2 0-5.8-2.6-5.8-5.8 0.1-3.2 2.7-5.8 5.9-5.7h66.7c0.2 0 0.4 0.1 0.4 0.3v0.4c0 0.2-0.2 0.3-0.4 0.3h-45.1c-2.6 0-4.7 2.1-4.8 4.7z"/>
				<path id="&lt;Path&gt;" class="s7" d="m123.5 406.9c0 2.6 2.1 4.7 4.7 4.7h45.2c0.2 0 0.4 0.2 0.4 0.4v0.3c0 0.2-0.2 0.4-0.4 0.4h-45.5c-3.2 0-5.7-2.6-5.7-5.8 0.1-3.2 2.7-5.7 5.9-5.7h45.3c0.2 0 0.4 0.1 0.4 0.3v0.4c0 0.2-0.2 0.3-0.4 0.3h-45.1c-2.6 0-4.7 2.1-4.8 4.7z"/>
				<path id="&lt;Path&gt;" class="s13" d="m123.5 406.9c0 2.6 2.1 4.7 4.7 4.7h45.2c0.2 0 0.4 0.2 0.4 0.4v0.3c0 0.2-0.2 0.4-0.4 0.4h-45.5c-3.2 0-5.7-2.6-5.7-5.8 0.1-3.2 2.7-5.7 5.9-5.7h45.3c0.2 0 0.4 0.1 0.4 0.3v0.4c0 0.2-0.2 0.3-0.4 0.3h-45.1c-2.6 0-4.7 2.1-4.8 4.7z"/>
			</g>
			<g id="&lt;Group&gt;">
				<path id="&lt;Path&gt;" class="s7" d="m176.8 427.3h-89.4v-14.4h89.4z"/>
				<path id="&lt;Path&gt;" class="s11" d="m176.8 427.3h-89.4v-14.4h89.4z"/>
				<path id="&lt;Path&gt;" class="s6" d="m87.4 416.7v-1.2l61.2 0.5z"/>
				<path id="&lt;Path&gt;" class="s6" d="m87.4 421.7v-0.9l27.5 1z"/>
				<path id="&lt;Path&gt;" class="s6" d="m87.4 425.1v-1.2l44.3 0.7z"/>
				<path id="&lt;Path&gt;" class="s6" d="m156.8 412.9l1.3 10.7-1.5-1.6c-0.6 1.9-1.5 3.7-2.8 5.3q-1.5-1.9-2.3-4.2l-41.8-0.4 41.4-0.9q-0.2-0.9-0.2-1.8 0-0.8 0.1-1.5l-61.2-0.2 61.3-0.5q0.4-1.2 0.9-2.3c-0.8-0.8-2-1.2-3.1-1.2h-61.5v-1.4z"/>
				<path id="&lt;Path&gt;" class="s7" d="m155.4 420c0 3.6-2.9 6.5-6.5 6.5h-62.6c-0.2 0-0.4 0.2-0.4 0.5v0.5c0 0.2 0.2 0.5 0.4 0.5h97.4c4.4 0 7.9-3.6 7.9-8q0 0 0-0.1c-0.1-4.4-3.7-8-8.2-7.9h-97.1c-0.2 0-0.4 0.2-0.4 0.5v0.5c0 0.3 0.2 0.5 0.4 0.5h62.4c3.6 0 6.6 2.9 6.7 6.5z"/>
				<path id="&lt;Path&gt;" class="s7" d="m155.4 420c0 3.6-2.9 6.5-6.5 6.5h-62.6c-0.2 0-0.4 0.2-0.4 0.5v0.5c0 0.2 0.2 0.5 0.4 0.5h62.9c4.4 0 8-3.6 8-8q0 0 0-0.1c-0.1-4.4-3.7-7.9-8.2-7.9h-62.7c-0.2 0-0.4 0.2-0.4 0.5v0.5c0 0.3 0.2 0.5 0.4 0.5h62.4c3.6 0 6.6 2.9 6.7 6.5z"/>
			</g>
		</g>
		<g id="freepik--Globe--inject-2 00000053539086422751885370000017917936002808535181 ">
			<path id="&lt;Path&gt;" class="s9" d="m391.9 352.2h5.3v17.2h-5.3z"/>
			<g id="&lt;Group&gt;" style="opacity: .2">
				<path id="&lt;Path&gt;" class="s14" d="m391.9 352.2h5.3v17.2h-5.3z"/>
			</g>
			<path id="&lt;Path&gt;" class="s9" d="m394.5 354.9c-8.2 0-16.2-2-23.4-5.8l2.5-4.7c21.6 11.6 48.5 3.4 60.1-18.2 5.6-10.5 6.7-22.8 3.1-34.2-1.4-4.5-3.5-8.8-6.3-12.6-3.9-5.5-9.1-10-15-13.2l2.4-4.6q4.2 2.2 7.8 5.1c3.5 2.8 6.5 6 9.1 9.6 3.1 4.3 5.5 9.1 7 14.1 8.3 26.1-6.2 54-32.4 62.2-4.8 1.6-9.9 2.3-14.9 2.3z"/>
			<g id="&lt;Group&gt;" style="opacity: .3">
				<path id="&lt;Path&gt;" class="s14" d="m394.5 354.9c-8.2 0-16.2-2-23.4-5.8l2.5-4.7c21.6 11.6 48.5 3.4 60.1-18.2 5.6-10.5 6.7-22.8 3.1-34.2-1.4-4.5-3.5-8.8-6.3-12.6-3.9-5.5-9.1-10-15-13.2l2.4-4.6q4.2 2.2 7.8 5.1c3.5 2.8 6.5 6 9.1 9.6 3.1 4.3 5.5 9.1 7 14.1 8.3 26.1-6.2 54-32.4 62.2-4.8 1.6-9.9 2.3-14.9 2.3z"/>
			</g>
			<path id="&lt;Path&gt;" class="s9" d="m369.5 353.4q-0.4 0-0.7-0.1c-0.6-0.4-0.8-1.2-0.5-1.8l50.2-93.6c0.3-0.6 1.1-0.9 1.7-0.5 0.7 0.3 0.9 1.1 0.6 1.7l-50.2 93.6c-0.2 0.4-0.7 0.7-1.1 0.7z"/>
			<g id="&lt;Group&gt;" style="opacity: .4">
				<path id="&lt;Path&gt;" class="s14" d="m369.5 353.4q-0.4 0-0.7-0.1c-0.6-0.4-0.8-1.2-0.5-1.8l50.2-93.6c0.3-0.6 1.1-0.9 1.7-0.5 0.7 0.3 0.9 1.1 0.6 1.7l-50.2 93.6c-0.2 0.4-0.7 0.7-1.1 0.7z"/>
			</g>
			<path id="&lt;Path&gt;" class="s9" d="m385 368.1h19.1c1.3 0 2.3 1 2.3 2.3v4.3h-23.7v-4.3c0-1.3 1-2.3 2.3-2.3z"/>
			<path id="&lt;Path&gt;" class="s7" d="m396.5 267.1c21.1 1.1 37.3 19.1 36.3 40.2-1.1 21.1-19.1 37.3-40.2 36.2-21.1-1.1-37.4-19-36.3-40.1q0 0 0-0.1c1.1-21.1 19.1-37.3 40.2-36.2z"/>
			<path id="&lt;Compound Path&gt;" class="s15" d="m416.8 274.2q-0.1 0-0.1-0.1-0.2-0.1-0.4-0.2c-1.6-0.9-1.1 2.2-2.6 2.9-1.5 0.7-4.1-0.6-3.8-1.5 0.4-0.9-2.6-3.4-3.5-3.8-1.3-0.5-2.7 0.2-3.2 1.5q-0.2 0.5-0.2 0.9c-0.1 2.6 1.3 4.2 0.9 5-0.4 0.8-0.3 1-3 2.3-2.6 1.2-4.5-0.4-6.1 1.1-1.6 1.4 0.4 2.2-0.2 5.7-0.6 3.5-1.6 1-3.5 1.4-1.9 0.3-0.8-2-0.6-3.3 0.3-1.4-1.7-1.8-2.6-1.9-0.9-0.1-3-0.3-2.8-3 0.3-2.7 0.2-5.3-3.5-5.1-1.9 0.2-3-2.6-3.5-5.3-9.8 4.6-17.1 13.2-20.3 23.6 0.2-0.1 0.4 0.2 0.7 0.9 0.9 2.2 1.7 4.4 2.8 5.7 1 1.1 1.3 2.6 0.9 4-0.5 1.1-2.8 1.7-2.8 2.5 0 0.7-2.1 1.7-2.5 2.4 0 0.2-0.2 0.3-0.4 0.2 1.4 10.5 7 20 15.6 26.2 1-2.5 2.6-4.4 3.7-4.5 2.4-0.1 9.6-1.3 6.9-4.4-2.6-3.2-5.4-6.1-5.4-6.1q0.8-1.3 1.8-2.4c0.4-0.3-0.9-1.1 1.5-1.3 2.4-0.3 2.6-0.3 1.6-1.5-1-1.2-2.7-0.3-1.6-1.7 1.1-1.5 2.3-2.6 3.5-1 1.2 1.6 0.5 2.5 0.9 2.9 0.4 0.5 4-0.2 4-0.2 0 0 1 1.3 0.5 1.6q-0.9 1.1-1.8 2.4c-0.2 0.8-0.7 1.6-1.3 2.2-0.8 0.4 2 3.2 2.8 3.6 0.8 0.4 1.1 0.8 1.8 0.6 0.8-0.2 2.1-1.7 2.6-2.1 0.5-0.4 3.5 0.6 3.5 0.6q1.7 1 3.2 2.3c1 1 2.5 1.2 3.7 0.4 0.6-0.5 0.6-2 1.7-1.5 1.2 0.5 1.6 1 2.4 3.9 0.8 2.8 5.6 6.9 5 8.7 3.5-2 6.7-4.5 9.4-7.4-3.4-1.2-4.6-2.4-5.1-3.2-0.7-1-0.3-1 0.1-2.6 0.3-1.6 3.4-2.6 3.9-3.1 0.5-0.4 2.9-3.4 4.1-3.7 1.2-0.3 1.1-1.9 1.1-1.9 0 0 0.2 0.4 0.7-0.6 0.5-1.1-0.1-2.1 1.5-3.6 1-0.7 2.2-1.3 3.5-1.5q0.3-2 0.4-4 0.2-3.5-0.3-7l-4.1 1.6q-1.5 0-2.9-0.3c-0.5-0.2-2.6-1.6-4.3-0.8-1.7 0.9-1.8-0.5-5-1-3.1-0.6 1.6-5 2.3-5.7 0.7-0.6 0.9-0.3 3-1.3 2.1-1.1 1.7-2.7 1.7-2.7q-1.9-2.8-4.5-5.1c-2-1.6 0.9-1.8 6-3.2q-3.3-4.4-7.8-7.5zm-13.9 48.4c-0.8 1.1-1.8-0.2-1.8-0.2-2.9-0.9-3.2-3.3-2.2-4.2 1-0.9 1.5-4 3.1-2.8q1.9 1.4 4 2.6c0 0 1.7-4.5 1.8-0.3 0.1 4.2 2.5 2.9 0.1 4.2-2.5 1.3-4.3-0.4-5 0.7zm11.6 1.1q0 1.6-0.3 3.2l-2.3 1.2c-1.6-1.4-1-3.5-0.1-3.7 0.9-0.2 2.6-1.9 2.7-0.7zm-4-32.3c0.5 1.1-1.2 1.9-3.2 4.7-2 2.9-3.2 0.6-3.2 0.6 0 0-4-3.2-2.7-4.6 1.3-1.4 0.3-3.2 2.2-4.3 1.2-0.7 2.4-0.1 3.5 1.1 1.1 1.3 2.8 1.3 3.4 2.4z"/>
			<path id="&lt;Path&gt;" class="s12" d="m406.5 269c0.5 11.5-3.1 23.9-11.2 34.6-9 11.8-21.5 19-33.9 20.8-10.6-18.3-4.2-41.7 14.1-52.2 9.4-5.4 20.7-6.6 31-3.2z"/>
			<g id="&lt;Group&gt;" style="opacity: .3">
				<path id="&lt;Path&gt;" class="s14" d="m385 368.1h19.1c1.3 0 2.3 1 2.3 2.3v4.3h-23.7v-4.3c0-1.3 1-2.3 2.3-2.3z"/>
			</g>
			<path id="&lt;Path&gt;" class="s9" d="m374.6 373.4h39.8c1.5 0 2.7 1.2 2.7 2.7v4.5h-45.2v-4.5c0-1.5 1.3-2.7 2.7-2.7z"/>
			<g id="&lt;Group&gt;" style="opacity: .4">
				<path id="&lt;Path&gt;" class="s14" d="m374.6 373.4h39.8c1.5 0 2.7 1.2 2.7 2.7v4.5h-45.2v-4.5c0-1.5 1.3-2.7 2.7-2.7z"/>
			</g>
		</g>
	</g>
	<g id="Exam">
		<g id="&lt;Group&gt;">
			<g id="&lt;Group&gt;">
				<path id="&lt;Path&gt;" class="s7" d="m263 334.4l-177.4 20-27.8-245.9 177.3-20.1z"/>
				<path id="&lt;Path&gt;" class="s8" d="m263 334.4l-177.4 20-27.8-245.9 177.3-20.1z"/>
			</g>
			<g id="&lt;Group&gt;">
				<path id="&lt;Compound Path&gt;" class="s7" d="m99.3 134.5l0.5 4.4-16.1 1.8-2.3-20 15.7-1.8 0.5 4.4-10.1 1.1 0.4 3.4 8.9-1 0.5 4.2-8.9 1 0.4 3.7z"/>
				<path id="&lt;Compound Path&gt;" class="s7" d="m115.4 137.1l-4.9-5.7-3.4 6.6-6.4 0.8 6.1-11-8.1-9.1 6.4-0.7 4.7 5.3 3.2-6.2 6.2-0.7-5.9 10.4 8.6 9.6z"/>
				<path id="&lt;Compound Path&gt;" class="s7" d="m135.7 130.8l-8.5 1-1.1 4.1-5.8 0.6 6.6-21 5.6-0.6 11.1 19-5.9 0.7zm-2.1-4l-3.3-6.1-1.9 6.7z"/>
				<path id="&lt;Compound Path&gt;" class="s7" d="m163.3 131.7l-1.3-10.6-4.1 9.2-2.6 0.3-6-7.8 1.1 10.3-5.2 0.6-2.3-20 4.7-0.5 8.4 10.7 5.5-12.3 4.7-0.5 2.3 20z"/>
			</g>
			<g id="&lt;Group&gt;" style="opacity: .2">
				<path id="&lt;Path&gt;" class="s7" d="m215.6 111.8l-38.3 4.4-0.4-3.4 38.4-4.4z"/>
			</g>
			<g id="&lt;Group&gt;" style="opacity: .2">
				<path id="&lt;Path&gt;" class="s7" d="m211.1 147.7l-119.5 13.5-0.5-4.4 119.5-13.5z"/>
			</g>
			<g id="&lt;Group&gt;" style="opacity: .2">
				<path id="&lt;Path&gt;" class="s7" d="m209.4 119.6l-30.8 3.5-0.4-3.4 30.8-3.5z"/>
			</g>
			<g id="&lt;Group&gt;" style="opacity: .2">
				<path id="&lt;Path&gt;" class="s7" d="m86 161.9l-5.2 0.6-0.6-5.2 5.2-0.6z"/>
			</g>
			<g id="&lt;Group&gt;" style="opacity: .2">
				<path id="&lt;Path&gt;" class="s7" d="m219.1 218.2l-119.5 13.5-0.5-4.4 119.5-13.6z"/>
			</g>
			<g id="&lt;Group&gt;" style="opacity: .2">
				<path id="&lt;Path&gt;" class="s7" d="m93.9 232.4l-5.1 0.5-0.6-5.1 5.2-0.6z"/>
			</g>
			<g id="&lt;Group&gt;" style="opacity: .2">
				<path id="&lt;Path&gt;" class="s7" d="m225.9 278.6l-119.4 13.5-0.5-4.4 119.4-13.5z"/>
			</g>
			<g id="&lt;Group&gt;" style="opacity: .2">
				<path id="&lt;Path&gt;" class="s7" d="m100.8 292.8l-5.2 0.6-0.6-5.2 5.2-0.6z"/>
			</g>
			<g id="&lt;Group&gt;">
				<g id="&lt;Group&gt;" style="opacity: .2">
					<path id="&lt;Path&gt;" fill-rule="evenodd" class="s7" d="m213.7 161.7l-105.5 11.9-0.5-4.4 105.5-12z"/>
				</g>
				<g id="&lt;Group&gt;" style="opacity: .2">
					<path id="&lt;Path&gt;" class="s7" d="m151.2 179.4l-41.8 4.8-0.5-4.5 41.8-4.7z"/>
				</g>
				<g id="&lt;Group&gt;" style="opacity: .2">
					<path id="&lt;Path&gt;" class="s16" d="m101.5 176.3l-7.1 0.8-0.9-7.1 7.2-0.8z"/>
				</g>
			</g>
			<g id="&lt;Group&gt;">
				<g id="&lt;Group&gt;" style="opacity: .2">
					<path id="&lt;Path&gt;" class="s7" d="m216.8 189.7l-105.4 11.9-0.5-4.4 105.4-12z"/>
				</g>
				<g id="&lt;Group&gt;" style="opacity: .2">
					<path id="&lt;Path&gt;" class="s7" d="m154.4 207.4l-41.8 4.8-0.5-4.5 41.8-4.7z"/>
				</g>
				<g id="&lt;Group&gt;" style="opacity: .2">
					<path id="&lt;Path&gt;" class="s16" d="m104.6 204.3l-7.1 0.9-0.8-7.2 7.1-0.8z"/>
				</g>
			</g>
			<g id="&lt;Group&gt;">
				<g id="&lt;Group&gt;" style="opacity: .2">
					<path id="&lt;Path&gt;" class="s7" d="m222 235.2l-105.4 11.9-0.5-4.4 105.4-12z"/>
				</g>
				<g id="&lt;Group&gt;" style="opacity: .2">
					<path id="&lt;Path&gt;" class="s7" d="m159.7 254l-41.8 4.8-0.5-4.5 41.8-4.7z"/>
				</g>
				<g id="&lt;Group&gt;" style="opacity: .2">
					<path id="&lt;Path&gt;" class="s16" d="m109.8 249.8l-7.1 0.8-0.8-7.1 7.1-0.8z"/>
				</g>
				<g id="&lt;Group&gt;" style="opacity: .2">
					<path id="&lt;Path&gt;" class="s16" d="m111 260.9l-7.1 0.8-0.8-7.1 7.1-0.8z"/>
				</g>
				<g id="&lt;Group&gt;" style="opacity: .2">
					<path id="&lt;Path&gt;" class="s7" d="m185.1 262.8l-65.9 7.5-0.5-4.5 65.9-7.4z"/>
				</g>
				<g id="&lt;Group&gt;" style="opacity: .2">
					<path id="&lt;Path&gt;" class="s16" d="m112.3 272.4l-7.1 0.8-0.8-7.1 7.1-0.8z"/>
				</g>
			</g>
			<g id="&lt;Group&gt;">
				<g id="&lt;Group&gt;" style="opacity: .2">
					<path id="&lt;Path&gt;" class="s7" d="m228.6 293.8l-105.4 11.9-0.5-4.4 105.4-12z"/>
				</g>
				<g id="&lt;Group&gt;" style="opacity: .2">
					<path id="&lt;Path&gt;" class="s7" d="m166.3 312.6l-41.8 4.8-0.5-4.5 41.8-4.7z"/>
				</g>
				<g id="&lt;Group&gt;" style="opacity: .2">
					<path id="&lt;Path&gt;" class="s16" d="m116.4 308.4l-7.1 0.8-0.8-7.1 7.1-0.8z"/>
				</g>
				<g id="&lt;Group&gt;" style="opacity: .2">
					<path id="&lt;Path&gt;" class="s16" d="m117.7 319.5l-7.1 0.8-0.8-7.1 7.1-0.8z"/>
				</g>
				<g id="&lt;Group&gt;" style="opacity: .2">
					<path id="&lt;Path&gt;" class="s7" d="m191.7 321.4l-65.9 7.5-0.5-4.5 65.9-7.4z"/>
				</g>
				<g id="&lt;Group&gt;" style="opacity: .2">
					<path id="&lt;Path&gt;" class="s16" d="m119 331l-7.1 0.8-0.8-7.1 7.1-0.8z"/>
				</g>
			</g>
		</g>
	</g>
	<g id="Ruler">
		<g id="&lt;Group&gt;">
			<path id="&lt;Compound Path&gt;" class="s7" d="m360.4 173.9l-30.9 97.2 66.4-48.6zm5.5 28.3l12.2 16.3-22.8 16.2z"/>
			<path id="&lt;Compound Path&gt;" class="s10" d="m360.4 173.9l-30.9 97.2 66.4-48.6zm5.5 28.3l12.2 16.3-22.8 16.2z"/>
			<path id="&lt;Path&gt;" class="s17" d="m363.6 187.1q2.2-1.3 4.3-2.7"/>
			<path id="&lt;Path&gt;" class="s17" d="m366.6 191.3q2.1-1.4 4.3-2.7"/>
			<path id="&lt;Path&gt;" class="s17" d="m369.9 195.4q2.1-1.3 4.3-2.6"/>
			<path id="&lt;Path&gt;" class="s17" d="m372.9 199.6q2.1-1.3 4.3-2.7"/>
			<path id="&lt;Path&gt;" class="s17" d="m375.8 203.7q2.2-1.4 4.3-2.7"/>
			<path id="&lt;Path&gt;" class="s17" d="m378.8 207.7q2.1-1.3 4.3-2.6"/>
			<path id="&lt;Path&gt;" class="s17" d="m381.7 211.8q2.2-1.3 4.3-2.7"/>
			<path id="&lt;Path&gt;" class="s17" d="m384.7 215.9q2.1-1.4 4.3-2.7"/>
			<path id="&lt;Path&gt;" class="s17" d="m387.6 219.9q2.2-1.3 4.3-2.7"/>
			<path id="&lt;Path&gt;" class="s10" d="m363.5 228.9l-1 18.1 10.3-7.6 0.7-17.6-8.9 6.3"/>
		</g>
	</g>
	<g id="Speech Bubble">
		<g id="&lt;Group&gt;">
			<g id="&lt;Group&gt;">
				<path id="&lt;Path&gt;" class="s7" d="m329.8 179.5c0 10.5-8.5 19-18.9 19-10.5 0-19-8.5-19-19 0-10.4 8.5-18.9 19-18.9 10.4 0 18.9 8.5 18.9 18.9z"/>
				<g id="&lt;Group&gt;">
					<g id="&lt;Group&gt;">
						<g id="&lt;Group&gt;">
							<path id="&lt;Path&gt;" class="s18" d="m324.6 162.3c-4.8-4.5-12-6.4-18.4-4.8"/>
							<path id="&lt;Path&gt;" class="s18" d="m303.3 158.4c-1 0.2-2 0.5-2.8 1.1"/>
						</g>
					</g>
				</g>
				<path id="&lt;Path&gt;" class="s7" d="m300.9 200.4c0 1.2-0.9 2.1-2.1 2.1-1.1 0-2-0.9-2-2.1 0-1.2 0.9-2.1 2-2.1 1.2 0 2.1 0.9 2.1 2.1z"/>
			</g>
			<g id="&lt;Group&gt;">
				<path id="&lt;Path&gt;" class="s14" d="m310.9 177c1.3 0 2.4 1.1 2.4 2.4 0 1.4-1.1 2.5-2.4 2.5-1.3 0-2.4-1.1-2.4-2.5 0-1.3 1.1-2.4 2.4-2.4z"/>
				<g id="&lt;Group&gt;">
					<path id="&lt;Path&gt;" class="s14" d="m302.6 177c1.3 0 2.4 1.1 2.4 2.4 0 1.4-1.1 2.5-2.4 2.5-1.4 0-2.4-1.1-2.4-2.5 0-1.3 1-2.4 2.4-2.4z"/>
					<path id="&lt;Path&gt;" class="s14" d="m318.9 177c1.3 0 2.4 1.1 2.4 2.4 0 1.4-1.1 2.5-2.4 2.5-1.4 0-2.4-1.1-2.4-2.5 0-1.3 1-2.4 2.4-2.4z"/>
				</g>
			</g>
		</g>
	</g>
	<g id="Icon">
		<g id="&lt;Group&gt;">
			<g id="&lt;Group&gt;">
				<g id="&lt;Group&gt;">
					<path id="&lt;Path&gt;" class="s7" d="m243.8 180.2c0 2.5-2 4.6-4.5 4.6-2.5 0-4.6-2.1-4.6-4.6 0-2.5 2.1-4.5 4.6-4.5 2.5 0 4.5 2 4.5 4.5z"/>
					<path id="&lt;Path&gt;" class="s7" d="m231 186c0 1.8-1.4 3.2-3.2 3.2-1.8 0-3.3-1.4-3.3-3.2 0-1.8 1.5-3.2 3.3-3.2 1.8 0 3.2 1.4 3.2 3.2z"/>
					<path id="&lt;Path&gt;" class="s7" d="m234.4 172.3c0 1.1-0.9 2-2.1 2-1.1 0-2-0.9-2-2 0-1.1 0.9-2 2-2 1.2 0 2.1 0.9 2.1 2z"/>
					<path id="&lt;Path&gt;" class="s7" d="m251 183.6c0 1.1-0.9 2-2 2-1.1 0-2-0.9-2-2 0-1.1 0.9-2 2-2 1.1 0 2 0.9 2 2z"/>
					<path id="&lt;Path&gt;" class="s7" d="m252.1 174.3c0 1.5-1.2 2.7-2.7 2.7-1.6 0-2.8-1.2-2.8-2.7 0-1.5 1.2-2.8 2.8-2.8 1.5 0 2.7 1.3 2.7 2.8z"/>
					<path id="&lt;Path&gt;" class="s7" d="m245.2 194.5c0 1.8-1.4 3.2-3.2 3.2-1.8 0-3.2-1.4-3.2-3.2 0-1.8 1.4-3.2 3.2-3.2 1.8 0 3.2 1.4 3.2 3.2z"/>
					<path id="&lt;Path&gt;" class="s19" d="m228.4 185.2l9.5-4.2 3 0.8 1.1 12.3"/>
					<path id="&lt;Path&gt;" class="s19" d="m232.3 172.3l4.3 5.5 6.4 4.5 5 1.2"/>
				</g>
				<path id="&lt;Path&gt;" class="s19" d="m240.1 180.4q3.7-2.6 7.4-5.1"/>
			</g>
		</g>
	</g>
	<g id="Planet">
		<g id="&lt;Group&gt;">
			<path id="&lt;Path&gt;" class="s7" d="m184.1 238.3q0.8-2.4 2.1-4.5 0.6-1 1.3-1.9 1.9-2.3 4.3-4.1 0.4-0.3 0.9-0.7 1-0.6 2.1-1.2 0.7-0.3 1.5-0.6 1-0.5 2.1-0.8 1.4-0.4 2.9-0.6 1.8-0.3 3.7-0.2c3.7 0 7.2 1 10.4 2.9q1.4 0.8 2.6 1.8 0.6 0.5 1.1 1 0.6 0.5 1.1 1 0.3 0.4 0.7 0.8 0.4 0.6 0.9 1.1 0.8 1.2 1.6 2.5 0.2 0.4 0.3 0.8 0.6 1.2 1.1 2.4 0.2 0.5 0.3 1 0.7 2.4 0.8 4.9 0.1 0.9 0 1.7 0 0.5 0 0.9 0 0.7-0.1 1.4-0.2 1.4-0.6 2.7-0.2 0.9-0.5 1.7-0.4 1.1-0.8 2-0.9 1.8-2 3.4-0.7 0.9-1.5 1.8-0.9 1-1.9 1.9-1 0.9-2.2 1.6-1.5 1-3.1 1.7-1.2 0.6-2.5 1-1 0.3-2 0.5c-4.3 0.8-8.8 0.4-12.8-1.4q-0.8-0.4-1.6-0.8-0.6-0.3-1.2-0.7-0.6-0.4-1.3-0.9-0.3-0.2-0.6-0.5-1.2-0.9-2.2-1.9c-2.3-2.4-4-5.3-5-8.5q-0.7-2.4-0.9-4.8-0.1-1.1-0.1-2.1 0.1-1 0.2-2 0.2-2.2 0.9-4.3z"/>
			<path id="&lt;Path&gt;" class="s12" d="m184.1 238.3q0.8-2.4 2.1-4.5 0.6-1 1.3-1.9 1.9-2.3 4.3-4.1 0.4-0.3 0.9-0.7 1-0.6 2.1-1.2 0.7-0.3 1.5-0.6 1-0.5 2.1-0.8 1.4-0.4 2.9-0.6 1.8-0.3 3.7-0.2c3.7 0 7.2 1 10.4 2.9q1.4 0.8 2.6 1.8 0.6 0.5 1.1 1 0.6 0.5 1.1 1 0.3 0.4 0.7 0.8 0.4 0.6 0.9 1.1 0.8 1.2 1.6 2.5 0.2 0.4 0.3 0.8 0.6 1.2 1.1 2.4 0.2 0.5 0.3 1 0.7 2.4 0.8 4.9 0.1 0.9 0 1.7 0 0.5 0 0.9 0 0.7-0.1 1.4-0.2 1.4-0.6 2.7-0.2 0.9-0.5 1.7-0.4 1.1-0.8 2-0.9 1.8-2 3.4-0.7 0.9-1.5 1.8-0.9 1-1.9 1.9-1 0.9-2.2 1.6-1.5 1-3.1 1.7-1.2 0.6-2.5 1-1 0.3-2 0.5c-4.3 0.8-8.8 0.4-12.8-1.4q-0.8-0.4-1.6-0.8-0.6-0.3-1.2-0.7-0.6-0.4-1.3-0.9-0.3-0.2-0.6-0.5-1.2-0.9-2.2-1.9c-2.3-2.4-4-5.3-5-8.5q-0.7-2.4-0.9-4.8-0.1-1.1-0.1-2.1 0.1-1 0.2-2 0.2-2.2 0.9-4.3z"/>
			<path id="&lt;Path&gt;" class="s6" d="m184.1 238.3q1 0 2 0.2c1 0.2 1.9 0.6 2.9 0.8 1.2 0.2 2.4 0.1 3.7 0.3 1.2 0.1 2.5 0.5 3.3 1.4q-4.5 0.3-9 1c-1.2 0.3-2.5 0.5-3.8 0.6q0.2-2.2 0.9-4.3z"/>
			<path id="&lt;Path&gt;" class="s6" d="m217.9 246.7q2.8-0.4 5.5-0.4 1.3 0 2.5 0.2 0 0.7-0.1 1.4h-0.2c-2.6 0.1-5.2-0.3-7.7-1.2z"/>
			<path id="&lt;Path&gt;" class="s6" d="m207.7 239.9q0.5-0.1 1 0 2.1 0.1 4.2-0.1 1.8-0.2 3.6-0.4 1.4-0.1 2.7-0.4 0.8-0.3 1.5-0.5 1-0.1 2 0.1 1.2 0.2 2.4 0.4 0.7 2.4 0.8 4.9-0.8 0-1.7-0.2c-0.9-0.2-1.8-0.6-2.7-0.7-0.9-0.1-1.7 0-2.5 0q-1.4-0.2-2.7-0.5c-3-0.7-6.2-0.7-9.1-1.8-0.1-0.3 0.1-0.7 0.5-0.8z"/>
			<path id="&lt;Path&gt;" class="s6" d="m191.8 227.8q0.4-0.4 0.9-0.7 1-0.7 2.1-1.2 0.7-0.4 1.5-0.7c0.1 0 0.1 0.1 0.2 0.1q7.3 2 14.7 2.8c2.6 0.3 5.4 0.5 7.9 1.3q0.6 0.5 1.1 1-4.1-1-8.3-1.3c-2.3-0.2-4.7-0.1-7-0.3-2.2-0.2-4.3-0.7-6.4-0.5q-0.7 0-1.5 0.1-2.4 0-4.7-0.5-0.3-0.1-0.5-0.1z"/>
			<path id="&lt;Path&gt;" class="s6" d="m204.9 231.1c2.1-0.4 4.3-0.2 6.4 0q3.7 0.4 7.4 0.3c0.7-0.1 1.5-0.1 2.2-0.2q0.4 0.6 0.9 1.1 0.8 1.2 1.6 2.5 0.2 0.4 0.3 0.8-0.3-0.1-0.6-0.1c-1.3-0.1-2.5-0.2-3.8-0.4q-1.4-0.2-2.8-0.6-1.1-0.3-2.2-0.7c-0.6-0.3-1.1-0.6-1.7-0.8q-1.1-0.5-2.2-0.8c-1.8-0.5-3.6-1.1-5.5-1.1z"/>
			<path id="&lt;Path&gt;" class="s6" d="m216.2 233.1c0.9-0.3 1.9 0 2.9-0.2 0.4-0.1 0.7-0.2 1.1-0.3q0.7-0.2 1.6-0.3 0.8 1.2 1.6 2.5-1.8-0.1-3.6-0.5-1-0.2-2-0.4c-0.4-0.1-1.7-0.2-1.9-0.4-0.2-0.2 0.1-0.4 0.3-0.4z"/>
			<path id="&lt;Path&gt;" class="s6" d="m187.5 231.9q1-1.2 2.1-2.3 1.6 0.1 3.2 0.5 1.2 0.4 2.5 0.5c1.1 0.1 2.3-0.1 3.4-0.1 1.1-0.1 2.3 0.1 3.1 0.9q-2.2 0.2-4.4 0.3-3.8 0.3-7.5 0.3-1.2-0.1-2.4-0.1z"/>
			<path id="&lt;Path&gt;" class="s6" d="m193.3 227.3q-0.2-0.1-0.6-0.2 1-0.7 2.1-1.2 1.6 0.4 3.3 0.6c1.8 0.2 3.7 0.2 5.2 1.2l-2.3-0.2q-2.4-0.4-4.7-0.2-0.9 0.2-1.8 0.2-0.6 0-1.2-0.2z"/>
			<path id="&lt;Path&gt;" class="s6" d="m198.4 224.5q1.4-0.4 2.9-0.7 1.8-0.2 3.7-0.2c3.7 0.1 7.2 1.1 10.4 3q1.4 0.8 2.6 1.8c-1.4 0-3.3-0.6-4-0.7q-2.4-0.4-4.8-0.8-5.6-1-10.8-2.4z"/>
			<path id="&lt;Path&gt;" class="s6" d="m201.3 223.8q1.8-0.2 3.7-0.2c3.7 0.1 7.2 1.1 10.4 3q-0.4-0.1-0.9-0.1c-0.3 0-0.5 0.1-0.8 0.1q-0.6 0.1-1.1 0-2-0.1-4-0.6c-1.3-0.3-2.4-0.8-3.6-1.2q-1.8-0.6-3.7-1z"/>
			<path id="&lt;Path&gt;" class="s6" d="m191.2 250c0.1-0.3 0.5-0.3 0.7-0.4 1.2-0.3 2.2-1.1 3.3-1.6 1.8-0.8 3.8-0.9 5.8-1q1.6 0 3.2 0.1 1.5 0.2 2.9 0.5c2 0.5 4 1 6 1.6 3.6 1.1 7.2 2.2 11 2.9q0.3 0.1 0.6 0.2-0.3 1-0.8 2c-1.2 0-2.5-0.2-3.6-0.2-3.4-0.1-6.6 0.7-9.8 1.7q-1.4 0.5-2.8 0.6c-1.3 0.1-2.6-0.3-3.9-0.6q-2.2-0.7-4.3-1.4-1.2-0.3-2.3-0.8c-0.6-0.3-1.1-0.8-1.7-1.1q-1.5-0.9-3.1-1.2-0.5-0.1-1-0.4c-0.3-0.2-0.4-0.6-0.2-0.9z"/>
			<path id="&lt;Path&gt;" class="s6" d="m210.8 253.9q-1.9 0.4-4 0.3-2.6 0-5.1-0.5-2-0.6-3.8-1.4c-0.8-0.3-1.5-0.7-2-1.4 4-2.4 9.2-2 13.7-0.9 2.8 0.6 5.6 1.5 8.3 2.4-0.2-0.1-1.4 0.6-1.8 0.7q-0.7 0.1-1.5 0c-1.4-0.1-2.5 0.5-3.8 0.8z"/>
			<path id="&lt;Path&gt;" class="s6" d="m184 251.4q0.7 0.1 1.4 0.2c0.9 0.2 1.9 0.7 1.8 1.6 2-0.1 4.2 0 5.9 1.1q-1.2 0.3-2.4 0.6l20.2 3.2q0.9 0.2 1.8 0.1c1.2-0.1 2.3-0.9 3.5-1.2 1.6-0.4 3.9-0.1 5.7 0.7q-0.7 0.9-1.5 1.8-0.9 1-1.9 1.8-1 0.9-2.2 1.7c-4.3-0.4-8.6-1.5-12.8-2.7q2.4-0.2 4.7-0.4c0.9-0.1 1.8-0.2 2.4-0.8q-3.8-0.6-7.6-1-2.2-0.2-4.4-0.3-3.7-0.2-7.5-0.5-0.3-0.1-0.6 0.1c-0.3 0.1-0.4 0.4-0.2 0.6q0.1 0.2 0.4 0.2l2.3 0.5c0.7 0.2 1.6 0.6 1.4 1.3q-2 0-4 0-0.7 0-1.4-0.1c-2.3-2.4-4-5.3-5-8.5z"/>
			<path id="&lt;Path&gt;" class="s6" d="m191.1 261.9q1.7-0.2 3.4-0.1c2.5 0.1 5 0.7 7.5 1.2q1 0.3 2 0.3c0.8-0.1 1.5-0.3 2.3-0.3 1.2 0 2.3 0.5 3.4 0.9 0.7 0.2 2.3 0.4 3.5 0.8q-1.2 0.6-2.5 0.9-2.3-0.8-4.8-1.1c-3.5-0.5-7.1-1-10.6-0.7q-0.5 0-1 0.2-0.6-0.4-1.2-0.7-0.6-0.4-1.3-0.9-0.3-0.2-0.7-0.5z"/>
			<path id="&lt;Path&gt;" class="s6" d="m214.1 260.2c1.9-1 4.2-1 6.3-0.7q-0.9 1-1.9 1.8-2.2-0.3-4.4-1.1z"/>
			<path id="&lt;Path&gt;" class="s6" d="m195.9 264.8c3.2-0.6 6.4-0.2 9.5 0.5q1.7 0.4 3.3 0.8c-4.3 0.9-8.8 0.4-12.8-1.3z"/>
			<path id="&lt;Path&gt;" class="s6" d="m191.8 262.4q0.3 0 0.6-0.1c1.5-0.1 3.1-0.2 4.5 0.2-1-0.3-2.4 0.3-3.8 0.8q-0.7-0.4-1.3-0.9z"/>
			<path id="&lt;Compound Path&gt;" class="s6" d="m183.2 242.6q-0.2 1-0.2 2 0 1 0.1 2 0.7 0.2 1.5 0.1 3.6-0.3 7.2-0.5c-0.8-0.9-2.1-0.9-3.2-0.8-1.1 0.1-2.4 0.3-3.4-0.2 1.7-1.1 3.7-1.7 5.8-1.7 1.4 0.1 2.8 0.5 4.2 0.3 1.2-0.1 2.4-0.6 3.6-0.5q0.9 0.2 1.7 0.5c6.2 1.7 13.1-1.7 19 0.6q-5.5 0.7-11 1.3c1.5 1.4 3.8 1.3 5.9 1.5 2.3 0.3 4.5 1.1 6.4 2.3q1 0.8 2.1 1.1 1 0.2 1.9 0 0.2 0 0.4 0 0.4-1.4 0.6-2.8 0.1-0.6 0.1-1.3 0-0.5 0.1-0.9 0-0.9-0.1-1.7-0.1-2.5-0.8-4.9-0.1-0.5-0.3-1c-1.5 0-3 0.2-4.5-0.1-0.6-0.1-1.2-0.3-1.8-0.4q-1-0.2-2-0.2l-13.8-0.3c-1.9 0-3.8 0-5.7-0.3 4.2-1 8.6-1.4 12.9-1.1 0.7 0 1.5 0 2-0.3-2-1.5-4.9-0.9-7.4-1.2-1.2-0.1-2.3-0.5-3.5-0.4-1 0-2.1 0.3-3.1 0.4q-1.7 0.2-3.4 0-4.1-0.1-8.2-0.3-1.4 2.1-2.2 4.5-0.7 2.1-0.9 4.3zm10.2-7q1.3-0.4 2.7-0.4l0.3 0.3c-1.4 0.6-3 0.8-4.5 0.4q0.7-0.1 1.5-0.3z"/>
		</g>
	</g>
	<g id="Clock">
		<g id="&lt;Group&gt;">
			<g id="&lt;Group&gt;">
				<path id="&lt;Path&gt;" class="s7" d="m282.4 89.4c-0.9 16.7-15.2 29.6-31.9 28.7-16.7-0.9-29.5-15.2-28.6-31.9 0.9-16.7 15.1-29.5 31.8-28.6 16.7 0.9 29.5 15.1 28.7 31.8z"/>
				<path id="&lt;Path&gt;" class="s20" d="m282.4 89.4c-0.9 16.7-15.2 29.6-31.9 28.7-16.7-0.9-29.5-15.2-28.6-31.9 0.9-16.7 15.1-29.5 31.8-28.6 16.7 0.9 29.5 15.1 28.7 31.8z"/>
				<path id="&lt;Path&gt;" class="s7" d="m282.4 86.3c-0.9 16.7-15.2 29.5-31.9 28.6-16.7-0.8-29.5-15.1-28.6-31.8 0.9-16.7 15.1-29.5 31.8-28.6 16.7 0.8 29.5 15.1 28.7 31.8z"/>
				<path id="&lt;Path&gt;" class="s14" d="m277.2 86c-0.7 13.9-12.5 24.6-26.4 23.8-13.9-0.7-24.5-12.6-23.8-26.4 0.7-13.9 12.6-24.6 26.4-23.8 13.9 0.7 24.6 12.5 23.8 26.4z"/>
				<g id="&lt;Group&gt;">
					<path id="&lt;Compound Path&gt;" class="s21" d="m255.4 106l-0.9-5.9q0.2 0 0.3-0.1l1.1 5.9q-0.3 0.1-0.5 0.1zm-9.8-0.8q-0.2 0-0.5-0.1l2-5.7q0.1 0.1 0.3 0.1zm19.3-3.2l-3.5-4.8 0.3-0.2 3.6 4.8q-0.2 0.1-0.4 0.2zm-28.1-2.1q-0.2-0.2-0.3-0.4l4.3-4.1 0.3 0.3zm34.7-5.8l-5.4-2.6 0.1-0.3 5.5 2.4-0.1 0.1q0 0.2-0.1 0.4zm-40-3.1q-0.1-0.2-0.2-0.5l5.8-1.6q0 0.2 0.1 0.4zm36.2-6.9q-0.1-0.2-0.1-0.3l6-0.4q0 0.3 0 0.5zm-30.9-2.3l-5.8-1.1 0.1-0.5 5.8 1.2zm28.9-4.8l-0.2-0.3 5.1-3.1q0.1 0.2 0.3 0.4zm-25.8-1.9l-4.7-3.7q0.2-0.2 0.3-0.4l4.6 3.8zm20.7-3.5q-0.2 0-0.3-0.1l3.1-5.1q0.2 0.1 0.4 0.2zm-14.7-1.1l-2.5-5.5q0.3-0.1 0.5-0.2l2.3 5.6q-0.2 0-0.3 0.1zm7.6-1.3h-0.3l0.4-6q0.2 0 0.5 0.1z"/>
				</g>
			</g>
			<g id="&lt;Group&gt;">
				<path id="&lt;Path&gt;" class="s22" d="m241.1 82.1l11.5 3.3 0.7-13.6"/>
				<path id="&lt;Path&gt;" class="s21" d="m254.1 84.8c0.1 1-0.7 1.9-1.8 1.9-1 0-1.9-0.8-1.9-1.8 0-1 0.8-1.9 1.8-1.9 1.1-0.1 1.9 0.8 1.9 1.8z"/>
			</g>
		</g>
	</g>
	<g id="Character">
		<g id="&lt;Group&gt;">
			<g id="&lt;Group&gt;">
				<g id="&lt;Group&gt;">
					<path id="&lt;Path&gt;" class="s7" d="m265.3 323.9c0 0-6.6-43.5-8-54.1-1.4-10.6 0-16 4-19.4 4-3.5 22.6-8.1 35.1-8.6 9.8-0.3 14.8 1.6 23.1 23.5l-13.8 6c0 0 11.1 36.2 9.7 50.2z"/>
					<path id="&lt;Path&gt;" class="s20" d="m303.2 272.4l-2.3 1-3.5-9.1 3.7 12.8 3.1-1.4z"/>
				</g>
				<g id="&lt;Group&gt;">
					<path id="&lt;Path&gt;" class="s7" d="m261.3 250.3c0 0-7.8 3.4-10.9 11.1-1.4 3.8-4.5 10.6-7.4 17.2l23 3.5z"/>
					<path id="&lt;Path&gt;" class="s23" d="m244.9 279c0 0-9.3 16.3-6.5 23.5h16.7l0.7-7.2-3-1.8 6.1-12.8z"/>
					<path id="&lt;Path&gt;" class="s20" d="m252.8 293.5c0 0-4.9-1.2-8.5 0.4 0 0 3-4.2 9-1.5z"/>
					<path id="&lt;Path&gt;" class="s20" d="m255.6 268.2c0 0-1 5.3 0.2 8.8 1.1 3.4 3.1 3.7 3.1 3.7z"/>
				</g>
				<g id="&lt;Group&gt;">
					<path id="&lt;Path&gt;" class="s9" d="m305.4 213.2c-1.2-0.5-2.5-0.7-3.7-1.3-2.6-1.2-4.1-3.9-5.2-6.6-1.1-2.6-1.9-5.5-3.8-7.6-1.9-2-4.6-3.2-7.3-3.2-2.7 0-5.4 1.2-7.2 3.2l6.1 21.9c1.4 2.5 3.7 4.5 6.3 5.7 1.2 0.4 2.4 0.8 3.6 0.4 1.1-0.4 2-1.7 1.5-2.8 1 1.5 3.1 2 4.7 1.2 1.6-0.8 2.3-2.8 1.7-4.5 1.2 0 2.5 0 3.7-0.5 1.1-0.6 2.1-1.7 2.1-2.9-0.1-1.4-1.3-2.4-2.5-3z"/>
				</g>
				<g id="&lt;Group&gt;">
					<g id="&lt;Group&gt;">
						<path id="&lt;Path&gt;" class="s9" d="m257.7 203.3c-5 5-3.1 10.4-2.3 14.4 1.8 5.2 2.4 9 4.9 14l8.4-34.4c-3.2 1.3-5.5 1-11 6z"/>
						<path id="&lt;Path&gt;" class="s9" d="m265 199c5.2-3.7 11.3-1.6 14.9-0.1 4.1 2.3 7 6.3 8 10.9 0.8 4.3 1.7 9.6-0.4 12.3-1.3 1.6-3.1 2.6-5.1 2.7l-25.1-15.7c1.7-3.9 4.3-7.4 7.7-10.1z"/>
						<g id="&lt;Group&gt;">
							<path id="&lt;Path&gt;" class="s23" d="m276 253.8c3.5-0.3 3.2-0.4 5.2-1.7 9.9-6.3 5.5-9.5 5.5-9.5-3-2.5-2.3-5.7-2.4-11.2 0-0.1 0.3-2.9 0.3-3.1-0.1-0.7-0.9 2.5-1.4 2-1.4-1.4-3.7-1.4-5.1 0l-5.5 2.8q0 0.1 0 0.2c0.5 2.9 1 5.2 1.4 7-0.1 0.2 0 0.4 0.1 0.6 0 0.2 0 0.4 0.1 0.7 0.3 2.4-2.7 4.7-2.7 8.1-0.9 0.8 1.1 4.1 4.5 4.1z"/>
							<path id="&lt;Path&gt;" class="s6" d="m272.6 233.1q0 0.1 0 0.2c0.5 2.9 1 5.2 1.4 6.9q0 0.4 0.1 0.7 0 0.3 0 0.7c2.9-1.4 5.5-3.2 7.5-5.6 1.5-1.7 2.5-3.9 2.7-6.3-0.2-0.7-0.7 1.1-1.2 0.6-1.4-1.4-3.6-1.4-5 0z"/>
							<path id="&lt;Path&gt;" class="s23" d="m284.6 211.8c1.6 10.1 2.5 14.3-1.2 20.6-5.6 9.5-18 9.5-22.6 0.3-4-8.4-6.1-23.4 2.5-29.7 8.5-6.4 19.6-1.2 21.3 8.8z"/>
							<path id="&lt;Path&gt;" class="s23" d="m290.9 219.4c-0.6 2.3-2.1 4.1-3.7 5.1-2.5 1.3-5-2.5-4.8-5.4 0.1-2.5 2.3-4.8 5-5 2.6-0.2 4.2 2.6 3.5 5.3z"/>
							<path id="&lt;Path&gt;" class="s24" d="m285.3 220.4c-0.2-1 0-2 0.5-2.8 0.5-0.8 1.4-1.4 2.3-1.6"/>
							<g id="&lt;Group&gt;">
								<g id="&lt;Group&gt;">
									<path id="&lt;Path&gt;" class="s9" d="m272.7 218.4c0.2 1.1-0.1 2.1-0.8 2.3-0.6 0.2-1.3-0.5-1.6-1.6-0.2-1 0.1-2.1 0.8-2.2 0.6-0.2 1.3 0.5 1.6 1.5z"/>
									<path id="&lt;Path&gt;" class="s9" d="m262.9 221.1c0.3 1-0.1 2-0.7 2.2-0.6 0.2-1.4-0.5-1.6-1.5-0.2-1 0.1-2 0.8-2.2 0.6-0.2 1.3 0.5 1.5 1.5z"/>
									<path id="&lt;Path&gt;" class="s9" d="m273.7 214.2q-0.2 0.1-0.3 0c-2-1-3.5 0-3.6 0-0.2 0.1-0.5 0.1-0.6-0.2-0.1-0.2-0.1-0.5 0.2-0.7 0.1 0 2-1.3 4.4 0 0.2 0.1 0.3 0.4 0.2 0.7q-0.1 0.1-0.3 0.2z"/>
									<path id="&lt;Path&gt;" class="s9" d="m258.3 217q-0.2 0-0.3-0.1c-0.1-0.2-0.1-0.5 0.1-0.7 1.9-1.9 3.8-1.4 3.9-1.4 0.2 0.1 0.4 0.3 0.3 0.6-0.1 0.3-0.3 0.4-0.6 0.4 0 0-1.6-0.4-3.1 1.1q-0.1 0.1-0.3 0.1z"/>
									<path id="&lt;Path&gt;" class="s25" d="m265.5 219.9c0 0-0.6 4.1-1.7 6.9-0.2 0.5 0.2 1 0.7 1 1.4 0.2 2.7-0.6 2.7-0.6z"/>
								</g>
								<path id="&lt;Path&gt;" class="s9" d="m271.5 216.8l-2.5 0.1c0 0 1.8 1.3 2.5-0.1z"/>
								<path id="&lt;Path&gt;" class="s9" d="m261.6 219.5l-2.4 0.1c0 0 1.7 1.4 2.4-0.1z"/>
							</g>
						</g>
						<path id="&lt;Path&gt;" class="s9" d="m281.9 214.8c0 0-6.9-5.5-8.2-11 0 0-21.7 1.2-16.5 18.5 0 0-6.8-16.4 9.4-22 16.2-5.6 23.7 15.5 17.6 24.5 0 0 2-6.6-2.3-10z"/>
					</g>
					<path id="&lt;Path&gt;" class="s9" d="m286.9 213.8c-1.5-6.7-5.2-11.3-10.3-12.5-6.9-1.5-15 0.3-15 0.3-0.1 2-4 8-4.1 10.1 1.9-0.5 7.4-4.5 9-5.4l-1.1 1.4c0 0 3-0.5 4.5-2.4 3.2 8.2 14.2 8.5 17 8.5z"/>
					<path id="&lt;Path&gt;" class="s7" d="m275 197.4c0 0 4.9 0.4 7.6 3.6 0 0-2.6-4.4-7.6-3.6z"/>
					<path id="&lt;Path&gt;" class="s26" d="m270.8 229.6c1.1-0.9 2.5-1.9 3.2-3.3"/>
				</g>
				<path id="&lt;Path&gt;" class="s9" d="m271.6 246c0 0-5.7 9.4 4.6 9 10.3-0.3 13.4-10.1 13.8-12.8l-3.2-1.1c0 0-1.8 8-8.8 9.6-7 1.6-5.4-5.6-5.4-5.6z"/>
				<g id="&lt;Group&gt;">
					<path id="&lt;Path&gt;" class="s23" d="m316.6 266.5c0 0 5.8 16.6 6.5 21.2 0.2 1.8 2 6.2-3.5 10.2-4.9 3.4-39.8 4.6-39.8 4.6l-1.1-9 28.8-7.5-4.3-13.6z"/>
					<g id="&lt;Group&gt;">
						<path id="&lt;Path&gt;" class="s23" d="m280.6 293.1c0 0-5.3-4.1-5.5-4.2-0.2 0-6.6-0.3-7.6 0.4-0.9 0.8-1.5 4.2-1.5 4.2 0 0-2.4 0.9-2.8 2.1-0.5 1.2 0.4 2.3 0.4 2.3 0 0-0.5 1.3 0.3 2.3 0.9 1.1 0.9 1.1 0.9 1.1 0 0-0.9 1-0.1 1.7 0.7 0.8 17.7-0.5 17.7-0.5z"/>
						<path id="&lt;Path&gt;" class="s20" d="m266 293.5l7.4-1.2c0 0-3.3-0.5-5.1 0-1.7 0.5-2.3 1.2-2.3 1.2z"/>
						<path id="&lt;Path&gt;" class="s9" d="m274.6 282.7l-3.8 10.1c-0.8-0.2-1.7 0.4-2.2 0.3l4.2-11.2c0.2-0.5 0.8-0.7 1.3-0.5 0.5 0.2 0.8 0.8 0.6 1.3z"/>
					</g>
					<path id="&lt;Path&gt;" class="s20" d="m307.5 286c0 0 6.3 0.3 7.2 3.9 0 0 0-5.8-7.7-5.4z"/>
				</g>
				<g id="&lt;Group&gt;">
					<path id="&lt;Path&gt;" class="s23" d="m255.8 295.3c0 0 11.8-0.9 14.6 1.4 2.8 2.3 5.4 6.1 5.4 6.1l-21.3-0.3z"/>
					<path id="&lt;Path&gt;" class="s20" d="m262.4 295.1c0 0-0.8 3.3 0.6 5.7 0.5 0.8-0.5 1.5-0.2 1.8l3.2 0.1-2.5-7.6z"/>
				</g>
			</g>
			<g id="&lt;Group&gt;">
				<path id="&lt;Path&gt;" class="s23" d="m212.4 436.6l1.4-7.9 15.9 1.2-4.4 11.4-9.4 0.3z"/>
				<g id="&lt;Group&gt;">
					<g id="&lt;Group&gt;">
						<path id="&lt;Path&gt;" class="s7" d="m210.8 435.2h4.2c1 0 1.8 0.5 2.4 1.3 2.4 3.3 4.2 2 6.9-1.1 1.6-0.2 2.1 1.8 2.2 2.3l3.1 11.4c0.3 0.9-0.2 1.9-1.2 2.2q-0.2 0.1-0.5 0.1c-5.1 0-7.5 0-13.8 0h-19.4c-5.3 0-6.4-5.4-4.2-5.9 9.8-2.1 16.7-5 19.7-7.8 0.6-0.5 0-0.9 0.6-2.5z"/>
						<path id="&lt;Path&gt;" class="s27" d="m208.1 439c1.4 0.2 2.8 1 3.6 2.3"/>
						<path id="&lt;Path&gt;" class="s27" d="m205.3 440.4c1.5 0.2 2.8 1.1 3.6 2.3"/>
						<path id="&lt;Path&gt;" class="s27" d="m202.1 442.1c1.4 0.2 2.8 1 3.5 2.3"/>
					</g>
				</g>
				<path id="&lt;Path&gt;" class="s23" d="m216.6 412.2l-3.4-7.2 13.6-8.3 3.1 11.9-7.6 5.7z"/>
				<g id="&lt;Group&gt;">
					<g id="&lt;Group&gt;">
						<path id="&lt;Path&gt;" class="s7" d="m214.5 412l3.5-2.4c0.7-0.5 1.7-0.6 2.6-0.3 3.9 1.2 4.7-0.8 5-4.9 1.3-1.1 2.7 0.2 3.1 0.6l9.2 7.4c0.8 0.7 0.9 1.8 0.3 2.6q-0.2 0.2-0.4 0.3c-4.2 3-6.1 4.3-11.3 8l-15.8 11.2c-4.3 3.1-8.3-0.7-6.8-2.3 6.7-7.4 10.7-13.8 11.5-17.8 0.2-0.8-0.5-0.8-0.9-2.4z"/>
						<path id="&lt;Path&gt;" class="s27" d="m214.5 416.7c1.3-0.7 2.8-0.8 4.2-0.2"/>
						<path id="&lt;Path&gt;" class="s27" d="m213 419.5c1.3-0.7 2.9-0.8 4.3-0.2"/>
						<path id="&lt;Path&gt;" class="s27" d="m211.3 422.7c1.3-0.7 2.9-0.8 4.3-0.2"/>
					</g>
				</g>
				<path id="&lt;Path&gt;" class="s9" d="m265.7 320.6c0 0-50.6-6.9-65.9 7.5 0 0-11.8 7.5-7.2 32.8 2.9 15.5 11.8 35.7 21.2 48.4l13.3-11.3c0 0-7.3-31.1-7.8-47l18.4-1.1 26.3-18 2.8-7.5z"/>
				<path id="&lt;Path&gt;" class="s20" d="m221.3 350.8c0 0-1.4-4.7-0.1-10.5 1.3-5.8 4.6-11.5 22.7-13.8 18.1-2.3-20.7 24.3-20.7 24.3z"/>
				<path id="&lt;Path&gt;" class="s9" d="m315.4 320.1c0 0 1.4 14.4-3.2 24.9-4.6 10.6-20.7 14.4-31.6 13.7-10.9-0.7-25-1.6-30.9 0.1 0 0-7.8 43.8-21.1 75.8l-16.2-1.4c0 0 8.8-61.9 10.2-76.2 1.4-14.4 0.7-16.6 9.5-23.6 8.8-7 53.7-16.5 83.3-13.3z"/>
				<path id="&lt;Path&gt;" class="s20" d="m221.3 368.5l-5.3 39c0 0-0.1-20.6 0.2-26.8 0.5-7.6 5.1-12.2 5.1-12.2z"/>
			</g>
			<g id="&lt;Group&gt;">
				<path id="&lt;Path&gt;" class="s28" d="m237 447.9l17.7-83.8h60l13.3 83.8"/>
				<path id="&lt;Path&gt;" class="s29" d="m237 447.9l17.7-83.8h60l13.3 83.8"/>
				<path id="&lt;Path&gt;" class="s7" d="m316.3 364.1h-63c-1.7 0-3.1-1.4-3.1-3.1 0-1.8 1.4-3.2 3.1-3.2h63c1.7 0 3.1 1.4 3.1 3.2 0 1.7-1.4 3.1-3.1 3.1z"/>
			</g>
			<g id="&lt;Group&gt;">
				<path id="&lt;Path&gt;" class="s9" d="m339.1 328.5h-43.1v-18.9h43.1z"/>
				<path id="&lt;Path&gt;" class="s10" d="m339.1 328.5h-43.1v-18.9h43.1z"/>
				<g id="&lt;Group&gt;">
					<path id="&lt;Path&gt;" class="s9" d="m293.1 328.5h-135.2v-20.9h135.2z"/>
					<path id="&lt;Path&gt;" class="s10" d="m293.1 328.5h-135.2v-20.9h135.2z"/>
					<path id="&lt;Path&gt;" class="s9" d="m298.1 447.9h-5v-141.9h5z"/>
					<path id="&lt;Path&gt;" class="s15" d="m298.1 447.9h-5v-141.9h5z"/>
					<path id="&lt;Path&gt;" class="s9" d="m342.2 447.9h-5.1v-141.9h5.1z"/>
					<path id="&lt;Path&gt;" class="s15" d="m342.2 447.9h-5.1v-141.9h5.1z"/>
					<path id="&lt;Path&gt;" class="s9" d="m160.4 447.9h-5v-141.9h5z"/>
					<path id="&lt;Path&gt;" class="s15" d="m160.4 447.9h-5v-141.9h5z"/>
					<g id="&lt;Group&gt;">
						<path id="&lt;Path&gt;" class="s9" d="m343.8 309.6h-193.4v-7.1h193.4z"/>
						<path id="&lt;Path&gt;" class="s15" d="m343.8 309.6h-193.4v-7.1h193.4z"/>
					</g>
				</g>
			</g>
			<g id="&lt;Group&gt;">
				<path id="&lt;Path&gt;" class="s7" d="m281.9 302.7h-55.5v-1.9h55.5z"/>
				<path id="&lt;Path&gt;" class="s15" d="m281.9 302.7h-55.5v-1.9h55.5z"/>
			</g>
		</g>
	</g>
</svg>