<?xml version="1.0" encoding="UTF-8"?>
<svg version="1.1" viewBox="0 0 2048 765" width="3160" height="1181" xmlns="http://www.w3.org/2000/svg">
<path transform="translate(0)" d="m0 0h2048v764h-2048z" fill="#81CCCB"/>
<path transform="translate(731,386)" d="m0 0h585v254l-1 2h-583l-1-1z" fill="#FBFCFB"/>
<path transform="translate(412,398)" d="m0 0h194l1 1v252l-2 7h-193z" fill="#FBFCFB"/>
<path transform="translate(1441,398)" d="m0 0h194v259l-3 1h-191l-1-2z" fill="#FBFCFB"/>
<path transform="translate(549)" d="m0 0h195v257l-1 1h-193l-1-4z" fill="#FBFCFB"/>
<path transform="translate(1303)" d="m0 0h194l1 3v250l-1 5h-193l-1-1z" fill="#FBFCFB"/>
<path transform="translate(886,141)" d="m0 0h275v177l-1 1h-274z" fill="#FAFCFB"/>
<path transform="translate(731,643)" d="m0 0h586l-1 61-1 1-201 1-9-1 8 16 10 17 4 7 7 13 2 6h-226l2-6h2l2-6 5-9 6-10 6-12 6-9 3-7h-210l-1-1z" fill="#74A1A1"/>
<path transform="translate(1247,424)" d="m0 0 7 1 4 4h7l1 4-1 1h-9l-2 4-3 2h-5l-2-2-4 1-15 6 41 1-1 4-54 1-16 7-7 3 77 1v4l-3 1h-88l-11 5-13 5-1 1h115l2 1v3l-129 1-12 5-14 6 154 1 1 3-2 1h-160l-2 4-3 2-7-1-4-4h-95-3l-5 5-7-1-2-1-2-7-1-4-7-6-6-2-1-1-71-1-1 4-2 2h-6l-5-4-1-6v-2l-5-1-9-7-1-2-5-3-3-4-5-2-5-1h-5l-3 3-3 2-2 4h-2l-2 4-1 1h-5v-4h-54v-4l59-1 3-3h2l2-5 1-2-67-1-1-4 69-1 2-4 2-1h6l5 5 67 1 2-5 7-1 5 3 1 2h283l10-5 10-4 1-1-469-1-1-4 2-1 477-1 2-3z" fill="#70C4C9"/>
<path transform="translate(944,705)" d="m0 0h159l4 5 13 23 5 9 4 7 5 9 2 6h-226l2-6h2l2-6 5-9 6-10 6-12 6-9 2-4h2z" fill="#5E8486"/>
<path transform="translate(1311,368)" d="m0 0 4 1 2 3-1 13h-586v-14l1-2z" fill="#608789"/>
<path transform="translate(1085,204)" d="m0 0h27l3 2v89l-1 4-24 1-144-1-1-3v-39l1-2h30v40l3-2 1-52 1-1h29l1 1v52l-1 2 38-1 1-55 1-1h29l1 1v55h3l1-89z" fill="#61BFC6"/>
<path transform="translate(637,42)" d="m0 0h9v53l8-7 18-18 7-6 5-6 4 2v2h2l8 15 2 9v19l-2 9-5 10-8 10-7 6-14 7-9 2h-19l-16-6-9-6v-2l-4-2-7-9-6-14-1-6v-18l4-13 6-10 9-10 14-8 5-2z" fill="#F06F28"/>
<path transform="translate(928,449)" d="m0 0h271l-3 3-16 7-7 3h-127l-5-4h-7l-3 1v8h-2l-1 3 6-1h11l7 6 6 2 6 4 3 1 1 2 16 8 2 3h-94l4-4 4-2 1-4-1 1-11 4-13-1-6-4v-2l-4-1v-2h-2v-2l-5-2-16-12-5-2v-2l-5-2v-2l-4-2z" fill="#8BCFD0"/>
<path transform="translate(1354,291)" d="m0 0h7v5h6l2 2h8l5 4-1 6 1 7h3l1-5h2l-1-8 4-4 6 1 9-4 2-4 7 1v4l12 3 4-1 5 4-1 8 3 7 4 2v7l-4 1-4 9 1 6-4 4-6-1-9 4-1 4h-8l-1-4-9-4h-4l-1 2-5-5-2-9v-4l-2 1-2 5 1 6-1 2h-2l-1 3-4 1-4-1-8 4-1 3h-8l-2-4-7-3h-8l-4-4 1-8-2-2v-5l-5-1v-8l5-3 2-5v-5l-1-3 6-5 6 1 8-2 1-4z" fill="#A2E2E3"/>
<path transform="translate(886,124)" d="m0 0h276v16h-277l-1-12z" fill="#5F8687"/>
<path transform="translate(835,455)" d="m0 0h9l2 2 5 2 4 5 4 2 5 5 5 4 4 1 2 8 4 3h6l3-5h71l2 2 6 2 8 7v5 3l-1-1-173-1-2 4-5 2-4-1-4-3v-2h-23l-2-1 1-3 24-1 5-5 7-1 4-5h-19l-21-1v-3l5-1h40l6-7h2l1-3 1 2 6-2 4-4 3-5 4-1z" fill="#7FC9CC"/>
<path transform="translate(872)" d="m0 0h14l5 2h6l2-1 5 5-1 7 4 2v-5l4-4 11-1 2-4 6 1 3 3 7 1 4 2 3 12 4 3v5l-4 3-2 7v4l-3 3h-7l-5 5h-8l-1-3-4-2h-7v-2l-3-1v-7l-4 4-1 4h2l-2 4-2 3-8-1-4 2h-3l-1 5h-9v-4l-7-2-5-1h-4l-3-3v-7l-3-6v-3h-4v-8h4l1-4 3-8-1-5h2l1-3h9z" fill="#A2E2E3"/>
<path transform="translate(1034,457)" d="m0 0h7l3 2v2h129l4-2 3 1-5 3-12 2-1 4 1 3-13 5-1 1h115l2 1v3l-129 1-12 5-14 6 154 1 1 3-2 1h-160l-1 2v-5l2-3h-5l-1-3-9 2-10-5v-2l-5-1v-2l-5-1-3-1v-2h-2v-2l-5-2-14-7-1-4-2-1v-2l-8-1-3 1-1 2v-3z" fill="#75C7CA"/>
<path transform="translate(1111,522)" d="m0 0 6 1 3 3 2 6 18 11 13 8 7 4h9l7 1 19-8 10-4 31-12 4-2 4-7 6-1 5 3 1 7-3 4-6 1-7-1-16 6-5 3h-7v2l-16 6-12 5-10 5-2 5-2 1h-7l-4-5v-3l-8-5v-2l-4-1-19-11-7-5h-15l-11 7-6 3-11 7h-3v2l-12 7-16 10-6 2-2 8-4 3-7-1-3-3-1-7-5-2-9-5-13-8-11-7h-12l-3 1v2l-8 6-4 4-11 9-4 3h-2l-2 4-10 8h-2v7l-4 5h-7l-4-4-2-7-17-11-5-4-8-6-17-1-15 7-3 2h-4v2l-13 5-16 7-3 2-3 6-3 2h-6l-5-5 2-7 2-2h13l20-9 9-4 26-12 3-6 3-2 7 1 3 4 2 6 11 7 6 4v2l4 1 10 7h12l6-5 1-2h3v-2l10-8 10-9 10-8h2l1-3h2v-6l4-5h7l4 4 1 6 5 2 35 21 7-1h6l11-7 24-14 22-14 8-5 1-5z" fill="#F26F71"/>
<path transform="translate(1443,381)" d="m0 0h192l1 1v16h-195l-2-2 1-14z" fill="#618889"/>
<path transform="translate(418,381)" d="m0 0 189 1v15l-1 1h-195v-16z" fill="#608789"/>
<path transform="translate(552,427)" d="m0 0 6 1 1 2h6l2 1 10 1 2 1 11 1 4 2v3l-10 4-5-1-7 2v7l-5 4-1 3h-2v-2h-2v8l-5 2v5l-3 2 1 6-4-1-1-9-4-2-6 5-3-6-5-2-1 4-2 1-2 6-2 2-1 7-4 8-4 2-4-1-3-8v-6l-1-5h-8l-4-4v-8l3-5 1-5 2-3h-2l-1-3 4-3 1 4 3-2v-6l5-5 7-1 3 1v2l11-2h4v-2l7-2z" fill="#F26F74"/>
<path transform="translate(928,449)" d="m0 0h271l-3 3-16 7-7 3h-127l-5-4h-7l-3 1v3h-90l-13-11z" fill="#FCFDFC"/>
<path transform="translate(637,42)" d="m0 0h9v53l-3 3-16 8-15 8-10 5h-2l-1 3-5-12-1-6v-18l4-13 6-10 9-10 14-8 5-2z" fill="#F26F73"/>
<path transform="translate(659,308)" d="m0 0h16l8 4 5 5 3 5 1 8 9 3 7 6 2 5-1 11-4 7h-2v2l-8 4h-53l-8-2-7-5-4-8 1-4 32-1 7-4 3-6-1-12-10-5-3-7 1-4z" fill="#FCFDFC"/>
<path transform="translate(1085,204)" d="m0 0h27l3 2v89l-5 1h-24l-3-1 1-90z" fill="#F06F28"/>
<path transform="translate(1242,427)" d="m0 0v3l-2 4-4 1-473-1-1-4 2-1 477-1z" fill="#BAD2D1"/>
<path transform="translate(835,440)" d="m0 0h6l5 5 67 1v7l-5 4h-2v2l-8 5h-3l-2 4-4 3 1 1-2 5-2 1 1 5-4 4-4 1-5-4-1-6v-2l-5-1-9-7-1-2-5-3-3-4-5-2-5-1h-5l-3 3-3 2-2 4h-2l-2 4-1 1h-5v-4h-54v-4l59-1 3-3h2l2-5 1-2-67-1-1-4 69-1 2-4z" fill="#6EC4C8"/>
<path transform="translate(1157)" d="m0 0h28l2 5 5 1 9 7 3 8-1 7-3 7-8 6-4 1h-55l-6-2-7-6-3-5v-5l1-1 34-1 6-5 1-3v-10z" fill="#FCFDFC"/>
<path transform="translate(1121,527)" d="m0 0h120l-1 4-14 6-14 5-11 5-9 3-16 7-13-1-5-1-15-9-21-13-2-5z" fill="#FBFCFB"/>
<path transform="translate(485,419)" d="m0 0h6l7 3-4 9-2 5-6 3-2 4-4-2-3-10-6-3v-3h-3l-1 5 7 5v7l2 1 3 6v3l-4-2-5 6h-2l-1 4-2 2h-5l-1 2 5 3 1 2 10 1 5 3 1 2 7 3v4h-2l-1 5-4 2-1 5-4 3h-2l-1 6-4 1v-13l1-6h-2v-3h-2l-1-7-1-4-10-4-5-5-2-4h-2l-1-4 1-5-3-1-4-4h-7l-4 2v-3h-2v-9l7-1h12l2-5 5-1 2 1 1 3 2 1-1-4-1-3 5-2 6-3h8l2 1h7z" fill="#F26F74"/>
<path transform="translate(631,306)" d="m0 0h7l12 4 10-4h12l3 2-16 1-6 2 2 9 10 6 2 13-5 7-6 3-32 1 1 6 3 6h-2l-4-7-2-6-9-3-4-4-2-5 1-7 1-4 10-5 2-7h2v-3l3-3z" fill="#A3E1E2"/>
<path transform="translate(811,482)" d="m0 0h61l4 5h9l3-5h71l11 8 4 5h-172l-1-4 1-2 5-3z" fill="#FBFCFB"/>
<path transform="translate(763,511)" d="m0 0h502l1 4h-504l-1-3z" fill="#BBD2D1"/>
<path transform="translate(763,413)" d="m0 0h502l1 4-3 1-501-1v-3z" fill="#BBD2D1"/>
<path transform="translate(762,609)" d="m0 0h503v4h-502l-2-2z" fill="#BBD2D1"/>
<path transform="translate(547,588)" d="m0 0 5 1 6 4 6 7 2 5-2 16-3 6-9 8-12 2-9-2-7-4-5-6-2-6v-12l5-10 6-5 4-2 14-1z" fill="#FAA21D"/>
<path transform="translate(471,589)" d="m0 0h11l4 1-1 6-4 8-1 4 5-2 7-4h5v2h2l1 2v15l-6 9-6 5-8 2h-8l-8-2-7-6-5-9v-13l5-10 5-5z" fill="#61BFC6"/>
<path transform="translate(981,240)" d="m0 0h29l1 1v52l-3 3-28-1-1-2 1-52z" fill="#F26F76"/>
<path transform="translate(994,543)" d="m0 0h90l-1 3-15 9-13 8-9 5-6 4h-9l-4 1-40-24-1-4 1-1z" fill="#FCFDFC"/>
<path transform="translate(1106,536)" d="m0 0h15l10 7 17 10 3 1 3 3 6 4v3h-98l4-4 7-4h2v-2l11-6 4-3 5-2z" fill="#FBFCFB"/>
<path transform="translate(444,72)" d="m0 0h7l1 3 5 2h6l3 3v6l2 6 6 1 1 4-6 3-3 5v7l-3 2h-6l-5 2-1 3h-7l-1-3-5-2h-6l-3-5-1-7-1-2-3-1v-6l4-3 2-11h2v-2l12-1z" fill="#88CDCD"/>
<path transform="translate(1594,72)" d="m0 0h6l4 4 3 1v2l3-2h3v2l3 1-1 5 3 7 3 1v6l-4 2-2 11-2 2h-6l-5 2-2 3h-6l-1-3-5-2h-6l-4-4 1-4-2-7-7-1 1-5 6-1 1-5 1-7 4-3 7-1z" fill="#88CDCD"/>
<path transform="translate(974,552)" d="m0 0h12l13 8 11 7 14 8 1 5-1 1h-81l-1-3 11-8 7-6h2l1-3 6-5h2v-2z" fill="#FCFDFC"/>
<path transform="translate(864,568)" d="m0 0 17 1 3 3 5 3 2 2 4 2 5 4 12 8v3l-100-1 3-3 17-7 6-3h4v-2l7-3z" fill="#FBFCFB"/>
<path transform="translate(763,527)" d="m0 0h342l1 4-4 1h-130l-210-1v-3z" fill="#BBD2D1"/>
<path transform="translate(928,593)" d="m0 0h337v4h-337z" fill="#BBD2D1"/>
<path transform="translate(876,5)" d="m0 0h8l8 4 5 5 3 7v10l-3 7h-2l-1 3-9 5h-11l-9-5-6-10v-10l5-10 8-5z" fill="#84CCCC"/>
<path transform="translate(1406,302)" d="m0 0h11l8 4 6 9 1 10-4 9-5 5-8 4h-7l-8-3v-2h-3v-2l-3-1-3-6v-12l4-9 8-5z" fill="#85CCCB"/>
<path transform="translate(1102)" d="m0 0h55l3 4v10l-3 5-5 4-34 1-1 5-2-3v-3l-7-1-6-4-3-6v-7z" fill="#A2E2E3"/>
<path transform="translate(1352,302)" d="m0 0h11l9 6 5 8v11l-4 8-2 3-5 3-11 2-12-5v-3l-3-1-3-8v-11l7-9 2-2z" fill="#81CCCB"/>
<path transform="translate(946,255)" d="m0 0h30v40l-31 1v-39z" fill="#D1413B"/>
<path transform="translate(646,41)" d="m0 0 14 1 15 6 3 2v2l4 2 3 3-2 4-5 5-15 14-15 15h-2z" fill="#60BBC1"/>
<path transform="translate(1108,173)" d="m0 0 3 3-1 3-19 14-12 9-17 13-22 16-9 7-5 1-2-4h-2l-9-11-12-14-3-4-5 1-10 8-16 12-19 14-8 6h-3l-1-5 19-14 21-16 15-11 4-3 5 1 12 14 9 11 6 7 4-1 28-21 19-14 13-10z" fill="#658D8F"/>
<path transform="translate(1247,424)" d="m0 0 7 1 4 4h7l1 4-1 1h-9l-2 4-3 2h-5l-2-2-4 1-15 6 41 1-1 4-54 1-16 7-7 3 77 1v4l-3 1h-88l-10 4-3-2v-2h2v-2l14-4 3-1v-2l14-6 6-2 5-3 7-3 13-5 7-4 8-1 1-4 2-5z" fill="#81CBCE"/>
<path transform="translate(1408,291)" d="m0 0 7 1v4l12 3 4-1 5 4-1 8 3 7 4 2v7l-4 1-4 9 1 6-4 4-6-1-9 4-1 4h-8l-1-4-9-4h-4l-1 2-5-5 1-6-4-9-4-1v-8l5-2 2-6v-8l4-4 6 1 9-4zm-2 11-8 4-5 5-2 6v12l4 7h2v2h3v2l8 3h7l10-5 4-5 3-8-1-10-4-6-5-5-5-2z" fill="#FCFDFC"/>
<path transform="translate(1047,466)" d="m0 0h113l-1 2-17 7-10 4h-61l-9-4-15-8z" fill="#FCFDFC"/>
<path transform="translate(918,440)" d="m0 0 7 1 3 4 281 1-4 2-6 4-3-1 2-1h-269v2h-3l-1-3v-5l-1-1h-8l-1 3h-2l2-5z" fill="#BAD2D1"/>
<path transform="translate(1015,257)" d="m0 0h30l1 38-31 1-1-1v-36z" fill="#FAA21B"/>
<path transform="translate(1041,576)" d="m0 0h222l3 1v3l-2 1h-223l-1-4z" fill="#BAD2D1"/>
<path transform="translate(872)" d="m0 0h14l5 2h6l2-1 5 5-1 7 2 5-2 8 3 4-3 9-1 4h2l-2 4-2 3-8-1-4 2h-3l-1 5h-9v-4l-7-2-5-1h-4l-3-3v-7l-3-6v-3h-4v-8h4l1-4 3-8-1-5h2l1-3h9zm4 5-8 3-5 5-4 8v10l6 10 9 5h11l9-5 1-3h2l3-7v-10l-5-10-8-5-3-1z" fill="#FCFDFC"/>
<path transform="translate(1353,20)" d="m0 0h8l7 2v5l-1 1-14 1-10 5-4 5-2 5v12l3 7 4 4 5 3 4 1h10l7-3 3-3h2l2-5 2-6 1-9 1-1h6v14l-5 10-4 5h-3v2l-8 4h-19l-9-6-5-5-3-4-3-7v-14l4-9 7-8 8-4z" fill="#75C6CA"/>
<path transform="translate(881,564)" d="m0 0h72l-4 5-11 9h-2v2h-3l-2 4-5 4h-12l-10-7-4-2v-2l-5-2-10-7z" fill="#FBFCFB"/>
<path transform="translate(1440,397)" d="m0 0h1v260h194v-259h1v261h-196l-1-1v-135l-4 1-2-2 1-5h5v-119z" fill="#B0D9D9"/>
<path transform="translate(637,42)" d="m0 0h9v52h-3l-3-6v-2l-4-1-1-5-4-2v-3l-4-1-8-11-3-6-1-4 5-5 11-5z" fill="#F99E1D"/>
<path transform="translate(1012,482)" d="m0 0h55l1 2 16 8 2 3h-94l4-4 10-6z" fill="#FCFDFC"/>
<path transform="translate(915,455)" d="m0 0h10l8 4 2 5 6 2 5 6 3 1 5 6h-66l1-3 9-7 3-4h2l2-4h2v-2l7-3z" fill="#FCFDFC"/>
<path transform="translate(702,291)" d="m0 0h7l2 4 10 4 4-1 5 4-1 7 3 7 4 2v8l-4 1-3 11 1 4-5 5-6-1-7 3-3 9-2 4h-2l2-5 2-9-1-8h6l5-3 6-12v-11h-2l-3-5v-2l-5-2-4-2h-11l-8 5-4 4 2 5 3 7 1 4 8 4 5 4v2l-4-2-6-4-5-2-3-10-3-4v-2l-4-2-7-3 3-1 5 1-2-7 6-5 6 1 2-2h5l1-4z" fill="#A3E2E3"/>
<path transform="translate(847,449)" d="m0 0 55 1 5-1 5 1-1 3-4 3h-2l-2 5-5 3h-3l-2 4-4 3h-2v2l-4 1h-7l-4-3-5-2-5-5-3-1-1-3-11-8z" fill="#FBFCFB"/>
<path transform="translate(1354,100)" d="m0 0 13 1 1 4-1 2-15 1-8 4-4 5-3 5v14l5 9 8 5 3 1h10l7-3 8-8 2-6 1-10h6v14l-5 9-5 5-8 5-4 1h-13l-10-4-7-6-5-10-1-12 3-10 4-6 7-6 6-3z" fill="#F26F72"/>
<path transform="translate(762,544)" d="m0 0h209v4h-209z" fill="#BBD2D1"/>
<path transform="translate(835,455)" d="m0 0h9l2 2 5 2 4 5 4 2 5 5 8 6v2h-58v-2l5-4 6-8 2-1 3-5 4-1z" fill="#FCFDFC"/>
<path transform="translate(948,466)" d="m0 0h80l-4 4-16 9h-44l-9-6-7-6z" fill="#FCFDFC"/>
<path transform="translate(1435,21)" d="m0 0 4 1v6l-10 5-3 1-2 4-2 5v14l5 10 5 2 6 2h11l8-4 4-5h2l1-5 5-1 2 2-1 5-7 9-7 5-5 2h-16l-10-5-5-5-3-4-3-9v-12l3-9 8-9z" fill="#F06F35"/>
<path transform="translate(1461,603)" d="m0 0h153l1 5h-154l-1-4z" fill="#A7DFDF"/>
<path transform="translate(1461,595)" d="m0 0h153l1 4-1 1h-153l-1-4z" fill="#ACDCDC"/>
<path transform="translate(570,204)" d="m0 0h153l1 4-1 1h-153l-1-4z" fill="#ACDCDC"/>
<path transform="translate(570,196)" d="m0 0h153l1 4-1 1h-153l-1-4z" fill="#ACDCDC"/>
<path transform="translate(570,212)" d="m0 0h153l1 4-1 1h-153l-1-3z" fill="#ACDCDC"/>
<path transform="translate(570,188)" d="m0 0h153l1 4-1 1h-153l-1-3z" fill="#A6DFE0"/>
<path transform="translate(1348,176)" d="m0 0h6l1 5-12 7-4 6-2 7v7l3 7v3h2l5 5 9 3 9-1 8-4 5-6 3-5 5 1 1 4-7 10-5 4-8 4h-16l-10-5-5-4-5-9-1-4v-15l5-10 7-7z" fill="#DE5447"/>
<path transform="translate(441,540)" d="m0 0h145l1 4-1 1h-154v-4z" fill="#A6DFE0"/>
<path transform="translate(643,97)" d="m0 0 2 2-7 11h-2l-1 4-5 8h-2l-1 4-7 10-1 3-4-1-3-2v-2l-5-1-7-9v-5l16-8 19-10z" fill="#D2423C"/>
<path transform="translate(1434,101)" d="m0 0h5v6l-9 5-3 1-2 4-3 5v13l4 8 1 3 5 2 6 3h10l10-5h2v-3l2-1 3-6h5l1 4-3 6-2 3h-2l-1 3-12 6h-15l-9-4-6-5-4-6-2-5-1-11 1-7 6-10 4-4h2v-2z" fill="#F99D25"/>
<path transform="translate(964,485)" d="m0 0 5 2 6 6v5 3l-1-1-173-1-1-7 2 2h171l-9-8z" fill="#B9D2D1"/>
<path transform="translate(444,72)" d="m0 0h7l1 3 5 2h6l3 3v6l2 6 6 1 1 4-6 3-3 5v7l-3 2h-6l-5 2-1 3h-7l-1-3-5-2h-6l-3-5-1-7-1-2-3-1v-6l4-3 2-11h2v-2l12-1zm-3 8-7 6-2 5v9l3 7 10 5 8-1 6-3 3-4 2-6-1-9-1-3-6-5-3-1z" fill="#FCFDFC"/>
<path transform="translate(1594,72)" d="m0 0h6l4 4 3 1v2l3-2h3v2l3 1-1 5 3 7 3 1v6l-4 2-2 11-2 2h-6l-5 2-2 3h-6l-1-3-5-2h-6l-4-4 1-4-2-7-7-1 1-5 6-1 1-5 1-7 4-3 7-1zm-3 8-6 4v2h-2l-2 5v9h2v5l6 5 5 2 9-1 6-4 3-4 1-4v-8l-2-5h-2l-2-4-4-2z" fill="#FCFDFC"/>
<path transform="translate(432,557)" d="m0 0h154v4l-1 1h-73l-80-1z" fill="#A9DDDD"/>
<path transform="translate(922,11)" d="m0 0h8l7 3 4 7v8l-3 6-2 3-5 2h-11l-6-5-3-9 1-6 4-6z" fill="#80CBCA"/>
<path transform="translate(1049,294)" d="m0 0 41 1h24v4l-24 1-144-1v-4h74z" fill="#648C8D"/>
<path transform="translate(1107,494)" d="m0 0 158 1 1 3-2 1h-160v-2h2z" fill="#BAD2D1"/>
<path transform="translate(432,549)" d="m0 0h155l-1 4-4 1-150-1z" fill="#A2E2E3"/>
<path transform="translate(1462,611)" d="m0 0 153 1v4h-155v-4z" fill="#A2E2E3"/>
<path transform="translate(1461,620)" d="m0 0h153l1 4h-155z" fill="#A8DEDF"/>
<path transform="translate(432,533)" d="m0 0h154v4h-154z" fill="#A2E2E3"/>
<path transform="translate(998,674)" d="m0 0h51v11l-1 1h-49l-1-1z" fill="#5E8486"/>
<path transform="translate(1034,457)" d="m0 0h7l3 2v2h129l4-2 3 1-5 3-12 2-1 4 1 3-5 1v-3l-7 3-4-1 12-5h-113l-1-4-2-1v-2l-8-1-3 1-1 2v-3z" fill="#B8D2D1"/>
<path transform="translate(999,662)" d="m0 0h49v11h-49z" fill="#BBD2D1"/>
<path transform="translate(1035,458)" d="m0 0h5l3 2v2l3 1v4l7 2 12 7v2h2v2l8 2 1 2 4 1v2l6 2 5 2 8-1 1 2 5 1-2 9-4 3-7-1-3-6v-4l-9-3-13-7v-2l-4-1-5-3-9-4-4-4h-14l-4 1 2-4h2l-1-3 2-4z" fill="#6CC3C9"/>
<path transform="translate(1121,527)" d="m0 0h120l-1 4-9 1h-95l-15-1z" fill="#BAD2D1"/>
<path transform="translate(1516,430)" d="m0 0 4 1 4 9 2-5 3-5 5 1v4h3v11l-2 1v9l-1 2h-5l-2-2v-10l-3 1-1 2h-2v8l-5 1-2-2-2-7v-10l3-8z" fill="#6D9D9F"/>
<path transform="translate(1502,430)" d="m0 0 5 1v4h3v11l-2 1-1 11-7-2v-10h-3l-1 3-2 1-1 6h-6l-3-13 2-7 2-5 6 1 3 8 2-5h2z" fill="#80B9BB"/>
<path transform="translate(864,568)" d="m0 0 17 1 3 3 5 3 2 2 4 2-1 2h-49l-3-1v-2l7-3z" fill="#BBD2D1"/>
<path transform="translate(547,588)" d="m0 0 5 1 6 4 6 7 2 5-1 6-7 1h-17l1-10 2-7 2-6z" fill="#D4453F"/>
<path transform="translate(466,470)" d="m0 0h9l5 3 1 2 7 3v4h-2l-1 5-4 2-1 5-4 3h-2l-1 6-4 1v-13l1-6h-2v-3h-2l-1-6 1-5z" fill="#F26F71"/>
<path transform="translate(992,492)" d="m0 0 3 1-2 1h92l-1-2 5 2 2 7-3-1h-95-3l-2 1 2-7z" fill="#BAD2D1"/>
<path transform="translate(762,560)" d="m0 0h104l-1 4h-103z" fill="#BAD2D1"/>
<path transform="translate(810,593)" d="m0 0h102l1 4h-103z" fill="#BBD2D1"/>
<path transform="translate(1475,430)" d="m0 0 5 1 1 3 2 1v11l-2 1-1 11h-5l-2-2v-10l-5 1v2h-2v7h-4l-1-7-2-2v-6l2-4 1-6 3 1v4l5 1 1-2h4z" fill="#608A8C"/>
<path transform="translate(945,576)" d="m0 0h79l1 4-1 1h-81l-1-3z" fill="#B9D2D1"/>
<path transform="translate(1149,475)" d="m0 0 3 1-3 2h115l2 1v3h-128l4-2z" fill="#BAD2D1"/>
<path transform="translate(1152,559)" d="m0 0 7 1 1 4h-98l4-4z" fill="#BAD2D1"/>
<path transform="translate(994,543)" d="m0 0h90l-1 3-4 2h-92v-4z" fill="#B9D2D1"/>
<path transform="translate(929,452)" d="m0 0 5 3 7 6 90 1v5l-4 1v-1h-80l-4-3-5-2v-2l-5-2v-2l-4-2z" fill="#BAD2D1"/>
<path transform="translate(1357,35)" d="m0 0 5 3 7 8 1 4-3 3-5-1v10l-2 2h-5l-1-2v-10l-6 1-2-2 1-5 9-10z" fill="#73C5CA"/>
<path transform="translate(1181,560)" d="m0 0h84l1 4h-93l2-3z" fill="#BAD2D1"/>
<path transform="translate(1183,461)" d="m0 0 82 1v4l-3 1h-87l-1-2 7-2z" fill="#BAD2D1"/>
<path transform="translate(1056,561)" d="m0 0m-1 1m-45 0 12 7 5 3 7-1h6l11-7 4-1 1 4-9 6-6 2-2 8-4 3-7-1-3-3-1-7-5-2-9-5-1-5z" fill="#F26F74"/>
<path transform="translate(1461,628)" d="m0 0h82l1 4-2 1h-80l-2-4z" fill="#A9DEDE"/>
<path transform="translate(1441,36)" d="m0 0 5 1 1 1 1 10 4-1 2 1v6l-8 9-4 1-5-5-5-6 1-5 4-1 1 1 1-10z" fill="#F06F34"/>
<path transform="translate(764,576)" d="m0 0h70l-4 4-2 1h-64l-3-3z" fill="#BAD1D0"/>
<path transform="translate(432,565)" d="m0 0h84v4l-8 1-76-1z" fill="#A8DEDF"/>
<path transform="translate(649,220)" d="m0 0 4 1-1 4h-82v-4z" fill="#A8DEDE"/>
<path transform="translate(1357,190)" d="m0 0 4 1 1 1v10l6-1 2 5-8 10-5 2-5-5-6-7 3-5 5 1 1-11z" fill="#D1423B"/>
<path transform="translate(974,552)" d="m0 0h12l13 8 4 4h-41l1-3 6-5h2v-2z" fill="#FCFDFC"/>
<path transform="translate(1441,116)" d="m0 0h5l1 1v10h6l2 4-7 9-3 3-4-1-6-7-2-1-1-5 1-2h6l1-10z" fill="#FA9E24"/>
<path transform="translate(835,440)" d="m0 0h6l5 5-2 1-4-4-6 1-2 10-5 5 2-5 1-2-67-1-1-4 69-1 2-4z" fill="#B8D2D1"/>
<path transform="translate(900,576)" d="m0 0h38v2h-2v2h-3l-2 4-5 4h-12l-10-7-4-2z" fill="#BAD2D1"/>
<path transform="translate(1247,424)" d="m0 0 7 1 4 4h7l1 4-1 1h-9l-2 4-3 2h-5l-2-2-4 1-10 4h-2l-1-3-2-1 7-4 8-1 1-4 2-5z" fill="#69C2C7"/>
<path transform="translate(1356,116)" d="m0 0 5 1 8 9-1 5-3 1-3-1v10l-2 2-5-1-1-11-5 1-2-2 1-5 5-6h2z" fill="#F26F72"/>
<path transform="translate(881,560)" d="m0 0h75l-2 4h-72z" fill="#BAD2D1"/>
<path transform="translate(1364,508)" d="m0 0h2l1 17v6l-7-1-8-5-8-4 1-3 10-5z" fill="#FCFDFC"/>
<path transform="translate(675,508)" d="m0 0 16 8 5 3-1 3-20 10-1-1-1-13 1-9z" fill="#FCFDFC"/>
<path transform="translate(902,459)" d="m0 0 2 1-6 4h-3l-2 4-4 3h-2v2l-4 1h-7l-4-3-5-2-5-5-3-1 1-2 5 1 34-1z" fill="#B7D3D2"/>
<path transform="translate(915,455)" d="m0 0h10l8 4 2 5 6 2 1 2-10-1h-32l1-2h2l2-4h2v-2l7-3z" fill="#B5D2D1"/>
<path transform="translate(803,486)" d="m0 0 1 3h-2l-1 6v6l-3 3-7 1-5-4v-2h-23l-2-1 1-3 24-1 6-4 8-1z" fill="#6AC1C7"/>
<path transform="translate(846,446)" d="m0 0h67v7l-5 4h-2v2l-2-1 5-5 2-1-1-2h-6l-4 1-52-1-2 2-1-3z" fill="#B8D2D1"/>
<path transform="translate(1106,162)" d="m0 0h21l1 4-3 8-4 9-3-1v-2h-2l-4-6-7-9z" fill="#68C1C7"/>
<path transform="translate(1417,194)" d="m0 0h54l2 4-1 1h-55l-1-3z" fill="#ACDCDC"/>
<path transform="translate(1440,397)" d="m0 0h1v120l-3 5-1 2-4-2 1-5h5v-119z" fill="#AEDADA"/>
<path transform="translate(1076,482)" d="m0 0h48l-4 3-13 5-1 1h-5l-1-1h-11l-13-7z" fill="#FCFDFC"/>
<path transform="translate(1148,548)" d="m0 0h47l-3 2-16 7-13-1-5-1-10-6z" fill="#FCFDFC"/>
<path transform="translate(1246,522)" d="m0 0 7 1 3 4-1 7-5 3-10-1-17 6-1-4 12-5 6-3 4-7z" fill="#F26F75"/>
<path transform="translate(825,458)" d="m0 0 2 1-5 5-5 4v-2h-54v-4l59-1z" fill="#BAD1D1"/>
<path transform="translate(1145,543)" d="m0 0 6 1 49-1 5 1-4 3-5 1h-50l-4-4z" fill="#BAD2D1"/>
<path transform="translate(952,476)" d="m0 0 4 2 3 4h-71l-1 4-2 2-4-1 4-2 2-6-2-1 3-1v2l65-1z" fill="#B8D2D1"/>
<path transform="translate(1072,482)" d="m0 0h3l1 2 4 1v2l6 2 5 2 8-1 1 2 5 1-2 9-4 3-7-1-3-6v-4l-9-3-4-2-4-4z" fill="#68C2C7"/>
<path transform="translate(835,455)" d="m0 0h9l2 2 5 2 4 5 4 2-2 1-32-1 5-7 4-1z" fill="#B8D3D2"/>
<path transform="translate(924,244)" d="m0 0h8l4 4v9l-7 4-7-2-3-5 1-6z" fill="#F26F6F"/>
<path transform="translate(1516,430)" d="m0 0 4 1 2 4 1 9-2 13-5 1-2-2-2-7v-10l3-8z" fill="#5F8A8C"/>
<path transform="translate(1419,209)" d="m0 0 53 1 2 2-3 2h-54l-1-3z" fill="#A9DEDE"/>
<path transform="translate(1417,202)" d="m0 0h55v4h-55z" fill="#A7DEDF"/>
<path transform="translate(1418,187)" d="m0 0h54l1 2-1 2h-55z" fill="#A7DEDF"/>
<path transform="translate(864,568)" d="m0 0 17 1 3 3 5 3-4 2h-27l-9-1 4-3z" fill="#FBFCFB"/>
<path transform="translate(1381,124)" d="m0 0h6v14l-5 9-5 5-4 2-4-1-1-4 6-4 4-5 2-6z" fill="#F26F6D"/>
<path transform="translate(886)" d="m0 0h41l-5 5-5 2h-6l-3 3-1 7-5-4 1-7-5-4-1 1h-6l-5-2z" fill="#80CBCA"/>
<path transform="translate(1137,476)" d="m0 0h3v2l-5 2-8 2-3 1h-46l2 2-5-1v-2l-5-1-3-1v-2l-2-1 6 1h61z" fill="#B4D2D1"/>
<path transform="translate(814,586)" d="m0 0 4 1-5 5-3 2-3 6-3 2h-6l-5-5 2-7 2-2h13z" fill="#F26F6F"/>
<path transform="translate(1475,461)" d="m0 0 4 1 1 4 3 1v9l-3 1v10l-5 1-1-1-2-10-1-7 1-4 2-1z" fill="#F06F68"/>
<path transform="translate(1476,558)" d="m0 0 4 2 3 5v8l-2 2-1 9-5 1-1-1-2-10-1-2v-8l4-1z" fill="#F07032"/>
<path transform="translate(871,476)" d="m0 0h2l2 8 4 4-4-1-3-3v-2l-61 1-3 2 2-4 3-1 1-2h55l3 1z" fill="#B9D2D1"/>
<path transform="translate(487,588)" d="m0 0 5 1 3 1 4 5v4l-4 1v2l-11 6-4 1-1-2 4-9z" fill="#F07033"/>
<path transform="translate(1584,558)" d="m0 0 3 1 4 6v8l-2 2-1 9-5 1-1-1-2-10-1-1v-8l3-2z" fill="#F07034"/>
<path transform="translate(1462,461)" d="m0 0 4 1 2 5 1 1v11l-3 9-5-1-2-8-1-2 1-9z" fill="#D1413B"/>
<path transform="translate(1219,544)" d="m0 0h47l-1 4h-53v-3z" fill="#BAD1D0"/>
<path transform="translate(1015,564)" d="m0 0h36l-3 3-8 5h-9l-4 1-12-7z" fill="#FCFDFC"/>
<path transform="translate(1530,558)" d="m0 0 4 2v4h2l1 2v8l-3 1v9l-5 1-1-1-1-9-2-2v-8l3-1z" fill="#F07034"/>
<path transform="translate(1558,558)" d="m0 0 4 5 2 2v8l-2 2-1 9-2 1-4-1-1-9-2-2v-8l4-6z" fill="#F07033"/>
<path transform="translate(1462,559)" d="m0 0 4 1 3 6v10l-3 10-5-2-2-7-1-8z" fill="#F06F34"/>
<path transform="translate(1032,470)" d="m0 0 8 1 4-1 8 5 5 3v1h-38l3-3 9-5z" fill="#FCFDFC"/>
<path transform="translate(1488,431)" d="m0 0 6 1 1 3v14l-2 7h-6l-3-13 2-7z" fill="#5F8B8D"/>
<path transform="translate(1504,558)" d="m0 0 3 2v4l3 1v8l-2 2-1 9-5 1-1-1-1-9-2-2 1-9 2-1 1-4z" fill="#F06F32"/>
<path transform="translate(1557,431)" d="m0 0h3l4 6v8l-3 1v11l-6-1v-10h-2l-1-9z" fill="#A8DEDE"/>
<path transform="translate(1516,559)" d="m0 0 4 1 4 11-3 13-5 1-3-8-1-8z" fill="#F07034"/>
<path transform="translate(1489,559)" d="m0 0 4 1 4 10-3 13-1 2-5-1-3-12 1-6z" fill="#F17135"/>
<path transform="translate(1570,559)" d="m0 0 4 1v4h2l1 2v9l-3 10-5-1-2-7-1-9z" fill="#F17133"/>
<path transform="translate(1223,444)" d="m0 0 2 1 41 1-1 4h-54v-1l7-1z" fill="#BAD2D1"/>
<path transform="translate(1106,536)" d="m0 0h15l9 6-2 2h-33l4-4z" fill="#FCFDFC"/>
<path transform="translate(1543,559)" d="m0 0 4 1 3 7v9l-3 9-5-1-2-7-1-8z" fill="#F07033"/>
<path transform="translate(1583,527)" d="m0 0 4 1 1 4 3 1v9h-3v10h-6l-1-9-2-4v-6l3-2z" fill="#A8DEDE"/>
<path transform="translate(1610,527)" d="m0 0 5 1 2 4 1 1v8l-3 1v11l-6-1v-10h-2l-1-6 2-5z" fill="#A8DEDF"/>
<path transform="translate(1557,527)" d="m0 0 3 1 4 6v7l-2 2-1 8-1 1h-5v-10h-2l-1-2v-7l3-2z" fill="#add"/>
<path transform="translate(564,482)" d="m0 0h9l5 6v5l-3 4-4-2-3-2-8 1-1-1v-7z" fill="#F26F74"/>
<path transform="translate(1583,431)" d="m0 0 5 1 3 5v9h-3v10l-2 1-4-1-1-9-1-1v-10l2-1z" fill="#A9DEDE"/>
<path transform="translate(1583,461)" d="m0 0 4 1 1 4 3 2v7l-2 2-1 9-5 1-1-1-1-9-2-2v-6l2-3h2z" fill="#A8DEDE"/>
<path transform="translate(1529,494)" d="m0 0h4v4l3 1 1 7-1 3h-2v9l-1 1h-5l-1-10-2-3v-6l3-2z" fill="#F89230"/>
<path transform="translate(1531,461)" d="m0 0 3 2 3 5v6l-1 2h-2v10l-5 1-1-1-1-9-1-1-1-9h3l1-5z" fill="#add"/>
<path transform="translate(1610,431)" d="m0 0 4 1v2l4 3v8l-3 1v10l-2 1-4-2v-9h-2v-10z" fill="#A8DEDF"/>
<path transform="translate(1475,527)" d="m0 0 5 1 3 5v8l-3 1v10h-5l-1-1v-9h-2v-9l2-2z" fill="#F26F70"/>
<path transform="translate(1611,461)" d="m0 0 3 1 1 4 3 1v9l-2 1-1 9-5 1-1-1-1-9-1-1v-9z" fill="#A8DEDE"/>
<path transform="translate(1529,527)" d="m0 0 4 1v3l3 1 1 2v7l-3 1v10h-6v-10h-2v-10l3-1z" fill="#F26F74"/>
<path transform="translate(1556,494)" d="m0 0h4v4l4 2v7l-2 2-1 9-4 1-2-1-2-10-1-7z" fill="#F89432"/>
<path transform="translate(1489,461)" d="m0 0 4 1 2 5 1 1v10l-3 9-5-1-2-7v-9z" fill="#A8DEDF"/>
<path transform="translate(1610,559)" d="m0 0 4 1 3 5 1 1v7l-2 2-1 9h-6l-1-10-1-1v-9h2z" fill="#A9DDDE"/>
<path transform="translate(1502,527)" d="m0 0 4 1v3l3 1 1 2v7l-3 1v9l-1 1h-5v-10h-2v-10l3-1z" fill="#F26F70"/>
<path transform="translate(1583,494)" d="m0 0 5 1 3 5v7l-1 2h-2v9l-5 1-1-1-1-9-1-1v-9l3-1z" fill="#A6DFE0"/>
<path transform="translate(1569,494)" d="m0 0h5l3 7v8l-2 9-5 1-3-8-1-8 3-5z" fill="#A7DEDF"/>
<path transform="translate(1475,494)" d="m0 0h4l3 5 1 1v7l-2 2-1 9-5 1-1-1-2-10v-9l3-1z" fill="#F8932D"/>
<path transform="translate(1570,461)" d="m0 0 4 1 2 6 1 2v7l-2 9-5 1-3-8v-10z" fill="#A8DEDE"/>
<path transform="translate(1462,527)" d="m0 0 4 1 3 7v9l-3 9h-4l-3-10v-9l2-4z" fill="#F26F74"/>
<path transform="translate(1597,461)" d="m0 0h3l4 10-1 8-1 7-5 1-2-5-2-9 3-11z" fill="#A8DEDE"/>
<path transform="translate(1557,461)" d="m0 0 3 1 2 5 2 1-1 7-1 1-1 10-5 1-1-1-2-10-1-7 3-3z" fill="#A9DDDE"/>
<path transform="translate(1503,461)" d="m0 0 4 2v4h3v8l-2 2-1 9-5 1-1-1-1-9-1-2v-8l2-1z" fill="#A9DDDE"/>
<path transform="translate(1516,527)" d="m0 0 4 1 3 8-1 9-2 7h-5v-7h-2l-1-7 2-6z" fill="#F26F72"/>
<path transform="translate(1610,494)" d="m0 0h4l1 4 3 2v7l-3 1v10l-5 1-1-1-1-9-1-1v-10h3z" fill="#A8DEDF"/>
<path transform="translate(1570,431)" d="m0 0 4 1v3l3 3v9l-3 9-5-1-3-14 3-7z" fill="#A9DDDE"/>
<path transform="translate(1571,526)" d="m0 0 3 2v3l2 1 1 4v7l-3 9h-5l-1-7-2-7 3-8z" fill="#A7DEDF"/>
<path transform="translate(1502,494)" d="m0 0h4l1 4 3 2v7l-2 2-1 9-5 1-1-1-1-9-1-1v-9l3-1z" fill="#F89231"/>
<path transform="translate(1543,431)" d="m0 0 4 1 3 8v8l-3 8-5-1-2-8v-9l2-4z" fill="#A8DEDF"/>
<path transform="translate(1517,461)" d="m0 0 3 1 2 6 1 2v7l-3 10-5-1-3-14 2-5z" fill="#A8DEDE"/>
<path transform="translate(1543,461)" d="m0 0 4 1 2 5 1 1v11l-2 1-2 7-4-1-2-8v-9l2-4z" fill="#A7DFE0"/>
<path transform="translate(1597,559)" d="m0 0 4 1 3 8v7l-1 3h-2v6l-3 1-2-1-2-9-1-5 2-6h2l-1-4z" fill="#A8DEDF"/>
<path transform="translate(1543,527)" d="m0 0h4l3 9v8l-3 8-5-1-2-8v-10l2-1z" fill="#A7DFDF"/>
<path transform="translate(1542,494)" d="m0 0h5l3 7v8l-2 4-1 6-5-1-2-7v-11l2-3z" fill="#F9982B"/>
<path transform="translate(1462,494)" d="m0 0h4l3 7v9l-3 8-4 1-3-9v-9z" fill="#F9982A"/>
<path transform="translate(1598,430)" d="m0 0 3 2v3l2 1 1 10-2 5-1 6-5-1-1-7-2-5 1-6 2-4z" fill="#A8DEDE"/>
<path transform="translate(1008,560)" d="m0 0h48l-1 3-3 1-39 1z" fill="#BBD2D1"/>
<path transform="translate(1128,543)" d="m0 0 5 1 3 2v2h-48l2-3 4-1z" fill="#BBD2D1"/>
<path transform="translate(1489,527)" d="m0 0h4l3 8v7l-2 4-1 6h-5l-2-9v-9l2-4z" fill="#F26F74"/>
<path transform="translate(1516,494)" d="m0 0h4l3 8v7l-2 4-1 6-5-1-2-7v-11l2-2z" fill="#F8972A"/>
<path transform="translate(1596,494)" d="m0 0h4l1 4 2 1 1 7-2 9-1 4-5-1-3-14z" fill="#A7DEDF"/>
<path transform="translate(1597,527)" d="m0 0 4 1 1 4 2 5v6l-2 6-2 4h-3l-3-9v-9l2-5z" fill="#A6DEDF"/>
<path transform="translate(1489,494)" d="m0 0 4 1 3 7v8l-4 9-4-1-2-8v-9z" fill="#F9972C"/>
<path transform="translate(968,482)" d="m0 0h33l-4 4-8 4-13-1-6-4v-2z" fill="#FCFDFC"/>
<path transform="translate(1055,476)" d="m0 0 4 2 5 3v1h-51l5-5 2 1h36z" fill="#BAD3D2"/>
<path transform="translate(965,560)" d="m0 0h34l4 4h-41l1-3z" fill="#B9D1D0"/>
<path transform="translate(910,580)" d="m0 0h23l-2 4-5 4h-12l-8-5 1-2z" fill="#FCFDFC"/>
<path transform="translate(1156,470)" d="m0 0h2l-1 4-1 1-7 1-7 5-7 3-4 2h-8l2-4 4-2 11-2 2-4 11-3z" fill="#72C5CA"/>
<path transform="translate(946,255)" d="m0 0h30v40l-2-1v-36h-27l-1 38h-1v-39z" fill="#F26F62"/>
<path transform="translate(765,478)" d="m0 0h40l-1 5h-21l-21-1v-3z" fill="#BAD2D1"/>
<path transform="translate(867,466)" d="m0 0h25l-3 5h-2v2l-4 1h-7l-9-7z" fill="#FCFDFC"/>
<path transform="translate(1227,439)" d="m0 0 2 1-1 4-7 2-3 3h-7v2l-5 2h-6l5-6 7-3 9-4z" fill="#7CC9CB"/>
<path transform="translate(964,479)" d="m0 0h43l-4 2v2h-36l-1-3z" fill="#BAD2D1"/>
<path transform="translate(1476,432)" d="m0 0 3 1-1 3 4 2v6l-2 1-1 10h-4l-1-10h-1l-1-9h3z" fill="#5F8A8C"/>
<path transform="translate(762,593)" d="m0 0h32l-1 4h-30z" fill="#BBD2D1"/>
<path transform="translate(1475,430)" d="m0 0 5 1 1 3 2 1v11l-2 1-1 11h-5l-2-2v-10l-4 1-1-10h2l1-2 4 1h-3l2 8h1v11h4v-12l2 1v-6l-3-2v-3h-3z" fill="#87BBBC"/>
<path transform="translate(915,455)" d="m0 0h10l8 6v1h-25l5-5z" fill="#FCFDFC"/>
<path transform="translate(1503,432)" d="m0 0 3 1-1 3 3 1 1 7-2 1-1 10h-4l-1-10h-1v-8h2z" fill="#5F8587"/>
<path transform="translate(1417,217)" d="m0 0h28l2 1v3l-28 1-2-1z" fill="#A9DEDE"/>
<path transform="translate(1357,190)" d="m0 0 4 1 1 1v10l6-1 1 4-5-1-3 1-1-13h-4v12l-2 1-5-1 2 4 5 6v2l4-1 4-6 3 1-6 7-4 1-5-5-6-7 3-5 5 1 1-11z" fill="#F26F65"/>
<path transform="translate(786,494)" d="m0 0 1 4 3 5-4-2v-2h-23l-2-1 1-3z" fill="#BAD2D1"/>
<path transform="translate(1185)" d="m0 0h2l1 4 6 1 9 8 6-1 2 2-1 5h-5v8l-3 7-1-3 2-5-1-8-3-6-9-6-3-1z" fill="#C4E5E4"/>
<path transform="translate(835,455)" d="m0 0h9l7 6v1h-21l2-4h2z" fill="#FCFDFC"/>
<path transform="translate(1184,458)" d="m0 0m-4 1h4l-2 4-3 2h-5l-1 3-10 3-2-2v-2h2v-2l14-4z" fill="#79C7CA"/>
<path transform="translate(1476,463)" d="m0 0h2v4l3 1 1 4-2 3-1 10h-4l-1-11h-1v-6l3-1z" fill="#D1413B"/>
<path transform="translate(910,454)" d="m0 0m-1 1m-1 1m-2 1 2 1-1 3-6 5-6 7-7 4 2-5-3 1v-2l7-5 1-2 8-4 3-1z" fill="#79C6CA"/>
<path transform="translate(547,588)" d="m0 0 5 1v1h-5l-1 10-3 10 22-1v2l-7 1h-17l1-10 2-7 2-6z" fill="#F16F54"/>
<path transform="translate(1462,461)" d="m0 0 4 1-3 1-1 5-1 2v7l1 1v7h4v-6l1-2v-7l-2-3 1-3 3 4v11l-3 9-5-1-2-8-1-2 1-9z" fill="#F26F60"/>
<path transform="translate(673,506)" d="m0 0 4 1 11 6 9 5v4l-10 6h-3v2l-4-1 12-7 3-1v-2l-20-10-2 14h-1z" fill="#B2D7D7"/>
<path transform="translate(1570,98)" d="m0 0 7 1 3 9-1 2 3 3h6l6 3v3l6-1 2-3 5-1-1 2-3 1-3 4h-7l-2-4-9-1-5-4-1-3 1-4-2-4-5-2z" fill="#B4D6D6"/>
<path transform="translate(1016,473)" d="m0 0 3 1-12 8h5l-3 3-6 3h-2l-1-4v2l-9 3 3-3 5-3h4v-2z" fill="#8FD2D3"/>
<path transform="translate(1516,430)" d="m0 0 4 1 2 6-6-2-2 6v7l2 7 4 1v-6h1v7l-5 1-2-2-2-7v-10l3-8z" fill="#9AC7C7"/>
<path transform="translate(876,5)" d="m0 0h8l8 4 5 5 1 5-4-5-6-5-3-1h-10l-7 3-5 6-1-3 5-5 5-3z" fill="#B1D8D7"/>
<path transform="translate(1220,538)" d="m0 0 5 1-2 1v2l-4 3h-7v2h-4l1-4 9-4z" fill="#F26F68"/>
<path transform="translate(427,109)" d="m0 0 3 1 2 3h6l6 3v3h7l1-4 5-2 3 1-6 3-3 4h-7l-2-4-10-1-5-6z" fill="#B2D8D7"/>
<path transform="translate(1488,431)" d="m0 0 6 1 1 5-5-1-2 1-1 10v2h2l-1 7h-1l-3-13 2-7z" fill="#93C4C4"/>
<path transform="translate(859)" d="m0 0h13l-4 3h-9l-1 2h-2l2 6-4 8-1-3 2-6-1-5z" fill="#AED4D3"/>
<path transform="translate(1121,483)" d="m0 0 4 1-1 1 4 2-9 4h-3l1-3-9 3-2-1 8-4z" fill="#8ED0D1"/>
<path transform="translate(1525,436)" d="m0 0h1v9h3v11h5v2h-5l-2-2v-10l-3 1-2 2v-11l2 2z" fill="#96CACC"/>
<path transform="translate(1106,162)" d="m0 0h21l1 4-3 8h-1v-8l2-2h-18l1 3 3 3-1 3-6-8z" fill="#ACD4D3"/>
<path transform="translate(686,314)" d="m0 0h2l4 6 2 8 8 4 5 4v2l-4-2-6-4-5-2-3-10-3-4z" fill="#B4D6D6"/>
<path transform="translate(1406,302)" d="m0 0h11l8 4 2 4-3-1v-2l-9-3h-8l-8 4-5 6-1-3 5-5z" fill="#B1D8D8"/>
<path transform="translate(1381,44)" d="m0 0h6v14l-5 10-4 5-2-1 1-3h2v-2l2-1 1-4h2l1-9 1-8h-5z" fill="#9BD2D2"/>
<path transform="translate(806,482)" d="m0 0 2 1-1 4-3 2-1-2-3 3-10 2-3 2 2-4 9-2 4-5z" fill="#94D1D2"/>
<path transform="translate(1232,435)" d="m0 0 4 1v2l5-1-3 3-10 3-1-3-2-1z" fill="#8CCED0"/>
<path transform="translate(886)" d="m0 0h14l5 5v4l-1 5-2-1 1-7-5-4-1 1h-6l-5-2z" fill="#A8D5D5"/>
<path transform="translate(959,559)" d="m0 0 1 2h2v3l-7 4v-2l-3-1zm-8 7m-1 1 1 2-2-1zm-3 2 2 1z" fill="#F36F77"/>
<path transform="translate(1255,428)" d="m0 0 5 1h5l1 4-1 1h-9z" fill="#B9D2D1"/>
<path transform="translate(547,588)" d="m0 0 5 1v1h-5l-1 10-3 10-2-1 1-7 2-7 2-6z" fill="#F06F41"/>
<path transform="translate(1357,190)" d="m0 0 4 1 1 1v10l6-1 1 4-5-1-3 1-1-13h-4v5h-1v-6z" fill="#F16F5B"/>
<path transform="translate(1594,135)" d="m0 0h6l1 2-1 5h-6l-1-5z" fill="#C9E6E6"/>
<path transform="translate(1185)" d="m0 0h2l1 4 6 1 10 9v7l-2-3-3-6-9-6-3-1z" fill="#B3D6D6"/>
<path transform="translate(1594,323)" d="m0 0h5l2 3-2 4h-5l-1-6z" fill="#C9E7E7"/>
<path transform="translate(445,302)" d="m0 0h5l1 1v5l-1 1h-5l-1-1v-5z" fill="#CBE5E5"/>
<path transform="translate(445,281)" d="m0 0h5l1 1v5l-1 1h-5l-1-1v-5z" fill="#CCE3E2"/>
<path transform="translate(445,135)" d="m0 0h5l1 1v5l-1 1h-5l-1-1v-5z" fill="#C7E4E4"/>
<path transform="translate(1140,52)" d="m0 0h5l2 4-2 3-6-1v-5z" fill="#C7E0DF"/>
<path transform="translate(1472,471)" d="m0 0h3v14h2v-7h1l1 8h-2v2l-3-1-3-15z" fill="#F16F56"/>
<path transform="translate(446,239)" d="m0 0 5 1v5l-4 2-3-2 1-5z" fill="#CEE2E1"/>
<path transform="translate(446,218)" d="m0 0h4l1 6-4 2-3-2 1-5z" fill="#C7E1E1"/>
<path transform="translate(1594,156)" d="m0 0h5l1 1v5l-1 1h-5l-1-6z" fill="#C8E6E6"/>
<path transform="translate(1140,73)" d="m0 0 6 1v5l-1 1h-5l-1-1v-5z" fill="#CBE6E6"/>
<path transform="translate(837,12)" d="m0 0 5 1-1 6h-6v-6z" fill="#C5E4E4"/>
<path transform="translate(1226,12)" d="m0 0 6 1-1 6h-6v-6z" fill="#C8E4E3"/>
<path transform="translate(773,12)" d="m0 0 6 1v5l-1 1h-5l-1-1v-5z" fill="#CAE1E0"/>
<path transform="translate(794,12)" d="m0 0 6 1v5l-1 1h-5l-1-1v-5z" fill="#C7E2E2"/>
<path transform="translate(1257,527)" d="m0 0h7l2 1v3l-6 1-4-1z" fill="#BAD2D1"/>
<path transform="translate(445,323)" d="m0 0h5l1 1v5l-5 1-2-2z" fill="#CDE3E3"/>
<path transform="translate(447,197)" d="m0 0 4 2v5l-4 1-3-2 1-5z" fill="#CAE3E3"/>
<path transform="translate(1247,12)" d="m0 0 6 1-1 6h-6v-6z" fill="#CAE5E5"/>
<path transform="translate(816,12)" d="m0 0 5 1v5l-1 1h-6v-5z" fill="#C2E3E3"/>
<path transform="translate(1080,485)" d="m0 0 9 4h11l5 2v2h-5l-1-3-9 2-10-5z" fill="#A4D3D2"/>
<path transform="translate(918,440)" d="m0 0 7 1 3 4 1 7h-3l-1-3v-5l-1-1h-8l-1 3h-2l2-5z" fill="#9DD4D4"/>
<path transform="translate(445,365)" d="m0 0h6v6l-4 1-3-1v-5z" fill="#C6E5E5"/>
<path transform="translate(1595,239)" d="m0 0 5 1v5l-1 1h-5l-1-5z" fill="#C8E7E7"/>
<path transform="translate(1594,218)" d="m0 0h5l2 5-2 2h-5l-1-4z" fill="#C7E6E6"/>
<path transform="translate(1598,197)" d="m0 0 2 1v6l-5 1-2-2 1-5z" fill="#CDE4E3"/>
<path transform="translate(1140,94)" d="m0 0h5l1 1v5l-5 1-2-1v-5z" fill="#CEE8E7"/>
<path transform="translate(923,52)" d="m0 0 5 1 1 4-1 2h-5l-1-1v-5z" fill="#C8E1E0"/>
<path transform="translate(445,344)" d="m0 0h6v6h-7v-5z" fill="#CAE9E9"/>
<path transform="translate(446,260)" d="m0 0 5 1v5l-6 1-1-5z" fill="#CAE7E7"/>
<path transform="translate(1140,115)" d="m0 0h5l1 1v5l-4 1-3-2z" fill="#CCE6E5"/>
<path transform="translate(1289,12)" d="m0 0 5 1 1 4-2 2h-5l-1-3z" fill="#CCE6E5"/>
<path transform="translate(455,601)" d="m0 0 1 3-2 7-1 8h2l1 7-3-4-1-2v-13z" fill="#A1D3D3"/>
<path transform="translate(1594,302)" d="m0 0h5l1 1v5l-5 1-2-4z" fill="#CDE6E5"/>
<path transform="translate(1594,281)" d="m0 0h6v6l-5 1-1-1z" fill="#CAE5E5"/>
<path transform="translate(1594,177)" d="m0 0h6v6l-5 1v-2h-2z" fill="#C6E8E8"/>
<path transform="translate(428,86)" d="m0 0 1 4-4 3-1 6 4 1 2 4v5l-2-4-5-5v-8l3-2z" fill="#B3D6D5"/>
<path transform="translate(922,94)" d="m0 0h6l1 5-1 1h-6z" fill="#CFEBEB"/>
<path transform="translate(533,92)" d="m0 0h5l1 1v5h-7v-5z" fill="#CCE6E6"/>
<path transform="translate(1269,12)" d="m0 0h4v7h-6v-6z" fill="#CFE7E6"/>
<path transform="translate(1017,474)" d="m0 0 2 1-4 6-5 2-4-1z" fill="#65C1C6"/>
<path transform="translate(1184,458)" d="m0 0m-4 1h4l-2 4-3 2h-7l3-3z" fill="#65C1C6"/>
<path transform="translate(506,453)" d="m0 0 4 1 8 3 2 2h-9l-2-2-4-1z" fill="#FCFDFC"/>
<path transform="translate(923,115)" d="m0 0h5l1 5-1 1h-6v-5z" fill="#CDE9E8"/>
<path transform="translate(516,91)" d="m0 0 2 2v5h-6l-1-4 1-2z" fill="#D1E6E5"/>
<path transform="translate(1156,468)" d="m0 0h6l1 4-5 1v-3l-7 3-4-1z" fill="#95D0D1"/>
<path transform="translate(1437,314)" d="m0 0 1 2 5 1 1 9-2 2h-4l-1 5-1-4 3-3h2v-7l-4-2z" fill="#add"/>
<path transform="translate(1594,260)" d="m0 0h5l1 1v5h-7z" fill="#D1E7E6"/>
<path transform="translate(445,156)" d="m0 0h5v7l-5-1-1-5z" fill="#D2E6E6"/>
<path transform="translate(1349,28)" d="m0 0 4 1-10 5-4 5-2 5-1-3 3-7 8-5z" fill="#A3D5D5"/>
<path transform="translate(1549,92)" d="m0 0 5 1v5h-6l-1-4z" fill="#CCE7E6"/>
<path transform="translate(492,92)" d="m0 0 5 1v5h-7l1-5z" fill="#CFEAE9"/>
<path transform="translate(922,74)" d="m0 0 7 1-1 5h-5l-1-1z" fill="#CDEBEA"/>
<path transform="translate(466,435)" d="m0 0 2 1-2 10-6-2 1-4h4z" fill="#FCFDFC"/>
<path transform="translate(1594,365)" d="m0 0h6v6h-6z" fill="#D4E7E6"/>
<path transform="translate(1594,344)" d="m0 0h6v6h-6z" fill="#D0EAE9"/>
<path transform="translate(1407,290)" d="m0 0h10l1 6h-3v-4h-7l-2 4-2-1z" fill="#B7D4D3"/>
<path transform="translate(1227,439)" d="m0 0 2 1-1 4-8 1-5 2 4-4z" fill="#67C1C7"/>
<path transform="translate(1208,543)" d="m0 0m-3 1h3v3l2 1-8 2-2-3z" fill="#F36F77"/>
<path transform="translate(1416,517)" d="m0 0h5l1 5-4 2-2-2z" fill="#CAE3E3"/>
<path transform="translate(1507,92)" d="m0 0 5 1v5h-6v-5z" fill="#D0ECEC"/>
<path transform="translate(619,517)" d="m0 0h5v6l-3 1-3-3z" fill="#CDE5E4"/>
<path transform="translate(498,604)" d="m0 0 2 2v15l-3 5h-1l1-7h2z" fill="#A5D7D7"/>
<path transform="translate(1e3 484)" d="m0 0 2 1-2 5-4 2h-3l2-5 5-1z" fill="#75C6CA"/>
<path transform="translate(1471,435)" d="m0 0 4 1h-3v10l-3 1-1-10h2z" fill="#B1D1D0"/>
<path transform="translate(1502,430)" d="m0 0 5 1v4h3v5l-1-3-4-1v-3h-2l-1 3-3-1h2z" fill="#90CDCE"/>
<path transform="translate(670,47)" d="m0 0 5 1 3 2v2l4 2 3 3-2 1-4-4-5-3v-2z" fill="#A2D0CF"/>
<path transform="translate(654,518)" d="m0 0h6v5l-4 1-2-2z" fill="#D7E9E8"/>
<path transform="translate(1255,434)" d="m0 0v3l-4 3h-5l-5-3v-2l5 1v2l7-2z" fill="#A9D5D4"/>
<path transform="translate(1353,20)" d="m0 0h8l6 1v1h-10l-2-1v2h-8l3-2z" fill="#A9D6D6"/>
<path transform="translate(637,517)" d="m0 0 5 1v5l-3 1-2-1z" fill="#CDE5E4"/>
<path transform="translate(751,13)" d="m0 0h5l1 4-1 2-5-1z" fill="#D4EAEA"/>
<path transform="translate(929,452)" d="m0 0 5 3 9 7-3 1-2-1v-2l-5-2v-2l-4-2z" fill="#99D3D2"/>
<path transform="translate(1495,437)" d="m0 0 2 3 2-3v9h-2l-2 3z" fill="#A6CECE"/>
<path transform="translate(1242,429)" d="m0 0 1 2-2 6-6 2v-4l5-1 1-4z" fill="#6FC5C8"/>
<path transform="translate(447,178)" d="m0 0h4v5l-5 1-1-2z" fill="#D1EEED"/>
<path transform="translate(466,590)" d="m0 0h5l-4 2-6 4-5 5 2-5 4-4z" fill="#A8DBDB"/>
<path transform="translate(1525,436)" d="m0 0h1v10l-4 3v-11l2 2z" fill="#AFD3D2"/>
<path transform="translate(533,427)" d="m0 0h3l-1 4-4 1v2h-2l1-5z" fill="#F36F77"/>
<path transform="translate(1361,38)" d="m0 0 5 4 4 6-2 4h-1l-2-7-4-5z" fill="#AAD6D6"/>
<path transform="translate(463,633)" d="m0 0h5l6 2 6 1v1h-8l-8-2z" fill="#A0D0CF"/>
<path transform="translate(1434,517)" d="m0 0 4 1-1 6-4-2z" fill="#D9E5E4"/>
<path transform="translate(1187,455)" d="m0 0 3 1-2 4-4 1v-2l-4-1z" fill="#8ACFD1"/>
<path transform="translate(1364,209)" d="m0 0 3 1-6 7-4 1-2-1 1-2h4z" fill="#F26F6A"/>
<path transform="translate(1338,62)" d="m0 0 6 5 5 3-2 1-4-1v-2l-4-2z" fill="#97D3D3"/>
</svg>
