<?xml version="1.0" encoding="UTF-8"?>
<svg version="1.1" viewBox="0 0 2000 1580" width="500" height="395" xmlns="http://www.w3.org/2000/svg">
<path transform="translate(718,93)" d="m0 0h23l13 3 14 7 8 7 5 8 3 11v8l-2 10 4 5 11 9 7 8 7 12 4 15 2 22v35l3 16 6 12 3 16 2 22v19l-1 8h549l6-3 13-12 10-8 13-12 14-12 11-10 11-9 15-13 10-9 11-9 11-10 11-9 14-12 15-13 14-12 10-9 11-9 10-9 8-5h2l1 2v6l-12 11-8 7-10 9-8 7-10 9-11 9-11 11-11 9-14 13-8 7-11 10-11 9-4 4h-2v2l-8 7-11 10-8 7-14 12-13 12-11 10-1 2 253 1 1 2v660l8-6 8-7 16-10 17-8 19-6 11-2-15-12-9-12-2-6v-9l2-4 12-3 6-11 5-4 6 1 7 4h2l4-10 5-6 2-1h10l6 3 4 9 2 5 10-5h5l5 5 4 8v2h10l4 4 2 6-1 9-5 10-6 7-8 6-6 3-1 2 13 1 26 8 7 4v-12l3-15 4-5 5-3 6 1 5 2h13l3 3 1 8 8-1 1-1h7l5 3 2 5-1 9-2 4 8 7 1 2v7l-2 2 1 5 2 4-1 6-5 5-7 2-10 1 2 4 10 18 8 21 5 25 1 6 4-2 6-7 4-4h2v-2h2l-1 5-6 8 4 1h4v2l-18 7v32l-1 17-5 33-6 25-8 25-6 16h19l1 1v36l-1 1-15 2-2 5-6 54-3 23-5 45-6 48-2 17-2 5-6 1h-94l-103 1-31 1h-218l-170-1-49-1h-213l-213 1h-118l-109-1-524-1-1-2-1-9v-105h-18v-120l76-1 26-1 7-2 5-8 2-12 1-41 2-25 2-4 7 1 5 3h19l15-2 12-6-1-5-4-16-4-24-3-7-4 1-8 8-11 18-6 7-11 6-3-1 8-26 7-20 6-15 7-19 25-65 6-19 5-16 5-14 15-49 6-10 5-7 3-5 3 1 4 13v9l-4 14-1 8-1 53v39l2 27 1 12v35l-1 12v55l1 18h115l1-3v-702h-250l-1-1-2-53 1-113 1-9h429l1 1v53l101-1 7 1-11-14-7-10-5-12-5-16-6-9-10-13-11-19-7-18-2-9v-16l4-13 7-12 9-10 7-7 13-10 12-14 12-13 12-11 16-11 16-8 15-5 15-3zm-181 314 1 4 7 8 8 8 1 2h2l2 4 11 11 9 11 12 9 11 9h36l8-4 11-12 10-13 5-9-1-19-1-8zm245 1-1 1v7l5 24 4 9 12 11 6 12 2 1 16 1h192l91-1 5-5 9-12 9-11 14-15 10-9 15-11v-2zm-315 58-3 1-42 1h-16v383l1 9h2l3-8 5-19 15-37 10-23 12-25 9-19 10-19 12-23 12-21 30-50 14-22 7-10 8-13 2-12v-85l-3-3-16-3-17-2zm525 122-7 10-9 21-4 12 1 4 4-1 5-7 13-2 3-4v-16l-4-15zm-586 364v190h22l2-9 3-30 2-37 3-37 1-7v-9l-20-1 3-12 9-25 1-4-7-6-9-6-5-5zm1094 113-15 2-7-1-2 2-2 7-206 1-6 11-9 2v1l11 1 65 2 45 3 15 2 25-2h18l13 2 2 16 2 2 31 5 14 2h27l9-3 5-4 1-2-1-10-5-14-12-22-4-3zm-1330 31 1 2zm1073 7-21 3-5 2-1 5v25l3 3h26l16-1h30l27 2h9l7-3 10-13 4-6 1-7-3-6-4-2-27-2zm365 174-20 1-452 1v14l2 22 1 20 2 17 3 29 4 36 2 2 5-1 14-7 19-5 26-12 11-3 46-5 26-5 6 1 5 8 7 14 12 16 8 13 5 3 10 3 9-7 12-8 9-2h31l23 6 9 6 11 9 1 6-5 2-7 1v1l30 8 9 4-3 1-29 2-10 2-17 6-19 6-2 2 6 2 9 1 21 1 145 1h39l35-1 7-1 1-2-1-9-8-3-4-4-9-14-6-10-2-10 1-17 1 1 9 14 5 4 5-1 3-2v-20l-3-28-6-49-4-31-1-11-2-3-14-1-2-14zm49 159 2 4v-4z" fill="#FDC409"/>
<path transform="translate(222,878)" d="m0 0 3 1 4 13v9l-4 14-1 8-1 53v39l2 27 1 12v35l-1 12v55l1 18h117v2h297v31l99-1h872l18 1-5-26-4-31-1-10v-33l2-17 4-20 6-17 5-12 9-15 10-13 1-55h1v51l8-6 8-7 16-10 17-8 19-6 11-2-15-12-9-12-2-6v-9l2-4 12-3 6-11 5-4 6 1 7 4h2l4-10 5-6 2-1h10l6 3 4 9 2 5 10-5h5l5 5 4 8v2h10l4 4 2 6-1 9-5 10-6 7-8 6-6 3-1 2 13 1 26 8 7 4v-12l3-15 4-5 5-3 6 1 5 2h13l3 3 1 8 8-1 1-1h7l5 3 2 5-1 9-2 4 8 7 1 2v7l-2 2 1 5 2 4-1 6-5 5-7 2-10 1 2 4 10 18 8 21 5 25 1 6 4-2 6-7 4-4h2v-2h2l-1 5-6 8 4 1h4v2l-18 7v32l-1 17-5 33-6 25-8 25-6 16h19l1 1v36l-1 1-15 2-2 5-6 54-3 23-5 45-6 48-2 17-2 5-6 1h-94l-103 1-31 1h-218l-170-1-49-1h-213l-213 1h-118l-109-1-524-1-1-2-1-9v-105h-18v-120l76-1 26-1 7-2 5-8 2-12 1-41 2-25 2-4 7 1 5 3h19l15-2 12-6-1-5-4-16-4-24-3-7-4 1-8 8-11 18-6 7-11 6-3-1 8-26 7-20 6-15 7-19 25-65 6-19 5-16 5-14 15-49 6-10 5-7zm-52 218 1 2zm1438 181-20 1-452 1v14l2 22 1 20 2 17 3 29 4 36 2 2 5-1 14-7 19-5 26-12 11-3 46-5 26-5 6 1 5 8 7 14 12 16 8 13 5 3 10 3 9-7 12-8 9-2h31l23 6 9 6 11 9 1 6-5 2-7 1v1l30 8 9 4-3 1-29 2-10 2-17 6-19 6-2 2 6 2 9 1 21 1 145 1h39l35-1 7-1 1-2-1-9-8-3-4-4-9-14-6-10-2-10 1-17 1 1 9 14 5 4 5-1 3-2v-20l-3-28-6-49-4-31-1-11-2-3-14-1-2-14zm49 159 2 4v-4z" fill="#FDEDBC"/>
<path transform="translate(91,293)" d="m0 0h427v1l-24 1h-402l1 143v28l21-1h259l80 1v1l-22 2-25-1v394l-2 18-4 20-1 7v18l3 16 4 10v191h22l3-26 3-50 3-37 2-14 3-2 278-1h200l-5-66v-5l1-1 22-1 5-3 6-7-1-7-5-8-6-7-10-7 4-1 8 4 9 3 21 5h12l5-3h2l4-8v-6l-5-10-9-9v-2l6 1 5 2 17 3h9l9-4 4-6 1-9-5-10-10-9-19-12-18-10-27-14-28-13-16-7-9-5 3-1 12 4 8 4 13 5 15 7 22 11 15 8 12 3v2h7l8 2 12 2h17l7-7v-8l-5-8-5-5-8-7-13-8-6-4-23-11-15-6-6-3-12-4-10-4-18-6-13-3-12-3-15-2h-20l-10 1 1-6 9-24 4-12 3-8 11-32 1-1 21 1 5 1 20 2h16l8-18 16-35 3-6-5-2-1-2-7-4-8-6-1-2-3-1-3-3-5-4-7-6-5-3-10-8-17-13-1-2-4-2-1-2-3-1-7-7-4-2-5-5-8-5-5-5-5-3-1-2-5-3-5-5-7-4-9-8-13-10-5-5 12-2 190-1 90 1-1 5-14 21-12 14-9 11-9 4-6 7-2 3h-2l-2 5h-2l-1 4-3 3-1 2h-2l-2 5-2 1-1 3h-2l-1 4-8 10h-2l-4 8 10 8 5 3v2h3v2l4 1v2h3v2l4 1v2l4 1 8 6 9 6v2l4 1v2l4 2 7 4v2l4 1 4 4 3 1 4 4 12 8 5 3v3l5 2 10 6-7-9-10-9-11-9-12-12-1-3-3-2v-2l-4-2-9-8-5-5-7-6-5-6-7-6-5-7v-2h2l5 5 16 15 10 9 2 5 4 2 6 6 5 2 8 8 8 7v2l4 2 8 8 2 1v2h2v2h2l7 8 41 41 5 6 2 1v3h-3v-2l-4-2-14-14-5-4v-2l-4-2-5-3-3 13-5 10-4 12h-2l-1 7-5 10-4 10-6 14-2 7h-2l-2 10-2 5h-2l-1 5-3 9-5 12h-2v7l14-12 14-11 7-7 8-7 13-13 5-4 7-8 22-22 7-8 11-12 9-11 9-10 4-5h2l-1-6-4-3 2-4 11-14 8-11 11-15 6-8 25-7 16-7 10-6 12-9 10-9 8-7 8-8 10-13 6-10 4-9v-17l-6-8-7-3 1-2 7-4 4-5h2l3-10 1-9-1-6h69v566h30l1 1v32l-2 3-207 1-349-1 4 42 3 23h294l42-2h30l27 2h272l3-1 1-133v-597l-1-2-219-1v-2l11-7 16-12 10-9 7-10 1-8-4-6-5-3v-2l-2-1h248l1 2v553l-1 111-12 16-8 14-8 20-4 16-3 17-1 11v33l4 35 5 27v5h-989v-31h-297l-1-5v-702h-250l-1-1-2-53 1-113zm901 295-7 10-9 21-4 12 1 4 4-1 5-7 13-2 3-4v-16l-4-15z" fill="#1B2C34"/>
<path transform="translate(718,93)" d="m0 0h23l13 3 14 7 8 7 5 8 3 11v8l-2 10 4 5 11 9 7 8 7 12 4 15 2 22v35l3 16 6 12 3 16 2 22v19l-1 8h549l6-3 13-12 10-8 13-12 14-12 11-10 11-9 15-13 10-9 11-9 11-10 11-9 14-12 15-13 14-12 10-9 11-9 10-9 8-5h2l1 2v6l-12 11-8 7-10 9-8 7-10 9-11 9-11 11-11 9-14 13-8 7-11 10-11 9-4 4h-2v2l-8 7-11 10-8 7-14 12-13 12-11 10-1 2h23v1l-16 1v2l5 2 4 5 1 7-5 9-9 10-15 12-15 10h-2v2h219l2 3v597l-1 133-4 2-259-1 1-2h2l2-4 10-13 2-5-1-7-1-3-13-2-18-1h-72l-21 3-5 2v31h2v2h-294l-1-1-3-23-3-34v-8h349l-1 5-4 7-2 1 4 1 65 2 45 3 15 2 25-2h18l13 2 1 1 2 16 5 2 41 6h27l9-3 5-5-1-10-5-14-11-20v-2l-4-2h-14l-15 2-7-1-2 1-1-27-30-1-1-8v-451l1-107h-69l2 6-1 9-4 10-5 5-5 4-3 1 7 4 6 8v17l-8 16-10 13-9 10-8 8-8 7-13 10-13 8-16 7-18 5-8 3-10 14-9 12-8 11-9 11v2l4 3 1 4-7 8-11 12-9 11-12 13-11 12-20 20-5 6-8 7-13 13-8 7-13 11-10 8-6 5h-1v-6l1-2h2l1-4 3-8 5-14h2l1-5 3-10h2l2-9 10-24 4-8 2-7h2l2-9 5-12 3-9 2-5 4 1 5 4 5 5 5 4 7 8 6 5v2h3v-3l-3-1-5-6v-2l-4-2-43-43v-2h-2v-2h-2v-2l-4-2-13-13-13-12-6-3-10-10-7-8-10-9-12-11-3-2v-2h-2l6 9 7 6 5 6 7 6 5 5 16 14 3 5 9 8v2l4 2 11 10 3 2v2l4 2 6 7v2l-5-2-10-6v-3l-5-2-16-11v-2l-4-1-4-4-3-1v-2l-5-2-6-4v-2l-4-1v-2l-5-2-12-9-4-2v-2l-4-1v-2h-3l-1-2-3-1v-2h-3v-2l-5-2-10-8v-4l4-5 5-5 5-6 1-3h2l1-4 3-3 1-2h2l2-5h2l1-4 3-3 9-11 5-4 6-2 12-14 11-14 12-19 1-3h-89v-1l91-1 5-5 8-11 9-11 14-15 11-10 14-10 1-2-389 1v7l4 20-1 11-14 48-5 15-8-6-13-11-10-8-14-12-11-9-13-11-14-11-4-3v-2l-4-2-3-1-2-6-1-20h-128l-4-1-1 3-11-9-4-5-2-1-1-79v-21l3-1v53l101-1 7 1-11-14-7-10-5-12-5-16-6-9-10-13-11-19-7-18-2-9v-16l4-13 7-12 9-10 7-7 13-10 12-14 12-13 12-11 16-11 16-8 15-5 15-3z" fill="#FA947E"/>
<path transform="translate(222,878)" d="m0 0 3 1 4 13v9l-4 14-1 8-1 53v39l2 27 1 12v35l-1 12v55l1 18h117v2h297v31h486l503 1 3 7 9 27 5 13h-18v21l-1 1-39 2h-452l3 36v14l-2 2h-11l-45 3-34 3-12 1h-14l-2-17-1-29v-15l-10 1h-27l-2 30-1 34-58 4-48 2h-11l-2-1-2 15-4 47-2 36-2 1h-117l1 43h-90l-1-1v-9h-401l-2-1v-92h403l1-11 31-1h33l1-12h-403l-1-1v-94h404v-12l-82 1h-189l-38-1h-71l-36 1h-171l-45-2v-1l26-1 7-2 5-8 2-12 1-41 2-25 2-4 7 1 5 3h19l15-2 12-6-1-5-4-16-4-24-3-7-4 1-8 8-11 18-6 7-11 6-3-1 8-26 7-20 6-15 7-19 25-65 6-19 5-16 5-14 15-49 6-10 5-7zm-52 218 1 2z" fill="#FDECBB"/>
<path transform="translate(1014,473)" d="m0 0 93 1-1 5-14 21-12 14-9 11-9 4-6 7-2 3h-2l-2 5h-2l-1 4-3 3-1 2h-2l-2 5-2 1-1 3h-2l-1 4-8 10h-2l-4 8 10 8 5 3v2h3v2l4 1v2h3v2l4 1v2l4 1 8 6 9 6v2l4 1v2l4 2 7 4v2l4 1 4 4 3 1 4 4 12 8 5 3v3l5 2 10 6-7-9-10-9-11-9-12-12-1-3-3-2v-2l-4-2-9-8-5-5-7-6-5-6-7-6-5-7v-2h2l5 5 16 15 10 9 2 5 4 2 6 6 5 2 8 8 8 7v2l4 2 8 8 2 1v2h2v2h2l7 8 41 41 5 6 2 1v3h-3v-2l-4-2-14-14-5-4v-2l-4-2-5-3-3 13-5 10-4 12h-2l-1 7-5 10-4 10-6 14-2 7h-2l-2 10-2 5h-2l-1 5-3 9-5 12h-2v7l14-12 14-11 7-7 8-7 13-13 5-4 7-8 22-22 7-8 11-12 9-11 9-10 4-5h2l-1-6-4-3 2-4 11-14 8-11 11-15 6-8 25-7 16-7 10-6 12-9 10-9 8-7 8-8 10-13 6-10 4-9v-17l-6-8-7-3 1-2 7-4 4-5h45l3 1v361l1 95v57l-5 3h-290l-212-1-7-1v-1l13-1-1-28-3-38v-5l1-1 22-1 5-3 6-7-1-7-5-8-6-7-10-7 4-1 8 4 9 3 21 5h12l5-3h2l4-8v-6l-5-10-9-9v-2l6 1 5 2 17 3h9l9-4 4-6 1-9-5-10-10-9-19-12-18-10-27-14-28-13-16-7-9-5 3-1 12 4 8 4 13 5 15 7 22 11 15 8 12 3v2h7l8 2 12 2h17l7-7v-8l-5-8-5-5-8-7-13-8-6-4-23-11-15-6-6-3-12-4-10-4-18-6-13-3-12-3-15-2h-20l-10 1 1-6 9-24 4-12 3-8 11-32 1-1 21 1 5 1 20 2h16l8-18 16-35 3-6-5-2-1-2-7-4-8-6-1-2-3-1-3-3-5-4-7-6-5-3-10-8-17-13-1-2-4-2-1-2-3-1-7-7-4-2-5-5-8-5-5-5-5-3-1-2-5-3-5-5-7-4-9-8-13-10-5-5 12-2zm-22 115-7 10-9 21-4 12 1 4 4-1 5-7 13-2 3-4v-16l-4-15z" fill="#2B464D"/>
<path transform="translate(1370,408)" d="m0 0h178l45 1v732l-3 1-259-1 1-2h2l2-4 10-13 2-5-1-7-1-3-13-2-18-1h-72l-21 3-5 2v31h2v2h-294l-1-1-3-23-3-34v-8h349l-1 5-4 7-2 1 4 1 65 2 45 3 15 2 25-2h18l13 2 1 1 2 16 5 2 41 6h27l9-3 5-5-1-10-5-14-11-20v-2l-4-2h-14l-15 2-7-1-2 1-1-27-30-1-1-8v-451l1-107-73-1-9-7 1-4 5-4 4-6 1-3v-8l-4-9-5-5-10-5-3-2 14-10z" fill="#FCFCFC"/>
<path transform="translate(304,1267)" d="m0 0h405l1 1v9l153 1v16l-4 50-5 50-3 51-2 1h-117l1 43h-90l-1-1v-9h-401l-2-1v-92h403l1-11 31-1h33l1-12h-403l-1-1z" fill="#FCFCFC"/>
<path transform="translate(929,65)" d="m0 0h428l1 10v232l-7 2h-492l-2-2 7-8 13-12 11-12 8-7 31-31 1-2zm42 40-1 4 1 3 6 1h330l9-1v-5l-1-1-56-1zm10 34-10 1-1 2 1 3 5 1h154l49-1 1-4-1-1-67-1zm-10 33-1 1v6l24 1h235l50-1 1-1v-5l-49-1zm-1 34-1 3 2 4h280l10-1 1-5-1-1zm2 33-1 1v6l234 1h62l49-1 1-5-1-1h-317zm-1 34 1 5h83l59-1 15-1v-3zm178 0-4 2 1 1 7 1h9v-3z" fill="#FDC50B"/>
<path transform="translate(1761,897)" d="m0 0h10l6 3 4 9 2 5 10-5h5l5 5 4 8v2h10l4 4 2 6-1 9-5 10-6 7-8 6-6 3-1 2 13 1 26 8 7 4v-12l3-15 4-5 5-3 6 1 5 2h13l3 3 1 8 8-1 1-1h7l5 3 2 5-1 9-2 4 8 7 1 2v7l-2 2 1 5 2 4-1 6-5 5-7 2-10 1 2 4 10 18 8 21 5 25 1 6 4-2 6-7 4-4h2v-2h2l-1 5-6 8 4 1h4v2l-18 7v32l-1 17-5 33-6 25-8 25-6 16-3 1h-242l-10-26-6-19-503-1-387-1v-1h872l18 1-5-26-4-31-1-10v-33l2-17 4-20 6-17 5-12 9-15 10-13 1-55h1v51l8-6 8-7 16-10 17-8 19-6 11-2-15-12-9-12-2-6v-9l2-4 12-3 6-11 5-4 6 1 7 4h2l4-10 5-6z" fill="#607881"/>
<path transform="translate(0,1254)" d="m0 0h98l23 1h171l36-1h71l38 1h271v12h-404l1 94h310l93 1v12l-5 1h-60l-1 11h-403v92l403 1 1 9 420 1v1l-79 1-213 1h-118l-109-1-524-1-1-2-1-9v-105h-18z" fill="#FDC409"/>
<path transform="translate(518,293)" d="m0 0 2 1-1 1v100l4 2 5 6 8 6 18 18v2h2l7 8 7 7 9 11 15 11 7 6v1l-44 1v-2l-26-4-9-1h-55l-3 1h-20v-1l-71-1h-280l-1-28v-143l80-1h322z" fill="#FBFBFB"/>
<path transform="translate(1401,345)" d="m0 0 25 1v1l-16 1v2l5 2 4 5 1 7-5 9-9 10-15 12-15 10h-2v2h219l2 3v597l-1 133h-1v-731h-223l-10 6-7 5 14 7 6 8 2 6v8l-3 6-6 7-2 1 1 4 7 5 71 1v1h-67l2 6-1 9-4 10-5 5-5 4-3 1 7 4 6 8v17l-8 16-10 13-9 10-8 8-8 7-13 10-13 8-16 7-18 5-8 3-10 14-9 12-8 11-9 11v2l4 3 1 4-7 8-11 12-9 11-12 13-11 12-20 20-5 6-8 7-13 13-8 7-13 11-10 8-6 5h-1v-6l1-2h2l1-4 3-8 5-14h2l1-5 3-10h2l2-9 10-24 4-8 2-7h2l2-9 5-12 3-9 2-5 4 1 5 4 5 5 5 4 7 8 6 5v2h3v-3l-3-1-5-6v-2l-4-2-43-43v-2h-2v-2h-2v-2l-4-2-13-13-13-12-6-3-10-10-7-8-10-9-12-11-3-2v-2h-2l6 9 7 6 5 6 7 6 5 5 16 14 3 5 9 8v2l4 2 11 10 3 2v2l4 2 6 7v2l-5-2-10-6v-3l-5-2-16-11v-2l-4-1-4-4-3-1v-2l-5-2-6-4v-2l-4-1v-2l-5-2-12-9-4-2v-2l-4-1v-2h-3l-1-2-3-1v-2h-3v-2l-5-2-10-8v-4l4-5 5-5 5-6 1-3h2l1-4 3-3 1-2h2l2-5h2l1-4 3-3 9-11 5-4 6-2 12-14 11-14 12-19 1-3h-89v-1l91-1 5-5 8-11 9-11 14-15 11-10 14-10 1-2 18-6 21-5 29-4 11-1 37-1 19-9 16-8 10-4 8-4 16-6 10-4 2 1-6 7-5 3-13 12-11 9-12 10-8 7-7 6-5 1-1 4-4 6-7 6-10 6h-2v2l-16 6-11 4-17 5-3 2-3 14-7 16-8 12-12 14-9 9-7 8h-2l-2 4-6 5-1 2 5-1v-2l12-9h2v-2l8-7h4v6l6 10v2l10 4 11 1-1 5-5 9-1 5v10l6 8 7 2h17l11-3 14-5 9-3 13-4 8-1v-2l-20 4-10 3-9 4-11 3-9 1h-11l-7-3-3-7v-9l6-9 8-9 5-4h2v-2l16-8 18-6 11-3 30-4 28-2 2-1-6-2-10-1h-14l-17 2-27 6-18 7-11 6-10 5-11 2-13-1v-2h-3l-3-5-1-4v-8l4-8 9-10 3-3 9-5 11-6 11-3 16-4 7-2 19-3 15-2 13-1 30-1-4-2-11-2h-30l-9 1-10 2-21 5-12 4-7 2v2l-13 4-11 1-1-2 5-14 2-9 1-2 14-4 12-4 15-7 13-9 5-6 2-1 25-2h27l-6-2-17-2-3-2 6-7 11-9 13-12 16-14 5-6 10-7 4-5 5-5z" fill="#FA947E"/>
<path transform="translate(1014,473)" d="m0 0 93 1-1 5-14 21-12 14-9 11-9 4-6 7-2 3h-2l-2 5h-2l-1 4-3 3-1 2h-2l-2 5-2 1-1 3h-2l-1 4-8 10h-2l-4 8 10 8 5 3v2h3v2l4 1v2h3v2l4 1v2l4 1 8 6 9 6v2l4 1v2l4 2 7 4v2l4 1 4 4 3 1 4 4 12 8 5 3v3l5 2 10 6-7-9-10-9-11-9-12-12-1-3-3-2v-2l-4-2-9-8-5-5-7-6-5-6-7-6-5-7v-2h2l5 5 16 15 10 9 2 5 4 2 6 6 5 2 8 8 8 7v2l4 2 8 8 2 1v2h2v2h2l7 8 41 41 5 6 2 1v3h-3v-2l-4-2-14-14-5-4v-2l-4-2-5-3-3 13-5 10-4 12h-2l-1 7-5 10-4 10-6 14-2 7h-2l-2 10-2 5h-2l-1 5-3 9-5 12h-2v7l2 1-3 3-3 1-9 25-5 12-11 26-11 27-10 24-4 8h-92l-5-2v-3l-5 2 6-7 1-7-5-9-7-8-10-7 4-1 8 4 9 3 21 5h12l5-3h2l4-8v-6l-5-10-9-9v-2l6 1 5 2 17 3h9l9-4 4-6 1-9-5-10-10-9-19-12-18-10-27-14-28-13-16-7-9-5 3-1 12 4 8 4 13 5 15 7 22 11 15 8 12 3v2h7l8 2 12 2h17l7-7v-8l-5-8-5-5-8-7-13-8-6-4-23-11-15-6-6-3-12-4-10-4-18-6-13-3-12-3-15-2h-20l-10 1 1-6 9-24 4-12 3-8 11-32 1-1 21 1 5 1 20 2h16l8-18 16-35 3-6-5-2-1-2-7-4-8-6-1-2-3-1-3-3-5-4-7-6-5-3-10-8-17-13-1-2-4-2-1-2-3-1-7-7-4-2-5-5-8-5-5-5-5-3-1-2-5-3-5-5-7-4-9-8-13-10-5-5 12-2zm-22 115-7 10-9 21-4 12 1 4 4-1 5-7 13-2 3-4v-16l-4-15z" fill="#395B66"/>
<path transform="translate(1376,474)" d="m0 0h69v566h30l1 1v32l-2 3-207 1-349-1 4 42 3 23h294l42-2h30l27 2v1l-18 1h-573l5-13 8-18 5-13 16-8 28-12 27-12 30-13 3-2-9 1-27 10-20 8-7 3h-5v-7l3-15 2-12 11-6 2-3h2l2-5 8-13-9 1-2 8-8 9-5 2-6-1-5-3-5-10 1-4-3-3h150v1l-6 1 212 1h290l4-2v-57l-1-103 1-353-46-1 3-10 1-9z" fill="#6C4D00"/>
<path transform="translate(648,629)" d="m0 0h4l-2 7-3 1-2 5-2 9-3 8-10 35-4 11-2 11-10 35-3 14h-2v5l70-5 23-1h29l3 1-1 5 10-4 14-5 28-7 18-5 40-8 13-2 2-1 9-1h20l21 3 13 4 12 3 20 7 10 4 9 3 11 5 13 6 17 8 18 12 11 9 6 9 1 2v8l-5 6-3 2h-17l-18-3-9-2v-2l-9-1-17-8-19-10-18-8-10-5-8-3-6-3-12-3 17 8 31 14 17 9 16 8 18 10 18 12 10 9 5 10-1 9-5 7-9 4h-9l-17-3-11-4 5 6 5 5 5 10-1 9-4 5-7 4h-12l-21-5-9-3-8-4h-3l11 8 8 10 3 6-1 7-8 8-3 1h-28l-6-1h-13l-25-1h-69l-12 6-15 8-20 8-16 4-25 3-46 2h-38l2-6 10-20 12-22 17-32 18-34 12-23 10-18 18-34 4-6v-6l-81 6-58 4-25 4-5 2-8 2-14 7-10 4-16 9-3 3-9 5-4 5-12 8h-2v2l-5 1 2-4h2l2-4 13-11 16-11 14-8 8-4 10-4h3v-2l22-5 22-4 2-1 11-1 3-8 2-10h2l1-7 9-33 14-49h2l1-9 6-18 2-1z" fill="#F9947F"/>
<path transform="translate(1887,1253)" d="m0 0h22l1 1v36l-1 1-15 2-2 5-6 54-3 23-5 45-6 48-2 17-2 5-6 1h-167l-27-1-46-1v-1l35-1 7-1-1-10-7-2-5-5-9-14-6-10-2-10 1-18h2l10 16 4 3 5-1 3-1-2-30-3-24-7-59-3-26-1-2-14-1-2-5 1-32 18-1zm-230 183 2 4v-4z" fill="#FDC409"/>
<path transform="translate(720,1012)" d="m0 0h48v1l-8 1 5 5 7 13 9 8v8l-4 20-1 8-7 5-46 22-21 12-14 9 10-4 27-13 15-6h2l-1 4-11 21-6 13-1 3-3 1h-201l-66-1-24-1 1-17 2-21 2-37 3-37 2-14 3-2z" fill="#6C4D00"/>
<path transform="translate(222,878)" d="m0 0 3 1 4 13v9l-4 14-1 8-1 53v39l2 27 1 12v35l-1 12v55l1 18h117v2l85 1 1 1v18l-1 56-3 2h-92l-5 1-36 1h-171l-45-2v-1l26-1 7-2 5-8 2-12 1-41 2-25 2-4 7 1 5 3h19l15-2 12-6-1-5-4-16-4-24-3-7-4 1-8 8-11 18-6 7-11 6-3-1 8-26 7-20 6-15 7-19 25-65 6-19 5-16 5-14 15-49 6-10 5-7zm-52 218 1 2z" fill="#FDFCFC"/>
<path transform="translate(1597,161)" d="m0 0h2l1 2v6l-12 11-8 7-10 9-8 7-10 9-11 9-11 11-11 9-14 13-8 7-11 10-11 9-4 4h-2v2l-8 7-11 10-8 7-14 12-13 12-12 11-8 6-4 5-5 5-9 7-5 4-6 7-8 7-11 10-11 9-10 9-1 2 2 1 17 2 7 2-1 2h-27l-25 2-5 5-10 8-15 8-20 7-6 2h-5l-3 14-4 12 11-1 11-3h2v-2l19-7 21-5 19-3h30l13 3 3 2-1 1-30 1-20 2-23 3-10 2-8 3-9 2-11 3-13 7-4 3h-3l-1 3-6 5-6 8-2 5v8l3 9h3v2h13l11-2 28-14 11-4 27-6 17-2h14l14 2 3 3-3 1-28 2-30 4-24 7-16 7-5 2v2l-10 8-8 10-2 4v9l2 6 7 3h11l14-2 14-5 7-3 12-3 12-1v2l-13 3-12 5-10 3-11 4-9 2h-17l-7-2-7-9v-10l3-9 4-6 1-4h-11l-10-5-7-12v-6l-4 2-5 5h-2v2l-11 8-3 1v2l-5 1 2-4 6-5 6-7 16-16 11-14 8-14 6-17 1-7 7-4 21-6 12-5 4-2h4v-2l12-7 8-7 4-8 6-3 12-11 13-10 10-9 11-9 6-6h3l2-4 2-3-17 7-10 4-18 8-14 6-17 9-3 1-37 1-33 4-20 4-14 4-9 3h-391l1-3 11-6 9-7 5-5 8-10 8-15 4-14 1-1 549-1 6-3 13-12 10-8 13-12 14-12 11-10 11-9 15-13 10-9 11-9 11-10 11-9 14-12 15-13 14-12 10-9 11-9 10-9z" fill="#1B2C34"/>
<path transform="translate(1401,345)" d="m0 0 25 1v1l-16 1v2l5 2 4 5 1 7-5 9-9 10-15 12-15 10h-2v2h219l2 3v597l-1 133h-1v-731h-223l-10 6-7 5 14 7 6 8 2 6v8l-3 6-6 7-2 1 1 4 7 5 71 1v1h-67l2 6-1 9-4 10-5 5-5 4-3 1 7 4 6 8v17l-8 16-10 13-9 10-8 8-8 7-13 10-13 8-16 7-18 5-8 3-10 14-9 12-8 11-9 11-4-1v-2l-4-2-14-14-8-7-8-8-8-7-17-16-24-22-7-6 2-4 13-11 14-13 8-7 14-12 10-9 5-5h2v-2l5-2 5 9v2l10 4 11 1-1 5-5 9-1 5v10l6 8 7 2h17l11-3 14-5 9-3 13-4 8-1v-2l-20 4-10 3-9 4-11 3-9 1h-11l-7-3-3-7v-9l6-9 8-9 5-4h2v-2l16-8 18-6 11-3 30-4 28-2 2-1-6-2-10-1h-14l-17 2-27 6-18 7-11 6-10 5-11 2-13-1v-2h-3l-3-5-1-4v-8l4-8 9-10 3-3 9-5 11-6 11-3 16-4 7-2 19-3 15-2 13-1 30-1-4-2-11-2h-30l-9 1-10 2-21 5-12 4-7 2v2l-13 4-11 1-1-2 5-14 2-9 1-2 14-4 12-4 15-7 13-9 5-6 2-1 25-2h27l-6-2-17-2-3-2 6-7 11-9 13-12 16-14 5-6 10-7 4-5 5-5z" fill="#F9937E"/>
<path transform="translate(18,1375)" d="m0 0h562l63 1-1 10h-403v92l403 1 1 9 420 1v1l-79 1-213 1h-118l-109-1-524-1-1-2-1-9z" fill="#2B464E"/>
<path transform="translate(1417,759)" d="m0 0h2v102l1 95v57l-5 3h-246l-8-1 5-4 7-8 8-7 11-11 1-2h2l2-4 4-4h2l2-4 4-4h2l2-4 4-4h2l2-4h2l2-4 4-4h2l2-4 12-12h2v-2h2v-2h2v-2h2v-2h2v-2h2v-2h2v-2h2v-2l7-6 5-6 8-7 49-49 7-8 4-4h2l2-4 4-4h2l2-4h2l2-4 8-7 27-27 1-2h2v-2h2v-2h2l2-4h2l2-4 7-7 4-2z" fill="#41575F"/>
<path transform="translate(1795,985)" d="m0 0h11l13 3 7 10 10 22 4 11v9l-7 1 7 14 6 2 3 9 3 20 1 17h2l1 12v31l-3 31-4 27-6 27-5 20v2l2-1 2-12 6-23 6-36 3-24 1-13v-41l-4-32-4-22 4-8v-2l-5 1-3-2-6-16-5-11-3-6-5-9v-3l5-1 5 3 5 2 4 3 1 2 4 2 10 10 8 13 8 17 10 30 5 24 1 7v46l-1 14-5 29-8 30-9 27-1 2h4l2-12 4-9 6-5h3v8l5 1v2h2l-3 10-2 5-3 1h-85l-30-1v-17l1-28 1-78v-46l6-10 2-2-1-3-2 2h-3l-2-3-2-30-1-24v-22l3-3 5-2h11l3 6 7 35 4 30 3 33 1 17v78l-1 22-1 13v13l-2 14-1 4 4-1 5-65 1-29v-26l-2-40-3-28-4-28-4-20-4-16-2-11z" fill="#607881"/>
<path transform="translate(945,1444)" d="m0 0h101l200 2 18 1 2 2v39h317l85 1 27 1v1l-61 2h-218l-170-1-49-1-464-2-1-7v-36l120-1h46z" fill="#FDE38E"/>
<path transform="translate(718,93)" d="m0 0h23l13 3 14 7 8 7 5 8 3 11v8l-2 10 4 5 11 9 7 8 7 12 4 15 2 22v17l-1 6-2-1-5-19-5-12-5-13-10-19-10-17-4-3-2 4-7 7-7 5-5 3-20 8-18 4-33 2v3h2l5 11 1 4v15l-3 13-6 12-10 12-8 6-7 4h-2l2 13v10l-5 2h-9l-10-7-8-4-10-2-7 3-4 5-2 3h-2l-6-8-10-14-9-15-6-14-4-15v-16l4-13 7-12 9-10 7-7 13-10 12-14 12-13 12-11 16-11 16-8 15-5 15-3z" fill="#1B2C34"/>
<path transform="translate(1014,473)" d="m0 0 93 1-1 5-14 21-12 14-9 11-9 4-6 7-2 3h-2l-2 5h-2l-1 4-3 3-1 2h-2l-2 5-2 1-1 3h-2l-1 4-8 10h-2l-4 8 10 8 5 3v2h3v2l4 1v2h3v2l4 1v2l4 1 8 6 9 6v2l4 1v2l4 2 7 4v2l4 1 4 4 3 1 4 4 12 8 5 3v3l5 2 10 6-7-9-10-9-11-9-12-12-1-3-3-2v-2l-4-2-9-8-5-5-7-6-5-6-7-6-5-7v-2h2l5 5 16 15 10 9 2 5 4 2 6 6 5 2 8 8 8 7v2l4 2 8 8 2 1v2h2v2h2l7 8 41 41 5 6 2 1v3h-3v-2l-4-2-14-14-5-4v-2l-4-2-5-3-3 11-3-1 1-7-4-6-6-2-7-3-8-4-17-12-7-5v-2h-3v-2l-5-2-17-12-16-11v-2l-5-2-20-14-12-8v-2l-5-2-11-7-7-4-3 7-6 9-10 25-3 5-4 8-6 13-3 6-2 3h-2l-2 4-4 1-4-1-3 3h-7l-6 1-16-3-3-1h-7l-3-2 1-2-4 1-9-1-2 9h-1l-2 11-3 1-1 10-1 2h-2l-1 11-2 2-2 9-3 6-3 9v3l-2 5-6 1 1-6 9-24 4-12 3-8 11-32 1-1 21 1 5 1 20 2h16l8-18 16-35 3-6-5-2-1-2-7-4-8-6-1-2-3-1-3-3-5-4-7-6-5-3-10-8-17-13-1-2-4-2-1-2-3-1-7-7-4-2-5-5-8-5-5-5-5-3-1-2-5-3-5-5-7-4-9-8-13-10-5-5 12-2z" fill="#2B464D"/>
<path transform="translate(1376,474)" d="m0 0h69v566h-308l-6-1 3-1v-2l9-2 5-5 6-7-4-3-11-1-7-1v-1l37-1h246l4-2v-57l-1-103 1-353-46-1 3-10 1-9z" fill="#8D6716"/>
<path transform="translate(915,1040)" d="m0 0h560l1 1v32l-2 3-207 1-350-1-2-23z" fill="#2E4951"/>
<path transform="translate(1201,515)" d="m0 0 3 1v7l-4 2v2l-8 7-12 11-11 9-15 14-8 7-13 11 1 3 8 7 16 15 10 9 15 14 13 12 17 16 7 7 5 4 5 5 1 4-7 8-11 12-9 11-12 13-11 12-20 20-5 6-8 7-13 13-8 7-13 11-10 8-6 5h-1v-6l1-2h2l1-4 3-8 5-14h2l1-5 3-10h2l2-9 10-24 4-8 2-7h2l2-9 5-12 3-9 2-5 4 1 5 4 5 5 5 4 7 8 6 5v2h3v-3l-3-1-5-6v-2l-4-2-43-43v-2h-2v-2h-2v-2l-4-2-13-13-13-12-6-3-10-10-7-8-10-9-12-11-3-2v-2h-2l6 9 7 6 5 6 7 6 5 5 16 14 3 5 9 8v2l4 2 11 10 3 2v2l4 2 6 7v2l-5-2-10-6v-3l-5-2-16-11v-2l-4-1-4-4-3-1v-2l-5-2-6-4v-2l-4-1v-2l-5-2-12-9-4-2v-2l-4-1v-2h-3l-1-2-3-1v-2h-3v-2l-5-2-10-8v-4l4-5 5-5 5-6 1-3h2l1-4 3-3 1-2h2l2-5h2l1-4 3-3 9-11 5-4h5l1 6 4 2 12 11 8 7 7 7 8 7 5 5 4-1 14-12 15-12 11-4 10-3 4-3h5v-2l12-9h2v-2l8-7z" fill="#FCC30A"/>
<path transform="translate(1297,1380)" d="m0 0 6 1 4 5 8 17 12 15 8 14 5 3 10 3 9-7 12-8 9-2h31l23 6 9 6 12 10 1 4-4 4-4 2 28 8 9 4v1l-19 2-23 2-20 7-19 6 4 2 9 1 21 1v1h-171v-42l-113-1-3-1-1-4-1-22 6-1 14-7 19-5 26-12 11-3 46-5z" fill="#FDFDFD"/>
<path transform="translate(345,1176)" d="m0 0h295v79l-14 1h-189l-38-1-66-1v-1h92l2-1 1-56v-18l-83-1z" fill="#9FA4A5"/>
<path transform="translate(775,157)" d="m0 0 4 2 8 13 6 11 8 15 6 17 4 10 4 15 1 1 2 20 3 11 1 5-4 10-6 7-6 3h-11l-12-3-2-5-7-10-5-10v-2l-13 3-2 2v21l-4 11-7 9-8 6-11 4h-12l-10-3-11-8-8-14-1-4-9 1-16 4-7 2-3-2v-3l10-3-2-14v-9l13-8 5-4 8-10 4-7 4-12 1-6v-15l-5-13v-2h-2l-1-4 34-2 21-5 18-8 11-7 8-8z" fill="#F9937D"/>
<path transform="translate(1417,851)" d="m0 0h1l1 10 1 95v57l-5 3h-155l-4-2 8-7 11-11h2l2-4 130-130 7-6z" fill="#41575F"/>
<path transform="translate(178,1375)" d="m0 0h402l63 1-1 10h-403v92l403 1 1 9 420 1v1l-79 1-213 1h-118l-109-1-312-1-5-1-3-4-1-7 1-11 1-10v-9l1-3v-9l1-3 1-13-1-8-1-26v-2h-22l-21-2-36-1-8-1h-5v-2h-4l-1 3-5-1-4-1-4 2-4-1v-2l-10 2-7-1-3 2-10-2-1 2-6-1v-2l-4 3h-22l-4-2v2h-7l-6-2-10-1v-2z" fill="#24343B"/>
<path transform="translate(328,1254)" d="m0 0h71l38 1h271v12h-404l1 94h310l93 1v12l-5 1h-29l-31 1h-63l-283-1-3-7-1-94 1-13 3-4-5-1v-1z" fill="#DD9E25"/>
<path transform="translate(671,432)" d="m0 0 1 2 4 1 3 2v2l4 2 11 9 13 11 11 9 13 11 17 14 13 11 4 3 4-10 10-35 5-17 2-7 2 3 3 6 10 9 1 13 4 36 6 42v6l-4-1-12-11-9-6-10-8-7-5-6 16-11 29-5 13h-3l-10-14-13-16-12-16-7-8-9-12-11-13-8-10-14-17-9-11-2-2 9-11 6-8z" fill="#FCFCFB"/>
<path transform="translate(1854,949)" d="m0 0 6 1 5 2h13l3 3 1 8 8-1 1-1h7l5 3 2 5-1 9-2 4 8 7 1 2v7l-2 2 1 5 2 4-1 6-5 5-7 2-10 1 2 4 10 18 8 21 5 25 1 6 4-2 6-7 4-4h2v-2h2l-1 5-6 8 4 1h4v2l-18 7v32l-1 17-5 33-6 25-8 25-3 1v-2h-5l-1-2 1-7-4 1-5 5-4 12-2 8h-4l3-10 8-26 7-28 4-24 1-14v-46l-4-23-6-21-8-22-11-21-5-5-5-6-2-5-5-4v-2l-4-1-5-7-5-5 1-2 5 1 4 2v-12l3-15 4-5z" fill="#627981"/>
<path transform="translate(519,294)" d="m0 0h2v53l101-1 9 1 6 4 12 2 5 3 7 12 3 5 3 13 2 16v6h-128l-4-1-1 3-11-9-4-5-2-1-1-79v-21z" fill="#1C2D34"/>
<path transform="translate(1831,992)" d="m0 0 11 5 4 3 1 2 4 2 10 10 8 13 8 17 10 30 5 24 1 7v46l-1 14-5 29-8 30-9 27-1 2h4l2-12 4-9 6-5h3v8l5 1v2h2l-3 10-2 5-3 1h-47l1-11 6-22 5-26 5-38 1-13v-41l-4-32-4-22 4-8v-2l-5 1-3-2-6-16-5-11-3-6-5-9v-3z" fill="#607881"/>
<path transform="translate(1597,161)" d="m0 0h2l1 2v6l-12 11-8 7-10 9-8 7-10 9-11 9-11 11-11 9-14 13-8 7-11 10-11 9-4 4h-2v2l-8 7-11 10-8 7-14 12-13 12-12 11-8 6-4 5-5 5-9 7-5 4-6 7-8 7-11 10-11 9-10 9-1 2 2 1 17 2 7 2-1 2h-27l-25 2-5 5-10 8-15 8-20 7-6 2h-5l-3 14-4 12 11-1 11-3h2v-2l19-7 21-5 19-3h30l13 3 3 2-1 1-30 1-20 2-23 3-10 2-8 3-9 2-11 3-13 7-4 3h-3l-1 3-6 5-6 8-2 5v8l3 9h3v2h13l11-2 28-14 11-4 27-6 17-2h14l14 2 3 3-3 1-28 2-30 4-24 7-16 7-5 2v2l-10 8-8 10-2 4v9l2 6 7 3h11l14-2 14-5 7-3 12-3 12-1v2l-13 3-12 5-10 3-11 4-9 2h-17l-7-2-7-9v-10l3-9 4-6 1-4h-11l-10-5-7-12v-6l-4 2-5 5h-2v2l-11 8-3 1v2l-5 1 2-4 6-5 6-7 16-16 11-14 8-14 6-17 1-7 7-4 21-6 12-5 4-2h4v-2l12-7 8-7 4-8 6-3 12-11 13-10 10-9 11-9 6-6h3l2-4 8-7 6-5 1-2 6-3 13-12 10-8 13-12 14-12 11-10 11-9 15-13 10-9 11-9 11-10 11-9 14-12 15-13 14-12 10-9 11-9 10-9z" fill="#DD9F21"/>
<path transform="translate(909,1277)" d="m0 0h70v31l-1 34-58 4-48 2h-11l-2-1v-12l3-41 2-16z" fill="#FDE38E"/>
<path transform="translate(1201,515)" d="m0 0 3 1v7l-4 2v2l-8 7-12 11-11 9-15 14-8 7-13 11-2 2-8 6-14 13-13 10-2 3-5-1-10-10-7-8-10-9-12-11-3-2v-2h-2l6 9 7 6 5 6 7 6 5 5 16 14 3 5 9 8v2l4 2 11 10 3 2v2l4 2 6 7v2l-5-2-10-6v-3l-5-2-16-11v-2l-4-1-4-4-3-1v-2l-5-2-6-4v-2l-4-1v-2l-5-2-12-9-4-2v-2l-4-1v-2h-3l-1-2-3-1v-2h-3v-2l-5-2-10-8v-4l4-5 5-5 5-6 1-3h2l1-4 3-3 1-2h2l2-5h2l1-4 3-3 9-11 5-4h5l1 6 4 2 12 11 8 7 7 7 8 7 5 5 4-1 14-12 15-12 11-4 10-3 4-3h5v-2l12-9h2v-2l8-7z" fill="#FBC20A"/>
<path transform="translate(791,226)" d="m0 0 9 2 13 9 3 4 2 20 3 11 1 5-4 10-6 7-6 3h-11l-12-3-2-5-7-10-5-10v-2l-13 3-2 2v21l-4 11-7 9-8 6-11 4h-12l-10-3-11-8-8-14-1-4-9 1-16 4-7 2-3-2v-3l13-5 19-4 2-1 2-11 5-9 8-9 7-4 4-2 8-1 2-1 16 4 9 6 8 8 7-4 8-2 3 1-1-17 7-11 5-5z" fill="#FDF8EB"/>
<path transform="translate(1656,958)" d="m0 0h1v51l8-6 8-7 6-4 2 1-1 8 1 6-3 3-3 7-7 11-9 19-3 8-5 16-5 21-2 15-1 18v12l2 27 6 39 5 18 4 8 6 17 3 7h-23l-2-1-10-27-5-16-503-1-387-1v-1h872l18 1-5-26-4-31-1-10v-33l2-17 4-20 6-17 5-12 9-15 10-13z" fill="#677D84"/>
<path transform="translate(1014,473)" d="m0 0 93 1-1 5-14 21h-231l-14-1 1 3-4-2-14-11-15-12 3-2 9-1z" fill="#8D6716"/>
<path transform="translate(915,1040)" d="m0 0 223 1-5 4-6 7h-2l-2 4-7 8-5 5-3 5-2 1-189 1-2-23z" fill="#1B2C34"/>
<path transform="translate(1020,1277)" d="m0 0h112l3 1 3 23 1 14v14l-2 2h-11l-45 3-34 3-12 1h-14l-2-17v-43z" fill="#FCE38E"/>
<path transform="translate(1418,815)" d="m0 0h1v38l-5 5-8 7-7 8-121 121-1 2h-2l-2 4-8 7-7 7h-2v2h-38v-1l5-1 2-5 5-5h2l2-4 15-14 144-144 4-5 16-14h2l1-5h2z" fill="#2B464E"/>
<path transform="translate(994,583)" d="m0 0 9 5 9 6 5 3v2l5 2 17 12 13 9 2 1v2l5 2 16 12 15 10 2 1v2h3v2l4 2 20 14 8 6v1l-17-1-152-14-2-2 4-6 5-12 8-16 1 2-1 6 4-1 5-7 13-2 2-3v-16l-4-15-1-3z" fill="#FCFCFC"/>
<path transform="translate(1761,897)" d="m0 0h10l6 3 4 9 2 5 10-5h5l5 5 4 8v2h10l4 4 2 6-1 9-5 10-6 7-8 6-6 3-3 3-16 5h-22l-18-5-2-2-15-12-9-12-2-6v-9l2-4 12-3 6-11 5-4 6 1 7 4h2l4-10 5-6z" fill="#FDC50B"/>
<path transform="translate(1795,985)" d="m0 0h11l13 3 7 10 10 22 4 11v9l-7 1 7 14 6 2 3 9 3 20 2 32v26l-6 5-22 5-9 1-3-2-3-62-3-28-4-28-4-20-4-16-2-11z" fill="#6D828C"/>
<path transform="translate(922,1014)" d="m0 0 203 1 20 3h5l5 4-9 11-9 4-3-1v2l3 2h-223l-1-3v-20l1-1h8z" fill="#7B5806"/>
<path transform="translate(1779,987)" d="m0 0h11l3 6 7 35 4 30 3 33 1 17v44l-1 2-8 2-20-1-4-3-1-18v-50l6-10 2-2-1-3-2 2h-3l-2-3-2-30-1-24v-22l3-3z" fill="#6D828C"/>
<path transform="translate(1440,476)" d="m0 0 2 1 1 20v229l-1 6-2 1-2 4-4 2-5 1-2 6-2 1-4-2v-9l4-3h-3l-1-13v-70l1-45v-39h2v-6l-1-3 1-2h-2v-8l2-5h2l-1-8h3v2h3l-1-11 1-5-1-2h2v-11l4-16 2-3-1-6-1-3v-2z" fill="#7C5907"/>
<path transform="translate(1752,989)" d="m0 0 9 1 7 7v74l-5 1 1 6 1 3 3 1 1 9-1 56-4 3-9-2-8-5-5-6-5-9-4-14v-26l3-33 4-32 4-17 5-9 6-3 1-3z" fill="#6D828C"/>
<path transform="translate(1401,345)" d="m0 0 25 1v1l-16 1v2l5 2 4 5 1 7-5 9-9 10-15 12-15 10h-2v2h219l2 3v597l-1 133h-1v-731h-223l-10 6-7 5h-9l-17-2-3-2 6-7 11-9 13-12 16-14 5-6 10-7 4-5 5-5z" fill="#C58C7F"/>
<path transform="translate(847,499)" d="m0 0h50l84 1-3 5-41 41h-2v2l-4 4h-2v2h-2l-2 4-5-1v2l-4-2-13-10-1-2-4-2-1-2-3-1-7-7-4-2-5-5-8-5-5-5-5-3-1-2-5-3-5-5z" fill="#2B464D"/>
<path transform="translate(1768,1091)" d="m0 0h1v82l-1 68-2 6-7 4-7 2h-15l-1-1-1-9-2-41-1-10v-10l2-5 6-11 1-4h-4v2h-2l-1 2-2-2v-72h1l1 22 4 14 7 12 6 5 7 3 7 1 2-2z" fill="#607881"/>
<path transform="translate(1303,411)" d="m0 0 1 2-1 3 3-1 5 1h10l23 3 7 2-1 2h-27l-25 2-5 5-10 8-15 8-20 7-6 2h-5l-3 14-4 12 11-1 11-3h2v-2l19-7 21-5 19-3h30l13 3 3 2-1 1-30 1-20 2-23 3-10 2-8 3-9 2-11 3-13 7-4 3h-3l-1 3-6 5-6 8-2 5v8l3 9h3v2h13l11-2 28-14 11-4 27-6 17-2h14l14 2 3 3-3 1-28 2-30 4-24 7-16 7-5 2v2l-10 8-8 10-2 4v9l2 6 7 3h11l14-2 14-5 7-3 12-3 12-1v2l-13 3-12 5-10 3-11 4-9 2h-17l-7-2-7-9v-10l3-9 4-6 1-4h-11l-10-5-7-12v-6l-4 2-5 5h-2v2l-11 8-3 1v2l-5 1 2-4 6-5 6-7 16-16 11-14 8-14 6-17 1-7 7-4 21-6 12-5 4-2h4v-2l12-7 8-7 4-8z" fill="#263539"/>
<path transform="translate(919,1040)" d="m0 0h313v3l-5 3-2 3h-2l-2 4-3 3h-2v2l-8 7-4 6-2 1 2 1 64 1v1h-162l2-1 2-5 4-5h2l2-4 7-8 5-5 6-5-217-1z" fill="#2A454D"/>
<path transform="translate(981,1277)" d="m0 0h37l1 15 2 71-1 2-8 1h-33l-1-1v-22l1-55 1-10z" fill="#FDFDFD"/>
<path transform="translate(559,473)" d="m0 0h74v4l-2 3h-2v2h-2v2l-8 7-4 5-5 5-3 2-1 3h-2v2l-5 5-6 7-1 3-3 2-2 5-5 5-7 9-10 14-7 7h-1l1-91z" fill="#7B5807"/>
<path transform="translate(1854,949)" d="m0 0 6 1 5 2h13l3 3 1 8 8-1 1-1h7l5 3 2 5-1 9-2 4 8 7 1 2v7l-2 2 1 5 2 4-1 6-5 5-7 2-11 1-13-13-8-7-9-8 1-5 5-1v-2l8-4-10 2v-5h-2v2l-5 1h-1l-1 6-3 1-7-5-1-13 3-15 4-5z" fill="#FCC40C"/>
<path transform="translate(800,459)" d="m0 0 3 1 3 6 5 34 4 31 1 4 2 22 2 8h-3l-5-3-9-7-6-5v12l-4 20-5 1-27-15-4-2-2 9-4 9-2 6-5-1-7-8-5-8-4-3-1-3-3-2v-3h-2l-5-8-5-5-2-4-3-2-4-7-3-2-1-3-3-2-4-7-5-5-2-4-3-2v-3l-3-1v-3h-2l-1-3-3-2-3-5-6-7v-3h-2l-6-8-4-7v-2h-3v-3l4 1 9 11 12 14 11 14 12 14 8 11v2l3 1 10 13 11 14 14 18 4 5 11-29 10-26 2-4 8 6 14 11 6 4 11 10 3 1-9-64-3-27z" fill="#242B2C"/>
<path transform="translate(718,255)" d="m0 0 9 1 10 5 8 9 4 10v12l-3 9-6 8-8 6-9 3h-10l-12-5-8-7-5-10-1-3v-12l3-10 8-9 6-4 6-2z" fill="#FA947E"/>
<path transform="translate(1400,1041)" d="m0 0h76v32l-1 2h-103l2-4 6-5 4-5 8-7 7-7 3-5z" fill="#1B2C34"/>
<path transform="translate(1860,1012)" d="m0 0 5 5 8 13 6 12 8 21 4 14 4 22 2 8 2 17 2 2v15l3-1 2-7v-17l2-8 3-1 4 2v45l-5 33-6 25-8 25-3 1v-2h-5l-1-2 1-7-4 1-5 5-4 12-2 8h-4l3-10 8-26 7-28 4-24 1-14v-46l-4-23-6-21-8-22-11-21-3-4z" fill="#5A7078"/>
<path transform="translate(1831,992)" d="m0 0 11 5 4 3 1 2 4 2 10 10 8 13 8 17 3 12-1 22-5 19-3 14-4 10-5 8-2 1-3-37-4-27-3-17 4-8v-2l-5 1-3-2-6-16-5-11-3-6-5-9v-3z" fill="#6C818B"/>
<path transform="translate(1376,474)" d="m0 0h68v21l-2-1-1-17h-5l2 4 1 8-2 2-2 6-2 12-1 9v4l-1 5 1 7-1 2h-3v-2l-2 2v6h-2l-1 5-1 8h2l1 8-1 3h-2l1 19v22l-1 43v70l1 11-1 2h3l-1 2-5 2v-237l-46-1 3-10 1-9z" fill="#8C6615"/>
<path transform="translate(1007,475)" d="m0 0h100l-2 5-10 16-4 4h-103l1-2-1-4 4-3h2l2-5 6-7z" fill="#7B5806"/>
<path transform="translate(1201,515)" d="m0 0 3 1v7l-4 2v2l-8 7-12 11-11 9-15 14-8 7-13 11-2 2-8 6-14 13-13 10-2 3-5-1-10-10-7-8-6-5h3l9 8 4-1 13-11 8-7 12-11v-2l5-3 13-11 15-12 11-4 10-3 4-3h5v-2l12-9h2v-2l8-7z" fill="#DC9E20"/>
<path transform="translate(340,1376)" d="m0 0h89v1l-25 1 24 1h93l7-1-22-1v-1h137l-1 9h-87l-18-1h-212l-8 1h-39l-23-2-7-2v-2l5-1 25-1z" fill="#0A1422"/>
<path transform="translate(91,293)" d="m0 0h427v1l-24 1h-402l1 143v28l21-1h259l80 1v1l-22 2-25-1v344h-1v-344h-61l-1 3-1-2h-250l-1-1-2-53 1-113z" fill="#4E636B"/>
<path transform="translate(1763,372)" d="m0 0h16l9 3 6 5 3 6 1 11-3 10-7 11-6 5-8 3h-11l-11-3-5-5-3-12v-12l4-11 7-8z" fill="#FDFDFD"/>
<path transform="translate(788,231)" d="m0 0 9 1 9 6 8 9 3 6 2 12-1 9-4 10-5 6-4 2h-10l-8-4-7-8-7-17-1-6v-11l4-7 6-6z" fill="#FA947E"/>
<path transform="translate(1231,1488)" d="m0 0h352l85 1 27 1v1l-61 2h-218l-170-1-49-1-134-1v-1z" fill="#868D89"/>
<path transform="translate(718,93)" d="m0 0h23l13 3 14 7 8 7 5 8 3 11v8l-2 10 4 5 11 9 7 8 7 12 4 15 2 22v17l-1 6-2-1-5-19-5-12-5-13-10-19-10-17-4-3 1-4-3-3-1 5-10 11h-3v2l-7 4-3-1 13-10 6-7 4-7 2-6v-11l-2-8-5-7-16-11-26-8-8-1z" fill="#233337"/>
<path transform="translate(132,332)" d="m0 0h312v5l-1 1h-306l-5-2z" fill="#1F2D39"/>
<path transform="translate(255,1479)" d="m0 0h387l-1 4-8 1h-375l-14-3v-1z" fill="#0C1623"/>
<path transform="translate(760,1013)" d="m0 0h11l3 2h-2l1 7 4 7 6 3 7-1 7-6 3-5 1-4-4-2 5-1h9l-2 5-8 13h-2l-2 4-9 5h-2l-2 19-3 15 9-3 16-6 20-8 17-6h7l-4 4-32 14-27 12-19 8-18 8-5 2-2 8-7 16-6 15-3 6-4-1 1-7 8-16 9-16 1-3-21 9-29 14-5 1 5-5 14-8 23-13 29-14 16-8 1-1 3-16 2-12v-8l-10-9-8-15-3-2z" fill="#121F2B"/>
<path transform="translate(648,629)" d="m0 0h4l-2 7-3 1-2 5-2 9-3 8-10 35-4 11-2 11-10 35-3 14h-2v5l70-5 23-1h29v4l-84 6-58 4-25 4-5 2-8 2-14 7-10 4-16 9-3 3-9 5-4 5-12 8h-2v2l-5 1 2-4h2l2-4 13-11 16-11 14-8 8-4 10-4h3v-2l22-5 22-4 2-1 11-1 3-8 2-10h2l1-7 9-33 14-49h2l1-9 6-18 2-1z" fill="#4D5038"/>
<path transform="translate(132,365)" d="m0 0h292v5l-1 1h-288l-3-2z" fill="#1F2C38"/>
<path transform="translate(132,399)" d="m0 0h347v5h-347z" fill="#0B1523"/>
<path transform="translate(1325,504)" d="m0 0h14l14 2 3 3-3 1-28 2-30 4-24 7-16 7-5 2v2l-10 8-8 10-2 4v9l2 6 7 3h11l14-2 14-5 7-3 12-3 12-1v2l-13 3-12 5-10 3-11 4-9 2h-17l-7-2-7-9v-10l3-9 4-6 1-4h-11l-8-4 1-4h-2l1-4-3-1 2-5 2 4 2 5h3v2h13l11-2 28-14 11-4 27-6z" fill="#2A393C"/>
<path transform="translate(1191,1041)" d="m0 0h41v2l-5 3-2 3h-2l-2 4-3 3h-2v2l-8 7-4 6-2 1 2 1 64 1v1h-134v-1l29-1 1-4 11-9 7-8 3-4 3-5z" fill="#1B2C34"/>
<path transform="translate(559,473)" d="m0 0h74v4l-2 3h-2v2h-2v2l-2-1-2-3-5 1-5 2-11 1 1 7h-3l-1 2-1-1-2 2-9 1-5 2-1 2-3-1v-6l-1 1-2-4v-2h-2v-2h-2v2h-2l-1-7-5-1-4 1 2 6 7 1-2 5-2 3-1 10-2 5-1 7 1 5 1 22-1 3 2 2 5-3h2l2-6 2-4 7-6v2h2l-2 4-6 8-10 14-7 7h-1l1-91z" fill="#8F6A1B"/>
<path transform="translate(828,909)" d="m0 0 4 2 19 8 14 6 11 4 15 5 13 4v1h-13l-25-1-68-1 5-6 10-8 12-11z" fill="#2E484F"/>
<path transform="translate(847,499)" d="m0 0h50l20 1-6 8-7 8-8 7-1 2h-2v2l-6 1h-3l-1 3-5-5-8-5-5-5-5-3-1-2-5-3-5-5z" fill="#41565E"/>
<path transform="translate(133,432)" d="m0 0h196l1 5-1 1h-196l-1-5z" fill="#1E2B37"/>
<path transform="translate(943,475)" d="m0 0h47v3l-8 7-5 4-5 2v2h-3l-1 4-7 3h-41l3-4 2-4 13-13 2-3z" fill="#7B5806"/>
<path transform="translate(1796,1006)" d="m0 0 3 1 6 28 5 34 2 22 2 41v33l-2 39-4 45-1 4-5-1 2-11 1-10v-13l1-12 1-20v-78l-3-39-4-34-4-23z" fill="#597179"/>
<path transform="translate(1635,1417)" d="m0 0h2l10 16 4 3 5-1 3-1v-13h1l8 58 1 9-1 1h-46v-1l35-1 7-1-1-10-7-2-5-5-9-14-6-10-2-10zm22 19 2 4v-4z" fill="#FDFCFC"/>
<path transform="translate(1731,1076)" d="m0 0h1l-1 59v36l3 2-1 9v10l2 29 1 22 1 10h-6l-2-1 1-4-2-31-2-17-1-18-4-11 1-5 2-2 3-69 1-11z" fill="#597078"/>
<path transform="translate(1770,1076)" d="m0 0 5 2-2 7-1 13h2l1 43-1 67-2 45h-20l3-2 8-3 3-1 1-6 1-84v-80z" fill="#576E77"/>
<path transform="translate(772,528)" d="m0 0 4 2v2h2l5 5 9 7 1 7-4 24h-5l-7-4-10-6-6-3v-7l6-16 3-9z" fill="#FBC20A"/>
<path transform="translate(91,293)" d="m0 0h427v1l-24 1h-402v172h-1l-2-52 1-113z" fill="#364751"/>
<path transform="translate(649,464)" d="m0 0 4 1 9 11 12 14 11 14 12 14 8 11v2l3 1 10 13 11 14 14 18 4 5 6-16 1 4h2l-1 5-4 9-2 6-5-1-7-8-5-8-4-3-1-3-3-2v-3h-2l-5-8-5-5-2-4-3-2-4-7-3-2-1-3-3-2-4-7-5-5-2-4-3-2v-3l-3-1v-3h-2l-1-3-3-2-3-5-6-7v-3h-2l-6-8-4-7v-2h-3z" fill="#252C2E"/>
<path transform="translate(660,784)" d="m0 0 2 1-11 23-10 20h-2l-2 7-6 11-2 5h-2l-1 6h-2l-3 9-4 5-5 11-6 10-13 26h-2l-2 7-5 7-3 7-6 11-7 12-3 4h-2l1-5 12-24 14-27 10-18 7-14h2l1-5 10-18 7-14 26-46z" fill="#242722"/>
<path transform="translate(967,500)" d="m0 0h14l-3 5-41 41h-2v2l-4 4h-2v2h-2l-2 4-5-1v2l-4-2 1-5v-4l7-7h2v-2l8-7 29-29 1-2z" fill="#41565E"/>
<path transform="translate(641,1486)" d="m0 0 2 2 420 1v1l-79 1-213 1h-118l-11-1z" fill="#4C503E"/>
<path transform="translate(1594,163)" d="m0 0h2l1 4-6 5-6 7-16 14h-2v2l-11 9h-3v2l-7 6-5 4-20 20h-4l-2 5-8 5h-2l-2 4h-2v2h-2v2h-2v2h-2v2h-3l-1 2-2-4 2-5 13-12 11-9 14-12 15-13 14-12 10-9 11-9 10-9z" fill="#936B17"/>
<path transform="translate(760,1013)" d="m0 0h11l3 2h-2l1 7 4 7 6 3 7-1 7-6 3-5 1-4-4-2 5-1h9l-2 5-8 13h-2l-2 4-9 5h-2l-2 19-3 15 9-3 16-6 20-8 8-3 4 1-6 4-13 3-12 5h-2l-1 3-8 2v2l-9 3h-4v2l-6 1-2 3-5 1-10 3-5 3h-5l4-3 17-8 4-3 3-16 2-12v-8l-10-9-8-15-3-2z" fill="#1C2E36"/>
<path transform="translate(1706 1e3)" d="m0 0 3 1-3 9 3 1-3 6-5 7-5 16-4 16-4 23-3 29v45l4 34 7 38 4 15 3 11-4-2-8-31-7-37-3-26-1-16v-19l2-28 3-22 9-36 4-12v-5l-1-1v-6h4l2-6z" fill="#3F5760"/>
<path transform="translate(1681,1008)" d="m0 0 1 2-11 18-8 17-7 20-6 23-3 26v35l2 20 4 24 5 19 3 3v7l5 16 5 12v3l-4-2-6-15-4-12-4-9-3-12-6-39-2-27v-12l2-27 5-23 4-15 4-10 8-18 9-15 6-8z" fill="#3E5861"/>
<path transform="translate(1854,949)" d="m0 0 6 1 5 2h13l3 3-1 5h-2l-2-5-3 1-2 4-2-1-4 15-4 4-1 4-5 1h-1l-1 6-3 1-7-5-1-13 3-15 4-5z" fill="#FBC30F"/>
<path transform="translate(1045,577)" d="m0 0h2l5 5 16 15 10 9 2 5 4 2 6 6 5 2 8 8 8 7v2l4 2 8 8 2 1v2h2v2h2l7 8 41 41 5 6 2 1v3h-3v-2l-4-2-14-14-5-4v-2l-4-2-16-16-4-5-8-7-5-4-5-5-11-10-8-7-6-6-1-3-3-2v-2l-4-2-9-8-5-5-7-6-5-6-7-6-5-7z" fill="#2C3632"/>
<path transform="translate(919,738)" d="m0 0 1 2h8l5 2 7 2 8 3 10 2 8 4 7 2 13 6 10 4 12 6 11 7 7 3 5 5 5 3 6 7 1 4-5-1-8-7-13-8-6-4-23-11-15-6-6-3-12-4-10-4-18-6-9-2v-2l-3-1 2-2z" fill="#314C54"/>
<path transform="translate(304,1252)" d="m0 0h106v1l-77 1-5 1-36 1h-171l-45-2v-1h45z" fill="#FDE39F"/>
<path transform="translate(312,399)" d="m0 0h167v5h-164v-1l12-1v-1l-15-1z" fill="#1E313A"/>
<path transform="translate(1860,1012)" d="m0 0 5 5 8 13 6 12 8 21 4 14 4 22 2 19v23l-3 27 7-3-2 5-5 6-4 16-4 17-2 7-7 23-4 14h-4l3-10 8-26 7-28 4-24 1-14v-46l-4-23-6-21-8-22-11-21-3-4z" fill="#3B555D"/>
<path transform="translate(886,656)" d="m0 0 21 1 5 1 20 2h22v3l-5 2-4-1-3 3h-7l-6 1-16-3-3-1h-7l-3-2 1-2-4 1-9-1-2 9h-1l-2 11-3 1-1 10-1 2h-2l-1 11-2 2-2 9-3 6-3 9v3l-2 5-6 1 1-6 9-24 4-12 3-8 11-32z" fill="#31484B"/>
<path transform="translate(897,779)" d="m0 0 5 1 10 3 8 4 13 5 15 7 22 11 15 8 12 3v2h7l11 3v2l-2 1v4l3 1v2l3 1 1 4 8 9 2 4-1 3-8-10-10-8-21-13-20-11-16-8-34-16-14-6-9-5z" fill="#283B43"/>
<path transform="translate(1325,504)" d="m0 0h14l14 2 3 3-3 1-28 2-30 4-24 7-16 7-3 1 1-5 4-4 13-6 11-4 27-6z" fill="#27383E"/>
<path transform="translate(1229,1018)" d="m0 0h10l7 1 3 3-4 6h-2l-2 4-7 5-10 3h-5v-4h-13l-4 1-2-2 11-12 3-3z" fill="#7C5907"/>
<path transform="translate(1129,273)" d="m0 0h20l-3 2 7 1h9v-1l-9-1v-1h14l2 4-1 2-9 1h-190v-4l2-1 1 2h83l59-1 15-1z" fill="#FDE38E"/>
<path transform="translate(1313,460)" d="m0 0h30l13 3 3 2-1 1-30 1-20 2-23 3-10 2-8 3-10 1 1-3h2l1-3 23-7 18-3 2-1z" fill="#26383F"/>
<path transform="translate(1746,986)" d="m0 0h2l-1 9-2 7-2 14-2 7-6 51-1 14-1 4v72h4v-2h4l-1 6-5 9-2 1 1-5-4-2v-36l1-57-1 5h-1v-8l6-43 2-13 7-28z" fill="#5A7179"/>
<path transform="translate(1428,579)" d="m0 0h2l1 17v5h2l-1 6 1 1v62l-1 28-1 10-2-2 1-8-2-1v-6h2l-2-6-1-14-1-50v-10l1-14 1-1z" fill="#8D6716"/>
<path transform="translate(457,1375)" d="m0 0h123v1l-51 1-1 2-9 1h-98l-17-1-19-1v-1z" fill="#1D2F37"/>
<path transform="translate(1261,1139)" d="m0 0h30l27 2v1l-18 1h-375v-1l294-1z" fill="#597078"/>
<path transform="translate(477,978)" d="m0 0h27l15 1 30 1 7 1 23 1 18 2h18l-3 3h-37l-47-2-39-3-7-1-5-2z" fill="#243437"/>
<path transform="translate(1437,1015)" d="m0 0 5 1 1 4 1 15 1 5h-35l2-4 3-4h2v-2h3l2-5h2v-2h2v-2l5-1 3 1v-2h2z" fill="#7D5907"/>
<path transform="translate(777,286)" d="m0 0 6 4 3 10 1 1v5l-10 1-1 4 2 7v6l-9 4-3 3h-2l-1 4h-4l-5-5-11-3-1-1v-5h7l5 1h12l5-2-1-9-3-7v-4h13l-3-9z" fill="#3F4C4C"/>
<path transform="translate(769,1012)" d="m0 0h36l-3 3-2 7-8 9-5 2-6-1-5-3-5-10 1-4z" fill="#6E4E01"/>
<path transform="translate(1441,797)" d="m0 0 2 1v30l-6 6h-5v-2l-7 2 1-8 2-4-4 3 2-4 2-9 1-1-2-2 11-10z" fill="#7C5907"/>
<path transform="translate(1735,909)" d="m0 0 6 1 8 5 2 25-3 2-14-12v-2l-4-1-2-7 3-8z" fill="#DEA021"/>
<path transform="translate(780,249)" d="m0 0h7l5 5 3 8v8l-3 3h-2l-1 3-2 1h-7l-4-6-2-6v-11l4-4z" fill="#1B2C34"/>
<path transform="translate(1851,1068)" d="m0 0 2 3 3 19 2 18 1 15v21l-3 29-5 33-5 23-4 14-1 9-3 1-1-3 6-22 6-29 5-39 1-14v-31l-4-41z" fill="#3A5761"/>
<path transform="translate(1770,1076)" d="m0 0 5 2-2 7-1 13h2l1 43-1 17-1 1-1 20h-2l-2-8v-94z" fill="#597078"/>
<path transform="translate(1731,1076)" d="m0 0h1l-1 59v36l3 2-1 5-2 6 1 30 2 19v11l-2 1-1-10-2-27-2-26-1-10 1-7v-39l1-27 2-21z" fill="#395B66"/>
<path transform="translate(1230,683)" d="m0 0h2l-2 5-8 9-13 17-3 3h-2l-2 4-8 7-2 3h-2l-2 4h-2l-2 4-3 1-7 9-10 11-3 3h-3l-1 4-4 4-5 2-25 25-5 2h-3l14-12 15-14 10-10 5-4 7-8 22-22 7-8 11-12 9-11 9-10 4-5z" fill="#2A3531"/>
<path transform="translate(1444,474)" d="m0 0h1v107l-1 145h-1l-1-67v-163l1-1z" fill="#917537"/>
<path transform="translate(762,414)" d="m0 0 9 1 3 1 1 16-2 3-6 2-17-3v-2l3-2-3-3 1-7 6-5z" fill="#DE9F20"/>
<path transform="translate(558,482)" d="m0 0 2 1 1 3 7 1-2 5-2 3-1 10-2 5-1 7 1 5 1 22-1 3 2 2 5-3h2l2-6 2-4 7-6v2h2l-2 4-6 8-10 14-7 7h-1z" fill="#8D6716"/>
<path transform="translate(1793,909)" d="m0 0h5l5 5 3 5-1 5-8 9-8 7-3 2-2-5h2l-1-7v-8l2-10z" fill="#E0A220"/>
<path transform="translate(603,498)" d="m0 0h5l1 2-3 6h-2v2l-5 5-6 7-1 3-3 2-1 3-5 2-1-5 1-23 2-2 14-1z" fill="#2B464D"/>
<path transform="translate(828,915)" d="m0 0 9 1v2l5 1 7 4 2 4-2 3-8 3h-19l-3-1-3-5v-2l4-4h2v-2z" fill="#395B66"/>
<path transform="translate(702,764)" d="m0 0h29v4l-27 2-66 2h-9v-1l10-3 40-3z" fill="#333C35"/>
<path transform="translate(719,266)" d="m0 0h5l5 4 4 8 1 8-2 5-1 1h-10l-6-5-2-6v-9l4-5z" fill="#253439"/>
<path transform="translate(92,438)" d="m0 0h1v28l240 1 4 2h-245l-1-2z" fill="#9CA7AB"/>
<path transform="translate(1706 1e3)" d="m0 0 3 1-3 9 3 1-3 6-5 7-5 16-4 16-4 23-3 29-4 2v-9l4-31 9-36 4-12v-5l-1-1v-6h4l2-6z" fill="#3D5862"/>
<path transform="translate(1410,332)" d="m0 0 2 4-9 9-8 6-4 5-5 5-9 7-6 5-8 4-3 1v-3l5-5h3v-2h2l2-5 5-5 3-1v-2l4-2 2-4 9-9v-2l8-2v-2z" fill="#956C17"/>
<path transform="translate(1884,1227)" d="m0 0h4v8l5 1v2h2l-3 10-2 5-3 1h-47v-1h33l2-12 4-9z" fill="#637A83"/>
<path transform="translate(1808,1080)" d="m0 0h1l2 19 1 27v53l-3 45-3 29-4-1 2-11 3-32 1-22z" fill="#3D5862"/>
<path transform="translate(480,1014)" d="m0 0h5l-3 19-2 45-3 21-4 12-2 2 1-13 2-10 1-13 1-31 3-29z" fill="#1E3139"/>
<path transform="translate(791,226)" d="m0 0 9 2 13 9 3 4v9l-5-5-7-8-7-4-9-1-7 3-7 8-1 3v11l4 16-5-3-1-10-3-3-1-12 7-11 5-5z" fill="#FDE8B9"/>
<path transform="translate(1841,1030)" d="m0 0 2 2 5 13 2 10 2 1 4 21 3 26v20h-1l-2-25-3-23-1-4 2 23v9l-2-4-2-21-3-16-1-5h-5l-4-5-1-7 1-3 5-1-1-2z" fill="#5C737C"/>
<path transform="translate(711,233)" d="m0 0h9l4 3-1 7-8 6-9 4h-7l-3-5 1-5 5-6z" fill="#253336"/>
<path transform="translate(1709,977)" d="m0 0h5l-2 1-1 4-8 6-5 2-2 4-14 18-1-3-4 3 2-4 1-3-1-5 2-9 10-6 15-7z" fill="#5B7179"/>
<path transform="translate(977,599)" d="m0 0 3 1-2 5-1 2 2 1-4 4 2 2-5 6-5 12-4 9-2 13-4 6-4 1h-4l1-6 18-39 6-12 1-4z" fill="#253335"/>
<path transform="translate(771,213)" d="m0 0h11l8 4 1 2v8l-10 2-15-1-2-1-2-4 1-5 5-4z" fill="#273639"/>
<path transform="translate(1769,1017)" d="m0 0 2 3v21h2l2 27 1 3 6-3 1 4-4 5-4 7-1 14h-2v-13l3-7-7-1 1 3v7h-1l-1-5-4-4-1-7h7z" fill="#5A7179"/>
<path transform="translate(548,783)" d="m0 0 4 1-1 2-14 7-10 4-16 9-3 3-9 5-4 5-12 8h-2v2l-5 1 2-4h2l2-4 13-11 16-11 14-8 8-4 14-4z" fill="#2F332B"/>
<path transform="translate(730,93)" d="m0 0h11l13 3 14 7 8 7 5 8 3 11v8l-2 4-2-2-1-12h-2l-3-8-6-8-12-8-11-4-7-3-8-2z" fill="#1E2C37"/>
<path transform="translate(649,464)" d="m0 0 4 1 9 11 12 14 11 14 12 14 8 11v2l3 1 7 9-1 2-8-7-6-7v-3l-3-1-1-3-5-5-7-8-4-6-3 1-1-3-3-2-3-5-6-7v-3h-2l-6-8-4-7v-2h-3z" fill="#37464C"/>
<path transform="translate(1645,1159)" d="m0 0 3 3 5 31 5 19 3 3v7l5 16 5 12v3l-4-2-6-15-4-12-4-9-3-12-5-31z" fill="#3D565F"/>
<path transform="translate(620,298)" d="m0 0 7 2 10 5v2l4 2 5 5v2h2l5 9 3 6 1 10-4-2-9-10-11-2v-3h13l-4-6-4-5-8-7-9-5z" fill="#253235"/>
<path transform="translate(987,819)" d="m0 0 10 2v2h7l11 3v2l-2 1v4l3 1v2l3 1 1 4 8 9 2 4-1 3-8-10-10-8-21-13-2-2 1-3h-2z" fill="#354C51"/>
<path transform="translate(1125,652)" d="m0 0 4 1 7 8 41 41 5 6 2 1v3h-3v-2l-4-2-14-14-5-4v-2l-4-2-16-16-4-5-8-7-1-4z" fill="#29383B"/>
<path transform="translate(1719,981)" d="m0 0 3 1-8 16-3 9h3l1 5-6 6h-2l1-5-2-1 2-9-2-1-5 10h-4l2 7-1 8-6 20h-1l1-8 3-11v-17l-1-6 7-1 2-4 4-3 5-5 4-6v-4z" fill="#597078"/>
<path transform="translate(800,459)" d="m0 0 3 1 3 6 5 34 1 12h-2l-1 16h-1l-5-37-3-27z" fill="#384547"/>
<path transform="translate(1893,1152)" d="m0 0h1v16l7-3-2 5-5 6-4 16-4 17-2 7-7 23-4 14h-4l3-10 8-26 7-28z" fill="#31474F"/>
<path transform="translate(779,1054)" d="m0 0h1v9l-3 13 2-1 2-14 2-1-2 14 9-3 16-6 20-8 8-3 4 1-6 4-13 3-12 5h-2l-1 3-8 2v2l-9 3h-4v2l-6 1-2 3-5 1-10 3-5 3h-5l4-3 17-8 4-3 3-16z" fill="#21353E"/>
<path transform="translate(1304,560)" d="m0 0h5v2l-13 3-12 5-10 3-11 4-9 2h-17l-7-2-1-2 4 1-1-4 7 2h11l14-2 14-5 7-3 12-3z" fill="#23353C"/>
<path transform="translate(819,269)" d="m0 0 3 4-1 7-5 10-6 5-4 2h-11l-12-3v-2h2l-5-7-4-8 2-4 5 10 7 6 5 2h10l6-4 4-7z" fill="#FDF4DC"/>
<path transform="translate(843,1051)" d="m0 0h7l-4 4-32 14-27 12-11 2v-3l5-2 2 1v-2l13-3v-2l8-3 3-3 15-6 10-2 5-3 3-3z" fill="#121F2B"/>
<path transform="translate(1313,460)" d="m0 0h30l13 3 3 2-1 1-30 1-25 2 2-2 9-1 6-2-7-1-7 1h-12v-1z" fill="#3D5153"/>
<path transform="translate(1129,273)" d="m0 0h20l-3 2 7 1h9v-2l5 1-1 3-10 1h-63l-38-1v-1l59-1 15-1z" fill="#FDEDBF"/>
<path transform="translate(876,825)" d="m0 0 9 3 13 5 10 4 16 7 21 10 16 8 9 5-3 1-19-8-15-7-40-19-12-5-5-3z" fill="#25383F"/>
<path transform="translate(648,629)" d="m0 0h4l-2 7-3 1-2 5-2 9-3 8-10 35-5 15h-2l1-11 7-23 3-11h2l1-9 6-18 2-1z" fill="#5D542B"/>
<path transform="translate(1419,500)" d="m0 0h2l1 6 3-1 1 6-5 1-1 202h-1z" fill="#6C4D00"/>
<path transform="translate(1261,1139)" d="m0 0h30l27 2v1l-18 1h-62l-19-1v-1z" fill="#ABB4B7"/>
<path transform="translate(622,707)" d="m0 0 1 2h2l-1 7-10 35-3 14h-2v5l4 2h-5-3l-2-1 3-8 2-10h2l1-7 9-33z" fill="#61572C"/>
<path transform="translate(1060,527)" d="m0 0h2l-2 4-6 8h-2l-2 5h-2l-1 4-3 3-1 2h-2l-2 5-2 1-1 3h-2l-1 4-8 10-4 1 4-9 7-9h2l2-7 8-8 2-1 3-6 3-5h2v-2z" fill="#243234"/>
<path transform="translate(718,93)" d="m0 0h12l14 4 8 4 7 3 11 8 6 8 2 7v11h-1l-3-12-6-10-15-11-11-4-17-5-8-1z" fill="#F0F1F1"/>
<path transform="translate(1833,981)" d="m0 0 5 1 5 3-1 4h2l1-2 2 4 2 1v2l4 2 4 6 3 1v3l3 1 2 7 2 3-1 3-5-7h-3l-5-6-2-5-5-4v-2l-4-1-5-7-5-5z" fill="#5A7179"/>
<path transform="translate(927,899)" d="m0 0 5 1 10 4 9 3 18 4 14 1 1 2-6 2-9-1-14-3h-7l2 8-4-2-9-11-10-7z" fill="#344D55"/>
<path transform="translate(1831,1006)" d="m0 0 5 5 8 18 2 9 4 1 4-1 1 3-4 8v12h-1l-3-16-5-13v9l-5 1v8l-2-3-2-6 6-2v-8l-8-20z" fill="#5B727B"/>
<path transform="translate(592,772)" d="m0 0h11v1l-12 2 24-1 12-1h20v1l-58 4-25 4-5 2-8 1-3-1-4 2-4-1 6-1v-2l22-5 22-4z" fill="#8A6514"/>
<path transform="translate(1325,504)" d="m0 0h14l14 2 3 3-3 1-28 2h-7l4-2 8-2h-13l-21 3-10 1 3-2 25-5z" fill="#5E6D6D"/>
<path transform="translate(1233,540)" d="m0 0h4v6l-5 6-2 4v9l3 11-6-2-4-6v-10l3-9 4-6z" fill="#1B2429"/>
<path transform="translate(1212,496)" d="m0 0v3l-4 5-2 5-4 6-8 8h-2v2l-11 8-3 1v2l-5 1 2-4 6-5 6-7 16-16 6-7z" fill="#0F1B27"/>
<path transform="translate(1855,1163)" d="m0 0h1v10l-5 33-5 23-4 14-1 9-3 1-1-3 6-22 6-29 4-32z" fill="#40575F"/>
<path transform="translate(683,217)" d="m0 0h1v15l-1 7h3l-2 5-6 9-6 7-3 1-1-2-3 1 2-5 3-4h2l2-4 2-6h2l4-20z" fill="#253335"/>
<path transform="translate(875,694)" d="m0 0 1 4-2 7-2 6-4 10-3 9v3l-2 5-6 1 1-6 9-24 4-12z" fill="#364A49"/>
<path transform="translate(1732,1090)" d="m0 0 1 2v72h4v-2h4l-1 6-5 9-2 1 1-5-4-2v-36l1-44z" fill="#597078"/>
<path transform="translate(1728,1169)" d="m0 0 1 2 5 2-1 5-2 6 1 30 2 19v11l-2 1-1-10-2-27-2-26-1-10h2z" fill="#3C5962"/>
<path transform="translate(1706 1e3)" d="m0 0 3 1-3 9 3 1-3 6-5 7-5 16-1 5h-3l1-7 5-16v-5l-1-1v-6h4l2-6z" fill="#3E5861"/>
<path transform="translate(1773,1158)" d="m0 0h1v50l-1 7h-1l-1-13v-21l-1 29-1 6h-1v-42l2-1v6h2v-20z" fill="#597078"/>
<path transform="translate(1875,954)" d="m0 0 2 1 1 5 3-1v4l-8 7-4 5-5 5-2 1-2-1 2-4 2-2 4-15 2-2 1 2 2-3h2z" fill="#D99C1F"/>
<path transform="translate(1732,1178)" d="m0 0 1 4v10l2 29 1 22 1 10h-6l-2-1 1-4v-10h2l1 6v-14l-2-19-1-27z" fill="#597078"/>
<path transform="translate(742,322)" d="m0 0 11 1 7 1h12l-6 7h-2l-1 4h-4l-5-5-11-3z" fill="#223237"/>
<path transform="translate(768,257)" d="m0 0 1 2 3 1 1 7-1 3 4 2 3 9 5 8 1 3h-2l-9-13-5-10v-2l-17 3 2-4 3-3 8-2 3 1z" fill="#FDFBF6"/>
<path transform="translate(848,860)" d="m0 0 5 1 12 5 16 8 19 9v2l5 1 18 10 1 2-7-2-19-10-16-8-25-12-9-4z" fill="#2E3E43"/>
<path transform="translate(1899,988)" d="m0 0h7l5 3v7l-2 2-15-1-4-3h2l-1-3z" fill="#DE9F1F"/>
<path transform="translate(1303,411)" d="m0 0 1 2-1 3 3-1 5 1h10l23 3 7 2-1 2h-27l-10 1h-14v-1l19-1v-2l7-1-20-1-6-1 2-5z" fill="#4C5C5C"/>
<path transform="translate(519,294)" d="m0 0h2v53l-1 48h-1l-1-79v-21z" fill="#7F8C91"/>
<path transform="translate(791,226)" d="m0 0 9 2 13 9 3 4v9l-5-5-7-8-7-4-10-3-4-2z" fill="#FDF9EF"/>
<path transform="translate(1084,499)" d="m0 0h7l-2 5-9 10-8 10h-5l-1-3 5-2v-3l4-1 4-8-2-2v-3l-4-1 9-1z" fill="#243336"/>
<path transform="translate(0,833)" d="m0 0h41l2 1v2l-2 1-35 1h-5z" fill="#FDFDFD"/>
<path transform="translate(1888,1028)" d="m0 0 4 1 9 16 3 7-1 4-2-1v-3l-5-1-5-6-1-7 1-2h-2l-2-6z" fill="#5D737B"/>
<path transform="translate(1810,1180)" d="m0 0h1v18l-3 34-2 21-4-1 2-11 3-32 1-22z" fill="#40575F"/>
<path transform="translate(548,783)" d="m0 0 4 1-1 2-14 7-10 4-12 5h-2l1-4 16-8 9-4z" fill="#1D2B31"/>
<path transform="translate(535,1258)" d="m0 0h73v1l-16 2-1 1h-12v-2l-8 1-33-1z" fill="#FEC509"/>
<path transform="translate(342,465)" d="m0 0h31l80 1v1l-22 2-25-1-64-2z" fill="#A5AAAB"/>
<path transform="translate(752,226)" d="m0 0h3l11 21 1 1v12h-3l-3-9-4-9-3-7z" fill="#27373D"/>
<path transform="translate(1056,625)" d="m0 0h5l6 5 6 3 4 4 11 7 11 9 3 1 3 6-4-2-6-4v-2h-3v-2l-5-2-17-12-14-10z" fill="#37484F"/>
<path transform="translate(1045,577)" d="m0 0h2l5 5 16 15 8 7 1 5-5-1-7-8-7-6-5-6-5-5-3-4z" fill="#243133"/>
<path transform="translate(979,607)" d="m0 0h2l-3 10-4 9-11 22h-2l1-8 7-14 3-7 4-5h-2l2-6z" fill="#334D55"/>
<path transform="translate(777,286)" d="m0 0 6 4 2 6v8l-5 1-8-1v5h-2l-3-5v-4h13l-3-9z" fill="#2A3A3E"/>
<path transform="translate(1659,1421)" d="m0 0h1l8 58 1 9-1 1h-46v-1l44-1-1-8-2-19-4-25z" fill="#E1D3A3"/>
<path transform="translate(770,523)" d="m0 0 8 6 2 4-1 2-1-3h-2v-2l-4-1-3 6-5 15-2 5-1 6-2-4-2 1 3-11 8-20z" fill="#4C4F41"/>
<path transform="translate(480,1014)" d="m0 0h5l-3 19-1 20h-1l-1-18-1 12-1 26h-1v-27l3-29z" fill="#253C44"/>
<path transform="translate(759,556)" d="m0 0h1l1 5 6 3 10 6v2l-5 2-12-7-3-1-1 4h-2l1-9z" fill="#242F2F"/>
<path transform="translate(1645,1172)" d="m0 0h1l5 31 5 18 4 8-1 3-4-7v-2l-5-2-2-5 1-4-1-3-1-17-2-13z" fill="#597078"/>
<path transform="translate(1770,1076)" d="m0 0 5 2-2 7-1 55h-1l-1-7v-44l-2-12z" fill="#395B66"/>
<path transform="translate(1301,416)" d="m0 0 4 1 20 1 7 1v1h-14v2l-19 2-4 3h-2l1-4 5-6z" fill="#263C44"/>
<path transform="translate(1682,1111)" d="m0 0h2v41h-3l-1-11v-19l1-10z" fill="#3C5861"/>
<path transform="translate(1141,698)" d="m0 0 2 1-1 5-5 14h-2l-1 7-5 10-3 7-3 1 1-5 5-11 2-7 1-4 2-2 1-6 4-8h2z" fill="#384D4D"/>
<path transform="translate(1304,560)" d="m0 0h5v2l-13 3-12 5-10 3-5 1 2-5 21-7z" fill="#2A3E46"/>
<path transform="translate(1931,1082)" d="m0 0h2l-1 5-6 8 4 1h4v2l-10 4h-6v-6l4-5 6-5 1-2h2z" fill="#4F646D"/>
<path transform="translate(419,860)" d="m0 0h4v10l-1 5h-2l-1 8h-4v-13l3-9z" fill="#253C44"/>
<path transform="translate(800,459)" d="m0 0 3 1 3 6 1 17-1 10h-2l-1-2-3-27z" fill="#445151"/>
<path transform="translate(1893,1152)" d="m0 0h1v16l7-3-2 5-5 6-4 16-3-1 4-26z" fill="#2F474F"/>
<path transform="translate(456,915)" d="m0 0h6l1 4-5 2-16 3h-5l-1-3 11-4z" fill="#1F3139"/>
<path transform="translate(1313,460)" d="m0 0h30l13 3 3 2-1 1h-26v-2l7-1v-2h-26z" fill="#576C75"/>
<path transform="translate(1841,1030)" d="m0 0 2 2 5 13 3 16v6l-2-4-3-10-2 2h-3l-2-7 3-2v-8z" fill="#3D5862"/>
<path transform="translate(620,298)" d="m0 0 7 2 10 5v2l4 2 5 5v2h2v2l-3 1-5-3-6-7-7-5-6-3z" fill="#2E3E42"/>
<path transform="translate(970,275)" d="m0 0 2 2 57 1-1 2h-59v-4z" fill="#FDE59A"/>
<path transform="translate(1446,291)" d="m0 0h3v2l2 1h-2l-1 6h-4l1 3-6 2-5 3-1-4 4-5 5-6z" fill="#8E6716"/>
<path transform="translate(1804,1231)" d="m0 0 2 1-2 16-1 4 3 2-27-1v-2l11-2h9l1-3 2-2z" fill="#597078"/>
<path transform="translate(1129,273)" d="m0 0h20l-3 2 9 2v1h-26l-15-1v-1l15-1z" fill="#FDF7E7"/>
<path transform="translate(458,975)" d="m0 0 16 1 31 1 27 2v1h-13l-15-1h-23v1l-12-1-10-2z" fill="#9F7317"/>
<path transform="translate(1200,508)" d="m0 0v3l-4 5-4 4 2 3h-2v2l-11 8-3 1v2l-5 1 2-4 6-5 6-7 5-5z" fill="#23343B"/>
<path transform="translate(881,668)" d="m0 0 3 1v8l-2 4h-2l-1 10-5 5-1-3z" fill="#314748"/>
<path transform="translate(1597,161)" d="m0 0h2l1 2v6l-12 11-8 7-3 1 2-4 8-9 4-4h2l1-3 2-2-1-4z" fill="#E4AB2B"/>
<path transform="translate(978,873)" d="m0 0 6 1 15 5-3 2-6 1 3 5-2 3-6-9-7-6z" fill="#314B54"/>
<path transform="translate(779,1054)" d="m0 0h1v9l-3 15-7 6-10 3-5 3h-5l4-3 17-8 4-3 3-16z" fill="#21363E"/>
<path transform="translate(649,464)" d="m0 0 4 1 18 22-4 1-1 2-2-3v-3h-2l-6-8-4-7v-2h-3z" fill="#49534C"/>
<path transform="translate(683,217)" d="m0 0h1v15l-1 5h-2l-1 4-3 8-7 7h-2l2-5h2l2-4 2-6h2l4-20z" fill="#5A7179"/>
<path transform="translate(448,897)" d="m0 0h4l-3 6-15 7h-4l2-4 9-6z" fill="#1F2A2E"/>
<path transform="translate(1655,1218)" d="m0 0h2l2 3 2 1 5 16 5 12v3l-4-2-6-15-4-12-2-3z" fill="#40575F"/>
<path transform="translate(760,1013)" d="m0 0h11l3 2h-2l1 9h-2l-1 3h-2l-6-11-3-2z" fill="#13212D"/>
<path transform="translate(810,512)" d="m0 0h2l2 9 1 10v13l-2-3-1-8h-2l-1-5v-10z" fill="#141C23"/>
<path transform="translate(1426,1488)" d="m0 0h19l5 1 29 1v1h-55v-2z" fill="#6B808A"/>
<path transform="translate(1377,361)" d="m0 0 2 4-8 8-8 4-3 1v-3l5-5h3v-2h2l2-5z" fill="#8F6816"/>
<path transform="translate(781,228)" d="m0 0 11 2-4 2-7 3-9 8h-2l1-5 6-8z" fill="#FDECB9"/>
<path transform="translate(1332,505)" d="m0 0 10 2-4 2-11 1 3-2h-13l-21 3-10 1 3-2 19-4z" fill="#3F5860"/>
<path transform="translate(1154,764)" d="m0 0 2 1-33 33-5 2h-3l14-12 15-14z" fill="#40412D"/>
<path transform="translate(692,514)" d="m0 0 5 4 8 11v2l3 1 7 9-1 2-8-7-6-7v-3l-3-1-1-3-2-1z" fill="#3B4C54"/>
<path transform="translate(1655,1011)" d="m0 0v3l-11 15-8 14-8 20-1-3 6-16 9-16 3-5z" fill="#375159"/>
<path transform="translate(568,777)" d="m0 0h13v1l-13 1v2l-9 3-8 1-3-1-4 2-4-1 6-1v-2z" fill="#745A17"/>
<path transform="translate(778,250)" d="m0 0 1 3-1 9 2 11 1 1h9l-3 3h-7l-4-6-2-6v-11z" fill="#696545"/>
<path transform="translate(1660,1203)" d="m0 0 3 1 1 2v10l-2 10-2-4 1-7-3-1-2-5 1-3z" fill="#576F77"/>
<path transform="translate(1894,1121)" d="m0 0 2 1v29l-1 10-3-2 1-16z" fill="#39525A"/>
<path transform="translate(802,1013)" d="m0 0h9l-2 5-6 9h-2l-1-4 3-8h-6v-1z" fill="#111E2A"/>
<path transform="translate(889,879)" d="m0 0 5 1 6 3v2l5 1 18 10 1 2-7-2-19-10-10-5z" fill="#2B3C44"/>
<path transform="translate(1809,1124)" d="m0 0h1l1 31h1v24l-3 2z" fill="#395A65"/>
<path transform="translate(711,1109)" d="m0 0 2 1-3 5-16 8-7 2 5-5 14-8z" fill="#182732"/>
<path transform="translate(1772,1041)" d="m0 0h1l2 27 1 3 6-3 1 4-3 2h-6l-2-2z" fill="#617982"/>
<path transform="translate(777,273)" d="m0 0 8 12 5 4 5 2v1h-6l-2-1 1 2 3 2h-6l-2-1v-2h2l-5-7-4-8z" fill="#FBE9B7"/>
<path transform="translate(1860,1012)" d="m0 0 5 5 8 13 6 12 1 5-2 2-7-16-8-15-3-4z" fill="#41575F"/>
<path transform="translate(660,784)" d="m0 0 2 1-11 23-2 2-1-2-2 1 2-5 10-17z" fill="#544C25"/>
<path transform="translate(770,151)" d="m0 0h2l-1 5-9 10h-3v2l-7 4-3-1 13-10 6-7z" fill="#576D75"/>
<path transform="translate(650,613)" d="m0 0h1l1 10 2 2-1 6-1-2-3 1-4 7-1-2 3-11 2-10z" fill="#C99934"/>
<path transform="translate(819,269)" d="m0 0 3 4-1 7-5 10-2 1v-5-3z" fill="#FDECBB"/>
<path transform="translate(740,1101)" d="m0 0h2l-1 4-3 3-6 4-3-1v-2h-2l1-3z" fill="#7B5807"/>
<path transform="translate(1841,1033)" d="m0 0h1l1 5v8l-3 3 1 6 3-1 2-2 2 3-1 3-2-2h-5l-3-4-1-7 1-3 5-1-1-2z" fill="#597078"/>
<path transform="translate(404,875)" d="m0 0h1v10l-3 13-1 9-1 1-1 17h-1v-18l3-19z" fill="#A27515"/>
<path transform="translate(1361,561)" d="m0 0v3l-3 4h-2l-2 4-11 11-8 6-2-1 13-12 10-11 1-2z" fill="#313B36"/>
<path transform="translate(1210,509)" d="m0 0h2l-1 13-1 4 2 1-1 4h2l1 3h-4l-3-9-1-5 3-1v-3h-2l1-5z" fill="#0F1924"/>
<path transform="translate(1344,420)" d="m0 0 7 1-1 2h-27l-10 1h-14v-1l19-2z" fill="#697D84"/>
<path transform="translate(773,150)" d="m0 0 3 1 1 3-3 6-8 8-1-2-2-1 5-5z" fill="#16222B"/>
<path transform="translate(273,1011)" d="m0 0 3 4 7 20-1 2-5-5-3-11z" fill="#FDFDFD"/>
<path transform="translate(970,626)" d="m0 0 2 1-1 5-8 16h-2l1-8 6-12z" fill="#324D55"/>
<path transform="translate(718,93)" d="m0 0h12l14 4-3 3-10-2-6-2-8-1z" fill="#909A9E"/>
<path transform="translate(1771,1180)" d="m0 0h1v35l-2 3-1-2 1-35z" fill="#395B66"/>
<path transform="translate(1895,1109)" d="m0 0h1l1 9v23h-1l-1-19-1 21h-1v-32z" fill="#3A5A64"/>
<path transform="translate(1851,1068)" d="m0 0 2 3 3 19 1 13h-3l-3-29z" fill="#3A5A64"/>
<path transform="translate(1810,1180)" d="m0 0h1v18l-1 12-3 1 1-24z" fill="#3E5860"/>
<path transform="translate(834,1054)" d="m0 0 4 1-6 4-13 3-17 7-3-1 19-8z" fill="#314A52"/>
<path transform="translate(876,825)" d="m0 0 9 3 13 5 10 4 3 2-6 1-15-7-14-7z" fill="#2A3F47"/>
<path transform="translate(1771,1141)" d="m0 0h1l1 17-1 21h-2v-32z" fill="#395B66"/>
<path transform="translate(794,262)" d="m0 0h1v8l-5 4-2 1h-7l-3-5 1-3 3 5 7-2z" fill="#364C51"/>
<path transform="translate(843,1051)" d="m0 0h7l-4 4-16 7h-2l1-3 8-4 3-3z" fill="#101D29"/>
<path transform="translate(648,629)" d="m0 0h4l-2 7-3 1-2 5-3 7-3 2 1-5 3-9 2-1z" fill="#4C5444"/>
<path transform="translate(648,807)" d="m0 0h1l-1 7-5 10-2-2-4 2 8-15z" fill="#423B1E"/>
<path transform="translate(1176,744)" d="m0 0v3l-12 13-3 3h-3l-1 4-4 4-3-1 9-10 8-7z" fill="#1B2D35"/>
<path transform="translate(629,686)" d="m0 0h1v8l-5 15h-2l1-11 4-11z" fill="#4E5036"/>
<path transform="translate(759,556)" d="m0 0h1l1 5 3 3-1 3-6-1-1 4h-2l1-9z" fill="#18222D"/>
<path transform="translate(1162,274)" d="m0 0 5 1-1 3-10 1h-36v-2h35l7-1z" fill="#FDF1CC"/>
<path transform="translate(744,1098)" d="m0 0 3 1h-2l-2 8-5 12h-3l-2 1 2-5 7-14-2-1z" fill="#172832"/>
<path transform="translate(782,1048)" d="m0 0h2v11l-2 2-2 14-3 1 3-24z" fill="#0E1A26"/>
<path transform="translate(1699,1019)" d="m0 0 1 4 2 1-6 18-1 5h-3l1-7z" fill="#395A65"/>
<path transform="translate(1420,714)" d="m0 0h1l2 17-1 2h3l-1 2-5 2v-22z" fill="#856111"/>
<path transform="translate(575,947)" d="m0 0v3l-7 12-3 4h-2l1-5 4-8 3-4z" fill="#4E4D30"/>
<path transform="translate(1170,696)" d="m0 0 6 4 2 4 6 5v3h-3v-2l-4-2-8-8z" fill="#585A46"/>
<path transform="translate(794,1074)" d="m0 0m-4 1h4l-1 3-6 3-11 2v-3l5-2 2 1v-2z" fill="#0C1724"/>
<path transform="translate(1728,1169)" d="m0 0 1 2 5 2-1 5-4 4h-2l-1-10h2z" fill="#3F5860"/>
<path transform="translate(962,911)" d="m0 0 21 1 1 2-6 2-9-1-7-2z" fill="#304A52"/>
<path transform="translate(1654,1207)" d="m0 0 3 2 2 5 2 1-1 6-2 2-1-5h-3l-1-9z" fill="#3C545D"/>
<path transform="translate(548,783)" d="m0 0 4 1-1 2-14 7h-2v-4l-2-1 14-4z" fill="#1E313A"/>
<path transform="translate(1304,560)" d="m0 0h5v2l-13 3-5 1h-9l3-2 12-3z" fill="#65787F"/>
<path transform="translate(683,205)" d="m0 0 2 2v17l-2-3-3 15h-1l1-12 2-18z" fill="#354E56"/>
<path transform="translate(730,93)" d="m0 0h11l11 2-1 5-6-1-7-3-8-2z" fill="#32444D"/>
<path transform="translate(1045,577)" d="m0 0h2l5 5 9 8-2 1 1 4-6-5-7-8z" fill="#354340"/>
<path transform="translate(477,1088)" d="m0 0h1v7l-5 16-2 2 1-13 2-10h1v8z" fill="#2B464E"/>
<path transform="translate(1681,1008)" d="m0 0 1 2-11 18-3 4-1-4 7-11 6-8z" fill="#3B5963"/>
<path transform="translate(1118,654)" d="m0 0h5l8 9v2l-5-2-10-6 2-1z" fill="#B17F19"/>
<path transform="translate(1430,712)" d="m0 0 2 4v19h-3l-2-2-1-4h2v-7l1-5z" fill="#8D6716"/>
<path transform="translate(1819,1248)" d="m0 0 11 2v2l-5 1h-12v-3z" fill="#597078"/>
<path transform="translate(1125,652)" d="m0 0 4 1 7 8 4 4-1 2-5-4-2 1-5-5-2-4z" fill="#18262F"/>
<path transform="translate(1038,612)" d="m0 0 7 1 11 9v3h-2v-2l-5-2-11-8z" fill="#384850"/>
<path transform="translate(1304,461)" d="m0 0h35v1l-26 1-7 1h-12v-1z" fill="#3E545C"/>
<path transform="translate(1911,1172)" d="m0 0 1 3-3 16-2-2-2-8 3-5z" fill="#6A7F87"/>
<path transform="translate(802,1068)" d="m0 0 3 1-7 3h-2v2l-9 3-1-4 10-4z" fill="#1D3038"/>
<path transform="translate(916,940)" d="m0 0 21 1-1 2-18 1-2 4-1-7z" fill="#1C2E36"/>
<path transform="translate(1908,1071)" d="m0 0 3 3 1 5v10l-5-2 1-7-1-8z" fill="#5E747B"/>
<path transform="translate(419,860)" d="m0 0h4v10l-1 5h-1l-1-12-3 8-1 12h-1v-13l3-9z" fill="#8B6514"/>
<path transform="translate(496,815)" d="m0 0 2 1-9 7-6 4h-2v2l-5 1 2-4h2l2-4h4l9-6z" fill="#916B17"/>
<path transform="translate(881,668)" d="m0 0 3 1v8l-2 4-4 1 1-8z" fill="#344643"/>
<path transform="translate(1875,1233)" d="m0 0 2 3-2 9-2 8h-4l3-10z" fill="#3E555E"/>
<path transform="translate(1879,1047)" d="m0 0h2l6 17-2 2v-2h-2l-4-12z" fill="#3B545C"/>
<path transform="translate(1098,798)" d="m0 0h4l1 2-3 7h-2l-1 2-2-1v-7z" fill="#4F5A53"/>
<path transform="translate(606,770)" d="m0 0 4 3v2l-10 1h-10l1-2 12-2z" fill="#2A444C"/>
<path transform="translate(787,291)" d="m0 0 18 1-1 4-13-1-4-2z" fill="#FDFAF0"/>
<path transform="translate(1552,198)" d="m0 0 2 1-8 9-7 5-3 3-3-1 13-12z" fill="#D99F2B"/>
<path transform="translate(1931,1082)" d="m0 0h2l-1 5-7 9h-2v-5l6-7h2z" fill="#4D656D"/>
<path transform="translate(1861,981)" d="m0 0 1 4 8-3 3 1-7 4h-2v2l-5 2-2 3-1-3 3-3z" fill="#A07417"/>
<path transform="translate(1076,605)" d="m0 0 4 4v2l4 2 5 6 1 3-3-1v-2l-4-2-8-7z" fill="#554C23"/>
<path transform="translate(681,503)" d="m0 0 4 1 7 8 2 7-7-6-6-8z" fill="#374950"/>
<path transform="translate(765,267)" d="m0 0h4l7 14 4 5-1 2-5-3-6-15z" fill="#879296"/>
<path transform="translate(768,159)" d="m0 0m-1 1m-1 1m-1 1m-1 1m-1 1m-1 1 3 1-2 4-7 4-3-1 4-5h2v-2z" fill="#1A272E"/>
<path transform="translate(1855,1146)" d="m0 0h3v11l-1 9-3-2z" fill="#3E5861"/>
<path transform="translate(608,753)" d="m0 0h1v9l2-3v6h-2v5l4 2h-5-3l-2-1 3-8z" fill="#996F16"/>
<path transform="translate(603,500)" d="m0 0h4l-1 6h-2v2l-5-1-2-2 2-4z" fill="#243233"/>
<path transform="translate(1730,1238)" d="m0 0h2v7h2l1 8-6-1 1-4z" fill="#536A72"/>
<path transform="translate(477,978)" d="m0 0h27v1l-12 1 2 2-12-1-5-2z" fill="#424E43"/>
<path transform="translate(1227,563)" d="m0 0h1v5h3l2 8-6-2-2-3v-6z" fill="#151E27"/>
<path transform="translate(649,464)" d="m0 0 4 1 9 11 1 2-5 1-6-10v-2h-3z" fill="#54615D"/>
<path transform="translate(1884,1064)" d="m0 0h3l4 13-1 5h-2l-4-15z" fill="#3D565F"/>
<path transform="translate(414,871)" d="m0 0h1v12h4l1-8h2l-1 8-3 3-4-1-1-1z" fill="#CC921D"/>
<path transform="translate(762,544)" d="m0 0h2v6l-2 5-1 6-2-4-2 1 3-11z" fill="#45473B"/>
<path transform="translate(1635,1417)" d="m0 0h2l7 12-1 3-3-2-1-3h-4z" fill="#FDE7A2"/>
<path transform="translate(951,858)" d="m0 0 5 2 14 7-3 1-19-8z" fill="#415760"/>
<path transform="translate(614,744)" d="m0 0 1 4-3 10-3 6h-1l1-11 1-4h2z" fill="#525132"/>
<path transform="translate(753,566)" d="m0 0 1 4h2l-1 5-2 6-4-2 3-10z" fill="#41443A"/>
<path transform="translate(777,571)" d="m0 0 4 1 3 3h-3l4 3-1 2-5-2-5-3 1-3z" fill="#343B31"/>
<path transform="translate(860,502)" d="m0 0h9l-1 6h-7l-2-5z" fill="#395B66"/>
<path transform="translate(1846,1038)" d="m0 0 4 1 4-1 1 3-5 9-1-3 1-3-4-4z" fill="#617982"/>
<path transform="translate(1706 1e3)" d="m0 0 3 1-3 9 3 1-3 6-1-3v-7l-3 1 2-5z" fill="#395B66"/>
<path transform="translate(686,228)" d="m0 0h2v8l-2 3h-3l-1 2 1-9z" fill="#141D25"/>
<path transform="translate(774,126)" d="m0 0 2 2 1 5 1-6h1v12l-3 5h-1z" fill="#869194"/>
<path transform="translate(1644,1144)" d="m0 0 2 2 1 3v12l-3 3z" fill="#3F5760"/>
<path transform="translate(592,772)" d="m0 0h11v1l-12 2-4 2h-12v-1l15-3z" fill="#906812"/>
<path transform="translate(1893,1163)" d="m0 0h1v5l7-3-2 5-5 6-2 2z" fill="#3B565F"/>
<path transform="translate(1179,739)" d="m0 0 2 1-20 20v-3z" fill="#4F4828"/>
<path transform="translate(1059,591)" d="m0 0 4 1 6 6-1 3-5-2-4-6z" fill="#213035"/>
<path transform="translate(1770,1076)" d="m0 0 5 2-3 9-3-4-1-6z" fill="#3E5760"/>
<path transform="translate(951,581)" d="m0 0 7 3 6 7v2l-5-2-5-4-3-4z" fill="#2E3A35"/>
<path transform="translate(708,255)" d="m0 0h10v1l-11 2-6 3-8 6 4-8z" fill="#FDECBA"/>
<path transform="translate(676,241)" d="m0 0 1 2h2l-2 6-7 7h-2l2-5h2l2-4z" fill="#4F666E"/>
<path transform="translate(1867,969)" d="m0 0 4 1-8 11-3-1 2-4z" fill="#8D6716"/>
<path transform="translate(871,871)" d="m0 0 6 1 12 6v2l-5-1-12-6z" fill="#1A2B36"/>
<path transform="translate(1130,726)" d="m0 0 1 4-5 12-3 1 1-5 5-11z" fill="#334D55"/>
<path transform="translate(785,300)" d="m0 0 2 1v5l-10 1-1 2-3-1 1-5 10 1z" fill="#616E69"/>
<path transform="translate(1420,500)" d="m0 0h1l1 6 3-1 1 6-5 1-1 3z" fill="#7C5907"/>
<path transform="translate(780,249)" d="m0 0h7l5 5 2 4-1 3v-2l-4-2-2-2v-4l-7-1z" fill="#3F5559"/>
<path transform="translate(1576,178)" d="m0 0 1 2-5 5-5 4-2 2-5 1 5-5z" fill="#E3AA32"/>
<path transform="translate(1682,1136)" d="m0 0h1l1 16h-3v-15z" fill="#395159"/>
<path transform="translate(700,1115)" d="m0 0 2 1v3l-13 6-2-1 9-6z" fill="#1B2E38"/>
<path transform="translate(406,851)" d="m0 0h1l1 14-1 10h-2v-13z" fill="#A18746"/>
<path transform="translate(1128,660)" d="m0 0 4 2v2l4 2 3 4v2h-3v-2l-4-2-3-3h2z" fill="#445B64"/>
<path transform="translate(1303,411)" d="m0 0 1 2-1 3 3-1 5 1h10v1l-6 1h-10l-6-1 2-5z" fill="#866314"/>
<path transform="translate(1840,1033)" d="m0 0h1l1 8-5 1v8l-2-3-2-6 6-2z" fill="#617982"/>
<path transform="translate(1408,478)" d="m0 0 4 2 1 4h-10l1-4z" fill="#7C5907"/>
<path transform="translate(757,345)" d="m0 0 1 3-5 3h-12l1-2 12-2z" fill="#38423A"/>
<path transform="translate(1879,1220)" d="m0 0 3 1-3 12-1 3h-2l1-9z" fill="#354E56"/>
<path transform="translate(456,915)" d="m0 0h6l1 4-7 2 1-3h-10l4-2z" fill="#5D5834"/>
<path transform="translate(1845,1038)" d="m0 0 3 4 3 2-1 6 1 1v10h-1l-3-16-2-4z" fill="#597078"/>
<path transform="translate(1756,977)" d="m0 0 17 1-1 3h-2l-1 4-2-4v-2h-9z" fill="#597078"/>
<path transform="translate(907,888)" d="m0 0 7 3 9 5 1 2-7-2-11-6z" fill="#3D545C"/>
<path transform="translate(491,814)" d="m0 0h2v2l2 1-9 6-2-1z" fill="#3F4838"/>
<path transform="translate(511,800)" d="m0 0h2v2l4-2 3 1-10 6-4 2 3-5v-3z" fill="#323E3A"/>
<path transform="translate(1110,653)" d="m0 0 6 1v3l5 2 4 3-1 2-9-6z" fill="#2C3630"/>
<path transform="translate(692,514)" d="m0 0 5 4 6 8-1 2-5-3-1-3-2-1z" fill="#4C5F66"/>
<path transform="translate(1351,462)" d="m0 0 5 1 3 2-1 1h-26v-1l21-1z" fill="#AD7D1A"/>
<path transform="translate(1793,991)" d="m0 0 3 4 2 11-3 1-2-10z" fill="#5D747D"/>
<path transform="translate(552,781)" d="m0 0h8l-4 3-5 1-3-1-4 2-4-1 6-1v-2z" fill="#575739"/>
<path transform="translate(1225,550)" d="m0 0 1 4-1 8 2 1-1 3-2 4-1-2v-10z" fill="#3A4A4D"/>
<path transform="translate(1694,1233)" d="m0 0 2 3 4 15 1 2-5-1-1-10z" fill="#597078"/>
<path transform="translate(660,784)" d="m0 0 2 1-6 13-3-1 2-5z" fill="#815F11"/>
<path transform="translate(617,734)" d="m0 0 1 4-2 6h-2l-2 5-1-3 2-8 3-1z" fill="#655828"/>
<path transform="translate(948,660)" d="m0 0h6v3l-5 2-4-1v-2h-5v-1z" fill="#314B53"/>
<path transform="translate(768,301)" d="m0 0h9l-3 1v2h-2v5h-2l-2-4z" fill="#0E1A26"/>
<path transform="translate(779,132)" d="m0 0h1l1 7 2 1-1 8h-2l-1-4-2-2z" fill="#394E55"/>
<path transform="translate(1730,1180)" d="m0 0 1 4v9l-3 4v-15z" fill="#395A65"/>
<path transform="translate(736,1096)" d="m0 0 2 1-7 5-9 2 3-3z" fill="#233840"/>
<path transform="translate(448,897)" d="m0 0h4l-3 6-4 1v-2l-4-2z" fill="#27393C"/>
<path transform="translate(807,481)" d="m0 0h1l1 7v10l-2-3-1-2v-10z" fill="#272923"/>
<path transform="translate(813,473)" d="m0 0h13l1 2-9 1-4 2z" fill="#C9A04B"/>
<path transform="translate(1884,1162)" d="m0 0h2l5 5-1 7-6-8z" fill="#597078"/>
<path transform="translate(1860,980)" d="m0 0 2 1-3 8-4 2-1-3h2v-3h2v-3h2z" fill="#3A525A"/>
<path transform="translate(632,677)" d="m0 0h1l-1 9-2 4-2-5 2-7z" fill="#5D5429"/>
<path transform="translate(1093,650)" d="m0 0 4 1 5 3 3 6-4-2-6-4z" fill="#35474E"/>
<path transform="translate(936,568)" d="m0 0 4 2v2h2l3 3v2l-5-1-5-6z" fill="#243436"/>
<path transform="translate(779,532)" d="m0 0 4 1 6 5-2 3-7-6z" fill="#303630"/>
<path transform="translate(809,528)" d="m0 0 3 2 1 5v5l-3 2z" fill="#364850"/>
<path transform="translate(1180,529)" d="m0 0h3l-2 4-3 1v2l-5 1 2-4z" fill="#2A393E"/>
<path transform="translate(734,95)" d="m0 0 10 2-3 3-10-2z" fill="#A1AAAD"/>
<path transform="translate(897,779)" d="m0 0 5 1 10 3 2 2h-8l-9-5z" fill="#4F656D"/>
<path transform="translate(979,607)" d="m0 0h2l-3 10-3-3v-3l1-3z" fill="#365058"/>
<path transform="translate(1027,603)" d="m0 0 6 2v2l5 2v3l-5-2-5-4z" fill="#384950"/>
<path transform="translate(749,579)" d="m0 0 3 2-3 9h-4l1-4z" fill="#1F2626"/>
<path transform="translate(1659,1045)" d="m0 0 3 1-3 10-3-1 1-5z" fill="#3D5861"/>
<path transform="translate(876,825)" d="m0 0 9 3 8 3-1 2-9-3-7-4z" fill="#4C5B58"/>
<path transform="translate(715,543)" d="m0 0 5 5 4 6-4-1v-2l-4-2z" fill="#43555C"/>
<path transform="translate(1204,514)" d="m0 0h2v8l4 8-1 2-6-10v-7z" fill="#655C36"/>
<path transform="translate(773,318)" d="m0 0 3 3 2-3v6l-7 2-2-3 4-1z" fill="#394E50"/>
<path transform="translate(752,226)" d="m0 0h3l4 7-1 2-3-2-1 2z" fill="#475555"/>
<path transform="translate(770,151)" d="m0 0h2l-1 5-4 5h-2l1-4z" fill="#8E999D"/>
<path transform="translate(1855,1100)" d="m0 0 2 3 1 10-3 1z" fill="#3D5862"/>
<path transform="translate(843,1051)" d="m0 0h7l-4 4-6 2 2-3-4-1z" fill="#233840"/>
<path transform="translate(892,935)" d="m0 0 12 3v1h-13z" fill="#425B63"/>
<path transform="translate(993,893)" d="m0 0h2l1 8-2 3h-2z" fill="#344B50"/>
<path transform="translate(618,727)" d="m0 0h1v7h-2l-1 4-2 1 1-8h2z" fill="#4C5038"/>
<path transform="translate(642,648)" d="m0 0 1 3-3 8-2 3v-5l-1-2 1-4z" fill="#775E1C"/>
<path transform="translate(1210,509)" d="m0 0h2l-1 10-4-3 1-5z" fill="#0F1B28"/>
<path transform="translate(646,323)" d="m0 0 2 3v2l-3-1v-2l-6 1v1h-6v-3z" fill="#394E51"/>
<path transform="translate(260,985)" d="m0 0h3l5 11-4-2z" fill="#FDFDFD"/>
<path transform="translate(1810,974)" d="m0 0 9 1 1 2-8 1-2-1z" fill="#5D737B"/>
<path transform="translate(1e3 880)" d="m0 0h19l-3 3-13-1z" fill="#2B464E"/>
<path transform="translate(968,868)" d="m0 0 7 1 7 3-4 2-10-5z" fill="#7E8C91"/>
<path transform="translate(519,795)" d="m0 0h2l-1 5-7 2 1-4z" fill="#292F2A"/>
<path transform="translate(1304,560)" d="m0 0h5v2l-13 3-2-2z" fill="#4E5D5A"/>
<path transform="translate(834,1054)" d="m0 0 4 1-6 4-7 1 4-2v-2z" fill="#21353D"/>
<path transform="translate(620,974)" d="m0 0 1 2-4 8h-3l4-9z" fill="#CC931D"/>
<path transform="translate(648,807)" d="m0 0h1l-1 7-2 2v-2l-3 1 2-6z" fill="#443F23"/>
<path transform="translate(500,809)" d="m0 0 4 2-8 5h-3v-3l5-2z" fill="#23353A"/>
<path transform="translate(1212,496)" d="m0 0v3l-4 5-4 3-2-1 7-8z" fill="#20282A"/>
<path transform="translate(1256,474)" d="m0 0 4 1-2 1v3l-7 2 1-4h2v-2z" fill="#2D414A"/>
<path transform="translate(1888,1190)" d="m0 0h1l-1 10-1 2h-2l1-8z" fill="#2D444C"/>
<path transform="translate(566,957)" d="m0 0h3v3l-4 6h-2l1-5z" fill="#745811"/>
<path transform="translate(1876,952)" d="m0 0 4 1 1 6-3 1-2-5z" fill="#F0B715"/>
<path transform="translate(921,551)" d="m0 0 6 2-1 5h-4z" fill="#395A65"/>
<path transform="translate(1304,461)" d="m0 0h8l-3 2-3 1h-12v-1z" fill="#51676F"/>
<path transform="translate(772,304)" d="m0 0 2 1 1 4 1 6-1-3h-2l-2 3-1-6h2z" fill="#33413F"/>
<path transform="translate(667,255)" d="m0 0 6 1-1 4-3 1-1-2-3 1z" fill="#2C3C3F"/>
<path transform="translate(1922,1091)" d="m0 0h1v5l4 1-7 1-2-2z" fill="#6E8289"/>
<path transform="translate(1855,1090)" d="m0 0h1l1 13h-3l-1-10h2z" fill="#395B66"/>
<path transform="translate(443,918)" d="m0 0 4 1-5 2v3h-5l-1-3z" fill="#5C5938"/>
<path transform="translate(537,787)" d="m0 0 5 2-3 3-4 1v-4l-2-1z" fill="#3E4232"/>
<path transform="translate(1098,644)" d="m0 0 4 1 9 6-4 1-9-7z" fill="#3C3B25"/>
<path transform="translate(1056,625)" d="m0 0h5l5 5v2l-5-2z" fill="#3F5057"/>
<path transform="translate(1286,565)" d="m0 0h5v2l-4 2-9-1 1-2z" fill="#3F545C"/>
<path transform="translate(900,540)" d="m0 0 4 2 4 6-1 2-7-7z" fill="#2F3A34"/>
<path transform="translate(1200,508)" d="m0 0v3l-4 5-4 4h-2l2-4z" fill="#47452E"/>
<path transform="translate(1297,420)" d="m0 0 4 1h-2l-1 4-5 2 1-4z" fill="#13212C"/>
<path transform="translate(775,235)" d="m0 0 2 1-4 6-3 1 1-5z" fill="#FDFBF5"/>
<path transform="translate(287,1050)" d="m0 0 2 2 1 5-2-1z" fill="#FDFDFD"/>
<path transform="translate(290,1057)" d="m0 0 2 2-1 3z" fill="#FDFDFD"/>
<path transform="translate(1918,1089)" d="m0 0 2 1z" fill="#A0A5A6"/>
<path transform="translate(1485,1466)" d="m0 0" fill="#FDFDFD"/>
</svg>
