<?xml version="1.0" encoding="UTF-8"?>
<svg version="1.1" viewBox="0 0 2048 769" width="567" height="213" xmlns="http://www.w3.org/2000/svg">
<path transform="translate(0)" d="m0 0h2048v769h-2048z" fill="#FBFBFA"/>
<path transform="translate(209,265)" d="m0 0h1411l3 7h3l1 85v102l-1 220h-131l-9-1h-25l-22 1h-308l-12-1h-12l-22 1h-819l-75-1-9-5 1-3h5l1-80v-321l-3-2z" fill="#C9C8C9"/>
<path transform="translate(0)" d="m0 0h2048v85h-2048z" fill="#0B66A2"/>
<path transform="translate(192,268)" d="m0 0h891v80l-1 1-58-1v-2l-55 1-2 10 4-8 2-1h6l2 1v14h2v-15h21l2 2v9l-2 4 2-2 1-11 2-3h11l-2 10-1 4 4-12 42 1 20 1v75l-1 4 1 1v38h2v-38h11l9 1v78l1 159-3 2h-32l-11-1-1-35v-253h-132v270l-1 17h-34v-289l-7-1-3-3v-8h-132l-1 302-2 1h-14l-30-1-1-1v-207l-1-85h-129l-1 291-1 2h-45l-1-1v-269l-1-48 1-2h-132v319h-35v-293l-7-1-3-2-1-9h-131l-1 5v249l-1 52h-21z" fill="#FCFCFB"/>
<path transform="translate(417,349)" d="m0 0h105l2 1 1 50v269l45 1 1-293 1-1h129l1 1 1 85v207l30 1 14 1v1h-340l-16-1 1-321z" fill="#0AAD50"/>
<path transform="translate(199,266)" d="m0 0h1420v6h-2l-1-3-1424-1v402h21v-301l2-6h116l14 1 1 7v299l43 1v1h-199l-1-82v-321l-3-2z" fill="#0AAD50"/>
<path transform="translate(750,367)" d="m0 0h129l2 1 1 21 1 99v183l-5 1h-114l-17-1 2-1v-302z" fill="#0AAD51"/>
<path transform="translate(1265,269)" d="m0 0h174v79l-57 1 57 1v79h-10l-1-1v-32h-7l-4-3v-9h-132v272l-1 13h-35v-238-2l-1-23-5-2-4-3-2-7-2-1-130-1v37l-1 1h-19v-79l51-1h126v79l-6 1 7 1 1-81h61l-1 8-2 5 1-1 4-11 4-2 7 1 1 10v-10h21l1 1 1 13 1-13 2-3h-101v-78z" fill="#FBFBFA"/>
<path transform="translate(1307,383)" d="m0 0h106l3 1 1 16 1 269 9 1 34 1v1h-222v-1l12-1h33l1-286z" fill="#0AAD50"/>
<path transform="translate(928,383)" d="m0 0h131l1 252v35l44 1v1h-169l-8-1z" fill="#0AAD50"/>
<path transform="translate(1105,392)" d="m0 0h130l3 2 1 48v211l-1 19-40 1h-34l-57-1-2-1-1-162z" fill="#FEDB68"/>
<path transform="translate(1462,400)" d="m0 0h132l1 1 1 79v132l-1 59-1 1-36 1h-38l-56-1-1-1-1-7-1-261z" fill="#FEDB68"/>
<path transform="translate(1811,264)" d="m0 0h18l14 1 4 6 3 2v393l-76-1-3-1v-4l4 1h11v-1h-23l-1-3 7-1 1-20v-210l-7-1v-1h7v-39h-7v-1h7v-74l-7-1 2-2 6 1-1-3v-15l1-22-2-1 5-2z" fill="#FDDA68"/>
<path transform="translate(1441,350)" d="m0 0h174l1 1v318h-9l1-53v-187l-2-16-5-2-5-3-2-7-132-1v269l-1 1h-18l-16-1 1-80v-79-2-77l2-1h8l3 1-1-2v-47z" fill="#FBFBFA"/>
<path transform="translate(193,350)" d="m0 0h177l1 52 1-52h19v319h-34v-293l-7-1-3-2-1-9h-131l-1 5v220l-10 1h-11v-80l16-1h-16v-77l16-2h-16z" fill="#FCFCFB"/>
<path transform="translate(193,269)" d="m0 0h178v41l-1 38-177 1z" fill="#FCFCFB"/>
<path transform="translate(1085,269)" d="m0 0h177v79l-23 1h-154z" fill="#FDFDFC"/>
<path transform="translate(373,269)" d="m0 0h175v56l-1 23-6 1h-78l-1 1-90-1v-78z" fill="#FBFBFA"/>
<path transform="translate(1441,269)" d="m0 0h175v80h-39l-137-1z" fill="#FDFDFC"/>
<path transform="translate(1082,268)" d="m0 0h1v80l-1 1-58-1v-2l-46 1-13-2 1 3-58 1v-80z" fill="#FCFCFB"/>
<path transform="translate(1772,266)" d="m0 0h70l-2 3-9-1v80l-1 36-7 1h-33l-6-1-1-43v-72h-10v386l2 1h8v-154l3-1h44l1 153 1 2 5 1v1h-67v-232l-7-1v-1h7v-39h-7v-1h7v-74l-7-1 2-2 6 1-1-3v-15l1-22-2-1z" fill="#ED4235"/>
<path transform="translate(0)" d="m0 0h2048v6h-2048z" fill="#F5F5F4"/>
<path transform="translate(0,112)" d="m0 0h174l1 1v65h-175z" fill="#0C66A2"/>
<path transform="translate(1059,383)" d="m0 0h1l2 10 10 4v32l4 1-4 1v77h20l12 1 1 1 1 159-3 2h-32l-11-1-1-35z" fill="#CAC9CA"/>
<path transform="translate(1811,264)" d="m0 0h18l14 1 4 6 3 2v393l-76-1-3-1v-4l4 1h11v-1h-23l-1-3 7-1 1-11h1v12h61l-2-3v-269h-7v-1h7v-116l5-1 5 1 1-1-67-1v-1z" fill="#CAC9CA"/>
<path transform="translate(1083,268)" d="m0 0h533v1h-175v78l136 1 37 1v2h-165l-8-1v81h-13l1 29v30l-1 18 2 1-1 1v81l-1 76-1 2h16l17 1v1h-37l-6-2-1-285h1l1 9 3 2 7 1 1 7v25l10 1v-79h-57l-1-2h58v-79l-174 1-1 78 69-1h22l10 1-1 3-1 13-2 1-1-14-21-1 1 15-2-1v-14h-7l-4 1-2 9-2 4-2-1 4-13h-61v81l-1 6h-1v-6h-6l-1-2h7v-79l-15 1h-162v79l20-1v3h-9l-11-1v38h-2v-38l-2-1 1-10v-31l1-38h-20l-38-1-4-1-2 9-3 5-1-2 4-11 1-3-11 1-1 2-1 11-3 3-2-1 3-4v-9l-1-1-21-1v15h-2v-14h-8l-3 3-4 10-1-3 4-12-2-1 54-1 3 1v2h58zm2 1v80h157l20-1v-79z" fill="#CAC9CA"/>
<path transform="translate(1772,266)" d="m0 0h70l-2 3-9-1v80l-1 36-7 1h-33l-6-1-1-43v-72h-10v386l2 1 8 1v1h-13v-232l-7-1v-1h7v-39h-7v-1h7v-74l-7-1 2-2 6 1-1-3v-15l1-22-2-1z" fill="#0B65A1"/>
<path transform="translate(1773,268)" d="m0 0h10l1 1v115h6v1h-6v269l-1 2-9 1-2-2v-386z" fill="#F9F9F8"/>
<path transform="translate(192,268)" d="m0 0h486v1h-129v80h56v2h-55l-1 53-1 8h-1v-61l-22-1-1 4-1-2 1-2-61-1v-1h84v-23l1-56h-175l-1 80h45v1h-25v319h-1l-1-318-18-1v52l-2 4-1-55h-172l-4-1v80l16-1 2 2-8 1h-10v77l5-1h14l-3 2h-16v80l11-1h9l1 2v27l-1 52h-21zm1 1v80l177-1 1-38v-41z" fill="#CAC9CA"/>
<path transform="translate(748,367)" d="m0 0 2 1-1 302-2 1h-14l-30-1-1-1v-207l-1-85-128-1v-1h129l1 1 1 11 10 2 1 1 1 41v80l-1 158h33z" fill="#CAC9CA"/>
<path transform="translate(199,266)" d="m0 0h1420v6h-2l-1-3-1424-1v402l22-1v2l-6 1h-18l-1-82v-321l-3-2z" fill="#202228"/>
<path transform="translate(524,354)" d="m0 0h1v7l9 1 2 3 1 91v109l-1 97-1 7h35v1h-45l-1-1z" fill="#CAC9CA"/>
<path transform="translate(345,364)" d="m0 0h1l1 9 10 3 1 21v273h-12z" fill="#CAC9CA"/>
<path transform="translate(1238,398)" d="m0 0 1 3 10 5v23l3 1-2 1v227l-1 11h35v1l-36 1h-10z" fill="#CAC9CA"/>
<path transform="translate(1829,326)" d="m0 0 2 3v19l-1 36-7 1h-33l-6-1-1-43v-12l1-2z" fill="#0AAD50"/>
<path transform="translate(1074,509)" d="m0 0 30 1v80h-25l-7-1v-79z" fill="#FDFDFC"/>
<path transform="translate(1072,591)" d="m0 0h31l1 1 2 77-2 1h-13l-19-1z" fill="#FCFCFB"/>
<path transform="translate(1083,268)" d="m0 0h356v1l-174 1-1 78 69-1h22l10 1-1 3-1 13-2 1-1-14-21-1 1 15-2-1v-14h-7l-4 1-2 9-2 4-2-1 4-13h-61v81l-1 6h-1v-6h-6l-1-2h7v-79l-15 1h-162v79l20-1v3h-9l-11-1v38h-2v-38l-2-1 1-10v-31l1-38h-20l-38-1-4-1-2 9-3 5-1-2 4-11 1-3-11 1-1 2-1 11-3 3-2-1 3-4v-9l-1-1-21-1v15h-2v-14h-8l-3 3-4 10-1-3 4-12-2-1 54-1 3 1v2h58zm2 1v80h157l20-1v-79z" fill="#C8C6C8"/>
<path transform="translate(1773,268)" d="m0 0h10l1 1v38l-1 2h-10l1 153h6v2h-7l1 114h9v-34h1v110l-1 2-9 1-2-2v-386z" fill="#CAC9C9"/>
<path transform="translate(701,268)" d="m0 0h381v1h-174l1 79h57l-3 2h-55v31l-1 31h-1l-1-25v-18l1-18h-67l-28-1v-2h2v-4h3v3h9v-16h2l2 16 10 1h56l10-1 1-78h-177l-1 80 57-1v-2h2l2-9 1-5-1-2h4l-1 6-3 12 13-2 3-1-1-9 3 3-1 7-1 3-3 1-17 1h-57v61l-1 19h-2l1-75 1-5h-56l-4-2h59v-58l1-22h-26z" fill="#C4C3C4"/>
<path transform="translate(202,591)" d="m0 0h12v27l-1 50-1 1h-19v-77z" fill="#FCFCFB"/>
<path transform="translate(1773,309)" d="m0 0h11v75h6v1h-6l-1 41-2-1h-8z" fill="#F8F8F7"/>
<path transform="translate(1772,266)" d="m0 0h13l-4 2-8 1v386l2 1 8 1v1h-13v-232l-7-1v-1h7v-39h-7v-1h7v-74l-7-1 2-2 6 1-1-3v-15l1-22-2-1z" fill="#212228"/>
<path transform="translate(727,291)" d="m0 0h1v58l57-1v-2h2l2-9 1-5-1-2h4l-1 6-3 12 13-2 3-1-1-9 3 3-1 7-1 3-3 1-17 1h-57v61l-1 19h-2l1-75 1-5h-56l-4-2h59v-57z" fill="#CAC9CA"/>
<path transform="translate(1880,434)" d="m0 0h27v21h-26l-1-1z" fill="#FEDB68"/>
<path transform="translate(1881,479)" d="m0 0h13l13 1v20l-1 1-26-1v-20z" fill="#0AAE51"/>
<path transform="translate(1881,388)" d="m0 0h26v21h-27v-20z" fill="#EE4336"/>
<path transform="translate(517,37)" d="m0 0h12l5 3 3 3 1 3v9l-4 6-4 3-3 1h-7l-4-2v-25z" fill="#F0F0F0"/>
<path transform="translate(1880,514)" d="m0 0h27v19l-1 1h-25l-1-1z" fill="#0B66A2"/>
<path transform="translate(498,207)" d="m0 0h11l6 4 2 4v13l-4 5-6 3h-9l-1-1v-27z" fill="#F4F3F3"/>
<path transform="translate(1009,717)" d="m0 0 7 1h8l3 3 3 1 5 8v6l-4 5-7 3-5-1-6-4-3-6-1-4 4-5h2l1-4-8 3-3-2v-3z" fill="#EEEEED"/>
<path transform="translate(494,727)" d="m0 0h3l-1 4-4 8-1 1v6l5 1 13-5-1-4-3-4 4 2 4 4v2l4 2 2 2-1 4-9 10 1 5 2 4h-2l-7-8-15-15-4-9-7-1v-2l11-3v-2z" fill="#CBCBCB"/>
<path transform="translate(160,496)" d="m0 0 5 2 2 3v13l-2 3-7 1-3-5v-3l-3 1-4 6-5 1-4-4-1-3v-8l4-6 7 1 4 6 1-2h2l2-5z" fill="#F0F0F0"/>
<path transform="translate(142,578)" d="m0 0 7 1 4 6 1-2h2l2-5h6l3 5v12l-3 3h-7l-2-3v-3l-4 2-4 4h-6l-3-5v-10z" fill="#EDEDEC"/>
<path transform="translate(144,334)" d="m0 0 5 2 4 6 1-2h2l2-5 5-1 4 5v13l-3 3h-6l-3-4v-4h-3l-2 5-2 3h-7l-3-6v-9l4-5z" fill="#F3F3F2"/>
<path transform="translate(144,415)" d="m0 0 5 2 3 5v2h2v-3h2l1-4 1-1h6l3 4v12l-3 4h-6l-3-4-1-6h-2l-1 5-4 5h-6l-3-5v-10l4-5z" fill="#F3F3F2"/>
<path transform="translate(608,43)" d="m0 0h19l4 2 3 10-1 9-4 1-2-3v-12l-5-1v14l-4 2-3-2-1-12-3-2-1 15h-5l-2-3 1-15 1-2z" fill="#EFEFEE"/>
<path transform="translate(1831,701)" d="m0 0h4v2l4 1 6 9-1 6-5 5-3 2h-6l-8-6-3-5 1-5 2-3 5-3z" fill="#F0F0EF"/>
<path transform="translate(780,35)" d="m0 0 4 1v26l-2 2-4 1h-7l-5-3-2-4v-8l4-5 5-2h4l1-7z" fill="#F0F0EF"/>
<path transform="translate(142,255)" d="m0 0h5l3 3v2h2l1 3 1-2h2l1-5 1-1h6l3 4v12l-5 4-5-1-2-4v-3l-4 2-4 5h-7l-2-4v-11z" fill="#F2F2F1"/>
<path transform="translate(1773,268)" d="m0 0h10l1 1v38l-3 1h-8z" fill="#F7F7F6"/>
<path transform="translate(641,43)" d="m0 0h9l5 3 3 6-1 7-5 5-2 1h-6v6l-1 1h-5l-1-1v-17l2-10z" fill="#F1F1F0"/>
<path transform="translate(1773,580)" d="m0 0h9l2 1v36l-2 1h-9z" fill="#F8F8F7"/>
<path transform="translate(1869,529)" d="m0 0h1l1 13 5 1 172 1v2h-172l-7-1z" fill="#CAC9CA"/>
<path transform="translate(826,36)" d="m0 0h9l6 2-1 4-11 1-2 3h7l2 1v5l-1 1-7 1 1 4h10v6l-4 1h-10l-4-3v-24z" fill="#EFEFEF"/>
<path transform="translate(736,43)" d="m0 0h7l5 4 2 4-1 9-5 4-2 1-9-1-4-5v-9l5-6z" fill="#EFEFEE"/>
<path transform="translate(627,214)" d="m0 0 8 2 3 4 1 9-5 6-2 1h-6l-2-1v9h-4v-25l1-3z" fill="#F4F4F3"/>
<path transform="translate(13,139)" d="m0 0 6 1 5 5 1 7-5 8-4 2-6-1-5-5-1-2v-8l5-6z" fill="#F0F0EF"/>
<path transform="translate(863,215)" d="m0 0h12l4 4 1 3v8l-5 5-2 1h-8v8h-3v-28z" fill="#F4F4F3"/>
<path transform="translate(887,43)" d="m0 0 8 1 4 4 1 8-3 6-5 3h-6l-6-5-1-2v-8l5-6z" fill="#F1F0F0"/>
<path transform="translate(1708,206)" d="m0 0 2 1v27l-3 2h-9l-5-4-1-2v-8l6-7h8l1-8z" fill="#F1F1F0"/>
<path transform="translate(1773,619)" d="m0 0h9l1 1v34l-1 1h-8l-1-5z" fill="#FDFDFC"/>
<path transform="translate(1773,541)" d="m0 0 1 2h9v35l-10 1z" fill="#FDFDFC"/>
<path transform="translate(588,43)" d="m0 0h6l5 4 1 2v7l-4 8-8 1-6-3-2-4v-7l4-6z" fill="#F2F2F1"/>
<path transform="translate(667,43)" d="m0 0h6l5 3 2 4-1 6-3 7-3 2-9-1-4-4-1-5 2-7 4-4z" fill="#EEEDED"/>
<path transform="translate(547,43)" d="m0 0h8l5 6 1 4-4 9-4 3-8-1-4-4-1-9 4-6z" fill="#F3F3F2"/>
<path transform="translate(708,35)" d="m0 0 5 2 1 5 8 2 3 3 2 10-1 7h-6l-1-1-1-12-4-1-1 14h-6l-1-28z" fill="#F1F0F0"/>
<path transform="translate(22,498)" d="m0 0h10l5 3 3 9-1 3-4 1h-18l-3-3 1-8 4-4z" fill="#F2F2F2"/>
<path transform="translate(1786,207)" d="m0 0 3 1-1 27-2 1h-10l-4-4-2-8 3-6 6-4 5 1z" fill="#F3F3F2"/>
<path transform="translate(918,43)" d="m0 0h7l5 3 2 4v13l-6 2h-8l-5-5v-6l2-3 1-7z" fill="#F3F3F2"/>
<path transform="translate(783,214)" d="m0 0 6 1 4 4 1 2v10l-1 3-4 2h-8l-5-5-1-2v-7l3-5z" fill="#E2E2E2"/>
<path transform="translate(570,214)" d="m0 0 7 2 4 5v10l-5 5h-9l-4-5-1-2v-7l4-6z" fill="#EFEFEE"/>
<path transform="translate(1801,214)" d="m0 0 7 2 3 3 1 3v8l-4 5-7 2-7-6-1-9 4-6z" fill="#F2F2F1"/>
<path transform="translate(717,215)" d="m0 0h8l4 4 1 2v9l-4 5-2 1h-7l-4-4-1-2v-10z" fill="#F3F2F2"/>
<path transform="translate(651,214)" d="m0 0 7 2 2 3 1 12-4 5h-9l-4-4-1-3v-7l4-6z" fill="#ECEBEB"/>
<path transform="translate(890,215)" d="m0 0h7l5 5v11l-5 5h-7l-4-4-2-8 3-7z" fill="#F2F1F1"/>
<path transform="translate(1117,207)" d="m0 0h11l4 4 1 4-3 5-2 4 7 11h-3l-8-10-5-3-1 14h-3v-13l1-15z" fill="#212228"/>
<path transform="translate(1092,207)" d="m0 0h13l3 2 1 3v7l-5 5h-9v12h-3z" fill="#212228"/>
<path transform="translate(791,43)" d="m0 0h7l5 3 2 5v11l-1 2-12 1-5-3v-9l3-3 3 2 2 6 2-1-2-3v-5h-5v-5z" fill="#F3F2F2"/>
<path transform="translate(689,43)" d="m0 0h7l5 3 2 5v11l-2 2h-5l-1-12-1-2h-3l-1 13-1 1h-5l-1-2v-14l2-4z" fill="#EEEEED"/>
<path transform="translate(189,269)" d="m0 0h1v240h-1v-76h-7l-1-3h8v-79h-6v-2h6z" fill="#C4C3C4"/>
<path transform="translate(671,722)" d="m0 0h4l3 5 1 5-8 11-7 1-5-2-2-3 1-4 5-3 7-6z" fill="#EDECEB"/>
<path transform="translate(1959,481)" d="m0 0h2l-2 6h5l1-5h3v7l9-3 6 1v-5l2-1 1 7h5l-1 6h-2v2l-4 3h-2v-2h-2l1-8-8 1-2 7-7 1-2-8-1 2h-2v5l-3 1 1-10-1-2z" fill="#ADADAE"/>
<path transform="translate(2e3 516)" d="m0 0h1v7l9-3 5 4-1 6-4 3h-3l-2-3-5 2-1 1h-5l-5-4 1-4 5-5 3-1z" fill="#212228"/>
<path transform="translate(33,427)" d="m0 0 6 2-1 7-5 4 5 4-1 2-6-5h-4l-1 3-5 4h-5l-1-7 2-3 3-1v-2l-4-4 1-2 5 4v2l6 1v-5z" fill="#7D7D81"/>
<path transform="translate(845,43)" d="m0 0h8l2 2v4h-4l1 2 4 2 1 2v6l-7 4-7-1-1-5 7-1v-2l-5-1-2-2v-7z" fill="#E8E8E8"/>
<path transform="translate(115,496)" d="m0 0 6 2 2 3v10l-3 6-6 1-4-5-1-3v-7l4-6z" fill="#F0F0EF"/>
<path transform="translate(567,43)" d="m0 0h7l2 1v5l-3 1-1 2 6 1v7l-4 4-8 1-3-4 1-3 5 1v-3l-5-2-1-1v-6z" fill="#EAE9E9"/>
<path transform="translate(115,334)" d="m0 0 5 1 3 4v10l-3 5-1 1h-6l-3-4-1-10 4-6z" fill="#F2F2F1"/>
<path transform="translate(113,416)" d="m0 0h7l3 4v10l-3 5-1 1h-6l-4-6v-8z" fill="#F4F4F3"/>
<path transform="translate(866,43)" d="m0 0h7l3 3v4h-10v7l5 1h5v5l-4 2-9-1-4-4v-10l5-6z" fill="#eee"/>
<path transform="translate(1739,488)" d="m0 0 7 1 1 1v17l-2 2h-7l-3-5v-13h2v-2z" fill="#ECEBEB"/>
<path transform="translate(1694,605)" d="m0 0 7 1 2 3v12l-3 4-6 1-3-3-1-3v-9l3-5z" fill="#F0F0EF"/>
<path transform="translate(1693,372)" d="m0 0h7l3 3v13l-4 4h-6l-3-5 1-13z" fill="#F0F0EF"/>
<path transform="translate(1741,604)" d="m0 0 5 2 1 1v16l-1 2-7 1-3-2-1-3v-10l3-6z" fill="#EDECEC"/>
<path transform="translate(113,578)" d="m0 0h6l4 5v8l-2 5-2 2h-6l-3-4-1-7 2-7z" fill="#F1F1F0"/>
<path transform="translate(1739,566)" d="m0 0 7 1 1 1v17l-4 2h-5l-3-5v-10l2-5z" fill="#EDEDEC"/>
<path transform="translate(1740,527)" d="m0 0 6 1 1 1v17l-3 2-7-1-2-4v-11l2-4z" fill="#eee"/>
<path transform="translate(1739,449)" d="m0 0h5l3 2v17l-2 2h-7l-2-1-1-4v-9l2-5z" fill="#EEEEED"/>
<path transform="translate(1738,372)" d="m0 0h7l2 1v18l-2 1h-8l-2-4v-11z" fill="#EEEEED"/>
<path transform="translate(1741,410)" d="m0 0 6 2v18l-2 1h-7l-2-1-1-4v-9l3-6z" fill="#EDEDED"/>
<path transform="translate(114,658)" d="m0 0 5 2 3 4v9l-5 5-7-1-2-4v-8l3-5z" fill="#EFEFEE"/>
<path transform="translate(1694,566)" d="m0 0 7 1 2 3v12l-5 5-5-1-2-3v-14z" fill="#F0EFEF"/>
<path transform="translate(1694,527)" d="m0 0 7 1 2 3v12l-4 5h-5l-3-3v-14z" fill="#EFEEEE"/>
<path transform="translate(1694,645)" d="m0 0 7 1 3 6v6l-4 6-6 1-3-3-1-10 3-6z" fill="#F0EFEF"/>
<path transform="translate(1724,604)" d="m0 0 5 2 2 3v12l-5 5-5-1-2-3v-12l3-5z" fill="#EFEFEE"/>
<path transform="translate(1694,488)" d="m0 0 6 1 3 3v13l-5 4-6-1-1-2-1-10 3-7z" fill="#EEEEED"/>
<path transform="translate(1694,449)" d="m0 0 6 1 3 3v12l-4 5h-6l-2-3v-14z" fill="#F2F2F2"/>
<path transform="translate(1695,410)" d="m0 0 5 1 3 3v12l-4 5h-6l-2-3-1-7 2-9z" fill="#F1F1F1"/>
<path transform="translate(1722,566)" d="m0 0 7 1 2 3v13l-4 4h-5l-3-4v-12z" fill="#F2F2F1"/>
<path transform="translate(1723,488)" d="m0 0 6 1 2 3v12l-3 5h-6l-3-3v-12l3-5z" fill="#F1F1F0"/>
<path transform="translate(1723,449)" d="m0 0 6 1 2 3v12l-3 5-5 1-4-5v-11l3-5z" fill="#F0F0EF"/>
<path transform="translate(1723,410)" d="m0 0 5 1 3 3 1 5-2 10-2 2h-7l-2-4v-12z" fill="#F0EFEF"/>
<path transform="translate(1723,254)" d="m0 0 6 2 2 3v9l-2 5-4 2-5-1-2-4v-9l3-5z" fill="#F0EFEF"/>
<path transform="translate(114,255)" d="m0 0 7 1 2 4v7l-2 5-5 3-5-3-2-4v-7l3-5z" fill="#F0F0EF"/>
<path transform="translate(498,207)" d="m0 0h11l6 4 2 4v13l-4 5-6 3h-9l-1-1v-27zm4 2-2 2v20l2 3 6-1 5-5 2-4-1-9-4-5-2-1z" fill="#212228"/>
<path transform="translate(1723,527)" d="m0 0 6 1 2 3v12l-2 4-6 1-4-4v-11l2-5z" fill="#EFEFEE"/>
<path transform="translate(1738,255)" d="m0 0h7l2 2v16l-4 2-6-1-2-4v-9l2-5z" fill="#EEEEED"/>
<path transform="translate(1677,255)" d="m0 0h6l3 3v13l-3 3h-7l-3-6v-7z" fill="#F0F0EF"/>
<path transform="translate(141,659)" d="m0 0h6l4 5v9l-5 5h-5l-3-4v-12z" fill="#EFEFEE"/>
<path transform="translate(1722,372)" d="m0 0h6l3 4v12l-3 4h-6l-3-4v-11z" fill="#F1F0F0"/>
<path transform="translate(1014,345)" d="m0 0h7l2 1-3 9-3 7-2 1 3-9 2-7-11 1-1 2-1 11-3 3-2-1 3-4v-9l-1-1-21-1v15h-2v-14h-8l-3 3-4 10-1-3 4-12-2-1z" fill="#CAC9CA"/>
<path transform="translate(1755,214)" d="m0 0 6 2 3 3 1 15-5 2h-8l-3-4 1-5 4-4h7l-2-5h-8l1-3z" fill="#212228"/>
<path transform="translate(818,215)" d="m0 0h7l4 3 2 12-1 5-3 1h-9l-3-2-1-6 5-4 4-1 4 1-2-6-8-1z" fill="#212228"/>
<path transform="translate(1737,294)" d="m0 0h8l2 2v16l-2 1h-8l-2-5v-8z" fill="#EFEEEE"/>
<path transform="translate(158,659)" d="m0 0h7l2 4v11l-3 4h-6l-2-4h-2v-9h2l1-5z" fill="#ECEBEB"/>
<path transform="translate(1737,333)" d="m0 0h8l2 2v16l-2 1h-7l-3-5v-9z" fill="#F0EFEF"/>
<path transform="translate(1723,645)" d="m0 0 6 1 3 6-1 8-2 4-7 1-3-4v-11z" fill="#EFEFEF"/>
<path transform="translate(1695,293)" d="m0 0 6 2 2 2v12l-4 4h-6l-2-3v-13z" fill="#F0F0F0"/>
<path transform="translate(1695,254)" d="m0 0 6 2 2 2v12l-3 4h-7l-2-3v-13z" fill="#F0F0EF"/>
<path transform="translate(97,255)" d="m0 0h5l3 4 1 7-3 7-1 1h-7l-3-7 1-7z" fill="#EEEEED"/>
<path transform="translate(29,140)" d="m0 0h8l3 5h-7l2 2 4 1 1 2v8l-4 3h-9l-1-4 6-2h2l-3-3-5-4v-5z" fill="#ECEBEB"/>
<path transform="translate(1740,645)" d="m0 0 6 1 1 1v16l-3 2h-5l-3-3-1-3v-7l3-6z" fill="#EDEDED"/>
<path transform="translate(1693,333)" d="m0 0h7l3 3v12l-4 4h-6l-2-3v-12z" fill="#F2F2F2"/>
<path transform="translate(1724,293)" d="m0 0 5 2 2 2v12l-3 4h-7l-2-3v-10l2-5z" fill="#EFEFEE"/>
<path transform="translate(1722,333)" d="m0 0h7l2 3v12l-3 4h-7l-2-4 1-13z" fill="#F0EFEF"/>
<path transform="translate(98,334)" d="m0 0 5 1 2 3v15l-2 2h-8l-2-2 1-6 1-9z" fill="#212228"/>
<path transform="translate(756,207)" d="m0 0h9l3 3h-11l-5 4-2 5 1 8 2 4 5 2 7-1 1-4-2-5-1-2 5 1 1 2v8l-5 4-6 1-6-3-4-5-2-5 1-8 4-6z" fill="#212228"/>
<path transform="translate(904,36)" d="m0 0h5l1 1 1 28-6-1-1-2-1-16v-9z" fill="#EDEDED"/>
<path transform="translate(627,214)" d="m0 0 8 2 3 4 1 9-5 6-2 1h-6l-2-1v9h-4v-25l1-3zm-2 3-2 2v13l2 2 7-1 4-4v-7l-5-5z" fill="#212228"/>
<path transform="translate(863,215)" d="m0 0h12l4 4 1 3v8l-5 5-2 1h-8v8h-3v-28zm3 2-1 1v15l3 2 8-4 2-3-1-7-4-4z" fill="#212228"/>
<path transform="translate(1708,206)" d="m0 0 2 1v27l-3 2h-9l-5-4-1-2v-8l6-7h8l1-8zm-9 11-4 5-1 6 5 6h6l2-2v-13l-1-2z" fill="#212228"/>
<path transform="translate(1140,207)" d="m0 0h17l-1 2h-13v10l9-1 1 3h-9v11l1 1h11v3h-15l-1-1z" fill="#212228"/>
<path transform="translate(1027,726)" d="m0 0 4 1 2 3-1 7-7 5-6-1-3-4 6-7z" fill="#F1F1F0"/>
<path transform="translate(1831,701)" d="m0 0h4v2l4 1 6 9-1 6-5 5-3 2h-6l-7-6v-2l3-1 2 5 7 1 5-3 2-3-1-6-4-1-3 3-5 3-2-1 7-8h2l-1-2h-5l-6 5-2 4h-3l1-4 2-3 5-3z" fill="#8D898B"/>
<path transform="translate(99,416)" d="m0 0h3v7l3 3v7l-2 3h-7l-3-4 1-9z" fill="#46474C"/>
<path transform="translate(494,727)" d="m0 0h3l-1 4-4 8-1 1v6l5 2 3 6-1 2-10-10-4-9-7-1v-2l11-3v-2z" fill="#DDDCDC"/>
<path transform="translate(1924,435)" d="m0 0 7 1 3 11v3l-6 4-5-1-1-1 1-15z" fill="#E7E6E6"/>
<path transform="translate(1786,207)" d="m0 0 3 1-1 27-2 1h-10l-4-4-2-8 3-6 6-4 5 1zm-6 9-6 4-2 6 2 5 4 3h6l2-6-1-11z" fill="#232228"/>
<path transform="translate(645,338)" d="m0 0h6l2 5v9l-3 4-6-1-1-2v-10z" fill="#EFEFEE"/>
<path transform="translate(1371,349)" d="m0 0h8l2 16-1 1h-7l-3-1z" fill="#918E90"/>
<path transform="translate(1157,355)" d="m0 0h6l2 4-1 8-4 5h-2l1-5h-2l-1-4-4 2-2 6-2 2-4-1 5-4 3-6z" fill="#E7E7E6"/>
<path transform="translate(1801,214)" d="m0 0 7 2 3 3 1 3v8l-4 5-7 2-7-6-1-9 4-6zm-1 3-4 4v7l3 5 5 1 5-4 1-5-2-6-3-2z" fill="#212228"/>
<path transform="translate(314,728)" d="m0 0h5l-3 9-5 9h-2l-1-7-5-1h-4l1-3 6-1v-2h3v-2z" fill="#9F9D9F"/>
<path transform="translate(1095,209)" d="m0 0h8l3 2 1 6-1 3-5 2h-6l-1-2v-8z" fill="#F0F0EF"/>
<path transform="translate(691,206)" d="m0 0h1v10l3-1h7l4 4 1 7v8l-4 1v-12l-2-6-7 1-1 3v15l-3-1v-28z" fill="#212228"/>
<path transform="translate(143,336)" d="m0 0 5 2 2 3v8l-4 4-5-1-2-8 2-6z" fill="#F1F0F0"/>
<path transform="translate(267,327)" d="m0 0h2l3 9v2h2v2l5 1 1 3 2 1-10-2-6 1-4-4 2-9z" fill="#EDEDEC"/>
<path transform="translate(783,214)" d="m0 0 6 1 4 4 1 5-1 2h-11l1-2h9l-4-6-4-1-4 3-1 9 4 4 9-1v2l-3 2h-8l-5-5-1-2v-7l3-5z" fill="#212228"/>
<path transform="translate(142,499)" d="m0 0h5l3 4v8l-4 4-5-1-1-2v-10z" fill="#F0F0EF"/>
<path transform="translate(1841,214)" d="m0 0 5 1 4 4 1 4-2 3-7 1-2-1 1-3 7 1-2-5-2-2-5 1-3 6 1 8 8 1h3l-1 3h-9l-5-5-1-8 4-6z" fill="#212228"/>
<path transform="translate(570,214)" d="m0 0 7 2 3 4v5l-1 1h-10l-1-2h10l-2-5-7-1h-2l-2 8 3 6 7 1 3 1-2 2h-9l-4-5-1-2v-7l4-6z" fill="#202228"/>
<path transform="translate(530,214)" d="m0 0 5 1 5 5-1 5-1 1h-9l1-2h8l-3-6-5-1-3 3-1 9 4 4 8-1-2 4h-8l-5-5-1-2v-7l3-5z" fill="#212228"/>
<path transform="translate(1967,440)" d="m0 0 5 1v3h4l1-3h5l3 3v6l-5 4-4-2-4-5-2-5-6 3 2-4z" fill="#404046"/>
<path transform="translate(158,580)" d="m0 0h5l2 3v11l-2 2h-5l-4-9 2-1z" fill="#EEEEED"/>
<path transform="translate(143,256)" d="m0 0 4 2 3 4v6l-3 4-4 1-3-3-1-7 2-5z" fill="#F0F0EF"/>
<path transform="translate(999,215)" d="m0 0h7l3 2 1 3v16h-4v-18h-7l-1 1-1 17h-3v-14l1-5z" fill="#212228"/>
<path transform="translate(717,215)" d="m0 0h8l4 4 1 2v9l-4 5-2 1h-7l-4-4-1-2v-10zm2 2-5 4v9l4 4 7-1 3-5-1-8-4-3z" fill="#212228"/>
<path transform="translate(1032,215)" d="m0 0h7l4 3 2 17-4 1h-9l-3-3-1-5 4-4h6l-4 3h-3l1 5 2 1h6l1-6-2-9-9-1z" fill="#212228"/>
<path transform="translate(671,215)" d="m0 0h7l4 3 1 5v12l-3 1-1-16-1-2h-7l-1 1v17h-3l-1-5v-12l2-3z" fill="#212228"/>
<path transform="translate(590,215)" d="m0 0h8l1 3 3 1v16l-4 1-1-19-7 1-1 2v16l-3-1v-18z" fill="#212228"/>
<path transform="translate(651,214)" d="m0 0 7 2 2 3v6l-1 1h-8v-2h6v-5l-2-1h-6l-2 3v9l3 3h6l4-1-3 4h-9l-4-4-1-3v-7l4-6z" fill="#212228"/>
<path transform="translate(142,578)" d="m0 0 7 1 6 8 3 8h5l1-1v-11l-1-2h-6l1-3h6l3 5v12l-3 3h-7l-3-6v-4h-3l-4-7h-5l-2 1zm14 3 1 3-1 2h-2v-3h2z" fill="#212228"/>
<path transform="translate(890,215)" d="m0 0h7l5 5v11l-5 5h-7l-4-4-2-8 3-7zm2 2-5 3v10l4 4 6-1 3-3v-9l-3-3z" fill="#212228"/>
<path transform="translate(1682,490)" d="m0 0h3l1 11-2 6h-5l-5-3 1-4 4-6h2z" fill="#E6E6E6"/>
<path transform="translate(1991,391)" d="m0 0h2l1 8h2l-2 6-2 3-4-1v-10h-5l1 11-3-1v-10l1-3 6 1 2 1z" fill="#9D9B9D"/>
<path transform="translate(523,43)" d="m0 0h5l3 3v8l-5 5-4-2v-13z" fill="#0B66A2"/>
<path transform="translate(825,718)" d="m0 0h20l-5 5-2 6-6 3h-2l2-6-1-4-5-2z" fill="#717175"/>
<path transform="translate(1119,209)" d="m0 0h8l3 3-1 6-3 3-7-1-1-1v-9z" fill="#EFEFEF"/>
<path transform="translate(144,132)" d="m0 0h9l2 2-1 6-5 3-6-2-2-3 1-5z" fill="#F2D47C"/>
<path transform="translate(1959,481)" d="m0 0h2l-2 6h5l1-5h3v7l3 1-2 1-1 5h2l1-2v3l-7 1-2-8-1 2h-2v5l-3 1 1-10-1-2z" fill="#B6B5B6"/>
<path transform="translate(1679,214)" d="m0 0 5 2 2 2 1 17-3 1-1-18h-10v18h-3v-19z" fill="#212228"/>
<path transform="translate(472,717)" d="m0 0h15l-2 4-9 10-3-1 1-1v-5l-4-4z" fill="#E2E2E2"/>
<path transform="translate(158,418)" d="m0 0h5l2 3v11l-2 2h-5l-1-2v-13z" fill="#F3F3F2"/>
<path transform="translate(1551,362)" d="m0 0 6 1 2 3-1 7-3 5h-3l-4-11z" fill="#252228"/>
<path transform="translate(2011,520)" d="m0 0 5 2 2 2-1 6-4 3h-3l-2-3h-3v-7z" fill="#E8E8E8"/>
<path transform="translate(1947,484)" d="m0 0 2 1v2h2v2h2v6l-5 4-5-2-1-7 2-4z" fill="#393A3F"/>
<path transform="translate(969,215)" d="m0 0 3 1-1 19-3 1h-9l-3-2-1-3-1-14 3-1 1 13 1 4h7l2-1z" fill="#212228"/>
<path transform="translate(1191,718)" d="m0 0h5v2l4-2h3l-1 3-3 1-3 6-6 5h-2l2-4-1-5-4-3v-2z" fill="#6D6D71"/>
<path transform="translate(1502,363)" d="m0 0h2v5l3 1 2 6-3 4-7-1-1-6z" fill="#414349"/>
<path transform="translate(1960,520)" d="m0 0 6 1 5 4 1-4 6-1-2 4-1 5 2 3v3h-3l-2-4-4-1-3-7-5 1-1 7-3 1 2-10z" fill="#7E7E81"/>
<path transform="translate(933,207)" d="m0 0h24l-1 2-9 1v26h-4l1-27h-10z" fill="#212228"/>
<path transform="translate(1830,704)" d="m0 0h5l1 3h-2l-2 4-7 7h-2l-1 2-3-6h3l2-5z" fill="#EDEDED"/>
<path transform="translate(22,498)" d="m0 0h10l5 3 3 9-1 3-4 1h-18l-3-3 1-8 4-4zm2 1-6 3-2 3v6l5 2h9l7-1 1-3-3-7-6-3z" fill="#212228"/>
<path transform="translate(572,53)" d="m0 0h6v7l-4 4-8 1-3-4 1-3h2v2l4-1z" fill="#F1F1F0"/>
<path transform="translate(845,43)" d="m0 0h8l1 5h-4l-1 7h-5l-2-2v-7z" fill="#F2F2F1"/>
<path transform="translate(189,429)" d="m0 0h1v80h-1v-76h-7l-1-3z" fill="#C3C2C3"/>
<path transform="translate(1564,726)" d="m0 0 6 2 4 3v3h-2l-3-4-7-1-6 5-2 6 4 4h5l5-5-1 5-5 4-5-1-5-5-1-4 6-9z" fill="#212228"/>
<path transform="translate(182,509)" d="m0 0h7l1 1v80h-1v-78h-6z" fill="#BEBDBE"/>
<path transform="translate(1924,481)" d="m0 0 6 1 3 5-1 4-6 1-2 6-2-1 1-15z" fill="#A7A7A9"/>
<path transform="translate(1694,449)" d="m0 0 6 1 3 3v12l-4 5h-6l-2-3v-14zm0 2-1 2v14l5 1 3-3v-11l-3-3z" fill="#212228"/>
<path transform="translate(1734,215)" d="m0 0h8l1 4-2-1h-6l-4 4v7l4 4h6l3-1-2 4h-8l-5-4-2-5v-5l5-6z" fill="#212228"/>
<path transform="translate(1027,723)" d="m0 0 4 1 4 6v6l-4 5-7 3-5-1-5-4v-4l8-7h2v2l-6 5-1 3 4 3 6-1 5-5-1-7-4-3z" fill="#212228"/>
<path transform="translate(1947,441)" d="m0 0 5 1 1 1v8l-4 3-5-1v-7z" fill="#A8A8AA"/>
<path transform="translate(530,216)" d="m0 0 5 1 3 4v3l-8 1h9v2h-11l-2-1-1 3 1-9z" fill="#E4E4E4"/>
<path transform="translate(1375,717)" d="m0 0h6v4h-4l-2 4-7 8h-2l1-4 3-3 4-3 1-3-7 2-2 1-3-2v-2z" fill="#88888B"/>
<path transform="translate(115,496)" d="m0 0 6 2 2 3v10l-3 6-6 1-4-5-1-3v-7l4-6zm0 2-4 4v9l2 4 4 1 3-2 1-3v-9l-4-4z" fill="#212228"/>
<path transform="translate(113,416)" d="m0 0h7l3 4v10l-3 5-1 1h-6l-4-6v-8zm0 2-2 2v10l3 4 5-1 2-3v-9l-2-3z" fill="#212228"/>
<path transform="translate(1341,347)" d="m0 0h14l10 1-1 3-1 13-2 1-1-14-20-1z" fill="#CAC9CA"/>
<path transform="translate(98,336)" d="m0 0 4 1 1 6v9l-7 1-1-4 2-4 2-1-2-2v-5z" fill="#E6E6E6"/>
<path transform="translate(115,334)" d="m0 0 5 1 3 4v10l-3 5-1 1h-6l-3-4-1-10 4-6zm-1 2-3 4v9l3 4 5-1 2-3v-9l-4-4z" fill="#212228"/>
<path transform="translate(1693,372)" d="m0 0h7l3 3v13l-4 4h-6l-3-5 1-13zm2 1-3 2v12l4 4 5-4v-11l-4-3z" fill="#212228"/>
<path transform="translate(1861,214)" d="m0 0 5 2v3l-7-2 1 6 8 5-1 7-3 1h-7l-1-3 9-1-2-5-5-2-2-6z" fill="#212228"/>
<path transform="translate(142,497)" d="m0 0 7 1 3 5-1 10-5 5-5-1-3-6v-8zm0 2-2 3v10l2 3 6-1 2-3v-8l-3-4z" fill="#212228"/>
<path transform="translate(2027,486)" d="m0 0 4 1 2 2-1 8-2 2-5-1-2-3 2-7z" fill="#24252B"/>
<path transform="translate(1040,221)" d="m0 0h1l1 8-2 5h-6l-3-2v-5l5-2-4-2h8z" fill="#E8E8E8"/>
<path transform="translate(1947,519)" d="m0 0h5l1 2v8l-3 4-4-1 4-4v-5l-4-2v9l-2-2v-6h-3l-2 9-3-1 4-10z" fill="#57575B"/>
<path transform="translate(1724,604)" d="m0 0 5 2 2 3v12l-5 5-5-1-2-3v-12l3-5zm0 2-3 3v12l2 3 4-1 3-5-1-9-3-3z" fill="#212228"/>
<path transform="translate(1722,566)" d="m0 0 7 1 2 3v13l-4 4h-5l-3-4v-12zm0 2-1 2v13l2 2 4-1 2-2 1-10-4-4z" fill="#212228"/>
<path transform="translate(1723,449)" d="m0 0 6 1 2 3v12l-3 5-5 1-4-5v-11l3-5zm0 2-2 3v12l3 3 4-2 2-7-1-6-2-3z" fill="#212228"/>
<path transform="translate(1723,410)" d="m0 0 5 1 3 3 1 5-2 10-2 2h-7l-2-4v-12zm0 2-2 3v12l1 2h5l2-2 1-10-4-5z" fill="#212228"/>
<path transform="translate(1723,254)" d="m0 0 6 2 2 3v9l-2 5-4 2-5-1-2-4v-9l3-5zm0 2-3 4v8l2 5 5-1 2-3v-10l-3-3z" fill="#212228"/>
<path transform="translate(114,658)" d="m0 0 5 2 3 4v9l-5 5-7-1-2-4v-8l3-5zm-2 3-2 3v9l3 3 5-1 2-2v-9l-3-3z" fill="#212228"/>
<path transform="translate(1694,605)" d="m0 0 7 1 2 3v12l-3 4-6 1-3-3-1-3v-9l3-5zm0 2-2 2-1 7 2 7 4 1 4-4v-10l-2-3z" fill="#212228"/>
<path transform="translate(1694,566)" d="m0 0 7 1 2 3v12l-5 5-5-1-2-3v-14zm0 2-2 2v10l3 5 5-2 1-2v-10l-2-3z" fill="#212228"/>
<path transform="translate(1723,488)" d="m0 0 6 1 2 3v12l-3 5h-6l-3-3v-12l3-5zm-1 2-1 3v12l1 2 5-1 3-5v-7l-3-4z" fill="#212228"/>
<path transform="translate(1677,333)" d="m0 0h7l3 4-1 2-4-4h-5v5h5l1 3-4-1-2-1v8l4 1 2-2 1-4h2l-1 7-1 1h-9l-1-5 1-11z" fill="#212228"/>
<path transform="translate(1557,718)" d="m0 0 3 1-5 5-6 7-5 2 2-5 5-3v-3l-5-1-1 4-1-3-4-2 4-1z" fill="#212228"/>
<path transform="translate(113,578)" d="m0 0h6l4 5v8l-2 5-2 2h-6l-3-4-1-7 2-7zm0 2-2 4v7l3 5 5-1 2-3v-9l-2-3z" fill="#212228"/>
<path transform="translate(1723,527)" d="m0 0 6 1 2 3v12l-2 4-6 1-4-4v-11l2-5zm0 2-2 3v11l2 3 4-1 2-2 1-10-3-4z" fill="#212228"/>
<path transform="translate(1695,293)" d="m0 0 6 2 2 2v12l-4 4h-6l-2-3v-13zm-1 2-1 1-1 11 2 4 5-1 2-2v-10l-2-3z" fill="#212228"/>
<path transform="translate(144,415)" d="m0 0 5 2 3 5v3h-2l-3-6-4-1-2 2v11l1 2 5-1 3-6h1l-1 7-3 3h-6l-3-5v-10l4-5z" fill="#212228"/>
<path transform="translate(144,334)" d="m0 0 5 2 3 5-1 10-3 4h-7l-3-6v-9l4-5zm-1 2-3 3-1 6 2 7 5 1 4-4v-8l-5-5z" fill="#212228"/>
<path transform="translate(1693,333)" d="m0 0h7l3 3v12l-4 4h-6l-2-3v-12zm2 1-2 1v14l4 2 4-4v-10l-3-3z" fill="#212228"/>
<path transform="translate(1660,207)" d="m0 0h3v29l-4-1z" fill="#212228"/>
<path transform="translate(1694,527)" d="m0 0 7 1 2 3v12l-4 5h-5l-3-3v-14zm0 2-2 3v10l1 3 5 1 3-3v-11l-2-3z" fill="#212228"/>
<path transform="translate(1695,410)" d="m0 0 5 1 3 3v12l-4 5h-6l-2-3-1-7 2-9zm0 2-3 3v11l4 4 5-5v-10l-3-3z" fill="#212228"/>
<path transform="translate(1722,372)" d="m0 0h6l3 4v12l-3 4h-6l-3-4v-11zm0 2-1 2v12l3 3 5-3 1-10-3-4z" fill="#212228"/>
<path transform="translate(551,214)" d="m0 0 4 2 1 3-6-1-1 4 7 5 1 6-3 3h-7l-1-3h8l-2-6-6-4v-5z" fill="#212228"/>
<path transform="translate(650,718)" d="m0 0h17l1 2-6 2-2 6-5 4h-2l1-4 5-4 1-4h-5l-1 4-1-2-3-1z" fill="#212228"/>
<path transform="translate(1009,717)" d="m0 0 7 1h7l-5 5-7 9h-2l1-5 3-3h2l1-4-8 3-3-2v-3z" fill="#212228"/>
<path transform="translate(1675,566)" d="m0 0h7l3 4-1 5-6 10 8-2v3l-2 1h-9l1-5 6-9-1-4h-7z" fill="#212228"/>
<path transform="translate(158,416)" d="m0 0h6l3 4v12l-3 4h-6l-3-4-2-7h2l3 9 6-2v-11l-1-2h-5l-2 4-1-2z" fill="#212228"/>
<path transform="translate(1694,488)" d="m0 0 6 1 3 3v13l-5 4-6-1-1-2-1-10 3-7zm0 2-2 3v10l2 4 5-1 2-2v-11l-2-3z" fill="#212228"/>
<path transform="translate(1739,449)" d="m0 0h5l3 2v17l-2 2h-7l-2-1-1-4v-9l2-5zm0 2-2 2v12l2 3h5l2-2v-12l-2-3z" fill="#212228"/>
<path transform="translate(17,438)" d="m0 0h8l1 6-5 4h-5l-1-7z" fill="#AFAFB0"/>
<path transform="translate(1678,293)" d="m0 0 5 1 3 5-2 9-4 5h-3l6-12-1-5-5-1 1 9h-3l-1-7z" fill="#212228"/>
<path transform="translate(114,255)" d="m0 0 7 1 2 4v7l-2 5-5 3-5-3-2-4v-7l3-5zm0 1-2 2-2 8 4 6 4 1 3-5v-8l-4-4z" fill="#212228"/>
<path transform="translate(1694,645)" d="m0 0 7 1 3 6v6l-4 6-6 1-3-3-1-10 3-6zm0 2-2 3v10l3 3 5-1 2-3v-8l-3-4z" fill="#252228"/>
<path transform="translate(1739,566)" d="m0 0 7 1 1 1v17l-4 2h-5l-3-5v-10l2-5zm0 2-2 2-1 8 2 5 2 2 5-1 1-1v-12l-2-3z" fill="#212228"/>
<path transform="translate(1695,254)" d="m0 0 6 2 2 2v12l-3 4h-7l-2-3v-13zm0 2-3 4 1 11 2 2 4-1 2-3v-10l-3-3z" fill="#212228"/>
<path transform="translate(1741,410)" d="m0 0 6 2v18l-2 1h-7l-2-1-1-4v-9l3-6zm-1 2-3 3-1 7 3 7h5l2-2v-11l-1-3z" fill="#212228"/>
<path transform="translate(1738,372)" d="m0 0h7l2 1v18l-2 1h-8l-2-4v-11zm0 2-2 5 2 10 5 2 3-2v-13l-1-2z" fill="#212228"/>
<path transform="translate(837,207)" d="m0 0h3l1 19 2 8 1 2-5-1-2-15z" fill="#212228"/>
<path transform="translate(1741,604)" d="m0 0 5 2 1 1v16l-1 2-7 1-3-2-1-3v-10l3-6zm-1 2-4 5 1 10 3 3 5-1 1-1v-12l-4-4z" fill="#212228"/>
<path transform="translate(1740,527)" d="m0 0 6 1 1 1v17l-3 2-7-1-2-4v-11l2-4zm-1 2-3 4v7l3 5 5 1 2-2v-12l-3-3z" fill="#212228"/>
<path transform="translate(1680,411)" d="m0 0h2v2l-2 1-3 8v6l6-1v-5l-1-3-2-1h4l2 8-3 5h-6l-3-3v-7l3-7z" fill="#212228"/>
<path transform="translate(1724,293)" d="m0 0 5 2 2 2v12l-3 4h-7l-2-3v-10l2-5zm-1 2-2 3v11l2 3 5-2 2-5v-6l-3-4z" fill="#212228"/>
<path transform="translate(780,226)" d="m0 0 12 1v4l-1 2-8 1-4-3z" fill="#F6F5F5"/>
<path transform="translate(915,215)" d="m0 0h5v2l-8 2v17l-4-1v-18z" fill="#232228"/>
<path transform="translate(1837,705)" d="m0 0 4 2 4 6-1 6-5 5-3 2h-6l-7-6v-2l3-1 2 5 7 1 5-3 2-3-1-6-4-4z" fill="#252228"/>
<path transform="translate(160,496)" d="m0 0 5 2 2 3v13l-2 3-7 1-5-10 2-1 3 7 6 1v-14l-2-2-5 1 1-3z" fill="#212228"/>
<path transform="translate(1677,449)" d="m0 0h7l1 2-7 1v4l7 3 1 7-4 4-6 1-1-3 8-1v-6l-3-2-5-1v-7z" fill="#212228"/>
<path transform="translate(1738,255)" d="m0 0h7l2 2v16l-4 2-6-1-2-4v-9l2-5zm2 1-3 3v11l3 3 5-1 1-1v-12l-3-3z" fill="#212228"/>
<path transform="translate(1723,645)" d="m0 0 6 1 3 6-1 8-2 4-7 1-3-4v-11zm0 2-2 2-1 8 2 6 6-1 2-3v-8l-3-4z" fill="#212228"/>
<path transform="translate(142,255)" d="m0 0h5l4 5v9l-4 5h-7l-2-4v-11zm1 1-3 3-1 7 2 6 3 1 4-2 2-3v-6l-5-6z" fill="#212228"/>
<path transform="translate(97,255)" d="m0 0h5l3 4 1 7-3 7-1 1h-7l-3-7 1-7zm1 1-3 3-1 7 1 6 4 1 3-1 2-4v-7l-2-4z" fill="#212228"/>
<path transform="translate(13,144)" d="m0 0 4 1 1 1v8l-2 2-5-1-1-2v-6z" fill="#0B66A2"/>
<path transform="translate(1737,333)" d="m0 0h8l2 2v16l-2 1h-7l-3-5v-9zm3 1-3 2v12l4 3 4-1 1-2v-11l-1-2z" fill="#212228"/>
<path transform="translate(823,225)" d="m0 0 5 1v6l-3 2-7-1-1-4 3-3z" fill="#ECECEB"/>
<path transform="translate(1739,488)" d="m0 0 7 1 1 1v17l-2 2h-7l-3-5v-9h1l2 10 1 1h6v-13l-1-2h-5l-3 3 1-5z" fill="#212228"/>
<path transform="translate(1722,333)" d="m0 0h7l2 3v12l-3 4h-7l-2-4 1-13zm1 1-2 3v11l2 3 4-1 2-2 1-9-2-4z" fill="#212228"/>
<path transform="translate(1737,294)" d="m0 0h8l2 2v16l-2 1h-8l-2-5v-8zm2 1-2 2v12l4 3 5-2v-11l-3-4z" fill="#212228"/>
<path transform="translate(14,521)" d="m0 0h26l-1 3h-25z" fill="#8B8B8E"/>
<path transform="translate(1832,269)" d="m0 0h7v10h-6l-2-2v-7z" fill="#FDFDFC"/>
<path transform="translate(849,725)" d="m0 0 7 2 3 3v2l-4-2-2-2-7 1-3 3h-2v6l5 6v2l-5-2-3-5 1-7 8-6z" fill="#1F2731"/>
<path transform="translate(1207,723)" d="m0 0 4 2 5 5-1 2-7-6-4 6-5 2-1 6 5 5-4-1-5-5 1-4 11-10z" fill="#212228"/>
<path transform="translate(141,659)" d="m0 0h6l4 5v9l-5 5h-5l-3-4v-12zm1 1-3 4v7l3 5 6-1 2-3v-6l-5-6z" fill="#212228"/>
<path transform="translate(159,334)" d="m0 0 5 1 3 4v13l-3 3h-6l-3-4-2-6 3 1 3 6 5-1 1-8-2-6-6 1z" fill="#212228"/>
<path transform="translate(1679,417)" d="m0 0h5l-2 2 2 3v5l-3 2-5-1 1-9z" fill="#EBEAEA"/>
<path transform="translate(1740,645)" d="m0 0 6 1 1 1v16l-3 2h-5l-3-3-1-3v-7l3-6zm-1 2-3 7 2 7 2 2h5l1-1v-13l-2-2z" fill="#212228"/>
<path transform="translate(98,423)" d="m0 0 4 1 2 6-3 4h-5l-1-7z" fill="#EEEDED"/>
<path transform="translate(1677,255)" d="m0 0h6l3 3v13l-3 3h-7l-3-6v-7zm2 1-4 4-1 5 3 7 4 1 4-4v-9l-4-4z" fill="#212228"/>
<path transform="translate(158,659)" d="m0 0h7l2 4v11l-3 4h-6l-3-4 1-4 3 5h5l1-3v-7l-2-4h-4l-2 7h-2l1-6z" fill="#212228"/>
<path transform="translate(102,498)" d="m0 0h2l1 17-4 1v-3l2-10-5 5-2 5h-3l1-4z" fill="#212228"/>
<path transform="translate(1758,225)" d="m0 0h4v7l-5 2-5-1v-5z" fill="#EFEFEE"/>
<path transform="translate(1718,214)" d="m0 0 3 1 1 21-2 1-2-1-1-21z" fill="#212228"/>
<path transform="translate(158,255)" d="m0 0h6l3 4v12l-5 4-5-1-3-8h2l3 6h5v-13l-2-2-5 1z" fill="#212228"/>
<path transform="translate(604,215)" d="m0 0h6l3 2 2 17v2l-4-1v-9l-1-7-1-1h-7z" fill="#212228"/>
<path transform="translate(494,727)" d="m0 0h3l-1 4-4 8-1 1v6l5 2 3 6-1 2-10-10-1-3 2-5 3-3 1-7z" fill="#212228"/>
<path transform="translate(306,733)" d="m0 0h3l1 4 4 1-2 7-3 1-1-7-5-1h-4l1-3z" fill="#5F5F63"/>
<path transform="translate(645,339)" d="m0 0 3 1-2 1v12h5l-1-12-1-2 3 1 1 3v9l-3 4-6-1-1-2v-10z" fill="#212228"/>
<path transform="translate(94,578)" d="m0 0h7l3 3-1 7-5 9h7v1h-11l2-5 5-7v-5l-7-1z" fill="#212228"/>
<path transform="translate(738,49)" d="m0 0 5 1v7l-2 2-5-1-1-1v-5z" fill="#0B66A2"/>
<path transform="translate(1674,371)" d="m0 0h11l1 3-6 15-4 3 1-4 5-11 1-4h-9z" fill="#212228"/>
<path transform="translate(307,716)" d="m0 0 3 1-2 4-5 3 1-4-7 2h-4v-4z" fill="#6C6C70"/>
<path transform="translate(2e3 521)" d="m0 0 2 2-1 6-5 3-3-3 1-5 2-2z" fill="#EDEDEC"/>
<path transform="translate(807,215)" d="m0 0 5 1v1l-9 1v18h-3v-20z" fill="#212228"/>
<path transform="translate(444,312)" d="m0 0 4 1 2 2v8l-3 6h-3l2-5 1-1 1-8-4 1-1 6-2-1 1-7z" fill="#434348"/>
<path transform="translate(1824,215)" d="m0 0h5v2l-8 3v16h-3v-19z" fill="#212228"/>
<path transform="translate(1013,215)" d="m0 0 8 1 1 2 1 18h-3l-1-16-1-2-7-1z" fill="#212228"/>
<path transform="translate(1363,700)" d="m0 0 5 5v4l-6 4-2 5-2 2-7-1-3-3v-2l4 2 6 1 2-7 5-2-1-5z" fill="#212228"/>
<path transform="translate(1e3 700)" d="m0 0 3 1 2 3-1 5-5 4-2 5-2 2-6-1-3-3v-2l4 2 6 1 2-7 4-2-1-5z" fill="#212228"/>
<path transform="translate(30,474)" d="m0 0 8 1 1 1v10l-6 5-7 2-3-2 9-2 4-4 1-4-1-4h-7l-3 1 1-3z" fill="#212228"/>
<path transform="translate(30,421)" d="m0 0h7l9 4-2 1-2-1h-23l-4 1 4-4z" fill="#5C5C60"/>
<path transform="translate(1967,391)" d="m0 0 2 1-6 5-4 10-4 1-4-2v-11l2 1 1 9 4-1 2-7 3-3z" fill="#212228"/>
<path transform="translate(1677,341)" d="m0 0 6 2v-2h2l1 3h-2l-1 5-2 2-4-1-1-4z" fill="#E6E5E5"/>
<path transform="translate(1821,659)" d="m0 0h13l8 1v2l-15 1-11-1v-1l5-1z" fill="#FDFDFC"/>
<path transform="translate(590,48)" d="m0 0 3 1 2 9-1 2h-5l-1-2v-7z" fill="#CAC9CA"/>
<path transform="translate(650,700)" d="m0 0 5 5-1 4-5 5-5 6-5-1-4-3v-2l4 2 5 1 4-6 4-4z" fill="#212228"/>
<path transform="translate(986,215)" d="m0 0 7 1v1l-9 1-2 1-1 17h-2v-19z" fill="#212228"/>
<path transform="translate(672,723)" d="m0 0 4 2 3 3-1 6-7 9-7 1-2-1 1-2 7-1 6-8-1-5-3-2z" fill="#212228"/>
<path transform="translate(267,327)" d="m0 0h2l4 11v3h-2v-4h-2l-1-5-2-1-1 10h5v2l-4 1-4-4 2-9z" fill="#404146"/>
<path transform="translate(887,50)" d="m0 0h5l1 1v6l-3 2-4-1-1-4z" fill="#0B66A2"/>
<path transform="translate(645,49)" d="m0 0 4 1 2 2-1 6-5 2-1-1v-9z" fill="#0B66A2"/>
<path transform="translate(827,700)" d="m0 0 4 2 1 6-5 4-5 8-5-1-4-3v-2l4 2 3 1 9-9v-4z" fill="#212228"/>
<path transform="translate(550,48)" d="m0 0h2v2h2v9h-6v-9h2z" fill="#6A99B3"/>
<path transform="translate(774,49)" d="m0 0 3 1 1 7-2 2-5-1-1-5z" fill="#0B66A2"/>
<path transform="translate(838,329)" d="m0 0h3v2l3 1v10l-3 4-3-1 4-5v-8l-4 1-1 7-2-3v-6z" fill="#212228"/>
<path transform="translate(834,720)" d="m0 0 4 2 1 4-1 3-6 3h-2l2-6 1-5z" fill="#929294"/>
<path transform="translate(1984,481)" d="m0 0h1l1 7h5l-1 6h-2v2l-5 2 1-2v-8l-1-1v-5z" fill="#67676B"/>
<path transform="translate(1770,645)" d="m0 0h1v12l16 1v1l-24 1-1-3 7-1z" fill="#B7B6B8"/>
<path transform="translate(139,582)" d="m0 0h1l1 11 1 2 6-1 2-5h1v5l-4 4h-6l-3-5v-10z" fill="#212228"/>
<path transform="translate(142,578)" d="m0 0 7 1 6 8 1 6-2-1v-4h-3l-4-7h-5l-2 1zm14 3 1 3-1 2h-2v-3h2z" fill="#34343A"/>
<path transform="translate(1945,488)" d="m0 0 6 1v6l-3 2h-3l-1-7z" fill="#ECECEB"/>
<path transform="translate(1979,442)" d="m0 0 4 2v6l-4 2-3-3v-5z" fill="#EAEAEA"/>
<path transform="translate(1157,355)" d="m0 0h6l2 4-1 8-4 5h-2l2-5 2-3v-6l-5 1-2 1z" fill="#37383D"/>
<path transform="translate(1541,700)" d="m0 0 4 2 1 7-4 4h-2l-2 5-1-4v-2-3h7l-2-6z" fill="#48484D"/>
<path transform="translate(1960,520)" d="m0 0 6 1 5 6v2l-3 1-3-7-5 1-1 7-3 1 2-10z" fill="#20232A"/>
<path transform="translate(2033,396)" d="m0 0 2 1-1 8h4v-9l3 1-1 9-7 1-2-2 1-8z" fill="#242228"/>
<path transform="translate(81,256)" d="m0 0h4v17h-3v-14h-2z" fill="#212228"/>
<path transform="translate(1841,214)" d="m0 0 5 1 4 4 1 4-2 3-7 1-2-1 1-3 7 1-2-5-2-2h-4z" fill="#242228"/>
<path transform="translate(1385,723)" d="m0 0 4 2 6 7-2 1-5-5-3-2-2 4 2 4 2 1-1 2-6-5-2-1z" fill="#212228"/>
<path transform="translate(296,705)" d="m0 0 1 3-5 4-5 8-5-1-4-2 1-3 4 3 4-1 3-5z" fill="#20232A"/>
<path transform="translate(1771,636)" d="m0 0h1l1 19 2 1 8 1v1h-13v-21z" fill="#292328"/>
<path transform="translate(1958,436)" d="m0 0h2l1 10 3-1 1 5-7 2z" fill="#505055"/>
<path transform="translate(1946,521)" d="m0 0 4 1 1 1v5l-4 4 3 2-5-1z" fill="#E7E6E6"/>
<path transform="translate(1924,436)" d="m0 0 4 1-2 1-1 13h5l-2 3-5-1-1-1 1-15z" fill="#212228"/>
<path transform="translate(1501,369)" d="m0 0 4 1v2h2l-1 5-4 1-3-3z" fill="#EDECEC"/>
<path transform="translate(916,48)" d="m0 0 8 1-2 1 2 4v5l-4-1v-6l-5 1z" fill="#9AB0C0"/>
<path transform="translate(1376,718)" d="m0 0h4l-1 3h-2l-2 4-7 8h-2l1-4 8-8z" fill="#212228"/>
<path transform="translate(1682,490)" d="m0 0h3l-2 5-4 5-1 4-3 1-1-4 5-7h2z" fill="#212228"/>
<path transform="translate(1662,256)" d="m0 0 4 1v16l-4 1 1-15h-3v-2z" fill="#212228"/>
<path transform="translate(1679,606)" d="m0 0h3v19l-3-1 1-15h-3v-2z" fill="#212228"/>
<path transform="translate(2036,394)" d="m0 0 4 2h-2v9l-4 1-1-2 1-9z" fill="#E1E0E0"/>
<path transform="translate(1771,659)" d="m0 0h17l2 3h-15z" fill="#FDFDFC"/>
<path transform="translate(1551,363)" d="m0 0 5 1 1 7-4 2-2-5z" fill="#F1F1F0"/>
<path transform="translate(1372,351)" d="m0 0h1v12h4v-9h1v10l3-2-1 4h-7l-3-1 1-2z" fill="#CAC9CA"/>
<path transform="translate(660,338)" d="m0 0 4 2-1 16h-5v-3l3-6v-6z" fill="#212228"/>
<path transform="translate(484,717)" d="m0 0h3l-2 4-9 10-3-1 3-5 5-3 1-4z" fill="#212228"/>
<path transform="translate(1831,701)" d="m0 0h3v2l-9 6-3 5h-3l1-4 2-3 5-3z" fill="#212228"/>
<path transform="translate(302,327)" d="m0 0h5l1 2-2 11-3 4-3-1 4-6 1-9z" fill="#212228"/>
<path transform="translate(483,315)" d="m0 0h4v8l1 6-4 1v-9zm-1 4m-1 1m-1 1v3l-2-1z" fill="#3B3C41"/>
<path transform="translate(1373,720)" d="m0 0h2l-1 4-4 3h-2l-1 3-1-2v-5l1-2z" fill="#E1E1E1"/>
<path transform="translate(2028,487)" d="m0 0 3 2v6l-1 2h-4v-9z" fill="#E5E4E4"/>
<path transform="translate(33,427)" d="m0 0 6 2-1 7-4 2v-2h2v-6l-5 1-2 4 1-5z" fill="#686468"/>
<path transform="translate(1194,355)" d="m0 0 5 1 2 5-4 11-5 1 6-10-1-5z" fill="#212228"/>
<path transform="translate(103,346)" d="m0 0h2v7l-2 2h-8l-2-2 1-4 2 3h7z" fill="#20232A"/>
<path transform="translate(1763,267)" d="m0 0h6l2 1v22h-1l-1-20h-6z" fill="#B9B9BA"/>
<path transform="translate(112,256)" d="m0 0 2 1-3 9 4 6 2 1-1 2-5-3-2-4v-7z" fill="#39393F"/>
<path transform="translate(1691,652)" d="m0 0h1l1 10h7l2-4 1 2-5 5-5-1-2-2-1-9z" fill="#212228"/>
<path transform="translate(1544,719)" d="m0 0h11l-2 5-2-2-5-1-1 4-1-3-4-2z" fill="#6D6D70"/>
<path transform="translate(1822,692)" d="m0 0h2l-1 5-1 2-6 3-4 4h-2l1-3 8-7z" fill="#212228"/>
<path transform="translate(1682,534)" d="m0 0 1 3 2 4-1 6-7 1-3-3h7l1-4v-3h-2z" fill="#212228"/>
<path transform="translate(2011,520)" d="m0 0 5 2 2 2-1 6-4 3h-3v-2l5-3-1-5-6 1z" fill="#262228"/>
<path transform="translate(1948,520)" d="m0 0 5 1v8l-3 4-4-1 4-4v-5z" fill="#212228"/>
<path transform="translate(251,326)" d="m0 0h6l1 3-4 11-2 3-2-1 4-9 1-6z" fill="#212228"/>
<path transform="translate(789,45)" d="m0 0 1 4h5l3 9h-4l-3-7h-2z" fill="#719BB7"/>
<path transform="translate(1817,687)" d="m0 0 3 1-10 9-4 5h-2l2-4z" fill="#212228"/>
<path transform="translate(1940,434)" d="m0 0 2 1-1 6v10l-1 2-3-1 1-2v-10z" fill="#212228"/>
<path transform="translate(650,718)" d="m0 0h12l-2 4v-2h-5l-1 4-1-2-3-1z" fill="#77777B"/>
<path transform="translate(1927,517)" d="m0 0h2l-1 4-4 9-3 2 1-4 4-10z" fill="#20232B"/>
<path transform="translate(1959,481)" d="m0 0h2l-1 6-1 10-3 1 1-10-1-2z" fill="#20232B"/>
<path transform="translate(670,726)" d="m0 0 1 2-3 5-5 2-4 4v-3l9-9z" fill="#262228"/>
<path transform="translate(849,725)" d="m0 0 7 2 3 3v2l-4-2-2-2-7 1-3 3-2-1 4-4z" fill="#262228"/>
<path transform="translate(655,720)" d="m0 0h5l-1 5-3 3h-2l-1-4z" fill="#E6E5E5"/>
<path transform="translate(1009,717)" d="m0 0 8 1v2l-7 2h-3l-2-1v-3z" fill="#88888B"/>
<path transform="translate(102,424)" d="m0 0 3 2v7l-2 3h-7l-1-2 7-2 1-3z" fill="#212228"/>
<path transform="translate(625,338)" d="m0 0 2 1 1 9-1 7-5 1 3-7v-7l-1-3z" fill="#212228"/>
<path transform="translate(1208,725)" d="m0 0v3l-2 5 4 2-1 2h-3l-1-2-5-2 4-1 2-5z" fill="#AFAFB1"/>
<path transform="translate(472,717)" d="m0 0h7l-1 4-6 1-2-3z" fill="#868689"/>
<path transform="translate(1985,520)" d="m0 0 4 1-1 10-2 2h-3l2-4 1-1v-5z" fill="#212228"/>
<path transform="translate(980,347)" d="m0 0 4 1-1 15h-2z" fill="#212228"/>
<path transform="translate(470,700)" d="m0 0 3 1 2 4-1 4-5 2-1 5-2-1 1-5 5-2-1-5z" fill="#20242B"/>
<path transform="translate(1822,697)" d="m0 0 1 4v5l2 1-3 1-3 3v-12h3z" fill="#CAC9CA"/>
<path transform="translate(1972,392)" d="m0 0 3 1 2 7-1 6-3 1v-11z" fill="#212228"/>
<path transform="translate(292,328)" d="m0 0h2l-1 8-3 7-4 1 5-9z" fill="#212228"/>
<path transform="translate(789,330)" d="m0 0h4l-1 6-4 12h-2l3-11 1-5z" fill="#212228"/>
<path transform="translate(432,312)" d="m0 0 4 1-4 16-3 1 3-10z" fill="#212228"/>
<path transform="translate(156,258)" d="m0 0h1v10l-1-2-5 2v-8l2 3 1-2h2z" fill="#ACABAD"/>
<path transform="translate(1546,721)" d="m0 0h5l1 4-6 3-1-3z" fill="#EAEAE9"/>
<path transform="translate(2e3 486)" d="m0 0 7 2 1 2v7l-3 1v-9l-6-1z" fill="#212228"/>
<path transform="translate(2023,393)" d="m0 0h3l1 14h-3z" fill="#212228"/>
<path transform="translate(1360,349)" d="m0 0h3v15l-2 1z" fill="#212228"/>
<path transform="translate(1323,348)" d="m0 0h6l-6 16-2-1 3-8 1-6z" fill="#212228"/>
<path transform="translate(156,338)" d="m0 0h1v11l-3-3-2 1-1 2 1-7 4-2z" fill="#ABAAAC"/>
<path transform="translate(611,338)" d="m0 0h3l-2 11-3 6h-2l2-5 2-8z" fill="#212228"/>
<path transform="translate(580,221)" d="m0 0h1v10l-3 3-2-2 2-1 1-4h-10v-1l10-1z" fill="#C4C3C5"/>
<path transform="translate(658,735)" d="m0 0 2 1h1l3 4 4 2h-5-4l-2-3z" fill="#CAC9CA"/>
<path transform="translate(1012,720)" d="m0 0h4l-1 4-5 3-2-4z" fill="#E6E6E6"/>
<path transform="translate(1975,486)" d="m0 0 4 2-7 3-2 5h-2v-6l4-2z" fill="#1F262F"/>
<path transform="translate(33,430)" d="m0 0h3v6l-6 1 1-6z" fill="#F9F9F8"/>
<path transform="translate(154,421)" d="m0 0 3 1v8l-2-3v-2l-2 1-2 4-2-1v-7l1 3 4-1z" fill="#CAC9CA"/>
<path transform="translate(1515,362)" d="m0 0h5l1 3-5 13h-2l3-9 1-6z" fill="#212228"/>
<path transform="translate(1019,345)" d="m0 0 4 1-3 9-3 7-2 1 3-9z" fill="#212228"/>
<path transform="translate(15,475)" d="m0 0 3 1-1 6 3 5 3 4-4-2-4-5-1-7z" fill="#212228"/>
<path transform="translate(2e3 394)" d="m0 0h2v14l-3-1z" fill="#212228"/>
<path transform="translate(1550,363)" d="m0 0h1l3 12-2 1-4-8z" fill="#838286"/>
<path transform="translate(967,346)" d="m0 0h5l-3 9-3 7-1-3 4-12z" fill="#212228"/>
<path transform="translate(590,48)" d="m0 0 2 1v4l-2 1-1 3h3l1-2v4l-5-1v-7z" fill="#0A689F"/>
<path transform="translate(1837,705)" d="m0 0 4 2 4 6v4h-2l-3-7-3-3z" fill="#212228"/>
<path transform="translate(1770,616)" d="m0 0 1 2-1 3h-7l-1-4h7z" fill="#ADADAF"/>
<path transform="translate(156,500)" d="m0 0h1l-1 9-1-2-2 3-2 1 1-7 4-2z" fill="#A8A7A9"/>
<path transform="translate(1992,486)" d="m0 0 4 2-1 11h-3l1-10z" fill="#212228"/>
<path transform="translate(1923,482)" d="m0 0h1l2 10-2 6-2-1z" fill="#212228"/>
<path transform="translate(1929,437)" d="m0 0h2l3 10v3l-4 1 1-4-1-1z" fill="#212228"/>
<path transform="translate(1146,356)" d="m0 0 1 3-4 12-2-2 2-9z" fill="#212228"/>
<path transform="translate(517,747)" d="m0 0h2l-2 4-8 7-2-1 5-5z" fill="#212228"/>
<path transform="translate(1769,537)" d="m0 0h1v8l-7-1v-4l6 1z" fill="#B2B1B3"/>
<path transform="translate(1965,523)" d="m0 0 3 3 1 5-6 1z" fill="#B8B7B9"/>
<path transform="translate(1684,494)" d="m0 0h1l1 7-2 6h-4l2-4z" fill="#212228"/>
<path transform="translate(1947,441)" d="m0 0 5 1-4 1-2 9-2-1 1-7z" fill="#20242C"/>
<path transform="translate(2008,396)" d="m0 0 2 2v9l-3-1v-9z" fill="#20242C"/>
<path transform="translate(1982,395)" d="m0 0 3 1-1 1v11l-3-1v-10z" fill="#212228"/>
<path transform="translate(804,336)" d="m0 0 3 3-1 7-1 2-6 1v-2l6-2z" fill="#212228"/>
<path transform="translate(488,730)" d="m0 0 2 1-3 2-2 3h-8v-2z" fill="#212228"/>
<path transform="translate(1944,395)" d="m0 0 3 1v10l-5 1 2-1z" fill="#212228"/>
<path transform="translate(1154,360)" d="m0 0v3l-5 9-5 1 6-7 3-5z" fill="#282328"/>
<path transform="translate(1e3 347)" d="m0 0h3l-1 14-3 3-2-1 3-4z" fill="#212228"/>
<path transform="translate(273,338)" d="m0 0 1 2 5 1 1 3 2 1-10-2h-2l1-3 2 1z" fill="#CAC9CA"/>
<path transform="translate(98,336)" d="m0 0 4 1v5h-5v-5z" fill="#F0F0EF"/>
<path transform="translate(501,758)" d="m0 0 5 1 6 8v2h-2l-7-8z" fill="#212228"/>
<path transform="translate(2008,521)" d="m0 0 2 1v3l-1 5h-4v-7z" fill="#AAAAAC"/>
<path transform="translate(2015,484)" d="m0 0h3v15h-2v-12h-2z" fill="#212228"/>
<path transform="translate(838,329)" d="m0 0h3v3l-3 1-1 7-2-3v-6z" fill="#78787C"/>
<path transform="translate(1772,266)" d="m0 0h13l-4 2-10 1-2-2z" fill="#20242C"/>
<path transform="translate(670,48)" d="m0 0 2 1v4l-2 1-1 4 4-1-1 2h-4v-8z" fill="#0B66A2"/>
<path transform="translate(1023,718)" d="m0 0 7 4-3 1v2l2 1-5 3 1-7-5-1z" fill="#B6B5B7"/>
<path transform="translate(1763,501)" d="m0 0h7l-1 4h-6z" fill="#969598"/>
</svg>
