<?xml version="1.0" encoding="UTF-8"?>
<svg version="1.1" viewBox="0 0 1600 1264" width="1000" height="790" xmlns="http://www.w3.org/2000/svg">
<path transform="translate(681,164)" d="m0 0 14 8 9 5-7 16-2 8v12l1 7 16-3 29-4 32-3 40-2h38l48 2 51 5 29 4 49 9 30 7 38 10 26 8 25 10 22 10 2 1 18-7 9-2h6v-11h-11l-2-2-1-9v-11l2-5h52l2 2v23l-2 2h-12l1 10 18 4 18 8 14 9 6 5 4-2 3-3h2v-2l-4-2-2-4 3-4 6 1 10 9 4 5 1 4-4 4-4-1-5-4-1 3h-2v2l-2 1 2 4 10 14 7 14 2 5v4l-13 1-7 3-4 6-2 6 4 2 5 3v-7l5-5 10-1 13-7h2l4 10 3 5 1 5 12 4 10 5v-2l5-3 7 1 17 17 1 2v6l-3 4 1 6 5 12 1 5 8 1 4 5v26l-4 5-4 2 14 17 10 13 13 18 14 21 14 23 9 16 14 27 12 27 13 35 9 29 7 28 6 32 4 31 2 25 1 20v41l-3 38-5 35-1 5v8l1 4h-4l-2 10h11l10 19 7 7 5 3 7 2-4 3-4 1-13 1-8 4-14 12-10 7-5 3-12 30-8 17-1 6 5 22 3 11v12l-2 7-4-2-11-8-12-6-6 9-1 3 7 1 16 7 11 7 7 6 26 1 9 3 5 4 5 10v10l-5 10-9 6-6 1h-23l-2 5-9 13-7 7-5 10-6 16-5 5-4 3h-2l-2-12-5-10-4-3-6-1-54 5-19 1-7 7-8 7-17 14-10 8h-634l-22-8-21-5-28-4-37-3-55-4-42-5-36-7-29-8-27-10-22-10-20-11-6 1-15 8-19 7-21 4h-30l-16-4-25-9-11-3h-10l-21 7h-10l-2-1 1-3 8-4 2-2-24-1-8-2-7-6-4-8v-12l4-8 6-5 8-3h39v-10l8-4 25-5 10-4 5-4v-6l-8-3h-11l-14 3-12 5h-2v-19l1-15 3-3 11-5 12-3 17-1 2 1-6-11-5-9v-2l-15 5-7 4-2-1 7-11 8-9-1-5-13-27-13-32-4-11v-2l-28-4-11-4-6-4-4-6-3-6-5-5-23-12-12-7-10-9-6-9-3-7v-9l3 1 4 8 6 3h18l56-8-1-9-6-39-2-19-2-44v-19l2-28 4-30 6-31 7-27 12-36 11-27 12-25 11-21 14-23 12-18 14-19 13-16 9-11 10-11-1-3-8-7-7-9-4-7v-2l17-8h3l6 10 8 6 4 1 14-14 8-7 12-11 11-9 14-11 20-15 8-5 2-15 4-10 7-8 7-5 9-3 3 10-10 5-7 8-4 10 16-10 22-13 25-14 22-11 37-16 40-15 29-9 44-12 20-4h3l-2-6-1-13 1-11 5-16 7-14zm533 90v10h8l1-1v-9zm313 710-2 6 8-1-1-3zm-1299 167-7 3-8 7v2h14l6-5 2-3-1-4z" fill="#EEF7FA"/>
<path transform="translate(610,422)" d="m0 0h10l12 4 17 10 15 9 9 6v5l-7 10-6 7-5 2v22l3 49 48-11 24-10h15l16 8 10 7 4 2h14l15-4 11-5 9-6 9-11 9-10 10-8 10-5 3-1 14-1 6-2 2-7-7 3-6-1-6-5-1-8 4-7 4-3 9 1v-10l4-8 9-6 6-2h12l14 5 11 10 2 4-1 20-3 6 1 13h-5l-2 5-1 1v6l3 9-1 16-6 21-7 18h21l27 1 10-3 7-3 7 1 6 4 4 1 2 5 3 5v2l23-1 23-54 6-15 5-1-1 8-9 21-15 36-5 10-2 2h-74v-3l-8 3 144 1 4 5-2 6-2 1-467 1-8 4-5 6-2 11 3 9 7 6 6 2 466 1 3 3 1 4-5 5-110 1 3 5-1 5-4 4h-14v5l-320 1v3h320v8h-321l1 3 320 1v7l-320 1v3h294l26 1v6l-1 1h-320v4h321v7l-23 1h-297v3l320 1v7l-320 1v2l320 1v7l-1 1h-320v4h320l1 4h9l7 2 3 5-1 5-3 3 1 1h50l7 1-9-30-6-22v-8l1-1h81v2l3 1 4 12 6 22 1 1 10-1 1-10 6-37 5-19 5-10 2-2-1-7 6-4 7 1 6 2 4-5 2-6v-11l-4-11-5-4-11 5h-14l-5-1v-9l6-9 10-8 10-4 11-1 6 4 7 2 4 6 1 3v7l-1 5 5 20 7 14 15 5 10 6 10 9 6 9 4 13 2 17 1 16 1 30 3 14v30l-5 15-6 8-5 5-10 3-26 4-15 1 1 8-2 6h-2l1-9-3-5-1-1h-9l-8 3h-8l-4-1h-12l-8 3-5 5-1 9 4 6 5 3v2l15 2-1 2-11 1-7 24-10 33-6 24-4 6-3 2h-13l-16-5-6-4v-6l3-9 6-28 4-20 4-24 3-12-399 1-15 3-16 8-11 9-9 12-6 13-3 13v16l3 14 5 11 7 11 8 8 14 9 10 4 16 3h350v-2l6-4 9-12 3-7h6l11 7 3 2 6-1 6-7 3 4 2 11-3 7-2 3h192l5 3 3 6-1 8-4 4h28l32 1 5 3 4 5 1 7-3 6h-2v2l-4 2-31 1h-917l-10 1-11 6-9 8-7 14-1 5v14l3 9 1 4h2l7 9 12 7 10 3h947l7 2v2l4 2 2 5-1 7h-2l-2 5h172l9 3 5 4 5 10v10l-5 10-9 6-6 1h-23l-2 5-9 13-7 7-5 10-6 16-5 5-4 3h-2l-2-12-5-10-4-3-6-1-54 5-19 1-7 7-8 7-17 14-10 8h-634l-22-8-21-5-28-4-37-3-55-4-42-5-36-7-29-8-27-10-22-10-20-11-6 1-15 8-19 7-21 4h-30l-16-4-25-9-11-3h-10l-21 7h-10l-2-1 1-3 8-4 2-2-24-1-8-2-7-6-4-8v-12l4-8 6-5 8-3 178-1-12-5-11-8-6-6v-2h-2l-5-7-6-14-4-19 1-11 3-12 8-15 9-11 6-5 6-4 23-1 3-6-1-7-3-5v-3l3-1 17-2 16-5 3-3 10-3 1-11 4-16-19-2-10-3-2-2v-7l6-8 7-5 3-1h9l38 8 11-1 13-2h21l3-8 4-2h10l8-27 4-6h46l1-5 9-17 9-10 5-5 8-7 15-9 14-5 10-2-47-1-11-2-6-3-9-8-5-10-1-5v-10l4-11 8-9 10-5 3-1 32-1-10-4-7-6-6-10-2-6v-63l4-9 6-8 9-6 5-2-11-6-5-4-6-10-2-7v-10l4-11 6-8 10-6 8-2h6l-2-10 6-41 2-16 1-35-2-13-2-7-3-1v-4h-2v-2l-4-2-5-5-4-2-1-2-16-5-3-2v-6l8-6 6-1h10l5 1v-5z" fill="#E31119"/>
<path transform="translate(1253,622)" d="m0 0 5 1 6 10 5 13 9 8 15 9 14 9 10 9 11 14 8 16 5 13 9-2 17-5h2l-2 5-7 14-4 14-1 8v9l2 13 3 6 5 3 6-2 3-9 1-41 2-19 1-4 15-4 5-1h16l30 7h11l7-3 4-11 3 1 3 9 7 42 13 55 1 5v25l-5 3-11 5-15 5-19 4-9 1h-48l-11 3 2 5 10 5 18 5 20 3h25l16-3 15-6 4-1-7 14-7 11-4 5-1 3h12l13 3 14 6 8 5v1l-19 2-12 4-10 6-4 5v4l4 2 10-1 15-6 12-4 14-1 5 5 6 14v2h-4l-2 10h11l10 19 7 7 5 3 7 2-4 3-4 1-13 1-8 4-14 12-10 7-5 3-12 30-8 17-1 6 5 22 3 11v12l-2 7-4-2-11-8-12-6-6 9-1 3 7 1 16 7 11 7 7 6 16 1v1h-123l-39-1 2-5h2v-7l-3-6-2-1v-2l-7-1h-947l-12-4-11-7-6-7v-2h-2l-5-15v-14l4-10 6-9 8-7 12-6 9-1h925l23-1 4-1v-2h2l2-9-3-7-4-3-2-1-32-1h-29l4-5 1-8-3-6-4-2-192-1 2-4 2-7-3-12h-2l-5 6-6 1-14-9-6-1-1 5-7 10-4 5-4 3h-2v2l-3 1h-347l-16-3-12-5-13-9-8-8-8-12-5-13-2-11v-16l4-16 7-13 8-10 11-9 16-8 15-3h399l-1 7-4 21-3 18-6 28-4 17-1 2v6l10 5 11 3h13l5-5 3-9 5-21 13-43 3-10 1-1 11-1-12-2-2-1v-2l-5-2-4-5-1-2 1-9 5-5 5-3 4-1h12l4 1h8l8-3h9l4 4 1 7-2 5h2l1-10v-4l36-5 12-3 5-3 6-7 4-8 3-10v-30l-3-14-1-30-2-25-3-16-6-12-7-7 1-4 7-6 11-14 5-12v-10zm274 342-2 6 8-1-1-3z" fill="#7ECBC1"/>
<path transform="translate(610,422)" d="m0 0h10l12 4 17 10 15 9 9 6v5l-7 10-6 7-5 2v22l3 49 48-11 24-10h15l16 8 10 7 4 2h14l15-4 11-5 9-6 9-11 9-10 10-8 10-5 3-1 14-1 6-2 2-7-7 3-6-1-6-5-1-8 4-7 4-3 9 1v-10l4-8 9-6 6-2h12l14 5 11 10 2 4-1 20-3 6 1 13h-5l-2 5-1 1v6l3 9-1 16-6 21-7 18h21l27 1 10-3 7-3 7 1 6 4 4 1 2 5 3 5v2l23-1 23-54 6-15 5-1-1 8-9 21-15 36-5 10-2 2h-74v-3l-8 3 144 1 4 5-2 6-2 1-467 1-8 4-5 6-2 11 3 9 7 6 6 2 466 1 3 3 1 4-5 5-110 1 3 5-1 5-4 4h-14v5l-320 1v3h320v8h-321l1 3 320 1v7l-320 1v3h294l26 1v6l-1 1h-320v4h321v7l-23 1h-297v3l320 1v7l-320 1v2l320 1v7l-1 1h-320v4h320l1 4h9l7 2 3 5-1 5-3 3 1 1h50l7 1-9-30-6-22v-8l1-1h81v2l3 1 4 12 6 22 1 1 10-1 1-10 6-37 5-19 5-10 2-2-1-7 6-4 7 1 6 2 4-5 2-6v-11l-4-11-5-4-11 5h-14l-5-1v-9l6-9 10-8 10-4 11-1 6 4 7 2 4 6 1 3v7l-1 5 5 20 7 14 15 5 10 6 10 9 6 9 4 13 2 17 1 16 1 30 3 14v30l-5 15-6 8-5 5-10 3-26 4-15 1 1 8-2 6h-2l1-9-3-5-1-1h-9l-8 3h-8l-4-1h-12l-8 3-5 5-1 9 4 6 5 3v2l15 2-1 2-11 1-7 24-10 33-6 24-4 6-3 2h-13l-16-5-6-4v-6l3-9 6-28 4-20 4-24 3-12-399 1-15 3-16 8-11 9-9 12-6 13-3 13v16l3 14 5 11 7 11 8 8 14 9 10 4 16 3h350v-2l6-4 9-12 3-7h6l11 7 3 2 6-1 6-7 3 4 2 11-3 7-2 3h192l5 3 3 6-1 8-5 5-229 1-6 1h-10l-6-1-414-1-16-4-11-4-12-7-11-9-4-4-2-10-4-6-4-3v-2l7-2 4-11 15-54v-2h-80l-3 5-15 54-2 7h-2l1-8 7-25 9-29 4-6h46l1-5 9-17 9-10 5-5 8-7 15-9 14-5 10-2-47-1-11-2-6-3-9-8-5-10-1-5v-10l4-11 8-9 10-5 3-1 32-1-10-4-7-6-6-10-2-6v-63l4-9 6-8 9-6 5-2-11-6-5-4-6-10-2-7v-10l4-11 6-8 10-6 8-2h6l-2-10 6-41 2-16 1-35-2-13-2-7-3-1v-4h-2v-2l-4-2-5-5-4-2-1-2-16-5-3-2v-6l8-6 6-1h10l5 1v-5z" fill="#7563A6"/>
<path transform="translate(693,856)" d="m0 0h399l-1 7-4 21-3 18-6 28-4 17-1 2v6l10 5 11 3h13l5-5 3-9 5-21 13-43 3-10 1-1 11-1 14-6 8-4 11-4 3-3h93l-2 1v22l-1 11 13-1-5 6-6 5v7l8-8 7-6h3l3 10-1 14-1 7v21l6 12 7 7 11 7 12 5 3 1-3 12-2 24-9-3-23-7-5-8-4-2-192-1 2-4 2-7-3-12h-2l-5 6-6 1-14-9-6-1-1 5-7 10-4 5-4 3h-2v2l-3 1h-347l-16-3-12-5-13-9-8-8-8-12-5-13-2-11v-16l4-16 7-13 8-10 11-9 16-8z" fill="#C8BAEE"/>
<path transform="translate(610,422)" d="m0 0h10l12 4 17 10 15 9 9 6v5l-7 10-6 7-5 2v22l3 49 48-11 24-10h15l16 8 10 7 4 2h14l15-4 11-5 9-6 9-11 9-10 10-8 10-5 3-1 14-1 6-2 2-7-7 3-6-1-6-5-1-8 4-7 4-3 9 1v-10l4-8 9-6 6-2h12l14 5 11 10 2 4-1 20-3 6 1 13h-5l-2 5-1 1v6l3 9-1 16-6 21-7 18h21l27 1 10-3 7-3 7 1 6 4 4 1 2 5 3 5v2l23-1 23-54 6-15 5-1-1 8-9 21-15 36-5 10-2 2h-74v-3l-8 3 144 1 4 5-2 6-2 1-467 1-8 4-5 6-2 11 3 9 7 6 6 2 466 1 3 3 1 4-5 5-110 1 3 5-1 5-4 4h-14v5l-320 1v3h320v8h-321l1 3 320 1v7l-320 1v3h294l26 1v6l-1 1h-320v4h321v7l-23 1h-297v3l320 1v7l-320 1v2l320 1v7l-1 1h-320v4h320l1 4h9l7 2 3 5-1 5-3 3 1 2h-381l-12-6-6-5-6-10-2-6v-63l4-9 6-8 9-6 5-2-11-6-5-4-6-10-2-7v-10l4-11 6-8 10-6 8-2h6l-2-10 6-41 2-16 1-35-2-13-2-7-3-1v-4h-2v-2l-4-2-5-5-4-2-1-2-16-5-3-2v-6l8-6 6-1h10l5 1v-5z" fill="#F49656"/>
<path transform="translate(404,1039)" d="m0 0h942l-3 2v7l-2 7v65l-328 1h-612l-12-4-11-7-6-7v-2h-2l-5-15v-14l4-10 6-9 8-7 12-6z" fill="#C8BAEE"/>
<path transform="translate(171,709)" d="m0 0 6 1 14 8 16 3 17-1 22-4 12-3h25l-5 7h2l6-6 13 2-1 6 3-5 9 2 1 1v16l2-10 1-4h5l5 5 2 1 24-13 8-4 7 12 1 7-2 7v5l6-2-5 5 15 10 8 5v2l4 1v2l5 2 6 3 8-7 8-3h14l2 1 10 1 7 5 5 8 5 18v27l-5 13-2 3-3 1h-11l-3-1v-2l5-4 6-10 5-17 1-5-10 1 2-3 6-1-7-12-4-4-11 11-3 2 6 4 1 3-6-2-1-1h-7l-15 6v7l3 6 3 3v10l-1 7-6 4-27 9-6 5-4 12-6 32v30l-1 5v9l5 9 7 5 15 3 13 1-5 23v5l-8 3-5 3-10 4-13 3-14 1 5 10-1 8-3 4-23 1-6 4h-2l-1 3-5 4-8 11-7 15-3 14 1 10 3 15 4 10 6 9v2h2l7 8 10 7 13 6v1h-111l6-7 1-4-10 1-8 6-3 4h-15v-10l8-4 25-5 10-4 5-4v-6l-8-3h-11l-14 3-12 5h-2v-19l1-15 3-3 11-5 12-3 17-1 2 1-6-11-5-9v-2l-15 5-7 4-2-1 7-11 8-9-1-5-13-27-13-32-4-11v-2l-28-4-11-4-6-4-4-6-3-6-5-5-23-12-12-7-10-9-6-9-3-7v-9l3 1 4 8 6 3h18l49-7 17-2h41l26 4 15 4h3l-7-9-11-12-7-6-2-1v-2l-8-4v-2l-5-2-3-3-4-2v-2l17-1 15-4 15-7 9-7 5-6-12 7-14 4h-23l-12-3-10-5-1-1-1-25-1-2h-6l-6 4h-5l-7-6-6-12-2-7v-26l2-9v-14l-4-11z" fill="#A8D9D2"/>
<path transform="translate(1316,1186)" d="m0 0h186l2 1-2 5-9 13-7 7-5 10-6 16-5 5-4 3h-2l-2-12-5-10-4-3-6-1-54 5-19 1-7 7-8 7-17 14-10 8h-634l-22-8-21-5-28-4-37-3-55-4-42-5-36-7-29-8-27-10-22-10-18-10v-1z" fill="#EEF7FA"/>
<path transform="translate(338,1142)" d="m0 0 13 2 47 1h947l9-2h174l9 3 5 4 5 10v10l-5 10-9 6-6 1h-1172l-17 9-19 7-21 4h-30l-16-4-25-9-11-3h-10l-21 7h-10l-2-1 1-3 8-4 2-2-24-1-8-2-7-6-4-8v-12l4-8 6-5 8-3z" fill="#211937"/>
<path transform="translate(1168,595)" d="m0 0 6 1 4 3 7 2 4 6 1 3v7l-1 5 5 20 7 14 15 5 10 6 10 9 6 9 4 13 2 17 1 16 1 30 3 14v21l-3 2-6-1-8-5-6-3-9-2h-9l-27 5h-7l-7-5h-19l-33-5-3-1h-65l-2 8v12l4 6 4 4v10h-458l-10-3-7-8-2-4v-10l4-8 6-5 6-2 449-1-4-7-5-17-11-39v-8l1-1h81v2l3 1 4 12 6 22 1 1 10-1 1-10 6-37 5-19 5-10 2-2-1-7 6-4 7 1 6 2 4-5 2-6v-11l-4-11-5-4-11 5h-14l-5-1v-9l6-9 10-8 10-4z" fill="#FDC849"/>
<path transform="translate(338,632)" d="m0 0h2l-1 4-2 6h12l8-8 2 1-3 6 20 5 23 8 16 8 13 10 11 4 27 6 15 6 13 8-2 5-8 10-11 11-14 9-4 2 10-3 16-8 10-8 8-8 2-3 4 2 10 11 10 15 10 21 6 19 4 21v13l3 10 6 8 8 6 6 2 8 1 53 1v1l-20 4-14 6-12 8-10 8-9 11-8 14-4 9-46 1-4 8-7 24-3 1h-8l-4 2-2 7-1 1h-21l-18 3-12-1-32-7h-9l-8 4-6 7-2 8-4-2-5-9v-9l1-5v-30l6-32 4-12 7-6 27-9 5-3 1-7v-12l-3-1-3-6v-7l5-3 11-4h7l7 4-5-5-3-2 12-11 4-3 8 11 2 6-7 3h9l-1 10-6 16-7 9-3 1v2h14l3-1 5-11 1-4v-27l-5-18-4-6v-2l-4-2-3-2-10-1-2-1h-14l-9 4-8 6-10-6v-2l-4-1v-2l-5-2-15-10-4-4 4-3-5 2v-6l2-7-1-7-9-16-3-8v-7l2-10v-8l-4-13-6-8-8-6-8-4 2-5h3v2l2-1z" fill="#A8D8D1"/>
<path transform="translate(1465,899)" d="m0 0 1 2h12l13 3 14 6 8 5v1l-19 2-12 4-10 6-4 5v4l4 2 10-1 15-6 12-4 14-1 5 5 6 14v2h-4l-2 10h11l10 19 7 7 5 3 7 2-4 3-4 1-13 1-8 4-14 12-10 7-5 3-12 30-8 17-1 6 5 22 3 11v12l-2 7-4-2-11-8-12-6-6 9-1 3 7 1 16 7 11 7 7 6 16 1v1h-123l-39-1 2-5h2v-7l-3-6-2-1v-2l-14-2-1-7v-59l2-6v-8l14-3v-2h2l2-9-3-7-4-3-2-1-32-1h-29l4-5 2-7 24 7 9 4v-14l2-15 5-12 9-12 8-8 11-7 13-5 7-1h11l12 2 15 5 4-1 8-8 9-11 9-10 11-14zm62 65-2 6 8-1-1-3z" fill="#A8D9D2"/>
<path transform="translate(617,653)" d="m0 0 365 1 4 6-1 5-4 4h-14v5l-320 1v3h320v8h-321l1 3 320 1v7l-320 1v3h294l26 1v6l-1 1h-320v4h321v7l-23 1h-297v3l320 1v7l-320 1v2l320 1v7l-1 1h-320v4h320l1 4h9l7 2 3 5-1 5-3 3 1 2h-381l-12-6-6-5-6-10-2-6v-63l4-9 6-8 9-6 5-2z" fill="#FEC94A"/>
<path transform="translate(171,709)" d="m0 0 6 1 14 8 16 3 17-1 22-4 12-3h25l-5 7h2l6-6 13 2-1 6 3-5 9 2 1 1v16l2-10 1-4h5l5 5 2 1 24-13 8-4 7 12 1 7-2 7v5l6-2-5 5 15 10 8 5v2l4 1v2l5 2 6 3 8-7 8-3h14l2 1 10 1 7 5 5 8 5 18v27l-5 13-2 3-3 1h-11l-3-1v-2l5-4 6-10 5-17 1-5-10 1 2-3 6-1-7-12-4-4-11 11-3 2 6 4 1 3-6-2-1-1h-7l-15 6v7l3 6 3 3v10l-1 7-6 4-27 9-6 5-4 12-6 32v30l-3 11-5 10-2 5-5-5-9-11-14-14-13-10-15-9-23-11-6-3-9-11-11-12-7-6-2-1v-2l-8-4v-2l-5-2-3-3-4-2v-2l17-1 15-4 15-7 9-7 5-6-12 7-14 4h-23l-12-3-10-5-1-1-1-25-1-2h-6l-6 4h-5l-7-6-6-12-2-7v-26l2-9v-14l-4-11z" fill="#7ECAC1"/>
<path transform="translate(1e3 768)" d="m0 0h40l3 9 1 2 3 2-452 1-9 4-5 7-1 3v10l5 8 5 4 8 2 464 1 3 3-1 7-3 2-379 1-16 6-16 8-13 10-7 7-9 13-7 15-4 15-1 7v16l3 17 5 13 7 13 8 10 10 10 14 9 14 6 14 4v1h-60l-16-4-11-4-12-7-11-9-4-4-2-10-4-6-4-3v-2l7-2 4-11 15-54v-2h-80l-3 5-15 54-2 7h-2l1-8 7-25 9-29 4-6h46l1-5 9-17 9-10 5-5 8-7 15-9 14-5 10-2-47-1-11-2-6-3-9-8-5-10-1-5v-10l4-11 8-9 10-5 3-1z" fill="#3B4A25"/>
<path transform="translate(1330,339)" d="m0 0h2l4 10 3 5 1 5 12 4 10 5v-2l5-3 7 1 17 17 1 2v6l-3 4 1 6 5 12 1 5 8 1 4 5v26l-4 5-8 1-1 6-6 13 1 5 2 3v6l-7 8-11 11-7 1-5-3v-2l-15 7-7 2-2 8-5 4h-26l-5-5v-7l-9-2-12-6-8 4-6-1-8-7-9-9-1-2v-8l2-3h2l-7-16-1-7-8-1-4-4-1-2v-25l5-5 8-1 1-7 7-16-3-1-1-2v-8l7-8 9-9 4-2 7 1 3 3 6-2 14-6h3v-7l5-5 10-1z" fill="#92D6D7"/>
<path transform="translate(1184,856)" d="m0 0h93l-2 1v22l-1 11 13-1-5 6-6 5v7l8-8 7-6h3l3 10-1 14-1 7v21l6 12 7 7 11 7 12 5 3 1-3 12-2 24-9-3-23-7-5-8-4-2-192-1 2-4 2-7-1-10 175-1v-11h-161l2-10 5-21 13-43 3-10 1-1 11-1 14-6 8-4 11-4z" fill="#EEF7FA"/>
<path transform="translate(507,895)" d="m0 0h80l1 3-15 54-4 11-3 2h-5l5 5 4 6 1 3v7l3 1 4 5 14 10 13 6 14 4 6 1v1h-62l-43 1-24 2-61 3-12 1-35 1-2-5h-16l-13 4h-9l2-5-1-7-3-5v-3l3-1 17-2 16-5 3-3 10-3 1-11 4-16-19-2-10-3-2-2v-7l6-8 7-5 3-1h9l38 8 11-1 13-2h21l3-8 4-2h8l2 2-7 25-2 8h2l3-14 13-47z" fill="#FDC849"/>
<path transform="translate(596,781)" d="m0 0h455l-2 8v12l4 6 4 4v10h-458l-10-3-7-8-2-4v-10l4-8 6-5z" fill="#8EA21A"/>
<path transform="translate(617,653)" d="m0 0 365 1 4 6-1 5-4 4-337 1-6 3-5 5-2 9v39l1 14 3 6 5 4 2 1h21l10-1h267l41 3 4 4 1 5-4 5 1 2h-381l-12-6-6-5-6-10-2-6v-63l4-9 6-8 9-6 5-2z" fill="#EC9F28"/>
<path transform="translate(610,422)" d="m0 0h10l12 4 17 10 15 9 9 6v5l-7 10-6 7-5 2v22l3 49 48-11 24-10h15l16 8 10 7 4 2 13 1v1l-10 1-3 6-2 11v10l2 12 4 8v2h-31l-15-2h-13l-69 4h-34l-5-3-3-6-1-7 6-41 2-16 1-35-2-13-2-7-3-1v-4h-2v-2l-4-2-5-5-4-2-1-2-16-5-3-2v-6l8-6 6-1h10l5 1v-5z" fill="#FDC849"/>
<path transform="translate(1116,780)" d="m0 0 11 2 27 4h17l7 5 13-1 21-4h9l11 3 11 6 3 2h7v8l-5 15-6 8-5 5-10 3-26 4-15 1 1 8-2 6h-2l1-9-3-5-1-1h-9l-8 3h-8l-4-1h-12l-8 3-5 5-1 9 4 6 5 3v2l15 2-1 2-11 1-7 24-10 33-6 24-4 6-3 2h-13l-16-5-6-4v-6l3-9 6-28 4-20 4-24 3-15 3-18-13-6-11-7-16-12-6-7-1-2v-12l3-8z" fill="#3B4B25"/>
<path transform="translate(627,602)" d="m0 0h461v8h-427v5h427v10l-426 1v4l426 1 1 3v7l3 1h-464l-8-3-7-8-2-10 3-9 6-7z" fill="#B59EEF"/>
<path transform="translate(442,778)" d="m0 0 5 5 6 10v2l-7 3h9l-1 10-6 16-7 9-3 1v2h19l9 2 6 4 6 7 4 10 4 26 5 24 5 10-1 8-3 1h-8l-4 2-2 7-1 1h-21l-18 3-12-1-32-7h-9l-8 4-6 7-2 8-4-2-5-9v-9l1-5v-30l6-32 4-12 7-6 27-9 5-3 1-7v-12l-3-1-3-6v-7l5-3 11-4h7l7 4-5-5-3-2 12-11z" fill="#FCFCFC"/>
<path transform="translate(604,590)" d="m0 0h7l4 4 2 1h34l69-4h13l15 2 40 1 23-3 4-1h78l5 4 5-1 4-3 4 1h13l11-1h159l4 5-2 6-2 1-467 1-8 4-5 6-2 11 3 9 7 6 6 2 466 1 3 3 1 4-5 5h-489l-10-3-10-7-6-10-2-7v-10l4-11 6-8 10-6z" fill="#332655"/>
<path transform="translate(470,1086)" d="m0 0h871v13h-870l-5-4 1-7z" fill="#FBFCFC"/>
<path transform="translate(476,1054)" d="m0 0h864l1 1v12h-871l-4-4 1-7z" fill="#FAFCFC"/>
<path transform="translate(287,999)" d="m0 0h8l-2 9v9l4 4 50 1v1l-23 1-6 4h-2l-1 3-5 4-8 11-7 15-3 14 1 10 3 15 4 10 6 9v2h2l7 8 10 7 13 6v1h-111l6-7 1-4-10 1-8 6-3 4h-15v-10l8-4 25-5 10-4 5-4v-6l-8-3h-11l-14 3-12 5h-2v-19l1-15 3-3 11-5 12-3 17-1 2 1-6-11-5-9v-2l-15 5-7 4-2-1 7-11 9-11 8-7h2l2-4 4-1v-2l5-3h2v-2l12-7 15-6z" fill="#7EC9C0"/>
<path transform="translate(593,832)" d="m0 0h82l8 1-4 3-17 6-11 6-13 10-7 7-9 13-7 15-4 15-1 7v16l3 17 5 13 7 13 8 10 10 10 14 9 14 6 14 4v1h-60l-16-4-11-4-12-7-11-9-4-4-2-10-4-6-4-3v-2l7-2 4-11 15-54v-2h-80l-3 5-15 54-2 7h-2l1-8 7-25 9-29 4-6h46l1-5 9-17 9-10 5-5 8-7 15-9 14-5 10-2-30-1z" fill="#2E2A52"/>
<path transform="translate(1465,899)" d="m0 0 1 2h12l13 3 14 6 8 5v1l-19 2-12 4-10 6-4 5v4l4 2 10-1 15-6 12-4 14-1 5 5 6 14v2h-4l-2 10h11l10 19 7 7 5 3 7 2-4 3-4 1-13 1-8 4-14 12-10 7-5 3-12 30-7 15h-1l-1-17-4-19-3-9-11-23-12-21-11-12-14-10-9-6 2-4 7-7 9-11 9-10 11-14zm62 65-2 6 8-1-1-3z" fill="#BCE2DF"/>
<path transform="translate(1253,622)" d="m0 0 5 1 6 10 5 13 9 8 15 9 14 9 10 9 11 14 8 16 5 13 2 2-18 5-26 10-16 8-14 8-11 9-5 4h-2l-2-9-1-30-2-25-3-16-6-12-7-7 1-4 7-6 11-14 5-12v-10z" fill="#A8D9D2"/>
<path transform="translate(1184,856)" d="m0 0h93l-2 1v22l-1 11 13-1-5 6-6 5-1 9-1 1h-148l3-11 7-24 1-1 11-1 14-6 8-4 11-4z" fill="#C8BBEE"/>
<path transform="translate(370,1016)" d="m0 0 16 1-14 7-10 8-7 7-7 11-5 13-2 10v11l3 16 8 16 7 9 8 7 10 6 13 5 19 1h82l854 1v1h-947l-47-1-14-3-12-5-11-8-6-6v-2h-2l-5-7-6-14-4-19 1-11 3-12 8-15 9-11 6-5 6-4 23-1 1-1 12-2z" fill="#950718"/>
<path transform="translate(1064,966)" d="m0 0h6l11 7 3 2 6-1 6-7 3 4 2 11-3 7-2 3h192l5 3 3 6-1 8-5 5-229 1-6 1h-10l-9-2-5-5v-6l4-6 8-6h3v-2l6-4 9-12z" fill="#7563A6"/>
<path transform="translate(1192,227)" d="m0 0h52l2 2v23l-2 2h-12l1 10 18 4 18 8 14 9 6 5 4-2 3-3h2v-2l-4-2-2-4 3-4 6 1 10 9 4 5 1 4-4 4-4-1-5-4-1 3h-2v2l-2 1 2 4 10 14 7 14 2 5v4h-9l-8-16-7-11-9-10-10-9-15-9-12-5-18-4h-26l-17 4-15 6-15 10-12 11-9 12-7 12-6 18-2 11v20l2 14 5 16 6 12 8 11 9 10 11 9 12 7 16 6 14 3h34l3 8-13 3h-16l-16-2-14-4-16-7-11-7-14-12-11-13-7-11-8-19-3-12-1-7v-26l3-15 5-14 9-17 7-9 2-5-5-5h-2l-4 4-5-1-1-5 4-6 5-5 7-6h6l1 1v6l-4 3 2 4 3 3 5-2 12-9 16-8 15-5 11-1v-11h-11l-2-2-1-9v-11zm22 27v10h8l1-1v-9z" fill="#34415D"/>
<path transform="translate(1358,1033)" d="m0 0h2l6 8 6 5 7 8 7 7 9 11 13 18 9 14 10 17 8 15 1 4 66 2 16 1v1h-123l-39-1 2-5h2v-7l-3-6-2-1v-2l-14-2-1-7v-59l2-6v-8l14-3v-2h2z" fill="#A7D8D2"/>
<path transform="translate(1316,1186)" d="m0 0h186l2 1-2 5-9 13-7 7-5 10-6 16-5 5-4 3h-2l-2-12-5-10-4-3-6-1-54 5h-27l-20-3-9-3-1-1-3-29-16-1 6 21 1 5-6-2-14-8-12-11-1-6z" fill="#A8D9D2"/>
<path transform="translate(1026,708)" d="m0 0h81v2l3 1 4 12 7 26 7 24v3h50l2 4-64 1h-68l-4-2-3-6-5-17-11-39v-8z" fill="#E00E18"/>
<path transform="translate(507,895)" d="m0 0h80l1 3-15 54-4 11-3 2-5 1h-72l-57-1 2-4h51l2 1 3-14 13-47z" fill="#E00D18"/>
<path transform="translate(610,422)" d="m0 0h10l12 4 17 10 15 9 9 6v5l-7 10-6 7-5 2v22l1 17v22l-22 1-13 3-2 9-7 22h-1v-11l4-26 1-11 1-35-2-13-2-7-3-1v-4h-2v-2l-4-2-5-5-4-2-1-2-16-5-3-2v-6l8-6 6-1h10l5 1v-5z" fill="#F49656"/>
<path transform="translate(865,492)" d="m0 0h9l8 2 6 4 6 12v16l-2 2-6-18-6-9-7-4h-8l-6 3-3 7v13l4 12 6 12 12 20-3 3h-20l-14 12-10 6-12 5-14 3-17 2h-8l-5-8-2-7-1-8v-10l3-14 3-4 10-1 21-7 8-4 5-4 5-5 10-11 5-6 10-8 10-5z" fill="#E31018"/>
<path transform="translate(1317,393)" d="m0 0 13 1 12 5 10 8 7 11 3 11v12l-3 11h-12l2 6h5l-2 4-4 5-11 7-11 3h-11l-11-3-10-6-7-7-5-8-3-9v-18l4-11 7-9 7-6 6-4z" fill="#EDF6FA"/>
<path transform="translate(1330,339)" d="m0 0h2l4 10 3 5 1 5 12 4 10 5v-2l5-3 7 1 17 17 1 2v6l-3 4 1 6 5 12 1 5 8 1 4 5v26l-4 5-8 1-1 6-6 13 1 5 2 3v6l-7 8-11 11-7 1-5-3v-2l-15 7-7 2-2 8-5 4h-26l-5-5v-7l-9-2-12-6-8 4-6-1-8-7-9-9-1-2v-8l2-3h2l-7-16-1-7-8-1-4-4-1-2v-25l5-5 8-1 1-7 7-16-3-1-1-2v-8l7-8 9-9 4-2 7 1 3 3 6-2 14-6h3v-7l5-5 10-1zm-18 16-2 1-1 10-12 3-11 5v2l-10 1-4-4-4 2-10 10 2 4 2 2-1 10h-2l-6 15-2 9h-10v19l9 2 2 3 3 11 7 14v7l-4 2 1 4 10 10 3 1 5-5 6 1 14 7 11 3 1 1 1 9 1 1h19l1-1v-10l16-4 13-7 6 2 4 3 13-13-2-4-2-2v-6l7-14 3-10v-3l10-2v-19l-9-1-3-8-5-14-4-7 1-5 3-3-1-4-8-7-3-3h-2l-4 4h-6l-6-4-12-5-8-2-1-4v-5l-2-2z" fill="#31405B"/>
<path transform="translate(815,590)" d="m0 0h78l5 4 5-1 4-3 4 1h13l11-1h159l4 5-2 6-2 1h-418l-36-1-12-2-7-1v-2l49-2 50-3h13l15 2 40 1 23-3z" fill="#332654"/>
<path transform="translate(312,642)" d="m0 0h13l9 3 9 6 7 8 4 10 1 5v8l-2 10v7l4 9 1 3-32 18-5-5-6-7-14-6-9-7-4-5-5-10-1-3v-16l4-10 4-6 8-7 9-4z" fill="#FEC94A"/>
<path transform="translate(617,653)" d="m0 0h8l12 2-12 9-4 5-4 8-1 8v46l2 16 6 10 9 7 9 3-3 2h-37l-12-6-6-5-6-10-2-6v-63l4-9 6-8 9-6 5-2z" fill="#FDC84A"/>
<path transform="translate(433,965)" d="m0 0h56l72 1 7 6 3 7v7l3 1 4 5 14 10 13 6 14 4 6 1v1h-62l-43 1-24 2h-19l14-7 6-7 2-5v-10l-2-6 12-5 11-6-21 8h-5l-8-6-16-6-37-1z" fill="#EC9E28"/>
<path transform="translate(419,760)" d="m0 0h14l2 1 10 1 7 5 5 8 5 18v27l-5 13-2 3-3 1h-11l-3-1v-2l5-4 6-10 5-17 1-5-10 1 2-3 6-1-7-12-4-4-11 11-3 2 6 4 1 3-6-2-1-1h-7l-15 6v7l3 6 3 3v10l-1 7-6 4-27 9-5 3-2-4-1-6v-8l3-17 3-10 7-9 11-12 8-13h2l1-4 8-6z" fill="#211A38"/>
<path transform="translate(1234,833)" d="m0 0h53l5 3 4 5v7l-4 6-3 2-105 1-5 4-16 6-12 6-15-2-2-1v-2l-5-2-4-5-1-2 1-9 5-5 5-3 4-1h12l4 1h8l8-3h9l4 4 1 7-2 5h2l1-10v-4l36-5z" fill="#7563A6"/>
<path transform="translate(593,832)" d="m0 0h82l8 1-4 3-17 6-11 6-13 10-7 7-9 13-4 7-4 2-2 4h-2l-1 5-3 7-5 4v-3h-2v-2l-4-2-2-7-6-9-5-3-12-4-3 1-5 5-6 4-1-2 8-14 10-12 14-11 12-7 14-5 10-2-30-1z" fill="#342856"/>
<path transform="translate(738,869)" d="m0 0h351l-1 9h-371l-2-2v-5l1-1z" fill="#FAFBFC"/>
<path transform="translate(604,590)" d="m0 0h7l4 4 6 2v2h7l12 2 36 1v1l-49 1-8 4-5 6-2 11 3 9 7 6 6 2 19 1 64 1v1l-17 1h-13l-7 2h-3l-1 2h-19l1 3 342 1v1h-390l-10-3-10-7-6-10-2-7v-10l4-11 6-8 10-6z" fill="#322D55"/>
<path transform="translate(716,890)" d="m0 0h369l-1 7-1 1h-366l-2-2z" fill="#F9FBFC"/>
<path transform="translate(717,910)" d="m0 0h364l-1 8h-363l-1-1v-6z" fill="#FAFCFC"/>
<path transform="translate(740,930)" d="m0 0h337l-1 8h-359l-1-1v-6z" fill="#F9FBFC"/>
<path transform="translate(716,951)" d="m0 0h356l1 7-1 1h-354l-2-1z" fill="#FAFCFC"/>
<path transform="translate(599,917)" d="m0 0h4l2 5h2v10l-3 2 1 7 6 17 9 16 8 16 1 6-4 4-17 9-6-1-13-7-13-10-2-5-1-10v-2l-3-3 1-5h6l1-7 3-2v3h2l-1-3h2l-1-5 1-8-3 1 3-14 3-9 2-4h2l2 7 1 4 1 2-2 4 2 1v-3l2-1v-3l1-11z" fill="#342655"/>
<path transform="translate(484,927)" d="m0 0h8l2 2-7 25-2 7h-50v-2h-21l-9 2-5 2v-3l-19-2-10-3-2-2v-7l6-8 7-5 3-1h9l38 8 11-1 13-2h21l3-8z" fill="#EF854B"/>
<path transform="translate(1061,970)" d="m0 0 1 3-4 6h-340l-2-1v-7z" fill="#FAFCFC"/>
<path transform="translate(610,422)" d="m0 0h10l12 4 17 10 15 9 9 6v5l-7 10-6 7h-4l-1-6-5-5-7-1-10 4h-4v-6l-8 2-7 6h-4v-4h-2v-2l-4-2-5-5-4-2-1-2-16-5-3-2v-6l8-6 6-1h10l5 1v-5z" fill="#E4191D"/>
<path transform="translate(647,674)" d="m0 0h321l4 6-1 6-3 9h-1v-5h-320l-1-4h321v-8h-320l-1-3z" fill="#FCFCF2"/>
<path transform="translate(1314,384)" d="m0 0h12l12 3 13 8 7 6 3 3 9 19 1 6v9l-3 14-6 12-9 10-13 8-4 2-6 1h-21l-13-5-9-6-7-8v-2h-2l-5-10-3-11v-18l5-14 8-11 8-7 9-5zm3 9-14 3-11 8-7 8-4 8-2 6v18l4 11 7 9 8 7 8 4 9 2h11l13-4 11-8 4-5v-2h-5l-2-6h12l3-11v-12l-4-13-8-11-8-6-12-5z" fill="#33405C"/>
<path transform="translate(662,625)" d="m0 0h425l1 5-1 1h-425l-1-5z" fill="#F9FBFC"/>
<path transform="translate(630,804)" d="m0 0h420l4 4v2h-424z" fill="#EEF6F4"/>
<path transform="translate(1184,856)" d="m0 0h93l-2 1v20l-1 1h-138l1-4 11-1 14-6 8-4 11-4z" fill="#C8BAEF"/>
<path transform="translate(903,436)" d="m0 0h12l14 5 11 10 2 4-1 6-3 5-6 4 5 4v3l-8-4-8 1-6 1v-2l-5-1-5 10-6 4-8 1-4-3v-2l-7 3-6-1-6-5-1-8 4-7 4-3 9 1v-10l4-8 9-6z" fill="#211938"/>
<path transform="translate(1073,956)" d="m0 0 14 5 7 2h13l6-5 161 1v11l-15 1h-161l-2-3-6 7-6 1-14-9-2-2z" fill="#C9BAEE"/>
<path transform="translate(1060,512)" d="m0 0h4l-1 8-9 21-15 36-5 10-2 2h-74v-3l-11 4-23 2h-13l-2-2 2-6 7-13h50l10-3 7-3 7 1 6 4 4 1 2 5 3 5v2l23-1 23-54 6-15z" fill="#EF844B"/>
<path transform="translate(160,1186)" d="m0 0h181l12 1-4 3-16 8-18 6-17 3h-30l-16-4-25-9-11-3h-10l-21 7h-10l-2-1 1-3 8-4 2-2-24-1z" fill="#7EBEBE"/>
<path transform="translate(1100,979)" d="m0 0h174v12h12v1h-190l2-4z" fill="#C8BAEE"/>
<path transform="translate(681,164)" d="m0 0 14 8 9 5-7 16-2 8v12l3 10 6 10 5 5-2 4-12 14h-4l-9-9-8-14-6-14-1-13 1-11 5-16 7-14z" fill="#7664A7"/>
<path transform="translate(546,814)" d="m0 0 4 4 6 7 6 4 6 2 8 1 53 1v1l-20 4-14 6-12 8-10 8-9 11-8 14-3 3-8-7-14-8-10-3-1-2h9l7-6 5-11 3-12 2-23z" fill="#EDF6FA"/>
<path transform="translate(442,778)" d="m0 0 5 5 6 10v2l-7 3h9l-1 10-6 16-7 9-3 1-3 11-4 5-8 2-6-1-5-4-2-5 1-14v-12l-3-1-3-6v-7l5-3 11-4h7l7 4-5-5-3-2 12-11z" fill="#F39456"/>
<path transform="translate(700,609)" d="m0 0 388 1v5h-427v-5z" fill="#FCFCFC"/>
<path transform="translate(1168,595)" d="m0 0 6 1 4 3 7 2 4 6 1 3v7l-3 7-4 5-5 2 3 9 4 7v9l-8 16-8 6-4 2h-6l-6-7-4-11 2-4 4-2 7 1 6 2 4-5 2-6v-11l-4-11-5-4-11 5h-14l-5-1v-9l6-9 10-8 10-4z" fill="#221B39"/>
<path transform="translate(630,789)" d="m0 0h418v5h-418z" fill="#FBFCFC"/>
<path transform="translate(1118,936)" d="m0 0 1 2h155v12l-29 1h-130z" fill="#C9BAEE"/>
<path transform="translate(1064,966)" d="m0 0h6l11 7 3 2 6-1 6-7 3 4 2 11-3 7-13 12-13 9-11 5-6 1h-10l-9-2-5-5v-6l4-6 8-6h3v-2l6-4 9-12z" fill="#272041"/>
<path transform="translate(1123,918)" d="m0 0h151v12l-154 1 2-10z" fill="#C9BAEE"/>
<path transform="translate(1130,895)" d="m0 0 1 3h143l1 1v10l-1 1h-148l3-11z" fill="#C9BAEE"/>
<path transform="translate(720,591)" d="m0 0h13l15 2 40 1h30l11-2v-1h56v1l-32 1-10 3-4 3-7 2-24 1h-132l-36-1-12-2-7-1v-2l49-2z" fill="#332654"/>
<path transform="translate(309,990)" d="m0 0h8l26 4 6 5v2h-3l5 10-1 8-2 3h-51l-5-5v-9l3-8 4-5z" fill="#F6F5FA"/>
<path transform="translate(940,461)" d="m0 0h1v14l-3 6 1 13h-5l-2 5h-4l-1-5h-2l-1 3-2-5v-3l-7-1v2l-3 1v-2h-2l-1 17-8 2v2l-5 3 1 5 10 15 3 6v6l-7 11-3-3-7-20-3-7v-5l2 4 1 1v-16l-5-10v-2l-8-4-6-1v-1l11-3 2-5 4 2 8-1 7-5 1-5 3-4 5 1 1 2 5-1 8-1 8 4-3-3-4-3 6-4h2z" fill="#ED834B"/>
<path transform="translate(194,960)" d="m0 0 5 2 15 15 21 12 8 6 4 5 1 3v13l-4 4h-2v2l-5 3-9 9-3-1-14-29-13-32z" fill="#EFF8FB"/>
<path transform="translate(966,743)" d="m0 0 2 2-1 4h-298l-23-1v-4z" fill="#FCFCF2"/>
<path transform="translate(569,769)" d="m0 0h24l-3 2-10 5-7 8-4 10v14l4 9 6 8 14 7v1h-17l-11-2-6-3-9-8-5-10-1-5v-10l4-11 8-9 10-5z" fill="#8AA318"/>
<path transform="translate(293,392)" d="m0 0h3l6 10 8 6 8 3h23l3 8 2 7v5l-13 3h-14l-16-4-10-6-9-9-8-13v-2z" fill="#FDC94A"/>
<path transform="translate(604,590)" d="m0 0h7l4 5-8 7-6 12v15l4 10 6 7 11 6v1l-5 1h-13l-10-3-10-7-6-10-2-7v-10l4-11 6-8 10-6z" fill="#7563A6"/>
<path transform="translate(1099,971)" d="m0 0h174l1 1v6l-2 1h-172z" fill="#FAFBFC"/>
<path transform="translate(1171,839)" d="m0 0h9l4 4 1 7-3 6-6 4-14 5-11 5h-13l-8-3-5-6-1-2 1-9 5-5 5-3 4-1h12l4 1h8z" fill="#EE824B"/>
<path transform="translate(647,720)" d="m0 0h322l-1 8-1-3h-320l-1-4z" fill="#FCFCF2"/>
<path transform="translate(647,697)" d="m0 0h321v6l-27-1h-294l-1-4z" fill="#FCFCF2"/>
<path transform="translate(966,708)" d="m0 0 3 2-1 5-1-2h-321v-4z" fill="#FCFCF2"/>
<path transform="translate(647,732)" d="m0 0h320l1 5-321-1z" fill="#FCFCF2"/>
<path transform="translate(607,930)" d="m0 0 3 1 3 17 5 13 7 13 8 10 10 10 14 9 14 6 14 4v1h-60l-16-4-1-2h2l1-2 14-7 3-1-2-11-13-24-5-10-5-15v-7z" fill="#2E2A52"/>
<path transform="translate(1280,889)" d="m0 0h7l-5 6-7 5-1-1-143-1v-6l2-2z" fill="#F9FBFC"/>
<path transform="translate(352,693)" d="m0 0h2l2 4 9 4 7 17 4 10 4 5 8 7 15 10 6 7 1 8-8 6-10-6v-2l-4-1v-2l-5-2-15-10-4-4 4-3-5 2v-6l2-7-1-7-9-16-3-8z" fill="#EEF7FA"/>
<path transform="translate(817,253)" d="m0 0h19l17 4 3 1-3 10-3 5-16-4h-12l-10 3-10 7-8 10-5-2-8-5 1-4 7-9 8-7 8-5z" fill="#8BA318"/>
<path transform="translate(623,459)" d="m0 0h6v6h3l1 11v12l-5 27-4 17-3 5-1 9-8 25h-1v-11l4-26 1-11 1-35-2-13-2-7-2-1 7-4z" fill="#EF864B"/>
<path transform="translate(1115,951)" d="m0 0h158l2 3v4h-162z" fill="#FBFCFC"/>
<path transform="translate(877,565)" d="m0 0 4 4 10 18v3h-72l3-2 16-8 17-14h20z" fill="#EAF3F5"/>
<path transform="translate(1121,930)" d="m0 0 151 1 2 7h-155v-6z" fill="#FBFCFC"/>
<path transform="translate(1254,340)" d="m0 0 5 1 1 6-12 12-8 7-7 7-8 7-10 10-8 7-3 3-7-1-13-13-8-7-4-4 1-6 1-1h5l16 15 5 5 4-2 8-8 8-7 16-15 7-7 8-7z" fill="#33405C"/>
<path transform="translate(1267,869)" d="m0 0h7l1 1v7l-1 1h-138l1-4 11-1 7-3z" fill="#FAFBFC"/>
<path transform="translate(1126,911)" d="m0 0h148v7h-150l1-6z" fill="#FBFCFC"/>
<path transform="translate(248,1045)" d="m0 0h18l8 3 10 7 7 4-2 5-8 4-11 2h-20l-5-1-11-19 1-3z" fill="#EFF8FB"/>
<path transform="translate(1164,621)" d="m0 0 5 3 4 6 2 7v11l-4 9-4 3-8-3-6 1-5 3-4-11-6-18v-5l2-1h14z" fill="#F19456"/>
<path transform="translate(1393,425)" d="m0 0h6v19l-10 2-2 10-5 12-3 5v6l4 4-2 4-11 11-8-5-6 2-9 5-16 4v10l-1 1h-19l-1-1-1-9-8-3-11-4-10-5-4 1-5 4-8-7-5-5 1-4 2-1v2h2l7 8 4-2 4-3 6 2 20 8 6 3 2 4v4l17 2v-9l5-3 16-6 10-5 5 1 3 3 4-1 3-4h2l-1-15 8-18 4-11 5-2h5v-13h-5z" fill="#7CBCBD"/>
<path transform="translate(357,711)" d="m0 0 3 3 6 12-1 9-2 4-1 6-9 5-12-2v-3l-4 1-3-2v-2l1-1-4-1-1-4h-2l-3-7 21-12z" fill="#323F5B"/>
<path transform="translate(604,429)" d="m0 0 1 3-4 1 1 3 3 2h-20 2l16 1 15 4v-2l-3-1h6l5 7 3 3-1 1 3 1v3h-2l-1 4-7 2-7 6h-4v-4h-2v-2l-4-2-5-5-4-2-1-2-16-5-3-2v-6l8-6 6-1h10l5 1z" fill="#950A1A"/>
<path transform="translate(1316,1186)" d="m0 0h186l2 1-1 3-3 1-3-1-93-1h-71l-16-1 6 21 1 5-6-2-14-8-12-11-1-6z" fill="#A8D9D2"/>
<path transform="translate(329,645)" d="m0 0 7 1 8 6 6 7 4 10 1 5v8l-2 10v7l4 9 1 3-8 5h-2l-10-18-1-5 4-12v-13l-2-8-7-11z" fill="#EDA32B"/>
<path transform="translate(571,986)" d="m0 0 3 1 4 5 14 10 13 6 14 4 6 1v1h-90l3-2 14-4 10-5 6-7z" fill="#A7D8D1"/>
<path transform="translate(944,174)" d="m0 0h4l4 12 6 10 9 6 6 2 9 1 2 1v12l-2 1-16-3-12-6-5-4-7-10-4-8-3-12z" fill="#E3131A"/>
<path transform="translate(1060,512)" d="m0 0h4l-1 8-9 21-15 36-5 10-2 2h-74l1-4 2-1h70l1-7 13-30 14-34z" fill="#E22822"/>
<path transform="translate(1359,1036)" d="m0 0 5 3 8 7 7 8 7 7 9 11 13 18 9 14 10 17 8 15 1 4 66 2 16 1v1h-123l-38-1v-1l55-1 21-1-8-16-16-26-12-16-10-13-12-12v-2h-2v-2l-4-2-2-4-4-2-6-5z" fill="#7AB9BA"/>
<path transform="translate(379,994)" d="m0 0h3l3 20 1 3h-16l-13 4h-9l2-5-1-7-3-5v-3l3-1 17-2z" fill="#EF854B"/>
<path transform="translate(419,697)" d="m0 0 4 2 7 6 8 11 6 14 5 13 7 10 15 13 10 11 9 13 12 23 8 21 8 26 1 9-2 1-3-1-8-29-7-21-12-25-10-15-9-10-10-10-7-6-8-15-6-17-6-11-12-12z" fill="#7ECBC1"/>
<path transform="translate(1146,759)" d="m0 0h9l6 2 11 1 3 6 1 8h-48l-2-8 10-5z" fill="#EF844B"/>
<path transform="translate(1431,760)" d="m0 0v3l-7 7-7 8-20 20-8 7-6 6h-2l-2 4-8 7-17 16-10 9-12 11-10 9-11 9-12 11-5 4-5 5-13 12h-1v-8l11-10-4-2 8-1 13-11 11-9 17-14 15-13 10-9 8-7 12-11 20-18z" fill="#A6D9D2"/>
<path transform="translate(1188,622)" d="m0 0h1l5 20 7 16-1 7-7 6-5 2h-8l-3-2 7-15v-9l-6-11v-5l7-5z" fill="#EF854B"/>
<path transform="translate(985,565)" d="m0 0 7 1 6 4 4 1 2 5 3 5v2l24-1v2h-69l2-2h3l2-6 3-3h2l-1-3z" fill="#F49C5B"/>
<path transform="translate(829,591)" d="m0 0h56v1l-32 1-10 3-4 3-7 2-24 1h-29l-2-1-1-4-23-2v-1h65l11-2z" fill="#302450"/>
<path transform="translate(139,918)" d="m0 0 10 2 42 12 24 8 23 10 20 10 22 13 14 10 11 8-3 3-4-2-10-8-17-11-15-9-23-12-21-9-37-12-29-9-7-3z" fill="#7ECBC1"/>
<path transform="translate(1126,400)" d="m0 0 4 5 7 13 9 12 11 11 18 11 12 5 17 4 17 1h16l2 4-7 1h-27l-17-4-17-7-12-8-12-11-10-12-7-12-4-10z" fill="#C3C7E8"/>
<path transform="translate(1171,836)" d="m0 0h9l5 4 2 5-1 8-1 2h-2l1-9-3-5-1-1h-9l-8 3h-8l-4-1h-12l-8 3-5 5-1 9 4 6 5 3v2l15 2-1 2h-15l-10-5-5-6-1-2v-10l4-6 6-5 5-2 6-1h10l6 1h11z" fill="#25203F"/>
<path transform="translate(411,816)" d="m0 0 4 4 6 9 6 5 9 2v7l-5 7-8 2-6-1-5-4-2-5 1-14z" fill="#EF864B"/>
<path transform="translate(428,296)" d="m0 0h2l3 10-10 5-7 8-3 8-2 11-1 1h-6l-2-5v-7l3-11 4-7 9-8z" fill="#7967A9"/>
<path transform="translate(1506,1021)" d="m0 0h3l-3 9-9 22-6 13h-1l-1-17-4-19v-3z" fill="#EFF8FB"/>
<path transform="translate(610,621)" d="m0 0 2 3 3 9 7 6 6 2 19 1 64 1v1l-17 1h-13l-7 2h-3l-1 2-23 1-6 1-17-4h-3v-2l-3-1-1-4h-2v-2h-2l-1-8-2-1z" fill="#2E2A52"/>
<path transform="translate(328,686)" d="m0 0 3 1 13 24 2 5 2 1-12 6-7-11-10-18 2-4z" fill="#EDA32B"/>
<path transform="translate(1316,1186)" d="m0 0h186l2 1-1 3-3 1-3-1-163-2-18-1z" fill="#7AA2B6"/>
<path transform="translate(406,396)" d="m0 0h10l10 3 2 1-1 5-1 3-7-1-11-1-9 3-2 4-4 2-6-4 2-5 9-7z" fill="#E72922"/>
<path transform="translate(893,513)" d="m0 0h2l4 8 9 14 2 4v6l-7 11-3-3-7-20-3-7v-5l2 4 1 1z" fill="#EF854B"/>
<path transform="translate(678,833)" d="m0 0h5l-4 3-17 6-11 6-13 10-7 7-4 6-1-3 4-9 5-5 5-6-1-4-4-3 1-3 3 2 10-3 2 1v-2l6 1 10-1 4-1z" fill="#2E2B52"/>
<path transform="translate(1201,235)" d="m0 0h32l4 1v8l-1 1h-36l-1-9z" fill="#EF834B"/>
<path transform="translate(657,227)" d="m0 0 3 1-6 2-49 13-54 18-20 8-10 5-13 5-36 17-4 1 3-3 26-13 37-16 40-15 29-9 44-12z" fill="#FDFDFD"/>
<path transform="translate(901,509)" d="m0 0 2 2 5 2 10 12-1 5-5 11h-2l-9-16-6-9 1-4z" fill="#FCFCFB"/>
<path transform="translate(329,673)" d="m0 0 5 1 2 2v6l-4 2 8 16 8 14v2h-2l-10-18-6-11-5 2-5 3 2 6 12 21 2 4h-3l-16-29-8 1-3-5 2-5 5-1 4 4v2l10-5-1-9z" fill="#F4F9F8"/>
<path transform="translate(1260,481)" d="m0 0 1 2h2l7 8 4-2 4-3 6 2 20 8 6 3 2 4-1 11h-1l-1-9-8-3-11-4-10-5-4 1-5 4-8-7-5-5 1-4z" fill="#7CBEBD"/>
<path transform="translate(1446,1102)" d="m0 0h7l14 5v3l-6 10-10-2-8-5-2-3 1-5z" fill="#EFF8FB"/>
<path transform="translate(309,990)" d="m0 0h8l21 3 2 4-10-1v-1l-5-1h-8l-9 3-6 7-2 5v9l3 1-1 2h-7l-3-4v-9l3-8 4-5z" fill="#F9FBFB"/>
<path transform="translate(685,593)" d="m0 0h22l-2 2-21 1-6 1h-11l4 2 6 1v1h-37l-12-2-7-1v-2l49-2z" fill="#2D2B51"/>
<path transform="translate(1073,956)" d="m0 0 14 5 9 3-1 5-5 6-6 1-14-9-2-2z" fill="#F39556"/>
<path transform="translate(630,804)" d="m0 0h50l14 2 4 3h-68z" fill="#EFF7FA"/>
<path transform="translate(321,707)" d="m0 0h4l8 14v2l2 1-10 5-8-10-6-4v-2l-3-1 3-2z" fill="#ECA32B"/>
<path transform="translate(730,525)" d="m0 0h11v1l-12 3-10 4-8 4-21 6-22 6-9 3h-3l2-6 48-11 12-5z" fill="#EEA230"/>
<path transform="translate(1431,760)" d="m0 0v3l-7 7-7 8-20 20-8 7-6 6h-2l-2 4-8 7-17 16-7 6-5 2 2-4 12-11 8-7 12-11 20-18z" fill="#B0DDD8"/>
<path transform="translate(1057,812)" d="m0 0 4 2 19 13 10 5v1h-28l1-2h2v-7l-2-2-6-1z" fill="#E3ECF4"/>
<path transform="translate(1013,804)" d="m0 0h37l4 4v2l-52-1-2-3 2-1z" fill="#EFF8FA"/>
<path transform="translate(858,572)" d="m0 0 7 1-1 4-5 4 1 4 5 2-8 2h-22l1-3 7-3 4-3 7-4z" fill="#FBFCFC"/>
<path transform="translate(1026,708)" d="m0 0h81v2l3 1 4 12 7 26 7 24v3l-3-1-7-26-10-35-2-3-15-1h-66z" fill="#2F294F"/>
<path transform="translate(557,1006)" d="m0 0 4 1 3 2h35l-1 4-35 1h-28l3-2 14-4z" fill="#95D8D7"/>
<path transform="translate(1522,948)" d="m0 0h8l-2 10 2 1-12 2h-9l-3-2 1-5 4-3z" fill="#EFF8FB"/>
<path transform="translate(933,643)" d="m0 0h152v1l-15 1h-92l-9 1-36-2z" fill="#2E2A52"/>
<path transform="translate(1402,459)" d="m0 0 5 5 11 13 14 19 14 20 13 21 6 10-1 2-7-10-6-11-4-5-4-6-7-10-14-18-7-10-9-13-4-5z" fill="#FDFDFD"/>
<path transform="translate(1296 1e3)" d="m0 0 24 7 5 2v3h-35l4-5z" fill="#87CAC4"/>
<path transform="translate(434,961)" d="m0 0h47l5 3v1h-54z" fill="#E40E18"/>
<path transform="translate(846,594)" d="m0 0 16 4 14 2v1l-9 1h-59v-1l24-1 9-3z" fill="#2E3053"/>
<path transform="translate(1393,425)" d="m0 0h6v19l-10 2-2 10-5 12-3 5-1 5-2-1v-7l8-18 4-11 5-2h5v-13h-5z" fill="#7CB5BB"/>
<path transform="translate(1119,781)" d="m0 0h49l2 5-18 1-33-5z" fill="#F3F8F7"/>
<path transform="translate(1465,549)" d="m0 0 3 3 14 26 12 25 11 27 10 28 2 8-2-1-9-26-11-28-8-17-16-32-6-11z" fill="#FDFDFD"/>
<path transform="translate(328,686)" d="m0 0 3 1 5 9v2l-5 3-6 4-6-11 2-4z" fill="#FEC94A"/>
<path transform="translate(1206,462)" d="m0 0h31l2 4-7 1h-27l-7-2v-2z" fill="#B5D5DC"/>
<path transform="translate(753,594)" d="m0 0h41v2l4 1 1 4-10 1h-10l-2-1-1-4-23-2z" fill="#2D2C52"/>
<path transform="translate(815,590)" d="m0 0h78l3 4-11-2h-55v1l-12 2h-21l1-2z" fill="#312A54"/>
<path transform="translate(1241,425)" d="m0 0h9v1h-8v14h9l2 2 1 10h2l8 16v10l-10-20-2-9-2-3-9-2z" fill="#7DBEBE"/>
<path transform="translate(1281,902)" d="m0 0h2v3l-4-1zm-3 3m-1 1m-1 1m-1 1m-1 1m-148 1h148v1h-148z" fill="#EFF8FB"/>
<path transform="translate(616,536)" d="m0 0 5 1-1 9-8 25h-1v-11l3-21z" fill="#EDA12D"/>
<path transform="translate(956,586)" d="m0 0h2v3h131v1h-142l3-2z" fill="#BAC9E2"/>
<path transform="translate(1162,421)" d="m0 0h6l9 8-1 6-5 1-8-6-3-4z" fill="#364160"/>
<path transform="translate(1146,398)" d="m0 0h6l6 11-1 5-1 1h-5l-6-9-1-5z" fill="#35415F"/>
<path transform="translate(1186,436)" d="m0 0 7 1 9 4v5l-2 2-9-1-6-3-1-5z" fill="#35405E"/>
<path transform="translate(367,1190)" d="m0 0 5 1 16 8 19 9 36 12 11 3 1 2-17-4-27-9-21-9-16-8-7-4z" fill="#FDFDFD"/>
<path transform="translate(1177,300)" d="m0 0h6l1 1v6l-10 7-5-1-1-1v-6z" fill="#374261"/>
<path transform="translate(1272,314)" d="m0 0h5l7 8 1 6-2 2h-5l-7-8-1-5z" fill="#3C4566"/>
<path transform="translate(1250,297)" d="m0 0 6 1 8 5 1 5-3 3-5-1-9-6v-5z" fill="#3B4465"/>
<path transform="translate(1204,290)" d="m0 0 6 1 1 1v5l-2 2-8 2h-6l-2-1v-6l6-3z" fill="#3A4464"/>
<path transform="translate(1143,343)" d="m0 0h5l2 2-1 8-2 6-2 2-5-1-1-1v-8l3-7z" fill="#35415E"/>
<path transform="translate(1156,318)" d="m0 0h5l2 2v5l-7 9h-6l-1-1v-6z" fill="#34415E"/>
<path transform="translate(1222,290)" d="m0 0h11l5 2 1 5-2 3-12-1-4-2v-6z" fill="#394363"/>
<path transform="translate(1141,370)" d="m0 0 5 2 2 10-1 5-3 2-4-1-2-4v-12z" fill="#374161"/>
<path transform="translate(1e3 575)" d="m0 0 4 1 3 5v2l24-1v2h-39l-3-6z" fill="#F0884B"/>
<path transform="translate(773,210)" d="m0 0h5v2l-41 4-31 5-6 1-2-2 1-1 42-6z" fill="#FDFDFD"/>
<path transform="translate(505,895)" d="m0 0 2 1-3 5-15 54-2 7h-2l1-8 7-25 9-29z" fill="#2C2340"/>
<path transform="translate(473,858)" d="m0 0 2 3 5 15 1 5v12l-2 15-1 18h-1l-1-5v-14l2-17-1-13-4-15z" fill="#BFACF1"/>
<path transform="translate(441,978)" d="m0 0h10v1l-26 5-28 6-9 1v-2l24-5 22-5z" fill="#EC9F2A"/>
<path transform="translate(1287,338)" d="m0 0h5l4 6-2 7-2 2h-4l-3-8v-5z" fill="#3A4464"/>
<path transform="translate(1204,698)" d="m0 0h1l4 31 1 20-24 8-4-1 23-8h3l-1-7-2-27z" fill="#EC9F28"/>
<path transform="translate(456,937)" d="m0 0h14l7 3v3l-3-1h-21l-6-1 1-3z" fill="#EEA42E"/>
<path transform="translate(1126,400)" d="m0 0 4 5 7 13 6 8 2 5 9 10 3 4-4-2-9-9-8-11-6-10-4-10z" fill="#C3D4E6"/>
<path transform="translate(1182,855)" d="m0 0h2l-2 4-9 4-10 4-12 6-15-2-2-2h17l18-8 11-4z" fill="#4F4B7A"/>
<path transform="translate(1286,890)" d="m0 0 5 2-2 4-13 12h-1v-8z" fill="#9BDAD9"/>
<path transform="translate(329,675)" d="m0 0 4 1 2 4-1 4h-2l8 16 8 14v2h-2l-10-18-6-11-2-7z" fill="#FCFCF7"/>
<path transform="translate(604,429)" d="m0 0 1 3-4 1 1 3 3 2-20-1 3-1-1-4-2-1 4-1h10l5 1z" fill="#96081A"/>
<path transform="translate(583,431)" d="m0 0 4 1 1 4-8 3v2l11 5-1 2-12-3-3-2v-6z" fill="#DF2A23"/>
<path transform="translate(1184,627)" d="m0 0h2l1 2v10l-4 4-3-3-2-4v-5z" fill="#F19357"/>
<path transform="translate(1431,760)" d="m0 0v3l-7 7-7 8-20 20-2-2z" fill="#ADDCD7"/>
<path transform="translate(393,911)" d="m0 0 2 4 5 14 2 5-8-1-2-10v-7z" fill="#8CD0C8"/>
<path transform="translate(381,859)" d="m0 0 5 5 7 15 2 8v17l-2 3-1-19-5-16-6-11z" fill="#BEA9F1"/>
<path transform="translate(1214,442)" d="m0 0h9l1 9h-10l-3-4 2-4z" fill="#36425F"/>
<path transform="translate(675,1011)" d="m0 0 10 2v1h-57l1-2h32l14 1z" fill="#332655"/>
<path transform="translate(1330,1008)" d="m0 0 10 1 11 2 7 5v2l-6-2-4-2-18-1z" fill="#93D7D8"/>
<path transform="translate(1048,599)" d="m0 0h21l10 1v2h-28l-13-1v-1z" fill="#2E2A52"/>
<path transform="translate(342,752)" d="m0 0 2 1-5 4 7-3 3 1-16 8-9 3 1-3 15-10z" fill="#A1D9D4"/>
<path transform="translate(1330,339)" d="m0 0h2l2 4v5l-16-1v-2z" fill="#DB121A"/>
<path transform="translate(270,1046)" d="m0 0 11 2 8 5 3 5-1 3-3-3-10-6-8-5z" fill="#A9DAD5"/>
<path transform="translate(966,674)" d="m0 0h2l4 6-1 6-3 9h-1v-6h-7l-1-2 8-1v-9h-2z" fill="#FDFDFD"/>
<path transform="translate(1201,235)" d="m0 0h32l3 1v2h-36z" fill="#F28E52"/>
<path transform="translate(646,744)" d="m0 0h19l3 2-2 2h-20z" fill="#FCFCFC"/>
<path transform="translate(903,512)" d="m0 0 5 1 10 12v3h-2l-1-4-5-1-7-6-1-4z" fill="#F0F8FA"/>
<path transform="translate(940,461)" d="m0 0h1v14l-3 4-2-5-6-3 5-4 3-1z" fill="#EF8A4E"/>
<path transform="translate(317,993)" d="m0 0 16 1v1l-19 1-7 4-4 7-1 2-1 9-2-2v-7l4-8 7-6z" fill="#C6B6EF"/>
<path transform="translate(439,956)" d="m0 0 20 2 3 2-15 1h-12l-1-4z" fill="#EC9C2A"/>
<path transform="translate(647,732)" d="m0 0 25 1 3 2-7 1h-21z" fill="#FCFCFC"/>
<path transform="translate(330,394)" d="m0 0v3l-8 7-3 5 8 1 7 1v1h-16l-4-1 2-4 12-12z" fill="#FCFCF8"/>
<path transform="translate(899,437)" d="m0 0h3v2l-9 5-5 7-2 5-1 7-2-1 2-13 5-7z" fill="#38385F"/>
<path transform="translate(602,1009)" d="m0 0h7l16 4v1h-19l-6-1z" fill="#EAEFF6"/>
<path transform="translate(646,686)" d="m0 0h18l8 1v2h-26z" fill="#FCFCFC"/>
<path transform="translate(391,792)" d="m0 0v3l-5 5h-2l-2 4-6 9h-1l1-7 7-9 2-2 5-2z" fill="#46426E"/>
<path transform="translate(646,709)" d="m0 0h19l-1 3-8 1h-10z" fill="#FCFCFC"/>
<path transform="translate(505,895)" d="m0 0 2 1-3 5-9 32-2 1 1-7 8-27z" fill="#252240"/>
<path transform="translate(646,721)" d="m0 0h21l1 3h-22z" fill="#FCFCFC"/>
<path transform="translate(317,692)" d="m0 0h2l13 24 4 7h-3l-16-29z" fill="#FCFCF8"/>
<path transform="translate(927,468)" d="m0 0 3 1 4 3 4 4h-3l-6-3-8 1-6 1 1-3z" fill="#373752"/>
<path transform="translate(1160,746)" d="m0 0h1l1 16-8-3z" fill="#F4F9F8"/>
<path transform="translate(1119,781)" d="m0 0h29l-4 4-10-1-15-2z" fill="#ECF5F2"/>
<path transform="translate(1118,747)" d="m0 0h2l6 19 2 10-3-1-7-26z" fill="#272340"/>
<path transform="translate(1150,265)" d="m0 0 6 2 14 7-3 3-5-1-2-4-10-5z" fill="#F8F8FB"/>
<path transform="translate(1177,836)" d="m0 0 5 1 3 3 2 5-1 8-1 2h-2l1-9-3-5-1-1-9-1 3-2z" fill="#2A2B49"/>
<path transform="translate(849,590)" d="m0 0h44l3 4-11-2-36-1z" fill="#303155"/>
<path transform="translate(956,586)" d="m0 0h2v3h34v1h-45l3-2z" fill="#E1DEF3"/>
<path transform="translate(1347,452)" d="m0 0h11l-2 5-7 2-2-3z" fill="#95A61D"/>
<path transform="translate(646,698)" d="m0 0h20v2l-3 1h-17z" fill="#FCFCFC"/>
<path transform="translate(357,634)" d="m0 0 2 1-2 4-9 10h-3l2-5z" fill="#FEC94A"/>
<path transform="translate(1394,797)" d="m0 0 2 1-13 13h-2l-2 4-5 1 13-13z" fill="#B3DEDA"/>
<path transform="translate(344,718)" d="m0 0h3l-1 4h-2v2l-11 3-4 1 3-3z" fill="#2C2B4F"/>
<path transform="translate(289,707)" d="m0 0 3 1-2 3h-2l-2 4-7 7-2-2 7-8z" fill="#FEC94A"/>
<path transform="translate(370,666)" d="m0 0h6v2l-12 3h-7v-2z" fill="#FEC94A"/>
<path transform="translate(289,626)" d="m0 0 5 5 6 11v2l-4-2-7-12z" fill="#FEC94A"/>
<path transform="translate(324,620)" d="m0 0h2l-1 16-1 3h-2v-10l1-8z" fill="#FEC94A"/>
<path transform="translate(354,694)" d="m0 0 5 1 12 6v3l-6-2-10-5z" fill="#FEC94A"/>
<path transform="translate(265,652)" d="m0 0 6 2 11 6v2l-5-1-13-7z" fill="#FEC94A"/>
<path transform="translate(685,593)" d="m0 0h22l-2 2-21 1-3 1v-3z" fill="#29274A"/>
<path transform="translate(1221,462)" d="m0 0h16l2 4-10-2h-19v-1z" fill="#C4C9E9"/>
<path transform="translate(313,717)" d="m0 0h1v9l-2 10-2 1 1-17z" fill="#FEC94A"/>
<path transform="translate(473,858)" d="m0 0 2 3 5 15 1 7h-3l-5-21z" fill="#C1AEF1"/>
<path transform="translate(630,805)" d="m0 0 5 1 3 1 7-1 4 3h-19z" fill="#FDFDFD"/>
<path transform="translate(1057,979)" d="m0 0 4 1v2l5 2-2 1-8-3 3 3 5 3-3 1-8-5z" fill="#61518D"/>
<path transform="translate(429,825)" d="m0 0h10l2 1-2 4h-6z" fill="#EF834B"/>
<path transform="translate(273,685)" d="m0 0h6v2l-14 3h-5v-2z" fill="#FEC94A"/>
<path transform="translate(1113,723)" d="m0 0h1l6 22v2l-3-1-4-15z" fill="#322E51"/>
<path transform="translate(612,428)" d="m0 0 9 1 12 6 1 2-9-3-7-3-6-2z" fill="#F6AE6C"/>
<path transform="translate(1311,287)" d="m0 0 4 1 1 4-2 3-5-1-1-2z" fill="#312E56"/>
<path transform="translate(1067,528)" d="m0 0h1l-1 8-6 12-2 1 3-9z" fill="#FDFDFD"/>
<path transform="translate(849,500)" d="m0 0 2 1-18 18v-3l9-10z" fill="#EE6337"/>
<path transform="translate(329,673)" d="m0 0 5 1 2 2v6h-3l1-3-2-3h-3v5l-2 1-1-6z" fill="#F8FAF7"/>
<path transform="translate(412,329)" d="m0 0h1v10l-5 2h-5l-2-4 2-3 1 4h6z" fill="#C9BBEF"/>
<path transform="translate(1358,1033)" d="m0 0h2l2 4h-3v3l1 2h-8l-1-3 5-2v-2h2z" fill="#93D6D7"/>
<path transform="translate(1520,964)" d="m0 0h7l-2 6-6-1-1-4z" fill="#F0F8FB"/>
<path transform="translate(1075,828)" d="m0 0h7l5 3v1h-15z" fill="#F9FAFA"/>
<path transform="translate(1431,760)" d="m0 0v3l-7 7-7 8-2-2z" fill="#A4D9D3"/>
<path transform="translate(309,686)" d="m0 0 5 1 1 5-5 1-2-2z" fill="#FEC94A"/>
<path transform="translate(329,675)" d="m0 0 4 1 2 4-2 3-4-1-1-6z" fill="#FEC94A"/>
<path transform="translate(397,784)" d="m0 0v3l-4 6-4 2-3-1 7-8z" fill="#2A2B4A"/>
<path transform="translate(83,877)" d="m0 0 3 1 2 5-1 4-4-1z" fill="#9ADAD9"/>
<path transform="translate(730,525)" d="m0 0h11v1l-12 3-6 1-1-2z" fill="#F0A730"/>
<path transform="translate(1134,869)" d="m0 0 20 1-3 3-15-2z" fill="#403E69"/>
<path transform="translate(648,445)" d="m0 0 6 2 12 8-2 1-16-9z" fill="#F5A455"/>
<path transform="translate(1126,400)" d="m0 0 4 5 4 8-1 3-3-3-4-10z" fill="#C3CAE8"/>
<path transform="translate(359,741)" d="m0 0h2v3l-9 5-4-1 7-5z" fill="#2C284F"/>
<path transform="translate(967,720)" d="m0 0h2l-1 8-1-4h-8l2-3z" fill="#FDFDFD"/>
<path transform="translate(908,591)" d="m0 0 14 1v2l-7 1-8-2z" fill="#302953"/>
<path transform="translate(330,394)" d="m0 0v3l-8 7-2-1 8-8zm-11 10m-1 1m-1 1m-1 1m-1 1m-1 1 4 2h-4z" fill="#FCFCFB"/>
<path transform="translate(889,446)" d="m0 0v3l-3 7-1 7-2-1 2-13 2-2z" fill="#353B5C"/>
<path transform="translate(339 1e3)" d="m0 0 2 1-1 12-2 1v-13z" fill="#C7B8EF"/>
<path transform="translate(125,912)" d="m0 0 10 3 6 2-2 2-5-1-9-5z" fill="#93D9D9"/>
<path transform="translate(1344,402)" d="m0 0 5 2 6 7v2l-4-2-7-8z" fill="#F1F1F8"/>
<path transform="translate(425,800)" d="m0 0h5l1 3-1 2-8-1-1-2z" fill="#3A345D"/>
<path transform="translate(426,792)" d="m0 0 7 3 2 4-6-2-7-2 4-1z" fill="#292F4B"/>
<path transform="translate(966,743)" d="m0 0 2 2-1 4-11-3v-1z" fill="#FCFCFC"/>
<path transform="translate(1155,637)" d="m0 0h8l-1 2-12 4 2-4z" fill="#2D304F"/>
<path transform="translate(720,529)" d="m0 0h3v2l-9 5-3-1 3-3z" fill="#ED9F2F"/>
<path transform="translate(408,410)" d="m0 0 5 2 2 4-4 2v-3l-4-2z" fill="#FDFDFD"/>
<path transform="translate(1154,661)" d="m0 0 9 1v2l-3 1h-8z" fill="#F0864D"/>
<path transform="translate(1160,865)" d="m0 0 4 1-6 4-4 1-3-2z" fill="#514A7C"/>
<path transform="translate(966,697)" d="m0 0h2v6l-1-2-9-1v-2z" fill="#FDFDFD"/>
<path transform="translate(966,708)" d="m0 0 3 2-1 5-2-2-8-2v-1z" fill="#FCFCFC"/>
<path transform="translate(603,439)" d="m0 0h8l7 2v2l-8-1-7-2z" fill="#D0B5BD"/>
<path transform="translate(449,802)" d="m0 0 4 1-1 4h-3v-2l-4 1v-3z" fill="#343357"/>
<path transform="translate(453,793)" d="m0 0 2 4-4 2h-6l2-3 6-1z" fill="#333759"/>
<path transform="translate(396,400)" d="m0 0 2 1-8 8v3l-3-1 2-5z" fill="#F17C3F"/>
<path transform="translate(634,437)" d="m0 0 7 2 4 3 3 1v2l-7-2-4-3-3-1z" fill="#F6D8AD"/>
</svg>
