<svg viewBox="0 0 2048 769" width="567" height="213" xmlns="http://www.w3.org/2000/svg"><path d="M0 0h2048v769H0z" fill="#FBFBFA"/><path d="M209 265h1411l3 7h3l1 85v102l-1 220h-131l-9-1h-25l-22 1h-308l-12-1h-12l-22 1H266l-75-1-9-5 1-3h5l1-80V269l-3-2z" fill="#C9C8C9"/><path d="M0 0h2048v85H0z" fill="#0B66A2"/><path d="M192 268h891v80l-1 1-58-1v-2l-55 1-2 10 4-8 2-1h6l2 1v14h2v-15h21l2 2v9l-2 4 2-2 1-11 2-3h11l-2 10-1 4 4-12 42 1 20 1v75l-1 4 1 1v38h2v-38h11l9 1v78l1 159-3 2h-32l-11-1-1-35V382H927v270l-1 17h-34V380l-7-1-3-3v-8H750l-1 302-2 1h-14l-30-1-1-1V462l-1-85H572l-1 291-1 2h-45l-1-1V400l-1-48 1-2H392v319h-35V376l-7-1-3-2-1-9H215l-1 5v249l-1 52h-21z" fill="#FCFCFB"/><path d="M417 349h105l2 1 1 50v269l45 1 1-293 1-1h129l1 1 1 85v207l30 1 14 1v1H407l-16-1 1-321z" fill="#0AAD50"/><path d="M199 266h1420v6h-2l-1-3-1424-1v402h21V369l2-6h116l14 1 1 7v299l43 1v1H190l-1-82V269l-3-2z" fill="#0AAD50"/><path d="M750 367h129l2 1 1 21 1 99v183l-5 1H764l-17-1 2-1V368z" fill="#0AAD51"/><path d="M1265 269h174v79l-57 1 57 1v79h-10l-1-1v-32h-7l-4-3v-9h-132v272l-1 13h-35V429l-1-23-5-2-4-3-2-7-2-1-130-1v37l-1 1h-19v-79l51-1h126v79l-6 1 7 1 1-81h61l-1 8-2 5 1-1 4-11 4-2 7 1 1 10v-10h21l1 1 1 13 1-13 2-3h-101v-78z" fill="#FBFBFA"/><path d="M1307 383h106l3 1 1 16 1 269 9 1 34 1v1h-222v-1l12-1h33l1-286zM928 383h131l1 252v35l44 1v1H935l-8-1z" fill="#0AAD50"/><path d="M1105 392h130l3 2 1 48v211l-1 19-40 1h-34l-57-1-2-1-1-162zM1462 400h132l1 1 1 79v132l-1 59-1 1-36 1h-38l-56-1-1-1-1-7-1-261z" fill="#FEDB68"/><path d="M1811 264h18l14 1 4 6 3 2v393l-76-1-3-1v-4l4 1h11v-1h-23l-1-3 7-1 1-20V426l-7-1v-1h7v-39h-7v-1h7v-74l-7-1 2-2 6 1-1-3v-15l1-22-2-1 5-2z" fill="#FDDA68"/><path d="M1441 350h174l1 1v318h-9l1-53V429l-2-16-5-2-5-3-2-7-132-1v269l-1 1h-18l-16-1 1-80V431l2-1h8l3 1-1-2v-47z" fill="#FBFBFA"/><path d="M193 350h177l1 52 1-52h19v319h-34V376l-7-1-3-2-1-9H215l-1 5v220l-10 1h-11v-80l16-1h-16v-77l16-2h-16zM193 269h178v41l-1 38-177 1z" fill="#FCFCFB"/><path d="M1085 269h177v79l-23 1h-154z" fill="#FDFDFC"/><path d="M373 269h175v56l-1 23-6 1h-78l-1 1-90-1v-78z" fill="#FBFBFA"/><path d="M1441 269h175v80h-39l-137-1z" fill="#FDFDFC"/><path d="M1082 268h1v80l-1 1-58-1v-2l-46 1-13-2 1 3-58 1v-80z" fill="#FCFCFB"/><path d="M1772 266h70l-2 3-9-1v80l-1 36-7 1h-33l-6-1-1-43v-72h-10v386l2 1h8V502l3-1h44l1 153 1 2 5 1v1h-67V426l-7-1v-1h7v-39h-7v-1h7v-74l-7-1 2-2 6 1-1-3v-15l1-22-2-1z" fill="#ED4235"/><path d="M0 0h2048v6H0z" fill="#F5F5F4"/><path d="M0 112h174l1 1v65H0z" fill="#0C66A2"/><path d="M1059 383h1l2 10 10 4v32l4 1-4 1v77h20l12 1 1 1 1 159-3 2h-32l-11-1-1-35zM1811 264h18l14 1 4 6 3 2v393l-76-1-3-1v-4l4 1h11v-1h-23l-1-3 7-1 1-11h1v12h61l-2-3V385h-7v-1h7V268l5-1 5 1 1-1-67-1v-1z" fill="#CAC9CA"/><path d="M1083 268h533v1h-175v78l136 1 37 1v2h-165l-8-1v81h-13l1 29v30l-1 18 2 1-1 1v81l-1 76-1 2h16l17 1v1h-37l-6-2-1-285h1l1 9 3 2 7 1 1 7v25l10 1v-79h-57l-1-2h58v-79l-174 1-1 78 69-1h22l10 1-1 3-1 13-2 1-1-14-21-1 1 15-2-1v-14h-7l-4 1-2 9-2 4-2-1 4-13h-61v81l-1 6h-1v-6h-6l-1-2h7v-79l-15 1h-162v79l20-1v3h-9l-11-1v38h-2v-38l-2-1 1-10v-31l1-38h-20l-38-1-4-1-2 9-3 5-1-2 4-11 1-3-11 1-1 2-1 11-3 3-2-1 3-4v-9l-1-1-21-1v15h-2v-14h-8l-3 3-4 10-1-3 4-12-2-1 54-1 3 1v2h58zm2 1v80h157l20-1v-79z" fill="#CAC9CA"/><path d="M1772 266h70l-2 3-9-1v80l-1 36-7 1h-33l-6-1-1-43v-72h-10v386l2 1 8 1v1h-13V426l-7-1v-1h7v-39h-7v-1h7v-74l-7-1 2-2 6 1-1-3v-15l1-22-2-1z" fill="#0B65A1"/><path d="M1773 268h10l1 1v115h6v1h-6v269l-1 2-9 1-2-2V269z" fill="#F9F9F8"/><path d="M192 268h486v1H549v80h56v2h-55l-1 53-1 8h-1v-61l-22-1-1 4-1-2 1-2-61-1v-1h84v-23l1-56H373l-1 80h45v1h-25v319h-1l-1-318-18-1v52l-2 4-1-55H197l-4-1v80l16-1 2 2-8 1h-10v77l5-1h14l-3 2h-16v80l11-1h9l1 2v27l-1 52h-21zm1 1v80l177-1 1-38v-41z" fill="#CAC9CA"/><path d="m748 367 2 1-1 302-2 1h-14l-30-1-1-1V462l-1-85-128-1v-1h129l1 1 1 11 10 2 1 1 1 41v80l-1 158h33z" fill="#CAC9CA"/><path d="M199 266h1420v6h-2l-1-3-1424-1v402l22-1v2l-6 1h-18l-1-82V269l-3-2z" fill="#202228"/><path d="M524 354h1v7l9 1 2 3 1 91v109l-1 97-1 7h35v1h-45l-1-1zM345 364h1l1 9 10 3 1 21v273h-12zM1238 398l1 3 10 5v23l3 1-2 1v227l-1 11h35v1l-36 1h-10z" fill="#CAC9CA"/><path d="m1829 326 2 3v19l-1 36-7 1h-33l-6-1-1-43v-12l1-2z" fill="#0AAD50"/><path d="m1074 509 30 1v80h-25l-7-1v-79z" fill="#FDFDFC"/><path d="M1072 591h31l1 1 2 77-2 1h-13l-19-1z" fill="#FCFCFB"/><path d="M1083 268h356v1l-174 1-1 78 69-1h22l10 1-1 3-1 13-2 1-1-14-21-1 1 15-2-1v-14h-7l-4 1-2 9-2 4-2-1 4-13h-61v81l-1 6h-1v-6h-6l-1-2h7v-79l-15 1h-162v79l20-1v3h-9l-11-1v38h-2v-38l-2-1 1-10v-31l1-38h-20l-38-1-4-1-2 9-3 5-1-2 4-11 1-3-11 1-1 2-1 11-3 3-2-1 3-4v-9l-1-1-21-1v15h-2v-14h-8l-3 3-4 10-1-3 4-12-2-1 54-1 3 1v2h58zm2 1v80h157l20-1v-79z" fill="#C8C6C8"/><path d="M1773 268h10l1 1v38l-1 2h-10l1 153h6v2h-7l1 114h9v-34h1v110l-1 2-9 1-2-2V269z" fill="#CAC9C9"/><path d="M701 268h381v1H908l1 79h57l-3 2h-55v31l-1 31h-1l-1-25v-18l1-18h-67l-28-1v-2h2v-4h3v3h9v-16h2l2 16 10 1h56l10-1 1-78H729l-1 80 57-1v-2h2l2-9 1-5-1-2h4l-1 6-3 12 13-2 3-1-1-9 3 3-1 7-1 3-3 1-17 1h-57v61l-1 19h-2l1-75 1-5h-56l-4-2h59v-58l1-22h-26z" fill="#C4C3C4"/><path d="M202 591h12v27l-1 50-1 1h-19v-77z" fill="#FCFCFB"/><path d="M1773 309h11v75h6v1h-6l-1 41-2-1h-8z" fill="#F8F8F7"/><path d="M1772 266h13l-4 2-8 1v386l2 1 8 1v1h-13V426l-7-1v-1h7v-39h-7v-1h7v-74l-7-1 2-2 6 1-1-3v-15l1-22-2-1z" fill="#212228"/><path d="M727 291h1v58l57-1v-2h2l2-9 1-5-1-2h4l-1 6-3 12 13-2 3-1-1-9 3 3-1 7-1 3-3 1-17 1h-57v61l-1 19h-2l1-75 1-5h-56l-4-2h59v-57z" fill="#CAC9CA"/><path d="M1880 434h27v21h-26l-1-1z" fill="#FEDB68"/><path d="M1881 479h13l13 1v20l-1 1-26-1v-20z" fill="#0AAE51"/><path d="M1881 388h26v21h-27v-20z" fill="#EE4336"/><path d="M517 37h12l5 3 3 3 1 3v9l-4 6-4 3-3 1h-7l-4-2V38z" fill="#F0F0F0"/><path d="M1880 514h27v19l-1 1h-25l-1-1z" fill="#0B66A2"/><path d="M498 207h11l6 4 2 4v13l-4 5-6 3h-9l-1-1v-27z" fill="#F4F3F3"/><path d="m1009 717 7 1h8l3 3 3 1 5 8v6l-4 5-7 3-5-1-6-4-3-6-1-4 4-5h2l1-4-8 3-3-2v-3z" fill="#EEEEED"/><path d="M494 727h3l-1 4-4 8-1 1v6l5 1 13-5-1-4-3-4 4 2 4 4v2l4 2 2 2-1 4-9 10 1 5 2 4h-2l-7-8-15-15-4-9-7-1v-2l11-3v-2z" fill="#CBCBCB"/><path d="m160 496 5 2 2 3v13l-2 3-7 1-3-5v-3l-3 1-4 6-5 1-4-4-1-3v-8l4-6 7 1 4 6 1-2h2l2-5z" fill="#F0F0F0"/><path d="m142 578 7 1 4 6 1-2h2l2-5h6l3 5v12l-3 3h-7l-2-3v-3l-4 2-4 4h-6l-3-5v-10z" fill="#EDEDEC"/><path d="m144 334 5 2 4 6 1-2h2l2-5 5-1 4 5v13l-3 3h-6l-3-4v-4h-3l-2 5-2 3h-7l-3-6v-9l4-5zM144 415l5 2 3 5v2h2v-3h2l1-4 1-1h6l3 4v12l-3 4h-6l-3-4-1-6h-2l-1 5-4 5h-6l-3-5v-10l4-5z" fill="#F3F3F2"/><path d="M608 43h19l4 2 3 10-1 9-4 1-2-3V50l-5-1v14l-4 2-3-2-1-12-3-2-1 15h-5l-2-3 1-15 1-2z" fill="#EFEFEE"/><path d="M1831 701h4v2l4 1 6 9-1 6-5 5-3 2h-6l-8-6-3-5 1-5 2-3 5-3zM780 35l4 1v26l-2 2-4 1h-7l-5-3-2-4v-8l4-5 5-2h4l1-7z" fill="#F0F0EF"/><path d="M142 255h5l3 3v2h2l1 3 1-2h2l1-5 1-1h6l3 4v12l-5 4-5-1-2-4v-3l-4 2-4 5h-7l-2-4v-11z" fill="#F2F2F1"/><path d="M1773 268h10l1 1v38l-3 1h-8z" fill="#F7F7F6"/><path d="M641 43h9l5 3 3 6-1 7-5 5-2 1h-6v6l-1 1h-5l-1-1V54l2-10z" fill="#F1F1F0"/><path d="M1773 580h9l2 1v36l-2 1h-9z" fill="#F8F8F7"/><path d="M1869 529h1l1 13 5 1 172 1v2h-172l-7-1z" fill="#CAC9CA"/><path d="M826 36h9l6 2-1 4-11 1-2 3h7l2 1v5l-1 1-7 1 1 4h10v6l-4 1h-10l-4-3V38z" fill="#EFEFEF"/><path d="M736 43h7l5 4 2 4-1 9-5 4-2 1-9-1-4-5v-9l5-6z" fill="#EFEFEE"/><path d="m627 214 8 2 3 4 1 9-5 6-2 1h-6l-2-1v9h-4v-25l1-3z" fill="#F4F4F3"/><path d="m13 139 6 1 5 5 1 7-5 8-4 2-6-1-5-5-1-2v-8l5-6z" fill="#F0F0EF"/><path d="M863 215h12l4 4 1 3v8l-5 5-2 1h-8v8h-3v-28z" fill="#F4F4F3"/><path d="m887 43 8 1 4 4 1 8-3 6-5 3h-6l-6-5-1-2v-8l5-6z" fill="#F1F0F0"/><path d="m1708 206 2 1v27l-3 2h-9l-5-4-1-2v-8l6-7h8l1-8z" fill="#F1F1F0"/><path d="M1773 619h9l1 1v34l-1 1h-8l-1-5zM1773 541l1 2h9v35l-10 1z" fill="#FDFDFC"/><path d="M588 43h6l5 4 1 2v7l-4 8-8 1-6-3-2-4v-7l4-6z" fill="#F2F2F1"/><path d="M667 43h6l5 3 2 4-1 6-3 7-3 2-9-1-4-4-1-5 2-7 4-4z" fill="#EEEDED"/><path d="M547 43h8l5 6 1 4-4 9-4 3-8-1-4-4-1-9 4-6z" fill="#F3F3F2"/><path d="m708 35 5 2 1 5 8 2 3 3 2 10-1 7h-6l-1-1-1-12-4-1-1 14h-6l-1-28z" fill="#F1F0F0"/><path d="M22 498h10l5 3 3 9-1 3-4 1H17l-3-3 1-8 4-4z" fill="#F2F2F2"/><path d="m1786 207 3 1-1 27-2 1h-10l-4-4-2-8 3-6 6-4 5 1zM918 43h7l5 3 2 4v13l-6 2h-8l-5-5v-6l2-3 1-7z" fill="#F3F3F2"/><path d="m783 214 6 1 4 4 1 2v10l-1 3-4 2h-8l-5-5-1-2v-7l3-5z" fill="#E2E2E2"/><path d="m570 214 7 2 4 5v10l-5 5h-9l-4-5-1-2v-7l4-6z" fill="#EFEFEE"/><path d="m1801 214 7 2 3 3 1 3v8l-4 5-7 2-7-6-1-9 4-6z" fill="#F2F2F1"/><path d="M717 215h8l4 4 1 2v9l-4 5-2 1h-7l-4-4-1-2v-10z" fill="#F3F2F2"/><path d="m651 214 7 2 2 3 1 12-4 5h-9l-4-4-1-3v-7l4-6z" fill="#ECEBEB"/><path d="M890 215h7l5 5v11l-5 5h-7l-4-4-2-8 3-7z" fill="#F2F1F1"/><path d="M1117 207h11l4 4 1 4-3 5-2 4 7 11h-3l-8-10-5-3-1 14h-3v-13l1-15zM1092 207h13l3 2 1 3v7l-5 5h-9v12h-3z" fill="#212228"/><path d="M791 43h7l5 3 2 5v11l-1 2-12 1-5-3v-9l3-3 3 2 2 6 2-1-2-3v-5h-5v-5z" fill="#F3F2F2"/><path d="M689 43h7l5 3 2 5v11l-2 2h-5l-1-12-1-2h-3l-1 13-1 1h-5l-1-2V48l2-4z" fill="#EEEEED"/><path d="M189 269h1v240h-1v-76h-7l-1-3h8v-79h-6v-2h6z" fill="#C4C3C4"/><path d="M671 722h4l3 5 1 5-8 11-7 1-5-2-2-3 1-4 5-3 7-6z" fill="#EDECEB"/><path d="M1959 481h2l-2 6h5l1-5h3v7l9-3 6 1v-5l2-1 1 7h5l-1 6h-2v2l-4 3h-2v-2h-2l1-8-8 1-2 7-7 1-2-8-1 2h-2v5l-3 1 1-10-1-2z" fill="#ADADAE"/><path d="M2000 516h1v7l9-3 5 4-1 6-4 3h-3l-2-3-5 2-1 1h-5l-5-4 1-4 5-5 3-1z" fill="#212228"/><path d="m33 427 6 2-1 7-5 4 5 4-1 2-6-5h-4l-1 3-5 4h-5l-1-7 2-3 3-1v-2l-4-4 1-2 5 4v2l6 1v-5z" fill="#7D7D81"/><path d="M845 43h8l2 2v4h-4l1 2 4 2 1 2v6l-7 4-7-1-1-5 7-1v-2l-5-1-2-2v-7z" fill="#E8E8E8"/><path d="m115 496 6 2 2 3v10l-3 6-6 1-4-5-1-3v-7l4-6z" fill="#F0F0EF"/><path d="M567 43h7l2 1v5l-3 1-1 2 6 1v7l-4 4-8 1-3-4 1-3 5 1v-3l-5-2-1-1v-6z" fill="#EAE9E9"/><path d="m115 334 5 1 3 4v10l-3 5-1 1h-6l-3-4-1-10 4-6z" fill="#F2F2F1"/><path d="M113 416h7l3 4v10l-3 5-1 1h-6l-4-6v-8z" fill="#F4F4F3"/><path d="M866 43h7l3 3v4h-10v7l5 1h5v5l-4 2-9-1-4-4V50l5-6z" fill="#eee"/><path d="m1739 488 7 1 1 1v17l-2 2h-7l-3-5v-13h2v-2z" fill="#ECEBEB"/><path d="m1694 605 7 1 2 3v12l-3 4-6 1-3-3-1-3v-9l3-5zM1693 372h7l3 3v13l-4 4h-6l-3-5 1-13z" fill="#F0F0EF"/><path d="m1741 604 5 2 1 1v16l-1 2-7 1-3-2-1-3v-10l3-6z" fill="#EDECEC"/><path d="M113 578h6l4 5v8l-2 5-2 2h-6l-3-4-1-7 2-7z" fill="#F1F1F0"/><path d="m1739 566 7 1 1 1v17l-4 2h-5l-3-5v-10l2-5z" fill="#EDEDEC"/><path d="m1740 527 6 1 1 1v17l-3 2-7-1-2-4v-11l2-4z" fill="#eee"/><path d="M1739 449h5l3 2v17l-2 2h-7l-2-1-1-4v-9l2-5zM1738 372h7l2 1v18l-2 1h-8l-2-4v-11z" fill="#EEEEED"/><path d="m1741 410 6 2v18l-2 1h-7l-2-1-1-4v-9l3-6z" fill="#EDEDED"/><path d="m114 658 5 2 3 4v9l-5 5-7-1-2-4v-8l3-5z" fill="#EFEFEE"/><path d="m1694 566 7 1 2 3v12l-5 5-5-1-2-3v-14z" fill="#F0EFEF"/><path d="m1694 527 7 1 2 3v12l-4 5h-5l-3-3v-14z" fill="#EFEEEE"/><path d="m1694 645 7 1 3 6v6l-4 6-6 1-3-3-1-10 3-6z" fill="#F0EFEF"/><path d="m1724 604 5 2 2 3v12l-5 5-5-1-2-3v-12l3-5z" fill="#EFEFEE"/><path d="m1694 488 6 1 3 3v13l-5 4-6-1-1-2-1-10 3-7z" fill="#EEEEED"/><path d="m1694 449 6 1 3 3v12l-4 5h-6l-2-3v-14z" fill="#F2F2F2"/><path d="m1695 410 5 1 3 3v12l-4 5h-6l-2-3-1-7 2-9z" fill="#F1F1F1"/><path d="m1722 566 7 1 2 3v13l-4 4h-5l-3-4v-12z" fill="#F2F2F1"/><path d="m1723 488 6 1 2 3v12l-3 5h-6l-3-3v-12l3-5z" fill="#F1F1F0"/><path d="m1723 449 6 1 2 3v12l-3 5-5 1-4-5v-11l3-5z" fill="#F0F0EF"/><path d="m1723 410 5 1 3 3 1 5-2 10-2 2h-7l-2-4v-12zM1723 254l6 2 2 3v9l-2 5-4 2-5-1-2-4v-9l3-5z" fill="#F0EFEF"/><path d="m114 255 7 1 2 4v7l-2 5-5 3-5-3-2-4v-7l3-5z" fill="#F0F0EF"/><path d="M498 207h11l6 4 2 4v13l-4 5-6 3h-9l-1-1v-27zm4 2-2 2v20l2 3 6-1 5-5 2-4-1-9-4-5-2-1z" fill="#212228"/><path d="m1723 527 6 1 2 3v12l-2 4-6 1-4-4v-11l2-5z" fill="#EFEFEE"/><path d="M1738 255h7l2 2v16l-4 2-6-1-2-4v-9l2-5z" fill="#EEEEED"/><path d="M1677 255h6l3 3v13l-3 3h-7l-3-6v-7z" fill="#F0F0EF"/><path d="M141 659h6l4 5v9l-5 5h-5l-3-4v-12z" fill="#EFEFEE"/><path d="M1722 372h6l3 4v12l-3 4h-6l-3-4v-11z" fill="#F1F0F0"/><path d="M1014 345h7l2 1-3 9-3 7-2 1 3-9 2-7-11 1-1 2-1 11-3 3-2-1 3-4v-9l-1-1-21-1v15h-2v-14h-8l-3 3-4 10-1-3 4-12-2-1z" fill="#CAC9CA"/><path d="m1755 214 6 2 3 3 1 15-5 2h-8l-3-4 1-5 4-4h7l-2-5h-8l1-3zM818 215h7l4 3 2 12-1 5-3 1h-9l-3-2-1-6 5-4 4-1 4 1-2-6-8-1z" fill="#212228"/><path d="M1737 294h8l2 2v16l-2 1h-8l-2-5v-8z" fill="#EFEEEE"/><path d="M158 659h7l2 4v11l-3 4h-6l-2-4h-2v-9h2l1-5z" fill="#ECEBEB"/><path d="M1737 333h8l2 2v16l-2 1h-7l-3-5v-9z" fill="#F0EFEF"/><path d="m1723 645 6 1 3 6-1 8-2 4-7 1-3-4v-11z" fill="#EFEFEF"/><path d="m1695 293 6 2 2 2v12l-4 4h-6l-2-3v-13z" fill="#F0F0F0"/><path d="m1695 254 6 2 2 2v12l-3 4h-7l-2-3v-13z" fill="#F0F0EF"/><path d="M97 255h5l3 4 1 7-3 7-1 1h-7l-3-7 1-7z" fill="#EEEEED"/><path d="M29 140h8l3 5h-7l2 2 4 1 1 2v8l-4 3h-9l-1-4 6-2h2l-3-3-5-4v-5z" fill="#ECEBEB"/><path d="m1740 645 6 1 1 1v16l-3 2h-5l-3-3-1-3v-7l3-6z" fill="#EDEDED"/><path d="M1693 333h7l3 3v12l-4 4h-6l-2-3v-12z" fill="#F2F2F2"/><path d="m1724 293 5 2 2 2v12l-3 4h-7l-2-3v-10l2-5z" fill="#EFEFEE"/><path d="M1722 333h7l2 3v12l-3 4h-7l-2-4 1-13z" fill="#F0EFEF"/><path d="m98 334 5 1 2 3v15l-2 2h-8l-2-2 1-6 1-9zM756 207h9l3 3h-11l-5 4-2 5 1 8 2 4 5 2 7-1 1-4-2-5-1-2 5 1 1 2v8l-5 4-6 1-6-3-4-5-2-5 1-8 4-6z" fill="#212228"/><path d="M904 36h5l1 1 1 28-6-1-1-2-1-16v-9z" fill="#EDEDED"/><path d="m627 214 8 2 3 4 1 9-5 6-2 1h-6l-2-1v9h-4v-25l1-3zm-2 3-2 2v13l2 2 7-1 4-4v-7l-5-5zM863 215h12l4 4 1 3v8l-5 5-2 1h-8v8h-3v-28zm3 2-1 1v15l3 2 8-4 2-3-1-7-4-4zM1708 206l2 1v27l-3 2h-9l-5-4-1-2v-8l6-7h8l1-8zm-9 11-4 5-1 6 5 6h6l2-2v-13l-1-2zM1140 207h17l-1 2h-13v10l9-1 1 3h-9v11l1 1h11v3h-15l-1-1z" fill="#212228"/><path d="m1027 726 4 1 2 3-1 7-7 5-6-1-3-4 6-7z" fill="#F1F1F0"/><path d="M1831 701h4v2l4 1 6 9-1 6-5 5-3 2h-6l-7-6v-2l3-1 2 5 7 1 5-3 2-3-1-6-4-1-3 3-5 3-2-1 7-8h2l-1-2h-5l-6 5-2 4h-3l1-4 2-3 5-3z" fill="#8D898B"/><path d="M99 416h3v7l3 3v7l-2 3h-7l-3-4 1-9z" fill="#46474C"/><path d="M494 727h3l-1 4-4 8-1 1v6l5 2 3 6-1 2-10-10-4-9-7-1v-2l11-3v-2z" fill="#DDDCDC"/><path d="m1924 435 7 1 3 11v3l-6 4-5-1-1-1 1-15z" fill="#E7E6E6"/><path d="m1786 207 3 1-1 27-2 1h-10l-4-4-2-8 3-6 6-4 5 1zm-6 9-6 4-2 6 2 5 4 3h6l2-6-1-11z" fill="#232228"/><path d="M645 338h6l2 5v9l-3 4-6-1-1-2v-10z" fill="#EFEFEE"/><path d="M1371 349h8l2 16-1 1h-7l-3-1z" fill="#918E90"/><path d="M1157 355h6l2 4-1 8-4 5h-2l1-5h-2l-1-4-4 2-2 6-2 2-4-1 5-4 3-6z" fill="#E7E7E6"/><path d="m1801 214 7 2 3 3 1 3v8l-4 5-7 2-7-6-1-9 4-6zm-1 3-4 4v7l3 5 5 1 5-4 1-5-2-6-3-2z" fill="#212228"/><path d="M314 728h5l-3 9-5 9h-2l-1-7-5-1h-4l1-3 6-1v-2h3v-2z" fill="#9F9D9F"/><path d="M1095 209h8l3 2 1 6-1 3-5 2h-6l-1-2v-8z" fill="#F0F0EF"/><path d="M691 206h1v10l3-1h7l4 4 1 7v8l-4 1v-12l-2-6-7 1-1 3v15l-3-1v-28z" fill="#212228"/><path d="m143 336 5 2 2 3v8l-4 4-5-1-2-8 2-6z" fill="#F1F0F0"/><path d="M267 327h2l3 9v2h2v2l5 1 1 3 2 1-10-2-6 1-4-4 2-9z" fill="#EDEDEC"/><path d="m783 214 6 1 4 4 1 5-1 2h-11l1-2h9l-4-6-4-1-4 3-1 9 4 4 9-1v2l-3 2h-8l-5-5-1-2v-7l3-5z" fill="#212228"/><path d="M142 499h5l3 4v8l-4 4-5-1-1-2v-10z" fill="#F0F0EF"/><path d="m1841 214 5 1 4 4 1 4-2 3-7 1-2-1 1-3 7 1-2-5-2-2-5 1-3 6 1 8 8 1h3l-1 3h-9l-5-5-1-8 4-6z" fill="#212228"/><path d="m570 214 7 2 3 4v5l-1 1h-10l-1-2h10l-2-5-7-1h-2l-2 8 3 6 7 1 3 1-2 2h-9l-4-5-1-2v-7l4-6z" fill="#202228"/><path d="m530 214 5 1 5 5-1 5-1 1h-9l1-2h8l-3-6-5-1-3 3-1 9 4 4 8-1-2 4h-8l-5-5-1-2v-7l3-5z" fill="#212228"/><path d="m1967 440 5 1v3h4l1-3h5l3 3v6l-5 4-4-2-4-5-2-5-6 3 2-4z" fill="#404046"/><path d="M158 580h5l2 3v11l-2 2h-5l-4-9 2-1z" fill="#EEEEED"/><path d="m143 256 4 2 3 4v6l-3 4-4 1-3-3-1-7 2-5z" fill="#F0F0EF"/><path d="M999 215h7l3 2 1 3v16h-4v-18h-7l-1 1-1 17h-3v-14l1-5zM717 215h8l4 4 1 2v9l-4 5-2 1h-7l-4-4-1-2v-10zm2 2-5 4v9l4 4 7-1 3-5-1-8-4-3zM1032 215h7l4 3 2 17-4 1h-9l-3-3-1-5 4-4h6l-4 3h-3l1 5 2 1h6l1-6-2-9-9-1zM671 215h7l4 3 1 5v12l-3 1-1-16-1-2h-7l-1 1v17h-3l-1-5v-12l2-3zM590 215h8l1 3 3 1v16l-4 1-1-19-7 1-1 2v16l-3-1v-18zM651 214l7 2 2 3v6l-1 1h-8v-2h6v-5l-2-1h-6l-2 3v9l3 3h6l4-1-3 4h-9l-4-4-1-3v-7l4-6zM142 578l7 1 6 8 3 8h5l1-1v-11l-1-2h-6l1-3h6l3 5v12l-3 3h-7l-3-6v-4h-3l-4-7h-5l-2 1zm14 3 1 3-1 2h-2v-3h2zM890 215h7l5 5v11l-5 5h-7l-4-4-2-8 3-7zm2 2-5 3v10l4 4 6-1 3-3v-9l-3-3z" fill="#212228"/><path d="M1682 490h3l1 11-2 6h-5l-5-3 1-4 4-6h2z" fill="#E6E6E6"/><path d="M1991 391h2l1 8h2l-2 6-2 3-4-1v-10h-5l1 11-3-1v-10l1-3 6 1 2 1z" fill="#9D9B9D"/><path d="M523 43h5l3 3v8l-5 5-4-2V44z" fill="#0B66A2"/><path d="M825 718h20l-5 5-2 6-6 3h-2l2-6-1-4-5-2z" fill="#717175"/><path d="M1119 209h8l3 3-1 6-3 3-7-1-1-1v-9z" fill="#EFEFEF"/><path d="M144 132h9l2 2-1 6-5 3-6-2-2-3 1-5z" fill="#F2D47C"/><path d="M1959 481h2l-2 6h5l1-5h3v7l3 1-2 1-1 5h2l1-2v3l-7 1-2-8-1 2h-2v5l-3 1 1-10-1-2z" fill="#B6B5B6"/><path d="m1679 214 5 2 2 2 1 17-3 1-1-18h-10v18h-3v-19z" fill="#212228"/><path d="M472 717h15l-2 4-9 10-3-1 1-1v-5l-4-4z" fill="#E2E2E2"/><path d="M158 418h5l2 3v11l-2 2h-5l-1-2v-13z" fill="#F3F3F2"/><path d="m1551 362 6 1 2 3-1 7-3 5h-3l-4-11z" fill="#252228"/><path d="m2011 520 5 2 2 2-1 6-4 3h-3l-2-3h-3v-7z" fill="#E8E8E8"/><path d="m1947 484 2 1v2h2v2h2v6l-5 4-5-2-1-7 2-4z" fill="#393A3F"/><path d="m969 215 3 1-1 19-3 1h-9l-3-2-1-3-1-14 3-1 1 13 1 4h7l2-1z" fill="#212228"/><path d="M1191 718h5v2l4-2h3l-1 3-3 1-3 6-6 5h-2l2-4-1-5-4-3v-2z" fill="#6D6D71"/><path d="M1502 363h2v5l3 1 2 6-3 4-7-1-1-6z" fill="#414349"/><path d="m1960 520 6 1 5 4 1-4 6-1-2 4-1 5 2 3v3h-3l-2-4-4-1-3-7-5 1-1 7-3 1 2-10z" fill="#7E7E81"/><path d="M933 207h24l-1 2-9 1v26h-4l1-27h-10z" fill="#212228"/><path d="M1830 704h5l1 3h-2l-2 4-7 7h-2l-1 2-3-6h3l2-5z" fill="#EDEDED"/><path d="M22 498h10l5 3 3 9-1 3-4 1H17l-3-3 1-8 4-4zm2 1-6 3-2 3v6l5 2h9l7-1 1-3-3-7-6-3z" fill="#212228"/><path d="M572 53h6v7l-4 4-8 1-3-4 1-3h2v2l4-1z" fill="#F1F1F0"/><path d="M845 43h8l1 5h-4l-1 7h-5l-2-2v-7z" fill="#F2F2F1"/><path d="M189 429h1v80h-1v-76h-7l-1-3z" fill="#C3C2C3"/><path d="m1564 726 6 2 4 3v3h-2l-3-4-7-1-6 5-2 6 4 4h5l5-5-1 5-5 4-5-1-5-5-1-4 6-9z" fill="#212228"/><path d="M182 509h7l1 1v80h-1v-78h-6z" fill="#BEBDBE"/><path d="m1924 481 6 1 3 5-1 4-6 1-2 6-2-1 1-15z" fill="#A7A7A9"/><path d="m1694 449 6 1 3 3v12l-4 5h-6l-2-3v-14zm0 2-1 2v14l5 1 3-3v-11l-3-3zM1734 215h8l1 4-2-1h-6l-4 4v7l4 4h6l3-1-2 4h-8l-5-4-2-5v-5l5-6zM1027 723l4 1 4 6v6l-4 5-7 3-5-1-5-4v-4l8-7h2v2l-6 5-1 3 4 3 6-1 5-5-1-7-4-3z" fill="#212228"/><path d="m1947 441 5 1 1 1v8l-4 3-5-1v-7z" fill="#A8A8AA"/><path d="m530 216 5 1 3 4v3l-8 1h9v2h-11l-2-1-1 3 1-9z" fill="#E4E4E4"/><path d="M1375 717h6v4h-4l-2 4-7 8h-2l1-4 3-3 4-3 1-3-7 2-2 1-3-2v-2z" fill="#88888B"/><path d="m115 496 6 2 2 3v10l-3 6-6 1-4-5-1-3v-7l4-6zm0 2-4 4v9l2 4 4 1 3-2 1-3v-9l-4-4zM113 416h7l3 4v10l-3 5-1 1h-6l-4-6v-8zm0 2-2 2v10l3 4 5-1 2-3v-9l-2-3z" fill="#212228"/><path d="M1341 347h14l10 1-1 3-1 13-2 1-1-14-20-1z" fill="#CAC9CA"/><path d="m98 336 4 1 1 6v9l-7 1-1-4 2-4 2-1-2-2v-5z" fill="#E6E6E6"/><path d="m115 334 5 1 3 4v10l-3 5-1 1h-6l-3-4-1-10 4-6zm-1 2-3 4v9l3 4 5-1 2-3v-9l-4-4zM1693 372h7l3 3v13l-4 4h-6l-3-5 1-13zm2 1-3 2v12l4 4 5-4v-11l-4-3zM1861 214l5 2v3l-7-2 1 6 8 5-1 7-3 1h-7l-1-3 9-1-2-5-5-2-2-6zM142 497l7 1 3 5-1 10-5 5-5-1-3-6v-8zm0 2-2 3v10l2 3 6-1 2-3v-8l-3-4z" fill="#212228"/><path d="m2027 486 4 1 2 2-1 8-2 2-5-1-2-3 2-7z" fill="#24252B"/><path d="M1040 221h1l1 8-2 5h-6l-3-2v-5l5-2-4-2h8z" fill="#E8E8E8"/><path d="M1947 519h5l1 2v8l-3 4-4-1 4-4v-5l-4-2v9l-2-2v-6h-3l-2 9-3-1 4-10z" fill="#57575B"/><path d="m1724 604 5 2 2 3v12l-5 5-5-1-2-3v-12l3-5zm0 2-3 3v12l2 3 4-1 3-5-1-9-3-3zM1722 566l7 1 2 3v13l-4 4h-5l-3-4v-12zm0 2-1 2v13l2 2 4-1 2-2 1-10-4-4zM1723 449l6 1 2 3v12l-3 5-5 1-4-5v-11l3-5zm0 2-2 3v12l3 3 4-2 2-7-1-6-2-3zM1723 410l5 1 3 3 1 5-2 10-2 2h-7l-2-4v-12zm0 2-2 3v12l1 2h5l2-2 1-10-4-5zM1723 254l6 2 2 3v9l-2 5-4 2-5-1-2-4v-9l3-5zm0 2-3 4v8l2 5 5-1 2-3v-10l-3-3zM114 658l5 2 3 4v9l-5 5-7-1-2-4v-8l3-5zm-2 3-2 3v9l3 3 5-1 2-2v-9l-3-3zM1694 605l7 1 2 3v12l-3 4-6 1-3-3-1-3v-9l3-5zm0 2-2 2-1 7 2 7 4 1 4-4v-10l-2-3zM1694 566l7 1 2 3v12l-5 5-5-1-2-3v-14zm0 2-2 2v10l3 5 5-2 1-2v-10l-2-3zM1723 488l6 1 2 3v12l-3 5h-6l-3-3v-12l3-5zm-1 2-1 3v12l1 2 5-1 3-5v-7l-3-4zM1677 333h7l3 4-1 2-4-4h-5v5h5l1 3-4-1-2-1v8l4 1 2-2 1-4h2l-1 7-1 1h-9l-1-5 1-11zM1557 718l3 1-5 5-6 7-5 2 2-5 5-3v-3l-5-1-1 4-1-3-4-2 4-1zM113 578h6l4 5v8l-2 5-2 2h-6l-3-4-1-7 2-7zm0 2-2 4v7l3 5 5-1 2-3v-9l-2-3zM1723 527l6 1 2 3v12l-2 4-6 1-4-4v-11l2-5zm0 2-2 3v11l2 3 4-1 2-2 1-10-3-4zM1695 293l6 2 2 2v12l-4 4h-6l-2-3v-13zm-1 2-1 1-1 11 2 4 5-1 2-2v-10l-2-3zM144 415l5 2 3 5v3h-2l-3-6-4-1-2 2v11l1 2 5-1 3-6h1l-1 7-3 3h-6l-3-5v-10l4-5zM144 334l5 2 3 5-1 10-3 4h-7l-3-6v-9l4-5zm-1 2-3 3-1 6 2 7 5 1 4-4v-8l-5-5zM1693 333h7l3 3v12l-4 4h-6l-2-3v-12zm2 1-2 1v14l4 2 4-4v-10l-3-3zM1660 207h3v29l-4-1zM1694 527l7 1 2 3v12l-4 5h-5l-3-3v-14zm0 2-2 3v10l1 3 5 1 3-3v-11l-2-3zM1695 410l5 1 3 3v12l-4 5h-6l-2-3-1-7 2-9zm0 2-3 3v11l4 4 5-5v-10l-3-3zM1722 372h6l3 4v12l-3 4h-6l-3-4v-11zm0 2-1 2v12l3 3 5-3 1-10-3-4zM551 214l4 2 1 3-6-1-1 4 7 5 1 6-3 3h-7l-1-3h8l-2-6-6-4v-5zM650 718h17l1 2-6 2-2 6-5 4h-2l1-4 5-4 1-4h-5l-1 4-1-2-3-1zM1009 717l7 1h7l-5 5-7 9h-2l1-5 3-3h2l1-4-8 3-3-2v-3zM1675 566h7l3 4-1 5-6 10 8-2v3l-2 1h-9l1-5 6-9-1-4h-7zM158 416h6l3 4v12l-3 4h-6l-3-4-2-7h2l3 9 6-2v-11l-1-2h-5l-2 4-1-2zM1694 488l6 1 3 3v13l-5 4-6-1-1-2-1-10 3-7zm0 2-2 3v10l2 4 5-1 2-2v-11l-2-3zM1739 449h5l3 2v17l-2 2h-7l-2-1-1-4v-9l2-5zm0 2-2 2v12l2 3h5l2-2v-12l-2-3z" fill="#212228"/><path d="M17 438h8l1 6-5 4h-5l-1-7z" fill="#AFAFB0"/><path d="m1678 293 5 1 3 5-2 9-4 5h-3l6-12-1-5-5-1 1 9h-3l-1-7zM114 255l7 1 2 4v7l-2 5-5 3-5-3-2-4v-7l3-5zm0 1-2 2-2 8 4 6 4 1 3-5v-8l-4-4z" fill="#212228"/><path d="m1694 645 7 1 3 6v6l-4 6-6 1-3-3-1-10 3-6zm0 2-2 3v10l3 3 5-1 2-3v-8l-3-4z" fill="#252228"/><path d="m1739 566 7 1 1 1v17l-4 2h-5l-3-5v-10l2-5zm0 2-2 2-1 8 2 5 2 2 5-1 1-1v-12l-2-3zM1695 254l6 2 2 2v12l-3 4h-7l-2-3v-13zm0 2-3 4 1 11 2 2 4-1 2-3v-10l-3-3zM1741 410l6 2v18l-2 1h-7l-2-1-1-4v-9l3-6zm-1 2-3 3-1 7 3 7h5l2-2v-11l-1-3zM1738 372h7l2 1v18l-2 1h-8l-2-4v-11zm0 2-2 5 2 10 5 2 3-2v-13l-1-2zM837 207h3l1 19 2 8 1 2-5-1-2-15zM1741 604l5 2 1 1v16l-1 2-7 1-3-2-1-3v-10l3-6zm-1 2-4 5 1 10 3 3 5-1 1-1v-12l-4-4zM1740 527l6 1 1 1v17l-3 2-7-1-2-4v-11l2-4zm-1 2-3 4v7l3 5 5 1 2-2v-12l-3-3zM1680 411h2v2l-2 1-3 8v6l6-1v-5l-1-3-2-1h4l2 8-3 5h-6l-3-3v-7l3-7zM1724 293l5 2 2 2v12l-3 4h-7l-2-3v-10l2-5zm-1 2-2 3v11l2 3 5-2 2-5v-6l-3-4z" fill="#212228"/><path d="m780 226 12 1v4l-1 2-8 1-4-3z" fill="#F6F5F5"/><path d="M915 215h5v2l-8 2v17l-4-1v-18z" fill="#232228"/><path d="m1837 705 4 2 4 6-1 6-5 5-3 2h-6l-7-6v-2l3-1 2 5 7 1 5-3 2-3-1-6-4-4z" fill="#252228"/><path d="m160 496 5 2 2 3v13l-2 3-7 1-5-10 2-1 3 7 6 1v-14l-2-2-5 1 1-3zM1677 449h7l1 2-7 1v4l7 3 1 7-4 4-6 1-1-3 8-1v-6l-3-2-5-1v-7zM1738 255h7l2 2v16l-4 2-6-1-2-4v-9l2-5zm2 1-3 3v11l3 3 5-1 1-1v-12l-3-3zM1723 645l6 1 3 6-1 8-2 4-7 1-3-4v-11zm0 2-2 2-1 8 2 6 6-1 2-3v-8l-3-4zM142 255h5l4 5v9l-4 5h-7l-2-4v-11zm1 1-3 3-1 7 2 6 3 1 4-2 2-3v-6l-5-6zM97 255h5l3 4 1 7-3 7-1 1h-7l-3-7 1-7zm1 1-3 3-1 7 1 6 4 1 3-1 2-4v-7l-2-4z" fill="#212228"/><path d="m13 144 4 1 1 1v8l-2 2-5-1-1-2v-6z" fill="#0B66A2"/><path d="M1737 333h8l2 2v16l-2 1h-7l-3-5v-9zm3 1-3 2v12l4 3 4-1 1-2v-11l-1-2z" fill="#212228"/><path d="m823 225 5 1v6l-3 2-7-1-1-4 3-3z" fill="#ECECEB"/><path d="m1739 488 7 1 1 1v17l-2 2h-7l-3-5v-9h1l2 10 1 1h6v-13l-1-2h-5l-3 3 1-5zM1722 333h7l2 3v12l-3 4h-7l-2-4 1-13zm1 1-2 3v11l2 3 4-1 2-2 1-9-2-4zM1737 294h8l2 2v16l-2 1h-8l-2-5v-8zm2 1-2 2v12l4 3 5-2v-11l-3-4z" fill="#212228"/><path d="M14 521h26l-1 3H14z" fill="#8B8B8E"/><path d="M1832 269h7v10h-6l-2-2v-7z" fill="#FDFDFC"/><path d="m849 725 7 2 3 3v2l-4-2-2-2-7 1-3 3h-2v6l5 6v2l-5-2-3-5 1-7 8-6z" fill="#1F2731"/><path d="m1207 723 4 2 5 5-1 2-7-6-4 6-5 2-1 6 5 5-4-1-5-5 1-4 11-10zM141 659h6l4 5v9l-5 5h-5l-3-4v-12zm1 1-3 4v7l3 5 6-1 2-3v-6l-5-6zM159 334l5 1 3 4v13l-3 3h-6l-3-4-2-6 3 1 3 6 5-1 1-8-2-6-6 1z" fill="#212228"/><path d="M1679 417h5l-2 2 2 3v5l-3 2-5-1 1-9z" fill="#EBEAEA"/><path d="m1740 645 6 1 1 1v16l-3 2h-5l-3-3-1-3v-7l3-6zm-1 2-3 7 2 7 2 2h5l1-1v-13l-2-2z" fill="#212228"/><path d="m98 423 4 1 2 6-3 4h-5l-1-7z" fill="#EEEDED"/><path d="M1677 255h6l3 3v13l-3 3h-7l-3-6v-7zm2 1-4 4-1 5 3 7 4 1 4-4v-9l-4-4zM158 659h7l2 4v11l-3 4h-6l-3-4 1-4 3 5h5l1-3v-7l-2-4h-4l-2 7h-2l1-6zM102 498h2l1 17-4 1v-3l2-10-5 5-2 5h-3l1-4z" fill="#212228"/><path d="M1758 225h4v7l-5 2-5-1v-5z" fill="#EFEFEE"/><path d="m1718 214 3 1 1 21-2 1-2-1-1-21zM158 255h6l3 4v12l-5 4-5-1-3-8h2l3 6h5v-13l-2-2-5 1zM604 215h6l3 2 2 17v2l-4-1v-9l-1-7-1-1h-7zM494 727h3l-1 4-4 8-1 1v6l5 2 3 6-1 2-10-10-1-3 2-5 3-3 1-7z" fill="#212228"/><path d="M306 733h3l1 4 4 1-2 7-3 1-1-7-5-1h-4l1-3z" fill="#5F5F63"/><path d="m645 339 3 1-2 1v12h5l-1-12-1-2 3 1 1 3v9l-3 4-6-1-1-2v-10zM94 578h7l3 3-1 7-5 9h7v1H94l2-5 5-7v-5l-7-1z" fill="#212228"/><path d="m738 49 5 1v7l-2 2-5-1-1-1v-5z" fill="#0B66A2"/><path d="M1674 371h11l1 3-6 15-4 3 1-4 5-11 1-4h-9z" fill="#212228"/><path d="m307 716 3 1-2 4-5 3 1-4-7 2h-4v-4z" fill="#6C6C70"/><path d="m2000 521 2 2-1 6-5 3-3-3 1-5 2-2z" fill="#EDEDEC"/><path d="m807 215 5 1v1l-9 1v18h-3v-20z" fill="#212228"/><path d="m444 312 4 1 2 2v8l-3 6h-3l2-5 1-1 1-8-4 1-1 6-2-1 1-7z" fill="#434348"/><path d="M1824 215h5v2l-8 3v16h-3v-19zM1013 215l8 1 1 2 1 18h-3l-1-16-1-2-7-1zM1363 700l5 5v4l-6 4-2 5-2 2-7-1-3-3v-2l4 2 6 1 2-7 5-2-1-5zM1000 700l3 1 2 3-1 5-5 4-2 5-2 2-6-1-3-3v-2l4 2 6 1 2-7 4-2-1-5zM30 474l8 1 1 1v10l-6 5-7 2-3-2 9-2 4-4 1-4-1-4h-7l-3 1 1-3z" fill="#212228"/><path d="M30 421h7l9 4-2 1-2-1H19l-4 1 4-4z" fill="#5C5C60"/><path d="m1967 391 2 1-6 5-4 10-4 1-4-2v-11l2 1 1 9 4-1 2-7 3-3z" fill="#212228"/><path d="m1677 341 6 2v-2h2l1 3h-2l-1 5-2 2-4-1-1-4z" fill="#E6E5E5"/><path d="M1821 659h13l8 1v2l-15 1-11-1v-1l5-1z" fill="#FDFDFC"/><path d="m590 48 3 1 2 9-1 2h-5l-1-2v-7z" fill="#CAC9CA"/><path d="m650 700 5 5-1 4-5 5-5 6-5-1-4-3v-2l4 2 5 1 4-6 4-4zM986 215l7 1v1l-9 1-2 1-1 17h-2v-19zM672 723l4 2 3 3-1 6-7 9-7 1-2-1 1-2 7-1 6-8-1-5-3-2z" fill="#212228"/><path d="M267 327h2l4 11v3h-2v-4h-2l-1-5-2-1-1 10h5v2l-4 1-4-4 2-9z" fill="#404146"/><path d="M887 50h5l1 1v6l-3 2-4-1-1-4zM645 49l4 1 2 2-1 6-5 2-1-1v-9z" fill="#0B66A2"/><path d="m827 700 4 2 1 6-5 4-5 8-5-1-4-3v-2l4 2 3 1 9-9v-4z" fill="#212228"/><path d="M550 48h2v2h2v9h-6v-9h2z" fill="#6A99B3"/><path d="m774 49 3 1 1 7-2 2-5-1-1-5z" fill="#0B66A2"/><path d="M838 329h3v2l3 1v10l-3 4-3-1 4-5v-8l-4 1-1 7-2-3v-6z" fill="#212228"/><path d="m834 720 4 2 1 4-1 3-6 3h-2l2-6 1-5z" fill="#929294"/><path d="M1984 481h1l1 7h5l-1 6h-2v2l-5 2 1-2v-8l-1-1v-5z" fill="#67676B"/><path d="M1770 645h1v12l16 1v1l-24 1-1-3 7-1z" fill="#B7B6B8"/><path d="M139 582h1l1 11 1 2 6-1 2-5h1v5l-4 4h-6l-3-5v-10z" fill="#212228"/><path d="m142 578 7 1 6 8 1 6-2-1v-4h-3l-4-7h-5l-2 1zm14 3 1 3-1 2h-2v-3h2z" fill="#34343A"/><path d="m1945 488 6 1v6l-3 2h-3l-1-7z" fill="#ECECEB"/><path d="m1979 442 4 2v6l-4 2-3-3v-5z" fill="#EAEAEA"/><path d="M1157 355h6l2 4-1 8-4 5h-2l2-5 2-3v-6l-5 1-2 1z" fill="#37383D"/><path d="m1541 700 4 2 1 7-4 4h-2l-2 5-1-4v-5h7l-2-6z" fill="#48484D"/><path d="m1960 520 6 1 5 6v2l-3 1-3-7-5 1-1 7-3 1 2-10z" fill="#20232A"/><path d="m2033 396 2 1-1 8h4v-9l3 1-1 9-7 1-2-2 1-8z" fill="#242228"/><path d="M81 256h4v17h-3v-14h-2z" fill="#212228"/><path d="m1841 214 5 1 4 4 1 4-2 3-7 1-2-1 1-3 7 1-2-5-2-2h-4z" fill="#242228"/><path d="m1385 723 4 2 6 7-2 1-5-5-3-2-2 4 2 4 2 1-1 2-6-5-2-1z" fill="#212228"/><path d="m296 705 1 3-5 4-5 8-5-1-4-2 1-3 4 3 4-1 3-5z" fill="#20232A"/><path d="M1771 636h1l1 19 2 1 8 1v1h-13v-21z" fill="#292328"/><path d="M1958 436h2l1 10 3-1 1 5-7 2z" fill="#505055"/><path d="m1946 521 4 1 1 1v5l-4 4 3 2-5-1z" fill="#E7E6E6"/><path d="m1924 436 4 1-2 1-1 13h5l-2 3-5-1-1-1 1-15z" fill="#212228"/><path d="m1501 369 4 1v2h2l-1 5-4 1-3-3z" fill="#EDECEC"/><path d="m916 48 8 1-2 1 2 4v5l-4-1v-6l-5 1z" fill="#9AB0C0"/><path d="M1376 718h4l-1 3h-2l-2 4-7 8h-2l1-4 8-8zM1682 490h3l-2 5-4 5-1 4-3 1-1-4 5-7h2zM1662 256l4 1v16l-4 1 1-15h-3v-2zM1679 606h3v19l-3-1 1-15h-3v-2z" fill="#212228"/><path d="m2036 394 4 2h-2v9l-4 1-1-2 1-9z" fill="#E1E0E0"/><path d="M1771 659h17l2 3h-15z" fill="#FDFDFC"/><path d="m1551 363 5 1 1 7-4 2-2-5z" fill="#F1F1F0"/><path d="M1372 351h1v12h4v-9h1v10l3-2-1 4h-7l-3-1 1-2z" fill="#CAC9CA"/><path d="m660 338 4 2-1 16h-5v-3l3-6v-6zM484 717h3l-2 4-9 10-3-1 3-5 5-3 1-4zM1831 701h3v2l-9 6-3 5h-3l1-4 2-3 5-3zM302 327h5l1 2-2 11-3 4-3-1 4-6 1-9z" fill="#212228"/><path d="M483 315h4v8l1 6-4 1v-9zm-3 6v3l-2-1z" fill="#3B3C41"/><path d="M1373 720h2l-1 4-4 3h-2l-1 3-1-2v-5l1-2z" fill="#E1E1E1"/><path d="m2028 487 3 2v6l-1 2h-4v-9z" fill="#E5E4E4"/><path d="m33 427 6 2-1 7-4 2v-2h2v-6l-5 1-2 4 1-5z" fill="#686468"/><path d="m1194 355 5 1 2 5-4 11-5 1 6-10-1-5z" fill="#212228"/><path d="M103 346h2v7l-2 2h-8l-2-2 1-4 2 3h7z" fill="#20232A"/><path d="M1763 267h6l2 1v22h-1l-1-20h-6z" fill="#B9B9BA"/><path d="m112 256 2 1-3 9 4 6 2 1-1 2-5-3-2-4v-7z" fill="#39393F"/><path d="M1691 652h1l1 10h7l2-4 1 2-5 5-5-1-2-2-1-9z" fill="#212228"/><path d="M1544 719h11l-2 5-2-2-5-1-1 4-1-3-4-2z" fill="#6D6D70"/><path d="M1822 692h2l-1 5-1 2-6 3-4 4h-2l1-3 8-7zM1682 534l1 3 2 4-1 6-7 1-3-3h7l1-4v-3h-2z" fill="#212228"/><path d="m2011 520 5 2 2 2-1 6-4 3h-3v-2l5-3-1-5-6 1z" fill="#262228"/><path d="m1948 520 5 1v8l-3 4-4-1 4-4v-5zM251 326h6l1 3-4 11-2 3-2-1 4-9 1-6z" fill="#212228"/><path d="m789 45 1 4h5l3 9h-4l-3-7h-2z" fill="#719BB7"/><path d="m1817 687 3 1-10 9-4 5h-2l2-4zM1940 434l2 1-1 6v10l-1 2-3-1 1-2v-10z" fill="#212228"/><path d="M650 718h12l-2 4v-2h-5l-1 4-1-2-3-1z" fill="#77777B"/><path d="M1927 517h2l-1 4-4 9-3 2 1-4 4-10zM1959 481h2l-1 6-1 10-3 1 1-10-1-2z" fill="#20232B"/><path d="m670 726 1 2-3 5-5 2-4 4v-3l9-9zM849 725l7 2 3 3v2l-4-2-2-2-7 1-3 3-2-1 4-4z" fill="#262228"/><path d="M655 720h5l-1 5-3 3h-2l-1-4z" fill="#E6E5E5"/><path d="m1009 717 8 1v2l-7 2h-3l-2-1v-3z" fill="#88888B"/><path d="m102 424 3 2v7l-2 3h-7l-1-2 7-2 1-3zM625 338l2 1 1 9-1 7-5 1 3-7v-7l-1-3z" fill="#212228"/><path d="M1208 725v3l-2 5 4 2-1 2h-3l-1-2-5-2 4-1 2-5z" fill="#AFAFB1"/><path d="M472 717h7l-1 4-6 1-2-3z" fill="#868689"/><path d="m1985 520 4 1-1 10-2 2h-3l2-4 1-1v-5zM980 347l4 1-1 15h-2z" fill="#212228"/><path d="m470 700 3 1 2 4-1 4-5 2-1 5-2-1 1-5 5-2-1-5z" fill="#20242B"/><path d="m1822 697 1 4v5l2 1-3 1-3 3v-12h3z" fill="#CAC9CA"/><path d="m1972 392 3 1 2 7-1 6-3 1v-11zM292 328h2l-1 8-3 7-4 1 5-9zM789 330h4l-1 6-4 12h-2l3-11 1-5zM432 312l4 1-4 16-3 1 3-10z" fill="#212228"/><path d="M156 258h1v10l-1-2-5 2v-8l2 3 1-2h2z" fill="#ACABAD"/><path d="M1546 721h5l1 4-6 3-1-3z" fill="#EAEAE9"/><path d="m2000 486 7 2 1 2v7l-3 1v-9l-6-1zM2023 393h3l1 14h-3zM1360 349h3v15l-2 1zM1323 348h6l-6 16-2-1 3-8 1-6z" fill="#212228"/><path d="M156 338h1v11l-3-3-2 1-1 2 1-7 4-2z" fill="#ABAAAC"/><path d="M611 338h3l-2 11-3 6h-2l2-5 2-8z" fill="#212228"/><path d="M580 221h1v10l-3 3-2-2 2-1 1-4h-10v-1l10-1z" fill="#C4C3C5"/><path d="m658 735 2 1h1l3 4 4 2h-9l-2-3z" fill="#CAC9CA"/><path d="M1012 720h4l-1 4-5 3-2-4z" fill="#E6E6E6"/><path d="m1975 486 4 2-7 3-2 5h-2v-6l4-2z" fill="#1F262F"/><path d="M33 430h3v6l-6 1 1-6z" fill="#F9F9F8"/><path d="m154 421 3 1v8l-2-3v-2l-2 1-2 4-2-1v-7l1 3 4-1z" fill="#CAC9CA"/><path d="M1515 362h5l1 3-5 13h-2l3-9 1-6zM1019 345l4 1-3 9-3 7-2 1 3-9zM15 475l3 1-1 6 3 5 3 4-4-2-4-5-1-7zM2000 394h2v14l-3-1z" fill="#212228"/><path d="M1550 363h1l3 12-2 1-4-8z" fill="#838286"/><path d="M967 346h5l-3 9-3 7-1-3 4-12z" fill="#212228"/><path d="m590 48 2 1v4l-2 1-1 3h3l1-2v4l-5-1v-7z" fill="#0A689F"/><path d="m1837 705 4 2 4 6v4h-2l-3-7-3-3z" fill="#212228"/><path d="m1770 616 1 2-1 3h-7l-1-4h7z" fill="#ADADAF"/><path d="M156 500h1l-1 9-1-2-2 3-2 1 1-7 4-2z" fill="#A8A7A9"/><path d="m1992 486 4 2-1 11h-3l1-10zM1923 482h1l2 10-2 6-2-1zM1929 437h2l3 10v3l-4 1 1-4-1-1zM1146 356l1 3-4 12-2-2 2-9zM517 747h2l-2 4-8 7-2-1 5-5z" fill="#212228"/><path d="M1769 537h1v8l-7-1v-4l6 1z" fill="#B2B1B3"/><path d="m1965 523 3 3 1 5-6 1z" fill="#B8B7B9"/><path d="M1684 494h1l1 7-2 6h-4l2-4z" fill="#212228"/><path d="m1947 441 5 1-4 1-2 9-2-1 1-7zM2008 396l2 2v9l-3-1v-9z" fill="#20242C"/><path d="m1982 395 3 1-1 1v11l-3-1v-10zM804 336l3 3-1 7-1 2-6 1v-2l6-2zM488 730l2 1-3 2-2 3h-8v-2zM1944 395l3 1v10l-5 1 2-1z" fill="#212228"/><path d="M1154 360v3l-5 9-5 1 6-7 3-5z" fill="#282328"/><path d="M1000 347h3l-1 14-3 3-2-1 3-4z" fill="#212228"/><path d="m273 338 1 2 5 1 1 3 2 1-10-2h-2l1-3 2 1z" fill="#CAC9CA"/><path d="m98 336 4 1v5h-5v-5z" fill="#F0F0EF"/><path d="m501 758 5 1 6 8v2h-2l-7-8z" fill="#212228"/><path d="m2008 521 2 1v3l-1 5h-4v-7z" fill="#AAAAAC"/><path d="M2015 484h3v15h-2v-12h-2z" fill="#212228"/><path d="M838 329h3v3l-3 1-1 7-2-3v-6z" fill="#78787C"/><path d="M1772 266h13l-4 2-10 1-2-2z" fill="#20242C"/><path d="m670 48 2 1v4l-2 1-1 4 4-1-1 2h-4v-8z" fill="#0B66A2"/><path d="m1023 718 7 4-3 1v2l2 1-5 3 1-7-5-1z" fill="#B6B5B7"/><path d="M1763 501h7l-1 4h-6z" fill="#969598"/></svg>