<svg version="1.2" xmlns="http://www.w3.org/2000/svg" viewBox="0 0 500 500" width="500" height="500">
	<title>8188947</title>
	<style>
		.s0 { fill: #9aceee } 
		.s1 { opacity: .7;fill: #ffffff } 
		.s2 { fill: #263238;stroke: #263238;stroke-miterlimit:10 } 
		.s3 { fill: #263238 } 
		.s4 { fill: none;stroke: #263238;stroke-linecap: round;stroke-miterlimit:10 } 
		.s5 { fill: #54afe7;stroke: #263238;stroke-miterlimit:10 } 
		.s6 { fill: #92e3a9;stroke: #263238;stroke-miterlimit:10 } 
		.s7 { fill: #ffffff;stroke: #263238;stroke-linecap: round;stroke-miterlimit:10 } 
		.s8 { fill: none;stroke: #858585;stroke-miterlimit:10 } 
		.s9 { fill: #ffffff;stroke: #263238;stroke-miterlimit:10 } 
		.s10 { fill: #9aceee;stroke: #263238;stroke-miterlimit:10 } 
		.s11 { fill: none;stroke: #263238;stroke-miterlimit:10 } 
		.s12 { fill: #b8b8b8;stroke: #263238;stroke-miterlimit:10 } 
		.s13 { fill: none;stroke: #263238;stroke-linecap: round;stroke-miterlimit:10;stroke-width: 2 } 
	</style>
	<g id="Background Simple">
		<g id="&lt;Group&gt;">
			<path id="&lt;Path&gt;" class="s0" d="m484.9 52.6c-11.7-31-36.7-50.3-55.8-43-9.9 3.7-16.3 13.9-18.5 27.1-38-15.4-87.8-5.2-121.9 1.9-51.1 10.7-104.3-57.4-190.9-11.3-6.7 3.6-12.8 8-18.4 13.2 0-9.4-2.2-18.5-9.7-23.6-18.1-12.6-37.5 24.1-37.5 24.1 0 0-25.7 25.2-26.6 114.5-0.9 89.4 18.5 43.7 18.5 43.7l4.3-11.1c-3.2 50.4 1.2 96.9 4.2 114.8 2.7 16.6 7.9 31.1 15.2 43.8-5.7 0.7-10.5 2.8-13.9 6.5-14.2 15.1-1.1 50.3 29.3 78.8 30.3 28.4 66.3 39.3 80.5 24.2 8.4-9 7.1-25.3-1.8-43 56.5 16.7 123.9 16 175.3 12.7 1.8 0.2 3.2 0.3 4.3 0.4 10.3 0.7-31 11.1-24.3 28.7 6.6 17.7 103.8 5.9 147.9-27.2 44.2-33.1 32.4-50.8 30.2-66.3-2.2-15.4-23.5-8.8-28 3.7-0.6 1.7-1 2.5-1.3 2.7 1.8-14.7 1-30.1 2.1-44.1 3.1-39.9 11.9-79.3 15.7-119.2 2.5-26.1 4.7-54.3 1.6-81.3q3.2-0.3 6.2-1.4c19.1-7.2 25.1-38.2 13.3-69.3z"/>
			<path id="&lt;Path&gt;" class="s1" d="m484.9 52.6c-11.7-31-36.7-50.3-55.8-43-9.9 3.7-16.3 13.9-18.5 27.1-38-15.4-87.8-5.2-121.9 1.9-51.1 10.7-104.3-57.4-190.9-11.3-6.7 3.6-12.8 8-18.4 13.2 0-9.4-2.2-18.5-9.7-23.6-18.1-12.6-37.5 24.1-37.5 24.1 0 0-25.7 25.2-26.6 114.5-0.9 89.4 18.5 43.7 18.5 43.7l4.3-11.1c-3.2 50.4 1.2 96.9 4.2 114.8 2.7 16.6 7.9 31.1 15.2 43.8-5.7 0.7-10.5 2.8-13.9 6.5-14.2 15.1-1.1 50.3 29.3 78.8 30.3 28.4 66.3 39.3 80.5 24.2 8.4-9 7.1-25.3-1.8-43 56.5 16.7 123.9 16 175.3 12.7 1.8 0.2 3.2 0.3 4.3 0.4 10.3 0.7-31 11.1-24.3 28.7 6.6 17.7 103.8 5.9 147.9-27.2 44.2-33.1 32.4-50.8 30.2-66.3-2.2-15.4-23.5-8.8-28 3.7-0.6 1.7-1 2.5-1.3 2.7 1.8-14.7 1-30.1 2.1-44.1 3.1-39.9 11.9-79.3 15.7-119.2 2.5-26.1 4.7-54.3 1.6-81.3q3.2-0.3 6.2-1.4c19.1-7.2 25.1-38.2 13.3-69.3z"/>
		</g>
	</g>
	<g id="Floor">
		<path id="&lt;Path&gt;" class="s2" d="m475.4 480.1c0 6.2-99.9 11.2-223.1 11.2-123.2 0-223.1-5-223.1-11.2 0-6.2 99.9-11.3 223.1-11.3 123.2 0 223.1 5.1 223.1 11.3z"/>
	</g>
	<g id="Plants">
		<g id="&lt;Group&gt;">
			<path id="&lt;Path&gt;" class="s3" d="m410.7 424.6c1.7 0.7 5.8 0.6 5.8 0.6 0.1 0-0.9-2.7-1-2.9-0.9-1.9-3.7-5-6.1-4.7-1.7 0.2-2.6 1.9-2.2 3.5 0.4 1.6 2 2.8 3.5 3.5z"/>
			<path id="&lt;Path&gt;" class="s3" d="m412.1 436.5c1.8 0.3 5.5-0.8 5.7-0.9q0.9 3.1 2.3 6.2 0.8 1.8 1.6 3.5c-0.3-0.5-0.6-0.9-0.7-0.9-1.4-1.6-5-3.9-7.1-3-1.6 0.7-2 2.6-1.3 4 0.8 1.4 2.8 2.2 4.3 2.4 1.6 0.2 4.8-0.6 5.6-0.9q0.3 0.7 0.6 1.4c1.1 2.1 2.2 4.2 3.2 6.3q0.5 1.1 1 2.3c-0.3-0.5-0.6-0.8-0.6-0.9-1.4-1.6-5-3.9-7.2-2.9-1.5 0.6-2 2.5-1.2 3.9 0.8 1.5 2.7 2.2 4.3 2.4 1.5 0.3 4.4-0.5 5.4-0.8q0.5 1.2 0.9 2.3c0.1 0.6 0.3 1 0.5 1.6q0.2 0.8 0.4 1.5c0.2 1.1 0.5 2.1 0.7 3.1q0.2 1 0.4 2c-0.3-0.8-1-2.2-1.1-2.3-1.1-1.8-4.3-4.6-6.6-4-1.6 0.4-2.4 2.2-1.8 3.7 0.6 1.6 2.3 2.6 3.9 3.1 1.6 0.5 5.3 0 5.7-0.1q0.4 1.7 0.6 3.2 0.2 1.1 0.4 2.2h1.5q-0.3-1.2-0.5-2.4-0.3-1.7-0.7-3.6c0.2-0.1 1.8-0.7 3.2-1.5 1.2 1.3 4.3 2.9 4.7 3.1q-0.7 1.5-1.3 2.9-0.3 0.8-0.6 1.5h1.5q0.2-0.5 0.4-0.9 0.7-1.6 1.3-3.4c0.5 0.1 4.1 0.9 5.8 0.5 1.5-0.4 3.4-1.2 4.1-2.7 0.6-1.5 0-3.4-1.6-3.9-2.2-0.8-5.6 1.8-6.9 3.5 0 0.1-0.7 1.2-1.1 2q0.2-0.7 0.5-1.4c0.3-1 0.7-2 1-3q0.3-0.8 0.5-1.6c0.2-0.5 0.3-1.1 0.4-1.6q0.5-1.9 0.8-3.9c0.8 0.3 3.9 1.3 5.5 1.2 1.5-0.1 3.5-0.7 4.4-2.1 0.9-1.3 0.6-3.2-0.9-4-2.1-1.1-5.9 0.9-7.4 2.4-0.1 0.1-1 1.3-1.5 1.9q0.2-1.2 0.3-2.4c0.3-2.3 0.5-4.7 0.8-7q0.1-1.1 0.2-2.2c0.3 0.1 3.9 1.4 5.6 1.3 1.6-0.1 3.6-0.7 4.5-2.1 0.9-1.3 0.5-3.2-1-4-2.1-1.1-5.8 0.9-7.3 2.4-0.1 0.1-1.5 1.8-1.8 2.3q0.2-2.4 0.6-4.8 0.5-3.2 1.3-6.2c0.2 0 3.9 1.5 5.7 1.3 1.6-0.1 3.6-0.7 4.5-2 0.9-1.4 0.5-3.3-1-4.1-2.1-1.1-5.8 0.9-7.3 2.4-0.1 0.1-1.6 2-1.8 2.3q0-0.2 0.1-0.3c0.6-2.2 1.5-4.1 2.4-5.9q0.8-1.6 1.7-3c0.7 0.3 3.8 1.8 5.4 1.9 1.6 0.1 3.6-0.3 4.6-1.6 1.1-1.2 1-3.2-0.4-4.1-2-1.3-6 0.3-7.6 1.6-0.1 0-0.9 0.9-1.5 1.5q0.4-0.7 0.8-1.3c1-1.5 2-2.8 2.8-3.9q0.8-1 1.5-1.7c0.8-0.1 4.1-0.2 5.6-0.8 1.4-0.7 3.1-2 3.4-3.6 0.3-1.6-0.6-3.2-2.3-3.4-2.4-0.3-5.2 2.9-6 4.9-0.1 0.1-1 2.9-0.9 2.9 0 0 0 0 0 0q-0.6 0.7-1.4 1.6c-0.9 1.1-1.9 2.4-2.9 3.9-1.1 1.5-2.1 3.1-3.1 4.9-1 1.8-1.9 3.7-2.6 5.9q0 0-0.1 0.1c0.1-0.7 0-2.7 0-2.8-0.3-2.1-2-6-4.3-6.4-1.7-0.3-3.1 1-3.2 2.6-0.2 1.7 1 3.3 2.2 4.4 1.3 1.2 5 2.3 5.3 2.4-0.7 2.1-1.2 4.2-1.6 6.4q-0.3 1.9-0.6 3.8c0-0.6 0-1.1 0-1.2-0.3-2.1-2-5.9-4.3-6.4-1.7-0.3-3.1 1-3.2 2.7-0.2 1.6 1 3.3 2.2 4.3 1.2 1.1 4.3 2.1 5.1 2.4q-0.1 0.7-0.2 1.5c-0.2 2.3-0.5 4.7-0.9 7q-0.1 1.2-0.4 2.4c0-0.5 0-1 0-1-0.3-2.1-2-6-4.3-6.4-1.7-0.3-3.1 1-3.2 2.6-0.2 1.7 1 3.3 2.2 4.4 1.1 1 4 2 5 2.3q-0.3 1.2-0.6 2.4c-0.1 0.5-0.2 1-0.4 1.6q-0.3 0.7-0.5 1.5c-0.4 1-0.7 2-1.1 2.9q-0.4 1-0.8 1.9c0.2-0.8 0.4-2.4 0.4-2.5 0-1.4-0.5-3.7-1.5-5.3q0-0.3 0-0.6c-0.3-1.6-1.8-2.8-3.4-2.4-2.3 0.7-3.7 4.6-3.8 6.8 0 0.1 0 1.4 0.1 2.3q-0.2-0.8-0.3-1.5c-0.3-1-0.6-2-0.8-3.1q-0.3-0.8-0.5-1.5c-0.2-0.6-0.4-1.1-0.6-1.6q-0.6-1.9-1.5-3.7c0.9-0.2 4-1 5.3-2 1.2-0.9 2.5-2.5 2.5-4.2 0-1.6-1.3-3-3-2.8-2.3 0.2-4.4 4-4.8 6 0 0.1-0.1 1.7-0.2 2.5q-0.5-1.1-1-2.2c-1.1-2.1-2.2-4.2-3.3-6.3q-0.5-1-1-1.9c0.3-0.1 4-1 5.4-2.1 1.3-0.9 2.6-2.5 2.6-4.1 0-1.7-1.3-3.1-3-2.9-2.4 0.3-4.4 4-4.8 6-0.1 0.2-0.3 2.4-0.3 2.9q-1.1-2.1-2.1-4.2-1.4-3-2.3-6c0.1 0 4-0.9 5.5-2 1.2-1 2.5-2.5 2.5-4.2 0-1.6-1.3-3-3-2.8-2.3 0.2-4.4 3.9-4.8 6 0 0.2-0.2 2.5-0.2 2.9q-0.1-0.1-0.2-0.3c-0.6-2.1-0.9-4.3-1.1-6.3q-0.2-1.7-0.3-3.4c0.8-0.1 4.2-0.5 5.6-1.4 1.3-0.8 2.8-2.2 3-3.9 0.1-1.6-1-3.1-2.7-3.1-2.4 0-4.8 3.5-5.5 5.5 0 0.1-0.2 1.2-0.4 2.1q0-0.8 0-1.5c0-1.8 0.1-3.4 0.2-4.9q0.1-1.2 0.3-2.2c0.6-0.5 3.4-2.4 4.2-3.8 0.8-1.3 1.5-3.3 0.9-4.8-0.6-1.5-2.4-2.4-3.9-1.6-2.1 1.1-2.6 5.3-2.3 7.4 0.1 0.1 0.9 2.9 0.9 2.9 0 0 0-0.1 0-0.1q-0.1 1-0.2 2.2c-0.2 1.4-0.3 3.1-0.4 4.9 0 1.8 0 3.7 0.2 5.7 0.2 2.1 0.5 4.2 1 6.4q0.1 0.1 0.1 0.1c-0.4-0.6-1.5-2.2-1.6-2.3-1.4-1.6-5-3.8-7.1-2.9-1.6 0.6-2.1 2.5-1.3 3.9 0.8 1.5 2.8 2.2 4.3 2.4z"/>
			<path id="&lt;Path&gt;" class="s3" d="m452.5 425.5c0.1 0 0.8-2.8 0.8-3 0.3-2-0.4-6.2-2.5-7.3-1.5-0.7-3.2 0.2-3.8 1.7-0.6 1.6 0.2 3.5 1 4.8 1 1.6 4.5 3.8 4.5 3.8z"/>
		</g>
		<g id="&lt;Group&gt;">
			<path id="&lt;Path&gt;" class="s3" d="m39.4 429.3c1.5 0.7 5.3 0.6 5.3 0.6 0 0-0.8-2.5-0.9-2.6-0.8-1.7-3.4-4.6-5.5-4.3-1.6 0.2-2.4 1.8-2.1 3.2 0.4 1.5 1.9 2.5 3.2 3.1z"/>
			<path id="&lt;Path&gt;" class="s3" d="m40.7 440.2c1.6 0.2 4.9-0.8 5.2-0.9q0.8 2.9 2 5.7 0.7 1.6 1.5 3.1c-0.3-0.4-0.6-0.8-0.6-0.9-1.3-1.4-4.6-3.5-6.5-2.6-1.4 0.6-1.8 2.3-1.1 3.6 0.7 1.3 2.4 1.9 3.8 2.1 1.5 0.3 4.3-0.5 5.1-0.7q0.3 0.6 0.6 1.2c1 1.9 1.9 3.8 2.8 5.7q0.5 1 0.9 2.1c-0.3-0.4-0.5-0.8-0.5-0.8-1.3-1.5-4.5-3.5-6.5-2.7-1.4 0.6-1.8 2.3-1.1 3.6 0.7 1.3 2.5 2 3.9 2.2 1.3 0.2 4-0.5 4.9-0.7q0.4 1 0.8 2c0.1 0.5 0.3 1 0.4 1.5q0.2 0.7 0.4 1.4c0.2 0.9 0.5 1.8 0.7 2.7q0.2 0.9 0.3 1.8c-0.3-0.6-0.9-1.9-1-2.1-1-1.6-3.9-4.1-6-3.6-1.4 0.4-2.1 2-1.6 3.4 0.5 1.4 2.1 2.3 3.5 2.8 1.5 0.4 4.8 0 5.2-0.1q0.3 1.5 0.6 2.9 0.1 1 0.3 2h1.3q-0.2-1.1-0.4-2.2-0.3-1.5-0.7-3.2c0.3-0.1 1.7-0.7 2.9-1.4 1.1 1.2 3.9 2.6 4.3 2.8q-0.6 1.4-1.1 2.7-0.3 0.6-0.6 1.3h1.4q0.2-0.4 0.3-0.8 0.6-1.5 1.2-3.1c0.4 0.1 3.7 0.8 5.2 0.4 1.4-0.3 3.1-1.1 3.7-2.4 0.6-1.4 0.1-3-1.4-3.5-2-0.7-5.1 1.6-6.2 3.1-0.1 0.1-0.7 1.2-1.1 1.9q0.3-0.7 0.5-1.3c0.3-0.9 0.6-1.8 1-2.8q0.2-0.7 0.4-1.4c0.1-0.4 0.2-1 0.4-1.4q0.4-1.8 0.7-3.6c0.7 0.3 3.5 1.3 4.9 1.2 1.4-0.1 3.2-0.7 4-1.9 0.8-1.3 0.5-3-0.8-3.7-1.9-1-5.3 0.8-6.7 2.2-0.1 0.1-0.9 1.1-1.4 1.7q0.2-1 0.3-2.1c0.3-2.2 0.5-4.3 0.7-6.4q0.1-1 0.2-2c0.3 0.1 3.5 1.3 5.1 1.2 1.5-0.1 3.2-0.6 4.1-1.9 0.8-1.2 0.5-3-0.9-3.7-1.9-0.9-5.3 0.9-6.6 2.2-0.1 0.1-1.4 1.7-1.7 2.1q0.2-2.2 0.6-4.3 0.4-2.9 1.2-5.7c0.1 0.1 3.5 1.4 5.1 1.3 1.5-0.1 3.2-0.7 4.1-1.9 0.8-1.3 0.5-3-0.9-3.7-1.9-1-5.3 0.8-6.6 2.2-0.1 0.1-1.5 1.8-1.7 2.1q0.1-0.2 0.1-0.4c0.6-1.9 1.4-3.7 2.2-5.3q0.8-1.4 1.6-2.7c0.6 0.3 3.4 1.7 4.8 1.8 1.5 0 3.3-0.3 4.2-1.5 1-1.1 0.9-2.9-0.4-3.7-1.8-1.2-5.4 0.2-6.8 1.4-0.1 0.1-0.9 0.8-1.4 1.4q0.3-0.6 0.7-1.2c0.9-1.3 1.8-2.5 2.6-3.5q0.7-0.9 1.3-1.6c0.8 0 3.8-0.1 5.1-0.7 1.3-0.6 2.8-1.8 3.1-3.2 0.3-1.5-0.6-3-2.1-3.1-2.2-0.3-4.7 2.6-5.5 4.4 0 0.1-0.8 2.6-0.8 2.6 0 0 0.1 0 0.1 0q-0.6 0.7-1.3 1.5c-0.8 1-1.8 2.2-2.7 3.5-0.9 1.3-1.9 2.8-2.8 4.4-0.9 1.7-1.7 3.5-2.3 5.4q-0.1 0-0.1 0.1c0-0.7 0-2.4 0-2.5-0.2-1.9-1.8-5.4-3.9-5.8-1.5-0.3-2.8 0.9-2.9 2.3-0.2 1.6 0.9 3.1 2 4 1.2 1.1 4.5 2.1 4.8 2.2q-0.9 2.8-1.4 5.8-0.3 1.7-0.6 3.4c0-0.5 0-1 0-1-0.2-1.9-1.8-5.4-3.9-5.8-1.5-0.3-2.8 0.9-2.9 2.3-0.2 1.5 0.9 3 2 4 1.1 1 3.9 1.9 4.6 2.1q0 0.7-0.1 1.4c-0.3 2.1-0.5 4.3-0.8 6.3q-0.2 1.1-0.4 2.2c0-0.5 0-0.9 0-0.9-0.3-1.9-1.9-5.4-4-5.8-1.5-0.3-2.8 0.9-2.9 2.4-0.1 1.5 1 3 2.1 3.9 1 0.9 3.6 1.8 4.5 2.1q-0.3 1.1-0.5 2.2c-0.2 0.5-0.3 0.9-0.4 1.4q-0.3 0.7-0.5 1.4c-0.3 0.9-0.6 1.8-1 2.7q-0.3 0.8-0.6 1.7c0.1-0.7 0.3-2.2 0.3-2.3 0-1.3-0.5-3.3-1.4-4.8q0.1-0.3 0-0.5c-0.2-1.5-1.6-2.6-3.1-2.2-2 0.6-3.3 4.2-3.4 6.1 0 0.1 0 1.3 0.1 2.1q-0.2-0.7-0.3-1.3c-0.2-1-0.5-1.9-0.7-2.8q-0.3-0.7-0.5-1.4c-0.1-0.5-0.3-1-0.5-1.5q-0.6-1.7-1.3-3.3c0.8-0.2 3.6-0.9 4.7-1.8 1.1-0.9 2.3-2.3 2.3-3.8 0-1.5-1.2-2.7-2.7-2.6-2.1 0.3-4 3.6-4.3 5.5-0.1 0.1-0.2 1.5-0.2 2.2q-0.5-1-1-1.9c-0.9-2-1.9-3.9-3-5.8q-0.4-0.8-0.9-1.7c0.3-0.1 3.7-0.9 5-1.8 1.1-0.9 2.3-2.3 2.3-3.8 0-1.5-1.2-2.8-2.7-2.6-2.2 0.2-4 3.6-4.4 5.5 0 0.1-0.2 2.1-0.2 2.6q-1-1.9-1.9-3.9-1.3-2.7-2.1-5.4c0.1 0 3.6-0.8 4.9-1.8 1.2-0.9 2.4-2.3 2.4-3.8-0.1-1.5-1.2-2.7-2.8-2.6-2.1 0.3-3.9 3.6-4.3 5.5 0 0.1-0.2 2.3-0.2 2.7q-0.1-0.2-0.2-0.4c-0.5-1.9-0.8-3.8-1-5.6q-0.2-1.6-0.2-3.1c0.6-0.1 3.7-0.5 5-1.3 1.2-0.7 2.5-2 2.7-3.5 0.1-1.5-0.9-2.9-2.4-2.9-2.2 0-4.4 3.2-5 5 0 0.1-0.2 1.1-0.3 1.9q-0.1-0.7-0.1-1.3c0-1.7 0.1-3.1 0.2-4.4q0.1-1.1 0.2-2.1c0.7-0.4 3.1-2.1 3.9-3.4 0.7-1.2 1.3-3 0.8-4.4-0.6-1.3-2.1-2.1-3.5-1.4-1.9 1-2.4 4.8-2.1 6.7 0.1 0.2 0.8 2.6 0.8 2.6 0 0 0 0 0 0q-0.1 0.9-0.2 2c-0.1 1.3-0.3 2.7-0.3 4.4 0 1.6 0 3.3 0.1 5.2 0.2 1.8 0.5 3.8 1 5.8q0 0 0 0c-0.3-0.5-1.3-1.9-1.4-2-1.2-1.5-4.5-3.5-6.5-2.7-1.4 0.6-1.8 2.3-1.1 3.6 0.7 1.3 2.5 2 3.9 2.2z"/>
			<path id="&lt;Path&gt;" class="s3" d="m77.3 430.1c0 0.1 0.7-2.4 0.7-2.6 0.2-1.9-0.4-5.7-2.3-6.6-1.4-0.7-2.9 0.1-3.4 1.5-0.5 1.4 0.1 3.1 0.9 4.3 0.9 1.4 4.1 3.4 4.1 3.4z"/>
		</g>
	</g>
	<g id="Cons Mark 2">
		<path id="&lt;Path&gt;" class="s4" d="m388.9 293.8h-17.8c-5.2 0-9.4-4.2-9.4-9.4v-26.1c0-5.2 4.2-9.4 9.4-9.4h23.7c5.3 0 9.5 4.2 9.5 9.4v26.1c0 5.2-4.2 9.4-9.5 9.4"/>
		<path id="&lt;Path&gt;" class="s4" d="m361.7 338v-13.9c0-5.3 4.2-9.5 9.4-9.5h23.7c5.3 0 9.5 4.2 9.5 9.5v26c0 5.2-4.2 9.5-9.5 9.5h-23.7c-5.2 0-9.4-4.3-9.4-9.5v-6"/>
		<path id="&lt;Path&gt;" class="s4" d="m404.3 410v5.8c0 5.3-4.2 9.5-9.5 9.5h-23.7c-5.2 0-9.4-4.2-9.4-9.5v-26c0-5.2 4.2-9.5 9.4-9.5h23.7c5.3 0 9.5 4.3 9.5 9.5v14.2"/>
		<path id="&lt;Path&gt;" class="s5" d="m387.2 271.3l11-11c1.2-1.1 1.2-3 0-4.2-1.1-1.2-3-1.2-4.2 0l-11 11-11-11c-1.2-1.2-3.1-1.2-4.3 0-1.1 1.2-1.1 3.1 0 4.2l11 11-11 11c-1.1 1.2-1.1 3.1 0 4.3 0.6 0.6 1.4 0.9 2.2 0.9 0.7 0 1.5-0.3 2.1-0.9l11-11 11 11c0.6 0.6 1.4 0.9 2.1 0.9 0.8 0 1.6-0.3 2.1-0.9 1.2-1.2 1.2-3.1 0-4.3z"/>
		<path id="&lt;Path&gt;" class="s5" d="m387.2 337.9l11-11c1.2-1.1 1.2-3 0-4.2-1.1-1.2-3-1.2-4.2 0l-11 11-11-11c-1.2-1.2-3.1-1.2-4.3 0-1.1 1.2-1.1 3.1 0 4.2l11 11-11 11c-1.1 1.2-1.1 3.1 0 4.3 0.6 0.6 1.4 0.9 2.2 0.9 0.7 0 1.5-0.3 2.1-0.9l11-11 11 11c0.6 0.6 1.4 0.9 2.1 0.9 0.8 0 1.6-0.3 2.1-0.9 1.2-1.2 1.2-3.1 0-4.3z"/>
	</g>
	<g id="Pros Mark 2">
		<path id="&lt;Path&gt;" class="s4" d="m125.2 293.8h-12.2c-5.3 0-9.5-4.2-9.5-9.4v-26.1c0-5.2 4.2-9.4 9.5-9.4h23.7c5.2 0 9.4 4.2 9.4 9.4v26.1c0 5.2-4.2 9.4-9.4 9.4h-5.4"/>
		<path id="&lt;Path&gt;" class="s4" d="m128 314.6h8.7c5.2 0 9.4 4.2 9.4 9.5v26c0 5.2-4.2 9.5-9.4 9.5h-23.7c-5.3 0-9.5-4.3-9.5-9.5v-26c0-5.3 4.2-9.5 9.5-9.5h6.4"/>
		<path id="&lt;Path&gt;" class="s4" d="m103.5 398.9v-9.1c0-5.2 4.2-9.5 9.5-9.5h23.7c5.2 0 9.4 4.3 9.4 9.5v26c0 5.3-4.2 9.5-9.4 9.5h-23.7c-5.3 0-9.5-4.2-9.5-9.5v-9.7"/>
		<g id="&lt;Group&gt;">
			<path id="&lt;Path&gt;" class="s6" d="m124 284.1q-0.2 0-0.3 0c-1-0.1-1.9-0.7-2.5-1.6l-8.7-14.7c-0.9-1.5-0.4-3.5 1.1-4.4 1.5-0.9 3.5-0.4 4.4 1.1l6.5 11.1 23.4-26.1c1.1-1.3 3.1-1.4 4.5-0.2 1.3 1.2 1.4 3.2 0.2 4.5l-26.3 29.2c-0.6 0.7-1.4 1.1-2.3 1.1z"/>
		</g>
	</g>
	<g id="Character">
		<g id="&lt;Group&gt;">
			<g id="&lt;Group&gt;">
				<path id="&lt;Path&gt;" class="s7" d="m173 134.5c0 0-2.6-5.3-4.1-7.4-1.5-2.1-6.6-2.8-7.8-3.1-1.3-0.3-7.6-2.3-9.2-3.4-1.5-1.1-2.1-0.1-2 1 0.2 2.1 2.8 3.6 3.6 3.6 1.3-0.1 1.6 1.3 1.6 1.3 0 0-9.6 1.7-10.1 1.5-0.6-0.3-4.9-1.8-6.1-0.9-0.7 0.5-0.6 0.6-0.5 2 0.1 0.3-0.6 2.4-0.4 2.7 0.2 0.6 0.2 1.1 0.8 1.7 0.8 0.7 2.2 1.3 2.5 1.6 1.2 1.6 5.7 4.3 7.6 4.5 1.9 0.1 16-1.4 16-1.4l15.4 26.6 15.6-8.3z"/>
				<path id="&lt;Path&gt;" class="s7" d="m152.5 135.3c-1.1 0.7-2.6 1.7-2.6 1.7l-2.3-0.1c0 0-4.5-3-5.4-2.7 0 0-1-0.4-0.9 0.9"/>
				<path id="&lt;Path&gt;" class="s7" d="m166.4 132.2c0 0-1.8-1.4-4.8-1.5-1.3-0.1-4.6 2-6.8 3.3"/>
				<path id="&lt;Path&gt;" class="s7" d="m155.1 126.5l5.4 0.2"/>
				<path id="&lt;Path&gt;" class="s7" d="m138.4 129.1c0 0 0.4-1.1 1.7-0.8 1.4 0.2 4.8 2.2 4.8 2.2l6.4-0.7"/>
				<path id="&lt;Path&gt;" class="s7" d="m138 131.8c0 0 0.5-1.1 1.7-0.9 1.1 0.2 5.5 2.4 5.5 2.4l6.4-0.5"/>
			</g>
			<g id="&lt;Group&gt;">
				<path id="&lt;Path&gt;" class="s7" d="m367.2 175.7c0 0 2.3-4.4 3.5-6.8 1.2-2.3 6.1-3.8 7.2-4.3 1.2-0.5 7.1-3.5 8.5-4.8 1.3-1.3 2.1-0.5 2.2 0.7 0.1 2-2.2 4-3.1 4.1-1.2 0.1-1.3 1.5-1.3 1.5 0 0 9.8 0.1 10.3-0.2 0.5-0.3 4.5-2.5 5.8-1.8 0.8 0.3 0.7 0.4 0.8 1.8 0 0.4 1 2.3 0.9 2.7-0.1 0.6 0 1.1-0.5 1.7-0.7 0.8-2 1.7-2.2 2-1 1.9-5 5.2-6.8 5.7-1.8 0.5-17.7 1.3-17.7 1.3l-15.7 20.7-11-9.1z"/>
				<path id="&lt;Path&gt;" class="s7" d="m388.2 174.4c1.2 0.5 2.9 1.2 2.9 1.2l2.2-0.5c0 0 3.9-3.6 4.9-3.5 0 0 0.9-0.5 1.1 0.7"/>
				<path id="&lt;Path&gt;" class="s4" d="m374 173.6c0 0 1.6-1.7 4.5-2.3 1.3-0.3 4.8 1.2 7.2 2.2"/>
				<path id="&lt;Path&gt;" class="s7" d="m384.2 166.1l-5.3 1.1"/>
				<path id="&lt;Path&gt;" class="s7" d="m401.1 165.9c0 0-0.5-1-1.8-0.5-1.3 0.5-4.3 3-4.3 3l-6.5 0.3"/>
				<path id="&lt;Path&gt;" class="s7" d="m402 168.6c0 0-0.7-1-1.8-0.7-1.1 0.4-5.1 3.3-5.1 3.3l-6.4 0.5"/>
			</g>
			<g id="&lt;Group&gt;">
				<g id="&lt;Group&gt;">
					<path id="&lt;Path&gt;" class="s2" d="m208 266.8c0 0-3.6 10.7-3.2 23.9 0.5 13.2 5.6 42.4 3.5 46.9-2.1 4.4-9.5 5.8-14.9 15.8-5.3 9.9-19 58.7-18.9 60.1 0.1 1.3 11.5 5.3 11.5 5.3 0 0 31.7-54.7 41.3-65.3 9.6-10.7 18.9-68.1 18.9-68.1 0 0-3.3 62.5-2.9 73.1 0.4 10.6 10.4 36.5 13 47.1 2.7 10.5 3.1 35.6 3.1 35.6 0 0 9.2 2.2 12.3 1.3 3.1-0.9 3.1-0.9 3.1-0.9 0 0 0.6-32.3 1.5-42.8 0.9-10.6-5.1-43.2-5.1-43.2 0 0 16.8-54.8 18.1-75 0 0-5.3-24.6-15.8-33-10.6-8.4-27.7-12.3-38.7-8.4-11 4-26.8 27.6-26.8 27.6z"/>
					<path id="&lt;Path&gt;" class="s7" d="m250.5 253.3c0 1.1-0.8 1.9-1.9 1.9-1.1 0-1.9-0.8-1.9-1.9 0-1.1 0.8-1.9 1.9-1.9 1.1 0 1.9 0.8 1.9 1.9z"/>
					<path id="&lt;Path&gt;" class="s8" d="m246.7 253.3c0 0-3.4 16-2.8 18.4 0.5 2.3 3 2 3 2l2.1-6.4"/>
					<path id="&lt;Path&gt;" class="s8" d="m233.8 251.9c0 0 6.2-0.4 9.5 0.5"/>
					<path id="&lt;Path&gt;" class="s8" d="m227.2 267.8c0 0 5.1 8.2 9.5 13.4"/>
					<path id="&lt;Path&gt;" class="s8" d="m267.2 270.4l-10.3 7.2"/>
				</g>
				<path id="&lt;Path&gt;" class="s9" d="m259.4 441.2c0 0 0.3 12.2 0 13.7-0.3 1.6-4.7 17.2-4.7 21.5 0 4.4 5.3 12.8 9.7 10.9 4.4-1.8 9.3-7.4 10.3-11.8 0.9-4.4-2.2-18.1-2.2-20.6 0-2.4 0-15.5 0-15.5z"/>
				<path id="&lt;Path&gt;" class="s10" d="m264.4 487.3c4.4-1.8 9.3-7.4 10.3-11.8 0.5-2.4-0.2-7.8-1-12.5-1.1 2.9-3 7.2-4 8.5-1.6 1.8-5.6 4-9.4 1.2-3.7-2.8-2.4-9.7-2.4-9.7l-0.6 0.1c-1.2 5-2.6 10.9-2.6 13.3 0 4.4 5.3 12.8 9.7 10.9z"/>
				<path id="&lt;Path&gt;" class="s9" d="m174.5 413.5c0 0-3.3 7.5-5.2 12.2-1.8 4.7-2.9 6.3-2.8 10.9 0.1 4.5-2.9 13.4 1.7 19.4 3 4 9.7 4.5 12.2-3.6 2.4-8 0.6-22 0.7-23.6 0.1-1.6 2.5-10.2 2.5-10.2z"/>
				<path id="&lt;Path&gt;" class="s10" d="m166.5 436.6c0.1 4.5-2.9 13.4 1.7 19.4 3 4 9.7 4.5 12.2-3.6 1-3.4 1.3-7.8 1.3-11.9-1.6 3.3-3.4 6.5-5.6 8.6-3 2.7-6.2-1-7.4-3.9-1.1-2.9 0.6-19.5 0.6-19.5-1.8 4.7-2.9 6.3-2.8 10.9z"/>
			</g>
			<g id="&lt;Group&gt;">
				<path id="&lt;Path&gt;" class="s10" d="m349.8 189.5c-1-0.4-2 0.2-2 0.2l-1.8 2.6c0 0 0 0-1.5 0-1 0-2.4 1.9-3.1 2.9l-1.7 1.3q-0.1 0-0.3 0.1c-1.6 0.8-4.2 2.1-4.2 2.1 0 0-1.1-3.1-2.7-3.7-1-0.4-2.8-1.2-4.1-1.8l-20-25.3c0.8-3.1-23.8-12.8-23.8-12.8l-33.8-6.5-17.9 3.8-19.5 15c-0.6-0.5-2.2-1.7-3.2-1.3-1.2 0.4-3.6 3.6-3.6 3.6 0 0-0.6-3.2-1.5-3.9-0.8-0.6-3.4-1.4-3.4-1.4 0 0 1-1 0-2.6-1-1.7-3.3-2.7-3.9-3.7-0.6-1-1.2-3.3-2.2-3.7-1.1-0.4-1.1-0.4-1.1-0.4 0 0-7.5 3.5-11.4 6.5-3.8 3.1-5.3 2.7-4.7 4.9 0.6 2.3 2.1 2.4 2.1 2.4 0 0-1.7 2.3-0.4 4.4 1.2 2 2.8 3 2.8 3 0 0 1.9 3.7 2.9 5.7 0.7 1.4 3.7 3.6 5.7 5.1 4.2 6.8 7.5 12 8.3 12.9 3.2 3.5 4.4 3.3 7.5 1.6 1.7-1 9.9-5.5 21.4-10.8l1.9 13.6c0 0-14.7 31.6-16 34.5-1.2 3 0.9 4.1 0.9 4.1 0 0-6.7 10-7.1 12.1-0.4 2.1-0.4 12.8-0.4 12.8l17-10.7c8.9-7.2 12.3-9 13.4-8.9 4.8 0.3 14.4 1.3 16.8 3.1 0 0 32.6 32.8 33.3 34.8 0.8 1.9 2.8-6.7 4-10.4 1.2-3.6-0.5-5.4-0.5-5.4 0 0 2.5-1.7 2.2-4.4-0.1-1.7 1-4-0.1-10.5 0-4.2-2.6-14.8-2.5-16.1 0.1-1.6-3-19.3-2.4-21.3 4.2-8.5 5.5-5.5 11-13 10.2 6.8 35.5 24.2 36.9 23.6 2.1-0.9 8.3-6 13.9-13.8l2.9-3.5c0 0 0 0 1.6-2.3 1.7-2.2 2.3-4.9 3.1-5.5 0.8-0.6 1.2-2 1.2-3.6 0-1.7-8.9-9-10-9.4z"/>
				<path id="&lt;Path&gt;" class="s11" d="m300.2 204l-5.7-3.1"/>
				<path id="&lt;Path&gt;" class="s11" d="m259.8 219.6c1.2 1.5 2.5 3 3.8 4.4"/>
				<path id="&lt;Path&gt;" class="s11" d="m249.9 202.6c0 0 2.5 6 6.7 12.5"/>
				<path id="&lt;Path&gt;" class="s11" d="m253.5 213.5l5.2 8.8"/>
				<path id="&lt;Path&gt;" class="s11" d="m254.4 155.8c0 0-3.4 9.5-0.6 18"/>
				<g id="&lt;Group&gt;">
					<path id="&lt;Path&gt;" class="s9" d="m260.2 249.7c0 0 21 13.3 27.3 17.3"/>
					<path id="&lt;Path&gt;" class="s9" d="m211.7 257.7l21.8-10"/>
					<path id="&lt;Path&gt;" class="s9" d="m255.2 250.3c0 0 8.4 3.7 15 7.7"/>
				</g>
				<g id="&lt;Group&gt;">
					<path id="&lt;Path&gt;" class="s9" d="m233.8 173.1c0 0-3.3 7.5-4.7 14.1"/>
					<path id="&lt;Path&gt;" class="s12" d="m206.3 171.6c0 0-3.5 8.8-3.8 13.1"/>
					<path id="&lt;Path&gt;" class="s12" d="m199.5 163.6c0 0-10.4 7.2-12.6 12.4"/>
					<path id="&lt;Path&gt;" class="s12" d="m183.3 166.4c0 0 6.3-5.9 11.8-7.4"/>
					<path id="&lt;Path&gt;" class="s12" d="m203.9 172.9c0 0-8.5 14.6-6.9 15.1 1.6 0.6 3-3.5 3-3.5"/>
				</g>
				<path id="&lt;Path&gt;" class="s11" d="m334.9 201.6c0 0 0.5 12.4 1.9 11.8 1.4-0.5 0.3-7.1 0.3-7.1"/>
				<path id="&lt;Path&gt;" class="s11" d="m342.3 197.2c0 0 4.4 8 6.3 9.4"/>
				<path id="&lt;Path&gt;" class="s11" d="m346 192.3c0 0 7.5 5.5 9.4 8.2"/>
				<path id="&lt;Path&gt;" class="s11" d="m332.1 197.5c0 0-3.3 10.1-1.1 15.6"/>
			</g>
			<g id="&lt;Group&gt;">
				<g id="&lt;Group&gt;">
					<path id="&lt;Path&gt;" class="s9" d="m269.7 148.1l-2.9-1.8c0 0-2.6-0.8-5 3.6 0 0-3.2 6.3-3.4 12.5-0.2 5.7 5.6 10.1 15.7 5.4 1-0.4 2-0.9 2.9-1.5 4.2-2.9 9.2-8.3 9.2-8.3l2.2-16.6c-4.4 2.6-13.8 5.3-18.7 6.7z"/>
					<path id="&lt;Path&gt;" class="s2" d="m279.5 144.7c0 0-14.1 14-20.4 16.5l2.9-13.2 17.9-5.3z"/>
				</g>
				<g id="&lt;Group&gt;">
					<path id="&lt;Path&gt;" class="s9" d="m281.7 109.4c0 0 3.2 0.4 5.7 7.1 2.4 6.6 1.8 8.4 4 11.8 2.3 3.4 4.4 8.8 3.5 13.8-0.8 4.9-1.5 11.7-5.8 14.3-6.9 4.2-16.3-2.8-21.4-5.6-5-2.8-9.3-8.2-10.9-10.6-1.5-2.4-4.9-8.2-4.7-14.5 0.3-6.2 7.5-13.4 11.4-15.3 3.9-1.8 10.8-2.9 18.2-1z"/>
					<path id="&lt;Path&gt;" class="s2" d="m264.3 103.6c0 0 2.1-5.4-5.6-6.6-7.7-1.1-7.2 3.8-8.8 4.2-1.7 0.5-5.6-8.3-13.1-5.3-7.4 3-4.8 10.2-5.1 12.1-0.2 1.8-3.9-2.8-7.2 3.2-3.2 6.1 0 10-0.5 11.4-0.4 1.4-7.1-1.9-8.7 3.2-1.7 5.1 2.5 9.3 2.5 10.2 0 0.9-3.7 0.9-4.6 4.4-0.9 3.5 1.6 5.4 1.8 7.2 0.3 1.9-3.7 5.5-0.4 10.7 3.2 5.1 9.4 3.4 9.2 5.9-0.2 2.6-2.1 4.7 0.7 6.5 2.8 1.9 5.8-1.4 5.8-1.4 0 0-0.7-4.1 0.5-4.1 1.2 0 4.4 3 6.7 1.4 2.4-1.7 1.9-5.9 3.8-6.3 1.8-0.5 0.9 0.9 6 0.2 5.1-0.7 4.4-7.2 4.4-8.4 0-1.1 3.5 0.5 5.4-2.5 1.8-3 0.4-5.4 0.4-5.4 0 0-5.3-8.8-4.6-13.9"/>
					<path id="&lt;Path&gt;" class="s2" d="m260.6 142.6c0 0-0.9-2.8 1.3-6.2 2.1-3.4 2.4-7-0.1-8.5-2.4-1.6-3.4-4.1 0.2-8.2 3.6-4.1 10 0.8 13.8-2.6 3.8-3.5 3.8-6 6.7-6.5 2.9-0.4 3.8 3.2 3.8 3.2 0 0-2.8-8.1-11.8-10.2-8.9-2.1-23 4.3-27.5 16.5-4.6 12.3 10.5 24.1 10.5 24.1 0 0 1 0.3 3.1-1.6z"/>
					<path id="&lt;Path&gt;" class="s11" d="m283.7 131.4l6.8 9.3-5.2 1.9"/>
					<path id="&lt;Path&gt;" class="s11" d="m289.9 146.6c0 0-3.1 2.8-6.2 1.4"/>
					<path id="&lt;Path&gt;" class="s3" d="m277.2 135.6c0.5 1.1 0.4 2.2-0.1 2.4-0.6 0.3-1.5-0.4-1.9-1.5-0.5-1.1-0.5-2.1 0.1-2.4 0.6-0.2 1.4 0.4 1.9 1.5z"/>
					<path id="&lt;Path&gt;" class="s3" d="m288.2 128.7c0.5 1 0.5 2.1-0.1 2.4-0.6 0.2-1.4-0.4-1.9-1.5-0.5-1.1-0.4-2.2 0.1-2.4 0.6-0.3 1.5 0.4 1.9 1.5z"/>
					<path id="&lt;Path&gt;" class="s13" d="m269.9 134c0 0 1.6-5.6 6.1-5"/>
					<path id="&lt;Path&gt;" class="s13" d="m282.3 124.8c0 0 1.1-3.7 4.5-3.1"/>
					<path id="&lt;Path&gt;" class="s9" d="m261.8 143c0 0-5.8-6.2-6.7-0.7-1 5.6 4.1 7.1 6.7 7.6 2.5 0.5 3.4-2.3 3.4-2.3"/>
				</g>
			</g>
		</g>
	</g>
	<g id="Cons Mark 2">
		<g id="&lt;Group&gt;">
			<path id="&lt;Path&gt;" class="s9" d="m439.4 110.8c0 33.6-27.2 60.8-60.8 60.8-33.6 0-60.8-27.2-60.8-60.8 0-33.6 27.2-60.8 60.8-60.8 33.6 0 60.8 27.2 60.8 60.8z"/>
			<path id="&lt;Path&gt;" class="s5" d="m425.2 110.8c0 25.7-20.9 46.6-46.6 46.6-25.7 0-46.6-20.9-46.6-46.6 0-25.7 20.9-46.6 46.6-46.6 25.7 0 46.6 20.9 46.6 46.6z"/>
			<g id="&lt;Group&gt;">
				<g id="&lt;Group&gt;">
					<path id="&lt;Path&gt;" class="s3" d="m410 149.1c-1.8 0-3.6-0.7-5-2.1l-61.1-61.1c-2.7-2.7-2.7-7.1 0-9.9 2.7-2.7 7.2-2.7 9.9 0l61.1 61.1c2.7 2.8 2.7 7.2 0 9.9-1.4 1.4-3.2 2.1-4.9 2.1z"/>
				</g>
				<g id="&lt;Group&gt;">
					<path id="&lt;Path&gt;" class="s3" d="m348.9 149.1c-1.8 0-3.6-0.7-5-2.1-2.7-2.7-2.7-7.1 0-9.9l61.1-61.1c2.7-2.7 7.2-2.7 9.9 0 2.7 2.8 2.7 7.2 0 9.9l-61.1 61.1c-1.4 1.4-3.2 2.1-4.9 2.1z"/>
				</g>
			</g>
		</g>
	</g>
	<g id="Pros Mark 1">
		<g id="&lt;Group&gt;">
			<path id="&lt;Path&gt;" class="s9" d="m198.5 73.3c0 33.6-27.2 60.8-60.8 60.8-33.6 0-60.9-27.2-60.9-60.8 0-33.6 27.3-60.8 60.9-60.8 33.6 0 60.8 27.2 60.8 60.8z"/>
			<path id="&lt;Path&gt;" class="s6" d="m184.2 73.3c0 25.7-20.8 46.6-46.5 46.6-25.8 0-46.6-20.9-46.6-46.6 0-25.7 20.8-46.6 46.6-46.6 25.7 0 46.5 20.9 46.5 46.6z"/>
			<g id="&lt;Group&gt;">
				<path id="&lt;Path&gt;" fill-rule="evenodd" class="s3" d="m135.8 97.9q-0.3 0-0.7 0c-2.2-0.2-4.2-1.5-5.3-3.4l-19.3-32.5c-1.9-3.3-0.8-7.6 2.5-9.6 3.3-2 7.6-0.9 9.6 2.5l14.4 24.2 51.4-57.3c2.6-2.9 7-3.1 9.9-0.5 2.9 2.6 3.1 7 0.5 9.9l-57.8 64.4c-1.3 1.5-3.2 2.3-5.2 2.3z"/>
			</g>
		</g>
	</g>
</svg>