<svg version="1.2" xmlns="http://www.w3.org/2000/svg" width="500" height="500"><style>.s2{stroke:#263238;stroke-miterlimit:10}.s2,.s3{fill:#263238}.s4{fill:none;stroke-linecap:round;stroke-miterlimit:10}.s4,.s5,.s6{stroke:#263238}.s5{fill:#54afe7;stroke-miterlimit:10}.s6{fill:#92e3a9}.s6,.s7,.s8{stroke-miterlimit:10}.s7{fill:#fff;stroke:#263238;stroke-linecap:round}.s8{fill:none;stroke:#858585}.s10,.s11,.s12,.s13,.s9{fill:#fff;stroke:#263238;stroke-miterlimit:10}.s10,.s11,.s12,.s13{fill:#9aceee}.s11,.s12,.s13{fill:none}.s12,.s13{fill:#b8b8b8}.s13{fill:none;stroke-linecap:round;stroke-width:2}</style><g id="Background Simple"><g id="&lt;Group&gt;"><path id="&lt;Path&gt;" d="M484.9 52.6c-11.7-31-36.7-50.3-55.8-43-9.9 3.7-16.3 13.9-18.5 27.1-38-15.4-87.8-5.2-121.9 1.9-51.1 10.7-104.3-57.4-190.9-11.3-6.7 3.6-12.8 8-18.4 13.2 0-9.4-2.2-18.5-9.7-23.6C51.6 4.3 32.2 41 32.2 41S6.5 66.2 5.6 155.5c-.9 89.4 18.5 43.7 18.5 43.7l4.3-11.1c-3.2 50.4 1.2 96.9 4.2 114.8 2.7 16.6 7.9 31.1 15.2 43.8-5.7.7-10.5 2.8-13.9 6.5-14.2 15.1-1.1 50.3 29.3 78.8 30.3 28.4 66.3 39.3 80.5 24.2 8.4-9 7.1-25.3-1.8-43 56.5 16.7 123.9 16 175.3 12.7 1.8.2 3.2.3 4.3.4 10.3.7-31 11.1-24.3 28.7 6.6 17.7 103.8 5.9 147.9-27.2 44.2-33.1 32.4-50.8 30.2-66.3-2.2-15.4-23.5-8.8-28 3.7-.6 1.7-1 2.5-1.3 2.7 1.8-14.7 1-30.1 2.1-44.1 3.1-39.9 11.9-79.3 15.7-119.2 2.5-26.1 4.7-54.3 1.6-81.3q3.2-.3 6.2-1.4c19.1-7.2 25.1-38.2 13.3-69.3z" style="fill:#9aceee"/><path id="&lt;Path&gt;" d="M484.9 52.6c-11.7-31-36.7-50.3-55.8-43-9.9 3.7-16.3 13.9-18.5 27.1-38-15.4-87.8-5.2-121.9 1.9-51.1 10.7-104.3-57.4-190.9-11.3-6.7 3.6-12.8 8-18.4 13.2 0-9.4-2.2-18.5-9.7-23.6C51.6 4.3 32.2 41 32.2 41S6.5 66.2 5.6 155.5c-.9 89.4 18.5 43.7 18.5 43.7l4.3-11.1c-3.2 50.4 1.2 96.9 4.2 114.8 2.7 16.6 7.9 31.1 15.2 43.8-5.7.7-10.5 2.8-13.9 6.5-14.2 15.1-1.1 50.3 29.3 78.8 30.3 28.4 66.3 39.3 80.5 24.2 8.4-9 7.1-25.3-1.8-43 56.5 16.7 123.9 16 175.3 12.7 1.8.2 3.2.3 4.3.4 10.3.7-31 11.1-24.3 28.7 6.6 17.7 103.8 5.9 147.9-27.2 44.2-33.1 32.4-50.8 30.2-66.3-2.2-15.4-23.5-8.8-28 3.7-.6 1.7-1 2.5-1.3 2.7 1.8-14.7 1-30.1 2.1-44.1 3.1-39.9 11.9-79.3 15.7-119.2 2.5-26.1 4.7-54.3 1.6-81.3q3.2-.3 6.2-1.4c19.1-7.2 25.1-38.2 13.3-69.3z" style="opacity:.7;fill:#fff"/></g></g><g id="Floor"><path id="&lt;Path&gt;" class="s2" d="M475.4 480.1c0 6.2-99.9 11.2-223.1 11.2-123.2 0-223.1-5-223.1-11.2 0-6.2 99.9-11.3 223.1-11.3 123.2 0 223.1 5.1 223.1 11.3z"/></g><g id="Plants"><g id="&lt;Group&gt;"><path id="&lt;Path&gt;" class="s3" d="M410.7 424.6c1.7.7 5.8.6 5.8.6.1 0-.9-2.7-1-2.9-.9-1.9-3.7-5-6.1-4.7-1.7.2-2.6 1.9-2.2 3.5.4 1.6 2 2.8 3.5 3.5z"/><path id="&lt;Path&gt;" class="s3" d="M412.1 436.5c1.8.3 5.5-.8 5.7-.9q.9 3.1 2.3 6.2.8 1.8 1.6 3.5c-.3-.5-.6-.9-.7-.9-1.4-1.6-5-3.9-7.1-3-1.6.7-2 2.6-1.3 4 .8 1.4 2.8 2.2 4.3 2.4 1.6.2 4.8-.6 5.6-.9l.6 1.4c1.1 2.1 2.2 4.2 3.2 6.3q.5 1.1 1 2.3c-.3-.5-.6-.8-.6-.9-1.4-1.6-5-3.9-7.2-2.9-1.5.6-2 2.5-1.2 3.9.8 1.5 2.7 2.2 4.3 2.4 1.5.3 4.4-.5 5.4-.8q.5 1.2.9 2.3c.1.6.3 1 .5 1.6q.2.8.4 1.5c.2 1.1.5 2.1.7 3.1l.4 2c-.3-.8-1-2.2-1.1-2.3-1.1-1.8-4.3-4.6-6.6-4-1.6.4-2.4 2.2-1.8 3.7.6 1.6 2.3 2.6 3.9 3.1s5.3 0 5.7-.1q.4 1.7.6 3.2l.4 2.2h1.5q-.3-1.2-.5-2.4-.3-1.7-.7-3.6c.2-.1 1.8-.7 3.2-1.5 1.2 1.3 4.3 2.9 4.7 3.1q-.7 1.5-1.3 2.9-.3.8-.6 1.5h1.5q.2-.5.4-.9.7-1.6 1.3-3.4c.5.1 4.1.9 5.8.5 1.5-.4 3.4-1.2 4.1-2.7.6-1.5 0-3.4-1.6-3.9-2.2-.8-5.6 1.8-6.9 3.5 0 .1-.7 1.2-1.1 2q.2-.7.5-1.4c.3-1 .7-2 1-3q.3-.8.5-1.6c.2-.5.3-1.1.4-1.6q.5-1.9.8-3.9c.8.3 3.9 1.3 5.5 1.2 1.5-.1 3.5-.7 4.4-2.1.9-1.3.6-3.2-.9-4-2.1-1.1-5.9.9-7.4 2.4-.1.1-1 1.3-1.5 1.9q.2-1.2.3-2.4c.3-2.3.5-4.7.8-7l.2-2.2c.3.1 3.9 1.4 5.6 1.3 1.6-.1 3.6-.7 4.5-2.1.9-1.3.5-3.2-1-4-2.1-1.1-5.8.9-7.3 2.4-.1.1-1.5 1.8-1.8 2.3q.2-2.4.6-4.8.5-3.2 1.3-6.2c.2 0 3.9 1.5 5.7 1.3 1.6-.1 3.6-.7 4.5-2 .9-1.4.5-3.3-1-4.1-2.1-1.1-5.8.9-7.3 2.4-.1.1-1.6 2-1.8 2.3q0-.2.1-.3c.6-2.2 1.5-4.1 2.4-5.9q.8-1.6 1.7-3c.7.3 3.8 1.8 5.4 1.9 1.6.1 3.6-.3 4.6-1.6 1.1-1.2 1-3.2-.4-4.1-2-1.3-6 .3-7.6 1.6-.1 0-.9.9-1.5 1.5q.4-.7.8-1.3c1-1.5 2-2.8 2.8-3.9q.8-1 1.5-1.7c.8-.1 4.1-.2 5.6-.8 1.4-.7 3.1-2 3.4-3.6.3-1.6-.6-3.2-2.3-3.4-2.4-.3-5.2 2.9-6 4.9-.1.1-1 2.9-.9 2.9q-.6.7-1.4 1.6c-.9 1.1-1.9 2.4-2.9 3.9-1.1 1.5-2.1 3.1-3.1 4.9-1 1.8-1.9 3.7-2.6 5.9l-.1.1c.1-.7 0-2.7 0-2.8-.3-2.1-2-6-4.3-6.4-1.7-.3-3.1 1-3.2 2.6-.2 1.7 1 3.3 2.2 4.4 1.3 1.2 5 2.3 5.3 2.4-.7 2.1-1.2 4.2-1.6 6.4l-.6 3.8v-1.2c-.3-2.1-2-5.9-4.3-6.4-1.7-.3-3.1 1-3.2 2.7-.2 1.6 1 3.3 2.2 4.3 1.2 1.1 4.3 2.1 5.1 2.4q-.1.7-.2 1.5c-.2 2.3-.5 4.7-.9 7q-.1 1.2-.4 2.4v-1c-.3-2.1-2-6-4.3-6.4-1.7-.3-3.1 1-3.2 2.6-.2 1.7 1 3.3 2.2 4.4 1.1 1 4 2 5 2.3l-.6 2.4c-.1.5-.2 1-.4 1.6q-.3.7-.5 1.5c-.4 1-.7 2-1.1 2.9q-.4 1-.8 1.9c.2-.8.4-2.4.4-2.5 0-1.4-.5-3.7-1.5-5.3v-.6c-.3-1.6-1.8-2.8-3.4-2.4-2.3.7-3.7 4.6-3.8 6.8 0 .1 0 1.4.1 2.3q-.2-.8-.3-1.5c-.3-1-.6-2-.8-3.1q-.3-.8-.5-1.5c-.2-.6-.4-1.1-.6-1.6q-.6-1.9-1.5-3.7c.9-.2 4-1 5.3-2 1.2-.9 2.5-2.5 2.5-4.2 0-1.6-1.3-3-3-2.8-2.3.2-4.4 4-4.8 6 0 .1-.1 1.7-.2 2.5l-1-2.2-3.3-6.3q-.5-1-1-1.9c.3-.1 4-1 5.4-2.1 1.3-.9 2.6-2.5 2.6-4.1 0-1.7-1.3-3.1-3-2.9-2.4.3-4.4 4-4.8 6-.1.2-.3 2.4-.3 2.9q-1.1-2.1-2.1-4.2-1.4-3-2.3-6c.1 0 4-.9 5.5-2 1.2-1 2.5-2.5 2.5-4.2 0-1.6-1.3-3-3-2.8-2.3.2-4.4 3.9-4.8 6 0 .2-.2 2.5-.2 2.9q-.1-.1-.2-.3c-.6-2.1-.9-4.3-1.1-6.3q-.2-1.7-.3-3.4c.8-.1 4.2-.5 5.6-1.4 1.3-.8 2.8-2.2 3-3.9.1-1.6-1-3.1-2.7-3.1-2.4 0-4.8 3.5-5.5 5.5 0 .1-.2 1.2-.4 2.1v-1.5c0-1.8.1-3.4.2-4.9q.1-1.2.3-2.2c.6-.5 3.4-2.4 4.2-3.8.8-1.3 1.5-3.3.9-4.8s-2.4-2.4-3.9-1.6c-2.1 1.1-2.6 5.3-2.3 7.4.1.1.9 2.9.9 2.9v-.1q-.1 1-.2 2.2c-.2 1.4-.3 3.1-.4 4.9 0 1.8 0 3.7.2 5.7.2 2.1.5 4.2 1 6.4l.1.1c-.4-.6-1.5-2.2-1.6-2.3-1.4-1.6-5-3.8-7.1-2.9-1.6.6-2.1 2.5-1.3 3.9.8 1.5 2.8 2.2 4.3 2.4z"/><path id="&lt;Path&gt;" class="s3" d="M452.5 425.5c.1 0 .8-2.8.8-3 .3-2-.4-6.2-2.5-7.3-1.5-.7-3.2.2-3.8 1.7-.6 1.6.2 3.5 1 4.8 1 1.6 4.5 3.8 4.5 3.8z"/></g><g id="&lt;Group&gt;"><path id="&lt;Path&gt;" class="s3" d="M39.4 429.3c1.5.7 5.3.6 5.3.6s-.8-2.5-.9-2.6c-.8-1.7-3.4-4.6-5.5-4.3-1.6.2-2.4 1.8-2.1 3.2.4 1.5 1.9 2.5 3.2 3.1z"/><path id="&lt;Path&gt;" class="s3" d="M40.7 440.2c1.6.2 4.9-.8 5.2-.9q.8 2.9 2 5.7.7 1.6 1.5 3.1c-.3-.4-.6-.8-.6-.9-1.3-1.4-4.6-3.5-6.5-2.6-1.4.6-1.8 2.3-1.1 3.6.7 1.3 2.4 1.9 3.8 2.1 1.5.3 4.3-.5 5.1-.7l.6 1.2c1 1.9 1.9 3.8 2.8 5.7q.5 1 .9 2.1c-.3-.4-.5-.8-.5-.8-1.3-1.5-4.5-3.5-6.5-2.7-1.4.6-1.8 2.3-1.1 3.6.7 1.3 2.5 2 3.9 2.2 1.3.2 4-.5 4.9-.7l.8 2c.1.5.3 1 .4 1.5l.4 1.4c.2.9.5 1.8.7 2.7q.2.9.3 1.8c-.3-.6-.9-1.9-1-2.1-1-1.6-3.9-4.1-6-3.6-1.4.4-2.1 2-1.6 3.4s2.1 2.3 3.5 2.8c1.5.4 4.8 0 5.2-.1q.3 1.5.6 2.9.1 1 .3 2H60l-.4-2.2q-.3-1.5-.7-3.2c.3-.1 1.7-.7 2.9-1.4 1.1 1.2 3.9 2.6 4.3 2.8q-.6 1.4-1.1 2.7-.3.6-.6 1.3h1.4q.2-.4.3-.8.6-1.5 1.2-3.1c.4.1 3.7.8 5.2.4 1.4-.3 3.1-1.1 3.7-2.4.6-1.4.1-3-1.4-3.5-2-.7-5.1 1.6-6.2 3.1-.1.1-.7 1.2-1.1 1.9q.3-.7.5-1.3c.3-.9.6-1.8 1-2.8l.4-1.4c.1-.4.2-1 .4-1.4q.4-1.8.7-3.6c.7.3 3.5 1.3 4.9 1.2 1.4-.1 3.2-.7 4-1.9.8-1.3.5-3-.8-3.7-1.9-1-5.3.8-6.7 2.2-.1.1-.9 1.1-1.4 1.7q.2-1 .3-2.1c.3-2.2.5-4.3.7-6.4l.2-2c.3.1 3.5 1.3 5.1 1.2 1.5-.1 3.2-.6 4.1-1.9.8-1.2.5-3-.9-3.7-1.9-.9-5.3.9-6.6 2.2-.1.1-1.4 1.7-1.7 2.1q.2-2.2.6-4.3.4-2.9 1.2-5.7c.1.1 3.5 1.4 5.1 1.3 1.5-.1 3.2-.7 4.1-1.9.8-1.3.5-3-.9-3.7-1.9-1-5.3.8-6.6 2.2-.1.1-1.5 1.8-1.7 2.1q.1-.2.1-.4c.6-1.9 1.4-3.7 2.2-5.3q.8-1.4 1.6-2.7c.6.3 3.4 1.7 4.8 1.8 1.5 0 3.3-.3 4.2-1.5 1-1.1.9-2.9-.4-3.7-1.8-1.2-5.4.2-6.8 1.4-.1.1-.9.8-1.4 1.4q.3-.6.7-1.2c.9-1.3 1.8-2.5 2.6-3.5q.7-.9 1.3-1.6c.8 0 3.8-.1 5.1-.7 1.3-.6 2.8-1.8 3.1-3.2.3-1.5-.6-3-2.1-3.1-2.2-.3-4.7 2.6-5.5 4.4 0 .1-.8 2.6-.8 2.6h.1q-.6.7-1.3 1.5c-.8 1-1.8 2.2-2.7 3.5-.9 1.3-1.9 2.8-2.8 4.4-.9 1.7-1.7 3.5-2.3 5.4q-.1 0-.1.1V436c-.2-1.9-1.8-5.4-3.9-5.8-1.5-.3-2.8.9-2.9 2.3-.2 1.6.9 3.1 2 4 1.2 1.1 4.5 2.1 4.8 2.2q-.9 2.8-1.4 5.8l-.6 3.4v-1c-.2-1.9-1.8-5.4-3.9-5.8-1.5-.3-2.8.9-2.9 2.3-.2 1.5.9 3 2 4s3.9 1.9 4.6 2.1q0 .7-.1 1.4c-.3 2.1-.5 4.3-.8 6.3l-.4 2.2v-.9c-.3-1.9-1.9-5.4-4-5.8-1.5-.3-2.8.9-2.9 2.4-.1 1.5 1 3 2.1 3.9 1 .9 3.6 1.8 4.5 2.1q-.3 1.1-.5 2.2c-.2.5-.3.9-.4 1.4q-.3.7-.5 1.4c-.3.9-.6 1.8-1 2.7q-.3.8-.6 1.7c.1-.7.3-2.2.3-2.3 0-1.3-.5-3.3-1.4-4.8q.1-.3 0-.5c-.2-1.5-1.6-2.6-3.1-2.2-2 .6-3.3 4.2-3.4 6.1 0 .1 0 1.3.1 2.1q-.2-.7-.3-1.3c-.2-1-.5-1.9-.7-2.8q-.3-.7-.5-1.4c-.1-.5-.3-1-.5-1.5q-.6-1.7-1.3-3.3c.8-.2 3.6-.9 4.7-1.8s2.3-2.3 2.3-3.8-1.2-2.7-2.7-2.6c-2.1.3-4 3.6-4.3 5.5-.1.1-.2 1.5-.2 2.2q-.5-1-1-1.9c-.9-2-1.9-3.9-3-5.8q-.4-.8-.9-1.7c.3-.1 3.7-.9 5-1.8 1.1-.9 2.3-2.3 2.3-3.8s-1.2-2.8-2.7-2.6c-2.2.2-4 3.6-4.4 5.5 0 .1-.2 2.1-.2 2.6q-1-1.9-1.9-3.9-1.3-2.7-2.1-5.4c.1 0 3.6-.8 4.9-1.8 1.2-.9 2.4-2.3 2.4-3.8-.1-1.5-1.2-2.7-2.8-2.6-2.1.3-3.9 3.6-4.3 5.5 0 .1-.2 2.3-.2 2.7l-.2-.4c-.5-1.9-.8-3.8-1-5.6q-.2-1.6-.2-3.1c.6-.1 3.7-.5 5-1.3 1.2-.7 2.5-2 2.7-3.5.1-1.5-.9-2.9-2.4-2.9-2.2 0-4.4 3.2-5 5 0 .1-.2 1.1-.3 1.9q-.1-.7-.1-1.3c0-1.7.1-3.1.2-4.4q.1-1.1.2-2.1c.7-.4 3.1-2.1 3.9-3.4.7-1.2 1.3-3 .8-4.4-.6-1.3-2.1-2.1-3.5-1.4-1.9 1-2.4 4.8-2.1 6.7.1.2.8 2.6.8 2.6q-.1.9-.2 2c-.1 1.3-.3 2.7-.3 4.4 0 1.6 0 3.3.1 5.2.2 1.8.5 3.8 1 5.8-.3-.5-1.3-1.9-1.4-2-1.2-1.5-4.5-3.5-6.5-2.7-1.4.6-1.8 2.3-1.1 3.6.7 1.3 2.5 2 3.9 2.2z"/><path id="&lt;Path&gt;" class="s3" d="M77.3 430.1c0 .1.7-2.4.7-2.6.2-1.9-.4-5.7-2.3-6.6-1.4-.7-2.9.1-3.4 1.5s.1 3.1.9 4.3c.9 1.4 4.1 3.4 4.1 3.4z"/></g></g><g id="Cons Mark 2"><path id="&lt;Path&gt;" class="s4" d="M388.9 293.8h-17.8c-5.2 0-9.4-4.2-9.4-9.4v-26.1c0-5.2 4.2-9.4 9.4-9.4h23.7c5.3 0 9.5 4.2 9.5 9.4v26.1c0 5.2-4.2 9.4-9.5 9.4M361.7 338v-13.9c0-5.3 4.2-9.5 9.4-9.5h23.7c5.3 0 9.5 4.2 9.5 9.5v26c0 5.2-4.2 9.5-9.5 9.5h-23.7c-5.2 0-9.4-4.3-9.4-9.5v-6M404.3 410v5.8c0 5.3-4.2 9.5-9.5 9.5h-23.7c-5.2 0-9.4-4.2-9.4-9.5v-26c0-5.2 4.2-9.5 9.4-9.5h23.7c5.3 0 9.5 4.3 9.5 9.5V404"/><path id="&lt;Path&gt;" class="s5" d="m387.2 271.3 11-11c1.2-1.1 1.2-3 0-4.2-1.1-1.2-3-1.2-4.2 0l-11 11-11-11c-1.2-1.2-3.1-1.2-4.3 0-1.1 1.2-1.1 3.1 0 4.2l11 11-11 11c-1.1 1.2-1.1 3.1 0 4.3.6.6 1.4.9 2.2.9.7 0 1.5-.3 2.1-.9l11-11 11 11c.6.6 1.4.9 2.1.9.8 0 1.6-.3 2.1-.9 1.2-1.2 1.2-3.1 0-4.3zM387.2 337.9l11-11c1.2-1.1 1.2-3 0-4.2-1.1-1.2-3-1.2-4.2 0l-11 11-11-11c-1.2-1.2-3.1-1.2-4.3 0-1.1 1.2-1.1 3.1 0 4.2l11 11-11 11c-1.1 1.2-1.1 3.1 0 4.3.6.6 1.4.9 2.2.9.7 0 1.5-.3 2.1-.9l11-11 11 11c.6.6 1.4.9 2.1.9.8 0 1.6-.3 2.1-.9 1.2-1.2 1.2-3.1 0-4.3z"/></g><g id="Pros Mark 2"><path id="&lt;Path&gt;" class="s4" d="M125.2 293.8H113c-5.3 0-9.5-4.2-9.5-9.4v-26.1c0-5.2 4.2-9.4 9.5-9.4h23.7c5.2 0 9.4 4.2 9.4 9.4v26.1c0 5.2-4.2 9.4-9.4 9.4h-5.4M128 314.6h8.7c5.2 0 9.4 4.2 9.4 9.5v26c0 5.2-4.2 9.5-9.4 9.5H113c-5.3 0-9.5-4.3-9.5-9.5v-26c0-5.3 4.2-9.5 9.5-9.5h6.4M103.5 398.9v-9.1c0-5.2 4.2-9.5 9.5-9.5h23.7c5.2 0 9.4 4.3 9.4 9.5v26c0 5.3-4.2 9.5-9.4 9.5H113c-5.3 0-9.5-4.2-9.5-9.5v-9.7"/><g id="&lt;Group&gt;"><path id="&lt;Path&gt;" class="s6" d="M124 284.1h-.3c-1-.1-1.9-.7-2.5-1.6l-8.7-14.7c-.9-1.5-.4-3.5 1.1-4.4 1.5-.9 3.5-.4 4.4 1.1l6.5 11.1 23.4-26.1c1.1-1.3 3.1-1.4 4.5-.2 1.3 1.2 1.4 3.2.2 4.5L126.3 283c-.6.7-1.4 1.1-2.3 1.1z"/></g></g><g id="Character"><g id="&lt;Group&gt;"><g id="&lt;Group&gt;"><path id="&lt;Path&gt;" class="s7" d="M173 134.5s-2.6-5.3-4.1-7.4c-1.5-2.1-6.6-2.8-7.8-3.1-1.3-.3-7.6-2.3-9.2-3.4-1.5-1.1-2.1-.1-2 1 .2 2.1 2.8 3.6 3.6 3.6 1.3-.1 1.6 1.3 1.6 1.3s-9.6 1.7-10.1 1.5c-.6-.3-4.9-1.8-6.1-.9-.7.5-.6.6-.5 2 .1.3-.6 2.4-.4 2.7.2.6.2 1.1.8 1.7.8.7 2.2 1.3 2.5 1.6 1.2 1.6 5.7 4.3 7.6 4.5 1.9.1 16-1.4 16-1.4l15.4 26.6 15.6-8.3z"/><path id="&lt;Path&gt;" class="s7" d="M152.5 135.3c-1.1.7-2.6 1.7-2.6 1.7l-2.3-.1s-4.5-3-5.4-2.7c0 0-1-.4-.9.9M166.4 132.2s-1.8-1.4-4.8-1.5c-1.3-.1-4.6 2-6.8 3.3M155.1 126.5l5.4.2M138.4 129.1s.4-1.1 1.7-.8c1.4.2 4.8 2.2 4.8 2.2l6.4-.7M138 131.8s.5-1.1 1.7-.9c1.1.2 5.5 2.4 5.5 2.4l6.4-.5"/></g><g id="&lt;Group&gt;"><path id="&lt;Path&gt;" class="s7" d="M367.2 175.7s2.3-4.4 3.5-6.8c1.2-2.3 6.1-3.8 7.2-4.3 1.2-.5 7.1-3.5 8.5-4.8 1.3-1.3 2.1-.5 2.2.7.1 2-2.2 4-3.1 4.1-1.2.1-1.3 1.5-1.3 1.5s9.8.1 10.3-.2c.5-.3 4.5-2.5 5.8-1.8.8.3.7.4.8 1.8 0 .4 1 2.3.9 2.7-.1.6 0 1.1-.5 1.7-.7.8-2 1.7-2.2 2-1 1.9-5 5.2-6.8 5.7-1.8.5-17.7 1.3-17.7 1.3L359.1 200l-11-9.1z"/><path id="&lt;Path&gt;" class="s7" d="M388.2 174.4c1.2.5 2.9 1.2 2.9 1.2l2.2-.5s3.9-3.6 4.9-3.5c0 0 .9-.5 1.1.7"/><path id="&lt;Path&gt;" class="s4" d="M374 173.6s1.6-1.7 4.5-2.3c1.3-.3 4.8 1.2 7.2 2.2"/><path id="&lt;Path&gt;" class="s7" d="m384.2 166.1-5.3 1.1M401.1 165.9s-.5-1-1.8-.5-4.3 3-4.3 3l-6.5.3M402 168.6s-.7-1-1.8-.7c-1.1.4-5.1 3.3-5.1 3.3l-6.4.5"/></g><g id="&lt;Group&gt;"><g id="&lt;Group&gt;"><path id="&lt;Path&gt;" class="s2" d="M208 266.8s-3.6 10.7-3.2 23.9c.5 13.2 5.6 42.4 3.5 46.9-2.1 4.4-9.5 5.8-14.9 15.8-5.3 9.9-19 58.7-18.9 60.1.1 1.3 11.5 5.3 11.5 5.3s31.7-54.7 41.3-65.3c9.6-10.7 18.9-68.1 18.9-68.1s-3.3 62.5-2.9 73.1c.4 10.6 10.4 36.5 13 47.1 2.7 10.5 3.1 35.6 3.1 35.6s9.2 2.2 12.3 1.3l3.1-.9s.6-32.3 1.5-42.8c.9-10.6-5.1-43.2-5.1-43.2s16.8-54.8 18.1-75c0 0-5.3-24.6-15.8-33-10.6-8.4-27.7-12.3-38.7-8.4-11 4-26.8 27.6-26.8 27.6z"/><path id="&lt;Path&gt;" class="s7" d="M250.5 253.3c0 1.1-.8 1.9-1.9 1.9-1.1 0-1.9-.8-1.9-1.9 0-1.1.8-1.9 1.9-1.9 1.1 0 1.9.8 1.9 1.9z"/><path id="&lt;Path&gt;" class="s8" d="M246.7 253.3s-3.4 16-2.8 18.4c.5 2.3 3 2 3 2l2.1-6.4M233.8 251.9s6.2-.4 9.5.5M227.2 267.8s5.1 8.2 9.5 13.4M267.2 270.4l-10.3 7.2"/></g><path id="&lt;Path&gt;" class="s9" d="M259.4 441.2s.3 12.2 0 13.7c-.3 1.6-4.7 17.2-4.7 21.5 0 4.4 5.3 12.8 9.7 10.9 4.4-1.8 9.3-7.4 10.3-11.8.9-4.4-2.2-18.1-2.2-20.6v-15.5z"/><path id="&lt;Path&gt;" class="s10" d="M264.4 487.3c4.4-1.8 9.3-7.4 10.3-11.8.5-2.4-.2-7.8-1-12.5-1.1 2.9-3 7.2-4 8.5-1.6 1.8-5.6 4-9.4 1.2-3.7-2.8-2.4-9.7-2.4-9.7l-.6.1c-1.2 5-2.6 10.9-2.6 13.3 0 4.4 5.3 12.8 9.7 10.9z"/><path id="&lt;Path&gt;" class="s9" d="M174.5 413.5s-3.3 7.5-5.2 12.2c-1.8 4.7-2.9 6.3-2.8 10.9.1 4.5-2.9 13.4 1.7 19.4 3 4 9.7 4.5 12.2-3.6 2.4-8 .6-22 .7-23.6.1-1.6 2.5-10.2 2.5-10.2z"/><path id="&lt;Path&gt;" class="s10" d="M166.5 436.6c.1 4.5-2.9 13.4 1.7 19.4 3 4 9.7 4.5 12.2-3.6 1-3.4 1.3-7.8 1.3-11.9-1.6 3.3-3.4 6.5-5.6 8.6-3 2.7-6.2-1-7.4-3.9-1.1-2.9.6-19.5.6-19.5-1.8 4.7-2.9 6.3-2.8 10.9z"/></g><g id="&lt;Group&gt;"><path id="&lt;Path&gt;" class="s10" d="M349.8 189.5c-1-.4-2 .2-2 .2l-1.8 2.6h-1.5c-1 0-2.4 1.9-3.1 2.9l-1.7 1.3q-.1 0-.3.1l-4.2 2.1s-1.1-3.1-2.7-3.7c-1-.4-2.8-1.2-4.1-1.8l-20-25.3c.8-3.1-23.8-12.8-23.8-12.8l-33.8-6.5-17.9 3.8-19.5 15c-.6-.5-2.2-1.7-3.2-1.3-1.2.4-3.6 3.6-3.6 3.6s-.6-3.2-1.5-3.9c-.8-.6-3.4-1.4-3.4-1.4s1-1 0-2.6c-1-1.7-3.3-2.7-3.9-3.7-.6-1-1.2-3.3-2.2-3.7l-1.1-.4s-7.5 3.5-11.4 6.5c-3.8 3.1-5.3 2.7-4.7 4.9.6 2.3 2.1 2.4 2.1 2.4s-1.7 2.3-.4 4.4c1.2 2 2.8 3 2.8 3s1.9 3.7 2.9 5.7c.7 1.4 3.7 3.6 5.7 5.1 4.2 6.8 7.5 12 8.3 12.9 3.2 3.5 4.4 3.3 7.5 1.6 1.7-1 9.9-5.5 21.4-10.8l1.9 13.6s-14.7 31.6-16 34.5c-1.2 3 .9 4.1.9 4.1s-6.7 10-7.1 12.1c-.4 2.1-.4 12.8-.4 12.8l17-10.7c8.9-7.2 12.3-9 13.4-8.9 4.8.3 14.4 1.3 16.8 3.1 0 0 32.6 32.8 33.3 34.8.8 1.9 2.8-6.7 4-10.4 1.2-3.6-.5-5.4-.5-5.4s2.5-1.7 2.2-4.4c-.1-1.7 1-4-.1-10.5 0-4.2-2.6-14.8-2.5-16.1.1-1.6-3-19.3-2.4-21.3 4.2-8.5 5.5-5.5 11-13 10.2 6.8 35.5 24.2 36.9 23.6 2.1-.9 8.3-6 13.9-13.8l2.9-3.5 1.6-2.3c1.7-2.2 2.3-4.9 3.1-5.5.8-.6 1.2-2 1.2-3.6 0-1.7-8.9-9-10-9.4z"/><path id="&lt;Path&gt;" class="s11" d="m300.2 204-5.7-3.1M259.8 219.6c1.2 1.5 2.5 3 3.8 4.4M249.9 202.6s2.5 6 6.7 12.5M253.5 213.5l5.2 8.8M254.4 155.8s-3.4 9.5-.6 18"/><g id="&lt;Group&gt;"><path id="&lt;Path&gt;" class="s9" d="M260.2 249.7s21 13.3 27.3 17.3M211.7 257.7l21.8-10M255.2 250.3s8.4 3.7 15 7.7"/></g><g id="&lt;Group&gt;"><path id="&lt;Path&gt;" class="s9" d="M233.8 173.1s-3.3 7.5-4.7 14.1"/><path id="&lt;Path&gt;" class="s12" d="M206.3 171.6s-3.5 8.8-3.8 13.1M199.5 163.6s-10.4 7.2-12.6 12.4M183.3 166.4s6.3-5.9 11.8-7.4M203.9 172.9s-8.5 14.6-6.9 15.1c1.6.6 3-3.5 3-3.5"/></g><path id="&lt;Path&gt;" class="s11" d="M334.9 201.6s.5 12.4 1.9 11.8c1.4-.5.3-7.1.3-7.1M342.3 197.2s4.4 8 6.3 9.4M346 192.3s7.5 5.5 9.4 8.2M332.1 197.5s-3.3 10.1-1.1 15.6"/></g><g id="&lt;Group&gt;"><g id="&lt;Group&gt;"><path id="&lt;Path&gt;" class="s9" d="m269.7 148.1-2.9-1.8s-2.6-.8-5 3.6c0 0-3.2 6.3-3.4 12.5-.2 5.7 5.6 10.1 15.7 5.4 1-.4 2-.9 2.9-1.5 4.2-2.9 9.2-8.3 9.2-8.3l2.2-16.6c-4.4 2.6-13.8 5.3-18.7 6.7z"/><path id="&lt;Path&gt;" class="s2" d="M279.5 144.7s-14.1 14-20.4 16.5L262 148l17.9-5.3z"/></g><g id="&lt;Group&gt;"><path id="&lt;Path&gt;" class="s9" d="M281.7 109.4s3.2.4 5.7 7.1c2.4 6.6 1.8 8.4 4 11.8 2.3 3.4 4.4 8.8 3.5 13.8-.8 4.9-1.5 11.7-5.8 14.3-6.9 4.2-16.3-2.8-21.4-5.6-5-2.8-9.3-8.2-10.9-10.6-1.5-2.4-4.9-8.2-4.7-14.5.3-6.2 7.5-13.4 11.4-15.3 3.9-1.8 10.8-2.9 18.2-1z"/><path id="&lt;Path&gt;" class="s2" d="M264.3 103.6s2.1-5.4-5.6-6.6c-7.7-1.1-7.2 3.8-8.8 4.2-1.7.5-5.6-8.3-13.1-5.3-7.4 3-4.8 10.2-5.1 12.1-.2 1.8-3.9-2.8-7.2 3.2-3.2 6.1 0 10-.5 11.4-.4 1.4-7.1-1.9-8.7 3.2-1.7 5.1 2.5 9.3 2.5 10.2 0 .9-3.7.9-4.6 4.4-.9 3.5 1.6 5.4 1.8 7.2.3 1.9-3.7 5.5-.4 10.7 3.2 5.1 9.4 3.4 9.2 5.9-.2 2.6-2.1 4.7.7 6.5 2.8 1.9 5.8-1.4 5.8-1.4s-.7-4.1.5-4.1 4.4 3 6.7 1.4c2.4-1.7 1.9-5.9 3.8-6.3 1.8-.5.9.9 6 .2s4.4-7.2 4.4-8.4c0-1.1 3.5.5 5.4-2.5 1.8-3 .4-5.4.4-5.4s-5.3-8.8-4.6-13.9"/><path id="&lt;Path&gt;" class="s2" d="M260.6 142.6s-.9-2.8 1.3-6.2c2.1-3.4 2.4-7-.1-8.5-2.4-1.6-3.4-4.1.2-8.2s10 .8 13.8-2.6c3.8-3.5 3.8-6 6.7-6.5 2.9-.4 3.8 3.2 3.8 3.2s-2.8-8.1-11.8-10.2c-8.9-2.1-23 4.3-27.5 16.5-4.6 12.3 10.5 24.1 10.5 24.1s1 .3 3.1-1.6z"/><path id="&lt;Path&gt;" class="s11" d="m283.7 131.4 6.8 9.3-5.2 1.9M289.9 146.6s-3.1 2.8-6.2 1.4"/><path id="&lt;Path&gt;" class="s3" d="M277.2 135.6c.5 1.1.4 2.2-.1 2.4-.6.3-1.5-.4-1.9-1.5-.5-1.1-.5-2.1.1-2.4.6-.2 1.4.4 1.9 1.5zM288.2 128.7c.5 1 .5 2.1-.1 2.4-.6.2-1.4-.4-1.9-1.5s-.4-2.2.1-2.4c.6-.3 1.5.4 1.9 1.5z"/><path id="&lt;Path&gt;" class="s13" d="M269.9 134s1.6-5.6 6.1-5M282.3 124.8s1.1-3.7 4.5-3.1"/><path id="&lt;Path&gt;" class="s9" d="M261.8 143s-5.8-6.2-6.7-.7c-1 5.6 4.1 7.1 6.7 7.6 2.5.5 3.4-2.3 3.4-2.3"/></g></g></g></g><g id="Cons Mark 2"><g id="&lt;Group&gt;"><path id="&lt;Path&gt;" class="s9" d="M439.4 110.8c0 33.6-27.2 60.8-60.8 60.8-33.6 0-60.8-27.2-60.8-60.8 0-33.6 27.2-60.8 60.8-60.8 33.6 0 60.8 27.2 60.8 60.8z"/><path id="&lt;Path&gt;" class="s5" d="M425.2 110.8c0 25.7-20.9 46.6-46.6 46.6-25.7 0-46.6-20.9-46.6-46.6 0-25.7 20.9-46.6 46.6-46.6 25.7 0 46.6 20.9 46.6 46.6z"/><g id="&lt;Group&gt;"><g id="&lt;Group&gt;"><path id="&lt;Path&gt;" class="s3" d="M410 149.1c-1.8 0-3.6-.7-5-2.1l-61.1-61.1c-2.7-2.7-2.7-7.1 0-9.9 2.7-2.7 7.2-2.7 9.9 0l61.1 61.1c2.7 2.8 2.7 7.2 0 9.9-1.4 1.4-3.2 2.1-4.9 2.1z"/></g><g id="&lt;Group&gt;"><path id="&lt;Path&gt;" class="s3" d="M348.9 149.1c-1.8 0-3.6-.7-5-2.1-2.7-2.7-2.7-7.1 0-9.9L405 76c2.7-2.7 7.2-2.7 9.9 0 2.7 2.8 2.7 7.2 0 9.9L353.8 147c-1.4 1.4-3.2 2.1-4.9 2.1z"/></g></g></g></g><g id="Pros Mark 1"><g id="&lt;Group&gt;"><path id="&lt;Path&gt;" class="s9" d="M198.5 73.3c0 33.6-27.2 60.8-60.8 60.8-33.6 0-60.9-27.2-60.9-60.8 0-33.6 27.3-60.8 60.9-60.8 33.6 0 60.8 27.2 60.8 60.8z"/><path id="&lt;Path&gt;" class="s6" d="M184.2 73.3c0 25.7-20.8 46.6-46.5 46.6-25.8 0-46.6-20.9-46.6-46.6 0-25.7 20.8-46.6 46.6-46.6 25.7 0 46.5 20.9 46.5 46.6z"/><g id="&lt;Group&gt;"><path id="&lt;Path&gt;" fill-rule="evenodd" class="s3" d="M135.8 97.9h-.7c-2.2-.2-4.2-1.5-5.3-3.4L110.5 62c-1.9-3.3-.8-7.6 2.5-9.6s7.6-.9 9.6 2.5L137 79.1l51.4-57.3c2.6-2.9 7-3.1 9.9-.5 2.9 2.6 3.1 7 .5 9.9L141 95.6c-1.3 1.5-3.2 2.3-5.2 2.3z"/></g></g></g></svg>