<svg viewBox="0 0 3072 1372" width="768" height="343" xmlns="http://www.w3.org/2000/svg"><path d="M2721 748h29l20 3 17 5 17 7 16 9 14 10 13 12 7 7 10 13 1 4-14 8-27 16-10 6-4-1-11-13-13-11-15-9-13-5-8-2-19-1-15 2-15 5-12 6-13 10-9 9-10 14-8 18-3 14-1 16 3 18 6 16 6 11 8 10 2 4h2v2l4 2 8 7 16 9 15 5 11 2h20l18-4 16-7 10-6 10-8 9-10 9-17-7 1h-96l-3-1v-54l1-1h171l1 1 1 8v25l-3 23-5 17-7 15-7 12-10 13-6 7-8 7-13 10-13 8-15 7-21 7-20 4-9 1h-27l-20-3-18-5-21-9-15-9-13-10-13-12-11-13-10-15-10-21-6-20-3-21v-20l3-21 6-20 10-21 8-12 11-14 11-11 10-8 15-10 17-9 24-8 15-3zM2117 753h130l19 2 18 4 17 6 16 8 12 8 10 8 14 14 11 16 8 16 6 18 3 14 2 16v26l-4 25-5 16-7 16-8 14-9 12-14 14-14 10-15 8-19 7-20 5-16 2-132 1-4-2V754zm62 55v176h63l17-2 17-5 14-8 10-9 8-11 5-11 5-19 1-8v-29l-3-18-5-15-7-12-9-10-9-7-15-7-17-4-9-1zM1818 753h136l21 3 15 5 15 8 13 10 10 11 9 14 5 12 4 14 2 16v12l-2 16-6 20-6 11-10 14-9 9-14 10-8 4h-2l3 5 11 14 14 18 10 13 26 34 8 11-3 2h-71l-8-9-7-9-26-34-16-21-11-15-41-1v87l-1 1h-61l-1-1V755zm62 54v89l72-1 11-4 9-6 7-8 5-12 1-5v-16l-3-12-5-10-8-8-8-4-7-2-11-1zM760 753h61l1 1v120h131l1-120 1-1h61l1 2v282l-1 1h-61l-1-1V928H822l1 108-1 2h-62zM1530 753h215l1 1v53l-153 1-1 62 38-1 98 1v54l-125 1h-10l-1 59h153l1 1v52l-1 1-210 1-6-2V755zM1248 753h126l18 2 16 4 15 6 14 8 11 9 9 9 9 13 7 14 4 14 2 10v28l-4 18-7 16-6 10-9 11-12 10-14 8-15 6-16 4-12 2-13 1h-60v81l-1 1h-62zm64 54-1 1v93h70l12-4 9-6 7-8 4-8 2-6 1-7v-12l-2-10-7-14-9-9-14-7-8-2-11-1zM2452 753h62l1 1v283l-1 1-55 1-7-1zM2956 753h61l1 1v283l-1 1h-61l-1-1V754zM1102 753h62l1 6v277l-1 2h-62l-1-13V755zM2496 1124h20l14 4 12 7 11 10 2 3-1 5-15 9-5 1-5-6-10-7-6-2h-15l-10 4-10 9-5 10-1 5v12l4 10 4 6 8 7 10 4h14l9-3 9-6 6-7 1-2h-40l-1-1v-21l2-1h62l4 1 1 5-1 14-4 13-6 10-4 5-10 8-13 6-12 3h-20l-13-4-11-6-8-7-9-10-7-16-1-4v-20l4-13 7-12 5-6 10-8 12-6zM1374 1123l14 1 13 4 11 6 10 9 8 11 5 12 2 10v10l-3 14-7 14-10 11-11 7-12 5-8 2h-20l-14-4-12-7-7-6v-2h-2l-7-10-5-10-2-8-1-13 2-12 4-11 8-12 8-8 14-8 9-3zm2 23-12 2-8 5-5 5-5 6-4 10v15l4 10 9 10 8 5 7 2h13l11-4 8-6 6-8 3-9v-15l-4-10-6-8-10-7-6-2zM1884 1123h8l15 3 14 7 11 9 6 8 7 14 2 8v19l-4 13-7 12-10 10-11 7-10 4-9 2h-20l-13-4-11-6-10-9-7-9-5-11-3-12v-13l3-12 8-16 12-12 12-7 9-3zm-5 24-8 3-8 6-6 7-4 10-1 4v9l3 10 7 10 6 5 8 4 4 1h13l10-3 8-6 6-7 4-9 1-6v-8l-3-11-6-8-8-7-10-4zM2259 1126h57l13 3 13 7 9 8 7 11 4 11 1 6v19l-3 12-8 14-2 3h-2l-2 4-13 8-13 4-8 1h-53zm26 21-1 1v67h29l10-3 8-6 5-10 1-3v-22l-4-11-5-6-10-5-15-2zM1747 1124h17l13 3 15 8 6 5 9 11 1 4-14 6-6 3-4-1-7-8-8-5-6-2h-15l-10 4-8 7-5 7-3 9v13l4 10 6 8 6 5 10 4h14l10-4 8-6 5-6 10 3 12 5 1 4-12 13-11 8-12 5-8 2h-6l3 3 6 4 4 6v7l-5 8-7 3-7 1-9-2-4-3 1-7 2-4-1-1 1-8 3-6-9-3-12-5-13-10-8-10-6-13-3-14v-8l4-16 5-10 8-10 10-8 12-6zm3 130-2 1v2h2v2h6l-1-5zM1974 1126h85v21l-7 1h-52l-1 23h53v21l-2 1h-50v11l-1 11h59l1 1v21h-84l-1-1zM2959 1124h20l16 4 10 5 7 5-1 5-8 11-3 4-5-2-13-6-7-2h-15l-8 4-1 1v7l3 3 14 4 23 5 14 6 7 6 5 10 1 4v13l-3 9-7 9-9 6-15 4h-24l-15-4-16-8-5-4 1-6 6-8 4-6 6 2 7 4 13 5 14 2 9-2 6-4 2-6-3-5-10-4-25-5-13-5-9-7-6-9-2-8v-8l3-10 7-9 10-6 9-3zM1238 1124h19l14 3 16 8 4 3-1 5-8 11-3 4-5-2-13-6-7-2h-15l-8 4-2 3 1 5 3 3 14 4 23 5 14 6 8 8 4 10 1 13-2 8-5 8-5 5-8 5-14 4h-24l-16-4-14-7-6-4-1-4 9-14 2-3 6 2 14 7 10 3h17l8-4 2-3v-6l-4-4-8-3-29-6-14-7-7-7-4-8-1-4v-11l4-11 7-8 8-5 9-3zM2120 1124h19l14 3 11 5 8 5 2 3-7 10-6 8-5-2-10-5-10-3h-14l-8 3-2 3 1 7 5 3 21 5 16 4 14 7 6 7 4 11v13l-4 11-8 9-10 5-12 3h-24l-15-4-16-8-5-4 1-5 7-11 3-4 5 2 17 8 15 3 9-1 8-4 3-4-1-6-5-4-17-4-18-4-16-8-7-8-3-7-1-5v-7l4-13 7-8 14-7zM1569 1126h24l1 1 1 69 3 10 4 5 8 4 3 1h12l9-4 5-4 3-6 1-6 1-70h25v72l-2 10-4 9-6 8-7 6-10 5-12 3h-19l-11-3-10-5-9-8-6-10-3-8-1-6zM2783 1123l4 2 8 16 12 23 12 22 17 32 9 17v2h-27l-3-5-6-11h-50l-8 16h-28l2-5 16-31 12-22 15-29 12-22zm1 50-4 6-9 19v1h25l-1-5-9-20zM655 569h14l12 4 8 6 7 8 4 9 1 4v14l-3 9-7 11-7 6-10 5-7 2h-15l-10-3-8-5-7-7-6-12-1-4v-13l4-12 6-9 10-8 10-4zM600 688h17l10 3 11 8 6 9 4 11v13l-4 11-6 9-8 7-11 5-4 1h-18l-11-4-10-9-6-9-3-10v-10l3-11 6-10 7-7 12-6zM540 521h18l12 5 8 7 6 10 2 6 1 10-2 10-6 12-7 8-10 6-8 3-4 1h-12l-13-4-9-7-7-11-2-6-1-10 3-14 5-9 6-7 11-7zM599 405h10l12 3 9 6 8 9 4 9 1 12-3 12-6 9-5 5-8 6-11 4-7 1h-8l-12-3-9-6-8-9-4-10v-16l5-12 7-9 11-7 8-3zM710 459h9l13 3 10 6 7 8 5 10 1 4v14l-4 11-9 10-9 6-11 3h-12l-12-3-9-6-7-7-5-10-2-12 2-11 5-10 4-5 10-7 8-3zM489 637h14l11 4 8 6 6 8 4 9 1 5v11l-3 10-6 10-9 8-8 4-7 2h-13l-10-3-8-6-6-7-4-8-2-8v-11l4-13 8-11 9-6zM549 801h13l10 3 10 6 8 9 4 9 1 4v14l-4 10-7 9-9 6-12 4h-12l-11-3-10-6-7-8-5-11-1-5v-10l4-12 8-10 10-6zM490 363h16l11 4 5 4 6 9 3 10v7l-4 13-6 9-7 7-10 6-8 3-6 1h-10l-10-3-8-5-7-10-2-6v-14l4-11 6-9 9-8 10-5zM435 475h13l9 3 9 7 6 10 2 6v16l-4 11-6 9-7 7-14 7-6 1h-9l-10-3-6-4-6-7-4-8-1-4v-16l5-14 8-10 8-6 9-4zM817 509h12l13 4 8 6 7 8 5 12v13l-3 9-6 8-8 7-9 4-4 1h-17l-10-4-8-6-7-9-4-13v-9l3-10 5-8 5-5 8-5zM657 306h11l12 3 8 4 8 8 5 10 1 11-3 10-7 10-9 6-10 4-5 1h-17l-13-5-10-9-5-10-1-4v-9l4-11 6-8 10-7 8-3zM607 958h19l11 4 9 6 7 8 4 10v12l-3 8-7 9-10 6-9 3h-19l-12-4-9-7-7-9-3-9v-10l4-10 6-8 12-7zM763 356l14 1 11 4 10 7 7 10 3 8v13l-6 12-8 7-8 4-7 2h-17l-11-4-9-6-8-10-3-8v-15l4-9 3-5h2v-2l10-6 6-2zM445 755h8l11 3 10 6 8 10 4 12v13l-4 11-6 8-8 6-13 4h-9l-9-2-10-6-7-8-5-10-1-4v-14l4-11 6-8 10-7zM2642 1126h88l1 1v19l-1 1h-31v89l-1 1h-24v-90h-32l-1-8v-12zM389 597h12l9 3 10 9 6 12 1 5v14l-3 10-7 10-8 7-9 4-4 1h-13l-9-3-10-9-5-10-2-11 1-10 3-10 7-10 8-7 9-4zM1464 1126h24l1 1v88h56l2 3v18l-1 1h-82l-1-69v-41zM498 911h17l11 4 9 6 7 8 4 9 1 4v9l-4 11-8 9-8 4-7 2h-16l-12-4-9-7-6-7-4-9-1-4v-9l3-9 4-6 8-7zM550 263h21l10 4 7 6 5 10v11l-4 10-9 10-10 6-10 4-12 2-12-1-10-4-8-7-4-7-1-4v-7l4-11 7-9 8-6 10-5zM921 561h17l10 4 10 9 5 9 1 4v15l-4 9-6 8-8 6-6 3-5 1h-16l-9-4-8-7-6-9-2-6v-15l4-10 6-8 5-4zM865 415h13l13 4 9 6 8 9 4 10v13l-5 10-4 5-10 6-5 2-6 1h-10l-13-4-11-8-6-9-3-7v-15l4-9 6-7 12-6zM343 446h9l9 3 5 4 5 8 2 7v14l-3 10-5 9-9 10-9 6-12 3-13-2-8-6-6-12-1-11 3-13 6-12 8-9 9-6zM393 333h15l8 4 6 7 3 8v8l-2 8-5 10-8 10-10 7-12 5-5 1h-11l-9-4-7-8-2-6v-11l4-12 8-11 9-8 14-7zM344 709h14l10 4 5 5 6 8 4 11v14l-4 11-7 9-7 5-9 3h-11l-10-3-10-9-5-10-2-8v-9l4-13 6-9 8-6zM667 1097h17l11 3 9 5 5 5 4 5 2 5v10l-4 8-7 7-13 6-11 2h-13l-12-3-10-6-7-8-3-9 1-8 4-8 9-8 13-5zM396 858h14l11 4 8 6 6 7 4 8 1 4v14l-5 10-5 5-5 4-10 3h-13l-11-4-8-6-6-7-4-8-1-3v-14l4-10 5-6 9-5zM298 561h11l10 5 6 8 3 7 1 5v14l-4 12-7 10-8 7-9 4-10 1-10-3-6-5-6-12-1-4v-13l3-11 4-8 6-8 9-6zM553 1054h19l13 4 9 6 8 9 3 7 1 7-3 9-5 7-8 5-10 3h-18l-12-4-10-6-8-9-3-7v-12l4-8 7-6 9-4zM814 278h14l12 3 10 5 8 7 6 10 1 3v11l-6 10-5 4-9 4-5 1h-16l-13-4-10-7-7-8-4-9v-11l4-8 8-7 7-3zM714 224h15l10 2 14 7 7 8 3 6v11l-6 10-9 6-8 3-9 2h-12l-13-3-9-5-7-6-5-10v-10l5-10 10-7 8-3zM784 1133h22l11 4 7 6 3 6v11l-6 10-10 8-11 5-13 3h-17l-10-3-6-4-6-7-1-2v-11l4-8 5-5 8-6 11-5zM456 237h16l8 3 5 4 3 6v12l-5 10-8 9-10 7-10 5-10 3-10 1-11-2-6-4-4-5-2-10 3-10 6-9 8-8 14-8zM968 467l12 1 11 4 10 9 4 6 2 5v15l-5 10-8 7-9 4-4 1h-13l-11-4-7-5-7-10-3-9v-8l3-10 6-8 10-6zM450 999h9l13 3 11 6 9 9 4 8 1 3v12l-5 8-7 6-9 3h-17l-12-4-10-7-7-8-4-8-1-9 3-9 6-7 8-4zM1026 600l13 2 9 6 6 9 2 7v11l-4 11-7 9-8 6-11 4h-11l-8-3-8-7-5-9-1-4v-13l4-11 6-8 8-6 7-3zM618 185h17l11 3 10 6 4 5 2 10-3 8-8 9-14 7-13 3h-16l-9-2-9-5-6-7-2-5 1-10 6-9 5-4 12-6zM1226 364l5 5 8 13 15 29 10 22 2 11 6 8 4 11 6 16 5 16 9 30 8 35 4 26 4 48 1 22-1 4-3-1-2-15-4-57v-12l-5-10-6-17-4-8-4-9v-2l-2 2-1 3-2 25-3 12-5 5-3-2v-20l4-19 5-8 4-2-1-4-1-19-1-1v-17l-1-3v25l-3 5-2-2v-22l1-9-8 6-4-2v-6l4-6 4-3h3v-5l-10-1-8-4-4-3v-5l5-1 8 4 1-2 1 4 3 1-4-6-9-7-14-15-2-5 6 1h3l-9-12-6-12 2-4-6-9-1-11-2-5zm4 15 1 2zm19 45 2 5 2-1zm4 5 1 3v-3zm2 3 1 2zm4 6 1 2 2-1zm3 2 1 3 1-3zm11 29-2 7 5 1-2-8zm12 51 1 2zM913 336h12l12 3 11 6 8 8 6 12v10l-4 8-8 7-10 3h-17l-11-4-9-6-7-8-4-9v-13l4-8 6-5 6-3zM310 812l13 2 10 6 6 8 4 9 1 5v9l-4 11-6 7-10 5-11 1-12-3-8-6-6-8-3-7-1-5v-9l4-11 7-8 10-5zM263 674l11 1 8 5 5 6 4 10 1 13-3 12-6 10-7 6-9 4h-13l-8-4-6-7-4-9-1-13 3-12 5-9 4-5 9-6zM908 1148h8l8 2 6 4 3 4 1 9-5 10-4 5h-2v2l-9 6-18 8-7 2-14 1-9-2-6-4-3-4-1-7 4-10 7-8 9-7 14-7 11-3zM2869 1126h24l1 6v104l-1 1h-24l-1-1v-109zM263 429l9 1 6 4 4 7 1 4v11l-4 13-6 11-9 10-9 6-10 3-8-1-6-4-4-7-1-5v-9l4-13 5-10 8-10 11-8zM351 947h14l12 4 11 8 6 9 3 7v12l-5 9-7 5-6 2h-15l-11-4-9-6-7-8-4-8v-14l4-8 8-6zM2594 1126h24l1 1v109l-1 1h-24l-1-13v-97zM2392 1126h25l1 110-1 1h-24l-1-1zM312 324h8l8 4 4 7v12l-5 13-7 10-10 10-12 7-7 2h-12l-7-6-2-5v-10l3-10 6-11 11-12 11-7zM604 1175h19l16 4 10 6 7 8 2 9-4 8-8 6-16 4h-15l-13-3-12-6-6-5-4-6-1-8 5-8 9-6zM532 157h9l11 3 7 6 1 2v9l-6 9-8 7-14 7-13 4-7 1h-14l-11-4-5-5-1-8 3-7 7-8 10-7 14-6zM493 1125h21l13 4 10 5 6 5 7 11v10l-7 8-11 4h-19l-11-3-14-7-8-8-4-8v-8l4-6 7-5zM221 542h9l6 3 5 6 3 8v17l-5 14-6 9-4 5-10 6-3 1h-10l-7-4-4-6-2-7v-15l5-15 7-11 9-8zM1061 513l11 1 8 3 8 7 4 7 1 4v11l-3 8-7 9-12 6-3 1h-11l-9-3-8-7-4-6-2-6v-12l3-8 5-7 10-6zM1006 395h15l12 4 8 6 5 5 5 9 1 10-5 10-5 4-9 4-13 1-12-3-10-7-6-7-4-9v-11l5-9 7-5zM775 170h18l13 3 14 7 5 4 5 8v8l-7 8-5 3-9 2-12 1-15-2-13-5-8-6-6-7-1-2v-8l4-7 12-6zM869 222h15l15 4 13 7 8 8 4 7v10l-5 6-5 3-11 2h-9l-12-2-12-5-9-6-7-8-2-5v-9l4-6 8-5zM722 1209h13l12 2 10 4 7 7 1 8-4 7-7 6-17 4-18 3h-11l-13-4-7-5-3-5v-8l4-6 8-6 9-4zM1109 629h11l7 3 5 5 3 5 1 4v13l-5 12-6 8-7 6-5 3-4 1h-13l-6-4-5-6-3-8v-12l3-10 7-10 6-5 8-4zM370 227h13l7 5 2 5-1 8-6 12-7 8-11 9-16 8-8 2h-12l-6-4-2-4v-8l4-9 6-9 7-7 14-10 13-5zM396 1070h14l14 4 12 7 9 10 4 10-1 7-4 6-5 3-9 2h-8l-16-4-11-6-10-9-5-10v-8l4-7 8-4zM689 127l18 1 13 4 8 5 5 6 1 5-3 6-7 6-11 4-12 2h-16l-14-3-8-4-5-5-3-4v-7l7-8 10-5 8-2zM963 282h10l12 3 14 7 10 9 5 9v9l-7 8-9 3h-12l-13-3-11-6-9-8-6-12 1-10 5-5 5-3zM228 774h10l10 5 5 6 4 9 1 4v10l-3 9-4 6-8 7-6 2h-11l-7-3-6-5-5-9-1-4v-15l4-9 7-8 6-4zM268 897h11l11 4 10 9 6 13v11l-4 8-6 5-8 3h-9l-10-3-9-6-6-7-4-10v-9l3-8 5-5 4-3zM828 1222h22l9 4 3 3 1 6-3 6-5 5-9 6-13 5-11 3-7 1h-19l-9-4-4-4v-8l4-6 10-7 12-5zM189 651h10l6 4 4 5 3 8 1 11-2 11-4 9-7 9-9 6-4 1h-7l-6-3-5-7-2-6v-18l5-14 6-8 8-7zM1000 1140h8l8 4 2 4-1 8-7 11-9 9-14 9-12 5-13 3-9-1-5-4-1-8 4-9 8-9 13-8 18-11zM448 149l9 1 6 4 1 7-6 9-5 6-15 10-17 7-12 3-9 1-7-2-4-4v-7l6-9 7-7 18-11 14-5zM305 1013h14l10 3 11 6 8 8 5 9 1 9-3 6-6 5-3 1h-14l-10-3-12-7-8-8-5-10v-9l4-6zM596 103h27l10 4 5 5-1 7-5 6-14 7-17 4-8 1h-14l-10-2-6-3-4-4v-6l5-7 16-8zM1091 441h11l10 3 8 5 6 7 2 5v11l-5 8-5 4-6 3-4 1h-11l-11-4-7-6-4-6-2-6v-8l4-9 8-6zM196 433l5 1 5 5 2 5v8l-3 12-8 16-7 9-7 7-10 5h-6l-5-5-1-3v-11l3-12 8-16 8-11h2v-2l11-7zM1138 542h10l7 3 5 4 3 5 1 4v10l-4 10-6 8-7 5-9 3-10-1-6-4-6-8-1-3v-14l4-9 7-8 8-4zM435 1173h11l18 4 14 6 9 7 6 7 1 2v8l-6 5-3 1h-18l-15-4-16-8-10-9-3-6v-6l5-5zM239 330h7l5 5 1 9-4 13-8 13-8 10-11 9-10 5-6 1-5-3-1-2v-13l5-12 6-10 8-10 7-7 10-6zM70 555h2v11l-6 36-5 23-3 17v10l3 1v33l-2 31v20l3 16 1 3 2 18 2 26v-12l2-7 3-1 2 10 1 10 1 42 2 8 2 6v-12l1-12 2-5 5 1 2 7v15l-2 11-3 4v10l2 6 5 2 1 13-1 5-2-2-6-17-5-16-7-27-4-27-4-9-4-21-5-41V635l5-38 5-26 4-15zM1046 340h14l12 4 11 7 8 8 3 5 1 9-4 6-5 4-4 1h-15l-10-3-10-6-7-7-5-10v-7l3-6 5-4zM1181 637h10l5 3 4 8v12l-4 13-7 11-5 5-8 5-5 1-7-2-6-7-2-6v-11l5-14 7-9 7-6zM159 540h7l5 5 2 4 1 13-4 16-7 14-9 10-7 4h-8l-4-4-2-8v-10l4-16 8-16 7-8zM837 138h16l14 3 13 5 11 6 7 7 2 4-1 5-5 4-8 2h-11l-17-3-16-6-11-7-5-6-1-5 3-5 5-3zM638 1257h16l19 3 10 4 7 6 1 6-5 5-9 4-13 2h-17l-13-2-12-4-8-5-2-4 1-5 6-5 8-3zM533 1225h22l17 4 10 4 8 6 5 5 1 6-4 6-2 1-22-1-30-3-10-5-5-4-4-7 2-6 6-4zM927 192h9l11 2 13 5 13 7 10 9 4 7-1 6-6 4h-17l-15-4-17-8-10-9-4-8 1-6 5-4zM94 906l6 3 1 2v10l6 11-1-7 3-3 9 3 6 5 4 7v6l-3 2-5-1-1-1-7-1 3 10 2 5 5 1 9 7 10 10 7 10-1 4-3 1-8-7-5-6-2 4 7 7 11 14 12 15 6 9 1 5-5-2-5-4v-3h-3l13 16 11 16 8 14 9 10 12 12v2l4 2v2l4 2 7 8 12 12 5 8 3 6 4 5v2l-3-1-9-11-12-12-7-8-9-10-10-11-7-9v-2h-2l-11-15-13-19-14-20-7-12-1-6-18-27-14-32-5-10-6-17-3-7zm28 62 1 3 3-1h-2v-2zm3 6 1 2zm2 3 1 2zm15 29 1 3v-3zm8 12 2 2v-2zM341 1114h13l11 3 12 5 10 7 7 7 4 8-1 7-5 4-2 1h-10l-13-3-16-8-9-7-6-7-3-6 1-7h2v-2zM298 238l7 1 3 4-1 8-5 10-8 11h-2l-2 4h-2v2h-2v2l-14 10-10 5-4 1h-7l-3-3-1-5 4-10 7-11 11-12 13-10 12-6zM167 752l8 1 6 4 5 8 2 10-1 11-4 9-7 8-8 4h-8l-7-4-4-6-2-7v-12l4-12 6-8 5-4zM202 860l11 2 6 4 6 7 3 6 1 5v7l-3 8-5 6-7 3h-11l-8-3-6-5-4-7-2-5v-12l4-8 6-5zM746 97h27l18 4 14 7 5 5v5l-6 5-8 2h-27l-15-3-13-5-7-6-1-7 5-4zM945 1218h13l5 4-1 5-7 8-8 6-16 8-16 6-13 3h-11l-5-5 3-7 7-7 13-8 17-8zM231 964h10l12 4 8 6 6 7 4 9v8l-4 6-5 3h-14l-10-4-11-8-7-11-1-8 4-8zM1009 251h14l12 4 12 6 9 7 5 5 4 5 2 4v5l-4 4h-16l-16-5-14-8-3-2v-2l-4-2-6-10v-7zM137 647l5 1 6 7 2 9v9l-4 16-4 8-5 7-8 5h-7l-5-6-2-6v-13l4-16 6-12 7-7zM522 93h18l5 3-1 6-9 8-15 7-20 6-11 2h-19l-4-4 2-6 8-6 16-8 16-5zM260 1057h12l10 3 13 7 10 9 6 9 1 6-2 4-5 3h-7l-13-4-10-5-10-8-8-9-2-4v-7l3-3zM1167 478l11 1 8 4 5 7 1 3v8l-4 8-4 5-8 4-3 1h-9l-9-4-6-8-1-2v-11l4-8 6-5zM756 1278h24l10 3 3 3-1 5-8 5-9 3-14 3-18 2h-15l-9-2-4-1-2-3 1-5 9-6 17-5zM1123 395h14l11 4 8 6 7 8 1 2v8l-6 7-6 2h-14l-10-4-10-9-4-9v-6l4-6zM1207 557l6 1 6 5 2 5v9l-3 10-7 11-6 5-4 2h-10l-5-5-3-6v-13l7-14 7-6 6-3zM366 160h8l2 2-1 5-8 11-9 8-16 11-16 8-8 3h-8l-2-2 1-5 7-10 11-10 13-9 17-9zM666 70h30l16 3 6 4 2 4-5 5-8 3-13 2h-23l-17-2-11-4-2-2 1-5 6-4 11-3zM140 455l5 1 2 4v10l-4 15-9 19-9 13-7 6-4 1-3-3v-13l5-17 6-14 9-14 7-7zM1090 313h8l12 4 12 7 10 9 6 7 1 2v6l-4 4h-10l-12-3-13-7-10-9-4-6-2-5 1-5zM453 1241h17l18 4 14 5 15 8 6 6-1 5-5 3-16-1-19-5-15-6-10-6-5-5-3-5zM180 356l5 2 1 4-2 12-8 16-7 11-12 15-10 7-4-1-1-1v-7l4-13 8-16 7-11 9-11zM1239 628l6 1 3 4 1 4v11l-2 10-5 13-7 10-5 4-7 1-5-6-1-3v-13l4-13 6-11 9-10zM903 130h11l16 4 13 5 18 10 7 6 3 7-3 3h-9l-17-4-15-6-17-9-8-6-2-4 1-5zM112 560l5 1 3 5v17l-4 15-6 14-7 11-5 4-5-1-2-5v-12l3-16 6-16 5-9zM143 833h10l5 3v2h2l4 8 1 4v9l-3 7-4 6-6 3h-10l-5-3-5-6-2-8 1-10 5-10zM984 184h11l13 4 19 10 12 9 5 4 5 8v4l-3 1h-7l-15-5-16-8-11-7-10-9-4-6zM169 921h10l9 4 6 5 6 10v10l-6 7-2 1h-10l-10-4-7-6-5-8-1-8 3-6 5-4zM117 743h7l5 6 2 5 1 11-2 11-6 12-7 6-7 1-5-6-2-6v-15l4-13 6-9zM369 1193h14l17 5 16 8 11 7 7 6 2 4v5l-1 1-9-1-26-9-18-7-9-7-6-7 1-4zM288 1132l11 1 16 6 18 11 11 10 4 7v4l-5 2-8-1-17-7-11-7-9-7-5-5-6-8v-5zM1871 1092l9 1 11 6 4 2h5v-2h2l2-5 3-1 12 4 1 2-6 11-4 5-11 4-8-2-11-7-6-1-5 7-3 1-11-4-1-4 6-10 6-5zM819 86h10l18 3 20 6 16 8 5 4v5l-3 1h-13l-24-5-21-7-11-6-3-4v-3zM231 266h5v7l-6 12-10 14-12 13-8 8-10 7-5-1 1-8 9-16 11-14 12-12 8-7zM557 1283l25 2 20 4 14 5 5 5-2 4-4 1h-21l-21-3-19-5-7-3-1-3h-2l1-5 2-1zM193 1000h8l14 5 9 7 5 5 6 9v7l-4 4-5 1-13-5-11-7-8-8-5-8-1-6zM1064 247h8l12 5 12 7 10 8 10 9 6 10-1 3h-8l-16-7-16-10-13-12-5-6v-6z" fill="#fff"/><path d="m94 660 5 1 3 7 1 4-1 16-4 15-7 14-4 5-4-1-3-9v-10l3-19 4-12 6-10zM1046 1189l5 1-1 5-10 9-15 11-15 9-16 8-5 2h-7l1-5 10-10 20-14 22-12zM1187 436h13l12 6 6 7v8l-8 7-4 1h-10l-9-4-6-7-2-4 1-7 5-6zM1158 370h7l11 4 13 9 7 7 3 5v5l-3 3h-10l-13-5-11-8-6-7-2-5 1-6zM1226 497l6 1 4 2 3 5v8l-6 12-7 6-10 2-6-4-3-5-1-7 3-9 5-6 8-4zM609 61h19l4 4-2 3-20 6-27 4-12 1h-15l-4-2 2-4 9-4 21-5zM216 1068h7l16 8 12 8 11 10 6 10v4l-7 1-16-8-10-7-10-9-7-8-2-3zM880 1274h11l1 5-15 7-21 7-21 5-14 2h-6l-2-4 10-6 19-7 22-6zM1251 552h5l3 3 1 12-4 16-6 11-6 5h-5l-4-5-1-3v-10l4-13 6-9 5-5zM449 103h8l-1 4-10 8-25 13-24 9-9 3h-6l1-5 13-9 23-12 23-9zM975 141l9 1 16 7 20 12 11 8 8 7 2 3v4l-6-1-23-11-17-10-13-9-7-6zM1274 599l4 1 1 3v22l-3 16-5 12-5 6-4-2-2-3v-16l5-21 5-13zM100 497l2 1 1 6-4 20-7 21-9 20-3 4h-2l-1-2v-9l3-18 9-27 7-13zM729 60h23l25 3 19 4 8 4 1 3-1 1h-28l-24-3-16-3-7-3-1-5zM305 1178h7l19 9 20 12 12 9 6 6v5l-8-1-16-8-17-10-12-9-8-7zM1137 310l9 3 14 9 15 14 8 10 1 5-5 1-12-6-14-10-10-9-7-7-3-6 1-3zM1051 199l6 1 13 7 14 10 10 8 10 9 7 9v4l-6-1-24-16-17-13-10-9-4-7z" fill="#fff"/><path d="m1175 291 5 3 11 14 9 12 13 19 8 11 4 7-1 2-10-10-8-11v2l12 16 3 7-1 4-13-17-7-8-13-17-10-13-1-6 4 2 11 12 3 3-4-7-13-18-2-4zm21 33 1 2zm3 5v3l2-2zm2 2 1 5 3 1-2-4z" fill="#FEFEFE"/><path d="M298 190h2v6l-24 24-11 9-14 11-6 4h-4l1-5 7-9 17-17 14-11 11-8zM131 400h3v7l-7 19-7 16-11 20-6 8h-2l-1-6 5-17 11-24 10-18zM106 822l7 1 3 3 2 6v14l-4 9-5 5-6 1-5-5-2-8 1-11 4-10zM78 597l4 1 1 3-1 18-4 19-5 18-5 10h-2l-1-2v-18l3-21 5-20zM126 892l9 1 5 3 5 8 1 9-3 6-7 4-10-3-7-8-2-8 2-7 5-4zM386 1234l8 1 22 8 24 11 14 8 2 2v4l-9-1-17-6-20-9-15-8-8-6zM141 956h8l14 7 7 7 4 8-1 6-2 2-5 1-12-6-10-9-5-8 1-7zM85 752l5 1 2 2 1 4v22l-5 17-5 7-3-1-2-7v-25l3-13zM650 1309h53l13 2 2 4-5 2-15 1h-36l-14-1-6-2-2-1v-3zM1120 265l7 1 10 7 11 9 12 12 9 11 4 7v3l-4-1-9-7-13-11-13-12-9-9-4-6zM896 96l9 1 23 8 22 10 15 9 2 4-5 1-22-8-21-9-17-8-6-5zM160 1008l5 1 11 7 10 8 10 10 4 7v5l-1 1h-5l-13-9-7-6-9-11-6-8zM238 1118l6 1 16 10 17 13 11 9v2l4 2 4 6-1 3-5-1-18-13-12-9-2-1v-2l-4-2-11-9-5-7zM69 694l4 1 1 6v15l-3 27-3 12-1 2-3-1-1-5v-25l2-21 3-10zM1049 175l6 2 18 12 13 10 13 11 7 6 3 4v3l-5-1-19-14-26-20-10-9zM178 1050l6 3 10 9 8 7 14 14 8 10v5l-5-1-11-9-15-15-7-8-8-10v-3l-2-1zM178 312h1l-1 7-8 14-14 22-12 17-7 8-1-3 2-6 10-18 13-20 11-16h2v-2zM1238 462h8l8 4 2 2-1 7-4 5-5 3h-10l-5-4-2-4 1-7 5-5zM1213 418h7l12 6 10 9 2 3-1 4-1 1h-8l-12-5-8-6-3-4v-6zM1194 371l6 1 9 6 10 9 9 10 5 8v3l-5-1-14-10-12-11-7-9zM1262 497l6 1v9l-3 12-4 8-4 4-5-1-3-4v-10l6-12 5-5zM473 1279h7l37 10 26 8 4 4-1 2-19-4-31-9-18-6-5-3zM1115 236l5 2 10 9 26 26 3 1 1 4 8 10 1 5-4-2-48-48-2-3zM1182 333l5 1 17 17 9 11 9 12 6 10-1 2-12-11-16-17-11-13-5-7zM1287 548h2l3 13v47l-2 5-4 1-1-2v-37zM251 1143l5 2 16 13 13 10 17 14 2 1v2l3 1 2 3-1 3-9-6-16-12-13-11-10-9-7-6zM95 460h1l-1 10-8 27-12 36-3 3 1-10 6-23 11-32 4-9zM97 878h6l5 6 1 7-3 7-4 4-5-2-3-2v-12l2-7zM977 127l6 1 22 12 19 12 18 12v3l-5-2-28-17-25-15-7-5zM1116 226l5 2 31 31 7 8 10 12 2 5-4-2-12-13-15-16-12-13-11-11zM979 1242h3l-1 3-24 12-39 17-9 3v-3l31-14 20-9zM323 1204l5 1 48 28 10 7 2 3-6-1-17-10-11-7-21-13-9-6zM817 68l9 1 38 10 25 8 2 3-11-2-36-10-25-7-2-1zM650 53h69l3 1v2l-57 1-20-1v-2zM542 69h6l-2 2-43 13-32 9-3-1 8-4 30-9 28-8zM374 134l3 1-5 4-21 13-14 9-15 10-10 7h-2v-2l13-10 20-13 26-16zM808 1303l4 1-7 3-18 4-32 4-10 1h-11l1-2 46-6 23-4zM235 240h2l-2 4-7 8-3 4h-2l-2 4-12 13-12 14-9 11-2-1 10-13 10-11 9-11 16-17zM574 1307l13 1 39 5 3 3-13-1-37-5-5-2zM130 384l1 2-12 23-10 19-4 8-1-3 14-29 10-18zM1296 585h2l1 5 1 19-1 3-2-1-1-6z" fill="#fff"/><path d="m189 1071 4 2v2l4 2v2l4 2v2l4 2v2l3 1-1 3-18-18zM1132 246l7 6 2 4-7-6zM62 656h2v7h-2zM1184 311l3 1 1 3h-2v-2h-2zM1181 307l3 1-1 3zM161 1019l4 2h-3zM1205 351l3 1v2h-2zM183 1063l3 3-3-1zM1160 276l3 3-3-1zM133 983l2 1-1 2zM1148 263l2 1-1 2zM1202 348h2l-1 2zM1146 261l2 2h-2zM1141 256h2l-1 2zM165 1024l2 1zM1233 404l2 1z" fill="#fff"/></svg>