<?xml version="1.0" encoding="UTF-8"?>
<svg version="1.1" viewBox="0 0 3072 1372" width="768" height="343" xmlns="http://www.w3.org/2000/svg">
<path transform="translate(2721,748)" d="m0 0h29l20 3 17 5 17 7 16 9 14 10 13 12 7 7 10 13 1 4-14 8-27 16-10 6-4-1-11-13-13-11-15-9-13-5-8-2-19-1-15 2-15 5-12 6-13 10-9 9-10 14-8 18-3 14-1 16 3 18 6 16 6 11 8 10 2 4h2v2l4 2 8 7 16 9 15 5 11 2h20l18-4 16-7 10-6 10-8 9-10 9-17-7 1h-96l-3-1v-54l1-1h171l1 1 1 8v25l-3 23-5 17-7 15-7 12-10 13-6 7-8 7-13 10-13 8-15 7-21 7-20 4-9 1h-27l-20-3-18-5-21-9-15-9-13-10-13-12-11-13-10-15-10-21-6-20-3-21v-20l3-21 6-20 10-21 8-12 11-14 11-11 10-8 15-10 17-9 24-8 15-3z" fill="#fff"/>
<path transform="translate(2117,753)" d="m0 0h130l19 2 18 4 17 6 16 8 12 8 10 8 14 14 11 16 8 16 6 18 3 14 2 16v26l-4 25-5 16-7 16-8 14-9 12-14 14-14 10-15 8-19 7-20 5-16 2-132 1-4-2v-283zm62 55v176h63l17-2 17-5 14-8 10-9 8-11 5-11 5-19 1-8v-29l-3-18-5-15-7-12-9-10-9-7-15-7-17-4-9-1z" fill="#fff"/>
<path transform="translate(1818,753)" d="m0 0h136l21 3 15 5 15 8 13 10 10 11 9 14 5 12 4 14 2 16v12l-2 16-6 20-6 11-10 14-9 9-14 10-8 4h-2l3 5 11 14 14 18 10 13 26 34 8 11-3 2h-71l-8-9-7-9-26-34-16-21-11-15-41-1v87l-1 1h-61l-1-1v-282zm62 54v89l72-1 11-4 9-6 7-8 5-12 1-5v-16l-3-12-5-10-8-8-8-4-7-2-11-1z" fill="#fff"/>
<path transform="translate(760,753)" d="m0 0h61l1 1v120h131l1-120 1-1h61l1 2v282l-1 1h-61l-1-1v-109h-132l1 108-1 2h-62z" fill="#fff"/>
<path transform="translate(1530,753)" d="m0 0h215l1 1v53l-153 1-1 62 38-1 98 1v54l-125 1h-10l-1 59h153l1 1v52l-1 1-210 1-6-2v-282z" fill="#fff"/>
<path transform="translate(1248,753)" d="m0 0h126l18 2 16 4 15 6 14 8 11 9 9 9 9 13 7 14 4 14 2 10v28l-4 18-7 16-6 10-9 11-12 10-14 8-15 6-16 4-12 2-13 1h-60v81l-1 1h-62zm64 54-1 1v93h70l12-4 9-6 7-8 4-8 2-6 1-7v-12l-2-10-7-14-9-9-14-7-8-2-11-1z" fill="#fff"/>
<path transform="translate(2452,753)" d="m0 0h62l1 1v283l-1 1-55 1-7-1z" fill="#fff"/>
<path transform="translate(2956,753)" d="m0 0h61l1 1v283l-1 1h-61l-1-1v-283z" fill="#fff"/>
<path transform="translate(1102,753)" d="m0 0h62l1 6v277l-1 2h-62l-1-13v-270z" fill="#fff"/>
<path transform="translate(2496,1124)" d="m0 0h20l14 4 12 7 11 10 2 3-1 5-15 9-5 1-5-6-10-7-6-2h-15l-10 4-10 9-5 10-1 5v12l4 10 4 6 8 7 10 4h14l9-3 9-6 6-7 1-2h-40l-1-1v-21l2-1h62l4 1 1 5-1 14-4 13-6 10-4 5-10 8-13 6-12 3h-20l-13-4-11-6-8-7-9-10-7-16-1-4v-20l4-13 7-12 5-6 10-8 12-6z" fill="#fff"/>
<path transform="translate(1374,1123)" d="m0 0 14 1 13 4 11 6 10 9 8 11 5 12 2 10v10l-3 14-7 14-10 11-11 7-12 5-8 2h-20l-14-4-12-7-7-6v-2h-2l-7-10-5-10-2-8-1-13 2-12 4-11 8-12 8-8 14-8 9-3zm2 23-12 2-8 5-5 5-5 6-4 10v15l4 10 9 10 8 5 7 2h13l11-4 8-6 6-8 3-9v-15l-4-10-6-8-10-7-6-2z" fill="#fff"/>
<path transform="translate(1884,1123)" d="m0 0h8l15 3 14 7 11 9 6 8 7 14 2 8v19l-4 13-7 12-10 10-11 7-10 4-9 2h-20l-13-4-11-6-10-9-7-9-5-11-3-12v-13l3-12 8-16 12-12 12-7 9-3zm-5 24-8 3-8 6-6 7-4 10-1 4v9l3 10 7 10 6 5 8 4 4 1h13l10-3 8-6 6-7 4-9 1-6v-8l-3-11-6-8-8-7-10-4z" fill="#fff"/>
<path transform="translate(2259,1126)" d="m0 0h57l13 3 13 7 9 8 7 11 4 11 1 6v19l-3 12-8 14-2 3h-2l-2 4-13 8-13 4-8 1h-53zm26 21-1 1v67h29l10-3 8-6 5-10 1-3v-22l-4-11-5-6-10-5-15-2z" fill="#fff"/>
<path transform="translate(1747,1124)" d="m0 0h17l13 3 15 8 6 5 9 11 1 4-14 6-6 3-4-1-7-8-8-5-6-2h-15l-10 4-8 7-5 7-3 9v13l4 10 6 8 6 5 10 4h14l10-4 8-6 5-6 10 3 12 5 1 4-12 13-11 8-12 5-8 2h-6l3 3 6 4 4 6v7l-5 8-7 3-7 1-9-2-4-3 1-7 2-4-1-1 1-8 3-6-9-3-12-5-13-10-8-10-6-13-3-14v-8l4-16 5-10 8-10 10-8 12-6zm3 130-2 1v2h2v2h6l-1-5z" fill="#fff"/>
<path transform="translate(1974,1126)" d="m0 0h85v21l-7 1h-52l-1 23h53v21l-2 1h-50v11l-1 11h59l1 1v21h-84l-1-1z" fill="#fff"/>
<path transform="translate(2959,1124)" d="m0 0h20l16 4 10 5 7 5-1 5-8 11-3 4-5-2-13-6-7-2h-15l-8 4-1 1v7l3 3 14 4 23 5 14 6 7 6 5 10 1 4v13l-3 9-7 9-9 6-15 4h-24l-15-4-16-8-5-4 1-6 6-8 4-6 6 2 7 4 13 5 14 2 9-2 6-4 2-6-3-5-10-4-25-5-13-5-9-7-6-9-2-8v-8l3-10 7-9 10-6 9-3z" fill="#fff"/>
<path transform="translate(1238,1124)" d="m0 0h19l14 3 16 8 4 3-1 5-8 11-3 4-5-2-13-6-7-2h-15l-8 4-2 3 1 5 3 3 14 4 23 5 14 6 8 8 4 10 1 13-2 8-5 8-5 5-8 5-14 4h-24l-16-4-14-7-6-4-1-4 9-14 2-3 6 2 14 7 10 3h17l8-4 2-3v-6l-4-4-8-3-29-6-14-7-7-7-4-8-1-4v-11l4-11 7-8 8-5 9-3z" fill="#fff"/>
<path transform="translate(2120,1124)" d="m0 0h19l14 3 11 5 8 5 2 3-7 10-6 8-5-2-10-5-10-3h-14l-8 3-2 3 1 7 5 3 21 5 16 4 14 7 6 7 4 11v13l-4 11-8 9-10 5-12 3h-24l-15-4-16-8-5-4 1-5 7-11 3-4 5 2 17 8 15 3 9-1 8-4 3-4-1-6-5-4-17-4-18-4-16-8-7-8-3-7-1-5v-7l4-13 7-8 14-7z" fill="#fff"/>
<path transform="translate(1569,1126)" d="m0 0h24l1 1 1 69 3 10 4 5 8 4 3 1h12l9-4 5-4 3-6 1-6 1-70h25v72l-2 10-4 9-6 8-7 6-10 5-12 3h-19l-11-3-10-5-9-8-6-10-3-8-1-6z" fill="#fff"/>
<path transform="translate(2783,1123)" d="m0 0 4 2 8 16 12 23 12 22 17 32 9 17v2h-27l-3-5-6-11h-50l-8 16h-28l2-5 16-31 12-22 15-29 12-22zm1 50-4 6-9 19v1h25l-1-5-9-20z" fill="#fff"/>
<path transform="translate(655,569)" d="m0 0h14l12 4 8 6 7 8 4 9 1 4v14l-3 9-7 11-7 6-10 5-7 2h-15l-10-3-8-5-7-7-6-12-1-4v-13l4-12 6-9 10-8 10-4z" fill="#fff"/>
<path transform="translate(600,688)" d="m0 0h17l10 3 11 8 6 9 4 11v13l-4 11-6 9-8 7-11 5-4 1h-18l-11-4-10-9-6-9-3-10v-10l3-11 6-10 7-7 12-6z" fill="#fff"/>
<path transform="translate(540,521)" d="m0 0h18l12 5 8 7 6 10 2 6 1 10-2 10-6 12-7 8-10 6-8 3-4 1h-12l-13-4-9-7-7-11-2-6-1-10 3-14 5-9 6-7 11-7z" fill="#fff"/>
<path transform="translate(599,405)" d="m0 0h10l12 3 9 6 8 9 4 9 1 12-3 12-6 9-5 5-8 6-11 4-7 1h-8l-12-3-9-6-8-9-4-10v-16l5-12 7-9 11-7 8-3z" fill="#fff"/>
<path transform="translate(710,459)" d="m0 0h9l13 3 10 6 7 8 5 10 1 4v14l-4 11-9 10-9 6-11 3h-12l-12-3-9-6-7-7-5-10-2-12 2-11 5-10 4-5 10-7 8-3z" fill="#fff"/>
<path transform="translate(489,637)" d="m0 0h14l11 4 8 6 6 8 4 9 1 5v11l-3 10-6 10-9 8-8 4-7 2h-13l-10-3-8-6-6-7-4-8-2-8v-11l4-13 8-11 9-6z" fill="#fff"/>
<path transform="translate(549,801)" d="m0 0h13l10 3 10 6 8 9 4 9 1 4v14l-4 10-7 9-9 6-12 4h-12l-11-3-10-6-7-8-5-11-1-5v-10l4-12 8-10 10-6z" fill="#fff"/>
<path transform="translate(490,363)" d="m0 0h16l11 4 5 4 6 9 3 10v7l-4 13-6 9-7 7-10 6-8 3-6 1h-10l-10-3-8-5-7-10-2-6v-14l4-11 6-9 9-8 10-5z" fill="#fff"/>
<path transform="translate(435,475)" d="m0 0h13l9 3 9 7 6 10 2 6v16l-4 11-6 9-7 7-14 7-6 1h-9l-10-3-6-4-6-7-4-8-1-4v-16l5-14 8-10 8-6 9-4z" fill="#fff"/>
<path transform="translate(817,509)" d="m0 0h12l13 4 8 6 7 8 5 12v13l-3 9-6 8-8 7-9 4-4 1h-17l-10-4-8-6-7-9-4-13v-9l3-10 5-8 5-5 8-5z" fill="#fff"/>
<path transform="translate(657,306)" d="m0 0h11l12 3 8 4 8 8 5 10 1 11-3 10-7 10-9 6-10 4-5 1h-17l-13-5-10-9-5-10-1-4v-9l4-11 6-8 10-7 8-3z" fill="#fff"/>
<path transform="translate(607,958)" d="m0 0h19l11 4 9 6 7 8 4 10v12l-3 8-7 9-10 6-9 3h-19l-12-4-9-7-7-9-3-9v-10l4-10 6-8 12-7z" fill="#fff"/>
<path transform="translate(763,356)" d="m0 0 14 1 11 4 10 7 7 10 3 8v13l-6 12-8 7-8 4-7 2h-17l-11-4-9-6-8-10-3-8v-15l4-9 3-5h2v-2l10-6 6-2z" fill="#fff"/>
<path transform="translate(445,755)" d="m0 0h8l11 3 10 6 8 10 4 12v13l-4 11-6 8-8 6-13 4h-9l-9-2-10-6-7-8-5-10-1-4v-14l4-11 6-8 10-7z" fill="#fff"/>
<path transform="translate(2642,1126)" d="m0 0h88l1 1v19l-1 1h-31v89l-1 1h-24v-90h-32l-1-8v-12z" fill="#fff"/>
<path transform="translate(389,597)" d="m0 0h12l9 3 10 9 6 12 1 5v14l-3 10-7 10-8 7-9 4-4 1h-13l-9-3-10-9-5-10-2-11 1-10 3-10 7-10 8-7 9-4z" fill="#fff"/>
<path transform="translate(1464,1126)" d="m0 0h24l1 1v88h56l2 3v18l-1 1h-82l-1-69v-41z" fill="#fff"/>
<path transform="translate(498,911)" d="m0 0h17l11 4 9 6 7 8 4 9 1 4v9l-4 11-8 9-8 4-7 2h-16l-12-4-9-7-6-7-4-9-1-4v-9l3-9 4-6 8-7z" fill="#fff"/>
<path transform="translate(550,263)" d="m0 0h21l10 4 7 6 5 10v11l-4 10-9 10-10 6-10 4-12 2-12-1-10-4-8-7-4-7-1-4v-7l4-11 7-9 8-6 10-5z" fill="#fff"/>
<path transform="translate(921,561)" d="m0 0h17l10 4 10 9 5 9 1 4v15l-4 9-6 8-8 6-6 3-5 1h-16l-9-4-8-7-6-9-2-6v-15l4-10 6-8 5-4z" fill="#fff"/>
<path transform="translate(865,415)" d="m0 0h13l13 4 9 6 8 9 4 10v13l-5 10-4 5-10 6-5 2-6 1h-10l-13-4-11-8-6-9-3-7v-15l4-9 6-7 12-6z" fill="#fff"/>
<path transform="translate(343,446)" d="m0 0h9l9 3 5 4 5 8 2 7v14l-3 10-5 9-9 10-9 6-12 3-13-2-8-6-6-12-1-11 3-13 6-12 8-9 9-6z" fill="#fff"/>
<path transform="translate(393,333)" d="m0 0h15l8 4 6 7 3 8v8l-2 8-5 10-8 10-10 7-12 5-5 1h-11l-9-4-7-8-2-6v-11l4-12 8-11 9-8 14-7z" fill="#fff"/>
<path transform="translate(344,709)" d="m0 0h14l10 4 5 5 6 8 4 11v14l-4 11-7 9-7 5-9 3h-11l-10-3-10-9-5-10-2-8v-9l4-13 6-9 8-6z" fill="#fff"/>
<path transform="translate(667,1097)" d="m0 0h17l11 3 9 5 5 5 4 5 2 5v10l-4 8-7 7-13 6-11 2h-13l-12-3-10-6-7-8-3-9 1-8 4-8 9-8 13-5z" fill="#fff"/>
<path transform="translate(396,858)" d="m0 0h14l11 4 8 6 6 7 4 8 1 4v14l-5 10-5 5-5 4-10 3h-13l-11-4-8-6-6-7-4-8-1-3v-14l4-10 5-6 9-5z" fill="#fff"/>
<path transform="translate(298,561)" d="m0 0h11l10 5 6 8 3 7 1 5v14l-4 12-7 10-8 7-9 4-10 1-10-3-6-5-6-12-1-4v-13l3-11 4-8 6-8 9-6z" fill="#fff"/>
<path transform="translate(553,1054)" d="m0 0h19l13 4 9 6 8 9 3 7 1 7-3 9-5 7-8 5-10 3h-18l-12-4-10-6-8-9-3-7v-12l4-8 7-6 9-4z" fill="#fff"/>
<path transform="translate(814,278)" d="m0 0h14l12 3 10 5 8 7 6 10 1 3v11l-6 10-5 4-9 4-5 1h-16l-13-4-10-7-7-8-4-9v-11l4-8 8-7 7-3z" fill="#fff"/>
<path transform="translate(714,224)" d="m0 0h15l10 2 14 7 7 8 3 6v11l-6 10-9 6-8 3-9 2h-12l-13-3-9-5-7-6-5-10v-10l5-10 10-7 8-3z" fill="#fff"/>
<path transform="translate(784,1133)" d="m0 0h22l11 4 7 6 3 6v11l-6 10-10 8-11 5-13 3h-17l-10-3-6-4-6-7-1-2v-11l4-8 5-5 8-6 11-5z" fill="#fff"/>
<path transform="translate(456,237)" d="m0 0h16l8 3 5 4 3 6v12l-5 10-8 9-10 7-10 5-10 3-10 1-11-2-6-4-4-5-2-10 3-10 6-9 8-8 14-8z" fill="#fff"/>
<path transform="translate(968,467)" d="m0 0 12 1 11 4 10 9 4 6 2 5v15l-5 10-8 7-9 4-4 1h-13l-11-4-7-5-7-10-3-9v-8l3-10 6-8 10-6z" fill="#fff"/>
<path transform="translate(450,999)" d="m0 0h9l13 3 11 6 9 9 4 8 1 3v12l-5 8-7 6-9 3h-17l-12-4-10-7-7-8-4-8-1-9 3-9 6-7 8-4z" fill="#fff"/>
<path transform="translate(1026,600)" d="m0 0 13 2 9 6 6 9 2 7v11l-4 11-7 9-8 6-11 4h-11l-8-3-8-7-5-9-1-4v-13l4-11 6-8 8-6 7-3z" fill="#fff"/>
<path transform="translate(618,185)" d="m0 0h17l11 3 10 6 4 5 2 10-3 8-8 9-14 7-13 3h-16l-9-2-9-5-6-7-2-5 1-10 6-9 5-4 12-6z" fill="#fff"/>
<path transform="translate(1226,364)" d="m0 0 5 5 8 13 15 29 10 22 2 11 6 8 4 11 6 16 5 16 9 30 8 35 4 26 4 48 1 22-1 4-3-1-2-15-4-57v-12l-5-10-6-17-4-8-4-9v-2l-2 2-1 3-2 25-3 12-5 5-3-2v-20l4-19 5-8 4-2-1-4-1-19-1-1v-6-3-8l-1-3v25l-3 5-2-2v-22l1-9-8 6-4-2v-6l4-6 4-3h3v-5l-10-1-8-4-4-3v-5l5-1 8 4 1-2 1 4 3 1-4-6-9-7-14-15-2-5 6 1h3l-9-12-6-12 2-4-6-9-1-11-2-5zm3 13m1 2 1 2zm3 7m1 1m4 12m3 5m2 3m6 17 2 5 2-1zm4 5 1 3v-3zm2 3 1 2zm1 2m2 2m1 2 1 2 2-1zm3 2 1 3 1-3zm1 3m10 26-2 7 5 1-2-8zm12 51 1 2z" fill="#fff"/>
<path transform="translate(913,336)" d="m0 0h12l12 3 11 6 8 8 6 12v10l-4 8-8 7-10 3h-17l-11-4-9-6-7-8-4-9v-13l4-8 6-5 6-3z" fill="#fff"/>
<path transform="translate(310,812)" d="m0 0 13 2 10 6 6 8 4 9 1 5v9l-4 11-6 7-10 5-11 1-12-3-8-6-6-8-3-7-1-5v-9l4-11 7-8 10-5z" fill="#fff"/>
<path transform="translate(263,674)" d="m0 0 11 1 8 5 5 6 4 10 1 13-3 12-6 10-7 6-9 4h-13l-8-4-6-7-4-9-1-13 3-12 5-9 4-5 9-6z" fill="#fff"/>
<path transform="translate(908,1148)" d="m0 0h8l8 2 6 4 3 4 1 9-5 10-4 5h-2v2l-9 6-18 8-7 2-14 1-9-2-6-4-3-4-1-7 4-10 7-8 9-7 14-7 11-3z" fill="#fff"/>
<path transform="translate(2869,1126)" d="m0 0h24l1 6v104l-1 1h-24l-1-1v-109z" fill="#fff"/>
<path transform="translate(263,429)" d="m0 0 9 1 6 4 4 7 1 4v11l-4 13-6 11-9 10-9 6-10 3-8-1-6-4-4-7-1-5v-9l4-13 5-10 8-10 11-8z" fill="#fff"/>
<path transform="translate(351,947)" d="m0 0h14l12 4 11 8 6 9 3 7v12l-5 9-7 5-6 2h-15l-11-4-9-6-7-8-4-8v-14l4-8 8-6z" fill="#fff"/>
<path transform="translate(2594,1126)" d="m0 0h24l1 1v109l-1 1h-24l-1-13v-97z" fill="#fff"/>
<path transform="translate(2392,1126)" d="m0 0h25l1 110-1 1h-24l-1-1z" fill="#fff"/>
<path transform="translate(312,324)" d="m0 0h8l8 4 4 7v12l-5 13-7 10-10 10-12 7-7 2h-12l-7-6-2-5v-10l3-10 6-11 11-12 11-7z" fill="#fff"/>
<path transform="translate(604,1175)" d="m0 0h19l16 4 10 6 7 8 2 9-4 8-8 6-16 4h-15l-13-3-12-6-6-5-4-6-1-8 5-8 9-6z" fill="#fff"/>
<path transform="translate(532,157)" d="m0 0h9l11 3 7 6 1 2v9l-6 9-8 7-14 7-13 4-7 1h-14l-11-4-5-5-1-8 3-7 7-8 10-7 14-6z" fill="#fff"/>
<path transform="translate(493,1125)" d="m0 0h21l13 4 10 5 6 5 7 11v10l-7 8-11 4h-19l-11-3-14-7-8-8-4-8v-8l4-6 7-5z" fill="#fff"/>
<path transform="translate(221,542)" d="m0 0h9l6 3 5 6 3 8v17l-5 14-6 9-4 5-10 6-3 1h-10l-7-4-4-6-2-7v-15l5-15 7-11 9-8z" fill="#fff"/>
<path transform="translate(1061,513)" d="m0 0 11 1 8 3 8 7 4 7 1 4v11l-3 8-7 9-12 6-3 1h-11l-9-3-8-7-4-6-2-6v-12l3-8 5-7 10-6z" fill="#fff"/>
<path transform="translate(1006,395)" d="m0 0h15l12 4 8 6 5 5 5 9 1 10-5 10-5 4-9 4-13 1-12-3-10-7-6-7-4-9v-11l5-9 7-5z" fill="#fff"/>
<path transform="translate(775,170)" d="m0 0h18l13 3 14 7 5 4 5 8v8l-7 8-5 3-9 2-12 1-15-2-13-5-8-6-6-7-1-2v-8l4-7 12-6z" fill="#fff"/>
<path transform="translate(869,222)" d="m0 0h15l15 4 13 7 8 8 4 7v10l-5 6-5 3-11 2h-9l-12-2-12-5-9-6-7-8-2-5v-9l4-6 8-5z" fill="#fff"/>
<path transform="translate(722,1209)" d="m0 0h13l12 2 10 4 7 7 1 8-4 7-7 6-17 4-18 3h-11l-13-4-7-5-3-5v-8l4-6 8-6 9-4z" fill="#fff"/>
<path transform="translate(1109,629)" d="m0 0h11l7 3 5 5 3 5 1 4v13l-5 12-6 8-7 6-5 3-4 1h-13l-6-4-5-6-3-8v-12l3-10 7-10 6-5 8-4z" fill="#fff"/>
<path transform="translate(370,227)" d="m0 0h13l7 5 2 5-1 8-6 12-7 8-11 9-16 8-8 2h-12l-6-4-2-4v-8l4-9 6-9 7-7 14-10 13-5z" fill="#fff"/>
<path transform="translate(396,1070)" d="m0 0h14l14 4 12 7 9 10 4 10-1 7-4 6-5 3-9 2h-8l-16-4-11-6-10-9-5-10v-8l4-7 8-4z" fill="#fff"/>
<path transform="translate(689,127)" d="m0 0 18 1 13 4 8 5 5 6 1 5-3 6-7 6-11 4-12 2h-16l-14-3-8-4-5-5-3-4v-7l7-8 10-5 8-2z" fill="#fff"/>
<path transform="translate(963,282)" d="m0 0h10l12 3 14 7 10 9 5 9v9l-7 8-9 3h-12l-13-3-11-6-9-8-6-12 1-10 5-5 5-3z" fill="#fff"/>
<path transform="translate(228,774)" d="m0 0h10l10 5 5 6 4 9 1 4v10l-3 9-4 6-8 7-6 2h-11l-7-3-6-5-5-9-1-4v-15l4-9 7-8 6-4z" fill="#fff"/>
<path transform="translate(268,897)" d="m0 0h11l11 4 10 9 6 13v11l-4 8-6 5-8 3h-9l-10-3-9-6-6-7-4-10v-9l3-8 5-5 4-3z" fill="#fff"/>
<path transform="translate(828,1222)" d="m0 0h22l9 4 3 3 1 6-3 6-5 5-9 6-13 5-11 3-7 1h-19l-9-4-4-4v-8l4-6 10-7 12-5z" fill="#fff"/>
<path transform="translate(189,651)" d="m0 0h10l6 4 4 5 3 8 1 11-2 11-4 9-7 9-9 6-4 1h-7l-6-3-5-7-2-6v-18l5-14 6-8 8-7z" fill="#fff"/>
<path transform="translate(1e3 1140)" d="m0 0h8l8 4 2 4-1 8-7 11-9 9-14 9-12 5-13 3-9-1-5-4-1-8 4-9 8-9 13-8 18-11z" fill="#fff"/>
<path transform="translate(448,149)" d="m0 0 9 1 6 4 1 7-6 9-5 6-15 10-17 7-12 3-9 1-7-2-4-4v-7l6-9 7-7 18-11 14-5z" fill="#fff"/>
<path transform="translate(305,1013)" d="m0 0h14l10 3 11 6 8 8 5 9 1 9-3 6-6 5-3 1h-14l-10-3-12-7-8-8-5-10v-9l4-6z" fill="#fff"/>
<path transform="translate(596,103)" d="m0 0h27l10 4 5 5-1 7-5 6-14 7-17 4-8 1h-14l-10-2-6-3-4-4v-6l5-7 16-8z" fill="#fff"/>
<path transform="translate(1091,441)" d="m0 0h11l10 3 8 5 6 7 2 5v11l-5 8-5 4-6 3-4 1h-11l-11-4-7-6-4-6-2-6v-8l4-9 8-6z" fill="#fff"/>
<path transform="translate(196,433)" d="m0 0 5 1 5 5 2 5v8l-3 12-8 16-7 9-7 7-10 5h-6l-5-5-1-3v-11l3-12 8-16 8-11h2v-2l11-7z" fill="#fff"/>
<path transform="translate(1138,542)" d="m0 0h10l7 3 5 4 3 5 1 4v10l-4 10-6 8-7 5-9 3-10-1-6-4-6-8-1-3v-14l4-9 7-8 8-4z" fill="#fff"/>
<path transform="translate(435,1173)" d="m0 0h11l18 4 14 6 9 7 6 7 1 2v8l-6 5-3 1h-18l-15-4-16-8-10-9-3-6v-6l5-5z" fill="#fff"/>
<path transform="translate(239,330)" d="m0 0h7l5 5 1 9-4 13-8 13-8 10-11 9-10 5-6 1-5-3-1-2v-13l5-12 6-10 8-10 7-7 10-6z" fill="#fff"/>
<path transform="translate(70,555)" d="m0 0h2v11l-6 36-5 23-3 17v10l3 1v33l-2 31v20l3 16 1 3 2 18 2 26v-12l2-7 3-1 2 10 1 10 1 42 2 8 2 6v-12l1-12 2-5 5 1 2 7v15l-2 11-3 4v10l2 6 5 2 1 13-1 5-2-2-6-17-5-16-7-27-4-27-4-9-4-21-5-41v-106l5-38 5-26 4-15z" fill="#fff"/>
<path transform="translate(1046,340)" d="m0 0h14l12 4 11 7 8 8 3 5 1 9-4 6-5 4-4 1h-15l-10-3-10-6-7-7-5-10v-7l3-6 5-4z" fill="#fff"/>
<path transform="translate(1181,637)" d="m0 0h10l5 3 4 8v12l-4 13-7 11-5 5-8 5-5 1-7-2-6-7-2-6v-11l5-14 7-9 7-6z" fill="#fff"/>
<path transform="translate(159,540)" d="m0 0h7l5 5 2 4 1 13-4 16-7 14-9 10-7 4h-8l-4-4-2-8v-10l4-16 8-16 7-8z" fill="#fff"/>
<path transform="translate(837,138)" d="m0 0h16l14 3 13 5 11 6 7 7 2 4-1 5-5 4-8 2h-11l-17-3-16-6-11-7-5-6-1-5 3-5 5-3z" fill="#fff"/>
<path transform="translate(638,1257)" d="m0 0h16l19 3 10 4 7 6 1 6-5 5-9 4-13 2h-17l-13-2-12-4-8-5-2-4 1-5 6-5 8-3z" fill="#fff"/>
<path transform="translate(533,1225)" d="m0 0h22l17 4 10 4 8 6 5 5 1 6-4 6-2 1-22-1-30-3-10-5-5-4-4-7 2-6 6-4z" fill="#fff"/>
<path transform="translate(927,192)" d="m0 0h9l11 2 13 5 13 7 10 9 4 7-1 6-6 4h-17l-15-4-17-8-10-9-4-8 1-6 5-4z" fill="#fff"/>
<path transform="translate(94,906)" d="m0 0 6 3 1 2v10l6 11-1-7 3-3 9 3 6 5 4 7v6l-3 2-5-1-1-1-7-1 3 10 2 5 5 1 9 7 10 10 7 10-1 4-3 1-8-7-5-6-2 4 7 7 11 14 12 15 6 9 1 5-5-2-5-4v-3h-3l13 16 11 16 8 14 9 10 12 12v2l4 2v2l4 2 7 8 12 12 5 8 3 6 4 5v2l-3-1-9-11-12-12-7-8-9-10-10-11-7-9v-2h-2l-11-15-13-19-14-20-7-12-1-6-18-27-14-32-5-10-6-17-3-7zm15 27m1 1m-2 1m1 1m1 2m3 0m-1 1m1 1m8 26m1 2 1 3 3-1h-2v-2zm2 5m1 1 1 2zm2 0m2 1m-3 1m1 1 1 2zm15 29 1 3v-3zm3 4m1 1m1 2m1 1m1 2m1 2 2 2v-2z" fill="#fff"/>
<path transform="translate(341,1114)" d="m0 0h13l11 3 12 5 10 7 7 7 4 8-1 7-5 4-2 1h-10l-13-3-16-8-9-7-6-7-3-6 1-7h2v-2z" fill="#fff"/>
<path transform="translate(298,238)" d="m0 0 7 1 3 4-1 8-5 10-8 11h-2l-2 4h-2v2h-2v2l-14 10-10 5-4 1h-7l-3-3-1-5 4-10 7-11 11-12 13-10 12-6z" fill="#fff"/>
<path transform="translate(167,752)" d="m0 0 8 1 6 4 5 8 2 10-1 11-4 9-7 8-8 4h-8l-7-4-4-6-2-7v-12l4-12 6-8 5-4z" fill="#fff"/>
<path transform="translate(202,860)" d="m0 0 11 2 6 4 6 7 3 6 1 5v7l-3 8-5 6-7 3h-11l-8-3-6-5-4-7-2-5v-12l4-8 6-5z" fill="#fff"/>
<path transform="translate(746,97)" d="m0 0h27l18 4 14 7 5 5v5l-6 5-8 2h-27l-15-3-13-5-7-6-1-7 5-4z" fill="#fff"/>
<path transform="translate(945,1218)" d="m0 0h13l5 4-1 5-7 8-8 6-16 8-16 6-13 3h-11l-5-5 3-7 7-7 13-8 17-8z" fill="#fff"/>
<path transform="translate(231,964)" d="m0 0h10l12 4 8 6 6 7 4 9v8l-4 6-5 3h-14l-10-4-11-8-7-11-1-8 4-8z" fill="#fff"/>
<path transform="translate(1009,251)" d="m0 0h14l12 4 12 6 9 7 5 5 4 5 2 4v5l-4 4h-16l-16-5-14-8-3-2v-2l-4-2-6-10v-7z" fill="#fff"/>
<path transform="translate(137,647)" d="m0 0 5 1 6 7 2 9v9l-4 16-4 8-5 7-8 5h-7l-5-6-2-6v-13l4-16 6-12 7-7z" fill="#fff"/>
<path transform="translate(522,93)" d="m0 0h18l5 3-1 6-9 8-15 7-20 6-11 2h-19l-4-4 2-6 8-6 16-8 16-5z" fill="#fff"/>
<path transform="translate(260,1057)" d="m0 0h12l10 3 13 7 10 9 6 9 1 6-2 4-5 3h-7l-13-4-10-5-10-8-8-9-2-4v-7l3-3z" fill="#fff"/>
<path transform="translate(1167,478)" d="m0 0 11 1 8 4 5 7 1 3v8l-4 8-4 5-8 4-3 1h-9l-9-4-6-8-1-2v-11l4-8 6-5z" fill="#fff"/>
<path transform="translate(756,1278)" d="m0 0h24l10 3 3 3-1 5-8 5-9 3-14 3-18 2h-15l-9-2-4-1-2-3 1-5 9-6 17-5z" fill="#fff"/>
<path transform="translate(1123,395)" d="m0 0h14l11 4 8 6 7 8 1 2v8l-6 7-6 2h-14l-10-4-10-9-4-9v-6l4-6z" fill="#fff"/>
<path transform="translate(1207,557)" d="m0 0 6 1 6 5 2 5v9l-3 10-7 11-6 5-4 2h-10l-5-5-3-6v-13l7-14 7-6 6-3z" fill="#fff"/>
<path transform="translate(366,160)" d="m0 0h8l2 2-1 5-8 11-9 8-16 11-16 8-8 3h-8l-2-2 1-5 7-10 11-10 13-9 17-9z" fill="#fff"/>
<path transform="translate(666,70)" d="m0 0h30l16 3 6 4 2 4-5 5-8 3-13 2h-23l-17-2-11-4-2-2 1-5 6-4 11-3z" fill="#fff"/>
<path transform="translate(140,455)" d="m0 0 5 1 2 4v10l-4 15-9 19-9 13-7 6-4 1-3-3v-13l5-17 6-14 9-14 7-7z" fill="#fff"/>
<path transform="translate(1090,313)" d="m0 0h8l12 4 12 7 10 9 6 7 1 2v6l-4 4h-10l-12-3-13-7-10-9-4-6-2-5 1-5z" fill="#fff"/>
<path transform="translate(453,1241)" d="m0 0h17l18 4 14 5 15 8 6 6-1 5-5 3-16-1-19-5-15-6-10-6-5-5-3-5z" fill="#fff"/>
<path transform="translate(180,356)" d="m0 0 5 2 1 4-2 12-8 16-7 11-12 15-10 7-4-1-1-1v-7l4-13 8-16 7-11 9-11z" fill="#fff"/>
<path transform="translate(1239,628)" d="m0 0 6 1 3 4 1 4v11l-2 10-5 13-7 10-5 4-7 1-5-6-1-3v-13l4-13 6-11 9-10z" fill="#fff"/>
<path transform="translate(903,130)" d="m0 0h11l16 4 13 5 18 10 7 6 3 7-3 3h-9l-17-4-15-6-17-9-8-6-2-4 1-5z" fill="#fff"/>
<path transform="translate(112,560)" d="m0 0 5 1 3 5v17l-4 15-6 14-7 11-5 4-5-1-2-5v-12l3-16 6-16 5-9z" fill="#fff"/>
<path transform="translate(143,833)" d="m0 0h10l5 3v2h2l4 8 1 4v9l-3 7-4 6-6 3h-10l-5-3-5-6-2-8 1-10 5-10z" fill="#fff"/>
<path transform="translate(984,184)" d="m0 0h11l13 4 19 10 12 9 5 4 5 8v4l-3 1h-7l-15-5-16-8-11-7-10-9-4-6z" fill="#fff"/>
<path transform="translate(169,921)" d="m0 0h10l9 4 6 5 6 10v10l-6 7-2 1h-10l-10-4-7-6-5-8-1-8 3-6 5-4z" fill="#fff"/>
<path transform="translate(117,743)" d="m0 0h7l5 6 2 5 1 11-2 11-6 12-7 6-7 1-5-6-2-6v-15l4-13 6-9z" fill="#fff"/>
<path transform="translate(369,1193)" d="m0 0h14l17 5 16 8 11 7 7 6 2 4v5l-1 1-9-1-26-9-18-7-9-7-6-7 1-4z" fill="#fff"/>
<path transform="translate(288,1132)" d="m0 0 11 1 16 6 18 11 11 10 4 7v4l-5 2-8-1-17-7-11-7-9-7-5-5-6-8v-5z" fill="#fff"/>
<path transform="translate(1871,1092)" d="m0 0 9 1 11 6 4 2h5v-2h2l2-5 3-1 12 4 1 2-6 11-4 5-11 4-8-2-11-7-6-1-5 7-3 1-11-4-1-4 6-10 6-5z" fill="#fff"/>
<path transform="translate(819,86)" d="m0 0h10l18 3 20 6 16 8 5 4v5l-3 1h-13l-24-5-21-7-11-6-3-4v-3z" fill="#fff"/>
<path transform="translate(231,266)" d="m0 0h5v7l-6 12-10 14-12 13-8 8-10 7-5-1 1-8 9-16 11-14 12-12 8-7z" fill="#fff"/>
<path transform="translate(557,1283)" d="m0 0 25 2 20 4 14 5 5 5-2 4-4 1h-21l-21-3-19-5-7-3-1-3h-2l1-5 2-1z" fill="#fff"/>
<path transform="translate(193 1e3)" d="m0 0h8l14 5 9 7 5 5 6 9v7l-4 4-5 1-13-5-11-7-8-8-5-8-1-6z" fill="#fff"/>
<path transform="translate(1064,247)" d="m0 0h8l12 5 12 7 10 8 10 9 6 10-1 3h-8l-16-7-16-10-13-12-5-6v-6z" fill="#fff"/>
<path transform="translate(94,660)" d="m0 0 5 1 3 7 1 4-1 16-4 15-7 14-4 5-4-1-3-9v-10l3-19 4-12 6-10z" fill="#fff"/>
<path transform="translate(1046,1189)" d="m0 0 5 1-1 5-10 9-15 11-15 9-16 8-5 2h-7l1-5 10-10 20-14 22-12z" fill="#fff"/>
<path transform="translate(1187,436)" d="m0 0h13l12 6 6 7v8l-8 7-4 1h-10l-9-4-6-7-2-4 1-7 5-6z" fill="#fff"/>
<path transform="translate(1158,370)" d="m0 0h7l11 4 13 9 7 7 3 5v5l-3 3h-10l-13-5-11-8-6-7-2-5 1-6z" fill="#fff"/>
<path transform="translate(1226,497)" d="m0 0 6 1 4 2 3 5v8l-6 12-7 6-10 2-6-4-3-5-1-7 3-9 5-6 8-4z" fill="#fff"/>
<path transform="translate(609,61)" d="m0 0h19l4 4-2 3-20 6-27 4-12 1h-15l-4-2 2-4 9-4 21-5z" fill="#fff"/>
<path transform="translate(216,1068)" d="m0 0h7l16 8 12 8 11 10 6 10v4l-7 1-16-8-10-7-10-9-7-8-2-3z" fill="#fff"/>
<path transform="translate(880,1274)" d="m0 0h11l1 5-15 7-21 7-21 5-14 2h-6l-2-4 10-6 19-7 22-6z" fill="#fff"/>
<path transform="translate(1251,552)" d="m0 0h5l3 3 1 12-4 16-6 11-6 5h-5l-4-5-1-3v-10l4-13 6-9 5-5z" fill="#fff"/>
<path transform="translate(449,103)" d="m0 0h8l-1 4-10 8-25 13-24 9-9 3h-6l1-5 13-9 23-12 23-9z" fill="#fff"/>
<path transform="translate(975,141)" d="m0 0 9 1 16 7 20 12 11 8 8 7 2 3v4l-6-1-23-11-17-10-13-9-7-6z" fill="#fff"/>
<path transform="translate(1274,599)" d="m0 0 4 1 1 3v22l-3 16-5 12-5 6-4-2-2-3v-16l5-21 5-13z" fill="#fff"/>
<path transform="translate(100,497)" d="m0 0 2 1 1 6-4 20-7 21-9 20-3 4h-2l-1-2v-9l3-18 9-27 7-13z" fill="#fff"/>
<path transform="translate(729,60)" d="m0 0h23l25 3 19 4 8 4 1 3-1 1h-28l-24-3-16-3-7-3-1-5z" fill="#fff"/>
<path transform="translate(305,1178)" d="m0 0h7l19 9 20 12 12 9 6 6v5l-8-1-16-8-17-10-12-9-8-7z" fill="#fff"/>
<path transform="translate(1137,310)" d="m0 0 9 3 14 9 15 14 8 10 1 5-5 1-12-6-14-10-10-9-7-7-3-6 1-3z" fill="#fff"/>
<path transform="translate(1051,199)" d="m0 0 6 1 13 7 14 10 10 8 10 9 7 9v4l-6-1-24-16-17-13-10-9-4-7z" fill="#fff"/>
<path transform="translate(1175,291)" d="m0 0 5 3 11 14 9 12 13 19 8 11 4 7-1 2-10-10-8-11v2l12 16 3 7-1 4-13-17-7-8-13-17-10-13-1-6 4 2 11 12 3 3-4-7-13-18-2-4zm20 32m1 1 1 2zm-2 1m1 1m2 0m1 1m-1 2m2 0v3l2-2zm2 2 1 5 3 1-2-4z" fill="#FEFEFE"/>
<path transform="translate(298,190)" d="m0 0h2v6l-24 24-11 9-14 11-6 4h-4l1-5 7-9 17-17 14-11 11-8z" fill="#fff"/>
<path transform="translate(131,400)" d="m0 0h3v7l-7 19-7 16-11 20-6 8h-2l-1-6 5-17 11-24 10-18z" fill="#fff"/>
<path transform="translate(106,822)" d="m0 0 7 1 3 3 2 6v14l-4 9-5 5-6 1-5-5-2-8 1-11 4-10z" fill="#fff"/>
<path transform="translate(78,597)" d="m0 0 4 1 1 3-1 18-4 19-5 18-5 10h-2l-1-2v-18l3-21 5-20z" fill="#fff"/>
<path transform="translate(126,892)" d="m0 0 9 1 5 3 5 8 1 9-3 6-7 4-10-3-7-8-2-8 2-7 5-4z" fill="#fff"/>
<path transform="translate(386,1234)" d="m0 0 8 1 22 8 24 11 14 8 2 2v4l-9-1-17-6-20-9-15-8-8-6z" fill="#fff"/>
<path transform="translate(141,956)" d="m0 0h8l14 7 7 7 4 8-1 6-2 2-5 1-12-6-10-9-5-8 1-7z" fill="#fff"/>
<path transform="translate(85,752)" d="m0 0 5 1 2 2 1 4v22l-5 17-5 7-3-1-2-7v-25l3-13z" fill="#fff"/>
<path transform="translate(650,1309)" d="m0 0h53l13 2 2 4-5 2-15 1h-36l-14-1-6-2-2-1v-3z" fill="#fff"/>
<path transform="translate(1120,265)" d="m0 0 7 1 10 7 11 9 12 12 9 11 4 7v3l-4-1-9-7-13-11-13-12-9-9-4-6z" fill="#fff"/>
<path transform="translate(896,96)" d="m0 0 9 1 23 8 22 10 15 9 2 4-5 1-22-8-21-9-17-8-6-5z" fill="#fff"/>
<path transform="translate(160,1008)" d="m0 0 5 1 11 7 10 8 10 10 4 7v5l-1 1h-5l-13-9-7-6-9-11-6-8z" fill="#fff"/>
<path transform="translate(238,1118)" d="m0 0 6 1 16 10 17 13 11 9v2l4 2 4 6-1 3-5-1-18-13-12-9-2-1v-2l-4-2-11-9-5-7z" fill="#fff"/>
<path transform="translate(69,694)" d="m0 0 4 1 1 6v15l-3 27-3 12-1 2-3-1-1-5v-25l2-21 3-10z" fill="#fff"/>
<path transform="translate(1049,175)" d="m0 0 6 2 18 12 13 10 13 11 7 6 3 4v3l-5-1-19-14-26-20-10-9z" fill="#fff"/>
<path transform="translate(178,1050)" d="m0 0 6 3 10 9 8 7 14 14 8 10v5l-5-1-11-9-15-15-7-8-8-10v-3l-2-1z" fill="#fff"/>
<path transform="translate(178,312)" d="m0 0h1l-1 7-8 14-14 22-12 17-7 8-1-3 2-6 10-18 13-20 11-16h2v-2z" fill="#fff"/>
<path transform="translate(1238,462)" d="m0 0h8l8 4 2 2-1 7-4 5-5 3h-10l-5-4-2-4 1-7 5-5z" fill="#fff"/>
<path transform="translate(1213,418)" d="m0 0h7l12 6 10 9 2 3-1 4-1 1h-8l-12-5-8-6-3-4v-6z" fill="#fff"/>
<path transform="translate(1194,371)" d="m0 0 6 1 9 6 10 9 9 10 5 8v3l-5-1-14-10-12-11-7-9z" fill="#fff"/>
<path transform="translate(1262,497)" d="m0 0 6 1v9l-3 12-4 8-4 4-5-1-3-4v-10l6-12 5-5z" fill="#fff"/>
<path transform="translate(473,1279)" d="m0 0h7l37 10 26 8 4 4-1 2-19-4-31-9-18-6-5-3z" fill="#fff"/>
<path transform="translate(1115,236)" d="m0 0 5 2 10 9 26 26 3 1 1 4 8 10 1 5-4-2-48-48-2-3z" fill="#fff"/>
<path transform="translate(1182,333)" d="m0 0 5 1 17 17 9 11 9 12 6 10-1 2-12-11-16-17-11-13-5-7z" fill="#fff"/>
<path transform="translate(1287,548)" d="m0 0h2l3 13v47l-2 5-4 1-1-2v-37z" fill="#fff"/>
<path transform="translate(251,1143)" d="m0 0 5 2 16 13 13 10 17 14 2 1v2l3 1 2 3-1 3-9-6-16-12-13-11-10-9-7-6z" fill="#fff"/>
<path transform="translate(95,460)" d="m0 0h1l-1 10-8 27-12 36-3 3 1-10 6-23 11-32 4-9z" fill="#fff"/>
<path transform="translate(97,878)" d="m0 0h6l5 6 1 7-3 7-4 4-5-2-3-2v-12l2-7z" fill="#fff"/>
<path transform="translate(977,127)" d="m0 0 6 1 22 12 19 12 18 12v3l-5-2-28-17-25-15-7-5z" fill="#fff"/>
<path transform="translate(1116,226)" d="m0 0 5 2 31 31 7 8 10 12 2 5-4-2-12-13-15-16-12-13-11-11z" fill="#fff"/>
<path transform="translate(979,1242)" d="m0 0h3l-1 3-24 12-39 17-9 3v-3l31-14 20-9z" fill="#fff"/>
<path transform="translate(323,1204)" d="m0 0 5 1 48 28 10 7 2 3-6-1-17-10-11-7-21-13-9-6z" fill="#fff"/>
<path transform="translate(817,68)" d="m0 0 9 1 38 10 25 8 2 3-11-2-36-10-25-7-2-1z" fill="#fff"/>
<path transform="translate(650,53)" d="m0 0h69l3 1v2l-57 1-20-1v-2z" fill="#fff"/>
<path transform="translate(542,69)" d="m0 0h6l-2 2-43 13-32 9-3-1 8-4 30-9 28-8z" fill="#fff"/>
<path transform="translate(374,134)" d="m0 0 3 1-5 4-21 13-14 9-15 10-10 7h-2v-2l13-10 20-13 26-16z" fill="#fff"/>
<path transform="translate(808,1303)" d="m0 0 4 1-7 3-18 4-32 4-10 1h-11l1-2 46-6 23-4z" fill="#fff"/>
<path transform="translate(235,240)" d="m0 0h2l-2 4-7 8-3 4h-2l-2 4-12 13-12 14-9 11-2-1 10-13 10-11 9-11 16-17z" fill="#fff"/>
<path transform="translate(574,1307)" d="m0 0 13 1 39 5 3 3-13-1-37-5-5-2z" fill="#fff"/>
<path transform="translate(130,384)" d="m0 0 1 2-12 23-10 19-4 8-1-3 14-29 10-18z" fill="#fff"/>
<path transform="translate(1296,585)" d="m0 0h2l1 5 1 19-1 3-2-1-1-6z" fill="#fff"/>
<path transform="translate(189,1071)" d="m0 0 4 2v2l4 2v2l4 2v2l4 2v2l3 1-1 3-18-18z" fill="#fff"/>
<path transform="translate(1132,246)" d="m0 0 7 6 2 4-7-6z" fill="#fff"/>
<path transform="translate(62,656)" d="m0 0h2v7h-2z" fill="#fff"/>
<path transform="translate(1184,311)" d="m0 0 3 1 1 3h-2v-2h-2z" fill="#fff"/>
<path transform="translate(1181,307)" d="m0 0 3 1-1 3z" fill="#fff"/>
<path transform="translate(161,1019)" d="m0 0 4 2h-3z" fill="#fff"/>
<path transform="translate(1205,351)" d="m0 0 3 1v2h-2z" fill="#fff"/>
<path transform="translate(183,1063)" d="m0 0 3 3-3-1z" fill="#fff"/>
<path transform="translate(1160,276)" d="m0 0 3 3-3-1z" fill="#fff"/>
<path transform="translate(133,983)" d="m0 0 2 1-1 2z" fill="#fff"/>
<path transform="translate(1148,263)" d="m0 0 2 1-1 2z" fill="#fff"/>
<path transform="translate(1202,348)" d="m0 0h2l-1 2z" fill="#fff"/>
<path transform="translate(1146,261)" d="m0 0 2 2h-2z" fill="#fff"/>
<path transform="translate(1141,256)" d="m0 0h2l-1 2z" fill="#fff"/>
<path transform="translate(165,1024)" d="m0 0 2 1z" fill="#fff"/>
<path transform="translate(66,782)" d="m0 0" fill="#fff"/>
<path transform="translate(1233,404)" d="m0 0 2 1z" fill="#fff"/>
<path transform="translate(1188,315)" d="m0 0" fill="#fff"/>
<path transform="translate(1130,244)" d="m0 0" fill="#fff"/>
<path transform="translate(310,1187)" d="m0 0" fill="#fff"/>
<path transform="translate(308,1185)" d="m0 0" fill="#fff"/>
<path transform="translate(2784,1174)" d="m0 0" fill="#fff"/>
<path transform="translate(212,1095)" d="m0 0" fill="#fff"/>
<path transform="translate(211,1094)" d="m0 0" fill="#fff"/>
<path transform="translate(210,1093)" d="m0 0" fill="#fff"/>
<path transform="translate(209,1092)" d="m0 0" fill="#fff"/>
<path transform="translate(208,1091)" d="m0 0" fill="#fff"/>
<path transform="translate(188,1070)" d="m0 0" fill="#fff"/>
<path transform="translate(187,1069)" d="m0 0" fill="#fff"/>
<path transform="translate(188,1068)" d="m0 0" fill="#fff"/>
<path transform="translate(186,1068)" d="m0 0" fill="#fff"/>
<path transform="translate(182,1061)" d="m0 0" fill="#fff"/>
<path transform="translate(181,1060)" d="m0 0" fill="#fff"/>
<path transform="translate(164,1023)" d="m0 0" fill="#fff"/>
<path transform="translate(160,1018)" d="m0 0" fill="#fff"/>
<path transform="translate(132,982)" d="m0 0" fill="#fff"/>
<path transform="translate(131,981)" d="m0 0" fill="#fff"/>
<path transform="translate(130,980)" d="m0 0" fill="#fff"/>
<path transform="translate(1278,502)" d="m0 0" fill="#fff"/>
<path transform="translate(1271,480)" d="m0 0" fill="#fff"/>
<path transform="translate(99,461)" d="m0 0" fill="#fff"/>
<path transform="translate(115,417)" d="m0 0" fill="#fff"/>
<path transform="translate(1232,401)" d="m0 0" fill="#fff"/>
<path transform="translate(1234,395)" d="m0 0" fill="#fff"/>
<path transform="translate(1227,381)" d="m0 0" fill="#fff"/>
<path transform="translate(1211,358)" d="m0 0" fill="#fff"/>
<path transform="translate(1210,357)" d="m0 0" fill="#fff"/>
<path transform="translate(1219,356)" d="m0 0" fill="#fff"/>
<path transform="translate(1204,350)" d="m0 0" fill="#fff"/>
<path transform="translate(1209,343)" d="m0 0" fill="#fff"/>
<path transform="translate(1208,342)" d="m0 0" fill="#fff"/>
<path transform="translate(1205,338)" d="m0 0" fill="#fff"/>
<path transform="translate(1202,334)" d="m0 0" fill="#fff"/>
<path transform="translate(1199,330)" d="m0 0" fill="#fff"/>
<path transform="translate(1190,318)" d="m0 0" fill="#fff"/>
<path transform="translate(1189,317)" d="m0 0" fill="#fff"/>
<path transform="translate(1163,280)" d="m0 0" fill="#fff"/>
<path transform="translate(1159,275)" d="m0 0" fill="#fff"/>
<path transform="translate(1156,272)" d="m0 0" fill="#fff"/>
<path transform="translate(1155,271)" d="m0 0" fill="#fff"/>
<path transform="translate(1154,270)" d="m0 0" fill="#fff"/>
<path transform="translate(1153,269)" d="m0 0" fill="#fff"/>
<path transform="translate(1152,268)" d="m0 0" fill="#fff"/>
<path transform="translate(1151,267)" d="m0 0" fill="#fff"/>
<path transform="translate(1150,266)" d="m0 0" fill="#fff"/>
<path transform="translate(1145,260)" d="m0 0" fill="#fff"/>
<path transform="translate(1144,259)" d="m0 0" fill="#fff"/>
<path transform="translate(1143,258)" d="m0 0" fill="#fff"/>
<path transform="translate(1126,240)" d="m0 0" fill="#fff"/>
<path transform="translate(309,178)" d="m0 0" fill="#fff"/>
</svg>
