<svg viewBox="0 0 2048 834" width="324" height="132" xmlns="http://www.w3.org/2000/svg"><path d="m737 2 36 1 27 3 31 6 22 6 19 7 24 11 17 10 16 11 14 11 12 11 20 20 8 10 12 16 11 17 10 18 9 19 9 25 7 28 4 27 2 28-1 32-4 28-5 22-6 20-10 25-13 25-18 27-13 16-11 12-18 18-14 11-15 11-13 8 8 13 27 45 17 28 9 15 17 28 15 25 17 28 24 40 3 7v7l-4 11-10 16-12 12-16 8-14 3h-18l-11-4-8-10-13-22-17-28-27-45-17-28-12-20-17-28-30-50-8-13-2-3-28 3-16 1h-36l-34-3-28-5-19-5-23-8-25-11-21-12-14-10-14-11-15-14-15-15-9-11-11-14-12-18-12-21-9-20-9-25-6-24-5-31-1-13v-33l3-26 6-29 8-26 10-25 12-25 13-21 13-18 9-10 7-8 15-15 11-9 10-8 21-14 22-12 19-8 24-8 30-7 27-4 10-1zm-5 90-19 2-25 6-20 7-16 8-14 8-11 8-11 9-10 9-11 11-13 17-11 18-8 16-7 17-6 22-3 17-1 11v29l3 23 5 19 6 18 11 23 11 17 11 14 11 12 8 8 14 11 10 7 15 9 21 10 24 8 22 4 22 2h13l21-2 21-4 24-8 20-9 18-11 14-10 13-12 5-4 7-8 9-10 12-18 12-23 7-18 6-22 3-21 1-13v-13l-2-23-4-20-9-27-11-23-11-17-10-13-11-12-8-8-11-9-16-11-14-8-16-8-19-7-27-6-19-2zM1716 202h21l18 2 16 4 12 5 15 8 11 9 13 13 12 16 4-5 11-14 10-10 14-10 10-6 17-7 18-4 8-1h27l20 3 17 6 16 9 11 9 9 9 9 14 5 11 4 13 4 22v224h-112l-1-4-1-170-2-20-4-13-5-9-6-7-10-6-11-3h-16l-13 4-10 7-8 9-7 14-4 16-1 11-1 170-1 1h-111l-1-147-1-38-2-13-4-11-6-9-8-7-11-5-10-2h-13l-12 3-10 6-8 7-7 12-3 10-2 15-1 20-1 158-1 1h-110l-1-7V208l2-1h109l1 1v37l8-6 10-9 13-9 14-8 16-6 20-4z" fill="#2A6A8F"/><path d="M422 58h3l-2 5-10 17-19 32-9 15-17 28-19 32-34 56-19 32-17 28-19 32-8 13-17 28-13 22-10 16-4 7 192 1 1 1v98l-1 1-394 1-1-2 9-15 17-28 12-20 34-56 15-25 17-28 12-20 34-56 12-20 14-23 33-55 8-14 1-2H42l-1-2V69l1-10h56zM1253 196h43l25 3 20 5 19 7 16 8 16 10 10 8 10 9 10 10 11 14 10 16 8 17 6 18 3 14 2 17v27l-4 26-6 20-8 18-10 16-11 14-9 10-8 8-15 11-15 9-19 9-26 8-29 5-10 1h-40l-19-2-25-5-21-7-23-11-12-8-14-11-16-16-13-17-9-16-7-15-7-24-3-18-1-11v-21l3-22 6-21 8-18 8-14 10-14 13-15 7-7 17-13 16-10 15-7 24-8 25-5zm12 95-16 3-10 4-13 9-12 12-9 15-5 14-2 16 2 18 5 14 8 13 11 12 11 8 13 6 12 3 15 1 15-2 16-6 11-7 10-9 8-10 6-12 4-15 1-9v-9l-2-14-5-13-7-12-11-12-11-8-13-6-12-3-8-1z" fill="#2B6B90"/><path d="M1421 563h56l1 1v257l-1 1h-56v-13l-1-2-8 7-8 6-12 5-12 2h-18l-16-3-14-6-12-9-9-8-10-14-5-11-4-13-2-14v-13l3-19 5-13 6-11 8-10 9-9 11-7 10-5 14-4 8-1h13l16 3 12 5 10 7 5 4zm-44 143-9 4-8 6-6 8-4 11v15l4 10 6 8 8 7 11 4h14l10-4 8-6 6-7 5-11 1-10-2-10-4-8-9-10-8-5-6-2zM1142 587h134l1 1v21l-1 28-45 1h-27v40h68l1 2v48l-1 1h-68v43l70-1 2 1 1 32v17l-1 1h-134zM1921 657h10l16 2 13 5 17 12v-14h51l5 1 1 5v150l-1 3-2 1h-54v-13l-1-2-5 5-11 8-12 5-11 2h-19l-16-3-14-6-11-8-10-9-8-11-8-16-4-17-1-10v-13l3-17 6-15 7-12 9-10 9-8 13-8 14-5zm13 49-10 4-8 6-7 10-3 9v15l5 12 8 9 10 6 8 2h10l12-4 9-7 6-8 4-9v-18l-6-12-9-9-10-5-5-1zM1504 662h55l1 1 1 97 3 10 6 7 9 4 5 1h10l10-3 7-5 4-9 1-5 1-97 1-1h55l1 1v106l-2 16-5 12-7 9-7 7-12 7-18 6-19 3h-29l-20-3-16-5-11-6-10-9-6-7-5-10-3-11-1-8V663zM1773 658h31l16 4 6 4 1 1v46l-4-1-13-6-4-1h-17l-11 4-9 7-6 9-3 11v13l3 10 6 10 8 6 8 4 4 1h17l12-4 9-5v48l-9 4-11 3-7 1h-25l-18-4-16-7-11-8-12-12-9-14-6-14-3-15v-21l4-18 8-16 8-11 4-5 11-9 14-8 13-5z" fill="#F58242"/><path d="m764 120 16 1 16 3 15 5 17 8 14 9 13 10 13 12 9 10 12 17 10 18 8 21 4 18 3 24v10l-2 15-4 12-4 6-6 5-5 2h-8l-12-5-7-8-2-6-2-33-2-15-5-19-5-12-8-13-7-9-11-11-13-9-16-8-15-5-24-4-10-4-8-8-2-6v-9l4-10 5-6 9-5z" fill="#2B6B90"/><path d="M1620 363h3l1 2v156h-6l-2-1v-2h-2l-1-7 2-8 1-16v-68l1-45 2-10zM80 60h276v1l-18 1-17 3-19 1h-31l-34-1-28-1h-67l-45-1-15-1zM1936 396l2 3 1 11v16l2 27 1 20-2 22v18l-3 8-2-3V413zM1614 208h10v18l-1 3-4-2-6-18zM42 95l2 2 2 10v14l-3 16h-1zM42 59l16 1-4 3-9 4h-3z" fill="#25618E"/></svg>