<?xml version="1.0" encoding="UTF-8"?>
<svg version="1.1" viewBox="0 0 2048 834" width="1350" height="550" xmlns="http://www.w3.org/2000/svg">
<path transform="translate(742,5)" d="m0 0h31l23 1 54 10 24 7 24 10 16 8 13 7 17 12 18 14 17 16 10 10 9 11 10 13 9 13 12 20 12 23 10 29 8 31 4 30 1 9v45l-5 33-7 28-6 18-8 21-10 18-7 12-8 11-7 11-12 14-7 8-11 12-10 10-14 11-12 9h-2l9 16 15 25 17 28 12 20 11 18 6 10 13 22 12 19 17 29 7 11 4 13v9l-5 16-12 19-9 10-8 7-12 6-21 7h-25l-9-3-10-5-10-11-8-13-8-14-10-16-13-22-11-18-14-23-10-17-13-21-13-22-16-26-14-24v-2l-14 2-38 1h-19l-31-3-31-6-24-7-23-8-20-9-15-9-14-9-10-8-11-9-17-16-14-14-11-14-10-13-11-17-16-31-11-28-6-22-6-38-1-10v-39l4-29 4-22 8-26 11-28 13-27 13-20 13-18 11-12 9-10 14-14 13-10 18-13 13-8 23-12 20-8 22-7 29-6 22-4 4-1zm0 123-14 2-24 6-17 7-14 8-15 10-10 9-8 7-11 11-11 16-8 13-8 17-6 16-5 21-1 7v40l3 18 8 26 12 24 8 12 9 11 9 10 8 8 9 7 14 10 17 9 12 5 20 7 17 3 10 1h30l21-3 16-5 16-6 12-5 19-12 11-9 13-12 14-15 10-16 11-21 6-16 3-13-1-4-6 7-9 6-9 3h-14l-10-3-9-5-8-8-5-9-2-7-3-37-3-15-5-16-7-12-11-13-11-8-19-9-9-3-25-5-14-7-9-9-3-6-2-8v-14l4-13 7-11 1-2z" fill="#016A90"/>
<path transform="translate(1420,536)" d="m0 0h17l21 1 8 4 5 6 2 6v79l5-2h53l10 3 7 7 2 5 1 6 1 89 2 3h10l2-5v-32l1-58 2-7 6-7 7-3 4-1h53l10 3 7 8 2 5 1 29 6-9 7-9 5-5 9-8 18-10 18-6 5-1h40l19 5 11 7 5 7 2 7 1 9 9-11 13-10 14-8 14-5 11-2h26l15 3 7 3 8-1 4-1h50l9 2 8 5 5 8 1 3 1 18-1 136-3 7-8 7-6 2-11 1h-36l-20-2-20 7-5 1h-20l-23-6-13-5-17-13-10-10-2-3-2 14-3 6-8 7-14 5-18 5h-25l-13-4-15-4-12-5-16-12-11-11-10-15-2-4-5 13-6 9-9 10-9 8-12 6-24 8-16 2h-32l-16-2-26-9-11-6-8-8-5-4-3-4-2 13-3 5-6 5-6 2-11 1h-35l-14-1-9-1-21 7-5 1h-18l-26-7-12-5-14-11-9-8-2 13-5 7-5 3-16 2h-112l-11-1-8-4-4-5-2-5-1-8v-209l1-13 3-7 5-5 5-2 7-1h120l11 1 6 3 5 6 2 6v46l-3 13-5 6-7 3-5 1-26 1 27 1 7 3 5 5 2 5v4h2l2-5 13-13 15-9 11-5 17-5h28l16 4v-74l3-11 8-7 3-1zm330 172-6 4-3 4-1 3v12l4 7 6 4h14l12-6 9-3-1-17-8-3-12-5zm-389 1-6 4-4 8v8l4 7 6 5h11l6-4 5-7v-10l-6-8-4-3zm527 0-6 4-4 7v9l3 6 6 5 2 1h9l7-4 4-6v-12l-4-6-3-3-3-1zm-675 22 1 4 33-1 11-1-1-2z" fill="#FDFDFD"/>
<path transform="translate(1671,195)" d="m0 0h36l18 3 17 5 16 7 11 6 15 14 8 6 10-10 15-11 11-7 18-7 26-6h37l22 4 21 8 12 7 11 9 15 15 8 13 6 13 5 18 2 11 1 11v204l-2 15-4 6-4 4-7 2h-109l-7-3-6-5-3-5-2-11-1-129-1-40-2-10-5-10v-2l-10-4h-11l-9 3-6 5-7 14-2 8-1 28-1 142-3 10-7 6-6 2h-112l-8-3-6-7-2-10-1-135-1-37-4-16-5-6-6-3-5-1h-10l-9 3-6 4-5 10-2 11-1 17-1 44-1 114-3 8-6 5-7 2h-111l-7-3-5-5-3-7-1-5v-298l4-9 8-6 4-1h111l7 3 5 4 3 5v4l16-9 20-7z" fill="#016A90"/>
<path transform="translate(151,59)" d="m0 0h309l8 3 5 6 2 6-1 10-8 17-8 13-13 21-8 14-13 21-17 29-11 18-15 25-16 26-17 29-16 26-11 19-12 19-8 14-11 18-5 8 1 1 148 1 9 3 5 5 3 4 1 4v100l-3 8-6 5-7 2-21 1-281 1h-73l-11-3-7-8-2-6v-7l3-9 14-23 12-20 13-21 9-16 11-17 13-22 14-23 21-35 13-21 8-14 10-16 11-18 10-17 12-19 17-29-139-1-9-3-5-4-3-6-1-4v-96l3-10 7-6 6-2z" fill="#016A90"/>
<path transform="translate(1235,189)" d="m0 0h51l27 4 22 6 25 10 11 6 17 12 14 12 16 16 13 18 8 14 8 16 6 19 4 25v40l-5 30-7 20-8 16-9 14-13 17-19 19-15 11-22 12-13 6-25 8-24 4-15 2h-47l-24-3-19-4-25-9-20-10-14-9-13-11-20-20-13-18-12-22-5-13-6-20-3-21-1-27 3-26 6-23 9-21 11-18 8-11 12-14 12-12 12-9 15-10 12-7 36-12 24-5zm16 127-11 3-11 6-11 11-7 12-2 6-1 8v11l2 12 6 11 9 10 9 7 11 5 6 1h16l13-4 8-4 10-9 6-7 4-9 3-15-1-11-2-11-6-11-9-10-9-6-9-4-9-2z" fill="#016A90"/>
<path transform="translate(1671,195)" d="m0 0h36l18 3 17 5 16 7 11 6 15 14 8 6 10-10 15-11 11-7 18-7 26-6h37l22 4 21 8 12 7 11 9 15 15 8 13 6 13 5 18 2 11 1 11v204l-2 15-4 6-4 4-7 2h-109l-7-3-6-5-3-5-2-11-1-129-1-40-2-10-5-10v-2l-10-4h-11l-9 3-6 5-7 14-2 8-1 28-1 142-3 10-7 6-6 2h-112l-8-3-6-7-2-10-1-135-1-37-4-16-5-6-6-3-5-1h-10l-9 3-6 4-5 10-2 11-1 17-1 44-1 114-3 8-6 5-7 2h-111l-7-3-5-5-3-7-1-5v-298l4-9 8-6 4-1h111l7 3 5 4 3 5v4l16-9 20-7zm2 18-25 5-17 7-16 10-10 8-11 9-1-34h-107v295l1 3h106l1-146 1-21 3-20 4-10 6-8 8-7 11-5 5-1h18l12 4 9 6 7 9 4 10 2 10 1 22 2 157h106l1-4 1-157 2-15 4-14 6-11 7-8 12-7 7-2h20l10 4 9 6 7 11 4 12 2 16 1 110 1 59h106v-222l-4-17-5-13-6-11-8-10-11-10-11-7-14-7-14-4-12-2h-34l-22 5-18 8-15 10-10 9-9 10-7 9v2h-3l-2-4-10-13-15-14-10-7-19-9-20-5-9-1z" fill="#FDFDFD"/>
<path transform="translate(742,5)" d="m0 0h31l23 1 54 10 24 7 24 10 16 8 13 7 17 12 18 14 17 16 10 10 9 11 10 13 9 13 12 20 12 23 10 29 8 31 4 30 1 9v45l-5 33-7 28-6 18-8 21-10 18-7 12-8 11-7 11-12 14-7 8-11 12-10 10-14 11-12 9h-2l9 16 15 25 17 28 12 20 11 18 6 10 13 22 12 19 17 29 7 11 4 13v9l-5 16-12 19-9 10-8 7-12 6-21 7h-25l-9-3-10-5-10-11-8-13-8-14-10-16-13-22-11-18-14-23-10-17-13-21-13-22-16-26-14-24v-2l-14 2-38 1h-19l-31-3-31-6-24-7-23-8-20-9-15-9-14-9-10-8-11-9-17-16-14-14-11-14-10-13-11-17-16-31-11-28-6-22-6-38-1-10v-39l4-29 4-22 8-26 11-28 13-27 13-20 13-18 11-12 9-10 14-14 13-10 18-13 13-8 23-12 20-8 22-7 29-6 22-4 4-1zm1 18-28 3-24 4-28 7-23 8-25 12-18 11-14 10-16 13-20 20-7 8-10 13-10 15-9 15-12 25-9 24-7 23-5 25-2 15-1 15v26l2 20 4 24 7 26 10 26 8 16 10 18 12 17 11 14 10 11 21 21 11 9 19 14 21 12 26 11 24 8 22 5 28 4 11 1h59l19-2h9l17 28 13 22 34 56 12 20 17 28 19 32 13 21 10 17 8 9 8 3h23l13-4 13-7 10-10 11-18 3-9-1-8-8-15-34-56-15-25-17-28-12-20-17-28-19-32-6-9 1-3 13-8 16-12 11-9 17-17 7-8 11-13 20-30 12-23 9-23 7-23 5-25 2-14 1-16v-28l-3-30-5-25-6-21-7-19-10-21-10-17-8-12-16-21-11-12-14-14-8-7-17-13-15-10-18-10-23-10-21-7-21-5-28-5-19-2-18-1z" fill="#FDFDFD"/>
<path transform="translate(747,109)" d="m0 0h26l23 3 24 6 15 6 20 10 24 16 12 11 14 14 12 16 11 18 9 20 8 24 4 23 1 11v25l-3 23-6 23-10 24-10 18-11 16-16 17-12 11-13 10-20 12-17 8-28 9-25 4-22 1-23-2-25-5-20-7-21-10-17-11-13-10-10-9-7-7-9-11-10-13-9-15-10-22-8-27-4-27v-27l3-22 6-23 8-20 10-19 10-15 11-14 12-12 22-18 13-8 21-11 21-7 21-5zm-5 19-14 2-24 6-17 7-14 8-15 10-10 9-8 7-11 11-11 16-8 13-8 17-6 16-5 21-1 7v40l3 18 8 26 12 24 8 12 9 11 9 10 8 8 9 7 14 10 17 9 12 5 20 7 17 3 10 1h30l21-3 16-5 16-6 12-5 19-12 11-9 13-12 14-15 10-16 11-21 6-16 3-13-1-4-6 7-9 6-9 3h-14l-10-3-9-5-8-8-5-9-2-7-3-37-3-15-5-16-7-12-11-13-11-8-19-9-9-3-25-5-14-7-9-9-3-6-2-8v-14l4-13 7-11 1-2z" fill="#FDFDFD"/>
<path transform="translate(151,59)" d="m0 0h309l8 3 5 6 2 6-1 10-8 17-8 13-13 21-8 14-13 21-17 29-11 18-15 25-16 26-17 29-16 26-11 19-12 19-8 14-11 18-5 8 1 1 148 1 9 3 5 5 3 4 1 4v100l-3 8-6 5-7 2-21 1-281 1h-73l-11-3-7-8-2-6v-7l3-9 14-23 12-20 13-21 9-16 11-17 13-22 14-23 21-35 13-21 8-14 10-16 11-18 10-17 12-19 17-29-139-1-9-3-5-4-3-6-1-4v-96l3-10 7-6 6-2zm101 18-158 1-1 1v94l171 1-16 27-19 32-16 26-19 32-10 16-12 20-34 56-19 32-10 16-17 28-15 25-17 28-1 5h360l15-1v-94l-1-1-151-1-29-1 10-17 17-28 12-20 17-28 13-22 17-28 16-27 31-51 16-27 17-28 15-25 16-27 7-14z" fill="#FDFDFD"/>
<path transform="translate(1400,555)" d="m0 0h54l1 6-1 240h-41l-13-1v-13l-14 11-11 5-15 3h-15l-19-4-14-7-11-9-8-8-9-14-5-13-3-14v-23l3-16 6-14 6-9 9-11 7-6 16-9 17-5h23l13 3 14 7 8 6 1-73zm-39 154-6 4-4 8v8l4 7 6 5h11l6-4 5-7v-10l-6-8-4-3z" fill="#FC863D"/>
<path transform="translate(1868,644)" d="m0 0h22l11 2 16 8 8 6 1-11 1-1h47l6 1 1 2v148l-3 2h-41l-11-1-1-12-8 7-10 6-13 4-6 1h-17l-18-4-16-8-14-12-9-12-7-15-4-16-1-13 2-21 5-15 8-15 12-13 14-10 12-5zm20 65-6 4-4 7v9l3 6 6 5 2 1h9l7-4 4-6v-12l-4-6-3-3-3-1z" fill="#FC863D"/>
<path transform="translate(1136,578)" d="m0 0h128v36l-1 11-1 1-66 1-1 20v17h65v48l-1 1h-65l1 39h68l1 17v32h-121l-7-1z" fill="#FC863D"/>
<path transform="translate(1235,189)" d="m0 0h51l27 4 22 6 25 10 11 6 17 12 14 12 16 16 13 18 8 14 8 16 6 19 4 25v40l-5 30-7 20-8 16-9 14-13 17-19 19-15 11-22 12-13 6-25 8-24 4-15 2h-47l-24-3-19-4-25-9-20-10-14-9-13-11-20-20-13-18-12-22-5-13-6-20-3-21-1-27 3-26 6-23 9-21 11-18 8-11 12-14 12-12 12-9 15-10 12-7 36-12 24-5zm4 18-22 3-19 4-26 9-17 9-17 12-13 11-12 14-12 17-7 12-7 17-6 21-2 14v33l4 23 7 22 8 16 8 14 13 16 13 13 17 13 16 9 19 8 16 5 20 4 16 2h46l31-5 26-8 18-8 18-11 13-10 8-8 9-11 8-10 11-18 8-20 4-15 3-19v-36l-2-14-4-15-6-16-8-16-8-12-9-11-19-19-15-11-16-9-15-7-18-6-12-3-23-3z" fill="#FDFDFD"/>
<path transform="translate(1478,648)" d="m0 0h53l1 1 1 57 1 37 4 10 6 5 8 3h14l10-4 4-4 3-7 1-6 1-71 1-21h53l1 1v106l-2 12-7 14-11 12-16 8-18 5-11 2h-30l-25-5-13-5-11-8-8-8-6-10-4-14-1-88v-21z" fill="#FC863D"/>
<path transform="translate(1729,645)" d="m0 0h37l14 4 5 4v44l-6-1-12-5h-20l-9 4-8 6-5 9-3 12v7l4 13 6 9 10 6 4 2h21l13-5 5-2v46l-12 5-7 2-8 1h-22l-18-4-16-7-10-8-12-12-8-13-6-15-2-11v-23l4-16 9-17 9-12 9-8 14-8 12-5z" fill="#FC863D"/>
<path transform="translate(776,135)" d="m0 0 18 1 18 4 16 6 17 9 14 10 15 13 8 8 14 19 11 20 7 19 4 18 2 16v20l-3 14-4 9-6 7-6 3h-10l-12-6-6-9-1-3-3-38-3-15-5-16-7-14-10-13-10-10-14-9-17-8-14-4-21-4-8-4-7-7-2-5v-11l5-10 8-7 5-2z" fill="#016A90"/>
<path transform="translate(1248,298)" d="m0 0h21l15 4 14 7 10 8 10 12 7 14 3 10 1 7v15l-4 17-8 16-11 12-11 8-16 7-10 2h-20l-15-4-12-6-9-7-8-8-9-14-5-13-2-14 1-15 2-8 5-13 8-12 11-11 14-9 13-4zm3 18-11 3-11 6-11 11-7 12-2 6-1 8v11l2 12 6 11 9 10 9 7 11 5 6 1h16l13-4 8-4 10-9 6-7 4-9 3-15-1-11-2-11-6-11-9-10-9-6-9-4-9-2z" fill="#FDFDFD"/>
<path transform="translate(1885,691)" d="m0 0h17l12 6 6 5 7 12 1 6v12l-4 10-10 11-10 5-3 1h-15l-9-4-8-6-6-9-3-7v-16l4-9 6-8 7-6zm3 18-6 4-4 7v9l3 6 6 5 2 1h9l7-4 4-6v-12l-4-6-3-3-3-1z" fill="#FDFDFD"/>
<path transform="translate(1358,691)" d="m0 0h18l10 5 10 10 4 8 2 8-1 11-6 12-4 5-11 7-5 2h-17l-10-5-6-5-7-11-2-6v-14l5-12 8-9zm3 18-6 4-4 8v8l4 7 6 5h11l6-4 5-7v-10l-6-8-4-3z" fill="#FDFDFD"/>
</svg>
