<svg version="1.2" xmlns="http://www.w3.org/2000/svg" width="500" height="500"><style>.s0{fill:#455a64}.s1{fill:#37474f}.s2{fill:#54afe7}.s3{fill:#020100}.s4{fill:#ebebeb}.s5{fill:#dbdbdb}.s6{fill:#fff}.s7{fill:#c7c7c7}.s8{fill:#d0e4fc}.s9{fill:#263238}.s10{fill:#0094ef}.s11{fill:#9aceee}.s13{fill:#eb9481}.s16{fill:#ffc727}</style><g id="Trees"><g id="&lt;Group&gt;"><g id="&lt;Group&gt;"><path id="&lt;Path&gt;" class="s0" d="M257 462.4c-.7.7-9 1-12 1s-11.3-.3-12-1c-.7-.7 9.3-55.8 12-55.8 2.7 0 12.7 55.1 12 55.8z"/><path id="&lt;Path&gt;" class="s1" d="M257.2 448.4c-2.1.7-9.6 3.8-11.3 4.7v-1q2.8-1.6 5.5-3.2c2-1.2 4.1-2.2 5.9-3.5.1-.1.1-.3 0-.2-2.1.8-4 2.1-5.8 3.2q-2.8 1.6-5.6 3.3v-7.9c2.9-1.2 5.9-2.8 8.6-4.4.1-.1.1-.2-.1-.2-2.8 1.2-5.8 2.6-8.5 4.2q0-2-.1-4.1c0-7.1 0-14.1-.2-21.2 1.8-.9 3.6-1.7 5.4-2.6.1-.1.1-.3-.1-.2-1.8.7-3.6 1.5-5.3 2.3q-.2-5.5-.5-10.9c0-.2-.2-.2-.2 0-.2 6.7-.2 13.5-.1 20.3-1.9-1.5-3.9-2.8-5.8-4.2-.1-.1-.1 0-.1.1 2 1.5 3.9 3.2 5.9 4.7v1.1c-2-.9-4.1-1.8-6.1-2.6-.2-.1-.3.1-.2.2 2.1 1 4.2 2 6.3 2.9q.1 5.1.1 10.1l.4 17.6q-5.8-2.9-11.6-5.6c-.1-.1-.2.1-.1.2 3.8 2.2 7.7 4.1 11.7 5.9l.2 14.6c.1.3.5.3.5 0-.1-6.2-.1-12.5-.1-18.7 2-.5 9.6-3.7 11.4-4.6.2-.1.1-.4-.1-.3z"/></g><g id="&lt;Group&gt;"><path id="&lt;Path&gt;" class="s0" d="M190.8 463.8c-.6.6-7.7.9-10.3.9-2.6 0-9.7-.3-10.3-.9-.6-.6 8-47.9 10.3-47.9 2.3 0 10.9 47.3 10.3 47.9z"/><path id="&lt;Path&gt;" class="s1" d="M191 451.7c-1.8.7-8.3 3.4-9.7 4.1v-.9q2.3-1.3 4.7-2.7c1.7-1 3.5-1.9 5.1-3 .1-.1 0-.2-.1-.2-1.7.7-3.3 1.8-5 2.7q-2.4 1.5-4.7 2.9 0-3.4-.1-6.8c2.6-1 5.1-2.4 7.5-3.7 0-.1 0-.2-.1-.2-2.5 1-5.1 2.2-7.4 3.6V444c0-6.1-.1-12.2-.2-18.2 1.5-.8 3.1-1.5 4.7-2.3.1 0 0-.2-.1-.2-1.6.6-3.1 1.4-4.6 2q-.1-4.6-.4-9.3c0-.1-.2-.1-.2 0-.2 5.8-.2 11.6-.1 17.4-1.6-1.3-3.3-2.4-4.9-3.6-.1-.1-.2 0-.1.1 1.7 1.3 3.3 2.7 5 4v1c-1.7-.8-3.5-1.6-5.2-2.3-.2-.1-.3.1-.2.2 1.8.9 3.6 1.7 5.4 2.5q.1 4.4.1 8.7.2 7.5.3 15.1-4.9-2.5-9.9-4.9c-.1 0-.2.2-.1.2q4.9 2.8 10 5.1.2 6.2.3 12.5c0 .3.4.3.4 0q-.1-8-.1-16c1.7-.4 8.2-3.2 9.8-4 .1-.1 0-.3-.1-.3z"/></g><g id="&lt;Group&gt;"><path id="&lt;Path&gt;" class="s1" d="M395.1 465.1c.5.5 6.5.8 8.7.8 2.1 0 8.1-.3 8.6-.8.6-.5-6.7-40.3-8.6-40.3-2 0-9.2 39.8-8.7 40.3z"/><path id="&lt;Path&gt;" class="s0" d="M394.9 455c1.5.5 7 2.8 8.2 3.4v-.7l-4-2.4c-1.4-.8-2.9-1.5-4.3-2.5 0 0 0-.2.1-.1 1.5.6 2.8 1.5 4.2 2.3l4 2.4v-5.7c-2.1-.9-4.3-2-6.2-3.2-.1 0 0-.2 0-.1 2.1.8 4.3 1.8 6.2 3v-3c.1-5.1.1-10.2.2-15.3-1.3-.7-2.6-1.2-3.9-1.9-.1 0 0-.2.1-.1 1.3.5 2.6 1.1 3.9 1.6q.1-3.9.3-7.9h.1c.2 4.9.2 9.8.1 14.7l4.2-3c0-.1.1 0 0 .1-1.4 1-2.7 2.3-4.2 3.3v.9l4.4-2c.1 0 .2.2.1.2-1.5.7-3 1.5-4.5 2.2q0 3.6-.1 7.2l-.2 12.7q4.1-2 8.3-4c.1-.1.2.1.1.1q-4.1 2.4-8.4 4.3-.2 5.3-.2 10.5c0 .2-.4.2-.4 0q.1-6.7.1-13.4c-1.5-.4-6.9-2.7-8.3-3.4-.1-.1 0-.3.1-.2z"/></g><g id="&lt;Group&gt;"><path id="&lt;Path&gt;" class="s1" d="M188.1 465.1c.5.5 6.5.8 8.7.8 2.2 0 8.2-.3 8.7-.8s-6.7-40.3-8.7-40.3c-1.9 0-9.2 39.8-8.7 40.3z"/><path id="&lt;Path&gt;" class="s0" d="M188 455c1.5.5 7 2.8 8.2 3.4v-.7l-4-2.4c-1.4-.8-3-1.5-4.3-2.5-.1 0 0-.2.1-.1 1.4.6 2.8 1.5 4.2 2.3l4 2.4v-5.7c-2.1-.9-4.3-2-6.3-3.2 0 0 0-.2.1-.1 2.1.8 4.2 1.8 6.2 3v-3c.1-5.1.1-10.2.2-15.3-1.3-.7-2.6-1.2-3.9-1.9-.1 0-.1-.2 0-.1 1.4.5 2.6 1.1 3.9 1.6q.1-3.9.3-7.9h.2c.2 4.9.2 9.8.1 14.7 1.3-1 2.8-2 4.1-3 .1-.1.1 0 .1.1-1.4 1-2.8 2.3-4.2 3.3v.9l4.4-2c.1 0 .2.2.1.2-1.5.7-3 1.5-4.5 2.2q-.1 3.6-.1 7.2-.1 6.4-.3 12.7l8.4-4c.1-.1.2.1 0 .1q-4.1 2.4-8.4 4.3l-.2 10.5c0 .2-.3.2-.3 0q.1-6.7.1-13.4c-1.5-.4-7-2.7-8.3-3.4-.1-.1 0-.3.1-.2z"/></g><g id="&lt;Group&gt;"><path id="&lt;Path&gt;" class="s1" d="M325.6 463.2c-.6.6-8.3.9-11.1.9-2.7 0-10.4-.3-11-.9-.7-.7 8.6-51.6 11-51.6 2.5 0 11.8 50.9 11.1 51.6z"/><path id="&lt;Path&gt;" class="s0" d="M325.8 450.2c-1.9.7-8.9 3.6-10.4 4.4v-1q2.5-1.4 5.1-2.9c1.8-1.1 3.7-2 5.4-3.3.1 0 .1-.2-.1-.2-1.8.8-3.6 2-5.3 3q-2.6 1.5-5.1 3.1 0-3.7-.1-7.3c2.8-1.1 5.5-2.6 8-4.1.1 0 .1-.2 0-.1-2.7 1.1-5.5 2.4-8 3.9v-3.8c-.1-6.6-.1-13.1-.2-19.6 1.6-.9 3.3-1.6 5-2.4.1-.1 0-.3-.1-.2-1.7.6-3.3 1.4-4.9 2.1q-.2-5-.5-10.1c0-.1-.1-.1-.1 0-.3 6.3-.3 12.5-.2 18.8-1.7-1.4-3.5-2.6-5.3-3.9-.1-.1-.1 0-.1.1 1.9 1.4 3.6 2.9 5.4 4.3v1.1c-1.8-.9-3.7-1.7-5.6-2.5-.2 0-.3.2-.1.2 1.9 1 3.8 1.9 5.7 2.8q.1 4.6.2 9.3.1 8.1.3 16.2-5.3-2.7-10.7-5.2c-.1-.1-.2.1-.1.2q5.3 3 10.8 5.4l.2 13.5c0 .3.5.3.5 0q-.1-8.6-.1-17.2c1.8-.5 8.9-3.5 10.5-4.3.2-.1.1-.4-.1-.3z"/></g><g id="&lt;Group&gt;"><path id="&lt;Path&gt;" class="s0" d="M315.6 465.9c.4.4 5.8.6 7.7.6 1.9 0 7.3-.2 7.8-.6.4-.5-6.1-36-7.8-36-1.7 0-8.2 35.5-7.7 36z"/><path id="&lt;Path&gt;" class="s1" d="M315.4 456.8c1.4.5 6.3 2.5 7.3 3.1v-.7q-1.8-1-3.5-2c-1.3-.8-2.7-1.4-3.9-2.3 0-.1 0-.2.1-.1 1.3.5 2.5 1.3 3.7 2l3.6 2.2v-5.1c-1.9-.8-3.8-1.8-5.5-2.9-.1 0-.1-.1 0-.1 1.9.8 3.8 1.7 5.5 2.7q0-1.3.1-2.6c0-4.6 0-9.1.1-13.7-1.1-.6-2.3-1.1-3.5-1.7-.1 0 0-.2.1-.1 1.2.4 2.3 1 3.4 1.5q.1-3.5.3-7.1h.2c.1 4.4.1 8.8.1 13.1 1.2-.9 2.4-1.8 3.7-2.7 0 0 .1.1 0 .1-1.3 1-2.5 2-3.7 3q-.1.4-.1.7 2-.8 4-1.7c.1 0 .2.1.1.2-1.4.6-2.7 1.3-4.1 1.9q0 3.2-.1 6.5 0 5.7-.2 11.3 3.7-1.8 7.5-3.6c.1 0 .1.1 0 .1q-3.6 2.1-7.5 3.8-.1 4.7-.1 9.5c-.1.1-.3.1-.3 0V460c-1.3-.3-6.2-2.4-7.3-3-.2 0-.1-.2 0-.2z"/></g></g></g><g id="Clipboard"><g id="&lt;Group&gt;"><g id="&lt;Group&gt;"><g id="&lt;Group&gt;"><g id="&lt;Group&gt;"><path id="&lt;Path&gt;" class="s2" d="M283.1 382H65.3V92.7h217.8z"/></g></g><g id="&lt;Group&gt;" style="opacity:.1"><g id="&lt;Group&gt;"><path id="&lt;Path&gt;" class="s3" d="M283.1 382H65.3V92.7h217.8z"/></g></g><g id="&lt;Group&gt;"><path id="&lt;Path&gt;" class="s2" d="M289 382H71.2V92.7H289z"/></g></g><g id="&lt;Group&gt;"><g id="&lt;Group&gt;"><path id="&lt;Path&gt;" class="s4" d="m277 364.8-192.3 2.5-3.3-260.6 192.2-2.5z"/></g><g id="&lt;Group&gt;"><path id="&lt;Path&gt;" class="s5" d="M269.5 368.1 77.3 364l5.6-260.6 192.2 4.1z"/></g><g id="&lt;Group&gt;"><g id="&lt;Group&gt;"><g id="&lt;Group&gt;"><path id="&lt;Path&gt;" class="s6" d="M272.3 366.1H80.1V105.4h192.2z"/><path id="&lt;Compound Path&gt;" fill-rule="evenodd" class="s5" d="m272.3 366.1-192.5.2-.1-260.9v-.4h.4l192.5.1c.3.2-.4 260.8-.3 261zm0 0-.2-260.7c1.8.6-192.5.3-192 .4l.3-.4-.1 260.7c-1.5-.4 192.4 0 192 0z"/></g></g><g id="&lt;Group&gt;"><g id="&lt;Group&gt;"><g id="&lt;Group&gt;"><path id="&lt;Path&gt;" class="s7" d="M104.5 151.7c25.3-.7 50.9-.7 76.2 0-25.3.6-50.9.6-76.2 0z"/></g></g><g id="&lt;Group&gt;"><g id="&lt;Group&gt;"><path id="&lt;Path&gt;" class="s7" d="M104.5 162.8c25.3-.7 50.9-.7 76.2 0-25.3.7-50.9.7-76.2 0z"/></g></g><g id="&lt;Group&gt;"><g id="&lt;Group&gt;"><path id="&lt;Path&gt;" class="s7" d="M104.5 173.9c25.3-.7 50.9-.7 76.2 0-25.3.7-50.9.7-76.2 0z"/></g></g><g id="&lt;Group&gt;"><g id="&lt;Group&gt;"><path id="&lt;Path&gt;" class="s7" d="M104.5 185c25.3-.6 50.9-.6 76.2 0-25.3.7-50.9.7-76.2 0z"/></g></g><g id="&lt;Group&gt;"><g id="&lt;Group&gt;"><path id="&lt;Path&gt;" class="s7" d="M104.5 196.2c25.3-.7 50.9-.7 76.2 0-25.3.7-50.9.7-76.2 0z"/></g></g><g id="&lt;Group&gt;"><g id="&lt;Group&gt;"><path id="&lt;Path&gt;" class="s7" d="M104.5 207.3c25.3-.7 50.9-.7 76.2 0-25.3.7-50.9.7-76.2 0z"/></g></g><g id="&lt;Group&gt;"><g id="&lt;Group&gt;"><path id="&lt;Path&gt;" class="s7" d="M104.5 218.4c46.3-.6 97.8-.6 144.2 0-46.4.7-97.9.7-144.2 0z"/></g></g><g id="&lt;Group&gt;"><g id="&lt;Group&gt;"><path id="&lt;Path&gt;" class="s7" d="M104.5 229.6c46.3-.7 97.8-.7 144.2 0-46.4.6-97.9.6-144.2 0z"/></g></g><g id="&lt;Group&gt;"><g id="&lt;Group&gt;"><path id="&lt;Path&gt;" class="s7" d="M104.5 240.7c46.3-.6 97.8-.6 144.2 0-46.4.7-97.9.7-144.2 0z"/></g></g><g id="&lt;Group&gt;"><g id="&lt;Group&gt;"><path id="&lt;Path&gt;" class="s7" d="M104.5 263c46.3-.7 97.8-.7 144.2 0-46.4.6-97.9.6-144.2 0z"/></g></g><g id="&lt;Group&gt;"><g id="&lt;Group&gt;"><path id="&lt;Path&gt;" class="s7" d="M104.5 274.1c46.3-.7 97.8-.6 144.2 0-46.4.7-97.9.7-144.2 0z"/></g></g><g id="&lt;Group&gt;"><g id="&lt;Group&gt;"><path id="&lt;Path&gt;" class="s7" d="M104.5 285.2c29.2-.6 61.7-.6 90.9 0-29.2.7-61.7.7-90.9 0z"/></g></g><g id="&lt;Group&gt;"><g id="&lt;Group&gt;"><path id="&lt;Path&gt;" class="s7" d="M131.1 318.7c29.2-.6 61.7-.6 91 0-29.3.7-61.8.7-91 0z"/></g></g><g id="&lt;Group&gt;"><g id="&lt;Group&gt;"><path id="&lt;Path&gt;" class="s7" d="M104.5 340.9c46.3-.7 97.8-.6 144.2 0-46.4.7-97.9.7-144.2 0z"/></g></g><g id="&lt;Group&gt;"><path id="&lt;Path&gt;" class="s7" d="M142.9 136.7c22.4-1.3 44.9-1.3 67.3 0-22.4 1.4-44.9 1.4-67.3 0z"/></g></g><g id="&lt;Group&gt;"><path id="&lt;Path&gt;" class="s5" d="m188.9 154.5 38.2-.1c12.7.1 9.3 0 22 .1-12.7.1-9.3.1-22 .1zM188.9 157.7l38.2-.1c12.7 0 9.3 0 22 .1-12.7.1-9.3.1-22 .1zM188.9 160.9l38.2-.1c12.7 0 9.3 0 22 .1-12.7.1-9.3.1-22 .1zM188.9 164.1l38.2-.1c12.7 0 9.3 0 22 .1-12.7.1-9.3.1-22 .1zM188.9 167.3l38.2-.1c12.7 0 9.3 0 22 .1-12.7.1-9.3 0-22 .1zM188.9 170.5l38.2-.1c12.7 0 9.3 0 22 .1-12.7.1-9.3 0-22 .1zM188.9 173.7l38.2-.2c12.7.1 9.3.1 22 .2-12.7 0-9.3 0-22 .1zM188.9 176.8l38.2-.1c12.7.1 9.3.1 22 .1-12.7.1-9.3.1-22 .1zM188.9 180l38.2-.1c12.7.1 9.3 0 22 .1-12.7.1-9.3.1-22 .1zM188.9 183.2l38.2-.1c12.7.1 9.3 0 22 .1-12.7.1-9.3.1-22 .1zM188.9 186.4l38.2-.1c12.7 0 9.3 0 22 .1-12.7.1-9.3.1-22 .1zM188.9 189.6l38.2-.1c12.7 0 9.3 0 22 .1-12.7.1-9.3.1-22 .1zM188.9 192.8l38.2-.1c12.7 0 9.3 0 22 .1-12.7.1-9.3.1-22 .1zM188.9 196l38.2-.1c12.7 0 9.3 0 22 .1-12.7.1-9.3 0-22 .1zM188.9 199.2l38.2-.1c12.7 0 9.3 0 22 .1-12.7.1-9.3 0-22 .1z"/><path id="&lt;Path&gt;" fill-rule="evenodd" class="s8" d="M202.8 176.8v26.1H197v-26.1z"/><path id="&lt;Path&gt;" class="s9" d="M213.5 165.8h-5.8v37.1h5.8z"/><path id="&lt;Path&gt;" class="s5" d="M224.2 173.8h-5.7v29.1h5.7z"/><path id="&lt;Path&gt;" class="s10" d="M235 164.1h-5.8v38.8h5.8z"/><path id="&lt;Path&gt;" class="s9" d="M245.7 169.3h-5.8v33.6h5.8z"/><path id="&lt;Path&gt;" class="s5" d="m191 152.3.1 12.6.1 12.7q.2 12.6.2 25.3l-.4-.4h37.1l18.6.1 2.4.3-2.4.2-18.6.1-18.6.1h-18.9v-.4q0-12.7.1-25.3l.1-12.7zM202.8 206.1H197v-.5h5.8zM213.5 206.1h-5.8v-.5h5.8zM224.2 206.1h-5.7v-.5h5.7zM235 206.1h-5.8v-.5h5.8zM245.7 206.1h-5.8v-.5h5.8z"/></g><g id="&lt;Group&gt;"><g id="&lt;Group&gt;"><g id="&lt;Group&gt;"><path id="&lt;Path&gt;" class="s0" d="m234.6 343.6 4.6-7.2 8.5.9-14-28.8-13 6.3z"/><path id="&lt;Path&gt;" class="s1" d="m227.6 329.1-6.9-14.3 13-6.3z"/><g id="&lt;Group&gt;"><path id="&lt;Path&gt;" class="s6" d="m232 309.3 13.5 27.8h.3l-13.5-27.9zM222.1 314.1l13.5 27.9.2-.3-13.5-27.7z"/></g></g><g id="&lt;Group&gt;"><path id="&lt;Path&gt;" class="s0" d="m208.5 343.1 7.8-3.4 6.6 5.4 5-35.8-14.4-2z"/><g id="&lt;Group&gt;"><path id="&lt;Path&gt;" class="s6" d="m226 309-4.8 34.7.2.2 4.9-34.9zM215.1 307.5l-4.8 34.8.2-.1 4.9-34.7z"/></g></g></g><g id="&lt;Group&gt;"><path id="&lt;Path&gt;" class="s10" d="M221.7 280.9c.5.9 1.8.8 2.3-.1.5-1 2-.9 2.3.2.3 1 1.6 1.2 2.3.4.7-.9 2.1-.4 2.2.7.1 1 1.3 1.5 2.1.9.9-.7 2.2 0 2.1 1.1-.1 1 .9 1.8 1.9 1.3 1-.5 2.1.5 1.8 1.6-.4.9.5 1.9 1.5 1.6 1.1-.3 2 .9 1.4 1.9-.5.9.2 2 1.2 1.9 1.2 0 1.8 1.3 1 2.2-.7.7-.2 2 .8 2.1 1.1.2 1.5 1.7.5 2.3-.8.6-.7 1.9.3 2.3 1.1.4 1.1 1.9.1 2.3-1 .4-1.1 1.7-.2 2.3.9.6.7 2.1-.5 2.3-1 .2-1.4 1.5-.6 2.2.8.8.2 2.2-.9 2.2-1.1-.1-1.7 1.1-1.1 1.9.6 1-.3 2.2-1.4 2-1-.2-1.8.7-1.5 1.7.5 1.1-.6 2.1-1.7 1.6-.9-.4-1.9.4-1.8 1.4.2 1.1-1.1 1.9-2 1.2-.8-.6-2 0-2 1-.1 1.1-1.5 1.6-2.3.8-.7-.8-1.9-.5-2.2.5-.3 1.1-1.8 1.3-2.3.3-.5-.9-1.8-.9-2.3 0-.5 1.1-2 1-2.4-.2-.3-.9-1.5-1.2-2.2-.4-.7.9-2.2.5-2.3-.7 0-1-1.2-1.5-2-.8-.9.7-2.3 0-2.1-1.2.1-1-1-1.7-1.9-1.3-1 .6-2.1-.4-1.8-1.5.4-1-.5-1.9-1.5-1.6-1.1.3-2.1-.9-1.5-1.9.6-.9-.1-2-1.1-2-1.2.1-1.8-1.3-1-2.1.7-.8.2-2-.8-2.1-1.1-.2-1.5-1.7-.5-2.4.8-.5.6-1.8-.3-2.2-1.1-.4-1.1-1.9-.1-2.4 1-.4 1.1-1.7.2-2.2-1-.6-.7-2.1.5-2.3 1-.2 1.3-1.5.6-2.2-.8-.8-.2-2.2.9-2.2 1 0 1.7-1.1 1.1-2-.6-.9.2-2.2 1.4-1.9 1 .2 1.8-.8 1.4-1.7-.4-1.1.7-2.2 1.8-1.7.9.5 1.9-.3 1.8-1.3-.2-1.2 1.1-2 2-1.3.8.6 2 .1 2-.9.1-1.2 1.5-1.7 2.3-.8.6.8 1.9.5 2.2-.5.3-1.1 1.8-1.3 2.3-.3z"/><path id="&lt;Path&gt;" fill-rule="evenodd" class="s6" d="M243 300.4c1.4 10.9-6.3 20.8-17.2 22.2-10.8 1.3-20.7-6.3-22.1-17.2-1.4-10.8 6.3-20.7 17.1-22.1 10.9-1.4 20.8 6.3 22.2 17.1z"/><path id="&lt;Compound Path&gt;" class="s11" d="M225.7 321.2c-10.1 1.3-19.3-5.9-20.6-15.9-1.3-10.1 5.8-19.3 15.9-20.6 10.1-1.3 19.3 5.8 20.6 15.9 1.3 10.1-5.9 19.3-15.9 20.6zm-4.6-36.1c-9.9 1.3-16.8 10.3-15.6 20.1 1.3 9.8 10.3 16.8 20.1 15.5 9.8-1.2 16.8-10.2 15.5-20-1.2-9.9-10.2-16.8-20-15.6z"/></g><g id="&lt;Group&gt;"><path id="&lt;Path&gt;" class="s1" d="M236.7 288.1s2-5-2.5-8.5c-2-1.5-5.2-2.6-7.2-3.7-2.7-1.5-5.2-3.8-5.2-3.8s-1.5 16.9 14 17.2l-7.9-8.8z"/><g id="&lt;Group&gt;"><path id="&lt;Path&gt;" class="s0" d="M214.3 298.2c3.2 3.3 6 7 8.7 10.7l-2.7-.3c6-7.6 12.4-14.8 19.3-21.5 2.4-2.2 4.8-4.4 7.3-6.4-6.7 11-15.1 20.9-24.1 30.1l-1.6 1.7c-2.6-4.6-5-9.4-6.9-14.3z"/></g><path id="&lt;Path&gt;" class="s0" d="M236.6 287.8s-2.7-6.8 3.4-11.5c2.7-2 7.1-3.6 9.8-5.1 3.6-1.9 7.1-5.1 7.1-5.1s2 23-19.1 23.4l10.7-12z"/></g></g></g></g><g id="&lt;Group&gt;"><path id="&lt;Path&gt;" class="s7" d="M211.2 114.9H143V89.2h68.2z"/><path id="&lt;Compound Path&gt;" class="s7" d="M198 77.8h-42.4l-1.8 11.4h46.7zM177.1 86c-1.4 0-2.5-1.1-2.5-2.5s1.1-2.5 2.5-2.5 2.5 1.1 2.5 2.5-1.1 2.5-2.5 2.5z"/><path id="&lt;Path&gt;" d="M200.5 89.2h-46.7l.4-2.6h45.7z" style="fill:#a6a6a6"/></g></g></g><g id="Floor"><g id="&lt;Group&gt;"><path id="&lt;Path&gt;" class="s9" d="M50.3 472.2c127.9-.6 271.5-.6 399.4 0-127.9.6-271.5.6-399.4 0z"/></g></g><g id="Character"><g id="&lt;Group&gt;"><g id="&lt;Group&gt;"><g id="&lt;Group&gt;"><g id="&lt;Group&gt;"><g id="&lt;Group&gt;"><path id="&lt;Path&gt;" class="s13" d="M311.7 472.7c2.5.8 76-.8 78.7-2.6 1-.6-5.3-70.2-5.3-70.2l-46.6.9 5.3 46.5s-27.1 12.9-29.9 15.1c-2.7 2.3-4.7 9.6-2.2 10.3z"/><path id="&lt;Path&gt;" class="s9" d="M311.7 472.7c2.5.8 76-.8 78.7-2.6.3-.2.4-7.2-.8-16.4-13.3 2.2-60.9 9.5-64.6 7.3-2.6-1.5-.3-3.9 1.8-5.5-6 3.1-11.7 6-12.9 7-2.7 2.2-4.7 9.5-2.2 10.2z"/></g><g id="&lt;Group&gt;"><path id="&lt;Path&gt;" class="s9" d="m342.5 436.2 45.7-.7s-9-109.6-8.7-111.7c.5-2.7 33-130 33-130h-43.7s-34.4 118.7-35.6 130.1c-2 18.5 9.3 112.3 9.3 112.3z"/><g id="&lt;Group&gt;"><path id="&lt;Path&gt;" class="s1" d="M384.1 425.2c-2.7-.2-5.4-.2-8.1-.2q-4.1-.1-8.2 0-8.1 0-16.2.3-2.3 0-4.5.1c-1.6.1-3.2.4-4.7.4-.2 0-.2.2 0 .2 1.3 0 2.6.2 4 .3H358.7c5.4-.1 10.8-.1 16.2-.4 3.1-.1 6.2-.1 9.2-.4.2-.1.2-.3 0-.3zM402.9 204.1c-3.9 13.9-7.5 27.8-11 41.8q-5.2 20.9-10.5 41.8l-5.2 21c-1.7 6.8-3.6 13.6-4 20.6-.5 7.2.4 14.4 1 21.5q.9 10.7 1.9 21.4c1.2 14.3 2.4 28.6 4 42.8q.3 2.7.5 5.4c.1.2.3.2.3 0-1-14.3-1.9-28.6-3.1-42.9q-.8-10.7-1.7-21.4c-.6-7.1-1.4-14.3-1.7-21.5-.2-7.2 1.1-14.1 2.9-21.1q2.5-10.2 5.1-20.4 5.2-21 10.4-41.9c3.9-15.6 7.8-31.3 11.2-47 0-.1-.1-.2-.1-.1z"/></g><path id="&lt;Path&gt;" class="s1" d="M412.5 193.9s-13.9 54.6-23.7 93l-18.6-93z"/></g></g><g id="&lt;Group&gt;"><g id="&lt;Group&gt;"><g id="&lt;Group&gt;"><path id="&lt;Path&gt;" class="s13" d="M366.6 472.9c2.5.8 76-.8 78.6-2.6 1.1-.7-2.8-70.3-2.8-70.3l-46 .9 2.3 46.6s-27.1 12.8-29.9 15.1c-2.7 2.3-4.8 9.5-2.2 10.3z"/><path id="&lt;Path&gt;" class="s9" d="M366.6 472.9c2.5.8 76-.8 78.6-2.6.4-.2.3-7.1 0-16.5-13.3 2.3-61.6 9.6-65.3 7.4-2.6-1.5-.3-3.9 1.8-5.5-6.1 3-11.7 5.9-12.9 6.9-2.7 2.3-4.8 9.5-2.2 10.3z"/></g></g><g id="&lt;Group&gt;"><path id="&lt;Path&gt;" class="s9" d="M370.2 193.8s2.5 30.9 7.6 38.7c0 0 5 1.7 12.7 6.3 0 0 3.1 82.6 3 87.5-.2 18.6 4.6 108.9 4.6 108.9l46.1-.4s-4.8-102.2-4.8-109c0-6.6-3.1-48-5.9-84 0 0 4.1-11.5 3.6-17.3-1.1-14-7.4-30.7-7.4-30.7z"/><g id="&lt;Group&gt;"><path id="&lt;Path&gt;" class="s1" d="M386.5 223.2q-.3-1.7-.6-3.5c-.3-2.1-.7-4.2-1.1-6.3-.8-4.8-1.7-9.6-2.8-14.3 0-.1-.2-.1-.2 0q.3 2.9.7 5.7c.3 1.9.5 3.9.7 5.8.6 3.7 1.1 7.5 1.7 11.3.3 1.4 1.2 4-.9 4.5-1.6.3-2.9-1.3-3.3-2.6-.6-1.7-.8-3.5-1.2-5.3q-.5-2.8-.9-5.7-.9-6.3-1.9-12.5c0-.1-.2-.1-.2 0 .1 4.3.4 8.6.9 12.8q.4 3.1 1 6.1c.3 1.9.5 3.9 1.4 5.7.6 1.4 1.8 2.6 3.4 2.8h.1q-.1 0-.1.1c.1.7.1 1.3.1 2 .1.7.2 1.4.4 2 .1.7.2 1.4.5 2q.1.5.3.9.3.4.6.9c.1.1.2 0 .2-.1v-1l-.2-1q-.3-.9-.5-1.9c-.2-.6-.3-1.3-.5-1.9-.2-.7-.4-1.3-.5-2h-.1c1.2 0 2.5-.7 2.9-1.9.4-.8.2-1.7.1-2.6z"/><path id="&lt;Path&gt;" class="s1" d="M394.2 239.8c-1.3-1.1-2.9-2-4.3-2.9q-2.4-1.4-5-2.5c-3.3-1.5-6.8-2.5-10.2-3.6-.1-.1-.2.1-.1.2 3.3 1.3 6.5 3 9.8 4.6q2.3 1.2 4.8 2.2c1.6.8 3.2 1.6 4.9 2.2.1.1.2-.1.1-.2zM420.2 214c-2.3 0-10.4-.6-12.8-3.3-1.4-1.5-2.4-3.5-3-5.4-.8-2.2-1.4-4.3-1.9-6.6 0-.1-.1-.1-.1 0q-.1 3.9.9 7.5c.6 2.1 1.3 4.4 3 5.8 1.7 1.5 4.1 2.1 6.4 2.4 2.5.3 5 .2 7.5-.2.2 0 .2-.2 0-.2zM364.7 214.6c.7 0 2.9-1.5 3.1-1.8 1.8-2.7 2.2-11.2 2.4-13.4 0-.2 0-.1 0 0q.2 3.7-.3 7.5c-.1 2-.4 4.3-.9 5.8s-3.5 2.5-4.3 2.2zM442.2 425.9c-2.7-.2-5.5-.2-8.2-.2q-4-.1-8.1-.1-8.1.1-16.3.3l-4.4.2c-1.6.1-3.2.3-4.8.4-.1 0-.1.2 0 .2 1.4 0 2.7.2 4 .2q2.1.1 4.2.1h8.1c5.4-.1 10.9-.2 16.3-.4 3-.1 6.1-.2 9.2-.5.2 0 .2-.2 0-.2zM436.6 419.9c.3-.1.5-.3.5-.6l-10.4-178.9c.1-.7 3.1-10.7 3.3-15.8.3-5.4-5.3-26.5-5.5-27.3-.1-.3-.4-.5-.7-.4-.3 0-.5.3-.4.6.1.3 5.8 21.8 5.5 27-.3 5.3-3.3 15.7-3.3 15.8l10.4 179c0 .3.3.6.6.6z"/></g></g></g></g></g><g id="&lt;Group&gt;"><g id="&lt;Group&gt;"><path id="&lt;Path&gt;" class="s9" d="M388.1 89.6c10.9 4.8 13.2 20.1 12.5 41.9-.1 3.3-28.1 9-41.6-1.2-2.2-1.6.9-28.2 6.3-35.9 6.6-9.5 16.1-7.9 22.8-4.8z"/><path id="&lt;Path&gt;" class="s9" d="M388.4 89.8c5.7 2.9 9.3 8.6 11 14.6 1.2 4.4 1.7 9.1 2.2 13.6.5 4.4.8 8.8.2 13.2 0 .1-.2.1-.2 0 .1-8.3-.9-16.5-2.6-24.6-1.4-6.7-4.8-12.8-10.8-16.4-.2-.1 0-.5.2-.4zM361.1 101.9c2-6.9 6.5-11.9 13.2-14.1v.1c-7.2 2.8-11.3 8.5-13.2 16.1-2 8.3-2.8 16.6-3.5 25.1 0 .2-.3.2-.3 0 .2-9 1.4-18.6 3.8-27.2z"/></g><g id="&lt;Group&gt;"><g id="&lt;Group&gt;"><g id="&lt;Group&gt;"><g id="&lt;Group&gt;"><path id="&lt;Path&gt;" class="s13" d="M384.1 142.9c-3.2 23.6-9.1 47.2-12.9 50.9-6 5.7-39.3 13.8-50 14.4-3.6.2-6.6-23.6-3.8-26.1s38.6-8.7 40.6-9.9c1-.6 9.7-18.8 16.4-30.9 6.2-11.3 10.7-5.5 9.7 1.6z"/></g></g></g><g id="&lt;Group&gt;"><g id="&lt;Group&gt;"><path id="&lt;Path&gt;" class="s11" d="m333.3 207.5-4.3-30s25.3-5.7 28.4-6.7c1.3-.4 12.1-22.8 17.4-32.4 3.4-6.3 10.5-8.4 10.1 5.5-.2 8.1-6.7 46.4-13 51.6-5.1 4.2-38.6 12-38.6 12z"/><g id="&lt;Group&gt;"><path id="&lt;Path&gt;" class="s9" d="M338.6 204.7c.1-2.2-1.3-11.1-1.7-13.3-.3-2.2-2.1-11.1-2.5-13.4 0-.2-.2-.2-.2 0 .4 2.2 1.4 11.3 1.8 13.5.3 2.2 1.8 11.1 2.5 13.3 0 0 .1 0 .1-.1z"/></g><path id="&lt;Path&gt;" d="M384.9 141.6v1.1q.1.6 0 1.2c0 1.4-.2 3.7-.6 6.5q-.1.8-.2 1.7l-.2 1q-.1 1.1-.3 2.3 0 .2-.1.4l-.4 2.6q-.2 1-.3 2l-.4 2q-.1.5-.2 1.1c-.7 3.7-1.5 7.7-2.4 11.5l-.8 3q-.3 1-.5 2-.3 1-.6 1.9c-1.8 6.6-4 11.9-6 13.6-3.4 2.9-19.9 7.4-30.2 10l37.6-71.7q.3-.1.5-.2c.9-.2 1.8-.1 2.6.5q.5.4.9 1 .3.4.6.9l.4 1.2q.5 1.8.6 4.4z" style="opacity:.1;fill:#020100"/></g></g></g><g id="&lt;Group&gt;"><path id="&lt;Path&gt;" class="s8" d="m366.8 182.4-2.1 18s2.5-.1 10.6-.5l1.9-6.6 3.8 6.3 51.4-4-7.9-14.1c-6.2-13.7-14-34.3-24.4-44.1-8.2-7.9-17.1-6.7-22.5-.5-1.4 1.6-14.6 23.8-15.8 32.6-1.1 7.9 5 12.9 5 12.9z"/><g id="&lt;Group&gt;" style="opacity:.1"><path id="&lt;Path&gt;" class="s3" d="M379.9 179.7c-2 0-4 .2-6 .8q-1.5.5-3 1.1-.8.3-1.5.6c-.5.2-1.1.3-1.6.3v.1c.5.1.9.2 1.4.1.5 0 1-.1 1.5-.2 1-.3 2-.7 3-1 2.1-.6 4.1-1.2 6.1-1.5.1-.1.2-.3.1-.3zM389.2 181.8c-2.5-.3-5.1-.4-7.7-.4q-1.9.1-3.8.3-.9.1-1.8.3c-.7.1-1.3.3-2 .4-.1 0-.1.1 0 .1h1.9q1-.1 1.9-.1 1.9-.1 3.8-.1 3.9-.2 7.7-.3c.1 0 .1-.2 0-.2z"/></g><g id="&lt;Group&gt;"><g id="&lt;Group&gt;"><path id="&lt;Path&gt;" class="s9" d="M381.2 142.2c-2.7 6.4-5.2 12.9-7.4 19.4-2.5 7.5-4.4 13.2 3.5 18.1l.1.1v6.8c-.1 2.2-.1 4.5-.2 6.7 0-2.2-.1-4.5-.2-6.7q-.1-3.4-.1-6.7l.1.2c-8.1-5-6.3-10.9-3.6-18.6 2.2-6.6 4.9-13 7.8-19.3z"/></g><g id="&lt;Group&gt;"><path id="&lt;Path&gt;" class="s9" d="M377.6 152.6c0 .4.4.8.8.8.5 0 .9-.4.9-.8 0-.5-.4-.9-.9-.9-.4 0-.8.4-.8.9zM375.4 162.1c0 .5.4.8.8.8.5 0 .9-.4.9-.8 0-.5-.4-.9-.9-.9-.4 0-.8.4-.8.9zM373.4 170.8c0 .5.4.8.9.8s.8-.4.8-.8c0-.5-.4-.9-.8-.9-.5 0-.9.4-.9.9zM378.8 178.6c0 .4.4.8.8.8.5 0 .9-.4.9-.8 0-.5-.4-.9-.9-.9-.4 0-.8.4-.8.9zM379.2 187.3c0 .4.4.8.8.8.5 0 .9-.4.9-.9 0-.4-.4-.8-.9-.8-.4 0-.8.4-.8.9z"/></g></g></g><g id="&lt;Group&gt;"><g id="&lt;Group&gt;"><g id="&lt;Group&gt;"><path id="&lt;Path&gt;" class="s13" d="M390.4 134.4c-.1 1.1-4.6 9.1-9.8 9.5-1.7.1-2.8-9.1-2.8-9.1l-.2-.6-3.3-9.3 10.3-8.5 1.5-1.2s.7 2.6 1.6 5.8q.1.3.1.5.1.3.2.5.2.8.4 1.5.1.6.3 1.1.1.6.3 1.2c.9 4 1.5 8.1 1.4 8.6z"/><path id="&lt;Path&gt;" class="s9" d="M387.7 121c-1.8 8-7.5 11.8-10.1 13.2l-3.3-9.3 10.3-8.5 1.5-1.2s.7 2.6 1.6 5.8z"/></g><g id="&lt;Group&gt;"><path id="&lt;Path&gt;" class="s13" d="M361.1 107c-3.9 16.8 5.7 21 9.3 21.8 3.3.8 14.6 2.9 20.2-13.4s-1-23.4-8.4-25.6c-7.4-2.1-17.3.3-21.1 17.2z"/><g id="&lt;Group&gt;"><path id="&lt;Path&gt;" class="s9" d="M364 106.1c.4 0 .8 0 1.2-.1.4 0 .8 0 1.2-.3.2-.1.2-.5.1-.7-.3-.5-.9-.6-1.4-.6q-.9 0-1.5.6c-.5.4-.1 1.1.4 1.1zM375.5 107.5c-.4-.1-.8-.3-1.2-.4-.4-.2-.7-.3-1-.7-.2-.2-.1-.6.1-.7.5-.4 1-.3 1.5-.2.6.2 1 .5 1.3 1 .3.5-.2 1.1-.7 1z"/><g id="&lt;Group&gt;"><g id="&lt;Group&gt;"><path id="&lt;Path&gt;" class="s9" d="M366 109.3c0-.1-.1 0-.1.1-.1 1.1-.4 2.5-1.5 2.7 0 0-.1.1 0 .1 1.3 0 1.7-1.8 1.6-2.9z"/><path id="&lt;Path&gt;" class="s9" d="M365.2 107.9c-1.9-.4-2.5 3.4-.8 3.7 1.7.4 2.3-3.3.8-3.7z"/></g><path id="&lt;Path&gt;" class="s9" d="M364.3 108c-.3.2-.6.5-1 .5-.4-.1-.6-.5-.8-1q-.1 0-.1.1c-.1.7 0 1.5.6 1.7.6.2 1.2-.3 1.5-1 0-.1 0-.3-.2-.3z"/></g><path id="&lt;Path&gt;" class="s9" d="M371.1 120.2c-.3.2-.6.6-1.1.6-.4 0-.8-.2-1.2-.4h-.1c.3.5.9.8 1.5.8.5 0 .8-.5 1-.9 0-.1-.1-.1-.1-.1z"/><g id="&lt;Group&gt;"><path id="&lt;Path&gt;" class="s9" d="M366.9 115.3s-.5 1.6-.7 2.5c0 0 .2.1.5.2 1.4.4 3 .1 4-.9.1-.1 0-.2-.1-.1-1.2.6-2.4.6-3.7.4 0-.2 1-2.8.8-2.9-.4-.1-1.3.1-1.9.2 1-3.6 2.5-7 3.4-10.5 0-.2-.2-.2-.2-.1-1.9 3.4-3 7.5-4.1 11.1-.2.5 1.6.1 2 .1z"/></g><g id="&lt;Group&gt;"><path id="&lt;Path&gt;" class="s9" d="M366.8 117.7s.6 1.2 1.6 1.8c.3.3.8.4 1.2.4 1-.1 1.2-.9 1.2-1.7 0-.6-.2-1.2-.2-1.2s-1.6 1-3.8.7z"/><path id="&lt;Path&gt;" d="M368.4 119.5c.3.3.8.4 1.2.4 1-.1 1.2-.9 1.2-1.7-1-.1-2.1.4-2.4 1.3z" style="fill:#ff9abb"/></g><g id="&lt;Group&gt;"><path id="&lt;Path&gt;" class="s9" d="M376.1 110.8c-.3-.2-.7-.3-1-.4h-1q-.5.1-1 .3-.5.3-.9.8l-.3.6h.7c.4 0 .9 0 1.4.1.5.1.9.3 1.3.6-.2-.5-.6-.9-1.1-1.1q-.8-.3-1.7-.4l.3.6q.5-.7 1.4-.9.9-.2 1.9-.2z"/><path id="&lt;Path&gt;" class="s9" d="M373.9 113.3c-.5-.2-1-.4-1.4-.7-.1-.1-.5-.4-.5-.5.1-.2.2-.5.3-.7-.1.2-.3.4-.4.6 0 .3.1.6.4.8.5.3 1.1.4 1.6.5z"/></g></g><g id="&lt;Group&gt;"><path id="&lt;Path&gt;" class="s9" d="M390.5 116.3c-3.7-2.1-3.5-6.1-3.5-6.1-4.6-2.4-6.9-6.3-7.1-6.6.1.3.7 3 1.1 4.3-10.8-2.9-13.5-11.6-13.5-11.6-3.9 3.3-4.8 5.5-5.4 6.6 0 0 .5-6.7 4.3-10.9 4.6-5.2 10.3-3.7 10.3-3.7s8.7-1.9 14.8 5.8c6.5 8.3-1 22.2-1 22.2z"/><path id="&lt;Path&gt;" class="s9" d="M372.8 105.4c1.7 1.1 3.5 2 5.4 2.5h.1c-3.1-1.1-5.7-3-7.7-5.5q-1.3-1.6-2.1-3.5c-.6-1.3-1.1-2.8-1.1-4.3 0-.1-.2-.1-.2 0 0 1.6 0 3 .5 4.4.5 1.4 1.2 2.7 2.2 3.8q1.2 1.5 2.9 2.6z"/></g><g id="&lt;Group&gt;"><path id="&lt;Compound Path&gt;" class="s16" d="M372.8 117.2c-2.8-1.1-4.2-4.2-3.2-7 1.1-2.9 4.2-4.3 7.1-3.2 2.8 1 4.2 4.2 3.2 7-.9 2.4-3.3 3.8-5.7 3.5q-.7-.1-1.4-.3zm-2.5-6.8c-.9 2.5.4 5.2 2.8 6.1 2.4.9 5.2-.3 6.1-2.8.9-2.4-.4-5.1-2.8-6.1q-.6-.2-1.1-.2c-2.1-.3-4.2 1-5 3zM361.9 114.6c-2.2-.4-3.6-3.1-3.1-6q.5-2.3 1.8-3.6c1-.9 2.1-1.3 3.2-1.1 1.1.2 2 .9 2.6 2.1.5 1.2.7 2.6.4 4-.5 2.8-2.5 4.8-4.6 4.7q-.1 0-.3-.1zm-.8-9.1c-.8.8-1.3 1.9-1.5 3.2-.5 2.5.6 4.9 2.4 5.2 1.8.3 3.7-1.5 4.1-4 .2-1.3.1-2.6-.4-3.6-.5-.9-1.2-1.5-2-1.7h-.3c-.8-.1-1.6.3-2.3.9z"/><path id="&lt;Path&gt;" class="s16" d="m369.7 110.8.6-.4c-.7-.9-2.4-2.2-4-1.1l.4.6c1.5-1 2.9.8 3 .9zM393.1 117.6l.7-.2c-.1-.3-.9-3.2-2.4-3.8-1.5-.6-11.2-1.9-11.6-1.9l-.1.7c2.8.3 10.3 1.4 11.4 1.8 1 .5 1.7 2.6 2 3.4z"/></g><g id="&lt;Group&gt;"><g id="&lt;Group&gt;"><path id="&lt;Path&gt;" class="s13" d="M387.7 116.1s4.4-4.8 6.7-3.2c2.2 1.7-1.7 9.1-4.7 9.7-3 .7-3.6-2.1-3.6-2.1z"/><path id="&lt;Path&gt;" class="s9" d="M393.2 115c.1 0 .1.1 0 .1-2.1.5-3.4 2.2-4.4 4 .7-.6 1.6-.9 2.4-.1.1.1 0 .2 0 .1-.8-.3-1.4-.2-2.1.4-.4.4-.8.9-1.1 1.4-.1.2-.5.1-.4-.1l.1-.1c.3-2.5 2.7-5.8 5.5-5.7z"/></g></g></g></g><g id="&lt;Group&gt;"><path id="&lt;Path&gt;" class="s4" d="m377.5 134.2 3.5 7.7 9.3-10.2 2.9 3.1s-8.9 16-9 15.3l-3.5-6.6-4.5 4.8v-11.8z"/><path id="&lt;Path&gt;" class="s9" d="M375.9 142.5c0-1.9 0-3.9.2-5.8 0-.1.1-.1.1-.1.5 1.9.2 9.3.3 11.1.2-.2 4.2-4.3 4.2-4.2.7 1 3.3 5.9 3.5 6.3 1.4-2.6 7.4-12.6 9.1-15.1.1 0 .2 0 .1.1-1.2 2.7-9 16-9.1 15.9-.1.1-3.2-5.8-3.6-7-.7.9-4.7 5.5-4.7 5.2-.2-1.9-.2-4.4-.1-6.4z"/></g></g><g id="&lt;Group&gt;"><g id="&lt;Group&gt;"><path id="&lt;Path&gt;" class="s13" d="M403.7 144c9.3 17.2 19.7 46.4 16.8 51.9-7.3 13.7-24.7 28-32.8 32.7-4.7 2.7-20.3-21.4-16.3-24 6.5-4.2 23.3-18.5 25.3-20.5 1.1-1-2.2-21.7-3-35.4-1-14.9 5.5-13.1 10-4.7z"/><g id="&lt;Group&gt;"><path id="&lt;Path&gt;" class="s13" d="M359.6 218.3c1-1.6.2-2.2-2.9-1-3.2 1.1-14.6 8.2-16.8 4-2.1-4.3 14.2-14 19.6-15.5 5.4-1.4 14.6-1.9 14.6-1.9-2.8 2.5-9 9.3-14.5 14.4z"/><g id="&lt;Group&gt;"><path id="&lt;Path&gt;" class="s7" d="m353.9 224.9 8.7-6.7-42.1-54.6-8.7 6.7z"/><path id="&lt;Path&gt;" class="s9" d="m369.2 249.3 13.1-10.1-27.2-35.4-13.2 10.1z"/><g id="&lt;Group&gt;"><g id="&lt;Group&gt;" style="opacity:.2"><path id="&lt;Path&gt;" class="s6" d="M263 170c-31.9-8.9-50.5-42-41.7-73.8 4.3-15.3 14.3-28.1 28.3-36 13.9-7.9 30-9.9 45.4-5.6 15.4 4.3 28.2 14.3 36.1 28.2 7.9 14 9.8 30.1 5.6 45.5-4.3 15.4-14.3 28.2-28.3 36.1-13.9 7.8-30.1 9.8-45.4 5.6z"/></g><path id="&lt;Compound Path&gt;" class="s1" d="M260.3 179.7c-37.2-10.3-59.1-49-48.7-86.2 10.3-37.1 49-59 86.1-48.6 37.2 10.3 59 48.9 48.7 86.1-10.3 37.2-49 59-86.1 48.7zm2.1-7.7c32.9 9.1 67.1-10.2 76.3-43.1 9.1-32.9-10.2-67.2-43.1-76.3-32.9-9.2-67.1 10.2-76.3 43.1-9.1 32.9 10.2 67.1 43.1 76.3z"/><path id="&lt;Compound Path&gt;" class="s1" d="M350.1 100.5c-1.4-8.2-4.2-16.2-8.4-23.7-9.5-16.7-24.9-28.8-43.4-34C260 32.2 220.2 54.7 209.6 93c-5.2 18.5-2.8 37.9 6.7 54.7 9.5 16.8 24.9 28.8 43.4 34 18.5 5.1 37.9 2.8 54.7-6.7 16.8-9.5 28.9-24.9 34-43.4 2.9-10.3 3.4-20.9 1.7-31.1zm-7.9 1.3c-1.2-7.3-3.7-14.4-7.5-21-8.4-14.9-22.1-25.6-38.6-30.2-16.4-4.6-33.7-2.5-48.6 5.9-14.9 8.5-25.6 22.2-30.2 38.6-4.6 16.5-2.4 33.8 6 48.7 4.2 7.4 9.7 13.8 16.2 18.9 6.6 5.2 14.1 9 22.3 11.3 34.1 9.4 69.4-10.6 78.9-44.6 2.5-9.1 3-18.5 1.5-27.6zm0 0c-1.2-7.3-3.7-14.4-7.5-21-8.4-14.9-22.1-25.6-38.6-30.2-16.4-4.6-33.7-2.5-48.6 5.9-14.9 8.5-25.6 22.2-30.2 38.6-4.6 16.5-2.4 33.8 6 48.7 4.2 7.4 9.7 13.8 16.2 18.9 6.6 5.2 14.1 9 22.3 11.3 34.1 9.4 69.4-10.6 78.9-44.6 2.5-9.1 3-18.5 1.5-27.6zm2.2 28.7c-4.8 17.4-16.2 31.9-32 40.9-15.8 8.9-34.1 11.1-51.6 6.3-17.4-4.9-32-16.2-40.9-32.1-4-7-6.6-14.5-7.9-22.2-1.6-9.7-1.1-19.6 1.6-29.3 10-36.1 47.5-57.3 83.6-47.2 26.2 7.2 44.6 29 48.8 54.3 1.6 9.4 1.2 19.4-1.6 29.3zm-9.7-49.7c-8.4-14.9-22.1-25.6-38.6-30.2-16.4-4.6-33.7-2.5-48.6 5.9-14.9 8.5-25.6 22.2-30.2 38.6-4.6 16.5-2.4 33.8 6 48.7 4.2 7.4 9.7 13.8 16.2 18.9 6.6 5.2 14.1 9 22.3 11.3 34.1 9.4 69.4-10.6 78.9-44.6 2.5-9.1 3-18.5 1.5-27.6-1.2-7.3-3.7-14.4-7.5-21zm2 47.5c-8.9 31.8-41.9 50.5-73.7 41.7-15.4-4.3-28.2-14.3-36.1-28.3-7.9-13.9-9.9-30.1-5.6-45.5 4.3-15.3 14.3-28.1 28.3-36 13.9-7.9 30.1-9.9 45.4-5.6 15.4 4.3 28.2 14.3 36.1 28.2 7.9 14 9.9 30.1 5.6 45.5zm0 0c-8.9 31.8-41.9 50.5-73.7 41.7-15.4-4.3-28.2-14.3-36.1-28.3-7.9-13.9-9.9-30.1-5.6-45.5 4.3-15.3 14.3-28.1 28.3-36 13.9-7.9 30.1-9.9 45.4-5.6 15.4 4.3 28.2 14.3 36.1 28.2 7.9 14 9.9 30.1 5.6 45.5zm0 0c-8.9 31.8-41.9 50.5-73.7 41.7-15.4-4.3-28.2-14.3-36.1-28.3-7.9-13.9-9.9-30.1-5.6-45.5 4.3-15.3 14.3-28.1 28.3-36 13.9-7.9 30.1-9.9 45.4-5.6 15.4 4.3 28.2 14.3 36.1 28.2 7.9 14 9.9 30.1 5.6 45.5z"/><path id="&lt;Path&gt;" class="s6" d="M234.7 134.3c-3.1-5.6-4.7-11.9-5.2-18.3-.3-3.3-.1-6.5.3-9.8.4-3.2 1.1-6.5 2.2-9.6 2.1-6.3 5.6-12.1 10.1-16.9 4.5-4.9 9.9-8.8 15.7-11.6-4.9 4.2-9.4 8.7-13.2 13.6-1.8 2.5-3.7 5-5.1 7.7-1.4 2.7-2.7 5.5-3.6 8.4-2.1 5.8-3 11.9-3.2 18-.1 6.1.6 12.3 2 18.5zM326 105.7c1.4 6.2 1.2 12.7 0 19-.6 3.2-1.7 6.3-2.9 9.4-1.3 3-2.9 5.9-4.8 8.6-3.8 5.5-8.7 10.1-14.4 13.5-5.6 3.4-11.9 5.8-18.2 6.9 5.8-2.8 11.4-5.8 16.4-9.5 2.5-1.9 4.9-3.8 7-6.1 2.1-2.2 4.1-4.5 5.8-7 3.5-5 6.1-10.6 7.9-16.5 1.8-5.9 2.9-12 3.2-18.3z"/></g></g><g id="&lt;Group&gt;"><path id="&lt;Path&gt;" class="s13" d="M390.4 226.4c-8.2 6.8-17.9 15.9-29.7 17.9-2.3.4-3.9-.5-3.9-.5-5.3 1-7.3-1.2-7.3-1.2-5.2-.6-7-3.2-7-3.2s-6.2 1.1-7.5-2.5c-1.5-4.1 7.5-4.8 12.2-8.3 10.8-7.9 24-22.1 26.9-24.7z"/><g id="&lt;Group&gt;"><path id="&lt;Path&gt;" class="s9" d="M364.4 228.3c-3.3 2.2-6.4 4.5-9.9 6.4-3.8 1.9-7.9 3.2-11.9 4.6-.2.1-.1.2 0 .2 7.8-1.3 16.1-5.7 21.9-11.1.1-.1 0-.2-.1-.1zM370.1 234.1c-3.3 2-9 5.6-20.6 8.3-.1 0-.1.1 0 .1 7.8-.8 14.5-3.6 20.7-8.2.2-.2.1-.3-.1-.2zM373.1 237.3c-5.7 3.2-9.7 4.5-16.2 6.4-.1 0-.1.1 0 .1 7.7-1.4 10.3-2.7 16.3-6.3.2-.2.1-.3-.1-.2z"/></g></g></g></g><g id="&lt;Group&gt;"><path id="&lt;Path&gt;" class="s2" d="M393.9 229.9 373.2 201l22.2-17.3c-1.4-11.2-4.1-33.6-3.9-41.5.3-9.2 6.8-9.7 11.8-1.7 11.4 18.3 22.5 51.5 21.6 56.8-1.2 7.6-31 32.6-31 32.6z"/><g id="&lt;Group&gt;"><path id="&lt;Path&gt;" class="s9" d="M396 223c-.9-2.1-6.1-9.6-7.4-11.5-1.3-1.8-6.9-9.2-8.3-11.1 0-.1-.2 0-.1.1 1.3 1.9 6.3 9.7 7.6 11.5 1.3 1.9 6.6 9.4 8.1 11 .1.1.2 0 .1 0z"/><g id="&lt;Group&gt;"><g id="&lt;Group&gt;"><path id="&lt;Path&gt;" class="s9" d="M405.6 219.6c6.5-6.4 13.6-12.6 18.4-20.5 1.3-2.2.4-4.7 0-7.1q-.6-2.4-1.3-4.8c-4.1-12.8-9.3-25.1-14.3-37.6 4.4 9.1 8.4 18.3 12 27.8 1.7 4.7 3.3 9.5 4.4 14.4.4 2.5 1.1 5.4-.3 7.6-4.9 7.9-12.2 14-18.9 20.2z"/></g><g id="&lt;Group&gt;"><path id="&lt;Path&gt;" class="s9" d="M410.6 154.5c-.4-1.1-.6-2.3-.9-3.4.6 1 .8 2.2.9 3.4z"/></g></g><g id="&lt;Group&gt;"><g id="&lt;Group&gt;"><path id="&lt;Path&gt;" class="s9" d="M392.6 156.9c1 7.6 2.2 16.3 3 23.9.1 1 .2 1.9.2 2.9.1.1-.1.4-.2.5-5.1 4.5-11.2 8.7-16.7 12.8l-5.6 4 .5.8-.6-.8v-.1l5.4-4.2c5.2-4.3 11.3-8.7 16.3-13.2v.2q0-.5-.1-1.1c-.7-8.4-2-17.2-2.2-25.7z"/></g><g id="&lt;Group&gt;"><path id="&lt;Path&gt;" class="s9" d="M391.9 158.5c.5 1.2.8 2.5 1.2 3.7-.7-1.1-1-2.4-1.2-3.7z"/></g></g></g></g></g><g id="&lt;Group&gt;"><path id="&lt;Path&gt;" class="s13" d="M341.2 200.6c.1-3.7-4.3-1.7-4.3-1.7s5.6-4.3 4.3-8.1c-1.3-3.7-6.5-1.2-6.9-1 .3-.2 5.3-4.3 3.6-8-1.8-3.8-6.6-.4-6.9-.2.2-.3 2.9-4.4 1-6.9-3.4-4.3-12.1 6.8-16.5 7.4l-5.8-5.8c.4 1.5.9 3 .2 6.2-.7 3-1.2 5-.7 6.8.7 3.1 3.6 3.2 3.6 3.2s-2.7 2.8-1.4 5.8c.7 1.5 3.7 1.8 3.7 1.8s-2 2.3-.7 4.9c1 2 3.9 2 3.9 2s-.9 3.2.9 4.9c3.4 3.5 21.7-3.5 22-11.3z"/><path id="&lt;Path&gt;" class="s13" d="m314 181-4.2-4.6-.6-.4c-6.7-4.1-16.3-.8-12.5 3.5 2.8 3.2 10.1 2.1 12.5 5.8z"/><g id="&lt;Group&gt;"><path id="&lt;Path&gt;" class="s9" d="M318.7 207.1s0 .1.1.1c6.5-.9 13.5-3.8 18.4-8.4.1-.1-.1-.5-.3-.3-5.9 3.7-11.4 6.6-18.2 8.6zM315 200.1c-.1.1 0 .2.1.2 6.7-.9 14.5-4.5 19.5-10.4.1-.2.1-.5-.1-.3-3.6 3.7-13.4 8.8-19.5 10.5zM331.2 181.1c-5 5.5-11.2 8.8-18.2 11.3 0 .1 0 .2.1.2 3.7-.3 8-2.4 11.1-4.2 3.1-1.8 5.4-4.1 7.2-7.1.1-.1-.1-.3-.2-.2z"/></g></g></g></g></g><g id="Speech Bubble"><g id="&lt;Group&gt;"><g id="&lt;Group&gt;"><g id="&lt;Group&gt;"><path id="&lt;Path&gt;" class="s6" d="M447.3 72.4c0 12.6-10.3 22.9-23 22.9-5.1 0-9.8-1.7-13.7-4.5l-11.2 2.9 4.7-10.5c-1.8-3.2-2.7-6.9-2.7-10.8 0-12.7 10.2-23 22.9-23s23 10.3 23 23z"/><path id="&lt;Compound Path&gt;" class="s9" d="M447.3 72.4c.1 13.2-11.8 24.2-25 23.1-4.2-.3-8.4-1.9-11.9-4.4h.3l-11.2 3-.9.2.4-.8 4.6-10.5v.4c-5.3-9.4-2.7-22.1 5.7-28.9 15.1-12.4 38-1.7 38 17.9zm0 0c0-14.7-14.3-25.9-28.5-22-14 3.5-21.2 19.9-14.3 32.6l.1.2-.1.2-4.7 10.5-.5-.7 11.2-2.7.2-.1.1.1c3.4 2.5 7.4 4.1 11.6 4.5 13.2 1.4 24.9-9.4 24.9-22.6z"/></g></g><path id="&lt;Path&gt;" class="s10" d="m420.6 86-10.3-10.4 3.5-3.4 6 6.1 12.5-19.6 4.1 2.6z"/></g></g></svg>