<svg version="1.2" xmlns="http://www.w3.org/2000/svg" viewBox="0 0 500 500" width="500" height="500">
	<title>monitoring-svg</title>
	<style>
		.s0 { fill: #455a64 } 
		.s1 { fill: #37474f } 
		.s2 { fill: #54afe7 } 
		.s3 { fill: #020100 } 
		.s4 { fill: #ebebeb } 
		.s5 { fill: #dbdbdb } 
		.s6 { fill: #ffffff } 
		.s7 { fill: #c7c7c7 } 
		.s8 { fill: #d0e4fc } 
		.s9 { fill: #263238 } 
		.s10 { fill: #0094ef } 
		.s11 { fill: #9aceee } 
		.s12 { fill: #a6a6a6 } 
		.s13 { fill: #eb9481 } 
		.s14 { opacity: .1;fill: #020100 } 
		.s15 { fill: #ff9abb } 
		.s16 { fill: #ffc727 } 
	</style>
	<g id="Trees">
		<g id="&lt;Group&gt;">
			<g id="&lt;Group&gt;">
				<path id="&lt;Path&gt;" class="s0" d="m257 462.4c-0.7 0.7-9 1-12 1-3 0-11.3-0.3-12-1-0.7-0.7 9.3-55.8 12-55.8 2.7 0 12.7 55.1 12 55.8z"/>
				<path id="&lt;Path&gt;" class="s1" d="m257.2 448.4c-2.1 0.7-9.6 3.8-11.3 4.7q0-0.5 0-1 2.8-1.6 5.5-3.2c2-1.2 4.1-2.2 5.9-3.5 0.1-0.1 0.1-0.3 0-0.2-2.1 0.8-4 2.1-5.8 3.2q-2.8 1.6-5.6 3.3 0-3.9 0-7.9c2.9-1.2 5.9-2.8 8.6-4.4 0.1-0.1 0.1-0.2-0.1-0.2-2.8 1.2-5.8 2.6-8.5 4.2q0-2-0.1-4.1c0-7.1 0-14.1-0.2-21.2 1.8-0.9 3.6-1.7 5.4-2.6 0.1-0.1 0.1-0.3-0.1-0.2-1.8 0.7-3.6 1.5-5.3 2.3q-0.2-5.5-0.5-10.9c0-0.2-0.2-0.2-0.2 0-0.2 6.7-0.2 13.5-0.1 20.3-1.9-1.5-3.9-2.8-5.8-4.2-0.1-0.1-0.1 0-0.1 0.1 2 1.5 3.9 3.2 5.9 4.7q0 0.5 0 1.1c-2-0.9-4.1-1.8-6.1-2.6-0.2-0.1-0.3 0.1-0.2 0.2 2.1 1 4.2 2 6.3 2.9q0.1 5.1 0.1 10.1 0.2 8.8 0.4 17.6-5.8-2.9-11.6-5.6c-0.1-0.1-0.2 0.1-0.1 0.2 3.8 2.2 7.7 4.1 11.7 5.9q0.1 7.3 0.2 14.6c0.1 0.3 0.5 0.3 0.5 0-0.1-6.2-0.1-12.5-0.1-18.7 2-0.5 9.6-3.7 11.4-4.6 0.2-0.1 0.1-0.4-0.1-0.3z"/>
			</g>
			<g id="&lt;Group&gt;">
				<path id="&lt;Path&gt;" class="s0" d="m190.8 463.8c-0.6 0.6-7.7 0.9-10.3 0.9-2.6 0-9.7-0.3-10.3-0.9-0.6-0.6 8-47.9 10.3-47.9 2.3 0 10.9 47.3 10.3 47.9z"/>
				<path id="&lt;Path&gt;" class="s1" d="m191 451.7c-1.8 0.7-8.3 3.4-9.7 4.1q0-0.4 0-0.9 2.3-1.3 4.7-2.7c1.7-1 3.5-1.9 5.1-3 0.1-0.1 0-0.2-0.1-0.2-1.7 0.7-3.3 1.8-5 2.7q-2.4 1.5-4.7 2.9 0-3.4-0.1-6.8c2.6-1 5.1-2.4 7.5-3.7 0-0.1 0-0.2-0.1-0.2-2.5 1-5.1 2.2-7.4 3.6q0-1.7 0-3.5c0-6.1-0.1-12.2-0.2-18.2 1.5-0.8 3.1-1.5 4.7-2.3 0.1 0 0-0.2-0.1-0.2-1.6 0.6-3.1 1.4-4.6 2q-0.1-4.6-0.4-9.3c0-0.1-0.2-0.1-0.2 0-0.2 5.8-0.2 11.6-0.1 17.4-1.6-1.3-3.3-2.4-4.9-3.6-0.1-0.1-0.2 0-0.1 0.1 1.7 1.3 3.3 2.7 5 4q0 0.5 0 1c-1.7-0.8-3.5-1.6-5.2-2.3-0.2-0.1-0.3 0.1-0.2 0.2 1.8 0.9 3.6 1.7 5.4 2.5q0.1 4.4 0.1 8.7 0.2 7.5 0.3 15.1-4.9-2.5-9.9-4.9c-0.1 0-0.2 0.2-0.1 0.2q4.9 2.8 10 5.1 0.2 6.2 0.3 12.5c0 0.3 0.4 0.3 0.4 0q-0.1-8-0.1-16c1.7-0.4 8.2-3.2 9.8-4 0.1-0.1 0-0.3-0.1-0.3z"/>
			</g>
			<g id="&lt;Group&gt;">
				<path id="&lt;Path&gt;" class="s1" d="m395.1 465.1c0.5 0.5 6.5 0.8 8.7 0.8 2.1 0 8.1-0.3 8.6-0.8 0.6-0.5-6.7-40.3-8.6-40.3-2 0-9.2 39.8-8.7 40.3z"/>
				<path id="&lt;Path&gt;" class="s0" d="m394.9 455c1.5 0.5 7 2.8 8.2 3.4q0-0.4 0-0.7-2-1.2-4-2.4c-1.4-0.8-2.9-1.5-4.3-2.5 0 0 0-0.2 0.1-0.1 1.5 0.6 2.8 1.5 4.2 2.3q2 1.2 4 2.4 0-2.9 0-5.7c-2.1-0.9-4.3-2-6.2-3.2-0.1 0 0-0.2 0-0.1 2.1 0.8 4.3 1.8 6.2 3q0-1.5 0-3c0.1-5.1 0.1-10.2 0.2-15.3-1.3-0.7-2.6-1.2-3.9-1.9-0.1 0 0-0.2 0.1-0.1 1.3 0.5 2.6 1.1 3.9 1.6q0.1-3.9 0.3-7.9h0.1c0.2 4.9 0.2 9.8 0.1 14.7q2.1-1.5 4.2-3c0-0.1 0.1 0 0 0.1-1.4 1-2.7 2.3-4.2 3.3q0 0.5 0 0.9 2.2-1 4.4-2c0.1 0 0.2 0.2 0.1 0.2-1.5 0.7-3 1.5-4.5 2.2q0 3.6-0.1 7.2-0.1 6.4-0.2 12.7 4.1-2 8.3-4c0.1-0.1 0.2 0.1 0.1 0.1q-4.1 2.4-8.4 4.3-0.2 5.3-0.2 10.5c0 0.2-0.4 0.2-0.4 0q0.1-6.7 0.1-13.4c-1.5-0.4-6.9-2.7-8.3-3.4-0.1-0.1 0-0.3 0.1-0.2z"/>
			</g>
			<g id="&lt;Group&gt;">
				<path id="&lt;Path&gt;" class="s1" d="m188.1 465.1c0.5 0.5 6.5 0.8 8.7 0.8 2.2 0 8.2-0.3 8.7-0.8 0.5-0.5-6.7-40.3-8.7-40.3-1.9 0-9.2 39.8-8.7 40.3z"/>
				<path id="&lt;Path&gt;" class="s0" d="m188 455c1.5 0.5 7 2.8 8.2 3.4q0-0.4 0-0.7-2-1.2-4-2.4c-1.4-0.8-3-1.5-4.3-2.5-0.1 0 0-0.2 0.1-0.1 1.4 0.6 2.8 1.5 4.2 2.3q2 1.2 4 2.4 0-2.9 0-5.7c-2.1-0.9-4.3-2-6.3-3.2 0 0 0-0.2 0.1-0.1 2.1 0.8 4.2 1.8 6.2 3q0-1.5 0-3c0.1-5.1 0.1-10.2 0.2-15.3-1.3-0.7-2.6-1.2-3.9-1.9-0.1 0-0.1-0.2 0-0.1 1.4 0.5 2.6 1.1 3.9 1.6q0.1-3.9 0.3-7.9c0.1 0 0.2 0 0.2 0 0.2 4.9 0.2 9.8 0.1 14.7 1.3-1 2.8-2 4.1-3 0.1-0.1 0.1 0 0.1 0.1-1.4 1-2.8 2.3-4.2 3.3q0 0.5 0 0.9 2.2-1 4.4-2c0.1 0 0.2 0.2 0.1 0.2-1.5 0.7-3 1.5-4.5 2.2q-0.1 3.6-0.1 7.2-0.1 6.4-0.3 12.7 4.2-2 8.4-4c0.1-0.1 0.2 0.1 0 0.1q-4.1 2.4-8.4 4.3-0.1 5.3-0.2 10.5c0 0.2-0.3 0.2-0.3 0q0.1-6.7 0.1-13.4c-1.5-0.4-7-2.7-8.3-3.4-0.1-0.1 0-0.3 0.1-0.2z"/>
			</g>
			<g id="&lt;Group&gt;">
				<path id="&lt;Path&gt;" class="s1" d="m325.6 463.2c-0.6 0.6-8.3 0.9-11.1 0.9-2.7 0-10.4-0.3-11-0.9-0.7-0.7 8.6-51.6 11-51.6 2.5 0 11.8 50.9 11.1 51.6z"/>
				<path id="&lt;Path&gt;" class="s0" d="m325.8 450.2c-1.9 0.7-8.9 3.6-10.4 4.4q0-0.5 0-1 2.5-1.4 5.1-2.9c1.8-1.1 3.7-2 5.4-3.3 0.1 0 0.1-0.2-0.1-0.2-1.8 0.8-3.6 2-5.3 3q-2.6 1.5-5.1 3.1 0-3.7-0.1-7.3c2.8-1.1 5.5-2.6 8-4.1 0.1 0 0.1-0.2 0-0.1-2.7 1.1-5.5 2.4-8 3.9q0-1.9 0-3.8c-0.1-6.6-0.1-13.1-0.2-19.6 1.6-0.9 3.3-1.6 5-2.4 0.1-0.1 0-0.3-0.1-0.2-1.7 0.6-3.3 1.4-4.9 2.1q-0.2-5-0.5-10.1c0-0.1-0.1-0.1-0.1 0-0.3 6.3-0.3 12.5-0.2 18.8-1.7-1.4-3.5-2.6-5.3-3.9-0.1-0.1-0.1 0-0.1 0.1 1.9 1.4 3.6 2.9 5.4 4.3q0 0.5 0 1.1c-1.8-0.9-3.7-1.7-5.6-2.5-0.2 0-0.3 0.2-0.1 0.2 1.9 1 3.8 1.9 5.7 2.8q0.1 4.6 0.2 9.3 0.1 8.1 0.3 16.2-5.3-2.7-10.7-5.2c-0.1-0.1-0.2 0.1-0.1 0.2q5.3 3 10.8 5.4 0.1 6.7 0.2 13.5c0 0.3 0.5 0.3 0.5 0q-0.1-8.6-0.1-17.2c1.8-0.5 8.9-3.5 10.5-4.3 0.2-0.1 0.1-0.4-0.1-0.3z"/>
			</g>
			<g id="&lt;Group&gt;">
				<path id="&lt;Path&gt;" class="s0" d="m315.6 465.9c0.4 0.4 5.8 0.6 7.7 0.6 1.9 0 7.3-0.2 7.8-0.6 0.4-0.5-6.1-36-7.8-36-1.7 0-8.2 35.5-7.7 36z"/>
				<path id="&lt;Path&gt;" class="s1" d="m315.4 456.8c1.4 0.5 6.3 2.5 7.3 3.1q0-0.3 0-0.7-1.8-1-3.5-2c-1.3-0.8-2.7-1.4-3.9-2.3 0-0.1 0-0.2 0.1-0.1 1.3 0.5 2.5 1.3 3.7 2q1.8 1.1 3.6 2.2 0-2.6 0-5.1c-1.9-0.8-3.8-1.8-5.5-2.9-0.1 0-0.1-0.1 0-0.1 1.9 0.8 3.8 1.7 5.5 2.7q0-1.3 0.1-2.6c0-4.6 0-9.1 0.1-13.7-1.1-0.6-2.3-1.1-3.5-1.7-0.1 0 0-0.2 0.1-0.1 1.2 0.4 2.3 1 3.4 1.5q0.1-3.5 0.3-7.1h0.2c0.1 4.4 0.1 8.8 0.1 13.1 1.2-0.9 2.4-1.8 3.7-2.7 0 0 0.1 0.1 0 0.1-1.3 1-2.5 2-3.7 3q-0.1 0.4-0.1 0.7 2-0.8 4-1.7c0.1 0 0.2 0.1 0.1 0.2-1.4 0.6-2.7 1.3-4.1 1.9q0 3.2-0.1 6.5 0 5.7-0.2 11.3 3.7-1.8 7.5-3.6c0.1 0 0.1 0.1 0 0.1q-3.6 2.1-7.5 3.8-0.1 4.7-0.1 9.5c-0.1 0.1-0.3 0.1-0.3 0q0-6.1 0-12.1c-1.3-0.3-6.2-2.4-7.3-3-0.2 0-0.1-0.2 0-0.2z"/>
			</g>
		</g>
	</g>
	<g id="Clipboard">
		<g id="&lt;Group&gt;">
			<g id="&lt;Group&gt;">
				<g id="&lt;Group&gt;">
					<g id="&lt;Group&gt;">
						<path id="&lt;Path&gt;" class="s2" d="m283.1 382h-217.8v-289.3h217.8z"/>
					</g>
				</g>
				<g id="&lt;Group&gt;" style="opacity: .1">
					<g id="&lt;Group&gt;">
						<path id="&lt;Path&gt;" class="s3" d="m283.1 382h-217.8v-289.3h217.8z"/>
					</g>
				</g>
				<g id="&lt;Group&gt;">
					<path id="&lt;Path&gt;" class="s2" d="m289 382h-217.8v-289.3h217.8z"/>
				</g>
			</g>
			<g id="&lt;Group&gt;">
				<g id="&lt;Group&gt;">
					<path id="&lt;Path&gt;" class="s4" d="m277 364.8l-192.3 2.5-3.3-260.6 192.2-2.5z"/>
				</g>
				<g id="&lt;Group&gt;">
					<path id="&lt;Path&gt;" class="s5" d="m269.5 368.1l-192.2-4.1 5.6-260.6 192.2 4.1z"/>
				</g>
				<g id="&lt;Group&gt;">
					<g id="&lt;Group&gt;">
						<g id="&lt;Group&gt;">
							<path id="&lt;Path&gt;" class="s6" d="m272.3 366.1h-192.2v-260.7h192.2z"/>
							<path id="&lt;Compound Path&gt;" fill-rule="evenodd" class="s5" d="m272.3 366.1c-0.2 0-192.3 0.2-192.5 0.2 0-0.2-0.1-260.7-0.1-260.9v-0.4h0.4c0.2 0 192.3 0.1 192.5 0.1 0.3 0.2-0.4 260.8-0.3 261zm0 0l-0.2-260.7c1.8 0.6-192.5 0.3-192 0.4l0.3-0.4-0.1 260.7c-1.5-0.4 192.4 0 192 0z"/>
						</g>
					</g>
					<g id="&lt;Group&gt;">
						<g id="&lt;Group&gt;">
							<g id="&lt;Group&gt;">
								<path id="&lt;Path&gt;" class="s7" d="m104.5 151.7c25.3-0.7 50.9-0.7 76.2 0-25.3 0.6-50.9 0.6-76.2 0z"/>
							</g>
						</g>
						<g id="&lt;Group&gt;">
							<g id="&lt;Group&gt;">
								<path id="&lt;Path&gt;" class="s7" d="m104.5 162.8c25.3-0.7 50.9-0.7 76.2 0-25.3 0.7-50.9 0.7-76.2 0z"/>
							</g>
						</g>
						<g id="&lt;Group&gt;">
							<g id="&lt;Group&gt;">
								<path id="&lt;Path&gt;" class="s7" d="m104.5 173.9c25.3-0.7 50.9-0.7 76.2 0-25.3 0.7-50.9 0.7-76.2 0z"/>
							</g>
						</g>
						<g id="&lt;Group&gt;">
							<g id="&lt;Group&gt;">
								<path id="&lt;Path&gt;" class="s7" d="m104.5 185c25.3-0.6 50.9-0.6 76.2 0-25.3 0.7-50.9 0.7-76.2 0z"/>
							</g>
						</g>
						<g id="&lt;Group&gt;">
							<g id="&lt;Group&gt;">
								<path id="&lt;Path&gt;" class="s7" d="m104.5 196.2c25.3-0.7 50.9-0.7 76.2 0-25.3 0.7-50.9 0.7-76.2 0z"/>
							</g>
						</g>
						<g id="&lt;Group&gt;">
							<g id="&lt;Group&gt;">
								<path id="&lt;Path&gt;" class="s7" d="m104.5 207.3c25.3-0.7 50.9-0.7 76.2 0-25.3 0.7-50.9 0.7-76.2 0z"/>
							</g>
						</g>
						<g id="&lt;Group&gt;">
							<g id="&lt;Group&gt;">
								<path id="&lt;Path&gt;" class="s7" d="m104.5 218.4c46.3-0.6 97.8-0.6 144.2 0-46.4 0.7-97.9 0.7-144.2 0z"/>
							</g>
						</g>
						<g id="&lt;Group&gt;">
							<g id="&lt;Group&gt;">
								<path id="&lt;Path&gt;" class="s7" d="m104.5 229.6c46.3-0.7 97.8-0.7 144.2 0-46.4 0.6-97.9 0.6-144.2 0z"/>
							</g>
						</g>
						<g id="&lt;Group&gt;">
							<g id="&lt;Group&gt;">
								<path id="&lt;Path&gt;" class="s7" d="m104.5 240.7c46.3-0.6 97.8-0.6 144.2 0-46.4 0.7-97.9 0.7-144.2 0z"/>
							</g>
						</g>
						<g id="&lt;Group&gt;">
							<g id="&lt;Group&gt;">
								<path id="&lt;Path&gt;" class="s7" d="m104.5 263c46.3-0.7 97.8-0.7 144.2 0-46.4 0.6-97.9 0.6-144.2 0z"/>
							</g>
						</g>
						<g id="&lt;Group&gt;">
							<g id="&lt;Group&gt;">
								<path id="&lt;Path&gt;" class="s7" d="m104.5 274.1c46.3-0.7 97.8-0.6 144.2 0-46.4 0.7-97.9 0.7-144.2 0z"/>
							</g>
						</g>
						<g id="&lt;Group&gt;">
							<g id="&lt;Group&gt;">
								<path id="&lt;Path&gt;" class="s7" d="m104.5 285.2c29.2-0.6 61.7-0.6 90.9 0-29.2 0.7-61.7 0.7-90.9 0z"/>
							</g>
						</g>
						<g id="&lt;Group&gt;">
							<g id="&lt;Group&gt;">
								<path id="&lt;Path&gt;" class="s7" d="m131.1 318.7c29.2-0.6 61.7-0.6 91 0-29.3 0.7-61.8 0.7-91 0z"/>
							</g>
						</g>
						<g id="&lt;Group&gt;">
							<g id="&lt;Group&gt;">
								<path id="&lt;Path&gt;" class="s7" d="m104.5 340.9c46.3-0.7 97.8-0.6 144.2 0-46.4 0.7-97.9 0.7-144.2 0z"/>
							</g>
						</g>
						<g id="&lt;Group&gt;">
							<path id="&lt;Path&gt;" class="s7" d="m142.9 136.7c22.4-1.3 44.9-1.3 67.3 0-22.4 1.4-44.9 1.4-67.3 0z"/>
						</g>
					</g>
					<g id="&lt;Group&gt;">
						<path id="&lt;Path&gt;" class="s5" d="m188.9 154.5l38.2-0.1c12.7 0.1 9.3 0 22 0.1-12.7 0.1-9.3 0.1-22 0.1z"/>
						<path id="&lt;Path&gt;" class="s5" d="m188.9 157.7l38.2-0.1c12.7 0 9.3 0 22 0.1-12.7 0.1-9.3 0.1-22 0.1z"/>
						<path id="&lt;Path&gt;" class="s5" d="m188.9 160.9l38.2-0.1c12.7 0 9.3 0 22 0.1-12.7 0.1-9.3 0.1-22 0.1z"/>
						<path id="&lt;Path&gt;" class="s5" d="m188.9 164.1l38.2-0.1c12.7 0 9.3 0 22 0.1-12.7 0.1-9.3 0.1-22 0.1z"/>
						<path id="&lt;Path&gt;" class="s5" d="m188.9 167.3l38.2-0.1c12.7 0 9.3 0 22 0.1-12.7 0.1-9.3 0-22 0.1z"/>
						<path id="&lt;Path&gt;" class="s5" d="m188.9 170.5l38.2-0.1c12.7 0 9.3 0 22 0.1-12.7 0.1-9.3 0-22 0.1z"/>
						<path id="&lt;Path&gt;" class="s5" d="m188.9 173.7l38.2-0.2c12.7 0.1 9.3 0.1 22 0.2-12.7 0-9.3 0-22 0.1z"/>
						<path id="&lt;Path&gt;" class="s5" d="m188.9 176.8l38.2-0.1c12.7 0.1 9.3 0.1 22 0.1-12.7 0.1-9.3 0.1-22 0.1z"/>
						<path id="&lt;Path&gt;" class="s5" d="m188.9 180l38.2-0.1c12.7 0.1 9.3 0 22 0.1-12.7 0.1-9.3 0.1-22 0.1z"/>
						<path id="&lt;Path&gt;" class="s5" d="m188.9 183.2l38.2-0.1c12.7 0.1 9.3 0 22 0.1-12.7 0.1-9.3 0.1-22 0.1z"/>
						<path id="&lt;Path&gt;" class="s5" d="m188.9 186.4l38.2-0.1c12.7 0 9.3 0 22 0.1-12.7 0.1-9.3 0.1-22 0.1z"/>
						<path id="&lt;Path&gt;" class="s5" d="m188.9 189.6l38.2-0.1c12.7 0 9.3 0 22 0.1-12.7 0.1-9.3 0.1-22 0.1z"/>
						<path id="&lt;Path&gt;" class="s5" d="m188.9 192.8l38.2-0.1c12.7 0 9.3 0 22 0.1-12.7 0.1-9.3 0.1-22 0.1z"/>
						<path id="&lt;Path&gt;" class="s5" d="m188.9 196l38.2-0.1c12.7 0 9.3 0 22 0.1-12.7 0.1-9.3 0-22 0.1z"/>
						<path id="&lt;Path&gt;" class="s5" d="m188.9 199.2l38.2-0.1c12.7 0 9.3 0 22 0.1-12.7 0.1-9.3 0-22 0.1z"/>
						<path id="&lt;Path&gt;" fill-rule="evenodd" class="s8" d="m202.8 176.8v26.1h-5.8v-26.1z"/>
						<path id="&lt;Path&gt;" class="s9" d="m213.5 165.8h-5.8v37.1h5.8z"/>
						<path id="&lt;Path&gt;" class="s5" d="m224.2 173.8h-5.7v29.1h5.7z"/>
						<path id="&lt;Path&gt;" class="s10" d="m235 164.1h-5.8v38.8h5.8z"/>
						<path id="&lt;Path&gt;" class="s9" d="m245.7 169.3h-5.8v33.6h5.8z"/>
						<path id="&lt;Path&gt;" class="s5" d="m191 152.3l0.1 12.6 0.1 12.7q0.2 12.6 0.2 25.3l-0.4-0.4h18.5 18.6l18.6 0.1 2.4 0.3-2.4 0.2-18.6 0.1-18.6 0.1h-18.5-0.4v-0.4q0-12.7 0.1-25.3l0.1-12.7z"/>
						<path id="&lt;Path&gt;" class="s5" d="m202.8 206.1h-5.8v-0.5h5.8z"/>
						<path id="&lt;Path&gt;" class="s5" d="m213.5 206.1h-5.8v-0.5h5.8z"/>
						<path id="&lt;Path&gt;" class="s5" d="m224.2 206.1h-5.7v-0.5h5.7z"/>
						<path id="&lt;Path&gt;" class="s5" d="m235 206.1h-5.8v-0.5h5.8z"/>
						<path id="&lt;Path&gt;" class="s5" d="m245.7 206.1h-5.8v-0.5h5.8z"/>
					</g>
					<g id="&lt;Group&gt;">
						<g id="&lt;Group&gt;">
							<g id="&lt;Group&gt;">
								<path id="&lt;Path&gt;" class="s0" d="m234.6 343.6l4.6-7.2 8.5 0.9-14-28.8-13 6.3z"/>
								<path id="&lt;Path&gt;" class="s1" d="m227.6 329.1l-6.9-14.3 13-6.3z"/>
								<g id="&lt;Group&gt;">
									<path id="&lt;Path&gt;" class="s6" d="m232 309.3l13.5 27.8h0.3l-13.5-27.9z"/>
									<path id="&lt;Path&gt;" class="s6" d="m222.1 314.1l13.5 27.9 0.2-0.3-13.5-27.7z"/>
								</g>
							</g>
							<g id="&lt;Group&gt;">
								<path id="&lt;Path&gt;" class="s0" d="m208.5 343.1l7.8-3.4 6.6 5.4 5-35.8-14.4-2z"/>
								<g id="&lt;Group&gt;">
									<path id="&lt;Path&gt;" class="s6" d="m226 309l-4.8 34.7 0.2 0.2 4.9-34.9z"/>
									<path id="&lt;Path&gt;" class="s6" d="m215.1 307.5l-4.8 34.8 0.2-0.1 4.9-34.7z"/>
								</g>
							</g>
						</g>
						<g id="&lt;Group&gt;">
							<path id="&lt;Path&gt;" class="s10" d="m221.7 280.9c0.5 0.9 1.8 0.8 2.3-0.1 0.5-1 2-0.9 2.3 0.2 0.3 1 1.6 1.2 2.3 0.4 0.7-0.9 2.1-0.4 2.2 0.7 0.1 1 1.3 1.5 2.1 0.9 0.9-0.7 2.2 0 2.1 1.1-0.1 1 0.9 1.8 1.9 1.3 1-0.5 2.1 0.5 1.8 1.6-0.4 0.9 0.5 1.9 1.5 1.6 1.1-0.3 2 0.9 1.4 1.9-0.5 0.9 0.2 2 1.2 1.9 1.2 0 1.8 1.3 1 2.2-0.7 0.7-0.2 2 0.8 2.1 1.1 0.2 1.5 1.7 0.5 2.3-0.8 0.6-0.7 1.9 0.3 2.3 1.1 0.4 1.1 1.9 0.1 2.3-1 0.4-1.1 1.7-0.2 2.3 0.9 0.6 0.7 2.1-0.5 2.3-1 0.2-1.4 1.5-0.6 2.2 0.8 0.8 0.2 2.2-0.9 2.2-1.1-0.1-1.7 1.1-1.1 1.9 0.6 1-0.3 2.2-1.4 2-1-0.2-1.8 0.7-1.5 1.7 0.5 1.1-0.6 2.1-1.7 1.6-0.9-0.4-1.9 0.4-1.8 1.4 0.2 1.1-1.1 1.9-2 1.2-0.8-0.6-2 0-2 1-0.1 1.1-1.5 1.6-2.3 0.8-0.7-0.8-1.9-0.5-2.2 0.5-0.3 1.1-1.8 1.3-2.3 0.3-0.5-0.9-1.8-0.9-2.3 0-0.5 1.1-2 1-2.4-0.2-0.3-0.9-1.5-1.2-2.2-0.4-0.7 0.9-2.2 0.5-2.3-0.7 0-1-1.2-1.5-2-0.8-0.9 0.7-2.3 0-2.1-1.2 0.1-1-1-1.7-1.9-1.3-1 0.6-2.1-0.4-1.8-1.5 0.4-1-0.5-1.9-1.5-1.6-1.1 0.3-2.1-0.9-1.5-1.9 0.6-0.9-0.1-2-1.1-2-1.2 0.1-1.8-1.3-1-2.1 0.7-0.8 0.2-2-0.8-2.1-1.1-0.2-1.5-1.7-0.5-2.4 0.8-0.5 0.6-1.8-0.3-2.2-1.1-0.4-1.1-1.9-0.1-2.4 1-0.4 1.1-1.7 0.2-2.2-1-0.6-0.7-2.1 0.5-2.3 1-0.2 1.3-1.5 0.6-2.2-0.8-0.8-0.2-2.2 0.9-2.2 1 0 1.7-1.1 1.1-2-0.6-0.9 0.2-2.2 1.4-1.9 1 0.2 1.8-0.8 1.4-1.7-0.4-1.1 0.7-2.2 1.8-1.7 0.9 0.5 1.9-0.3 1.8-1.3-0.2-1.2 1.1-2 2-1.3 0.8 0.6 2 0.1 2-0.9 0.1-1.2 1.5-1.7 2.3-0.8 0.6 0.8 1.9 0.5 2.2-0.5 0.3-1.1 1.8-1.3 2.3-0.3z"/>
							<path id="&lt;Path&gt;" fill-rule="evenodd" class="s6" d="m243 300.4c1.4 10.9-6.3 20.8-17.2 22.2-10.8 1.3-20.7-6.3-22.1-17.2-1.4-10.8 6.3-20.7 17.1-22.1 10.9-1.4 20.8 6.3 22.2 17.1z"/>
							<path id="&lt;Compound Path&gt;" class="s11" d="m225.7 321.2c-10.1 1.3-19.3-5.9-20.6-15.9-1.3-10.1 5.8-19.3 15.9-20.6 10.1-1.3 19.3 5.8 20.6 15.9 1.3 10.1-5.9 19.3-15.9 20.6zm-4.6-36.1c-9.9 1.3-16.8 10.3-15.6 20.1 1.3 9.8 10.3 16.8 20.1 15.5 9.8-1.2 16.8-10.2 15.5-20-1.2-9.9-10.2-16.8-20-15.6z"/>
						</g>
						<g id="&lt;Group&gt;">
							<path id="&lt;Path&gt;" class="s1" d="m236.7 288.1c0 0 2-5-2.5-8.5-2-1.5-5.2-2.6-7.2-3.7-2.7-1.5-5.2-3.8-5.2-3.8 0 0-1.5 16.9 14 17.2l-7.9-8.8z"/>
							<g id="&lt;Group&gt;">
								<path id="&lt;Path&gt;" class="s0" d="m214.3 298.2c3.2 3.3 6 7 8.7 10.7l-2.7-0.3c6-7.6 12.4-14.8 19.3-21.5 2.4-2.2 4.8-4.4 7.3-6.4-6.7 11-15.1 20.9-24.1 30.1l-1.6 1.7c-2.6-4.6-5-9.4-6.9-14.3z"/>
							</g>
							<path id="&lt;Path&gt;" class="s0" d="m236.6 287.8c0 0-2.7-6.8 3.4-11.5 2.7-2 7.1-3.6 9.8-5.1 3.6-1.9 7.1-5.1 7.1-5.1 0 0 2 23-19.1 23.4l10.7-12z"/>
						</g>
					</g>
				</g>
			</g>
			<g id="&lt;Group&gt;">
				<path id="&lt;Path&gt;" class="s7" d="m211.2 114.9h-68.2v-25.7h68.2z"/>
				<path id="&lt;Compound Path&gt;" class="s7" d="m198 77.8h-42.4l-1.8 11.4h46.7zm-20.9 8.2c-1.4 0-2.5-1.1-2.5-2.5 0-1.4 1.1-2.5 2.5-2.5 1.4 0 2.5 1.1 2.5 2.5 0 1.4-1.1 2.5-2.5 2.5z"/>
				<path id="&lt;Path&gt;" class="s12" d="m200.5 89.2h-46.7l0.4-2.6h45.7z"/>
			</g>
		</g>
	</g>
	<g id="Floor">
		<g id="&lt;Group&gt;">
			<path id="&lt;Path&gt;" class="s9" d="m50.3 472.2c127.9-0.6 271.5-0.6 399.4 0-127.9 0.6-271.5 0.6-399.4 0z"/>
		</g>
	</g>
	<g id="Character">
		<g id="&lt;Group&gt;">
			<g id="&lt;Group&gt;">
				<g id="&lt;Group&gt;">
					<g id="&lt;Group&gt;">
						<g id="&lt;Group&gt;">
							<path id="&lt;Path&gt;" class="s13" d="m311.7 472.7c2.5 0.8 76-0.8 78.7-2.6 1-0.6-5.3-70.2-5.3-70.2l-46.6 0.9 5.3 46.5c0 0-27.1 12.9-29.9 15.1-2.7 2.3-4.7 9.6-2.2 10.3z"/>
							<path id="&lt;Path&gt;" class="s9" d="m311.7 472.7c2.5 0.8 76-0.8 78.7-2.6 0.3-0.2 0.4-7.2-0.8-16.4-13.3 2.2-60.9 9.5-64.6 7.3-2.6-1.5-0.3-3.9 1.8-5.5-6 3.1-11.7 6-12.9 7-2.7 2.2-4.7 9.5-2.2 10.2z"/>
						</g>
						<g id="&lt;Group&gt;">
							<path id="&lt;Path&gt;" class="s9" d="m342.5 436.2l45.7-0.7c0 0-9-109.6-8.7-111.7 0.5-2.7 33-130 33-130h-43.7c0 0-34.4 118.7-35.6 130.1-2 18.5 9.3 112.3 9.3 112.3z"/>
							<g id="&lt;Group&gt;">
								<path id="&lt;Path&gt;" class="s1" d="m384.1 425.2c-2.7-0.2-5.4-0.2-8.1-0.2q-4.1-0.1-8.2 0-8.1 0-16.2 0.3-2.3 0-4.5 0.1c-1.6 0.1-3.2 0.4-4.7 0.4-0.2 0-0.2 0.2 0 0.2 1.3 0 2.6 0.2 4 0.3q2 0 4.1 0 4.1 0 8.2 0c5.4-0.1 10.8-0.1 16.2-0.4 3.1-0.1 6.2-0.1 9.2-0.4 0.2-0.1 0.2-0.3 0-0.3z"/>
								<path id="&lt;Path&gt;" class="s1" d="m402.9 204.1c-3.9 13.9-7.5 27.8-11 41.8q-5.2 20.9-10.5 41.8-2.6 10.5-5.2 21c-1.7 6.8-3.6 13.6-4 20.6-0.5 7.2 0.4 14.4 1 21.5q0.9 10.7 1.9 21.4c1.2 14.3 2.4 28.6 4 42.8q0.3 2.7 0.5 5.4c0.1 0.2 0.3 0.2 0.3 0-1-14.3-1.9-28.6-3.1-42.9q-0.8-10.7-1.7-21.4c-0.6-7.1-1.4-14.3-1.7-21.5-0.2-7.2 1.1-14.1 2.9-21.1q2.5-10.2 5.1-20.4 5.2-21 10.4-41.9c3.9-15.6 7.8-31.3 11.2-47 0-0.1-0.1-0.2-0.1-0.1z"/>
							</g>
							<path id="&lt;Path&gt;" class="s1" d="m412.5 193.9c0 0-13.9 54.6-23.7 93l-18.6-93z"/>
						</g>
					</g>
					<g id="&lt;Group&gt;">
						<g id="&lt;Group&gt;">
							<g id="&lt;Group&gt;">
								<path id="&lt;Path&gt;" class="s13" d="m366.6 472.9c2.5 0.8 76-0.8 78.6-2.6 1.1-0.7-2.8-70.3-2.8-70.3l-46 0.9 2.3 46.6c0 0-27.1 12.8-29.9 15.1-2.7 2.3-4.8 9.5-2.2 10.3z"/>
								<path id="&lt;Path&gt;" class="s9" d="m366.6 472.9c2.5 0.8 76-0.8 78.6-2.6 0.4-0.2 0.3-7.1 0-16.5-13.3 2.3-61.6 9.6-65.3 7.4-2.6-1.5-0.3-3.9 1.8-5.5-6.1 3-11.7 5.9-12.9 6.9-2.7 2.3-4.8 9.5-2.2 10.3z"/>
							</g>
						</g>
						<g id="&lt;Group&gt;">
							<path id="&lt;Path&gt;" class="s9" d="m370.2 193.8c0 0 2.5 30.9 7.6 38.7 0 0 5 1.7 12.7 6.3 0 0 3.1 82.6 3 87.5-0.2 18.6 4.6 108.9 4.6 108.9l46.1-0.4c0 0-4.8-102.2-4.8-109 0-6.6-3.1-48-5.9-84 0 0 4.1-11.5 3.6-17.3-1.1-14-7.4-30.7-7.4-30.7z"/>
							<g id="&lt;Group&gt;">
								<path id="&lt;Path&gt;" class="s1" d="m386.5 223.2q-0.3-1.7-0.6-3.5c-0.3-2.1-0.7-4.2-1.1-6.3-0.8-4.8-1.7-9.6-2.8-14.3 0-0.1-0.2-0.1-0.2 0q0.3 2.9 0.7 5.7c0.3 1.9 0.5 3.9 0.7 5.8 0.6 3.7 1.1 7.5 1.7 11.3 0.3 1.4 1.2 4-0.9 4.5-1.6 0.3-2.9-1.3-3.3-2.6-0.6-1.7-0.8-3.5-1.2-5.3q-0.5-2.8-0.9-5.7-0.9-6.3-1.9-12.5c0-0.1-0.2-0.1-0.2 0 0.1 4.3 0.4 8.6 0.9 12.8q0.4 3.1 1 6.1c0.3 1.9 0.5 3.9 1.4 5.7 0.6 1.4 1.8 2.6 3.4 2.8q0.1 0 0.1 0-0.1 0-0.1 0.1c0.1 0.7 0.1 1.3 0.1 2 0.1 0.7 0.2 1.4 0.4 2 0.1 0.7 0.2 1.4 0.5 2q0.1 0.5 0.3 0.9 0.3 0.4 0.6 0.9c0.1 0.1 0.2 0 0.2-0.1q0-0.2 0-0.3 0-0.1 0-0.1 0-0.3 0-0.6-0.1-0.5-0.2-1-0.3-0.9-0.5-1.9c-0.2-0.6-0.3-1.3-0.5-1.9-0.2-0.7-0.4-1.3-0.5-2q-0.1 0-0.1 0c1.2 0 2.5-0.7 2.9-1.9 0.4-0.8 0.2-1.7 0.1-2.6z"/>
								<path id="&lt;Path&gt;" class="s1" d="m394.2 239.8c-1.3-1.1-2.9-2-4.3-2.9q-2.4-1.4-5-2.5c-3.3-1.5-6.8-2.5-10.2-3.6-0.1-0.1-0.2 0.1-0.1 0.2 3.3 1.3 6.5 3 9.8 4.6q2.3 1.2 4.8 2.2c1.6 0.8 3.2 1.6 4.9 2.2 0.1 0.1 0.2-0.1 0.1-0.2z"/>
								<path id="&lt;Path&gt;" class="s1" d="m420.2 214c-2.3 0-10.4-0.6-12.8-3.3-1.4-1.5-2.4-3.5-3-5.4-0.8-2.2-1.4-4.3-1.9-6.6 0-0.1-0.1-0.1-0.1 0q-0.1 3.9 0.9 7.5c0.6 2.1 1.3 4.4 3 5.8 1.7 1.5 4.1 2.1 6.4 2.4 2.5 0.3 5 0.2 7.5-0.2 0.2 0 0.2-0.2 0-0.2z"/>
								<path id="&lt;Path&gt;" class="s1" d="m364.7 214.6c0.7 0 2.9-1.5 3.1-1.8 1.8-2.7 2.2-11.2 2.4-13.4 0-0.2 0-0.1 0 0q0.2 3.7-0.3 7.5c-0.1 2-0.4 4.3-0.9 5.8-0.5 1.5-3.5 2.5-4.3 2.2z"/>
								<path id="&lt;Path&gt;" class="s1" d="m442.2 425.9c-2.7-0.2-5.5-0.2-8.2-0.2q-4-0.1-8.1-0.1-8.1 0.1-16.3 0.3-2.2 0.1-4.4 0.2c-1.6 0.1-3.2 0.3-4.8 0.4-0.1 0-0.1 0.2 0 0.2 1.4 0 2.7 0.2 4 0.2q2.1 0.1 4.2 0.1 4 0 8.1 0c5.4-0.1 10.9-0.2 16.3-0.4 3-0.1 6.1-0.2 9.2-0.5 0.2 0 0.2-0.2 0-0.2z"/>
								<path id="&lt;Path&gt;" class="s1" d="m436.6 419.9c0.3-0.1 0.5-0.3 0.5-0.6l-10.4-178.9c0.1-0.7 3.1-10.7 3.3-15.8 0.3-5.4-5.3-26.5-5.5-27.3-0.1-0.3-0.4-0.5-0.7-0.4-0.3 0-0.5 0.3-0.4 0.6 0.1 0.3 5.8 21.8 5.5 27-0.3 5.3-3.3 15.7-3.3 15.8l10.4 179c0 0.3 0.3 0.6 0.6 0.6z"/>
							</g>
						</g>
					</g>
				</g>
			</g>
			<g id="&lt;Group&gt;">
				<g id="&lt;Group&gt;">
					<path id="&lt;Path&gt;" class="s9" d="m388.1 89.6c10.9 4.8 13.2 20.1 12.5 41.9-0.1 3.3-28.1 9-41.6-1.2-2.2-1.6 0.9-28.2 6.3-35.9 6.6-9.5 16.1-7.9 22.8-4.8z"/>
					<path id="&lt;Path&gt;" class="s9" d="m388.4 89.8c5.7 2.9 9.3 8.6 11 14.6 1.2 4.4 1.7 9.1 2.2 13.6 0.5 4.4 0.8 8.8 0.2 13.2 0 0.1-0.2 0.1-0.2 0 0.1-8.3-0.9-16.5-2.6-24.6-1.4-6.7-4.8-12.8-10.8-16.4-0.2-0.1 0-0.5 0.2-0.4z"/>
					<path id="&lt;Path&gt;" class="s9" d="m361.1 101.9c2-6.9 6.5-11.9 13.2-14.1v0.1c-7.2 2.8-11.3 8.5-13.2 16.1-2 8.3-2.8 16.6-3.5 25.1 0 0.2-0.3 0.2-0.3 0 0.2-9 1.4-18.6 3.8-27.2z"/>
				</g>
				<g id="&lt;Group&gt;">
					<g id="&lt;Group&gt;">
						<g id="&lt;Group&gt;">
							<g id="&lt;Group&gt;">
								<path id="&lt;Path&gt;" class="s13" d="m384.1 142.9c-3.2 23.6-9.1 47.2-12.9 50.9-6 5.7-39.3 13.8-50 14.4-3.6 0.2-6.6-23.6-3.8-26.1 2.8-2.5 38.6-8.7 40.6-9.9 1-0.6 9.7-18.8 16.4-30.9 6.2-11.3 10.7-5.5 9.7 1.6z"/>
							</g>
						</g>
					</g>
					<g id="&lt;Group&gt;">
						<g id="&lt;Group&gt;">
							<path id="&lt;Path&gt;" class="s11" d="m333.3 207.5l-4.3-30c0 0 25.3-5.7 28.4-6.7 1.3-0.4 12.1-22.8 17.4-32.4 3.4-6.3 10.5-8.4 10.1 5.5-0.2 8.1-6.7 46.4-13 51.6-5.1 4.2-38.6 12-38.6 12z"/>
							<g id="&lt;Group&gt;">
								<path id="&lt;Path&gt;" class="s9" d="m338.6 204.7c0.1-2.2-1.3-11.1-1.7-13.3-0.3-2.2-2.1-11.1-2.5-13.4 0-0.2-0.2-0.2-0.2 0 0.4 2.2 1.4 11.3 1.8 13.5 0.3 2.2 1.8 11.1 2.5 13.3 0 0 0.1 0 0.1-0.1z"/>
							</g>
							<path id="&lt;Path&gt;" class="s14" d="m384.9 141.6q0 0.5 0 1.1 0.1 0.6 0 1.2c0 1.4-0.2 3.7-0.6 6.5q-0.1 0.8-0.2 1.7-0.1 0.5-0.2 1-0.1 1.1-0.3 2.3 0 0.2-0.1 0.4-0.2 1.3-0.4 2.6-0.2 1-0.3 2-0.2 1-0.4 2-0.1 0.5-0.2 1.1c-0.7 3.7-1.5 7.7-2.4 11.5q-0.4 1.5-0.8 3-0.3 1-0.5 2-0.3 1-0.6 1.9c-1.8 6.6-4 11.9-6 13.6-3.4 2.9-19.9 7.4-30.2 10l37.6-71.7q0.3-0.1 0.5-0.2c0.9-0.2 1.8-0.1 2.6 0.5q0.5 0.4 0.9 1 0.3 0.4 0.6 0.9 0.2 0.6 0.4 1.2 0.5 1.8 0.6 4.4z"/>
						</g>
					</g>
				</g>
				<g id="&lt;Group&gt;">
					<path id="&lt;Path&gt;" class="s8" d="m366.8 182.4l-2.1 18c0 0 2.5-0.1 10.6-0.5l1.9-6.6 3.8 6.3 51.4-4-7.9-14.1c-6.2-13.7-14-34.3-24.4-44.1-8.2-7.9-17.1-6.7-22.5-0.5-1.4 1.6-14.6 23.8-15.8 32.6-1.1 7.9 5 12.9 5 12.9z"/>
					<g id="&lt;Group&gt;" style="opacity: .1">
						<path id="&lt;Path&gt;" class="s3" d="m379.9 179.7c-2 0-4 0.2-6 0.8q-1.5 0.5-3 1.1-0.8 0.3-1.5 0.6c-0.5 0.2-1.1 0.3-1.6 0.3v0.1c0.5 0.1 0.9 0.2 1.4 0.1 0.5 0 1-0.1 1.5-0.2 1-0.3 2-0.7 3-1 2.1-0.6 4.1-1.2 6.1-1.5 0.1-0.1 0.2-0.3 0.1-0.3z"/>
						<path id="&lt;Path&gt;" class="s3" d="m389.2 181.8c-2.5-0.3-5.1-0.4-7.7-0.4q-1.9 0.1-3.8 0.3-0.9 0.1-1.8 0.3c-0.7 0.1-1.3 0.3-2 0.4-0.1 0-0.1 0.1 0 0.1 0.6 0 1.3 0 1.9 0q1-0.1 1.9-0.1 1.9-0.1 3.8-0.1 3.9-0.2 7.7-0.3c0.1 0 0.1-0.2 0-0.2z"/>
					</g>
					<g id="&lt;Group&gt;">
						<g id="&lt;Group&gt;">
							<path id="&lt;Path&gt;" class="s9" d="m381.2 142.2c-2.7 6.4-5.2 12.9-7.4 19.4-2.5 7.5-4.4 13.2 3.5 18.1l0.1 0.1q0 3.4 0 6.8c-0.1 2.2-0.1 4.5-0.2 6.7 0-2.2-0.1-4.5-0.2-6.7q-0.1-3.4-0.1-6.7l0.1 0.2c-8.1-5-6.3-10.9-3.6-18.6 2.2-6.6 4.9-13 7.8-19.3z"/>
						</g>
						<g id="&lt;Group&gt;">
							<path id="&lt;Path&gt;" class="s9" d="m377.6 152.6c0 0.4 0.4 0.8 0.8 0.8 0.5 0 0.9-0.4 0.9-0.8 0-0.5-0.4-0.9-0.9-0.9-0.4 0-0.8 0.4-0.8 0.9z"/>
							<path id="&lt;Path&gt;" class="s9" d="m375.4 162.1c0 0.5 0.4 0.8 0.8 0.8 0.5 0 0.9-0.4 0.9-0.8 0-0.5-0.4-0.9-0.9-0.9-0.4 0-0.8 0.4-0.8 0.9z"/>
							<path id="&lt;Path&gt;" class="s9" d="m373.4 170.8c0 0.5 0.4 0.8 0.9 0.8 0.5 0 0.8-0.4 0.8-0.8 0-0.5-0.4-0.9-0.8-0.9-0.5 0-0.9 0.4-0.9 0.9z"/>
							<path id="&lt;Path&gt;" class="s9" d="m378.8 178.6c0 0.4 0.4 0.8 0.8 0.8 0.5 0 0.9-0.4 0.9-0.8 0-0.5-0.4-0.9-0.9-0.9-0.4 0-0.8 0.4-0.8 0.9z"/>
							<path id="&lt;Path&gt;" class="s9" d="m379.2 187.3c0 0.4 0.4 0.8 0.8 0.8 0.5 0 0.9-0.4 0.9-0.9 0-0.4-0.4-0.8-0.9-0.8-0.4 0-0.8 0.4-0.8 0.9z"/>
						</g>
					</g>
				</g>
				<g id="&lt;Group&gt;">
					<g id="&lt;Group&gt;">
						<g id="&lt;Group&gt;">
							<path id="&lt;Path&gt;" class="s13" d="m390.4 134.4c-0.1 1.1-4.6 9.1-9.8 9.5-1.7 0.1-2.8-9.1-2.8-9.1l-0.2-0.6-3.3-9.3 10.3-8.5 1.5-1.2c0 0 0.7 2.6 1.6 5.8q0.1 0.3 0.1 0.5 0.1 0.3 0.2 0.5 0.2 0.8 0.4 1.5 0.1 0.6 0.3 1.1 0.1 0.6 0.3 1.2c0.9 4 1.5 8.1 1.4 8.6z"/>
							<path id="&lt;Path&gt;" class="s9" d="m387.7 121c-1.8 8-7.5 11.8-10.1 13.2l-3.3-9.3 10.3-8.5 1.5-1.2c0 0 0.7 2.6 1.6 5.8z"/>
						</g>
						<g id="&lt;Group&gt;">
							<path id="&lt;Path&gt;" class="s13" d="m361.1 107c-3.9 16.8 5.7 21 9.3 21.8 3.3 0.8 14.6 2.9 20.2-13.4 5.6-16.3-1-23.4-8.4-25.6-7.4-2.1-17.3 0.3-21.1 17.2z"/>
							<g id="&lt;Group&gt;">
								<path id="&lt;Path&gt;" class="s9" d="m364 106.1c0.4 0 0.8 0 1.2-0.1 0.4 0 0.8 0 1.2-0.3 0.2-0.1 0.2-0.5 0.1-0.7-0.3-0.5-0.9-0.6-1.4-0.6q-0.9 0-1.5 0.6c-0.5 0.4-0.1 1.1 0.4 1.1z"/>
								<path id="&lt;Path&gt;" class="s9" d="m375.5 107.5c-0.4-0.1-0.8-0.3-1.2-0.4-0.4-0.2-0.7-0.3-1-0.7-0.2-0.2-0.1-0.6 0.1-0.7 0.5-0.4 1-0.3 1.5-0.2 0.6 0.2 1 0.5 1.3 1 0.3 0.5-0.2 1.1-0.7 1z"/>
								<g id="&lt;Group&gt;">
									<g id="&lt;Group&gt;">
										<path id="&lt;Path&gt;" class="s9" d="m366 109.3c0-0.1-0.1 0-0.1 0.1-0.1 1.1-0.4 2.5-1.5 2.7 0 0-0.1 0.1 0 0.1 1.3 0 1.7-1.8 1.6-2.9z"/>
										<path id="&lt;Path&gt;" class="s9" d="m365.2 107.9c-1.9-0.4-2.5 3.4-0.8 3.7 1.7 0.4 2.3-3.3 0.8-3.7z"/>
									</g>
									<path id="&lt;Path&gt;" class="s9" d="m364.3 108c-0.3 0.2-0.6 0.5-1 0.5-0.4-0.1-0.6-0.5-0.8-1q-0.1 0-0.1 0.1c-0.1 0.7 0 1.5 0.6 1.7 0.6 0.2 1.2-0.3 1.5-1 0-0.1 0-0.3-0.2-0.3z"/>
								</g>
								<path id="&lt;Path&gt;" class="s9" d="m371.1 120.2c-0.3 0.2-0.6 0.6-1.1 0.6-0.4 0-0.8-0.2-1.2-0.4h-0.1c0.3 0.5 0.9 0.8 1.5 0.8 0.5 0 0.8-0.5 1-0.9 0-0.1-0.1-0.1-0.1-0.1z"/>
								<g id="&lt;Group&gt;">
									<path id="&lt;Path&gt;" class="s9" d="m366.9 115.3c0 0-0.5 1.6-0.7 2.5 0 0 0.2 0.1 0.5 0.2 1.4 0.4 3 0.1 4-0.9 0.1-0.1 0-0.2-0.1-0.1-1.2 0.6-2.4 0.6-3.7 0.4 0-0.2 1-2.8 0.8-2.9-0.4-0.1-1.3 0.1-1.9 0.2 1-3.6 2.5-7 3.4-10.5 0-0.2-0.2-0.2-0.2-0.1-1.9 3.4-3 7.5-4.1 11.1-0.2 0.5 1.6 0.1 2 0.1z"/>
								</g>
								<g id="&lt;Group&gt;">
									<path id="&lt;Path&gt;" class="s9" d="m366.8 117.7c0 0 0.6 1.2 1.6 1.8 0.3 0.3 0.8 0.4 1.2 0.4 1-0.1 1.2-0.9 1.2-1.7 0-0.6-0.2-1.2-0.2-1.2 0 0-1.6 1-3.8 0.7z"/>
									<path id="&lt;Path&gt;" class="s15" d="m368.4 119.5c0.3 0.3 0.8 0.4 1.2 0.4 1-0.1 1.2-0.9 1.2-1.7-1-0.1-2.1 0.4-2.4 1.3z"/>
								</g>
								<g id="&lt;Group&gt;">
									<path id="&lt;Path&gt;" class="s9" d="m376.1 110.8c-0.3-0.2-0.7-0.3-1-0.4q-0.5 0-1 0-0.5 0.1-1 0.3-0.5 0.3-0.9 0.8l-0.3 0.6h0.7c0.4 0 0.9 0 1.4 0.1 0.5 0.1 0.9 0.3 1.3 0.6-0.2-0.5-0.6-0.9-1.1-1.1q-0.8-0.3-1.7-0.4l0.3 0.6q0.5-0.7 1.4-0.9 0.9-0.2 1.9-0.2z"/>
									<path id="&lt;Path&gt;" class="s9" d="m373.9 113.3c-0.5-0.2-1-0.4-1.4-0.7-0.1-0.1-0.5-0.4-0.5-0.5 0.1-0.2 0.2-0.5 0.3-0.7-0.1 0.2-0.3 0.4-0.4 0.6 0 0.3 0.1 0.6 0.4 0.8 0.5 0.3 1.1 0.4 1.6 0.5z"/>
								</g>
							</g>
							<g id="&lt;Group&gt;">
								<path id="&lt;Path&gt;" class="s9" d="m390.5 116.3c-3.7-2.1-3.5-6.1-3.5-6.1-4.6-2.4-6.9-6.3-7.1-6.6 0.1 0.3 0.7 3 1.1 4.3-10.8-2.9-13.5-11.6-13.5-11.6-3.9 3.3-4.8 5.5-5.4 6.6 0 0 0.5-6.7 4.3-10.9 4.6-5.2 10.3-3.7 10.3-3.7 0 0 8.7-1.9 14.8 5.8 6.5 8.3-1 22.2-1 22.2z"/>
								<path id="&lt;Path&gt;" class="s9" d="m372.8 105.4c1.7 1.1 3.5 2 5.4 2.5q0.1 0 0.1 0c-3.1-1.1-5.7-3-7.7-5.5q-1.3-1.6-2.1-3.5c-0.6-1.3-1.1-2.8-1.1-4.3 0-0.1-0.2-0.1-0.2 0 0 1.6 0 3 0.5 4.4 0.5 1.4 1.2 2.7 2.2 3.8q1.2 1.5 2.9 2.6z"/>
							</g>
							<g id="&lt;Group&gt;">
								<path id="&lt;Compound Path&gt;" class="s16" d="m372.8 117.2c-2.8-1.1-4.2-4.2-3.2-7 1.1-2.9 4.2-4.3 7.1-3.2 2.8 1 4.2 4.2 3.2 7-0.9 2.4-3.3 3.8-5.7 3.5q-0.7-0.1-1.4-0.3zm-2.5-6.8c-0.9 2.5 0.4 5.2 2.8 6.1 2.4 0.9 5.2-0.3 6.1-2.8 0.9-2.4-0.4-5.1-2.8-6.1q-0.6-0.2-1.1-0.2c-2.1-0.3-4.2 1-5 3z"/>
								<path id="&lt;Compound Path&gt;" class="s16" d="m361.9 114.6c-2.2-0.4-3.6-3.1-3.1-6q0.5-2.3 1.8-3.6c1-0.9 2.1-1.3 3.2-1.1 1.1 0.2 2 0.9 2.6 2.1 0.5 1.2 0.7 2.6 0.4 4-0.5 2.8-2.5 4.8-4.6 4.7q-0.1 0-0.3-0.1zm-0.8-9.1c-0.8 0.8-1.3 1.9-1.5 3.2-0.5 2.5 0.6 4.9 2.4 5.2 1.8 0.3 3.7-1.5 4.1-4 0.2-1.3 0.1-2.6-0.4-3.6-0.5-0.9-1.2-1.5-2-1.7q-0.2 0-0.3 0c-0.8-0.1-1.6 0.3-2.3 0.9z"/>
								<path id="&lt;Path&gt;" class="s16" d="m369.7 110.8l0.6-0.4c-0.7-0.9-2.4-2.2-4-1.1l0.4 0.6c1.5-1 2.9 0.8 3 0.9z"/>
								<path id="&lt;Path&gt;" class="s16" d="m393.1 117.6l0.7-0.2c-0.1-0.3-0.9-3.2-2.4-3.8-1.5-0.6-11.2-1.9-11.6-1.9l-0.1 0.7c2.8 0.3 10.3 1.4 11.4 1.8 1 0.5 1.7 2.6 2 3.4z"/>
							</g>
							<g id="&lt;Group&gt;">
								<g id="&lt;Group&gt;">
									<path id="&lt;Path&gt;" class="s13" d="m387.7 116.1c0 0 4.4-4.8 6.7-3.2 2.2 1.7-1.7 9.1-4.7 9.7-3 0.7-3.6-2.1-3.6-2.1z"/>
									<path id="&lt;Path&gt;" class="s9" d="m393.2 115c0.1 0 0.1 0.1 0 0.1-2.1 0.5-3.4 2.2-4.4 4 0.7-0.6 1.6-0.9 2.4-0.1 0.1 0.1 0 0.2 0 0.1-0.8-0.3-1.4-0.2-2.1 0.4-0.4 0.4-0.8 0.9-1.1 1.4-0.1 0.2-0.5 0.1-0.4-0.1q0.1-0.1 0.1-0.1c0.3-2.5 2.7-5.8 5.5-5.7z"/>
								</g>
							</g>
						</g>
					</g>
					<g id="&lt;Group&gt;">
						<path id="&lt;Path&gt;" class="s4" d="m377.5 134.2l3.5 7.7 9.3-10.2 2.9 3.1c0 0-8.9 16-9 15.3l-3.5-6.6-4.5 4.8v-11.8z"/>
						<path id="&lt;Path&gt;" class="s9" d="m375.9 142.5c0-1.9 0-3.9 0.2-5.8 0-0.1 0.1-0.1 0.1-0.1 0.5 1.9 0.2 9.3 0.3 11.1 0.2-0.2 4.2-4.3 4.2-4.2 0.7 1 3.3 5.9 3.5 6.3 1.4-2.6 7.4-12.6 9.1-15.1 0.1 0 0.2 0 0.1 0.1-1.2 2.7-9 16-9.1 15.9-0.1 0.1-3.2-5.8-3.6-7-0.7 0.9-4.7 5.5-4.7 5.2-0.2-1.9-0.2-4.4-0.1-6.4z"/>
					</g>
				</g>
				<g id="&lt;Group&gt;">
					<g id="&lt;Group&gt;">
						<path id="&lt;Path&gt;" class="s13" d="m403.7 144c9.3 17.2 19.7 46.4 16.8 51.9-7.3 13.7-24.7 28-32.8 32.7-4.7 2.7-20.3-21.4-16.3-24 6.5-4.2 23.3-18.5 25.3-20.5 1.1-1-2.2-21.7-3-35.4-1-14.9 5.5-13.1 10-4.7z"/>
						<g id="&lt;Group&gt;">
							<path id="&lt;Path&gt;" class="s13" d="m359.6 218.3c1-1.6 0.2-2.2-2.9-1-3.2 1.1-14.6 8.2-16.8 4-2.1-4.3 14.2-14 19.6-15.5 5.4-1.4 14.6-1.9 14.6-1.9-2.8 2.5-9 9.3-14.5 14.4z"/>
							<g id="&lt;Group&gt;">
								<path id="&lt;Path&gt;" class="s7" d="m353.9 224.9l8.7-6.7-42.1-54.6-8.7 6.7z"/>
								<path id="&lt;Path&gt;" class="s9" d="m369.2 249.3l13.1-10.1-27.2-35.4-13.2 10.1z"/>
								<g id="&lt;Group&gt;">
									<g id="&lt;Group&gt;" style="opacity: .2">
										<path id="&lt;Path&gt;" class="s6" d="m263 170c-31.9-8.9-50.5-42-41.7-73.8 4.3-15.3 14.3-28.1 28.3-36 13.9-7.9 30-9.9 45.4-5.6 15.4 4.3 28.2 14.3 36.1 28.2 7.9 14 9.8 30.1 5.6 45.5-4.3 15.4-14.3 28.2-28.3 36.1-13.9 7.8-30.1 9.8-45.4 5.6z"/>
									</g>
									<path id="&lt;Compound Path&gt;" class="s1" d="m260.3 179.7c-37.2-10.3-59.1-49-48.7-86.2 10.3-37.1 49-59 86.1-48.6 37.2 10.3 59 48.9 48.7 86.1-10.3 37.2-49 59-86.1 48.7zm2.1-7.7c32.9 9.1 67.1-10.2 76.3-43.1 9.1-32.9-10.2-67.2-43.1-76.3-32.9-9.2-67.1 10.2-76.3 43.1-9.1 32.9 10.2 67.1 43.1 76.3z"/>
									<path id="&lt;Compound Path&gt;" class="s1" d="m350.1 100.5c-1.4-8.2-4.2-16.2-8.4-23.7-9.5-16.7-24.9-28.8-43.4-34-38.3-10.6-78.1 11.9-88.7 50.2-5.2 18.5-2.8 37.9 6.7 54.7 9.5 16.8 24.9 28.8 43.4 34 18.5 5.1 37.9 2.8 54.7-6.7 16.8-9.5 28.9-24.9 34-43.4 2.9-10.3 3.4-20.9 1.7-31.1zm-7.9 1.3c-1.2-7.3-3.7-14.4-7.5-21-8.4-14.9-22.1-25.6-38.6-30.2-16.4-4.6-33.7-2.5-48.6 5.9-14.9 8.5-25.6 22.2-30.2 38.6-4.6 16.5-2.4 33.8 6 48.7 4.2 7.4 9.7 13.8 16.2 18.9 6.6 5.2 14.1 9 22.3 11.3 34.1 9.4 69.4-10.6 78.9-44.6 2.5-9.1 3-18.5 1.5-27.6zm0 0c-1.2-7.3-3.7-14.4-7.5-21-8.4-14.9-22.1-25.6-38.6-30.2-16.4-4.6-33.7-2.5-48.6 5.9-14.9 8.5-25.6 22.2-30.2 38.6-4.6 16.5-2.4 33.8 6 48.7 4.2 7.4 9.7 13.8 16.2 18.9 6.6 5.2 14.1 9 22.3 11.3 34.1 9.4 69.4-10.6 78.9-44.6 2.5-9.1 3-18.5 1.5-27.6zm2.2 28.7c-4.8 17.4-16.2 31.9-32 40.9-15.8 8.9-34.1 11.1-51.6 6.3-17.4-4.9-32-16.2-40.9-32.1-4-7-6.6-14.5-7.9-22.2-1.6-9.7-1.1-19.6 1.6-29.3 10-36.1 47.5-57.3 83.6-47.2 26.2 7.2 44.6 29 48.8 54.3 1.6 9.4 1.2 19.4-1.6 29.3zm-9.7-49.7c-8.4-14.9-22.1-25.6-38.6-30.2-16.4-4.6-33.7-2.5-48.6 5.9-14.9 8.5-25.6 22.2-30.2 38.6-4.6 16.5-2.4 33.8 6 48.7 4.2 7.4 9.7 13.8 16.2 18.9 6.6 5.2 14.1 9 22.3 11.3 34.1 9.4 69.4-10.6 78.9-44.6 2.5-9.1 3-18.5 1.5-27.6-1.2-7.3-3.7-14.4-7.5-21zm2 47.5c-8.9 31.8-41.9 50.5-73.7 41.7-15.4-4.3-28.2-14.3-36.1-28.3-7.9-13.9-9.9-30.1-5.6-45.5 4.3-15.3 14.3-28.1 28.3-36 13.9-7.9 30.1-9.9 45.4-5.6 15.4 4.3 28.2 14.3 36.1 28.2 7.9 14 9.9 30.1 5.6 45.5zm0 0c-8.9 31.8-41.9 50.5-73.7 41.7-15.4-4.3-28.2-14.3-36.1-28.3-7.9-13.9-9.9-30.1-5.6-45.5 4.3-15.3 14.3-28.1 28.3-36 13.9-7.9 30.1-9.9 45.4-5.6 15.4 4.3 28.2 14.3 36.1 28.2 7.9 14 9.9 30.1 5.6 45.5zm0 0c-8.9 31.8-41.9 50.5-73.7 41.7-15.4-4.3-28.2-14.3-36.1-28.3-7.9-13.9-9.9-30.1-5.6-45.5 4.3-15.3 14.3-28.1 28.3-36 13.9-7.9 30.1-9.9 45.4-5.6 15.4 4.3 28.2 14.3 36.1 28.2 7.9 14 9.9 30.1 5.6 45.5z"/>
									<path id="&lt;Path&gt;" class="s6" d="m234.7 134.3c-3.1-5.6-4.7-11.9-5.2-18.3-0.3-3.3-0.1-6.5 0.3-9.8 0.4-3.2 1.1-6.5 2.2-9.6 2.1-6.3 5.6-12.1 10.1-16.9 4.5-4.9 9.9-8.8 15.7-11.6-4.9 4.2-9.4 8.7-13.2 13.6-1.8 2.5-3.7 5-5.1 7.7-1.4 2.7-2.7 5.5-3.6 8.4-2.1 5.8-3 11.9-3.2 18-0.1 6.1 0.6 12.3 2 18.5z"/>
									<path id="&lt;Path&gt;" class="s6" d="m326 105.7c1.4 6.2 1.2 12.7 0 19-0.6 3.2-1.7 6.3-2.9 9.4-1.3 3-2.9 5.9-4.8 8.6-3.8 5.5-8.7 10.1-14.4 13.5-5.6 3.4-11.9 5.8-18.2 6.9 5.8-2.8 11.4-5.8 16.4-9.5 2.5-1.9 4.9-3.8 7-6.1 2.1-2.2 4.1-4.5 5.8-7 3.5-5 6.1-10.6 7.9-16.5 1.8-5.9 2.9-12 3.2-18.3z"/>
								</g>
							</g>
							<g id="&lt;Group&gt;">
								<path id="&lt;Path&gt;" class="s13" d="m390.4 226.4c-8.2 6.8-17.9 15.9-29.7 17.9-2.3 0.4-3.9-0.5-3.9-0.5-5.3 1-7.3-1.2-7.3-1.2-5.2-0.6-7-3.2-7-3.2 0 0-6.2 1.1-7.5-2.5-1.5-4.1 7.5-4.8 12.2-8.3 10.8-7.9 24-22.1 26.9-24.7z"/>
								<g id="&lt;Group&gt;">
									<path id="&lt;Path&gt;" class="s9" d="m364.4 228.3c-3.3 2.2-6.4 4.5-9.9 6.4-3.8 1.9-7.9 3.2-11.9 4.6-0.2 0.1-0.1 0.2 0 0.2 7.8-1.3 16.1-5.7 21.9-11.1 0.1-0.1 0-0.2-0.1-0.1z"/>
									<path id="&lt;Path&gt;" class="s9" d="m370.1 234.1c-3.3 2-9 5.6-20.6 8.3-0.1 0-0.1 0.1 0 0.1 7.8-0.8 14.5-3.6 20.7-8.2 0.2-0.2 0.1-0.3-0.1-0.2z"/>
									<path id="&lt;Path&gt;" class="s9" d="m373.1 237.3c-5.7 3.2-9.7 4.5-16.2 6.4-0.1 0-0.1 0.1 0 0.1 7.7-1.4 10.3-2.7 16.3-6.3 0.2-0.2 0.1-0.3-0.1-0.2z"/>
								</g>
							</g>
						</g>
					</g>
					<g id="&lt;Group&gt;">
						<path id="&lt;Path&gt;" class="s2" d="m393.9 229.9l-20.7-28.9 22.2-17.3c-1.4-11.2-4.1-33.6-3.9-41.5 0.3-9.2 6.8-9.7 11.8-1.7 11.4 18.3 22.5 51.5 21.6 56.8-1.2 7.6-31 32.6-31 32.6z"/>
						<g id="&lt;Group&gt;">
							<path id="&lt;Path&gt;" class="s9" d="m396 223c-0.9-2.1-6.1-9.6-7.4-11.5-1.3-1.8-6.9-9.2-8.3-11.1 0-0.1-0.2 0-0.1 0.1 1.3 1.9 6.3 9.7 7.6 11.5 1.3 1.9 6.6 9.4 8.1 11 0.1 0.1 0.2 0 0.1 0z"/>
							<g id="&lt;Group&gt;">
								<g id="&lt;Group&gt;">
									<path id="&lt;Path&gt;" class="s9" d="m405.6 219.6c6.5-6.4 13.6-12.6 18.4-20.5 1.3-2.2 0.4-4.7 0-7.1q-0.6-2.4-1.3-4.8c-4.1-12.8-9.3-25.1-14.3-37.6 4.4 9.1 8.4 18.3 12 27.8 1.7 4.7 3.3 9.5 4.4 14.4 0.4 2.5 1.1 5.4-0.3 7.6-4.9 7.9-12.2 14-18.9 20.2z"/>
								</g>
								<g id="&lt;Group&gt;">
									<path id="&lt;Path&gt;" class="s9" d="m410.6 154.5c-0.4-1.1-0.6-2.3-0.9-3.4 0.6 1 0.8 2.2 0.9 3.4z"/>
								</g>
							</g>
							<g id="&lt;Group&gt;">
								<g id="&lt;Group&gt;">
									<path id="&lt;Path&gt;" class="s9" d="m392.6 156.9c1 7.6 2.2 16.3 3 23.9 0.1 1 0.2 1.9 0.2 2.9 0.1 0.1-0.1 0.4-0.2 0.5-5.1 4.5-11.2 8.7-16.7 12.8l-5.6 4 0.5 0.8-0.6-0.8v-0.1l5.4-4.2c5.2-4.3 11.3-8.7 16.3-13.2 0 0.1 0 0.1 0 0.2q0-0.5-0.1-1.1c-0.7-8.4-2-17.2-2.2-25.7z"/>
								</g>
								<g id="&lt;Group&gt;">
									<path id="&lt;Path&gt;" class="s9" d="m391.9 158.5c0.5 1.2 0.8 2.5 1.2 3.7-0.7-1.1-1-2.4-1.2-3.7z"/>
								</g>
							</g>
						</g>
					</g>
				</g>
				<g id="&lt;Group&gt;">
					<path id="&lt;Path&gt;" class="s13" d="m341.2 200.6c0.1-3.7-4.3-1.7-4.3-1.7 0 0 5.6-4.3 4.3-8.1-1.3-3.7-6.5-1.2-6.9-1 0.3-0.2 5.3-4.3 3.6-8-1.8-3.8-6.6-0.4-6.9-0.2 0.2-0.3 2.9-4.4 1-6.9-3.4-4.3-12.1 6.8-16.5 7.4l-5.8-5.8c0.4 1.5 0.9 3 0.2 6.2-0.7 3-1.2 5-0.7 6.8 0.7 3.1 3.6 3.2 3.6 3.2 0 0-2.7 2.8-1.4 5.8 0.7 1.5 3.7 1.8 3.7 1.8 0 0-2 2.3-0.7 4.9 1 2 3.9 2 3.9 2 0 0-0.9 3.2 0.9 4.9 3.4 3.5 21.7-3.5 22-11.3z"/>
					<path id="&lt;Path&gt;" class="s13" d="m314 181l-4.2-4.6q-0.3-0.2-0.6-0.4c-6.7-4.1-16.3-0.8-12.5 3.5 2.8 3.2 10.1 2.1 12.5 5.8z"/>
					<g id="&lt;Group&gt;">
						<path id="&lt;Path&gt;" class="s9" d="m318.7 207.1c0 0 0 0.1 0.1 0.1 6.5-0.9 13.5-3.8 18.4-8.4 0.1-0.1-0.1-0.5-0.3-0.3-5.9 3.7-11.4 6.6-18.2 8.6z"/>
						<path id="&lt;Path&gt;" class="s9" d="m315 200.1c-0.1 0.1 0 0.2 0.1 0.2 6.7-0.9 14.5-4.5 19.5-10.4 0.1-0.2 0.1-0.5-0.1-0.3-3.6 3.7-13.4 8.8-19.5 10.5z"/>
						<path id="&lt;Path&gt;" class="s9" d="m331.2 181.1c-5 5.5-11.2 8.8-18.2 11.3 0 0.1 0 0.2 0.1 0.2 3.7-0.3 8-2.4 11.1-4.2 3.1-1.8 5.4-4.1 7.2-7.1 0.1-0.1-0.1-0.3-0.2-0.2z"/>
					</g>
				</g>
			</g>
		</g>
	</g>
	<g id="Speech Bubble">
		<g id="&lt;Group&gt;">
			<g id="&lt;Group&gt;">
				<g id="&lt;Group&gt;">
					<path id="&lt;Path&gt;" class="s6" d="m447.3 72.4c0 12.6-10.3 22.9-23 22.9-5.1 0-9.8-1.7-13.7-4.5l-11.2 2.9 4.7-10.5c-1.8-3.2-2.7-6.9-2.7-10.8 0-12.7 10.2-23 22.9-23 12.7 0 23 10.3 23 23z"/>
					<path id="&lt;Compound Path&gt;" class="s9" d="m447.3 72.4c0.1 13.2-11.8 24.2-25 23.1-4.2-0.3-8.4-1.9-11.9-4.4h0.3l-11.2 3-0.9 0.2 0.4-0.8 4.6-10.5v0.4c-5.3-9.4-2.7-22.1 5.7-28.9 15.1-12.4 38-1.7 38 17.9zm0 0c0-14.7-14.3-25.9-28.5-22-14 3.5-21.2 19.9-14.3 32.6l0.1 0.2-0.1 0.2-4.7 10.5-0.5-0.7 11.2-2.7 0.2-0.1 0.1 0.1c3.4 2.5 7.4 4.1 11.6 4.5 13.2 1.4 24.9-9.4 24.9-22.6z"/>
				</g>
			</g>
			<path id="&lt;Path&gt;" class="s10" d="m420.6 86l-10.3-10.4 3.5-3.4 6 6.1 12.5-19.6 4.1 2.6z"/>
		</g>
	</g>
</svg>