<svg version="1.2" xmlns="http://www.w3.org/2000/svg" viewBox="0 0 2000 2000" width="500" height="500">
	<title>2pOJzXKmJVVftOCUGCcubSODxG0-svg</title>
	<style>
		.s0 { fill: #575757 } 
	</style>
	<g id="Layer 1">
		<path class="s0" d="m727 240h379l157 1 24 1 18 4 21 10 12 8 11 9 10 11 10 17 7 16 4 16v359l-1 598-1 169-1 214-2 12-5 16-8 16-6 9-11 13-9 7-9 6-16 10-5 3-12 3-16 2h-328l-188-1-39-1-18-1-11-3-13-7-15-9-14-11-10-11-8-13-7-14-6-21-1-10v-208l1-454 1-137 1-415 1-123 4-14 7-17 11-18 11-12 14-11 18-10 14-5 7-2zm83 45l-66 1-19 3-17 6-11 6-9 7-7 10-5 15-4 24v379l-1 552-1 349 2 26 3 15 5 10 9 9 13 8 11 5 13 4 22 3 36 2h446l26-1 19-3 21-6 11-6 7-7 8-14 6-16 2-9 1-9v-25l1-71 1-159v-671l-1-372-2-16-5-12-8-11-6-7-11-8-9-4-14-3-17-2h-156l-90-2z"/>
		<path class="s0" d="m909 320h188l11 4 7 6 5 9 1 3v15l-4 9-6 7-8 4-3 1h-185l-10-2-9-6-6-9-2-6v-10l3-10 6-8 7-5z"/>
	</g>
</svg>