<svg version="1.2" xmlns="http://www.w3.org/2000/svg" viewBox="0 -1 500 501" width="500" height="501"><style>.s0{fill:#c7c7c7}.s1{fill:#88c8fc}.s2{fill:#29275f}.s3{fill:#508dd2}.s4{fill:#fff}.s5{fill:#67a4e9}.s6{fill:#afd4ef}</style><g id="OBJECTS"><g id="&lt;Group&gt;"><path id="&lt;Path&gt;" class="s0" d="M458 353.6c0 23.2-95.7 41.9-213.7 41.9-118 0-213.6-18.7-213.6-41.9 0-23.1 95.6-41.8 213.6-41.8S458 330.5 458 353.6z"/></g><g id="&lt;Group&gt;"><g id="&lt;Group&gt;"><g id="&lt;Group&gt;"><path id="&lt;Path&gt;" class="s1" d="M425 286.2c-18.5 14.7-44.1-8-38-26.5 3.2-9.6 10.7-17.3 12.2-27.4 1.6-10.5 6.5-14.9 14.6-21.2 3.2-2.5 4.5-7.1 5.9-10.8 2.8-7 7-12.9 13.7-16.7 8.2-4.7 24.5 1.6 26.5 12 2.5 12.7-13.9 18.6-19.3 26.7-4.6 7-.2 16.2-7 23.7-10.1 11.4 5.9 29.4-8.6 40.2z"/></g></g><g id="&lt;Group&gt;"><path id="&lt;Path&gt;" class="s2" d="M405.6 307.6c-.4 0-.7-.3-.7-.6-3.3-36.1 7.7-72.7 30.1-100.3.3-.4.8-.4 1.1-.2.3.3.4.8.1 1.1-22.2 27.4-33.1 63.5-29.8 99.2 0 .4-.3.8-.7.8h-.1z"/></g></g><g id="&lt;Group&gt;"><g id="&lt;Group&gt;"><path id="&lt;Path&gt;" class="s3" d="M416.1 262.5c-5 7.1-8.9 15-17.4 16.5-12.8 2.4-28.1 14.6-27.3 30.5-.2 32.4 49.2 31.7 53.1 7.7 1.8-11.4 4.7-16.4 16.3-18 7-1 9.1-6.9 11-12.9 1.8-2.8 4.4-4.9 7.6-6.1 4.4-1.6 9.4-.9 14.1-1 4.2-.1 8.4-1 11.5-3.8 2.9-2.6 4.9-6.3 5.4-10.5.5-4.1-.6-8.5-3-12.2-2.3-3.4-5.7-6.3-9.4-7.7-4.3-1.7-8.6-1.7-12.5-.1-4.6 1.9-8.1 5.3-11.6 8.6l-.1.1c-4.5 4.3-11 5.8-17.4 4.2-7.6-1.9-14.9-2.9-20.3 4.7z"/></g><g id="&lt;Group&gt;"><path id="&lt;Path&gt;" class="s2" d="M370.8 338.9q-.2 0-.4-.1c-.3-.2-.4-.7-.2-1 21-35.4 54-61.8 92.9-74.3.3-.1.8.1.9.5.1.4-.1.8-.5.9-38.5 12.4-71.2 38.6-92 73.6-.2.3-.4.4-.7.4z"/></g></g><g id="&lt;Group&gt;"><g id="&lt;Group&gt;"><g id="&lt;Group&gt;"><path id="&lt;Path&gt;" class="s3" d="M71.9 299.6c18.5 14.7 44.1-8 38-26.5-3.2-9.6-10.7-17.3-12.2-27.4-1.6-10.5-6.5-14.9-14.6-21.2-3.2-2.5-4.5-7.1-5.9-10.8-2.8-7-7-12.9-13.7-16.7-8.3-4.7-24.5 1.6-26.5 12-2.5 12.7 13.9 18.6 19.3 26.8 4.6 6.9.2 16.1 7 23.6 10.1 11.4-6 29.4 8.6 40.2z"/></g></g><g id="&lt;Group&gt;"><path id="&lt;Path&gt;" class="s2" d="M91.3 321.1q-.1 0-.1-.1c-.4 0-.7-.4-.7-.8 3.2-35.7-7.6-71.8-29.8-99.2-.3-.3-.2-.8.1-1 .3-.3.8-.3 1 .1 22.5 27.6 33.5 64.2 30.2 100.3 0 .4-.4.7-.7.7z"/></g></g><g id="&lt;Group&gt;"><g id="&lt;Group&gt;"><path id="&lt;Path&gt;" class="s1" d="M83.9 271.6c5 7.1 8.9 15 17.4 16.5 12.8 2.4 28.1 14.6 27.3 30.5.2 32.4-49.2 31.8-53.1 7.7-1.8-11.4-4.7-16.4-16.3-18-7-1-9.1-6.9-11-12.9-1.8-2.8-4.4-4.9-7.6-6-4.4-1.6-9.4-.9-14.1-1.1-4.2-.1-8.4-1-11.5-3.7-2.9-2.7-4.9-6.4-5.4-10.6-.5-4.1.6-8.5 3-12.1 2.3-3.5 5.7-6.3 9.4-7.8 4.3-1.7 8.6-1.7 12.5 0 4.6 1.8 8.1 5.2 11.6 8.5l.1.1c4.5 4.3 11 5.8 17.4 4.2 7.6-1.9 14.9-2.9 20.3 4.7z"/></g><g id="&lt;Group&gt;"><path id="&lt;Path&gt;" class="s2" d="M129.2 348c-.3 0-.5-.1-.7-.4-20.8-35-53.5-61.2-92-73.5-.4-.2-.6-.6-.5-1 .1-.4.6-.6.9-.5 38.9 12.5 71.9 38.9 92.9 74.3.2.3.1.8-.2 1q-.2.1-.4.1z"/></g></g><g id="&lt;Group&gt;"><g id="&lt;Group&gt;"><path id="&lt;Path&gt;" class="s2" d="M437.1 380.6H60c-4.3 0-7.7-3.4-7.7-7.6v-3.2h392.5v3.2c0 4.2-3.5 7.6-7.7 7.6z"/></g><g id="&lt;Group&gt;"><path id="&lt;Path&gt;" class="s4" d="M403.8 310.1H93.3l-41 59.7h392.5z"/></g><g id="&lt;Group&gt;"><path id="&lt;Path&gt;" class="s2" d="M398.5 113.1H98.6c-2.8 0-5.2 2.3-5.2 5.2v191.8h310.3V118.3c0-2.9-2.4-5.2-5.2-5.2z"/></g><g id="&lt;Group&gt;"><path id="&lt;Path&gt;" class="s5" d="M394.2 294.8H102.9V129.4h291.3z"/></g><g id="&lt;Group&gt;"><path id="&lt;Compound Path&gt;" class="s2" d="M437.1 381.4H60c-4.7 0-8.4-3.8-8.4-8.4v-3.2c0-.4.3-.7.7-.7h392.5c.4 0 .7.3.7.7v3.2c0 4.6-3.8 8.4-8.4 8.4zm-384-10.8v2.4c0 3.8 3.1 6.9 6.9 6.9h377.1c3.8 0 6.9-3.1 6.9-6.9v-2.4z"/></g><g id="&lt;Group&gt;"><path id="&lt;Compound Path&gt;" class="s2" d="M444.8 370.6H52.3c-.2 0-.5-.2-.6-.4-.2-.3-.1-.6 0-.8l41-59.8c.1-.2.3-.3.6-.3h310.5c.3 0 .5.1.6.3l41 59.8c.1.2.1.5 0 .8-.1.2-.4.4-.6.4zm-391-1.5h389.5l-39.9-58.3H93.7z"/></g><g id="&lt;Group&gt;"><path id="&lt;Compound Path&gt;" class="s2" d="M403.7 310.8H93.4c-.4 0-.7-.3-.7-.7V118.3c0-3.3 2.6-6 5.9-6h299.9c3.2 0 5.9 2.7 5.9 6v191.8c0 .4-.3.7-.7.7zm-309.5-1.5h308.7v-191c0-2.5-2-4.5-4.4-4.5H98.6c-2.4 0-4.4 2-4.4 4.5z"/></g><g id="&lt;Group&gt;"><path id="&lt;Compound Path&gt;" class="s2" d="M394.2 295.5H102.9c-.4 0-.7-.3-.7-.7V129.4c0-.4.3-.7.7-.7h291.3c.4 0 .7.3.7.7v165.4c0 .4-.3.7-.7.7zM103.7 294h289.7V130.2H103.7z"/></g><g id="&lt;Group&gt;"><path id="&lt;Path&gt;" class="s4" d="M328.3 301.6H168.8v7.3h159.5z"/></g><g id="&lt;Group&gt;"><path id="&lt;Path&gt;" class="s5" d="M235 121.1c0 2.7-2.2 4.9-4.9 4.9s-4.9-2.2-4.9-4.9 2.2-4.9 4.9-4.9 4.9 2.2 4.9 4.9z"/></g><g id="&lt;Group&gt;"><path id="&lt;Compound Path&gt;" class="s2" d="M304.8 365.7H192.3c-.3 0-.6-.1-.7-.4-.1-.2-.1-.5.1-.7l11.7-17.2c.1-.2.4-.3.6-.3h89.1c.2 0 .5.1.6.3l11.7 17.2c.2.2.2.5.1.7-.2.3-.4.4-.7.4zm-111.1-1.5h109.7l-10.7-15.6h-88.3z"/></g><g id="&lt;Group&gt;"><g id="&lt;Group&gt;"><g id="&lt;Group&gt;"><path id="&lt;Compound Path&gt;" class="s2" d="M134 326.1h-20.8c-.2 0-.5-.2-.6-.4-.2-.2-.2-.5 0-.7l5.3-9.5c.1-.3.4-.4.6-.4h20c.2 0 .5.1.6.3.2.3.2.5.1.8l-4.5 9.4c-.2.3-.4.5-.7.5zm-19.5-1.5h19l3.8-8H119z"/></g><g id="&lt;Group&gt;"><path id="&lt;Compound Path&gt;" class="s2" d="M169.8 326.1h-20.7c-.3 0-.5-.1-.7-.4-.1-.2-.1-.4 0-.7l3.9-9.4c.1-.3.4-.5.7-.5h19.9c.3 0 .5.1.6.3.2.2.2.5.1.7l-3.1 9.5c-.1.3-.4.5-.7.5zm-19.6-1.5h19.1l2.6-8h-18.4z"/></g><g id="&lt;Group&gt;"><path id="&lt;Compound Path&gt;" class="s2" d="M205.6 326.1h-20.7c-.2 0-.5-.1-.6-.3-.1-.2-.2-.4-.1-.7l2.5-9.4c.1-.4.4-.6.7-.6h19.9q.4 0 .6.3.2.2.2.6l-1.7 9.5c-.1.3-.4.6-.8.6zm-19.7-1.5H205l1.4-8H188z"/></g><g id="&lt;Group&gt;"><path id="&lt;Compound Path&gt;" class="s2" d="M241.5 326.1h-20.8q-.3 0-.5-.3-.3-.2-.2-.6l1.1-9.4c0-.4.3-.7.7-.7h20q.3 0 .5.2.2.3.2.6l-.3 9.4c0 .5-.3.8-.7.8zm-19.9-1.5h19.1l.3-8h-18.5z"/></g><g id="&lt;Group&gt;"><path id="&lt;Compound Path&gt;" class="s2" d="M277.3 326.1h-20.7c-.5 0-.8-.3-.8-.8l-.3-9.4q0-.3.2-.6.2-.2.6-.2h19.9c.4 0 .7.3.7.7l1.2 9.4q0 .4-.2.6-.3.3-.6.3zm-20-1.5h19.2l-1-8H257z"/></g><g id="&lt;Group&gt;"><path id="&lt;Compound Path&gt;" class="s2" d="M313.1 326.1h-20.7c-.4 0-.7-.3-.8-.6l-1.7-9.5q0-.4.2-.6c.2-.2.4-.3.6-.3h19.9c.4 0 .7.2.7.6l2.6 9.4c0 .3 0 .5-.2.7-.1.2-.3.3-.6.3zm-20.1-1.5h19.2l-2.2-8h-18.4z"/></g><g id="&lt;Group&gt;"><path id="&lt;Compound Path&gt;" class="s2" d="M349 326.1h-20.8c-.3 0-.6-.2-.7-.5l-3.1-9.5c-.1-.2 0-.5.1-.7.1-.2.4-.3.6-.3h20c.3 0 .5.2.6.5l4 9.4c.1.3 0 .5-.1.7-.1.3-.4.4-.6.4zm-20.2-1.5h19.1l-3.3-8h-18.5z"/></g><g id="&lt;Group&gt;"><path id="&lt;Compound Path&gt;" class="s2" d="M384.8 326.1h-20.7c-.3 0-.6-.2-.7-.5l-4.5-9.4c-.1-.3-.1-.5 0-.8.1-.2.4-.3.6-.3h20c.3 0 .5.1.6.4l5.4 9.5c.1.2.1.5 0 .7-.2.2-.4.4-.7.4zm-20.3-1.5h19l-4.5-8h-18.3z"/></g></g></g><g id="&lt;Group&gt;"><g id="&lt;Group&gt;"><g id="&lt;Group&gt;"><path id="&lt;Compound Path&gt;" class="s2" d="M111.5 339.4H90.8c-.3 0-.6-.2-.7-.4-.1-.2-.1-.5 0-.7l5.3-9.5c.2-.3.4-.4.7-.4H116c.3 0 .5.1.7.3.1.3.1.5 0 .8l-4.5 9.4c-.1.3-.4.5-.7.5zM92 337.9h19l3.8-8H96.5z"/></g><g id="&lt;Group&gt;"><path id="&lt;Compound Path&gt;" class="s2" d="M147.3 339.4h-20.7c-.3 0-.5-.2-.6-.4-.2-.2-.2-.4-.1-.7l3.9-9.4c.1-.3.4-.5.7-.5h20c.2 0 .4.1.6.3.1.2.1.4.1.7l-3.1 9.5c-.1.3-.4.5-.8.5zm-19.6-1.5h19.1l2.6-8H131z"/></g><g id="&lt;Group&gt;"><path id="&lt;Compound Path&gt;" class="s2" d="M183.2 339.4h-20.8c-.2 0-.4-.1-.6-.3-.1-.2-.2-.4-.1-.7l2.5-9.4c.1-.4.4-.6.7-.6h20q.3 0 .6.3.2.2.1.6l-1.7 9.5c0 .3-.4.6-.7.6zm-19.8-1.5h19.2l1.4-8h-18.5z"/></g><g id="&lt;Group&gt;"><path id="&lt;Compound Path&gt;" class="s2" d="M219 339.4h-20.7q-.4 0-.6-.3-.2-.2-.2-.6l1.1-9.4c.1-.4.4-.7.8-.7h19.9q.3 0 .5.2.3.3.3.6l-.3 9.4c0 .5-.4.8-.8.8zm-19.9-1.5h19.2l.2-8H200z"/></g><g id="&lt;Group&gt;"><path id="&lt;Compound Path&gt;" class="s2" d="M254.8 339.4h-20.7c-.4 0-.7-.3-.8-.8l-.3-9.4q0-.3.3-.6.2-.2.5-.2h19.9c.4 0 .7.3.8.7l1.1 9.4q0 .4-.2.6-.2.3-.6.3zm-20-1.5H254l-.9-8h-18.5z"/></g><g id="&lt;Group&gt;"><path id="&lt;Compound Path&gt;" class="s2" d="M290.7 339.4h-20.8c-.3 0-.6-.3-.7-.6l-1.7-9.5q-.1-.4.2-.6c.1-.2.3-.3.5-.3h20c.3 0 .6.2.7.6l2.5 9.4c.1.3 0 .5-.1.7-.2.2-.4.3-.6.3zm-20.1-1.5h19.1l-2.1-8h-18.5z"/></g><g id="&lt;Group&gt;"><path id="&lt;Compound Path&gt;" class="s2" d="M326.5 339.4h-20.7c-.4 0-.7-.2-.8-.5l-3.1-9.5c0-.3 0-.5.1-.7.2-.2.4-.3.7-.3h19.9c.3 0 .6.2.7.5l3.9 9.4c.1.3.1.5-.1.7-.1.2-.3.4-.6.4zm-20.2-1.5h19.1l-3.3-8h-18.4z"/></g><g id="&lt;Group&gt;"><path id="&lt;Compound Path&gt;" class="s2" d="M362.3 339.4h-20.7c-.3 0-.6-.2-.7-.5l-4.5-9.4c-.1-.3-.1-.5 0-.8.2-.2.4-.3.7-.3H357c.3 0 .5.1.7.4l5.3 9.5c.1.2.1.5 0 .7-.1.2-.4.4-.7.4zm-20.2-1.5h19l-4.5-8h-18.3z"/></g><g id="&lt;Group&gt;"><path id="&lt;Compound Path&gt;" class="s2" d="M397.4 339.4h-20.7c-.3 0-.6-.2-.7-.5l-4.5-9.4c-.1-.3-.1-.5 0-.8.2-.2.4-.3.7-.3h19.9c.3 0 .5.1.7.4l5.3 9.5c.1.2.1.5 0 .7-.2.2-.4.4-.7.4zm-20.2-1.5h19l-4.5-8h-18.3z"/></g></g></g></g><g id="&lt;Group&gt;"><g id="&lt;Group&gt;"><g id="&lt;Group&gt;"><path id="&lt;Path&gt;" class="s4" d="M334 100.3v161c0 9.6-7.8 17.4-17.4 17.4H180.4c-9.5 0-17.3-7.8-17.3-17.4v-161c0-9.6 7.8-17.4 17.3-17.4h136.2c9.6 0 17.4 7.8 17.4 17.4z"/></g><g id="&lt;Group&gt;"><path id="&lt;Path&gt;" class="s1" d="M281 92.7c0 2.4-1.9 4.3-4.3 4.3-2.3 0-4.2-1.9-4.2-4.3s1.9-4.3 4.2-4.3c2.4 0 4.3 1.9 4.3 4.3z"/></g><g id="&lt;Group&gt;"><path id="&lt;Path&gt;" class="s3" d="M299.9 92.7c0 2.4-1.9 4.3-4.3 4.3s-4.3-1.9-4.3-4.3 1.9-4.3 4.3-4.3 4.3 1.9 4.3 4.3z"/></g><g id="&lt;Group&gt;"><path id="&lt;Path&gt;" class="s2" d="M318.8 92.7c0 2.4-2 4.3-4.3 4.3-2.4 0-4.3-1.9-4.3-4.3s1.9-4.3 4.3-4.3c2.3 0 4.3 1.9 4.3 4.3z"/></g><g id="&lt;Group&gt;"><path id="&lt;Compound Path&gt;" class="s2" d="M316.6 279.4H180.4c-9.9 0-18.1-8.1-18.1-18.1v-161c0-10 8.2-18.1 18.1-18.1h136.2c10 0 18.1 8.1 18.1 18.1v161c0 10-8.1 18.1-18.1 18.1zM180.4 83.7c-9.1 0-16.6 7.4-16.6 16.6v161c0 9.2 7.5 16.6 16.6 16.6h136.2c9.2 0 16.6-7.4 16.6-16.6v-161c0-9.2-7.4-16.6-16.6-16.6z"/></g><g id="&lt;Group&gt;"><path id="&lt;Path&gt;" class="s2" d="M334 101H163.1c-.4 0-.8-.3-.8-.7 0-.4.4-.8.8-.8H334c.4 0 .7.4.7.8s-.3.7-.7.7z"/></g></g><g id="&lt;Group&gt;"><path id="&lt;Path&gt;" class="s3" d="m222 122.2-18.6-7.9-18.5 7.9V78.4H222z"/></g><g id="&lt;Group&gt;"><g id="&lt;Group&gt;"><g id="&lt;Group&gt;"><path id="&lt;Path&gt;" class="s1" d="M218.9 179h-43.1v-46.5h43.1z"/></g></g><g id="&lt;Group&gt;"><g id="&lt;Group&gt;"><path id="&lt;Path&gt;" class="s0" d="M321.3 136.4h-96.5v-3.9h96.5z"/></g><g id="&lt;Group&gt;"><path id="&lt;Path&gt;" class="s0" d="M321.3 147h-96.5v-4h96.5z"/></g><g id="&lt;Group&gt;"><path id="&lt;Path&gt;" class="s0" d="M321.3 157.6h-96.5v-4h96.5z"/></g><g id="&lt;Group&gt;"><path id="&lt;Path&gt;" class="s0" d="M321.3 168.1h-96.5v-3.9h96.5z"/></g><g id="&lt;Group&gt;"><path id="&lt;Path&gt;" class="s0" d="M280.6 178.7h-55.8v-3.9h55.8z"/></g><g id="&lt;Group&gt;"><g id="&lt;Group&gt;"><path id="&lt;Path&gt;" class="s0" d="M321.3 199.3H175.8v-4h145.5z"/></g><g id="&lt;Group&gt;"><path id="&lt;Path&gt;" class="s0" d="M321.3 209.8H175.8v-3.9h145.5z"/></g><g id="&lt;Group&gt;"><path id="&lt;Path&gt;" class="s0" d="M321.3 220.4H175.8v-3.9h145.5z"/></g><g id="&lt;Group&gt;"><path id="&lt;Path&gt;" class="s0" d="M321.3 231H175.8v-4h145.5z"/></g><g id="&lt;Group&gt;"><path id="&lt;Path&gt;" class="s0" d="M280.6 241.6H175.8v-4h104.8z"/></g></g></g><g id="&lt;Group&gt;"><path id="&lt;Path&gt;" class="s1" d="M320.7 124.1h-67v-11h67z"/></g><g id="&lt;Group&gt;"><path id="&lt;Path&gt;" class="s2" d="M252.7 268.6h-.3l-15.4-7.3c-.3-.2-.5-.7-.3-1 .2-.4.6-.6 1-.4l15 7.2 15-7.2c.4-.2.8 0 1 .4.2.3 0 .8-.4 1l-15.3 7.3h-.3z"/></g></g></g><g id="&lt;Group&gt;"><g id="&lt;Group&gt;"><path id="&lt;Path&gt;" class="s4" d="M463.4 444.3h-88.9l-24-90.7s-24.5-25.8-36.1-44.3c-11.7-18.5-16.2-24.6-17.2-30.7-.8-5.4-7.2-44.5-8.5-52.9-.2-.9.1-1.8.7-2.5q.2-.2.4-.3c2.8-2.1 9.6-4.9 17.4 8.5 8.9 15.4 10.2 34.9 10.4 39.4l3.2 5.4 8.6 14.6 10.9 18.2s11.5-2.1 19.4-11.5l-10.9-18.2-8.6-14.6-3.4-5.8h-.1l-23.2-32.8s-11.5-4.9-22.8-10.2c-11.2-5.4-14.8-23.9-6.6-22.6 3.1.5 10 3 17.3 5.9 11.9 4.8 25.1 10.7 25.1 10.7 5.1-4.7 13.9-2 13.9-2s6.1-3.2 12.2-2.3c6.2.9 34.2 27.3 38.7 36 4.4 8.8 14.8 91.1 14.8 91.1z"/></g><g id="&lt;Group&gt;"><path id="&lt;Path&gt;" class="s6" d="M295.8 200c-.1 1.5-.6 3.1-1.4 4.5-1 1.5-2.9 2-4.5 1.4l-8-3.3c-1.5-.7-2.5-2.2-2.3-3.9.2-1.3.6-2.8 1.4-4.1.9-1.4 2.7-2 4.3-1.4l8.1 2.8c1.6.6 2.7 2.3 2.4 4z"/></g><g id="&lt;Group&gt;"><path id="&lt;Path&gt;" class="s6" d="M299.2 237.5c-2.2 1.7-5.4 1.8-7.2 1.7-.7 0-1.2-.5-1.4-1.2l-1.8-11.5c-.1-.5.1-1.1.5-1.4 2.3-1.7 4.9-1.7 6.3-1.6.5.1.9.4 1.1.8 1.5 3.1 2.6 9.6 3 11.8.1.5-.1 1-.5 1.4z"/></g><g id="&lt;Group&gt;"><path id="&lt;Path&gt;" d="M340.2 264.7c-7.9 9.3-19.4 11.5-19.4 11.5l-3.2-5.4c-.2-4.5-1.5-24-10.4-39.4-7.8-13.4-14.6-10.6-17.4-8.5q-.2.1-.4.3l-23.3-39.3c.4.6 1.4 2 2.8 3.3l.2.3q.6.5 1.2.9.1.2.3.3l.8.4q.2.2.5.3.2.1.5.1.2.1.5.1.3.1.5.1.8 0 1.6-.5c2.1-1.2 2.6-3.6 2.5-5.6v-.2q0-.6-.1-1.1v-.2q-.1-.2-.1-.4c-.1-.9-.3-1.5-.4-1.6q.1 0 .2.1 0 .1.1.2l.1.1q.3.3.8.7.2.2.3.4.3.2.5.4.1 0 .2.1.2.2.6.4l.1.1q.5.3 1.1.6.3.1.5.2l.6.2q.3.1.6.1.8.2 1.6 0l.4-.2q.3-.1.5-.2.7-.4 1-1.1l.2-.2v-.1q.1-.2.2-.6.1 0 .1-.1.1-.3.1-.5.1-.3.1-.7v-2q-.1-.9-.3-1.7 0-.3-.1-.6t-.2-.7l-.2-.8c-.3-1-.6-1.8-.6-2l16 27c-7.3-2.9-14.2-5.4-17.3-5.9-8.2-1.3-4.6 17.2 6.6 22.6 11.3 5.3 22.8 10.2 22.8 10.2l23.2 32.8h.1z" style="fill:#e6ac4b"/></g><g id="&lt;Group&gt;"><path id="&lt;Path&gt;" class="s0" d="M348.8 279.3c-7.9 9.4-19.4 11.5-19.4 11.5l-8.6-14.6s11.5-2.2 19.4-11.5z"/></g><g id="&lt;Group&gt;"><path id="&lt;Path&gt;" class="s4" d="M359.7 297.5c-7.9 9.4-19.4 11.5-19.4 11.5l-10.9-18.2s11.5-2.1 19.4-11.5z"/></g><g id="&lt;Group&gt;"><path id="&lt;Path&gt;" class="s4" d="M286.8 178.6V180q0 .4-.1.7v.1q-.1.1-.1.2v.2l-.1.1q-.1.4-.2.6v.1l-.2.2q-.3.7-1 1.1-.2.1-.5.2l-.4.2q-.8.2-1.6 0-.3 0-.6-.1l-.6-.2q-.2-.1-.5-.2-.6-.3-1.1-.6l-.1-.1q-.4-.2-.6-.4-.1-.1-.2-.1-.2-.2-.5-.4-.1-.2-.3-.4-.5-.4-.8-.7 0-.1-.1-.1-.1-.1-.1-.2-.1-.1-.2-.1c.1.1.3.7.4 1.6q0 .2.1.4v.2q.1.5.1 1.1v.2c.1 2-.4 4.4-2.5 5.6q-.8.5-1.6.5-.2 0-.5-.1-.3 0-.5-.1-.3 0-.5-.1-.3-.1-.5-.3l-.8-.4q-.2-.1-.3-.3-.6-.4-1.2-.9l-.2-.3c-1.4-1.3-2.4-2.7-2.8-3.3q-.1-.2-.2-.2l-3.7-19.4c2.1-1.1 5.3-3.3 6.7-6.3l16.5 14.2c0 .2.3 1 .6 2l.2.8q.1.4.2.7.1.3.1.6.2.8.3 1.7v.6z"/></g><g id="&lt;Group&gt;"><path id="&lt;Path&gt;" class="s2" d="M268.9 158c-1.4 3-4.6 5.2-6.7 6.3l-1.4-6.9 3.2-3.7z"/></g><g id="&lt;Group&gt;"><path id="&lt;Path&gt;" class="s2" d="M374.5 445.1c-.3 0-.6-.2-.7-.6l-24-90.5c-2-2.1-25-26.6-36.1-44.3-2-3.2-3.8-6-5.4-8.6-7.7-12.1-11-17.2-11.8-22.3-.9-5.4-7.2-44.6-8.6-53-.2-1.1.2-2.3 1-3.1q.1-.2.4-.4c1.6-1.2 4.1-2.4 7.2-1.8 4 .8 7.8 4.3 11.3 10.5 8.8 15.1 10.3 33.9 10.5 39.6l22.3 37.6c2.3-.6 11.5-3.1 18.1-10.8l-22.6-38.1-23.1-32.6c-1.6-.6-12.2-5.3-22.6-10.2-8.7-4.1-12.8-15.4-11.2-20.8.7-2.4 2.6-3.5 5-3.2 2.8.5 8.7 2.5 17.5 6 10.6 4.3 22.3 9.5 24.6 10.5 5-4.1 12.4-2.3 14-1.9 1.3-.6 6.8-3.1 12.5-2.3 6.8 1 34.9 28 39.1 36.5 4.4 8.7 14.3 86.3 14.9 91.2L464.1 444c.2.4 0 .8-.3 1-.4.2-.8 0-1-.3l-57.4-111.6q-.1-.2-.1-.3c-.1-.8-10.4-82.3-14.7-90.8-4.5-8.8-32.2-34.8-38.1-35.7-5.8-.9-11.7 2.2-11.8 2.3q-.3.1-.6 0s-8.4-2.5-13.1 1.8c-.2.2-.6.3-.8.2-.2-.1-13.3-6-25.1-10.7-8.6-3.4-14.5-5.5-17.1-5.9q-2.6-.4-3.4 2.2c-1.4 4.8 2.6 15.3 10.5 19 11.1 5.2 22.6 10.2 22.7 10.2q.2.1.3.3l23.3 32.7v.1l22.9 38.6c.2.3.1.7-.1.9-7.9 9.5-19.3 11.7-19.8 11.8-.3 0-.6-.1-.8-.4L317 271.2q-.1-.2-.1-.3c-.3-5.4-1.7-24.2-10.4-39.2-3.3-5.7-6.8-9-10.3-9.7-2.6-.5-4.7.5-6 1.5l-.2.2c-.5.5-.7 1.2-.6 1.9 1.3 8.3 7.7 47.5 8.6 52.9.8 4.9 3.9 9.8 11.6 21.8 1.6 2.6 3.4 5.4 5.4 8.6 11.5 18.2 35.8 44 36 44.2q.2.2.2.4l24.1 90.6c.1.4-.2.9-.6 1h-.2z"/></g><g id="&lt;Group&gt;"><path id="&lt;Compound Path&gt;" class="s2" d="M329.4 291.5c-.2 0-.5-.1-.6-.3l-11.8-20q-.1-.2-.1-.3c-.3-5.4-1.7-24.2-10.4-39.2-3.3-5.7-6.8-9-10.3-9.7-2.6-.5-4.7.5-6 1.5l-.2.2c-.2.2-.4.3-.6.3-.3 0-.5-.2-.6-.4l-23.3-39.3c-.2-.4-.1-.8.2-1 .4-.2.8-.1 1 .2.5.7 1.5 2 2.7 3.2l.2.2c.4.4.8.7 1.1.9.1.1.2.2.3.2l.1.1q.3.2.6.3.2.2.4.3.3 0 .5.1t.4.1q.9.1 1.7-.3 2.2-1.3 2-5v-.2q0-.5-.1-1v-.6c-.2-.6-.3-1.1-.4-1.4v-.2c-.1-.3.1-.6.4-.8.3-.1.6-.1.9.2l.1.2h.1q.2.2.2.3c.2.1.4.3.7.6l.3.3.2.1q.1.1.3.2 0 .1.1.1c.2.2.4.3.6.4l.2.2q.5.3.9.5l.1.1q.2 0 .4.1.3.1.5.2c.2 0 .3.1.5.1.5.1.9 0 1.3-.1q.2 0 .4-.1.1-.1.3-.2.5-.3.8-.7l.1-.2v-.1q.1-.2.2-.5l.1-.2V180.6l.1-.1v-.6c.1-.4.1-.8 0-1.3v-.5q-.1-.9-.2-1.6-.1-.3-.1-.5-.1-.5-.2-.8l-.2-.8c-.3-1-.6-1.7-.6-1.9-.2-.4 0-.8.3-1 .4-.2.8 0 1 .3l16 27.1c.2.2.2.6 0 .8-.2.3-.6.3-.9.2-8.6-3.4-14.5-5.5-17.1-5.9q-2.6-.4-3.4 2.2c-1.4 4.8 2.6 15.3 10.5 19 11.1 5.2 22.6 10.2 22.7 10.2q.2.1.3.3l23.3 32.7v.1l12.1 20.4c.1.3.1.6-.1.9-8 9.4-19.4 11.6-19.8 11.7h-.2zm-11.1-20.9 11.5 19.3c2.2-.5 11.4-3.1 18.1-10.7l-11.8-19.9-23.1-32.6c-1.6-.6-12.2-5.3-22.6-10.2-8.7-4.1-12.8-15.4-11.2-20.8.7-2.4 2.6-3.5 5-3.2 2.5.4 7.7 2.2 15.4 5.2l-12.2-20.6q.1.4.1.9v.5q.1.8 0 1.5v.2q0 .3-.1.6v.1q0 .2-.1.3V181.5c-.1.3-.2.5-.3.7v.1q-.1.2-.3.4-.4.7-1.2 1.2-.3.2-.6.3-.3.1-.5.2-.9.2-1.9.1c-.2 0-.5-.1-.7-.2q-.3 0-.6-.2l-.6-.2c-.4-.2-.7-.4-1.2-.7l-.2-.1q-.3-.2-.6-.5l-.1-.1-.4-.2q.1.4.1 1v.3c.2 2.9-.8 5.1-2.8 6.3-.8.4-1.7.6-2.6.5q-.3-.1-.6-.1l-.6-.2q-.3-.2-.6-.3-.3-.2-.8-.5l19.4 32.8c1.5-1.1 3.9-2.2 6.9-1.6 4 .8 7.8 4.3 11.3 10.5 8.8 15.1 10.3 33.9 10.5 39.6z"/></g><g id="&lt;Group&gt;"><path id="&lt;Compound Path&gt;" class="s2" d="M340.3 309.8c-.3 0-.5-.2-.7-.4l-10.8-18.2c-.1-.3-.2-.5-.1-.7.2-.3.4-.4.6-.5.1 0 11.3-2.2 19-11.2.1-.2.4-.3.6-.3.2 0 .5.2.6.4l10.8 18.2c.2.3.1.7-.1.9-7.9 9.5-19.3 11.7-19.8 11.8h-.1zm-9.7-18.5 10 16.9c2.3-.6 11.5-3.1 18.1-10.8l-10-16.9c-6.6 7.4-15.1 10-18.1 10.8z"/></g><g id="&lt;Group&gt;"><path id="&lt;Compound Path&gt;" class="s2" d="M273.4 190.4h-.6q-.3-.1-.6-.1l-.6-.2q-.3-.2-.6-.3-.3-.2-.8-.5h-.1l-.3-.3q-.5-.3-1.2-1l-.3-.2c-1.3-1.3-2.3-2.7-2.8-3.5l-.2-.2q-.1-.1-.1-.3l-5.1-26.2c0-.2 0-.5.2-.6l3.1-3.8q.2-.2.5-.3.3 0 .6.2l21.3 18.5q.2.1.3.4c.1.3.4 1.1.7 2l.2.8q.1.4.1.8.1.2.2.6c.1.5.1 1.1.2 1.8v.5q.1.8 0 1.5v.2q0 .3-.1.6v.1q0 .2-.1.3V181.5c-.1.3-.2.5-.3.7v.1q-.1.2-.3.4-.4.7-1.2 1.2-.3.2-.6.3-.3.1-.5.2-.9.2-1.9.1-.3-.1-.7-.2-.3 0-.6-.2l-.6-.2c-.4-.2-.7-.4-1.2-.7l-.2-.1q-.3-.2-.6-.5l-.1-.1-.4-.2q.1.4.1 1v.3c.2 2.9-.8 5.1-2.8 6.3q-.9.5-2 .5zm-.4-1.5q.9.1 1.7-.3 2.2-1.3 2-5v-.2q0-.5-.1-1v-.6c-.2-.6-.3-1.1-.4-1.4v-.2c-.1-.3.1-.6.4-.8.3-.1.6-.1.9.2l.1.2h.1q.2.2.2.3c.2.1.4.3.7.6l.3.3.2.1q.1.1.3.2 0 .1.1.1c.2.2.4.3.6.4l.2.2q.5.3.9.5l.1.1q.2 0 .4.1.3.1.5.2.3.1.5.1.7.1 1.3-.1.2 0 .4-.1.1-.1.3-.2.5-.3.8-.7l.1-.2v-.1q.1-.2.2-.5l.1-.2V180.6l.1-.1v-.6c.1-.4.1-.8 0-1.3v-.5q-.1-.9-.2-1.6-.1-.3-.1-.5-.1-.5-.2-.8l-.2-.8c-.2-.8-.5-1.5-.6-1.8L264 154.8l-2.4 2.8 5.1 25.8.1.1c.4.7 1.4 2 2.6 3.2l.2.2c.4.4.8.7 1.1.9.1.1.2.2.3.2l.1.1q.3.2.6.3.2.2.4.3.3 0 .5.1t.4.1z"/></g><g id="&lt;Group&gt;"><path id="&lt;Path&gt;" class="s2" d="M284.1 194c-.3 0-.6-.1-.7-.4l-6-12c-.2-.4 0-.9.3-1 .4-.2.9-.1 1 .3l6 12.1c.2.3.1.8-.3 1h-.3z"/></g><g id="&lt;Group&gt;"><path id="&lt;Path&gt;" class="s2" d="M332.2 272.2c-.3 0-.5-.1-.7-.3l-14.9-24.2c-.2-.4-.1-.8.3-1 .3-.2.8-.1 1 .2l14.9 24.2c.2.3.1.8-.2 1q-.2.1-.4.1z"/></g><g id="&lt;Group&gt;"><path id="&lt;Path&gt;" class="s2" d="M359.7 248.1q-.4 0-.6-.3l-33.2-37.4c-.3-.3-.2-.8.1-1.1.3-.2.8-.2 1 .1l33.2 37.4c.3.3.3.8 0 1.1q-.3.2-.5.2z"/></g><g id="&lt;Group&gt;"><path id="&lt;Path&gt;" class="s2" d="M371.5 237q-.3 0-.5-.2l-31.1-28.3c-.3-.3-.4-.8-.1-1.1.3-.3.8-.3 1.1 0l31.1 28.3c.3.3.4.7.1 1q-.3.3-.6.3z"/></g><g id="&lt;Group&gt;"><path id="&lt;Path&gt;" class="s2" d="M350.5 354.4c-.4 0-.7-.2-.8-.6 0-.4.2-.8.6-.9.1 0 9.2-1.9 14.6-4 .4-.2.8 0 .9.4.2.4 0 .8-.4 1-5.5 2.1-14.4 4-14.8 4.1h-.1z"/></g></g><g id="&lt;Group&gt;"><g id="&lt;Group&gt;"><g id="&lt;Group&gt;"><path id="&lt;Path&gt;" class="s6" d="M114.3 143.3c-1.8 0-3.4-1.6-3.4-3.4 0-1.9 1.6-3.5 3.4-3.5 1.9 0 3.5 1.6 3.5 3.5 0 1.8-1.6 3.4-3.5 3.4z"/></g></g><g id="&lt;Group&gt;"><g id="&lt;Group&gt;"><path id="&lt;Path&gt;" class="s6" d="M130.8 143.3c-1.8 0-3.4-1.6-3.4-3.4 0-1.9 1.6-3.5 3.4-3.5 1.9 0 3.5 1.6 3.5 3.5 0 1.8-1.6 3.4-3.5 3.4z"/></g></g><g id="&lt;Group&gt;"><g id="&lt;Group&gt;"><path id="&lt;Path&gt;" class="s6" d="M110.9 156.4c0-1.9 1.6-3.5 3.4-3.5 1.9 0 3.5 1.6 3.5 3.5 0 1.8-1.6 3.4-3.5 3.4-1.8 0-3.4-1.6-3.4-3.4z"/></g></g><g id="&lt;Group&gt;"><g id="&lt;Group&gt;"><path id="&lt;Path&gt;" class="s6" d="M110.9 172.8c0-1.8 1.6-3.4 3.4-3.4 1.9 0 3.5 1.6 3.5 3.4 0 1.9-1.6 3.5-3.5 3.5-1.8 0-3.4-1.6-3.4-3.5z"/></g></g><g id="&lt;Group&gt;"><g id="&lt;Group&gt;"><path id="&lt;Path&gt;" class="s6" d="M110.9 189.3c0-1.8 1.6-3.4 3.4-3.4 1.9 0 3.5 1.6 3.5 3.4 0 1.9-1.6 3.5-3.5 3.5-1.8 0-3.4-1.6-3.4-3.5z"/></g></g><g id="&lt;Group&gt;"><g id="&lt;Group&gt;"><path id="&lt;Path&gt;" class="s6" d="M110.9 205.8c0-1.9 1.6-3.4 3.4-3.4 1.9 0 3.5 1.5 3.5 3.4s-1.6 3.4-3.5 3.4c-1.8 0-3.4-1.5-3.4-3.4z"/></g></g><g id="&lt;Group&gt;"><g id="&lt;Group&gt;"><path id="&lt;Path&gt;" class="s6" d="M130.8 159.8c-1.8 0-3.4-1.6-3.4-3.4 0-1.9 1.6-3.5 3.4-3.5 1.9 0 3.5 1.6 3.5 3.5 0 1.8-1.6 3.4-3.5 3.4z"/></g></g><g id="&lt;Group&gt;"><g id="&lt;Group&gt;"><path id="&lt;Path&gt;" class="s6" d="M127.4 172.8c0-1.8 1.6-3.4 3.4-3.4 1.9 0 3.5 1.6 3.5 3.4 0 1.9-1.6 3.5-3.5 3.5-1.8 0-3.4-1.6-3.4-3.5z"/></g></g><g id="&lt;Group&gt;"><g id="&lt;Group&gt;"><path id="&lt;Path&gt;" class="s6" d="M127.4 189.3c0-1.8 1.6-3.4 3.4-3.4 1.9 0 3.5 1.6 3.5 3.4 0 1.9-1.6 3.5-3.5 3.5-1.8 0-3.4-1.6-3.4-3.5z"/></g></g><g id="&lt;Group&gt;"><g id="&lt;Group&gt;"><path id="&lt;Path&gt;" class="s6" d="M127.4 205.8c0-1.9 1.6-3.4 3.4-3.4 1.9 0 3.5 1.5 3.5 3.4s-1.6 3.4-3.5 3.4c-1.8 0-3.4-1.5-3.4-3.4z"/></g></g><g id="&lt;Group&gt;"><g id="&lt;Group&gt;"><path id="&lt;Path&gt;" class="s6" d="M110.9 222.3c0-1.9 1.6-3.4 3.4-3.4 1.9 0 3.5 1.5 3.5 3.4s-1.6 3.4-3.5 3.4c-1.8 0-3.4-1.5-3.4-3.4z"/></g></g><g id="&lt;Group&gt;"><g id="&lt;Group&gt;"><path id="&lt;Path&gt;" class="s6" d="M127.4 222.3c0-1.9 1.6-3.4 3.4-3.4 1.9 0 3.5 1.5 3.5 3.4s-1.6 3.4-3.5 3.4c-1.8 0-3.4-1.5-3.4-3.4z"/></g></g></g><g id="&lt;Group&gt;"><g id="&lt;Group&gt;"><g id="&lt;Group&gt;"><path id="&lt;Path&gt;" class="s6" d="M366.8 143.4c-1.9 0-3.4-1.5-3.4-3.4s1.5-3.4 3.4-3.4 3.4 1.5 3.4 3.4-1.5 3.4-3.4 3.4z"/></g></g><g id="&lt;Group&gt;"><g id="&lt;Group&gt;"><path id="&lt;Path&gt;" class="s6" d="M383.3 143.4c-1.9 0-3.4-1.5-3.4-3.4s1.5-3.4 3.4-3.4 3.4 1.5 3.4 3.4-1.5 3.4-3.4 3.4z"/></g></g><g id="&lt;Group&gt;"><g id="&lt;Group&gt;"><path id="&lt;Path&gt;" class="s6" d="M363.4 156.5c0-1.9 1.5-3.4 3.4-3.4s3.4 1.5 3.4 3.4-1.5 3.4-3.4 3.4-3.4-1.5-3.4-3.4z"/></g></g><g id="&lt;Group&gt;"><g id="&lt;Group&gt;"><path id="&lt;Path&gt;" class="s6" d="M363.4 173c0-1.9 1.5-3.4 3.4-3.4s3.4 1.5 3.4 3.4-1.5 3.4-3.4 3.4-3.4-1.5-3.4-3.4z"/></g></g><g id="&lt;Group&gt;"><g id="&lt;Group&gt;"><path id="&lt;Path&gt;" class="s6" d="M363.4 189.5c0-1.9 1.5-3.4 3.4-3.4s3.4 1.5 3.4 3.4-1.5 3.4-3.4 3.4-3.4-1.5-3.4-3.4z"/></g></g><g id="&lt;Group&gt;"><g id="&lt;Group&gt;"><path id="&lt;Path&gt;" class="s6" d="M383.3 159.9c-1.9 0-3.4-1.5-3.4-3.4s1.5-3.4 3.4-3.4 3.4 1.5 3.4 3.4-1.5 3.4-3.4 3.4z"/></g></g><g id="&lt;Group&gt;"><g id="&lt;Group&gt;"><path id="&lt;Path&gt;" class="s6" d="M379.9 173c0-1.9 1.5-3.4 3.4-3.4s3.4 1.5 3.4 3.4-1.5 3.4-3.4 3.4-3.4-1.5-3.4-3.4z"/></g></g><g id="&lt;Group&gt;"><g id="&lt;Group&gt;"><path id="&lt;Path&gt;" class="s6" d="M379.9 189.5c0-1.9 1.5-3.4 3.4-3.4s3.4 1.5 3.4 3.4-1.5 3.4-3.4 3.4-3.4-1.5-3.4-3.4z"/></g></g><g id="&lt;Group&gt;"><g id="&lt;Group&gt;"><path id="&lt;Path&gt;" class="s6" d="M349.8 142.9c-1.9 0-3.4-1.6-3.4-3.4 0-1.9 1.5-3.5 3.4-3.5s3.4 1.6 3.4 3.5c0 1.8-1.5 3.4-3.4 3.4z"/></g></g><g id="&lt;Group&gt;"><g id="&lt;Group&gt;"><path id="&lt;Path&gt;" class="s6" d="M349.8 159.4c-1.9 0-3.4-1.6-3.4-3.5 0-1.8 1.5-3.4 3.4-3.4s3.4 1.6 3.4 3.4c0 1.9-1.5 3.5-3.4 3.5z"/></g></g><g id="&lt;Group&gt;"><g id="&lt;Group&gt;"><path id="&lt;Path&gt;" class="s6" d="M346.4 172.4c0-1.8 1.5-3.4 3.4-3.4s3.4 1.6 3.4 3.4c0 1.9-1.5 3.5-3.4 3.5s-3.4-1.6-3.4-3.5z"/></g></g><g id="&lt;Group&gt;"><g id="&lt;Group&gt;"><path id="&lt;Path&gt;" class="s6" d="M346.4 188.9c0-1.9 1.5-3.4 3.4-3.4s3.4 1.5 3.4 3.4-1.5 3.4-3.4 3.4-3.4-1.5-3.4-3.4z"/></g></g></g><g id="&lt;Group&gt;"><g id="&lt;Group&gt;"><path id="&lt;Path&gt;" class="s6" d="M368.8 70.1c0 1.1-.8 1.9-1.9 1.9H362v5c0 1-.9 1.9-1.9 1.9-.6 0-1-.2-1.4-.6-.3-.3-.5-.8-.5-1.3v-5h-5c-1.1 0-1.9-.8-1.9-1.9 0-.5.2-1 .5-1.3.4-.4.9-.6 1.4-.6h5v-4.9c0-1.1.8-1.9 1.9-1.9.5 0 1 .2 1.3.5.3.4.6.8.6 1.4v4.9h4.9c1.1 0 1.9.9 1.9 1.9z"/></g><g id="&lt;Group&gt;"><path id="&lt;Path&gt;" class="s6" d="M364.8 91.5c-3.3 0-3.3 5.1 0 5.1s3.3-5.1 0-5.1z"/></g><g id="&lt;Group&gt;"><path id="&lt;Path&gt;" class="s6" d="M388.3 70.7c-3.3 0-3.3 5.1 0 5.1s3.4-5.1 0-5.1z"/></g></g><g id="&lt;Group&gt;"><g id="&lt;Group&gt;"><path id="&lt;Path&gt;" class="s6" d="M448.5 154c0 1.1-.9 1.9-1.9 1.9h-5v5c0 1.1-.8 1.9-1.9 1.9-.5 0-1-.2-1.3-.5-.4-.4-.6-.9-.6-1.4v-5h-5c-1 0-1.9-.8-1.9-1.9 0-.5.3-1 .6-1.3.3-.3.8-.6 1.3-.6h5v-4.9c0-1.1.9-1.9 1.9-1.9.5 0 1 .2 1.4.5.3.4.5.9.5 1.4v4.9h5c1 0 1.9.9 1.9 1.9z"/></g><g id="&lt;Group&gt;"><path id="&lt;Path&gt;" class="s6" d="M420.3 169.5c-3.3 0-3.3 5.1 0 5.1s3.4-5.1 0-5.1z"/></g><g id="&lt;Group&gt;"><path id="&lt;Path&gt;" class="s6" d="M423.1 131.9c-3.3 0-3.3 5.1 0 5.1s3.3-5.1 0-5.1z"/></g></g><g id="&lt;Group&gt;"><g id="&lt;Group&gt;"><path id="&lt;Path&gt;" class="s6" d="M143 92.7c0 1-.8 1.9-1.9 1.9h-4.9v5c0 1-.9 1.9-1.9 1.9-.6 0-1-.3-1.4-.6-.3-.3-.5-.8-.5-1.3v-5h-5c-1.1 0-1.9-.9-1.9-1.9 0-.5.2-1 .5-1.4.4-.3.9-.5 1.4-.5h5v-5c0-1 .8-1.9 1.9-1.9.5 0 1 .2 1.3.6.3.3.6.8.6 1.3v5h4.9c1.1 0 1.9.8 1.9 1.9z"/></g><g id="&lt;Group&gt;"><path id="&lt;Path&gt;" class="s6" d="M112 86.4c-3.3 0-3.3 5.1 0 5.1s3.3-5.1 0-5.1z"/></g><g id="&lt;Group&gt;"><path id="&lt;Path&gt;" class="s6" d="M148 68.4c-3.3 0-3.3 5.1 0 5.1s3.3-5.1 0-5.1z"/></g></g><g id="&lt;Group&gt;"><g id="&lt;Group&gt;"><path id="&lt;Path&gt;" class="s6" d="M64.9 173.6c0 1.1-.8 1.9-1.9 1.9h-4.9v5c0 1-.9 1.9-1.9 1.9-.6 0-1-.2-1.4-.6-.3-.3-.5-.8-.5-1.3v-5h-5c-1.1 0-1.9-.8-1.9-1.9 0-.5.2-1 .5-1.3.4-.4.9-.6 1.4-.6h5v-4.9c0-1.1.8-1.9 1.9-1.9.5 0 1 .2 1.3.5.3.4.6.8.6 1.4v4.9H63c1.1 0 1.9.9 1.9 1.9z"/></g><g id="&lt;Group&gt;"><path id="&lt;Path&gt;" class="s6" d="M33.2 167.7c-3.3 0-3.3 5.2 0 5.2s3.3-5.2 0-5.2z"/></g></g></g></svg>