<svg version="1.2" xmlns="http://www.w3.org/2000/svg" width="500" height="500"><style>.s0{opacity:.7}.s0,.s4{fill:#fff}.s5{opacity:.3;fill:#000}.s6,.s7{fill:none;stroke-linecap:round;stroke-linejoin:round}.s6{opacity:.3;stroke:#263238}.s7{stroke:#92e3a9;stroke-width:3}.s8{fill:#92e3a9}.s10,.s9{fill:#000}.s10{opacity:.7}.s11{opacity:.4;fill:#58ace4}.s12,.s16{fill:none;stroke:#263238;stroke-linecap:round;stroke-linejoin:round}.s16{stroke-width:2}</style><g id="Background Simple"><g id="&lt;Group&gt;"><path id="&lt;Path&gt;" class="s0" d="M67.9 167.1s-27.8 72 11.3 144.5c39.2 72.5 119.9 110.8 184.5 143.5 64.6 32.8 131.7 16.8 163.5-36.8 31.9-53.6-11.8-91.9-11.9-168.4 0-76.5 11.5-96.8-29.9-161.4-41.4-64.6-143.1-78.9-219.9-31-76.9 48-97.6 109.6-97.6 109.6z"/></g><g id="&lt;Group&gt;"><path id="&lt;Path&gt;" d="M235.1 35.7c124.1-11 124.3 59 180.2 124.1 55.8 65.2 67.8 94.8 46.7 170-21 75.1-92 134-179.9 100.6-87.8-33.3-138.1-1.3-193.5-30.9-55.4-29.7-76-86.9-35.4-154.4 40.5-67.5 29-195.8 181.9-209.4z" style="fill:#d0e4fc"/><path id="&lt;Path&gt;" class="s0" d="M235.1 35.7c124.1-11 124.3 59 180.2 124.1 55.8 65.2 67.8 94.8 46.7 170-21 75.1-92 134-179.9 100.6-87.8-33.3-138.1-1.3-193.5-30.9-55.4-29.7-76-86.9-35.4-154.4 40.5-67.5 29-195.8 181.9-209.4z"/></g></g><g id="Document"><g id="&lt;Group&gt;"><path id="&lt;Path&gt;" d="m347.8 336.6-194.9 21.7-30.1-271 194.9-21.6z" style="fill:#fff;stroke:#263238;stroke-linecap:round;stroke-linejoin:round"/><path id="&lt;Path&gt;" d="M321.9 103.2 127 124.8l-4.2-37.5 194.9-21.6z" style="fill:#bfbfbf;stroke:#263238;stroke-linecap:round;stroke-linejoin:round"/><path id="&lt;Path&gt;" class="s4" d="m263.5 82.9-84.1 9.4c-1.6.2-2.7 1.6-2.5 3.2.1 1.5 1.6 2.7 3.1 2.5l84.2-9.4c1.6-.1 2.7-1.6 2.5-3.1-.2-1.6-1.6-2.8-3.2-2.6zM243.8 97l-42.1 4.7c-.7.1-1.3.8-1.2 1.6.1.8.8 1.3 1.6 1.3l42-4.7c.8-.1 1.4-.8 1.3-1.6-.1-.8-.8-1.4-1.6-1.3z"/><g id="&lt;Group&gt;"><path id="&lt;Path&gt;" class="s5" d="M275.3 129.4 165 141.7c-.6 0-1 .6-.9 1.2.1.6.6 1 1.2.9l110.2-12.3c.6 0 1-.5.9-1.1 0-.6-.6-1-1.1-1zM276.1 137.1l-126.8 14.1c-.5 0-1 .6-.9 1.2.1.5.6 1 1.2.9l126.7-14.1c.6-.1 1.1-.6 1-1.2-.1-.6-.6-1-1.2-.9zM243.9 148.4l-93.7 10.4c-.6.1-1 .6-1 1.2.1.6.6 1 1.2 1l93.7-10.5c.6 0 1-.6.9-1.1 0-.6-.5-1.1-1.1-1z"/><g id="&lt;Group&gt;"><path id="&lt;Path&gt;" class="s6" d="m305.1 142-11.2 1.2c-1.5.2-2.9-.9-3.1-2.4l-1.2-11.2c-.2-1.5.9-2.8 2.4-3l11.2-1.2c1.5-.2 2.9.9 3 2.4l1.3 11.2c.1 1.5-.9 2.8-2.4 3z"/><path id="&lt;Path&gt;" class="s7" d="m294 133.9 3.7 3.5 4.8-7.4"/></g></g><g id="&lt;Group&gt;"><path id="&lt;Path&gt;" class="s5" d="m279.3 165.7-110.2 12.2c-.6.1-1 .6-1 1.2.1.6.6 1 1.2.9l110.2-12.2c.6-.1 1-.6 1-1.2-.1-.6-.6-1-1.2-.9zM280.1 173.3l-126.7 14.1c-.6.1-1 .6-1 1.2.1.6.6 1 1.2.9l126.8-14.1c.6 0 1-.6.9-1.1 0-.6-.6-1.1-1.2-1zM247.9 184.6l-93.7 10.5c-.6 0-1 .6-.9 1.1 0 .6.6 1.1 1.2 1l93.6-10.4c.6-.1 1-.6 1-1.2-.1-.6-.6-1-1.2-1z"/><g id="&lt;Group&gt;"><path id="&lt;Path&gt;" class="s6" d="m309.1 178.2-11.2 1.3c-1.5.1-2.9-.9-3-2.4l-1.3-11.2c-.1-1.5.9-2.9 2.4-3l11.2-1.3c1.5-.2 2.9.9 3.1 2.4l1.2 11.2c.2 1.5-.9 2.9-2.4 3z"/><path id="&lt;Path&gt;" class="s7" d="m298 170.2 3.7 3.5 4.9-7.5"/></g></g><g id="&lt;Group&gt;"><path id="&lt;Path&gt;" class="s5" d="m283.3 201.9-110.2 12.3c-.6 0-1 .6-1 1.1.1.6.6 1.1 1.2 1L283.6 204c.5 0 1-.6.9-1.2-.1-.5-.6-1-1.2-.9z"/><path id="&lt;Path&gt;" fill-rule="evenodd" class="s5" d="m284.2 209.5-126.8 14.1c-.6.1-1 .6-.9 1.2 0 .6.5 1 1.1 1l126.8-14.1c.6-.1 1-.6.9-1.2 0-.6-.5-1-1.1-1z"/><path id="&lt;Path&gt;" class="s5" d="m251.9 220.9-93.6 10.4c-.6.1-1.1.6-1 1.2.1.6.6 1 1.2.9l93.7-10.4c.6-.1 1-.6.9-1.2-.1-.6-.6-1-1.2-.9z"/><g id="&lt;Group&gt;"><path id="&lt;Path&gt;" class="s6" d="m313.1 214.5-11.2 1.2c-1.5.2-2.8-.9-3-2.4l-1.2-11.2c-.2-1.5.9-2.8 2.4-3l11.2-1.3c1.5-.1 2.8 1 3 2.5l1.2 11.1c.2 1.5-.9 2.9-2.4 3.1z"/><path id="&lt;Path&gt;" class="s7" d="m302.1 206.4 3.6 3.5 4.9-7.4"/></g></g><g id="&lt;Group&gt;"><path id="&lt;Path&gt;" class="s5" d="m287.3 238.1-110.2 12.3c-.6.1-1 .6-.9 1.2 0 .6.6 1 1.2.9l110.2-12.2c.6-.1 1-.6.9-1.2 0-.6-.6-1-1.2-1zM288.2 245.8l-126.8 14.1c-.6.1-1 .6-.9 1.2.1.6.6 1 1.2.9l126.7-14.1c.6-.1 1-.6 1-1.2-.1-.6-.6-1-1.2-.9zM256 257.1l-93.7 10.4c-.6.1-1 .6-1 1.2.1.6.6 1 1.2 1l93.7-10.5c.6 0 1-.5.9-1.1 0-.6-.6-1-1.1-1z"/><g id="&lt;Group&gt;"><path id="&lt;Path&gt;" class="s6" d="M317.1 250.7 306 252c-1.5.1-2.9-1-3.1-2.5l-1.2-11.2c-.2-1.5.9-2.8 2.4-3l11.2-1.2c1.5-.2 2.8.9 3 2.4l1.3 11.2c.1 1.5-1 2.8-2.5 3z"/><path id="&lt;Path&gt;" class="s7" d="m306.1 242.7 3.7 3.4 4.8-7.4"/></g></g><g id="&lt;Group&gt;"><path id="&lt;Path&gt;" class="s5" d="m291.4 274.4-110.2 12.2c-.6.1-1.1.6-1 1.2.1.6.6 1 1.2 1l110.2-12.3c.6-.1 1-.6 1-1.2-.1-.6-.6-1-1.2-.9zM292.2 282l-126.7 14.1c-.6.1-1 .6-1 1.2.1.6.6 1 1.2 1l126.8-14.1c.6-.1 1-.6.9-1.2-.1-.6-.6-1-1.2-1zM260 293.4l-93.7 10.4c-.6 0-1 .6-.9 1.2 0 .5.6 1 1.2.9l93.6-10.4c.6-.1 1-.6 1-1.2-.1-.6-.6-1-1.2-.9z"/><g id="&lt;Group&gt;"><path id="&lt;Path&gt;" class="s6" d="m321.2 286.9-11.2 1.3c-1.5.2-2.9-.9-3-2.4l-1.3-11.2c-.1-1.5.9-2.9 2.4-3l11.2-1.3c1.5-.1 2.9.9 3 2.4l1.3 11.2c.2 1.5-.9 2.9-2.4 3z"/><path id="&lt;Path&gt;" class="s7" d="m310.1 278.9 3.7 3.5 4.9-7.4"/></g></g><g id="&lt;Group&gt;"><path id="&lt;Path&gt;" class="s5" d="m294.5 302-110.3 12.3c-.6.1-1 .6-.9 1.2.1.6.6 1 1.2.9l110.2-12.2c.6-.1 1-.6.9-1.2 0-.6-.6-1-1.1-1zM295.3 309.7l-126.8 14.1c-.5 0-1 .6-.9 1.2.1.5.6 1 1.2.9l126.7-14.1c.6-.1 1.1-.6 1-1.2-.1-.6-.6-1-1.2-.9zM263.1 321l-93.7 10.4c-.6.1-1 .6-1 1.2.1.6.6 1 1.2 1l93.7-10.5c.6 0 1-.6.9-1.1 0-.6-.5-1.1-1.1-1z"/><g id="&lt;Group&gt;"><path id="&lt;Path&gt;" class="s6" d="m324.2 314.6-11.1 1.2c-1.5.2-2.9-.9-3.1-2.4l-1.2-11.2c-.2-1.5.9-2.8 2.4-3l11.2-1.2c1.5-.2 2.9.9 3 2.4l1.3 11.2c.1 1.5-.9 2.8-2.5 3z"/><path id="&lt;Path&gt;" class="s7" d="m313.2 306.6 3.7 3.4 4.8-7.4"/></g></g></g></g><g id="Stamp"><g id="&lt;Group&gt;"><g id="&lt;Group&gt;"><path id="&lt;Path&gt;" class="s8" d="M202.8 231.3q.2-1.5-.8-3.3l-1.2-2.2-2.4 1.4 1.3 2.3c.6 1.2.4 1.9-.5 2.4-.8.5-1.5.3-2.2-.8l-2.9-5.1-3 .6 3.2 5.8c1.5 2.6 3.7 3.3 6.2 1.9q.7-.4 1.1-.8c-.3-.6 0-1.5.6-1.9q.3-.2.6-.3zM189.5 223.8l.6 1.1q1.7-.1 3.4-.1l-1.5-2.6c-.7-1.2-.4-1.9.4-2.4.8-.4 1.6-.3 2.3.9l1 1.8 2.4-1.4-.9-1.6c-1.5-2.6-3.7-3.4-6.2-2q-.9.6-1.5 1.3c.8.2 1.5.3 1.8.2q-1.2.5-2.4.9-.6 1.8.6 3.9zM208.2 213.2c.3-.2.7-.3 1-.4 1.3-.6 1.6-2.5 1.5-3.8l-1.3-1.6-3.6 2 2.2 4q.1-.2.2-.2z"/><path id="&lt;Path&gt;" class="s8" d="m223.4 221 2.5-1.3-9.3-16.4-2.3 1.3c.7.2 1.3.5 1.3 1.1-.7 0-1.6-.1-2.4.1l4.7 12.1-.1.1-5.9-7.4c0 .3-.1.7-.3.8-.3.2-.7.2-.9.5-.2.2-.2.5-.4.8-.1.2-.4.2-.7.4-.3.2-.4.6-.7.8q-.2.2-.4.3l6.6 11.6 2.2-1.3-6.6-11.6h.1l8.4 10.5 2.5-1.3-5-12.8h.1z"/><path id="&lt;Compound Path&gt;" class="s8" d="M229.6 206.7c.4.2.6.5.7.9q.4-1.6-.7-3.5l-1.2-2.2c-1.5-2.6-3.6-3.3-6.1-1.8l-3.8 2.1 9.3 16.4 2.4-1.4c-.8-.5-1.7-.9-2.4-1.4-.4-.3-.7-.5-.8-.9-.2-.4-.2-.8.1-1.1.3-.4.8-.4 1.2-.2l-1.5-2.6 1.3-.7q1.1-.7 1.7-1.5c-.5-.8-1.4-2.5-.2-2.1zm-2.9 1.3-1.2.6-3.1-5.5 1.2-.7c.8-.5 1.5-.3 2.1.8l1.4 2.5c.7 1.2.4 1.8-.4 2.3z"/><path id="&lt;Path&gt;" class="s8" d="m243.4 209.7-1.3-2.3-4.3 2.4-6.2-10.9-.2.2c-.2.1-.4.3-.7.3-.2.1-.5-.1-.6-.3 0-.1 0-.3.1-.5.1-.8-.4-1.7-.9-2.6l-2 1.2 9.3 16.4zM242.2 204c.3-.7 1.2-1 1.7-1.6q0-.1.1-.2l-1-1.7 2.6-1.4q-.1-.2-.3-.5c-.1-.1-1.1-.3-1.1-.3-.3-.5.1-1.2.7-1.3.1 0 .3.1.4-.1.2-.1.2-.2.2-.3l-.3-.5-3.5 2.1-2.6-4.6 4.5-2.5-1.4-2.4-7 4 6.9 12.1c0-.2 0-.5.1-.8zM251.5 205.1l-1.3-2.3-4.4 2.5-1.4-2.4-1.6 1.6q-.3.3-.6.5l2.3 4.1zM248.2 186.1c0 .3-.2.7-.6.8-.1 0-.3-.1-.5-.1-.3-.1-.6 0-.9-.1q-.1-.1-.2-.1l-2.9 1.6 1.3 2.4 2.7-1.5 8 14 2.5-1.5-7.9-14 2.7-1.5-1.4-2.4-2.7 1.6c-.1.2 0 .5-.1.8zM259.5 195.9l2 3.6 2.7-1.6q.1-.2.2-.5c.5-.9 1.5-1.5 2.3-2q.7-.4 1.3-.8l-.8-1.4-4.5 2.5-2.7-4.8 3.5-2-1.3-2.4-3.5 2-2.6-4.5 4.4-2.5-1.3-2.4-7 4 5 8.9c1.3-.6 1.9 1.7 2.3 3.9zM207.7 228.4c.4 0 .6.4 1 .7q.1.2.4.3.2-.1.5-.3c2.6-1.4 3.1-3.7 1.6-6.3l-.2-.3q-1.7 0-3.4-.1l1.1 2c.7 1.2.4 1.9-.4 2.4s-1.6.3-2.3-.9l-5-8.8c-.6-1.2-.4-1.9.4-2.4.9-.5 1.6-.3 2.3.9l3.4 6q1.6-.4 3.2-.4l-3.9-6.9c-1.5-2.6-3.8-3.4-6.3-1.9-2.5 1.4-3 3.7-1.6 6.3l4.9 8.5c.8 1.6 2 2.4 3.3 2.6q-.1-.1-.1-.2c0-.6.4-1.4 1.1-1.2zM242.2 181.3l7.9-4.4c-2.3.6-4.3 2.5-6.6 2.2-.4 0-.9-.1-1.3 0-.5.3-.7 1.1-.4 1.7q.2.3.4.5zM222.5 192.5q0-.3.1-.5.3.1.6.1l2.7-1.5c.5-.5.9-1 1.5-1.3.5-.3 1-.5 1.6-.6l.6-.2 5-2.8q0-.2.2-.3.1-.1.2-.1-2.6-.8-5.1-1.6l-1.4.8q-.1.6-.2 1.1-3 1.6-5.9 3.2c-.6.3-1.3.6-2 .7h-.7l-8.5 4.8q.1.6.3 1.2-.7-.2-1.4-.6l-1.7 1q1.9 1.2 3.7 2.5zM258.8 171.9q-2-1.1-4.1-2.3l-1.9 1.1c1.1 1.2 2.6 2 4.2 2.3z"/><path id="&lt;Path&gt;" class="s8" d="m280.9 196.1-15.5-27.3c-1.3-2.2-4.1-2.9-6.3-1.7l-1.8 1.1.7.7c.7.7 1.5 1.4 2.2 2.2l.9-.5c.3-.1.6 0 .8.2l15.5 27.3c.1.3 0 .6-.2.8l-21.1 11.9c1.8.1 3.6-.1 5.5.1q.9.1 1.9.3l15.6-8.8c2.2-1.3 3-4.1 1.8-6.3zM186 230.9l-7.3-12.9c-.1-.3 0-.6.2-.8l21.1-11.9q-.2-.2-.3-.5.5 0 .9.1l8.5-4.8q-.4-.1-.8-.3l-4-1.6-3.2 1.8q1.7 1.1 3.5 2.2c-1.2-.8-3.7-.9-5.8-.8l-21.9 12.3c-2.2 1.3-2.9 4.1-1.7 6.3l6.3 11.1q.5-.1.9-.2c.8-.1 1.6-.1 2.4-.1q.6 0 1.2.1zM211.9 235.9q.6.5 1.2.8c.5.1 1.1.6.7 1-1.6.7-3.6.2-5.2 1-.8.4-1.7 1.2-2.6 1 1.1.6 2.1 1.5 3 2.5l39.7-22.5q0-.3.1-.5c.1-.6.2-1.1.5-1.5.5-.5 1.3-.6 2-.6.6 0 1.1 0 1.6.2l4.9-2.8q-1-1.8-2.4-3.3zM205.5 242.5c-.8-.3-1.9-.8-2.6-1.5l-7.9 4.5c-.3.2-.6.1-.8-.2l-7-12.3c-.7-.1-1.4-.4-2.1-.2-.8.1-1.5 1.1-1 1.8.8 0 1.6.5 2 1.2q-.7.5-1.4.9l6 10.6c1.2 2.2 4.1 2.9 6.3 1.7l10.3-5.9-.1-.1c-.5-.2-1.1-.3-1.7-.5z"/></g><g id="&lt;Group&gt;" style="opacity:.2"><g id="&lt;Group&gt;"><path id="&lt;Path&gt;" class="s9" d="M202.8 231.3q.2-1.5-.8-3.3l-1.2-2.2-2.4 1.4 1.3 2.3c.6 1.2.4 1.9-.5 2.4-.8.5-1.5.3-2.2-.8l-2.9-5.1-3 .6 3.2 5.8c1.5 2.6 3.7 3.3 6.2 1.9q.7-.4 1.1-.8c-.3-.6 0-1.5.6-1.9q.3-.2.6-.3zM189.5 223.8l.6 1.1q1.7-.1 3.4-.1l-1.5-2.6c-.7-1.2-.4-1.9.4-2.4.8-.4 1.6-.3 2.3.9l1 1.8 2.4-1.4-.9-1.6c-1.5-2.6-3.7-3.4-6.2-2q-.9.6-1.5 1.3c.8.2 1.5.3 1.8.2q-1.2.5-2.4.9-.6 1.8.6 3.9zM208.2 213.2c.3-.2.7-.3 1-.4 1.3-.6 1.6-2.5 1.5-3.8l-1.3-1.6-3.6 2 2.2 4q.1-.2.2-.2z"/><path id="&lt;Path&gt;" fill-rule="evenodd" class="s9" d="m223.4 221 2.5-1.3-9.3-16.4-2.3 1.3c.7.2 1.3.5 1.3 1.1-.7 0-1.6-.1-2.4.1l4.7 12.1-.1.1-5.9-7.4c0 .3-.1.7-.3.8-.3.2-.7.2-.9.5-.2.2-.2.5-.4.8-.1.2-.4.2-.7.4-.3.2-.4.6-.7.8q-.2.2-.4.3l6.6 11.6 2.2-1.3-6.6-11.6h.1l8.4 10.5 2.5-1.3-5-12.8h.1z"/><path id="&lt;Compound Path&gt;" class="s9" d="M229.6 206.7c.4.2.6.5.7.9q.4-1.6-.7-3.5l-1.2-2.2c-1.5-2.6-3.6-3.3-6.1-1.8l-3.8 2.1 9.3 16.4 2.4-1.4c-.8-.5-1.7-.9-2.4-1.4-.4-.3-.7-.5-.8-.9-.2-.4-.2-.8.1-1.1.3-.4.8-.4 1.2-.2l-1.5-2.6 1.3-.7q1.1-.7 1.7-1.5c-.5-.8-1.4-2.5-.2-2.1zm-2.9 1.3-1.2.6-3.1-5.5 1.2-.7c.8-.5 1.5-.3 2.1.8l1.4 2.5c.7 1.2.4 1.8-.4 2.3z"/><path id="&lt;Path&gt;" class="s9" d="m243.4 209.7-1.3-2.3-4.3 2.4-6.2-10.9-.2.2c-.2.1-.4.3-.7.3-.2.1-.5-.1-.6-.3 0-.1 0-.3.1-.5.1-.8-.4-1.7-.9-2.6l-2 1.2 9.3 16.4zM242.2 204c.3-.7 1.2-1 1.7-1.6q0-.1.1-.2l-1-1.7 2.6-1.4q-.1-.2-.3-.5c-.1-.1-1.1-.3-1.1-.3-.3-.5.1-1.2.7-1.3.1 0 .3.1.4-.1.2-.1.2-.2.2-.3l-.3-.5-3.5 2.1-2.6-4.6 4.5-2.5-1.4-2.4-7 4 6.9 12.1c0-.2 0-.5.1-.8zM251.5 205.1l-1.3-2.3-4.4 2.5-1.4-2.4-1.6 1.6q-.3.3-.6.5l2.3 4.1zM248.2 186.1c0 .3-.2.7-.6.8-.1 0-.3-.1-.5-.1-.3-.1-.6 0-.9-.1q-.1-.1-.2-.1l-2.9 1.6 1.3 2.4 2.7-1.5 8 14 2.5-1.5-7.9-14 2.7-1.5-1.4-2.4-2.7 1.6c-.1.2 0 .5-.1.8zM259.5 195.9l2 3.6 2.7-1.6q.1-.2.2-.5c.5-.9 1.5-1.5 2.3-2q.7-.4 1.3-.8l-.8-1.4-4.5 2.5-2.7-4.8 3.5-2-1.3-2.4-3.5 2-2.6-4.5 4.4-2.5-1.3-2.4-7 4 5 8.9c1.3-.6 1.9 1.7 2.3 3.9zM207.7 228.4c.4 0 .6.4 1 .7q.1.2.4.3.2-.1.5-.3c2.6-1.4 3.1-3.7 1.6-6.3l-.2-.3q-1.7 0-3.4-.1l1.1 2c.7 1.2.4 1.9-.4 2.4s-1.6.3-2.3-.9l-5-8.8c-.6-1.2-.4-1.9.4-2.4.9-.5 1.6-.3 2.3.9l3.4 6q1.6-.4 3.2-.4l-3.9-6.9c-1.5-2.6-3.8-3.4-6.3-1.9-2.5 1.4-3 3.7-1.6 6.3l4.9 8.5c.8 1.6 2 2.4 3.3 2.6q-.1-.1-.1-.2c0-.6.4-1.4 1.1-1.2zM242.2 181.3l7.9-4.4c-2.3.6-4.3 2.5-6.6 2.2-.4 0-.9-.1-1.3 0-.5.3-.7 1.1-.4 1.7q.2.3.4.5zM222.5 192.5q0-.3.1-.5.3.1.6.1l2.7-1.5c.5-.5.9-1 1.5-1.3.5-.3 1-.5 1.6-.6l.6-.2 5-2.8q0-.2.2-.3.1-.1.2-.1-2.6-.8-5.1-1.6l-1.4.8q-.1.6-.2 1.1-3 1.6-5.9 3.2c-.6.3-1.3.6-2 .7h-.7l-8.5 4.8q.1.6.3 1.2-.7-.2-1.4-.6l-1.7 1q1.9 1.2 3.7 2.5zM258.8 171.9q-2-1.1-4.1-2.3l-1.9 1.1c1.1 1.2 2.6 2 4.2 2.3z"/><path id="&lt;Path&gt;" class="s9" d="m280.9 196.1-15.5-27.3c-1.3-2.2-4.1-2.9-6.3-1.7l-1.8 1.1.7.7c.7.7 1.5 1.4 2.2 2.2l.9-.5c.3-.1.6 0 .8.2l15.5 27.3c.1.3 0 .6-.2.8l-21.1 11.9c1.8.1 3.6-.1 5.5.1q.9.1 1.9.3l15.6-8.8c2.2-1.3 3-4.1 1.8-6.3zM186 230.9l-7.3-12.9c-.1-.3 0-.6.2-.8l21.1-11.9q-.2-.2-.3-.5.5 0 .9.1l8.5-4.8q-.4-.1-.8-.3l-4-1.6-3.2 1.8q1.7 1.1 3.5 2.2c-1.2-.8-3.7-.9-5.8-.8l-21.9 12.3c-2.2 1.3-2.9 4.1-1.7 6.3l6.3 11.1q.5-.1.9-.2c.8-.1 1.6-.1 2.4-.1q.6 0 1.2.1zM211.9 235.9q.6.5 1.2.8c.5.1 1.1.6.7 1-1.6.7-3.6.2-5.2 1-.8.4-1.7 1.2-2.6 1 1.1.6 2.1 1.5 3 2.5l39.7-22.5q0-.3.1-.5c.1-.6.2-1.1.5-1.5.5-.5 1.3-.6 2-.6.6 0 1.1 0 1.6.2l4.9-2.8q-1-1.8-2.4-3.3zM205.5 242.5c-.8-.3-1.9-.8-2.6-1.5l-7.9 4.5c-.3.2-.6.1-.8-.2l-7-12.3c-.7-.1-1.4-.4-2.1-.2-.8.1-1.5 1.1-1 1.8.8 0 1.6.5 2 1.2q-.7.5-1.4.9l6 10.6c1.2 2.2 4.1 2.9 6.3 1.7l10.3-5.9-.1-.1c-.5-.2-1.1-.3-1.7-.5z"/></g></g></g></g><g id="Left hand"><g id="&lt;Group&gt;" style="opacity:.3"><path id="&lt;Path&gt;" class="s10" d="M160.5 206.8c6.1 4.5 11.2 26 11.6 45.7.5 19.7 10 53 11.2 58.5 1.2 5.4.7 13.3 7.8 2.3 7.1-10.9 27.8-29.9 36.4-23.6 8.6 6.3-5.9 27.5-13.8 39-7.8 11.4-8.6 31.5-18.1 44.1-9.4 12.6-17.9 31.6-27.2 31.3-9.2-.3-70.4 45.1-70.4 45.1l1.2-62.2 55-89.9z"/></g><g id="&lt;Group&gt;"><path id="&lt;Path&gt;" class="s4" d="M232.5 292.8c-.3 1.9-11.1 16.2-17.4 26.9-6.3 10.6-12.3 29.2-13.8 32-1.6 2.8-21 19.8-26.4 26.9-5.3 7.1-14.8 10.3-24.3 17-6.1 4.3-25.1 26.6-37.9 42-7.1 8.6-12.3 15-12.3 15l-81.9-21.4s6.8-5.6 15.7-13.1h.1v-.1c14.7-12.4 35.1-30 40.8-36.6 9.1-10.7 21.7-23.4 21.7-23.4-.7-14.8.8-28.9-.6-34.2-.7-2.8-2-18.7-2.9-23.5-2.5-12.5-13-25.4-14.2-30.5-1.2-5.1-15.2-26.8-8.4-30.8 1.4-.9 2.8-1.1 4.2-.9 9.2 1.2 16.8 23.4 21.9 29.1 1.7 1.8 3.9 5 6.1 8.5 4.1 6.5 8.2 13.9 8.2 13.9 1.6-6.3-9.9-28.9-13.1-50.3-3.1-21.3-12.2-32.8 0-34.1q1.6-.2 3.1.3c8.6 2.5 12.3 20.4 17.5 37.8.5 1.6 4.4 13.1 7.5 22q-.1 0 0 0c2 5.8 3.6 10.4 3.6 10.4.4-10.8-3-20.9-3.6-30.8-.2-4 1-19.8-.6-35.6-1.3-13.4-.7-18.8 4.5-19.8q1.5-.3 3.4-.2c9.1.6 12.3 24.6 12.3 34 0 5.5.9 16.1 1.7 24.1.6 5.8 1 10.2 1 10.2s1.6-13.3.4-41.9c-.2-6.2.2-10.7 2.6-12.5 1.4-1 3.4-1.2 6.2-.4 7.9 2.1 10.4 31.4 10.4 42.5 0 11.1 6.4 30.1 7.6 45 1.1 15 6.3 33.3 6.3 33.3s2.9 1.2 4.9.8c2-.4 15.6-20.6 15.6-20.6 6.4-13.8 18.8-17.9 25.5-16.4 3.1.7 5.1 2.6 4.6 5.4z"/><g id="&lt;Group&gt;"><path id="&lt;Path&gt;" class="s11" d="M232.5 292.8c-.3 1.9-11.1 16.2-17.4 26.9-6.3 10.6-12.3 29.2-13.8 32-1.6 2.8-21 19.8-26.4 26.9-5.3 7.1-14.8 10.3-24.3 17-6.1 4.3-25.1 26.6-37.9 42 1.4-5.6 4.6-12.7 12.8-19.5 14.4-12 15.2-21.3 22.9-29.2 7.8-7.9 21.3-5.5 26.2-15 4.9-9.5 21.9-18.2 25.5-26.5 3.5-8.4-3.6-10.1 2.7-20.1 6.4-10 12.5-12.4 11.6-16.4-.9-3.9-3.5-9.8 1.9-14.8 3.5-3.1 7.5-6.9 11.6-8.7 3.1.7 5.1 2.6 4.6 5.4zM129.9 339.7c-2.6-1.3-.5-3.9-2.4-6.1-1.8-2.2-6 11.9-7 12-1 0-3.8-7.2-4.9-7.9-1.1-.8-1.8 2.3-3.4 7.9-1.5 5.6-7.3 8.3-10.7 12.4-3.4 4.1-23.8 25.8-28.8 33.9-4.9 8.1-36 24.4-38.4 26.1 14.7-12.4 35.1-30 40.8-36.6 9.1-10.7 21.7-23.4 21.7-23.4-.8-14.8.8-28.9-.6-34.2-.7-2.8-2-18.7-2.9-23.5-2.5-12.5-13-25.4-14.2-30.5-1.2-5.1-15.2-26.8-8.4-30.8 1.4-.9 2.8-1.1 4.2-.9-1.6 1.1-3.1 2.6-1.7 4.9 2.5 4.1 5.3 8.4 5.3 12.8 0 4.5 7.6 10.8 10.6 15 3 4.2.2 2.7 2.2 8.5 2 5.7 4.3 4.5 5.5 10.3 1.2 5.8 7.8 9.5 6.7 16.7-1 7.3 3.2 17.3 3.2 17.3s3.4-9.7 2.2-15c-1.3-5.3.2-11.9-1-13.7-1-1.6-3.7-12.4-5-19.2 4.1 6.6 8.2 13.9 8.2 13.9 1.6-6.3-9.9-28.9-13.1-50.2-3.2-21.4-12.3-32.9 0-34.2q1.6-.2 3 .3c5.3 9.7 1.6 17 .5 21.2-1.3 4.6 6.3 16.5 7.4 24.7 1 7.6 3 6.8 3.3 6.7-.2.2-2.2 2.2-1 7.8 1.2 6 10 20.3 10 24.2 0 4-.7 10.6-.7 12.5 0 2 7 14.9 7.8 18.3.8 3.4-.3-6.5 1.6-9.9 1.9-3.5 2.9-15.5 3.2-14.9 3.2 8.5-.5 44.9-3.2 43.6zM135.6 250.3c-2.3 3.4-2.2 29.9-6 30-1.9 0-2.8-6.7-3.5-15 2 5.8 3.6 10.4 3.6 10.4.4-10.8-3-20.9-3.6-30.8-.2-4 1-19.8-.6-35.6-1.3-13.4-.7-18.8 4.5-19.8 1.1 3.5 3.8 7.7 4.5 11.6 1 5.4-.9 9.9-2.5 10.5-1.6.7-1.8 4.2.2 4.7 1.9.5-.1 25.8.9 29 1 3.3 4.7 1.6 2.5 5zM156.1 220.7c-4.1 1.8-4.3 5.1-5.5 9.7-1.3 4.7 1.7 11.5 0 22.1-1.8 10.7 4.6 17.6 0 29.5-4.7 12-2.5-9.9-3.3-20-.3-4.1-.2-9.6.1-14.6.6 5.8 1 10.2 1 10.2s1.6-13.3.4-41.9c-.2-6.2.2-10.7 2.6-12.5 4.3 3.8 8.2 16 4.7 17.5z"/></g><g id="&lt;Group&gt;"><path id="&lt;Path&gt;" class="s12" d="M100.4 452.6s40.7-50.3 50.2-57c9.5-6.7 19-9.9 24.3-17 5.4-7.1 24.8-24.1 26.4-26.9 1.5-2.8 7.5-21.4 13.8-32 6.3-10.7 17.1-25 17.4-26.9 1.4-8.7-20.8-9.1-30 11 0 0-13.7 20.2-15.7 20.6-2 .4-4.9-.8-4.9-.8s-5.2-18.3-6.4-33.3c-1.1-14.9-7.5-33.9-7.5-45 0-11.1-2.5-40.4-10.5-42.5-7.9-2.2-9.1 3.2-8.7 12.9 1.2 28.6-.3 41.8-.3 41.8s-2.8-24.8-2.8-34.2c0-9.4-3.2-33.4-12.3-34-8.3-.5-9.4 4.2-7.9 20 1.6 15.8.4 31.6.6 35.6.6 9.9 4 20 3.6 30.8 0 0-10.3-29.7-11.1-32.4-5.7-19.3-9.7-39.3-20.6-38.1-12.3 1.3-3.2 12.8 0 34.2 3.2 21.3 14.6 43.9 13.1 50.2 0 0-9.5-17.2-14.3-22.4-5.9-6.5-15-34.8-26.1-28.2-6.8 4 7.2 25.7 8.4 30.8 1.2 5.1 11.7 18 14.2 30.5.9 4.9 2.2 20.7 2.9 23.5 1.4 5.4-.2 19.4.6 34.2 0 0-12.6 12.7-21.7 23.4s-56.6 49.8-56.6 49.8"/><path id="&lt;Path&gt;" class="s12" d="M181.9 323.6s3 6.1 0 14.1M185.3 324.5s3.9 2.7 2.3 7.4M148.5 257.5s3.1 22.4 1.7 26.6M129.7 275.7s.6 3.4 0 6.6M111.1 289.6s.6 3.4 0 4.1M211.4 308.6s3.5 1.9 4.7 4.7M129.8 215.7s3.6 1.1 6.6-1.8M131 247.9s7.2 2.3 9.7 0M154.2 254.8s4.7-1.8 7.9-.8M108.9 261.1s3.7-4.9 6.7-3.6M93.5 275.7s-3.4 1.6-4.4 3.3M96.8 358s1.6-1.7 2.2-2.9c.6-1.2-.2-13.9 0-22M138.3 407.8c-4.6 5.3-18.9 14.7-24.7 20.5M157.2 289.6c-2.4 6.7.2 15.2 0 19-.2 3.7-1.1 20.9-1.1 20.9M135.6 289.6c-3.2 5.3-2.2 12.5-1.2 16 1 3.6.1 18 .1 18M101.6 306.6c-.6 5.3 1.9 10.1 1.9 10.1M121.2 296.1c-1.8 6.5.5 9.5.7 10.5"/></g></g></g><g id="Right hand"><g id="&lt;Group&gt;" style="opacity:.3"><path id="&lt;Path&gt;" class="s10" d="m281.8 253-3.3-19.6c-.7-3.6 1.9-7.1 5.6-7.6l7.5-.9s-2.5-5.2 5.6-20.1c8.1-14.9 47.1-54.4 76.7 12 29.5 66.5 56.5 201.9 56.5 201.9s-79.8-92.9-82.3-97.7c-2.5-4.8-26.8-1.9-32.4-14.7-5.6-12.8-17.4-49.2-17.4-49.2l-9.2 1.3c-3.4.4-6.7-1.9-7.3-5.4z"/></g><g id="&lt;Group&gt;"><g id="&lt;Group&gt;"><g id="&lt;Clip Group&gt;"><g id="&lt;Group&gt;" style="opacity:.3"><path id="&lt;Path&gt;" class="s10" d="m341.3 185.8-4.5 25.1-21.3 3.9c-6.1-2.7-16.3-7.5-18.3-10-2.4-3-2.1-20.7-.9-29.7l23.6-4.3c8.3 5.7 21.4 15 21.4 15z"/></g><g id="&lt;Group&gt;" style="opacity:.3"><path id="&lt;Path&gt;" class="s10" d="m291.9 219.1-4.2.7c-2.3.5-4.4-1-4.8-3.3l-6.1-33.6c-.4-2.3 1-4.4 3.3-4.8l4.2-.8c-2.2.4-3.7 2.5-3.3 4.8l6.1 33.6c.4 2.3 2.6 3.8 4.8 3.4z"/></g><path id="&lt;Path&gt;" d="m352.1 208.1-15.3 2.8-21.3 3.9-27.8 5c-2.3.5-4.4-1-4.8-3.3l-6.2-33.6c-.3-2.3 1.1-4.4 3.4-4.8l16.2-3 23.6-4.3 24.6-4.5c2.3-.4 4.4 1.1 4.8 3.4l6.2 33.6c.4 2.3-1.1 4.4-3.4 4.8z" style="fill:#d0e4fc;stroke:#263238;stroke-linecap:round;stroke-linejoin:round"/></g><path id="&lt;Path&gt;" class="s12" d="m356.4 207.4-64.5 11.7c-2.2.4-4.4-1.1-4.8-3.4l-6.1-33.6c-.4-2.3 1.1-4.4 3.3-4.8l64.5-11.7c2.2-.4 4.4 1 4.8 3.3l6.1 33.6c.4 2.3-1.1 4.4-3.3 4.9z"/><path id="&lt;Path&gt;" class="s12" d="m352.5 205.6-60.4 11c-1.1.2-2.2-.5-2.4-1.6l-6-33.1c-.2-1.1.5-2.2 1.6-2.4l60.5-11c1.1-.2 2.1.6 2.3 1.6l6.1 33.2c.2 1.1-.6 2.1-1.7 2.3z"/><path id="&lt;Path&gt;" class="s12" d="m356.4 207.3-4.2.8c2.2-.4 3.7-2.5 3.3-4.8l-6.1-33.6c-.5-2.3-2.6-3.8-4.9-3.4l4.3-.7c2.2-.4 4.4 1 4.8 3.3l6.1 33.6c.4 2.3-1.1 4.4-3.3 4.8z"/></g><g id="&lt;Group&gt;"><path id="&lt;Path&gt;" class="s4" d="m478 315.1-41.4 111.1s-17.3-32.9-33.3-63.5c-12.8-24.4-24.7-47.3-26.4-50.7-3.6-7.6-15.9-23.5-15.9-23.5s-12.6-7.2-18.4-19.9c-5.8-12.6-12.2-57.7-12.2-57.7s-16.6-6.2-20.6-9c-3.9-2.7-7.6-28.1-7.6-30.9 0-2.9 4-8.7 4-8.7s-.9-4.3 4.2-8.5c1.4-1.2 3.1-2.3 5.5-3.4h.1s-.7-9.6 4.3-12.4q.3-.2.7-.4c4.5-1.7 19-3.9 19-3.9s3.5-3.1 7.1-4c2.5-.8 16.7 2.5 24.6 4.5 3.2.8 5.4 1.3 5.4 1.3s13.3.6 15.9 2.1c2 1.3 4.1 3.4 4.8 4.1q0 .1 0 0c.1.2.2.3.2.3s12 2.5 14.5 6.9c2.5 4.3 3.6 26 1.8 40.1-1.8 14.1 1.4 38 1.4 38s3.8 18.5 6.7 25.5c2.8 7 55.6 62.6 55.6 62.6z"/><path id="&lt;Path&gt;" class="s11" d="M403.3 362.7c-12.8-24.4-24.8-47.3-26.4-50.7-3.6-7.6-15.9-23.5-15.9-23.5s-12.6-7.2-18.4-19.9c-5.8-12.6-12.2-57.7-12.2-57.7s-16.6-6.2-20.6-9c-3.9-2.7-7.6-28-7.6-30.9 0-2.9 4-8.7 4-8.7s-.9-4.3 4.2-8.5v6c-.2 5.8 6.6 40.3 8.3 39.3 1.6-1.1 4.2-3.6 3.5-5.8 0 0-3.2-13.4-6.3-42.9h.1s-.7-9.6 4.3-12.4c-.9 2.4-1.6 4.8-1.6 6.5-.1 4.7 5.4 44.6 7.6 45.6 2.1 1 7.6-4.3 7.6-4.3s-1.8-11.3-1.2-16.2c0 0 16.8 10.2 17.3 21.8 0 1.3 3.2 19.4 3.2 19.4s-14.4 27.4.3 52.4c0 0-7.5-4.5-9.2-11.6 0 0-2.2 21 13.2 32 0 0 11.1-10.8 22-12.2 0 0 .2.7-7.1 6.5-7.4 5.8-8.4 8.3-8.4 8.3s8-7.9 14.3-8.3c0 0-6.5 7.5-6.3 9.1.2 1.6 18.6 33.2 25.4 55.2 2.8 9.3 4.6 15.9 5.9 20.5zM351.4 153.1s5.3 4 6.9 0c1.6-3.9 1.7-6.7 1.7-6.7s2.1-1 4.1 4c1.9 4.9 21.5 6.2 26 8.7 4.6 2.5 6.4 0 6.4 0s3.8 2.8 1.5 7.4c-2.2 4.6 4.1 5 6.5 1.6 2.5-3.3.6 9.7-5.4 11 0 0 .1 5.7-3.7 9.6h3.3s-8.8 7-11.1 7.3c-2.4.4 8.6 4.3 6.6 5.1-2.1.9-7.8.8-7.8.8s3.7 2.6 3.7 4.3c.1 1.7-1.7 3-2.5 1.6-.9-1.5-7.3-21.9-10.5-29.5-3.2-7.6-16.6-13.5-25.7-25.2zM397.8 141.7c-11.2-3-26.3-7.4-26.3-7.4l.2-.1c3.2.8 5.4 1.3 5.4 1.3s13.3.6 15.9 2.2c2 1.2 4 3.3 4.8 4z"/><path id="&lt;Path&gt;" d="M382 159.4c-9.8-2-16.8 6.3-16.8 6.3s9.7 8.8 11.9 12.6c2.1 3.8 5.7 16.5 5.7 16.5 4.1.6 11.6-3.6 13.4-14.8 1.8-11.2-4.5-18.6-14.2-20.6z" style="fill:#58ace4"/><g id="&lt;Group&gt;"><path id="&lt;Path&gt;" class="s12" d="M436.6 426.2s-56-106.6-59.7-114.2c-3.6-7.6-15.9-23.5-15.9-23.5s-12.6-7.2-18.4-19.9c-5.8-12.6-12.2-57.7-12.2-57.7s-16.6-6.2-20.6-9c-3.9-2.7-7.6-28-7.6-30.9 0-2.9 4-8.7 4-8.7s-1.4-6.9 9.8-11.9c0 0-.7-10.5 5-12.8 4.5-1.7 19-3.9 19-3.9s3.5-3.1 7.1-4c3.6-1 30 5.8 30 5.8s13.3.6 15.9 2.1c2.5 1.5 5 4.4 5 4.4s12 2.5 14.5 6.9c2.5 4.3 3.6 26 1.8 40.1-1.8 14.1 1.4 38 1.4 38s3.8 18.5 6.7 25.5c2.9 7 55.6 62.6 55.6 62.6"/><path id="&lt;Path&gt;" class="s12" d="M389.2 209.5s-2.5-.6-5.8-12.5-4.1-17.5-10.8-24.6c-4.8-5-15.8-13.2-21.2-19.3-5.4-6.1-11.4-11.1-16.1-7.3-3.7 3-6.2 10.8-2.9 22.8 4.3 15.4 17.6 22.8 17.6 22.8l3.2 19.4s-14.1 28.4 1.8 55.1"/><path id="&lt;Path&gt;" class="s12" d="M365.2 165.7s7-8.3 16.8-6.3c9.7 2 16 9.4 14.2 20.6-1.8 11.2-9.3 15.4-13.4 14.8M340 133.7s-1.6 3.8-3.3 11.4M334.1 172.9s.8 12.3 2.6 16.1c1.7 3.8 4.6 6.9 5.9 11.8 1.2 4.9 1.4 12.5 1.8 13.5.3 1.1 2.4 1.4 2.4 1.4 3 .1 4.2-1.5 5.9-3.9"/><path id="&lt;Path&gt;" class="s12" d="M316 150.4s2.7 26.3 4.9 37.5c2.1 11.3 5.9 12.9 12.3 16.5 6.3 3.6 9.7 11 10.3 12.1.5 1.1 2.6 1.2 2.6 1.2 1.9.1 4.9-1.7 5.8-3.8"/><path id="&lt;Path&gt;" class="s12" d="M306.2 162.3c-.7 1 5.1 27.8 8.2 35.6 3 7.8 3.3 9 11.3 11.2 8 2.2 14.1 5.9 16.2 4.6M361.7 147.5s4.2 9.9 1.4 16.4M377.1 135.5s10.6 4.4 20.9 6.5M404.5 169.9s-3.1 5.8-8 7M396.5 163.5s-1.1 3-2.3 3.9M400.5 187.4s-7.2 5.5-14.1 6.9M383.4 197s3 3.8 10.8 4.1M360 180.4s7.1-6.8 11.2-5.8M373.9 181.8s-5.4 4-6.4 4"/><path id="&lt;Path&gt;" class="s12" d="M318.7 203s1.8.3 3.1-1.9M325 193.3s4.3-2.7 7.1-3.2M362.9 283.5c.9-.8 9.2-7.6 14.3-9.9M373.7 280.3c-.6-.2-5.4 4.7-7.8 6.7M376 294.9s15.9 30 19.4 42M422.4 252.5c1.3 7.4 5.7 12.8 8 15.8"/></g><path id="&lt;Path&gt;" d="M372.5 162.3c-2.3 1.4.1 6 1.4 8.4 1.2 2.4 7 6.1 8.2 9.7 1.1 3.6 8.7 3.5 10.9 0 2.3-3.5 2-10.4-4.2-15.6-6.2-5.3-13.1-4.5-16.3-2.5z" style="opacity:.4;fill:#fff"/></g></g></g><g id="Speech bubble"><g id="&lt;Group&gt;"><path id="&lt;Path&gt;" class="s12" d="M328.5 361.6c-24.8-4.3-48.4 12.5-52.7 37.3-3 17.8 4.7 35 18.4 44.8M347.6 369.5c-4.2-3-8.9-5.3-14-6.8M343 446.6c11.7-6.5 20.5-18.1 22.9-32.3 2.6-15.1-2.5-29.6-12.5-39.8M345.2 461l2.7 2.4-4.2-14.5M313.2 451.7c7 1.1 13.8.7 20.2-1.1l8.6 7.6M302.7 448.6q2.6 1.1 5.3 1.8"/><g id="&lt;Group&gt;"><path id="&lt;Path&gt;" class="s12" d="M324.5 384.4c12.5 2.1 20.9 14 18.8 26.5-2.1 12.5-14 21-26.5 18.8-12.6-2.1-21-14-18.8-26.5 1.6-9.7 9.2-17 18.3-18.7"/><path id="&lt;Path&gt;" class="s12" d="M316.4 432.2c-13.9-2.4-23.2-15.5-20.9-29.4M344.6 415.7c-3.2 8.9-11.1 15.2-20.3 16.6M297.5 396.4c4.7-10.2 15.8-16.4 27.4-14.5 13.9 2.4 23.2 15.6 20.8 29.4"/><path id="&lt;Path&gt;" class="s16" d="m335.9 397.9.3-.3M331.8 402.3l2.1-2.2M306.9 405.5l9.8 13 13.4-14.3"/></g></g></g></svg>